<svg width="32" height="32" viewBox="0 0 32 32" fill="none" xmlns="http://www.w3.org/2000/svg">
<path d="M15.9987 29.4277C23.3607 29.4277 29.4193 23.3691 29.4193 16.0072C29.4193 8.64518 23.3607 2.57227 15.9987 2.57227C8.63672 2.57227 2.57812 8.64518 2.57812 16.0072C2.57812 23.3691 8.63672 29.4277 15.9987 29.4277ZM15.9987 27.9811C9.36719 27.9811 4.02474 22.6243 4.02474 16.0072C4.02474 9.37565 9.36719 4.01888 15.9987 4.01888C22.6302 4.01888 27.987 9.37565 27.987 16.0072C27.987 22.6243 22.6302 27.9811 15.9987 27.9811ZM15.9987 22.6816C16.3997 22.6816 16.6719 22.4095 16.6719 22.0085V13.5579L16.6003 11.252L18.1901 12.9564L20.3242 15.1048C20.4531 15.2337 20.5964 15.3053 20.7969 15.3053C21.1549 15.3053 21.4271 15.0332 21.4271 14.6895C21.4271 14.5033 21.3698 14.3457 21.2409 14.2311L16.5 9.49023C16.3424 9.33268 16.1849 9.26107 15.9987 9.26107C15.8268 9.26107 15.6693 9.33268 15.5117 9.49023L10.7708 14.2311C10.6562 14.3457 10.5846 14.5033 10.5846 14.6895C10.5846 15.0332 10.8568 15.3053 11.2148 15.3053C11.4154 15.3053 11.5586 15.2337 11.6875 15.1048L13.8359 12.9564L15.3971 11.2663L15.3398 13.5579V22.0085C15.3398 22.4095 15.612 22.6816 15.9987 22.6816Z" fill="#06974F"/>
</svg>
