<svg width="32" height="32" viewBox="0 0 32 32" fill="none" xmlns="http://www.w3.org/2000/svg">
<path d="M15.9987 29.4277C23.3607 29.4277 29.4193 23.3691 29.4193 16.0072C29.4193 8.64518 23.3607 2.57227 15.9987 2.57227C8.63672 2.57227 2.57812 8.64518 2.57812 16.0072C2.57812 23.3691 8.63672 29.4277 15.9987 29.4277ZM15.9987 27.9811C9.36719 27.9811 4.02474 22.6243 4.02474 16.0072C4.02474 9.37565 9.36719 4.01888 15.9987 4.01888C22.6302 4.01888 27.987 9.37565 27.987 16.0072C27.987 22.6243 22.6302 27.9811 15.9987 27.9811ZM15.9987 9.26107C15.612 9.26107 15.3398 9.5332 15.3398 9.91992V18.3848L15.3971 20.6621L13.8359 18.972L11.6875 16.8379C11.5586 16.709 11.4154 16.6374 11.2148 16.6374C10.8568 16.6374 10.5846 16.8952 10.5846 17.2533C10.5846 17.4395 10.6562 17.5827 10.7708 17.7116L15.5117 22.4382C15.6693 22.61 15.8268 22.6816 15.9987 22.6816C16.1849 22.6816 16.3424 22.5957 16.5 22.4382L21.2409 17.7116C21.3698 17.5827 21.4271 17.4395 21.4271 17.2533C21.4271 16.8952 21.1549 16.6374 20.7969 16.6374C20.5964 16.6374 20.4531 16.6947 20.3242 16.8379L18.1901 18.972L16.6003 20.6764L16.6719 18.3848V9.91992C16.6719 9.5332 16.3997 9.26107 15.9987 9.26107Z" fill="#A9A9A9"/>
</svg>
