<svg width="25" height="24" viewBox="0 0 25 24" fill="none" xmlns="http://www.w3.org/2000/svg">
<path d="M5.42632 6.22852C5.22124 6.47266 5.25054 6.77539 5.47515 6.94141C5.69976 7.09766 5.98296 7.04883 6.16851 6.83398C7.66265 4.99805 9.9478 3.82617 12.4966 3.82617C16.7837 3.82617 20.2896 7.12695 20.6314 11.3164H18.981C18.522 11.3164 18.3755 11.6387 18.649 12.0293L20.6314 14.8516C20.856 15.1738 21.1685 15.1738 21.4029 14.8516L23.3755 12.0293C23.6587 11.6387 23.5123 11.3164 23.0435 11.3164H21.6177C21.2662 6.60938 17.2916 2.84961 12.4966 2.84961C9.6646 2.84961 7.11577 4.16797 5.42632 6.22852ZM1.61772 11.9707C1.34429 12.3613 1.49077 12.6836 1.94976 12.6836H3.37554C3.73686 17.3906 7.71147 21.1504 12.4966 21.1504C15.3482 21.1504 17.897 19.832 19.5767 17.7715C19.7818 17.5273 19.7525 17.2246 19.5279 17.0586C19.3033 16.8926 19.0201 16.9414 18.8443 17.166C17.3501 19.002 15.065 20.1738 12.4966 20.1738C8.20952 20.1738 4.71343 16.873 4.37163 12.6836H6.02202C6.48101 12.6836 6.62749 12.3613 6.35405 11.9805L4.37163 9.14844C4.14702 8.82617 3.82476 8.82617 3.60015 9.14844L1.61772 11.9707Z" fill="#E07F0A"/>
</svg>
