<svg width="24" height="24" viewBox="0 0 24 24" fill="none" xmlns="http://www.w3.org/2000/svg">
<path d="M7.76663 16.2188C7.42047 16.2188 7.14144 16.5123 7.22056 16.8493C7.5951 18.4447 9.04163 19.8885 11.5973 20.0215V21.0581C11.5973 21.3221 11.8113 21.5361 12.0753 21.5361C12.3393 21.5361 12.5534 21.3221 12.5534 21.0581V20.0107C15.2282 19.8281 16.9792 18.3027 16.9792 16.0254C16.9792 13.9199 15.7008 12.9639 13.1979 12.2549L12.5534 12.0723V6.38965C14.1737 6.50865 15.1075 7.32975 15.4346 8.31446C15.5312 8.60549 15.7818 8.83887 16.0884 8.83887C16.4371 8.83887 16.7184 8.54177 16.6337 8.20352C16.2439 6.64547 14.7925 5.44951 12.5534 5.32617V4.28955C12.5534 4.02554 12.3393 3.81152 12.0753 3.81152C11.8113 3.81152 11.5973 4.02554 11.5973 4.28955V5.34766C9.1481 5.55176 7.55825 7.09863 7.55825 9.19336C7.55825 11.0947 8.77212 12.2119 10.8239 12.792L11.5973 13.0068V18.958C9.74916 18.8009 8.75157 17.8012 8.41308 16.7384C8.32077 16.4486 8.07078 16.2188 7.76663 16.2188ZM11.1891 11.6855C9.59927 11.2344 8.73989 10.5361 8.73989 9.16113C8.73989 7.65723 9.82485 6.58301 11.5973 6.40039V11.8037L11.1891 11.6855ZM12.8864 13.3613C14.82 13.8984 15.8083 14.5645 15.8083 16.1006C15.8083 17.6904 14.5407 18.8184 12.5534 18.958V13.2646L12.8864 13.3613Z" fill="#04595b"/>
</svg>
