<svg width="16" height="16" viewBox="0 0 16 16" fill="none" xmlns="http://www.w3.org/2000/svg">
<path d="M13.2909 7.5462C13.2754 7.4462 13.2598 7.38842 13.2598 7.38842C13.2598 7.38842 13.2198 7.43286 13.1554 7.51953C13.1354 7.28175 13.0932 7.04842 13.0265 6.81731C12.9443 6.53064 12.8376 6.25286 12.7043 5.9862C12.6198 5.80842 12.5221 5.63953 12.4087 5.47953C12.3687 5.41953 12.3265 5.35953 12.2843 5.30398C12.0887 4.98398 11.8621 4.7862 11.6021 4.41509C11.4332 4.13064 11.3154 3.81731 11.2598 3.49064C11.1887 3.68842 11.1332 3.89064 11.0954 4.09731C10.8265 3.8262 10.5954 3.63509 10.4532 3.50398C9.76428 2.85509 9.84428 2.51953 9.84428 2.51953C9.84428 2.51953 8.54873 3.9662 9.10873 5.47286C9.30206 5.98398 9.63761 6.43064 10.0732 6.75953C10.6154 7.20842 11.2021 7.55953 11.5109 8.46175C11.2621 7.98842 10.8865 7.59064 10.4265 7.31731C10.5643 7.64398 10.6354 7.99731 10.6332 8.35064C10.6332 9.7062 9.53095 10.8062 8.17539 10.804C7.99095 10.804 7.80873 10.784 7.63095 10.7418C7.41984 10.7018 7.21539 10.6329 7.02206 10.5351C6.73539 10.3618 6.48873 10.1329 6.29317 9.86175L6.28873 9.85509L6.33317 9.87064C6.43539 9.9062 6.53762 9.93286 6.64428 9.95286C7.05984 10.0418 7.49539 9.99064 7.87984 9.8062C8.26873 9.59064 8.50206 9.43064 8.69317 9.49509H8.69762C8.88428 9.55509 9.03095 9.37286 8.89761 9.18398C8.6665 8.8862 8.28873 8.73953 7.91539 8.8062C7.5265 8.86175 7.17095 9.13953 6.66206 8.87064C6.62873 8.85286 6.59762 8.83509 6.5665 8.81509C6.53095 8.79509 6.67539 8.84398 6.64206 8.82175C6.53095 8.7662 6.42428 8.70175 6.32206 8.63064C6.31539 8.62398 6.39984 8.65509 6.39095 8.64842C6.25984 8.55953 6.1465 8.44398 6.05762 8.31064C5.9665 8.1462 5.95762 7.9462 6.03539 7.77509C6.08206 7.69064 6.15539 7.62175 6.24206 7.58175C6.30873 7.61509 6.34873 7.63953 6.34873 7.63953C6.34873 7.63953 6.31984 7.58398 6.30206 7.55509C6.30873 7.55286 6.31317 7.55509 6.31984 7.55064C6.37761 7.57509 6.50428 7.63953 6.57317 7.67953C6.61984 7.70398 6.65762 7.73953 6.68873 7.78398C6.68873 7.78398 6.71095 7.77286 6.69539 7.72398C6.67095 7.66398 6.63095 7.61286 6.57539 7.57731H6.57984C6.63095 7.60398 6.67984 7.63509 6.7265 7.66842C6.76873 7.57064 6.78873 7.46398 6.78428 7.35731C6.78873 7.29953 6.77984 7.23953 6.75984 7.18398C6.74206 7.14842 6.77095 7.13509 6.80206 7.17286C6.79762 7.14398 6.7865 7.11731 6.77539 7.09064V7.08842C6.77539 7.08842 6.79317 7.06398 6.80206 7.05509C6.82428 7.03286 6.84873 7.01286 6.87761 6.99509C7.03762 6.89509 7.2065 6.80842 7.38206 6.73731C7.52428 6.67509 7.64206 6.62842 7.6665 6.61286C7.70206 6.59064 7.73539 6.56398 7.7665 6.53509C7.88428 6.43509 7.9665 6.29509 7.99317 6.14175C7.99539 6.12175 7.99762 6.10175 7.99984 6.07953V6.0462C7.97984 5.96842 7.8465 5.91064 7.1465 5.84398C6.89984 5.80398 6.70206 5.61953 6.6465 5.37509V5.37286C6.77984 5.02398 7.01984 4.7262 7.33095 4.52175C7.34873 4.5062 7.25984 4.5262 7.27762 4.51064C7.33762 4.48175 7.39761 4.45509 7.45984 4.43286C7.49095 4.41953 7.3265 4.35731 7.17984 4.37286C7.09095 4.37731 7.00206 4.39953 6.91984 4.43509C6.95539 4.4062 7.05762 4.3662 7.03317 4.3662C6.8465 4.40175 6.6665 4.47064 6.50206 4.5662C6.50206 4.54842 6.50428 4.53286 6.51317 4.51731C6.38206 4.57286 6.26873 4.66175 6.17984 4.77286C6.18206 4.75286 6.18428 4.73286 6.18428 4.71286C6.12428 4.75731 6.06873 4.80842 6.02206 4.8662L6.01984 4.86842C5.63317 4.71953 5.21317 4.68398 4.8065 4.76398L4.80206 4.76175H4.8065C4.72206 4.69286 4.64873 4.61286 4.59095 4.51953L4.5865 4.52175L4.57762 4.51731C4.55095 4.47731 4.52428 4.43286 4.49539 4.38398C4.47539 4.34842 4.45539 4.30842 4.43539 4.26842C4.43539 4.2662 4.43317 4.26398 4.43095 4.26398C4.42206 4.26398 4.41762 4.30175 4.41095 4.29286V4.29064C4.33984 4.1062 4.3065 3.90842 4.31317 3.70842L4.30873 3.71064C4.19539 3.78842 4.10873 3.90175 4.06206 4.03286C4.04206 4.07953 4.0265 4.1062 4.01317 4.13286V4.12175C4.01539 4.09731 4.0265 4.04842 4.02428 4.05286C4.02206 4.05731 4.01984 4.05953 4.01762 4.06175C3.98428 4.09953 3.95317 4.14398 3.93095 4.19064C3.91095 4.23286 3.89317 4.27731 3.87984 4.32175C3.87761 4.32842 3.87984 4.31509 3.87984 4.29953C3.87984 4.28398 3.88206 4.25509 3.87984 4.26175L3.87317 4.27731C3.72428 4.60842 3.63095 4.96175 3.59762 5.32398C3.58873 5.3862 3.58428 5.44842 3.5865 5.50842V5.51286C3.47984 5.62842 3.3865 5.75731 3.30428 5.89286C3.03539 6.3462 2.83539 6.83731 2.70873 7.35064C2.79762 7.15509 2.90428 6.96842 3.0265 6.79286C2.78873 7.39509 2.6665 8.03731 2.6665 8.6862C2.7065 8.49509 2.75984 8.30842 2.82206 8.12398C2.78428 8.89064 2.93095 9.65509 3.25317 10.3529C3.68428 11.3195 4.39984 12.1306 5.30428 12.6795C5.67317 12.9284 6.07539 13.1218 6.49984 13.2529C6.55539 13.2729 6.61317 13.2929 6.67095 13.3129C6.65317 13.3062 6.63539 13.2973 6.61762 13.2906C7.11984 13.4418 7.64428 13.5195 8.16873 13.5195C10.0287 13.5195 10.6421 12.8106 10.6976 12.7418C10.7887 12.6595 10.8643 12.5595 10.9176 12.4462C10.9532 12.4306 10.9887 12.4151 11.0265 12.3995L11.0487 12.3884L11.0909 12.3684C11.3709 12.2373 11.6354 12.0706 11.8754 11.8773C12.2376 11.6173 12.4954 11.2395 12.6065 10.8084C12.6732 10.6506 12.6754 10.4751 12.6154 10.3151C12.6354 10.284 12.6532 10.2529 12.6754 10.2195C13.0754 9.57731 13.3021 8.84398 13.3332 8.08842V8.0262C13.3332 7.86398 13.3198 7.70398 13.2909 7.5462ZM6.6465 5.37731C6.63762 5.40175 6.6265 5.42842 6.61762 5.45509C6.6265 5.42842 6.63539 5.40398 6.6465 5.37731Z" fill="white"/>
</svg>
