<svg width="24" height="24" viewBox="0 0 24 24" fill="none" xmlns="http://www.w3.org/2000/svg">
<path d="M12.0005 21.8057C17.3699 21.8057 21.8057 17.3699 21.8057 12.0005C21.8057 6.62116 17.3692 2.19531 11.9912 2.19531C6.62148 2.19531 2.19531 6.62213 2.19531 12.0005C2.19531 17.3699 6.63108 21.8057 12.0005 21.8057Z" stroke="white"/>
<path d="M11.9438 8.4375C11.3594 8.4375 10.8955 7.97363 10.8955 7.39844C10.8955 6.80469 11.3594 6.34082 11.9438 6.34082C12.5283 6.34082 12.9922 6.80469 12.9922 7.39844C12.9922 7.97363 12.5283 8.4375 11.9438 8.4375ZM10.311 17.1768C9.99561 17.1768 9.76367 16.9448 9.76367 16.6387C9.76367 16.3511 9.99561 16.1099 10.311 16.1099H11.6562V11.23H10.4316C10.1255 11.23 9.88428 10.998 9.88428 10.6919C9.88428 10.4043 10.1255 10.1631 10.4316 10.1631H12.25C12.6304 10.1631 12.8345 10.4321 12.8345 10.8218V16.1099H14.1797C14.4951 16.1099 14.7271 16.3511 14.7271 16.6387C14.7271 16.9448 14.4951 17.1768 14.1797 17.1768H10.311Z" fill="white"/>
</svg>
