<svg width="24" height="24" viewBox="0 0 24 24" fill="none" xmlns="http://www.w3.org/2000/svg">
<path d="M12 21.3057C17.0933 21.3057 21.3052 17.0938 21.3052 12.0005C21.3052 6.89795 17.0933 2.69531 11.9907 2.69531C6.89746 2.69531 2.69482 6.89795 2.69482 12.0005C2.69482 17.0938 6.90674 21.3057 12 21.3057Z" fill="#FFBB38"/>
<path d="M11.9443 8.43652C11.3599 8.43652 10.896 7.97266 10.896 7.39746C10.896 6.80371 11.3599 6.33984 11.9443 6.33984C12.5288 6.33984 12.9927 6.80371 12.9927 7.39746C12.9927 7.97266 12.5288 8.43652 11.9443 8.43652ZM10.3115 17.1758C9.99609 17.1758 9.76416 16.9438 9.76416 16.6377C9.76416 16.3501 9.99609 16.1089 10.3115 16.1089H11.6567V11.229H10.4321C10.126 11.229 9.88477 10.9971 9.88477 10.6909C9.88477 10.4033 10.126 10.1621 10.4321 10.1621H12.2505C12.6309 10.1621 12.835 10.4312 12.835 10.8208V16.1089H14.1802C14.4956 16.1089 14.7275 16.3501 14.7275 16.6377C14.7275 16.9438 14.4956 17.1758 14.1802 17.1758H10.3115Z" fill="white"/>
</svg>
