<svg width="24" height="24" viewBox="0 0 24 24" fill="none" xmlns="http://www.w3.org/2000/svg">
<path d="M11.9995 8.63984C11.7115 8.63984 11.5195 8.44784 11.5195 8.15984V4.31984C11.5195 4.03184 11.7115 3.83984 11.9995 3.83984C12.2875 3.83984 12.4795 4.03184 12.4795 4.31984V8.15984C12.4795 8.44784 12.2875 8.63984 11.9995 8.63984Z" fill="black"/>
<path opacity="0.3" d="M11.9995 20.1604C11.7115 20.1604 11.5195 19.9684 11.5195 19.6804V15.8404C11.5195 15.5524 11.7115 15.3604 11.9995 15.3604C12.2875 15.3604 12.4795 15.5524 12.4795 15.8404V19.6804C12.4795 19.9684 12.2875 20.1604 11.9995 20.1604Z" fill="black"/>
<path opacity="0.3" d="M13.9201 9.12018C13.8241 9.12018 13.7761 9.12018 13.6801 9.07218C13.4881 8.92818 13.3921 8.68819 13.5361 8.44819L15.4561 5.13618C15.6001 4.94418 15.8401 4.84818 16.0801 4.99218C16.2721 5.13618 16.3681 5.37618 16.2241 5.61618L14.3041 8.92819C14.2081 9.02419 14.0641 9.12018 13.9201 9.12018V9.12018Z" fill="black"/>
<path opacity="0.3" d="M8.16036 19.1036C8.06436 19.1036 8.01636 19.1036 7.92036 19.0556C7.72836 18.9116 7.63236 18.6716 7.77636 18.4316L9.69636 15.1196C9.84036 14.9276 10.0804 14.8316 10.3204 14.9756C10.5124 15.1196 10.6084 15.3596 10.4644 15.5996L8.54436 18.9116C8.44836 19.0076 8.30436 19.1036 8.16036 19.1036Z" fill="black"/>
<path opacity="0.93" d="M10.0804 9.12033C9.93636 9.12033 9.79236 9.02433 9.69636 8.88033L7.77636 5.56833C7.63236 5.37633 7.72836 5.08833 7.92036 4.94433C8.11236 4.80033 8.40036 4.89633 8.54436 5.08833L10.4644 8.40033C10.6084 8.59233 10.5124 8.88033 10.3204 9.02433C10.2244 9.12033 10.1764 9.12033 10.0804 9.12033Z" fill="black"/>
<path opacity="0.3" d="M15.8401 19.1037C15.6961 19.1037 15.5521 19.0077 15.4561 18.8637L13.5361 15.5517C13.3921 15.3597 13.4881 15.0717 13.6801 14.9277C13.8721 14.7837 14.1601 14.8797 14.3041 15.0717L16.2241 18.3837C16.3681 18.5757 16.2721 18.8637 16.0801 19.0077C15.9841 19.0557 15.9361 19.1037 15.8401 19.1037V19.1037Z" fill="black"/>
<path opacity="0.65" d="M8.15984 12.4795H4.31984C4.03184 12.4795 3.83984 12.2875 3.83984 11.9995C3.83984 11.7115 4.03184 11.5195 4.31984 11.5195H8.15984C8.44784 11.5195 8.63984 11.7115 8.63984 11.9995C8.63984 12.2875 8.44784 12.4795 8.15984 12.4795Z" fill="black"/>
<path opacity="0.3" d="M19.6794 12.4795H15.8394C15.5514 12.4795 15.3594 12.2875 15.3594 11.9995C15.3594 11.7115 15.5514 11.5195 15.8394 11.5195H19.6794C19.9674 11.5195 20.1594 11.7115 20.1594 11.9995C20.1594 12.2875 19.9674 12.4795 19.6794 12.4795Z" fill="black"/>
<path opacity="0.86" d="M8.68721 10.5124C8.59121 10.5124 8.54321 10.5124 8.44721 10.4644L5.13521 8.54436C4.94321 8.40036 4.84721 8.16036 4.99121 7.92036C5.13521 7.72836 5.37521 7.63236 5.61521 7.77636L8.92721 9.69636C9.11921 9.84036 9.21521 10.0804 9.07121 10.3204C8.97521 10.4644 8.83121 10.5124 8.68721 10.5124V10.5124Z" fill="black"/>
<path opacity="0.3" d="M18.6716 16.2721C18.5756 16.2721 18.5276 16.2721 18.4316 16.2241L15.1196 14.3041C14.9276 14.1601 14.8316 13.9201 14.9756 13.6801C15.1196 13.4881 15.3596 13.3921 15.5996 13.5361L18.9116 15.4561C19.1036 15.6001 19.1996 15.8401 19.0556 16.0801C18.9596 16.2241 18.8156 16.2721 18.6716 16.2721V16.2721Z" fill="black"/>
<path opacity="0.44" d="M5.32833 16.2723C5.18433 16.2723 5.04033 16.1763 4.94433 16.0323C4.80033 15.8403 4.89633 15.5523 5.08833 15.4083L8.40033 13.4883C8.59233 13.3443 8.88033 13.4403 9.02433 13.6323C9.16833 13.8243 9.07233 14.1123 8.88033 14.2563L5.56833 16.1763C5.52033 16.2723 5.42433 16.2723 5.32833 16.2723V16.2723Z" fill="black"/>
<path opacity="0.3" d="M15.3127 10.5115C15.1687 10.5115 15.0247 10.4155 14.9287 10.2715C14.7847 10.0795 14.8807 9.79154 15.0727 9.64754L18.3847 7.72754C18.5767 7.58354 18.8647 7.67954 19.0087 7.87154C19.1527 8.06354 19.0567 8.35154 18.8647 8.49554L15.5527 10.4155C15.4567 10.5115 15.4087 10.5115 15.3127 10.5115Z" fill="black"/>
</svg>
