<svg width="137" height="35" viewBox="0 0 137 35" fill="none" xmlns="http://www.w3.org/2000/svg">
<path d="M113.072 15.8048C113.001 15.6284 112.717 15.3814 112.539 15.2756C112.362 15.1698 112.149 15.0992 111.971 15.0287C111.794 14.9581 111.616 14.8875 111.51 14.817H111.474H111.439C111.261 14.7817 111.084 14.7112 110.906 14.6406C110.693 14.5348 110.445 14.4642 110.161 14.4289C110.019 14.3584 109.806 14.2878 109.451 14.2173C109.202 14.182 109.025 14.1115 108.812 14.0409C108.492 13.9351 108.244 13.8645 108.066 13.7587C107.995 13.7234 107.924 13.6881 107.853 13.6528C107.782 13.6176 107.747 13.5823 107.676 13.5823C107.463 13.4412 107.214 13.2648 107.001 13.0884C106.824 12.9473 106.646 12.7709 106.433 12.6298C105.901 12.277 105.51 11.9595 105.155 11.6773C104.942 11.5009 104.729 11.2893 104.481 11.1129C104.303 10.9718 104.126 10.7954 103.913 10.6543C103.735 10.5132 103.593 10.3721 103.416 10.1957C103.274 10.0899 103.167 9.94875 103.025 9.84292C102.954 9.77236 102.883 9.73709 102.848 9.70181C102.812 9.66653 102.741 9.63126 102.706 9.59598C102.67 9.5607 102.635 9.52542 102.564 9.45487C102.528 9.38432 102.457 9.34904 102.386 9.27848C102.351 9.24321 102.28 9.24321 102.244 9.20793C102.208 9.17265 102.173 9.17265 102.138 9.13738L102.102 9.1021C102.066 9.06682 101.995 8.99627 101.96 8.96099C101.924 8.92571 101.889 8.92571 101.853 8.92571C101.818 8.92571 101.818 8.92571 101.818 8.92571C101.782 8.92571 101.782 8.89044 101.747 8.85516C101.711 8.81988 101.676 8.7846 101.64 8.74933C101.605 8.71405 101.569 8.71405 101.534 8.67877C101.534 8.6435 101.605 8.50239 101.747 8.36128C101.782 8.326 101.782 8.326 101.818 8.29072C101.96 8.11434 102.066 7.93795 102.208 7.76157C102.422 7.4088 102.635 7.0913 102.919 6.87964C103.025 6.73853 103.132 6.56215 103.238 6.42104C103.274 6.35048 103.309 6.27993 103.38 6.20937C103.416 6.1741 103.416 6.13882 103.451 6.13882C103.487 6.10354 103.522 6.06827 103.558 5.99771C103.664 5.78605 103.771 5.398 103.7 5.04523C103.664 4.86884 103.487 4.69246 103.345 4.58663C103.309 4.55135 103.274 4.55135 103.274 4.51607L103.203 4.44552C103.096 4.33969 102.99 4.23386 102.848 4.12802C102.812 4.09275 102.777 4.09275 102.777 4.05747C102.635 3.95164 102.493 3.84581 102.315 3.81053C102.066 3.77525 101.711 3.98692 101.605 4.1633C101.534 4.26913 101.498 4.37496 101.463 4.4808C101.463 4.51607 101.463 4.55135 101.427 4.58663C101.356 4.65718 101.321 4.76301 101.285 4.83357C101.25 4.86884 101.25 4.9394 101.214 4.97468C101.143 5.11578 101.037 5.22162 100.966 5.32745C100.895 5.43328 100.788 5.57439 100.717 5.68022C100.611 5.8566 100.54 5.99771 100.433 6.1741L100.362 6.35048C100.327 6.38576 100.291 6.45631 100.256 6.49159C100.22 6.56215 100.185 6.59742 100.149 6.66798C100.114 6.70325 100.114 6.77381 100.078 6.80909C99.9719 6.98547 99.9009 7.16186 99.7589 7.30297C99.7589 7.30297 99.7234 7.30297 99.7234 7.33824C99.6879 7.37352 99.6524 7.37352 99.6169 7.4088C99.5104 7.51463 99.4394 7.69101 99.3329 7.83212C99.2974 7.90268 99.2619 7.93795 99.2264 8.00851L99.1199 8.18489C99.0489 8.326 98.9424 8.43183 98.8714 8.57294C98.8004 8.6435 98.7649 8.74933 98.7294 8.81988C98.6584 8.92571 98.6229 9.03154 98.5519 9.13738C98.4098 9.34904 98.2678 9.5607 98.0903 9.73709C97.9128 9.98403 97.6998 10.231 97.5578 10.4779C97.3803 10.7954 97.1673 11.0776 96.9543 11.3951C96.8123 11.5715 96.6703 11.7832 96.5638 11.9595C96.4928 12.0654 96.4218 12.1359 96.3863 12.2418C96.3153 12.3476 96.2443 12.4181 96.2088 12.524C96.1733 12.5593 96.1733 12.5945 96.1378 12.6298C96.1022 12.6651 96.1023 12.7004 96.0668 12.7356C95.8892 13.0179 95.6762 13.2295 95.4632 13.4765C95.3922 13.547 95.3212 13.6528 95.2502 13.7234H95.2147C95.1437 13.7234 95.0372 13.7587 94.9662 13.794C94.8952 13.8292 94.7177 14.1115 94.7177 14.1467C94.6822 14.2526 94.6822 14.4289 94.6822 14.5701C94.6822 14.6759 94.6822 14.7464 94.6822 14.8523C94.6112 15.4167 94.5757 15.9811 94.7532 16.2634C94.8597 16.475 95.1792 16.6867 95.4632 16.6514C95.5342 16.6514 95.6052 16.5808 95.7117 16.5456C95.8892 16.4397 96.0667 16.3339 96.1378 16.0517C96.3508 15.7342 96.5638 15.4873 96.7768 15.2403C96.8478 15.1698 96.8833 15.0992 96.9543 15.0287C97.0608 14.8875 97.1673 14.7464 97.2738 14.6406C97.4513 14.4289 97.6288 14.182 97.8063 14.0056V13.9703C98.1258 13.4765 98.4808 12.9826 98.8359 12.524C99.2264 12.0301 99.6169 11.5009 99.9719 10.9365C100.078 10.8307 100.185 10.7248 100.256 10.5837C100.433 10.3368 100.611 10.0899 100.966 10.1251C101.179 10.1957 101.392 10.4074 101.569 10.5485L101.64 10.619C101.818 10.7954 101.96 10.9365 102.102 11.1129C102.244 11.2893 102.351 11.4304 102.493 11.5715C102.67 11.7832 102.848 11.9948 102.99 12.2065C103.842 13.0884 104.729 13.9703 105.546 14.7817C105.617 14.8523 105.723 14.9581 105.83 15.0287C106.007 15.205 106.185 15.3461 106.327 15.5225L106.362 15.5578C106.575 15.6989 106.753 15.84 106.93 15.9811C107.214 16.2281 107.498 16.4397 107.924 16.6514C108.35 16.8983 108.847 16.9689 109.096 16.9689H109.131V16.8278L109.167 16.9689C109.238 16.9689 109.309 16.9689 109.38 16.9689C109.451 16.9689 109.522 16.9689 109.593 16.9689H109.628C109.912 16.9689 110.196 16.9689 110.445 16.9336C110.587 16.9336 110.729 16.9336 110.871 16.9336H111.013C111.155 16.9336 111.297 16.9336 111.403 16.9336C111.474 16.9336 111.545 16.8983 111.616 16.8983C111.652 16.8983 111.723 16.8631 111.758 16.8631C111.829 16.8631 111.936 16.8631 112.007 16.8631C112.113 16.8631 112.255 16.8631 112.397 16.8278C112.539 16.7925 112.681 16.722 112.823 16.6514C112.894 16.6161 113.001 16.5808 113.072 16.5456L113.178 16.5103L113.143 16.4045C113.178 16.3692 113.214 16.3339 113.249 16.2634C113.143 16.087 113.107 15.8753 113.072 15.8048Z" fill="white"/>
<path fill-rule="evenodd" clip-rule="evenodd" d="M130.006 1.6579C130.539 1.72846 130.823 1.34041 131.391 1.41096C131.604 1.62263 132.065 2.22234 132.065 2.64566C132.065 2.85733 131.888 2.92788 131.781 3.06899C131.071 3.13954 130.432 3.2101 129.864 3.45704C129.793 3.59815 129.793 3.80981 129.829 3.91564C130.29 3.98619 130.894 3.45704 131.213 3.91564C131.213 4.02147 131.284 4.09203 131.32 4.16258C131.355 4.19786 131.32 4.26841 131.355 4.30369C131.426 4.4448 131.533 4.62118 131.497 4.83285C131.462 4.93868 131.391 4.93868 131.355 5.04451C131.249 5.07979 131.213 5.11506 131.142 5.15034C130.929 5.18562 130.716 5.15034 130.503 5.22089C130.397 5.25617 130.326 5.32673 130.184 5.32673C130.148 5.32673 130.077 5.32673 130.042 5.32673C129.58 5.32673 129.154 5.53839 128.693 5.6795C128.586 5.71477 128.444 5.6795 128.338 5.71477C128.196 5.75005 128.089 5.78533 127.947 5.82061C127.805 5.85588 127.663 5.85588 127.521 5.89116C127.45 5.92644 127.344 5.96171 127.273 5.99699C127.06 6.06755 126.74 6.17338 126.492 6.03227C126.243 5.85588 126.279 5.43256 126.137 5.15034C126.172 5.04451 126.208 4.97395 126.243 4.86812C126.456 4.86812 126.776 4.69174 126.953 4.62118C127.202 4.55063 127.486 4.62118 127.592 4.4448C127.663 4.33897 127.699 4.02147 127.592 3.88036C127.415 3.84509 127.237 4.05675 127.06 4.05675C126.882 4.05675 126.669 4.1273 126.456 4.19786C126.385 4.23313 126.279 4.19786 126.172 4.23313C125.782 4.30369 125.427 4.55063 125.214 4.16258C125.178 4.09203 125.178 4.05675 125.143 3.98619C125.107 3.95092 125.072 3.91564 125.036 3.88036C124.965 3.77453 124.965 3.63342 124.894 3.45704C124.859 3.31593 124.752 3.2101 124.717 3.06899C124.788 3.06899 124.752 2.99843 124.752 2.99843C124.788 2.92788 124.859 2.82205 124.894 2.78677C125.036 2.68094 125.178 2.71622 125.356 2.68094C125.391 2.68094 125.427 2.64566 125.498 2.61039C125.64 2.57511 125.853 2.53983 126.066 2.50456C126.243 2.46928 126.421 2.39872 126.563 2.36345C126.918 2.29289 127.273 2.25762 127.557 2.08123C127.734 1.76374 127.628 1.26986 127.486 0.917084C127.415 0.493759 127.521 0.0351562 127.983 0.0351562C128.089 0.0351562 128.196 0.0704334 128.338 0.0704334C128.444 0.0704334 128.551 0.0704334 128.622 0.0704334C128.693 0.105711 128.764 0.176265 128.835 0.211542C129.083 0.282096 129.332 0.282096 129.509 0.387928C129.651 0.564313 129.9 0.59959 129.971 0.811253C130.113 1.09347 129.935 1.34041 130.006 1.6579Z" fill="white"/>
<path fill-rule="evenodd" clip-rule="evenodd" d="M136.61 11.5363C136.539 11.4658 136.397 11.3952 136.397 11.2541C136.148 11.0071 135.793 11.0071 135.367 11.0777C135.083 11.113 134.728 11.113 134.444 11.1483C134.337 11.1483 134.231 11.1483 134.124 11.1483C133.485 11.1835 133.024 11.2894 132.456 11.3599C132.207 11.3952 131.994 11.3952 131.746 11.4305C131.462 11.4658 131.213 11.5363 130.929 11.5716C130.397 11.6421 129.864 11.7127 129.296 11.7832C129.048 11.8185 128.799 11.8891 128.515 11.9244C127.202 12.136 125.959 12.3124 124.717 12.5593C124.504 12.5946 124.291 12.5946 124.078 12.6299C123.687 12.7004 123.296 12.8063 122.941 12.8768C122.622 12.9474 122.302 13.0179 122.018 13.0532C121.876 13.0885 121.734 13.0532 121.592 13.0885C121.557 13.0885 121.486 13.1238 121.45 13.1591C121.024 13.2649 120.918 13.2649 120.492 13.3354C120.172 13.406 119.746 13.3354 119.533 13.4765C119.462 13.5471 119.32 13.7235 119.32 13.8293C119.32 13.9351 119.391 14.1468 119.427 14.2526C119.498 14.429 119.64 14.7112 119.711 14.8171C119.817 14.9229 119.924 15.064 120.066 15.0993C120.314 15.1346 120.456 15.0287 120.634 14.9229C121.06 14.7465 121.202 14.6407 121.628 14.5349C122.16 14.3938 122.799 14.2879 123.367 14.1468C123.545 14.1115 123.722 14.041 123.9 14.0057C124.184 13.9351 124.468 13.8646 124.717 13.8293C124.93 13.7588 125.107 13.7588 125.285 13.6882C125.64 13.5824 125.959 13.5118 126.314 13.4413C126.35 13.406 126.385 13.4765 126.421 13.4413C126.989 13.3002 127.592 13.2296 128.196 13.1238C128.799 13.0179 129.474 12.8768 130.077 12.8768C130.255 13.0532 130.219 13.5118 130.219 13.6177C130.255 13.6177 130.255 13.6529 130.255 13.6177C130.255 13.7235 130.255 13.794 130.255 13.8999C130.255 14.0763 130.29 14.4996 130.184 14.6054C130.042 14.7465 129.687 14.7818 129.438 14.8171C129.012 14.8876 128.622 15.064 128.302 15.0287C128.231 14.8524 128.089 14.7465 127.947 14.6054C127.699 14.3938 127.45 14.1821 127.237 13.9704C126.882 13.8293 126.705 14.0763 126.492 14.1821C126.314 14.2879 126.066 14.3232 125.853 14.429C125.427 14.6054 125.001 14.7818 124.539 14.9229C124.291 14.9935 124.006 15.0993 123.829 15.0993C123.616 15.0993 123.403 14.9582 123.19 14.9229C122.977 14.8876 122.835 14.9582 122.657 14.9935C122.586 15.1346 122.48 15.2051 122.444 15.4168C122.515 15.6285 122.622 15.8048 122.693 15.9812C122.728 16.1223 122.764 16.2634 122.799 16.4045C122.835 16.5457 122.941 16.6162 122.977 16.7573C123.048 16.8984 123.048 17.0748 123.083 17.2159C123.119 17.357 123.19 17.4981 123.261 17.6392C123.296 17.7804 123.367 17.9567 123.403 18.0978C123.438 18.239 123.474 18.4506 123.545 18.5565C123.616 18.6976 123.864 18.9092 123.971 18.9092C124.291 18.9445 124.575 18.6976 124.681 18.4506C124.717 18.3448 124.717 18.1684 124.752 18.0626C124.93 18.1331 125.001 18.3095 125.143 18.4153C125.356 18.4153 125.498 18.2742 125.64 18.2037C125.746 18.1684 125.853 18.0626 125.959 18.0978C126.03 18.0273 126.172 17.9567 126.279 17.8862C126.385 17.8156 126.492 17.7451 126.598 17.6745C126.776 17.5687 126.989 17.5334 127.131 17.4276C127.166 17.3923 127.237 17.3218 127.308 17.2512C127.379 17.2159 127.415 17.2159 127.45 17.1806C127.521 17.0748 127.521 16.8632 127.45 16.7573C127.415 16.6515 127.308 16.5809 127.273 16.4751C127.273 16.4398 127.308 16.3693 127.273 16.334C127.521 16.0871 127.734 15.8048 128.089 15.6637C128.231 15.8754 128.338 16.1929 128.515 16.334C128.551 16.3693 128.657 16.4398 128.728 16.4398C129.012 16.4751 129.225 16.334 129.474 16.2634C129.545 16.2282 129.651 16.2634 129.758 16.2282C129.829 16.1929 129.9 16.1576 129.971 16.1223C130.361 15.9812 130.29 16.2634 130.361 16.6515C130.361 16.722 130.432 16.8632 130.432 16.9337C130.432 17.0395 130.397 17.1454 130.397 17.2865C130.397 17.3923 130.397 17.4629 130.397 17.5687C130.397 18.0273 130.397 18.5917 130.361 19.0503C130.361 19.262 130.397 19.5089 130.255 19.65C130.184 19.6148 130.148 19.6853 130.077 19.6853C129.9 19.6853 129.758 19.65 129.651 19.6148C129.474 19.5795 129.332 19.5089 129.19 19.4737C129.119 19.4737 129.048 19.4737 129.012 19.4737C128.515 19.3678 127.876 19.1209 127.983 19.7912C128.089 19.8264 128.196 19.9323 128.302 20.0028C128.409 20.0734 128.515 20.1439 128.586 20.2498C128.657 20.3203 128.657 20.3909 128.728 20.4261C128.906 20.6025 129.119 20.6731 129.296 20.8142C129.403 20.8847 129.474 21.0259 129.616 21.0611C130.006 21.4492 130.397 21.8372 130.823 22.2253C130.929 22.2606 130.965 22.3311 131.071 22.3311C131.32 22.3664 131.639 22.19 131.746 22.0136C131.817 21.8725 131.888 21.5903 131.923 21.3433C132.065 20.4614 132.03 19.5442 131.994 18.6976C131.994 18.5565 131.959 18.4859 131.923 18.3801C131.888 18.0978 131.959 17.7451 131.959 17.4276C131.959 16.969 131.994 16.6162 131.994 16.2282C132.03 16.1223 132.065 16.0518 132.101 15.9459C132.278 15.8754 132.456 15.7696 132.704 15.699C133.13 15.5932 133.627 15.6637 133.769 15.311C133.805 14.8171 133.627 14.3232 133.343 14.0763C133.237 13.9704 133.059 13.8999 132.917 13.8999C132.598 13.8646 132.243 14.1821 131.994 14.1115C131.888 13.8293 132.03 13.5118 131.959 13.1943C131.923 13.1591 131.923 13.1238 131.888 13.0532C131.817 12.9474 131.639 12.8768 131.639 12.8063C131.675 12.7004 132.172 12.7004 132.314 12.7357C132.42 12.7357 132.491 12.8063 132.598 12.8063C132.775 12.8063 132.917 12.7357 133.095 12.7357C133.166 12.7357 133.201 12.771 133.272 12.771C133.414 12.771 133.592 12.7357 133.769 12.771C133.911 12.771 133.911 12.8063 134.089 12.8416C134.515 12.9121 135.189 12.9121 135.544 13.0179C135.686 13.0532 135.757 13.1591 135.899 13.1943C136.254 13.2296 136.503 12.9121 136.681 12.771C136.894 12.3477 136.752 11.8891 136.61 11.5363ZM125.604 16.6868C125.32 16.8632 125.178 17.2159 124.823 17.3218C124.717 17.2512 124.681 17.1101 124.646 16.969C124.575 16.7926 124.539 16.5809 124.433 16.3693C124.397 16.2987 124.326 16.2282 124.362 16.1223C124.646 16.334 124.823 16.0518 125.072 15.9107C125.249 15.8048 125.498 15.7696 125.675 15.699C125.746 15.6637 125.853 15.5579 125.959 15.6637C125.995 16.0518 125.746 16.3693 125.604 16.6868Z" fill="white"/>
<path fill-rule="evenodd" clip-rule="evenodd" d="M128.196 18.484C128.267 17.8138 127.628 17.3552 128.054 16.826C128.48 16.438 128.977 16.9318 129.296 17.1435C129.438 17.461 129.651 17.7432 129.58 18.1665C129.509 18.5193 129.19 18.7663 128.87 18.7663C128.622 18.7663 128.373 18.6251 128.196 18.484Z" fill="white"/>
<path fill-rule="evenodd" clip-rule="evenodd" d="M122.622 7.58441C122.941 7.58441 123.261 7.4433 123.58 7.37275C123.793 7.33747 124.042 7.33747 124.255 7.30219C124.574 7.23164 124.894 7.12581 125.249 7.05525C125.32 7.05525 125.391 7.05525 125.497 7.05525C125.852 6.9847 126.172 6.87887 126.527 6.80831C127.202 6.6672 127.876 6.49082 128.551 6.38499C128.728 6.34971 128.906 6.31443 129.048 6.27916C129.793 6.13805 130.539 5.99694 131.32 5.89111C131.462 5.85583 131.639 5.82055 131.781 5.82055C132.136 5.82055 132.42 5.85583 132.775 5.75C132.988 5.82055 133.13 5.89111 133.308 6.03222C133.45 6.13805 133.556 6.17333 133.663 6.27916C133.734 6.34971 133.769 6.5261 133.805 6.59665C133.876 6.66721 133.982 6.73776 134.089 6.80831C134.195 6.91414 134.373 7.16108 134.586 7.30219C134.621 7.47858 134.728 7.58441 134.799 7.72552C135.012 8.2194 134.444 8.39578 134.018 8.43106C133.911 8.43106 133.805 8.39578 133.698 8.39578C133.237 8.36051 132.669 8.50161 132.314 8.60745C132.172 8.64272 132.03 8.678 131.923 8.71328C131.746 8.78383 131.568 8.88966 131.32 8.96022C131.178 8.99549 131.036 9.03077 130.929 8.99549C130.858 8.96022 130.787 8.81911 130.787 8.74855C130.787 8.53689 131.071 8.28995 131.213 8.11357C131.355 7.97246 131.71 7.69024 131.675 7.54913C131.639 7.4433 131.391 7.37275 131.249 7.30219C130.752 7.12581 130.006 7.26692 129.509 7.37275C129.367 7.40802 129.19 7.40802 129.012 7.4433C128.835 7.47858 128.693 7.54913 128.551 7.54913C128.196 7.61969 127.77 7.65496 127.344 7.72552C127.166 7.7608 127.024 7.79607 126.847 7.83135C126.669 7.86663 126.527 7.93718 126.385 7.97246C126.314 7.97246 126.243 7.97246 126.172 7.97246C126.065 8.00774 125.959 8.04301 125.888 8.04301C125.284 8.2194 124.787 8.46634 124.219 8.71328C123.9 8.85439 123.332 9.1366 122.941 8.88966C122.799 8.81911 122.515 8.32523 122.444 8.11357C122.409 7.83135 122.48 7.72552 122.622 7.58441Z" fill="white"/>
<path fill-rule="evenodd" clip-rule="evenodd" d="M127.166 9.70142C126.882 9.63086 126.492 9.80725 126.137 9.66614C125.924 9.45448 125.782 9.27809 125.675 8.92532C125.711 8.89004 125.817 8.81949 125.817 8.78421C125.959 8.67838 126.101 8.6431 126.35 8.60783C126.421 8.60783 126.492 8.53727 126.563 8.53727C126.634 8.53727 126.74 8.53727 126.847 8.53727C127.131 8.46672 127.379 8.32561 127.699 8.25505C127.912 8.21978 128.125 8.21978 128.302 8.1845C128.444 8.14922 128.586 8.07867 128.728 8.04339C128.87 8.00811 129.012 8.00812 129.19 8.00812C129.509 7.97284 129.687 7.93756 129.971 8.07867C130.077 8.36089 130.503 8.71366 130.184 9.03115C129.758 9.17226 129.261 9.24281 129.19 9.77197C129.261 9.91308 129.438 9.84252 129.58 9.84252C129.722 9.80725 129.864 9.80725 130.006 9.77197C130.29 9.70142 130.539 9.56031 130.787 9.59559C131.036 9.63086 131.249 9.98363 131.355 10.2306C131.426 10.4775 131.497 10.7597 131.32 10.9008C130.894 11.1478 130.361 11.1478 129.758 11.1478C129.474 11.1478 129.19 11.2183 128.87 11.2536C128.586 11.2889 128.302 11.2536 128.018 11.2889C127.841 11.3242 127.663 11.3594 127.486 11.3947C127.308 11.43 127.202 11.5005 127.024 11.5358C126.882 11.5711 126.74 11.5711 126.598 11.6064C126.492 11.6417 126.385 11.6769 126.279 11.6769C125.924 11.7828 125.675 11.9592 125.391 11.7122C125.32 11.6417 125.249 11.5358 125.178 11.4653C125.072 11.3242 125.001 11.1831 124.965 11.1125C124.859 10.9361 124.965 10.795 125.072 10.6539C125.427 10.5481 125.853 10.5128 126.208 10.3717C126.279 10.3364 126.314 10.3011 126.385 10.3011C126.527 10.2659 126.669 10.2658 126.74 10.1953C126.918 10.2306 127.06 10.1953 127.202 10.0895C127.273 9.8778 127.202 9.80725 127.166 9.70142Z" fill="white"/>
<path fill-rule="evenodd" clip-rule="evenodd" d="M54.2463 6.63287C54.1398 6.49177 53.9623 6.38593 53.8203 6.2801C53.7493 6.20955 53.6783 6.10372 53.6428 6.06844C53.6073 6.03316 53.5363 6.03316 53.4653 5.99789C53.2878 5.89205 53.1458 5.71567 53.0037 5.64511C52.6842 5.50401 52.4357 5.8215 52.2227 5.89206C51.9032 6.03316 51.5127 6.13899 51.1577 6.24483C50.9802 6.31538 50.8027 6.38593 50.5896 6.42121C50.3766 6.45649 50.1636 6.45649 49.9861 6.49177C49.7021 6.5976 49.3116 6.77398 49.0276 6.77398C48.9211 6.77398 48.8501 6.73871 48.7436 6.70343C48.6371 6.66815 48.4596 6.66815 48.3176 6.63287C48.1046 6.5976 47.856 6.5976 47.6785 6.5976C47.43 6.63287 47.1815 6.91509 47.288 7.19731C47.3235 7.33842 47.4655 7.40897 47.572 7.55008C47.643 7.65591 47.6785 7.76174 47.714 7.90285C47.785 8.07924 47.8915 8.25562 47.998 8.43201C48.1045 8.7495 48.1756 9.10227 48.3531 9.31394C48.3886 9.45504 48.4951 9.66671 48.6371 9.73726C48.9211 9.91365 49.2406 9.66671 49.4181 9.5256C49.5956 9.45504 49.7376 9.38449 49.9151 9.34921C50.0926 9.31394 50.2701 9.24338 50.4831 9.2081C50.5896 9.17283 50.6962 9.2081 50.8027 9.2081C50.8737 9.2081 50.9092 9.17283 50.9802 9.13755C51.3707 9.067 51.7967 9.03172 52.2227 8.99644C52.3292 8.99644 52.4357 8.96116 52.5422 8.92589C52.7197 8.92589 52.9327 8.96116 53.0392 8.89061C53.2523 8.82006 53.2878 8.43201 53.2168 8.25562C53.4653 7.86757 53.7848 7.62063 54.1753 7.44425C54.3528 7.23259 54.3883 6.84454 54.2463 6.63287ZM51.5127 7.93813C51.3352 8.00868 51.0867 8.11451 50.9092 8.07924C50.7672 8.18507 50.5541 8.18507 50.2346 8.22034C49.9506 8.25562 49.8441 8.39673 49.5956 8.36145C49.3826 8.32618 49.3826 7.90285 49.3116 7.72647C49.3116 7.65591 49.2406 7.65591 49.2761 7.58536C49.3826 7.47953 49.4891 7.65591 49.5956 7.65591C49.7021 7.65591 49.7731 7.58536 49.8796 7.55008C50.3056 7.44425 50.7317 7.37369 51.1577 7.23259C51.3352 7.16203 51.5482 7.12675 51.7257 7.0562C51.7612 7.0562 51.7612 7.09148 51.7967 7.09148C51.9032 7.44425 51.6547 7.69119 51.5127 7.93813Z" fill="white"/>
<path fill-rule="evenodd" clip-rule="evenodd" d="M49.6664 9.27734C49.6309 9.31262 49.6309 9.3479 49.5955 9.31262C49.5955 9.27734 49.6309 9.27734 49.6664 9.27734Z" fill="white"/>
<path fill-rule="evenodd" clip-rule="evenodd" d="M47.2169 21.4492C47.2524 21.4492 47.3234 21.4492 47.3589 21.4845C47.3234 21.555 47.2524 21.555 47.2169 21.5198C47.1815 21.4845 47.2169 21.4845 47.2169 21.4492Z" fill="white"/>
<path fill-rule="evenodd" clip-rule="evenodd" d="M52.4 1.26928C52.613 1.30456 52.826 1.09289 52.968 1.09289C53.039 1.05762 53.0035 1.02234 53.0746 1.02234C53.1101 1.05762 53.039 1.05762 53.039 1.05762C53.2521 1.02234 53.5361 0.916508 53.7491 1.05762C53.7846 1.05762 53.9266 1.234 53.9621 1.26928C54.0686 1.48094 54.1751 1.65733 54.3171 1.86899C54.3526 2.11593 54.3526 2.29232 54.2816 2.50398C54.2461 2.50398 54.2106 2.53926 54.1751 2.57453C53.9266 2.64509 53.6781 2.68036 53.4296 2.78619C53.3231 2.82147 53.2166 2.78619 53.0746 2.82147C52.897 2.85675 52.684 2.99786 52.5065 3.03314C52.471 3.03314 52.4355 3.03314 52.4 3.03314C52.258 3.06841 52.045 3.38591 52.2225 3.52701C52.329 3.49174 52.4355 3.49174 52.5065 3.42118C52.5775 3.38591 52.542 3.45646 52.5775 3.45646C52.6485 3.42118 52.755 3.42118 52.826 3.35063C53.3586 3.31535 53.3941 3.77395 53.6781 4.02089C53.6781 4.26783 53.7846 4.44422 53.6781 4.62061C53.5716 4.79699 53.3231 4.76171 53.1811 4.90282C52.968 4.86754 52.755 5.00865 52.542 5.04393C52.4 5.07921 52.258 5.04393 52.116 5.07921C51.903 5.11448 51.69 5.22032 51.4415 5.25559C50.9445 5.36142 50.4829 5.53781 50.0214 5.67892C49.7729 5.74947 49.4889 5.8553 49.2404 5.92586C49.0629 5.96114 48.8854 5.92586 48.7434 5.8553C48.6014 5.74947 48.4949 5.50253 48.3884 5.36142C48.3529 5.29087 48.2464 5.25559 48.2109 5.18504C48.1399 4.9381 48.2819 4.79699 48.4239 4.69116C48.5659 4.65588 48.7079 4.6206 48.8499 4.58533C49.2404 4.4795 49.5954 4.37367 49.8794 4.162C49.9149 3.98562 49.9504 3.80923 49.9504 3.7034C49.7019 3.49174 49.3114 3.7034 49.0984 3.80923C49.0274 3.80923 49.0629 3.77395 49.0274 3.77395C48.8854 3.80923 48.7789 3.91506 48.6369 3.95034C48.6014 3.95034 48.5304 3.95034 48.4594 3.95034C48.3884 3.98562 48.3529 4.02089 48.2819 4.05617C48.1399 4.09145 47.9268 4.09145 47.7848 4.05617C47.3233 3.91506 47.2878 3.28007 47.0393 2.99786C47.0393 2.9273 47.0748 2.89203 47.0393 2.82147C47.1458 2.75092 47.2168 2.53926 47.3943 2.50398C47.3943 2.53926 47.3588 2.53926 47.3588 2.57453C47.4653 2.53926 47.6073 2.53926 47.6783 2.4687C48.1044 2.4687 48.3884 2.25704 48.7789 2.22176C48.9209 2.11593 49.2049 2.11593 49.3114 2.0101C49.5244 2.0101 49.6664 1.90427 49.8084 1.83371C49.9859 1.41039 49.6309 0.987062 49.6664 0.634291C49.7374 0.352074 49.9859 0.246243 50.1989 0.105134C50.5184 0.0698572 50.9445 0.210966 51.2995 0.316797C51.406 0.352074 51.477 0.316797 51.5835 0.352074C51.619 0.352074 51.69 0.422628 51.7255 0.422628C51.8675 0.457905 51.974 0.493183 52.0805 0.52846C52.2225 0.634291 52.329 0.775399 52.4 0.881231C52.4 0.916508 52.3645 1.02234 52.4 1.09289C52.4 1.05762 52.3645 1.16345 52.4 1.26928Z" fill="white"/>
<path fill-rule="evenodd" clip-rule="evenodd" d="M53.7138 1.23454C53.7493 1.19927 53.7493 1.23454 53.7848 1.3051C53.7493 1.3051 53.7493 1.26982 53.7138 1.26982C53.6783 1.23454 53.7138 1.23454 53.7138 1.23454Z" fill="white"/>
<path fill-rule="evenodd" clip-rule="evenodd" d="M55.8437 10.6187C55.7727 10.5834 55.7017 10.5482 55.7017 10.4776C55.3822 10.3718 55.0626 10.4071 54.7076 10.4071C54.3171 10.4071 52.8616 10.5129 52.4355 10.5482C51.69 10.654 50.9445 10.8304 50.27 10.9362C50.0924 10.9715 49.2404 11.042 49.2404 11.1126C49.1339 11.0773 47.7849 11.3595 47.7494 11.3948C47.3588 11.4301 46.6488 11.5712 46.1518 11.7476C45.8323 11.8887 45.5838 12.0298 45.1933 11.8534C45.0867 12.312 45.0867 12.9117 44.9447 13.3703C44.9447 13.4056 44.9092 13.4762 44.8737 13.5467C44.8382 13.7231 44.4832 14.217 44.3057 14.3581C44.0927 14.5345 43.8087 14.5345 43.5957 14.3934C43.4892 14.3228 43.4537 14.217 43.3472 14.1464C43.3117 14.1112 43.2762 14.1112 43.2407 14.1112C43.0987 14.0053 43.1342 13.8995 42.9567 13.8642C42.8857 13.6878 42.7792 13.5467 42.7437 13.2998C42.7437 13.0528 42.8147 12.7001 42.9212 12.4179C43.0632 12.0651 43.2407 11.4654 43.3472 11.0773C43.4892 10.9009 43.5602 10.4776 43.8087 10.3365C43.8797 10.3012 43.9862 10.3365 44.0927 10.2659C44.4477 10.3718 44.6962 10.5129 44.9447 10.7951C45.0157 10.7951 45.0867 10.8657 45.2288 10.8304C45.3708 10.8304 45.5483 10.7246 45.5838 10.7951C45.6548 10.7598 45.7613 10.7598 45.8323 10.7598C45.8678 10.7598 45.8323 10.7246 45.8323 10.7246C46.0453 10.7598 46.2228 10.6187 46.4713 10.5834C46.5423 10.5834 46.5778 10.6187 46.6488 10.5834C46.7553 10.5834 46.8618 10.5129 46.9683 10.4776C47.0748 10.4423 47.1813 10.4776 47.2523 10.4423C47.4653 10.4071 47.6783 10.3365 47.8914 10.3012C48.2464 10.2307 48.6369 10.1954 48.9919 10.1248C49.1694 10.0896 49.3469 10.019 49.5244 9.98373C49.8794 9.94845 50.128 9.8779 50.4475 9.80735C50.483 9.80735 50.625 9.77207 50.5895 9.73679C50.838 9.66624 51.122 9.70152 51.2995 9.59568C52.1515 9.56041 53.8556 9.24291 54.6366 9.20764C54.8141 9.20764 54.9916 9.17236 55.1691 9.17236C55.3822 9.17236 55.5952 9.17236 55.8082 9.17236C55.9147 9.17236 56.0212 9.13708 56.1277 9.17236C56.3052 9.17236 56.5182 9.1018 56.6602 9.03125C57.2637 9.1018 57.5477 9.48985 57.9383 9.80735C57.9383 9.84262 57.9383 9.8779 57.9738 9.8779C58.1158 9.94845 58.2223 10.1248 58.3643 10.2659C58.5418 10.4071 58.6838 10.6187 58.8613 10.8304C59.0033 11.0068 59.1808 11.1832 59.1808 11.4654C59.1808 11.677 59.1098 11.8181 59.0388 11.9593C58.6483 12.1709 58.1513 11.924 57.6898 11.8887C57.4412 11.8887 57.2282 11.9593 56.9797 11.9945C56.6602 12.0298 56.3407 11.9945 56.0567 12.0298C55.9147 12.0298 55.6662 12.1356 55.4887 12.2062C55.3467 12.2415 55.2402 12.2767 55.1691 12.3473C55.0271 12.3473 54.9206 12.4531 54.7786 12.4179C54.4946 12.3473 54.4236 11.8534 54.6366 11.677C54.6721 11.6418 54.7076 11.677 54.7076 11.6418C54.9206 11.3595 55.2757 11.1126 55.4887 10.8657C55.4887 10.8304 55.4887 10.8304 55.4887 10.8304C55.7017 10.9362 55.8082 10.7246 55.8437 10.6187Z" fill="white"/>
<path fill-rule="evenodd" clip-rule="evenodd" d="M52.2226 11.0781C52.2226 11.0781 52.3291 11.0781 52.3646 11.0781C52.5066 11.184 52.7906 11.3956 52.9326 11.6073C53.0746 11.7837 53.2522 11.8189 53.2167 12.1717C53.2167 12.3128 53.1457 12.4187 53.0746 12.5245C52.8616 12.7009 52.4001 12.6303 52.2226 12.842C51.8321 13.0184 51.5126 13.3006 51.1931 13.5475C50.9801 13.6886 50.8026 13.9356 50.625 14.112C50.4475 14.2531 50.27 14.4295 50.128 14.6058C50.2345 14.6764 50.4475 14.5706 50.554 14.5353C50.6605 14.5 50.8026 14.4647 50.9801 14.4295C51.1221 14.3942 51.2996 14.4295 51.4061 14.3236C51.4416 14.2883 51.5836 14.2531 51.6901 14.2178C51.7256 14.2178 51.6901 14.2178 51.6901 14.2178C51.6901 14.2178 51.8321 14.2178 51.8321 14.1472C52.0451 14.1472 52.2936 14.0767 52.4711 13.9708C52.5421 13.6181 52.4001 13.477 52.4356 13.1948C52.5066 12.9478 52.7906 12.9831 53.0036 13.0184C53.3587 13.23 53.7492 13.4417 53.9977 13.7945C54.0687 13.9003 54.0687 14.0414 54.1752 14.0767L54.2462 14.2178C54.3172 14.2531 54.2817 14.6764 54.3527 14.7117C54.3527 14.7469 54.2107 15.2761 54.1042 15.3819C53.9622 15.4878 53.7137 15.523 53.5007 15.4878C53.3587 15.4525 53.2877 15.3819 53.1812 15.3467C53.0746 15.2761 53.0036 15.135 52.8616 15.135C52.6131 15.0997 52.0096 15.3467 51.8676 15.4525C51.7966 15.6642 51.7966 16.0169 51.7966 16.1933C52.1161 16.5108 53.0391 15.8405 53.3942 16.1933C53.4297 16.1933 53.5007 16.2991 53.5362 16.3697C53.5362 16.405 53.7137 16.7225 53.7492 16.7577C53.8202 16.8989 53.9622 17.5691 53.9977 17.6044C53.9622 17.7455 53.8202 17.7808 53.7492 17.8866C53.6072 17.8866 53.2877 17.9219 53.0746 17.9572C52.7196 18.0277 52.1871 18.2041 51.9031 18.3099C51.9031 18.5922 51.9386 19.1566 51.9386 19.1919C51.9386 19.2271 52.0096 19.2624 52.0096 19.2977C52.2581 19.333 52.6486 19.2271 52.8616 19.2271C52.9681 19.2271 53.0746 19.2271 53.2167 19.2271C53.3942 19.2271 53.6072 19.1566 53.7847 19.1566C53.9267 19.1566 54.0332 19.086 54.1752 19.086C54.3882 19.0508 54.6012 19.086 54.8142 19.1566C55.1692 19.5799 55.6308 19.9327 55.7373 20.6029C55.5597 20.9557 55.1692 21.0616 54.8497 21.2732C54.7077 21.2732 54.5657 21.3085 54.4592 21.2732C54.3882 21.2379 54.3882 21.2027 54.3172 21.1674C54.1752 21.0968 53.8912 21.0263 53.7137 21.0263C53.0746 21.0263 52.3291 20.9557 51.6901 21.0968C51.6191 21.0968 51.5481 21.1321 51.4061 21.1674C51.2641 21.1674 51.1221 21.1674 51.0156 21.2027C50.8381 21.2379 50.554 21.2379 50.3055 21.2732C49.9505 21.3085 49.5955 21.4496 49.205 21.4496C49.0275 21.4496 48.85 21.4849 48.6725 21.5202C48.566 21.5554 48.4595 21.5907 48.353 21.5907C48.0334 21.5907 47.7139 21.8024 47.4654 21.7671C47.2524 21.7671 47.1104 21.4496 46.9684 21.2379C46.8619 21.0616 46.7199 20.8852 46.5779 20.7088C46.6134 20.5677 46.6134 20.3913 46.6844 20.2855C46.7199 20.2149 46.8619 20.1091 46.9329 20.1091C47.1104 20.0385 47.3589 20.2502 47.5009 20.0738C47.7494 20.1443 47.9269 20.0032 48.1044 20.0032C48.1399 19.968 48.2109 19.968 48.282 19.968C48.3175 19.968 48.5305 19.8974 48.6015 19.8974C48.708 19.8621 48.779 19.8621 48.921 19.8621C49.0985 19.8269 49.276 19.721 49.4535 19.721C49.631 19.6857 49.773 19.6857 49.8795 19.5799C49.8795 19.5446 49.844 19.4388 49.8795 19.4388C49.9505 19.3682 49.915 19.2624 49.986 19.1566C49.986 19.1566 49.986 19.0155 50.0215 18.9096C50.0215 18.8744 50.0215 18.698 49.9505 18.5922C49.347 18.5569 48.8855 19.0508 48.3885 18.7333C48.1399 18.451 47.9269 18.063 47.7494 17.7102C47.8204 17.6397 47.8204 17.4986 47.8914 17.4633C48.1399 17.2516 48.637 17.2869 48.9565 17.1105C49.347 17.0752 49.5955 16.8989 49.986 16.8283C50.057 16.7577 50.0925 16.6872 50.0925 16.5814C50.0925 16.5108 50.057 16.4402 50.057 16.405C50.057 16.3344 50.199 16.1228 49.986 16.0522C49.9505 16.0522 49.844 16.0522 49.773 16.0522C49.5245 16.0875 49.1695 16.2286 48.921 16.2991C48.637 16.3697 48.353 16.6519 48.0689 16.6872C47.8559 16.7225 47.7849 16.6166 47.6784 16.5108C47.5719 16.405 47.4654 16.3344 47.3944 16.1933C47.3234 16.0875 47.2879 15.9816 47.1814 15.8405C47.1104 15.5936 47.0039 15.4172 47.1814 15.2408C47.4299 15.1703 47.6429 15.0644 47.8914 14.9233C47.9979 14.8528 48.1754 14.7822 48.282 14.6764C48.353 14.6058 48.424 14.5 48.495 14.4295C48.637 14.2531 48.8145 14.0767 48.992 13.9003C48.992 13.865 49.0275 13.865 49.0275 13.7945C49.134 13.7239 49.205 13.6181 49.3115 13.477C49.0985 13.4417 48.6725 13.7945 48.637 13.7945C48.637 13.8297 48.2464 13.7592 48.0689 13.7592C48.0689 13.6181 47.8914 13.4417 47.8204 13.4417C47.7494 13.3006 47.7139 13.0536 47.6429 12.9125C47.6074 12.842 47.5719 12.8067 47.5719 12.7361C47.6074 12.4892 47.8559 12.3481 48.1044 12.3128C48.282 12.3128 48.3885 12.2775 48.6015 12.2775C48.6725 12.2775 48.708 12.207 48.8145 12.207C49.205 12.1364 49.5955 12.0306 49.915 11.9601C50.0925 11.9248 50.3765 11.8895 50.554 11.8189C50.5895 11.8189 50.696 11.7484 50.7315 11.7131C51.1931 11.6426 51.5481 11.4662 51.9386 11.3251C52.0096 11.1134 52.1516 11.1134 52.2226 11.0781Z" fill="white"/>
<path fill-rule="evenodd" clip-rule="evenodd" d="M77.8902 6.06665C77.8547 6.06665 77.8547 6.06665 77.8547 6.03137C77.8902 6.03137 77.8547 5.99609 77.9257 5.99609C77.9257 6.03137 77.9257 6.03137 77.8902 6.06665Z" fill="white"/>
<path fill-rule="evenodd" clip-rule="evenodd" d="M76.1861 11.1836C76.1861 11.2189 76.1861 11.2189 76.1861 11.2541C76.1506 11.2541 76.1506 11.2541 76.1506 11.2189C76.1506 11.1836 76.1506 11.1836 76.1861 11.1836Z" fill="white"/>
<path fill-rule="evenodd" clip-rule="evenodd" d="M73.062 1.79883C73.0975 1.79883 73.1685 1.79883 73.275 1.79883C73.3105 1.79883 73.3105 1.86938 73.346 1.86938C73.7721 1.90466 73.9496 2.22215 74.2691 2.39854C74.2336 2.46909 74.3401 2.50437 74.3756 2.57493C74.3756 2.6102 74.3401 2.6102 74.3756 2.64548C74.3756 2.68076 74.4111 2.64548 74.4466 2.68076C74.4821 2.71603 74.6241 2.96297 74.6241 3.0688C74.6241 3.13936 74.5886 3.24519 74.5886 3.31574C74.5176 3.52741 74.1981 3.77435 74.5531 3.88018C74.6241 3.88018 74.5886 3.8449 74.6241 3.8449C74.9081 3.88018 75.1921 3.98601 75.4761 4.02129C75.6891 4.05656 75.9376 4.23295 76.0441 4.44461C76.0086 4.65628 76.0796 4.90322 76.0441 5.15016C76.0086 5.3971 75.8666 5.57348 75.7601 5.78514C75.7246 5.82042 75.6891 5.8557 75.6181 5.8557C75.3696 5.8557 75.0856 5.74987 74.8726 5.67931C74.7661 5.64404 74.7661 5.57348 74.6596 5.50293C74.4821 5.36182 74.2691 5.32654 74.0916 5.22071C74.0206 5.18543 73.9851 5.0796 73.8786 5.0796C73.8076 4.97377 73.559 4.79738 73.3815 4.90322C73.133 5.00905 72.849 5.39709 72.6715 5.60876C72.6005 5.67931 72.565 5.74987 72.5295 5.82042C72.4585 5.92625 72.3165 6.03208 72.21 6.13791C72.1035 6.24375 71.997 6.34958 71.926 6.45541C71.8905 6.49069 71.8905 6.52596 71.855 6.56124C71.784 6.63179 71.713 6.66707 71.642 6.73763C71.571 6.80818 71.5355 6.87873 71.5 6.94929C71.358 7.0904 71.2159 7.23151 71.0739 7.37261C70.9674 7.47845 70.9319 7.61955 70.8254 7.72539C70.7544 7.79594 70.6834 7.83122 70.6124 7.90177C70.4349 8.11343 70.1864 8.36037 70.0089 8.60731C69.9024 8.74842 69.8669 8.88953 69.7249 8.99536C69.7249 9.03064 69.6894 9.03064 69.6894 9.10119C69.2989 9.45396 69.1214 9.98312 68.6953 10.3006C68.5888 10.5123 68.4113 10.6534 68.2693 10.8298C68.1983 11.0414 68.0563 11.1473 67.9498 11.3237C67.8788 11.3589 67.7723 11.3942 67.7368 11.4648C67.4883 11.4648 67.3463 11.3589 67.1688 11.2531C67.0623 11.0414 66.9558 10.7945 66.9203 10.5123C66.8848 10.3712 66.9203 10.2653 66.9203 10.1242C66.9203 10.0537 66.8848 9.98312 66.8848 9.91257C66.9203 9.48924 67.4528 9.48924 67.5948 9.13647C67.6658 9.06592 67.7723 9.03064 67.7723 8.92481C67.9498 8.85425 67.9853 8.64259 68.1628 8.57204C68.3403 8.21927 68.8729 7.549 68.8729 7.58428C69.2279 7.26678 69.4764 6.80818 69.8314 6.45541C69.8314 6.34958 70.4349 5.57348 70.7544 5.29126C70.7544 5.25599 70.7899 5.25599 70.7544 5.22071C70.9674 5.15016 71.0029 4.86794 71.1804 4.76211C71.3225 4.47989 71.5355 4.19767 71.713 3.95073C71.855 3.73907 71.997 3.52741 72.139 3.31574C72.2455 3.13936 72.3875 3.03353 72.5295 2.85714C72.565 2.78659 72.636 2.71603 72.6715 2.64548C72.778 2.25743 72.849 1.97521 73.062 1.79883C73.062 1.79883 73.062 1.83411 73.062 1.79883Z" fill="white"/>
<path fill-rule="evenodd" clip-rule="evenodd" d="M73.2039 8.81912C73.2394 8.88968 73.3104 8.88967 73.3814 8.92495C73.4879 9.20717 73.4169 9.6305 73.3814 9.91271C73.6299 9.91271 73.8784 9.70105 74.1979 9.7716C74.2334 9.91271 74.4109 9.98327 74.482 10.1244C74.5175 10.1949 74.5175 10.2655 74.553 10.336C74.5885 10.4066 74.695 10.4771 74.695 10.6183C74.695 10.7594 74.624 10.8299 74.553 10.971C74.1269 11.1474 73.7719 11.3238 73.4169 11.5355C73.1329 11.9588 73.2749 12.5585 73.2749 13.0877C73.6299 12.8054 73.8429 12.3821 74.1979 12.1352C74.2334 11.9941 74.3754 11.8882 74.3754 11.7471C74.4464 11.7471 74.553 11.6766 74.6595 11.7118C74.9435 11.7471 75.1565 12.1352 75.2985 12.3468C75.3695 12.4527 75.5115 12.5585 75.5115 12.7702C75.5115 12.9113 75.3695 13.0877 75.2985 13.1582C75.121 13.3346 74.8015 13.4404 74.553 13.5815C74.2689 13.7579 73.9139 13.9343 73.6654 14.1812C73.2749 14.2518 73.0619 14.7104 73.2039 15.169C73.4879 15.0984 73.7364 15.0279 74.0204 14.8868C74.3399 14.7457 74.6595 14.3929 75.0855 14.534C75.1565 14.5693 75.2985 14.6751 75.334 14.7457C75.4405 15.0984 75.2275 15.3101 75.0855 15.4865C74.8015 15.6982 74.482 15.8745 74.2334 16.0862C73.9849 16.2273 73.7009 16.3684 73.5234 16.5448C73.2394 16.6859 72.9554 16.8623 72.6714 17.074C72.4939 17.2151 72.2809 17.3562 72.0679 17.4973C71.9613 17.5678 71.8548 17.6031 71.7483 17.6737C71.6418 17.7442 71.5708 17.8853 71.4288 17.9559C71.6063 17.9206 71.4643 17.9206 71.2868 18.0617C71.1448 18.1676 71.0028 18.3792 70.8608 18.4851C70.8253 18.5203 70.7543 18.5556 70.7188 18.5556C70.5413 18.6614 70.2928 18.732 70.0088 18.6262C69.9023 18.4498 69.7958 18.3439 69.6538 18.2381C69.5118 17.9206 69.2632 17.7795 69.1567 17.3915C69.1922 17.2504 69.2632 17.1798 69.3342 17.074C69.5118 17.0387 69.6538 16.9681 69.7603 16.8623C69.9733 16.7565 70.2218 16.6506 70.4348 16.5448C70.7543 16.3684 71.0028 16.0862 71.3223 15.9804C71.3933 15.9098 71.4643 15.804 71.5353 15.7334C71.7128 15.169 71.7128 14.3224 71.6773 13.6521C71.6773 13.4757 71.7128 13.3346 71.7128 13.1935C71.7128 13.0877 71.6773 12.9113 71.6773 12.7702C71.6773 12.4879 71.7128 12.3116 71.5708 12.1704C71.3223 12.1704 71.1093 12.2057 70.9318 12.2763C70.8608 12.3116 70.6833 12.4174 70.5768 12.4174C70.3638 12.4527 70.2573 12.3116 70.0798 12.2057C70.0088 12.0646 69.9378 11.9235 69.8313 11.853C69.8313 11.7471 69.7603 11.7118 69.7603 11.6413C69.7603 11.606 69.6893 11.6413 69.6893 11.606C69.6893 11.5002 69.6183 11.3591 69.6893 11.2532C69.7958 11.1474 70.0798 11.0769 70.2573 11.0063C70.3283 10.971 70.3993 10.9357 70.4703 10.9005C70.6833 10.8299 70.8963 10.8299 71.1093 10.7241C71.1803 10.6888 71.2513 10.6183 71.3223 10.583C71.4288 10.5477 71.5708 10.5124 71.6418 10.4419C71.7483 10.3713 71.7128 10.1949 71.7483 10.0891C71.6773 9.91271 71.7838 9.52466 71.6418 9.38356C71.2513 9.48939 71.0383 9.38355 70.8253 9.17189C70.6833 8.99551 70.5413 8.78384 70.4703 8.64274C70.4348 8.43107 70.5413 8.43107 70.6478 8.28996C71.5353 8.04302 72.2099 7.6197 72.9554 7.26693C72.9199 7.23165 72.9199 7.26693 72.9554 7.23165C72.9909 7.23165 72.9554 7.26693 72.9554 7.26693C73.3104 7.12582 73.5589 6.77305 73.9494 6.87888C74.3044 6.98471 74.4109 7.37276 74.695 7.6197C74.8725 8.11358 74.4464 8.21941 74.0914 8.36052C74.0204 8.3958 73.9494 8.46635 73.8784 8.46635C73.6299 8.57218 73.3814 8.57218 73.2039 8.67801C73.2394 8.78384 73.2039 8.78384 73.2039 8.81912Z" fill="white"/>
<path fill-rule="evenodd" clip-rule="evenodd" d="M86.5524 17.0745C86.4459 16.9334 86.3394 16.757 86.1974 16.6512C85.9134 16.5101 85.4874 16.369 85.1679 16.2632C85.0968 16.2279 85.0258 16.1926 84.9548 16.1573C84.8838 16.122 84.8128 16.122 84.7063 16.0868C84.5998 16.0515 84.5288 15.9809 84.4578 15.9457C84.3158 15.8751 84.1738 15.8751 84.0318 15.8046C83.5703 15.6634 83.1088 15.4518 82.7183 15.3107C82.5762 15.2754 82.4697 15.1343 82.3277 15.099C81.7242 14.6404 81.0497 14.2524 80.4817 13.7938C80.3752 13.6174 80.1621 13.5821 80.0201 13.4057C80.1266 13.2646 80.4462 13.2293 80.5172 13.0882C80.6592 13.0529 80.8012 12.9118 80.9432 12.9118C80.9787 12.8766 80.9432 12.8413 80.9787 12.8413C81.2627 12.7707 81.5822 12.5943 81.7952 12.4532C82.0082 12.3121 82.2922 12.2063 82.5407 12.0652C82.8248 11.9241 83.3928 11.8182 83.3573 11.3949C83.2863 11.2538 83.2863 11.1127 83.2153 11.0069C83.1798 10.7599 83.0378 10.7599 82.9313 10.5483C82.7893 10.3013 82.5052 9.84272 82.1502 9.91327C81.9017 9.94855 81.7597 10.1955 81.6887 10.4424C81.6177 10.513 81.5467 10.5835 81.4757 10.6541C81.4402 10.6894 81.4047 10.7952 81.3337 10.8305C81.0497 11.148 80.6592 11.4302 80.3397 11.7124C80.0911 11.9241 79.8071 12.1357 79.5586 12.3474C79.4521 12.4179 79.3811 12.4885 79.2746 12.5591C79.2036 12.6296 79.1681 12.7354 79.0616 12.7354C78.9551 12.7354 78.8841 12.6296 78.7776 12.5238C78.6711 12.4532 78.5646 12.3474 78.4936 12.3121C78.1386 12.1005 78.0321 11.8888 77.7836 11.6771C77.677 11.5713 77.677 11.2891 77.7125 11.0774C77.748 11.0774 77.9966 10.9716 78.2096 10.9363C78.4936 10.8658 78.7776 10.7599 78.9906 10.7246C79.7361 10.6188 80.5882 10.5835 81.1917 10.3719C81.2627 10.266 81.3692 10.0544 81.4402 9.94855C81.4402 9.878 81.4402 9.80744 81.4402 9.70161C81.3692 9.52522 81.2627 9.31356 81.2272 9.1019C81.4047 8.60802 81.4047 7.90248 81.6532 7.44387C81.6177 7.33804 81.6887 7.26749 81.7242 7.16166C81.7597 7.05583 81.7242 6.94999 81.7597 6.80889C81.7952 6.59722 81.9017 6.35028 81.9372 6.13862C81.9727 6.03279 81.9372 5.89168 81.9727 5.78585C82.0082 5.68002 82.0792 5.60946 82.0792 5.50363C82.0792 5.46836 82.0792 5.3978 82.0792 5.32725C82.1147 5.18614 82.2212 4.86864 82.2212 4.72754C82.2212 4.72754 82.2567 4.76281 82.2567 4.72754C82.2567 4.69226 82.2567 4.69226 82.2567 4.65698H82.2212C82.2922 4.51587 82.3632 4.41004 82.4342 4.30421C82.5052 4.23366 82.5407 4.19838 82.5763 4.12782C82.6828 3.88088 82.6118 3.7045 82.4697 3.56339C82.3632 3.42228 82.1857 3.31645 82.0437 3.2459C81.9372 3.17534 81.8307 3.14007 81.7597 3.10479C81.6177 2.96368 81.4757 2.82257 81.2627 2.75202C81.0497 2.64619 80.8367 2.50508 80.5882 2.57563C80.4817 2.75202 80.1976 2.75202 79.9491 2.78729C79.8781 2.78729 79.8071 2.85785 79.7361 2.85785C79.5586 2.89313 79.4166 2.89313 79.2391 2.9284C78.9906 2.96368 78.6711 3.03423 78.4226 3.06951C77.9256 3.14007 77.2155 3.14007 77.251 3.66922C77.18 3.63394 77.2155 3.7045 77.18 3.73978C77.251 3.91616 77.3575 4.09255 77.4995 4.30421C77.18 4.12782 76.9315 3.91616 76.47 3.88088C76.328 4.09255 76.044 4.19838 76.115 4.55115C76.115 4.6217 76.186 4.69226 76.2215 4.76281C76.257 4.90392 76.2925 5.08031 76.2925 5.25669C76.328 5.7153 76.2925 6.10334 76.2925 6.59722C76.257 7.16166 76.257 7.72609 76.257 8.3258C76.257 9.20773 76.2925 9.98383 76.2215 10.7599C75.9375 10.6894 75.76 10.9716 75.7245 11.2538C75.689 11.2538 75.689 11.2538 75.7245 11.2538C75.689 11.6066 76.115 11.8535 76.1505 12.2063C76.186 12.5238 76.044 13.0177 76.115 13.4057C76.1505 13.441 76.1505 13.7938 76.0795 13.9349C76.1505 14.4287 76.0795 14.9932 76.0795 15.5576C76.044 16.2279 75.973 17.9212 75.9375 18.1681C75.902 18.4151 75.7955 18.662 75.7245 18.8384C75.618 19.0853 75.405 19.2617 75.3695 19.4734C75.334 19.685 75.547 19.8614 75.5825 20.0025C75.6535 20.0378 75.689 20.1436 75.7245 20.2495C75.7955 20.3553 75.973 20.4964 76.115 20.6022C76.1505 20.6375 76.186 20.7081 76.2215 20.7433C76.328 20.8492 76.7185 20.9903 76.896 20.9197C77.0025 20.7786 77.1445 20.6728 77.18 20.4964C77.18 20.4259 77.18 20.3553 77.2155 20.32C77.251 20.1789 77.4285 20.0378 77.4995 19.8967C77.6415 19.685 77.7125 19.4734 77.8546 19.3323C78.1031 18.9442 78.3161 18.5209 78.6001 18.2034C78.7066 17.9917 78.8486 17.8506 78.9196 17.6037C79.1681 17.3215 79.2391 17.0745 79.4521 16.7923C79.4876 16.7923 79.5231 16.8276 79.5231 16.7923C79.5586 16.6865 79.6296 16.6159 79.7006 16.5806C79.7006 16.4748 79.8426 16.3337 79.9136 16.2984C79.9491 16.1926 80.0556 16.0868 80.1266 15.9457C80.1266 15.9809 80.1621 15.8751 80.1976 15.8751C80.3752 15.8751 80.4462 16.0868 80.5527 16.1926C80.5882 16.2279 80.6592 16.2279 80.6947 16.2632C80.7657 16.3337 80.8367 16.4395 80.9432 16.5101C81.0497 16.5806 81.1562 16.6512 81.2272 16.7218C81.2627 16.757 81.2627 16.8276 81.2982 16.8276C81.3337 16.8629 81.4402 16.8981 81.5112 16.9334C81.5822 17.004 81.6177 17.0745 81.7242 17.1451C82.1857 17.6037 82.6828 17.639 82.7893 17.6742C82.8958 17.6742 83.8898 17.7095 83.9608 17.7095C84.6353 17.8153 85.2389 17.5684 85.8424 17.5331C86.1974 17.7095 86.6234 17.5684 86.5524 17.0745ZM77.9611 4.72754C77.9966 4.6217 78.1741 4.6217 78.2451 4.58643C78.3871 4.51587 78.6001 4.44532 78.7421 4.37476C78.9196 4.37476 78.9906 4.30421 79.0971 4.33949C79.1326 4.33949 79.0971 4.30421 79.0971 4.30421C79.4876 4.30421 79.8071 4.09255 80.1622 4.30421C80.2687 5.04503 80.0201 5.64474 79.8781 6.42084C79.7716 6.27973 79.4876 6.13862 79.2391 6.20918C79.0971 6.24445 78.9196 6.35028 78.7421 6.38556C78.4936 6.45611 78.3161 6.49139 78.0676 6.52667C78.0676 6.49139 78.0321 6.49139 77.9966 6.49139C77.9256 6.31501 77.9966 6.35028 77.9966 6.06807C78.0321 6.06807 77.9966 5.99751 78.0321 6.03279C77.9966 5.92696 78.0321 5.8564 78.0321 5.68002C78.0676 5.68002 78.0676 5.7153 78.1031 5.68002C78.1031 5.60946 78.1031 5.7153 78.0676 5.68002C78.0676 5.60946 78.1031 5.60946 78.0676 5.57419C78.1031 5.57419 78.1031 5.60946 78.1031 5.60946C77.9966 5.43308 78.1386 5.25669 78.0676 5.00975C78.0676 4.90392 77.9611 4.79809 77.9611 4.72754ZM77.8901 8.11414C77.8901 7.93775 77.9256 7.83192 77.9966 7.72609C78.3161 7.72609 78.6356 7.58498 78.9551 7.54971C79.0616 7.54971 79.2036 7.58498 79.3101 7.54971C79.4166 7.51443 79.5941 7.47915 79.7361 7.58498C79.7716 7.90248 79.6651 8.29053 79.5941 8.74913C79.5586 8.92551 79.5231 9.27828 79.4521 9.34884C79.3456 9.41939 79.2036 9.41939 79.0261 9.45467C78.9196 9.48995 78.8131 9.5605 78.6711 9.59578C78.4226 9.66633 78.1031 9.77216 77.8546 9.70161C77.8901 9.34884 77.8546 8.67857 77.8901 8.11414ZM79.2391 15.9457C79.1681 16.0162 79.0971 16.0162 79.0261 16.0868C78.9906 16.122 78.9551 16.1926 78.9196 16.2279C78.8486 16.3337 78.7421 16.369 78.6356 16.4748C78.5646 16.5454 78.5646 16.6159 78.4936 16.6865C78.3516 16.8629 78.1031 16.9334 77.9611 17.1098C77.9256 17.1451 77.9256 17.1804 77.8901 17.2156C77.8191 17.2862 77.8191 17.3567 77.677 17.4273C77.6415 17.3567 77.6415 17.392 77.5705 17.392C77.4995 17.3215 77.535 17.2156 77.4995 17.1098C77.5705 16.9334 77.535 16.0515 77.535 15.9104C77.535 15.8046 77.5705 15.6987 77.606 15.5929C77.606 15.5576 77.5705 15.5929 77.5705 15.5929C77.606 15.1696 77.5705 13.5115 77.6415 13.194C78.0676 13.4763 78.1741 13.8643 78.6001 14.1465C78.6001 14.1818 78.6711 14.2171 78.6356 14.2524C78.7421 14.2171 78.7776 14.3582 78.8486 14.3935C78.9906 14.6757 79.2391 14.8168 79.3811 15.0637C79.5231 15.2401 79.7716 15.3812 79.8071 15.5576C79.5941 15.5576 79.4521 15.7693 79.2391 15.9457Z" fill="white"/>
<path fill-rule="evenodd" clip-rule="evenodd" d="M70.0799 15.6623C69.9733 15.4154 69.7958 15.0626 69.6893 14.7099C69.6538 14.5688 69.6183 14.3924 69.5828 14.216C69.5118 14.0043 69.4408 13.6515 69.5118 13.4046C69.5473 13.3341 69.5828 13.2988 69.6183 13.1929C69.6893 13.1577 69.7248 13.0871 69.7958 13.0518C69.9378 12.9813 70.2219 13.0518 70.3639 13.1577C70.3994 13.3693 70.5769 13.5457 70.6834 13.7221C70.8254 13.8279 71.1804 13.7927 71.2514 14.0043C71.2869 14.1454 71.1804 14.3924 71.1804 14.6746C71.1804 14.8862 71.1804 15.2037 71.1094 15.3801C71.0384 15.5212 70.8964 15.6623 70.8254 15.7329C70.5769 15.874 70.3284 15.8387 70.0799 15.6623Z" fill="white"/>
<path d="M21.2299 27.1634C21.9754 26.8459 22.7209 26.4578 23.3954 25.964C25.1705 24.694 26.8391 22.789 27.7266 19.8257L24.141 19.7905L23.715 17.8149H30.1762C29.7502 23.3887 26.3066 27.7278 21.2299 29.3506V27.1634ZM21.2299 33.5485C28.6852 31.7141 34.2589 24.9762 34.2589 17.0389C34.2589 9.06622 28.6852 2.36357 21.2299 0.49388V2.53995C27.5846 4.33909 32.2353 10.1245 32.2353 17.0036C32.2353 23.8473 27.5846 29.6681 21.2299 31.4672V33.5485ZM21.1944 24.5176H23.715C21.5139 20.6371 21.0878 16.3333 21.7269 11.8531H21.1944V24.5176ZM21.2299 9.1015V8.81928H21.3719L21.2299 9.1015ZM21.2299 6.91432V4.76241C26.0935 6.38516 29.0402 10.0187 30.1407 15.4867L23.6439 15.5219V13.5111H27.5491C26.4131 10.5831 24.283 8.18429 21.2299 6.91432ZM17.1117 27.9748C18.4962 27.9748 19.9163 27.6925 21.2299 27.1634V29.3506C19.9873 29.7386 18.6161 30.0208 17.125 30.0208L17.1117 27.9748ZM21.2299 0.49388V2.53995C19.9163 2.1519 18.5672 1.94024 17.1117 1.94024V0H17.1472C18.5317 0 19.9163 0.176386 21.2299 0.49388ZM21.2299 4.76241V6.91432C20.4843 6.59682 19.6323 6.31461 18.7803 6.1735V4.09215C19.6323 4.26853 20.4488 4.48019 21.2299 4.76241ZM21.2299 8.784V9.06622L19.8098 11.8531H21.1944V24.5176H19.7388L18.7093 21.7307H17.0762V8.784H21.2299ZM21.2299 31.4672V33.5485C19.9163 33.866 18.5672 34.0071 17.1472 34.0071H17.1117V32.0316C18.5317 32.0669 19.9163 31.8552 21.2299 31.4672ZM13.1 27.2339C14.3426 27.7278 15.7271 27.9395 17.1117 27.9748L17.125 30.0208C17.054 30.0208 16.8987 30.0208 16.8277 30.0208C15.5141 30.0208 14.3071 29.8092 13.1355 29.4211L13.1 27.2339ZM17.1117 0V1.94024C15.7271 1.94024 14.4136 2.1519 13.1355 2.50468V0.458603C14.4136 0.176386 15.7271 0 17.1117 0ZM17.1117 8.784V21.7307H15.5851L14.5556 24.5176H13.1355V11.8884H14.4846L13.1355 9.17205V8.784H17.1117ZM17.1117 32.0316V34.0071C15.7271 34.0071 14.4136 33.866 13.1355 33.5485V31.5378C14.4136 31.8552 15.7271 32.0316 17.1117 32.0316ZM13.1355 6.87904V4.76241C13.9521 4.44492 14.8041 4.23325 15.7271 4.09215V6.24405C14.8041 6.34988 13.9166 6.59682 13.1355 6.87904ZM10.6149 17.7444L10.1534 19.7199H6.46126C6.67427 20.9546 7.31329 22.0482 7.95232 23.1065C9.15937 25.0115 10.9699 26.4578 13.1 27.2339L13.1355 29.4211C11.751 28.9625 10.4729 28.3275 9.33687 27.5162C6.28375 25.2584 4.26017 21.7307 4.08266 17.7091L10.6149 17.7444ZM13.1355 0.458603C5.60922 2.29301 0 9.03094 0 17.0389C0 25.0468 5.60922 31.7847 13.1355 33.5485V31.5378C6.70977 29.7739 1.98808 23.9532 1.98808 17.0389C1.95258 10.0893 6.70977 4.23325 13.1355 2.50468V0.458603ZM13.1355 4.76241V6.87904C10.0824 8.04318 7.81031 10.3362 6.74527 13.4053H10.6149L10.7924 15.3455L4.15367 15.275C5.0057 9.94815 8.20083 6.38516 13.1355 4.76241ZM13.1355 8.784V9.17205L12.9225 8.784H13.1355ZM13.1355 11.8884H12.674C13.455 16.6861 12.4255 20.8488 10.5084 24.5176H13.1355V11.8884Z" fill="white"/>
<path d="M47.4298 33.4432C47.1813 33.7606 46.8263 33.9018 46.3648 33.9018H43.8087V33.4079C44.0927 33.4079 44.2347 33.2315 44.2347 32.8787V28.1869C44.2347 28.0105 44.1992 27.9046 44.1282 27.8341C44.0572 27.7635 43.9507 27.7283 43.7732 27.7283V27.2344H46.2938C46.6488 27.2344 46.9683 27.3755 47.2168 27.6577C47.5008 27.9752 47.6428 28.3632 47.6428 28.8571C47.6428 29.6685 47.3588 30.1624 46.8263 30.374C47.1103 30.4446 47.3588 30.621 47.5363 30.9738C47.7138 31.2912 47.8204 31.6793 47.8204 32.1379C47.8204 32.6671 47.6784 33.1257 47.4298 33.4432ZM45.6903 27.693C45.4063 27.693 45.2643 27.8694 45.2643 28.1869V30.0918H45.7613C46.2938 30.0918 46.5423 29.7038 46.5423 28.9277C46.5423 28.1163 46.2583 27.693 45.6903 27.693ZM46.4713 30.9738C46.2938 30.7268 46.0453 30.621 45.7613 30.621H45.2643V32.8787C45.2643 33.2315 45.4418 33.4079 45.7968 33.4079C46.4358 33.4079 46.7553 32.9493 46.7553 32.0321C46.7198 31.5735 46.6488 31.2207 46.4713 30.9738Z" fill="white"/>
<path d="M51.1931 34.0438C50.8735 34.0438 50.696 33.9027 50.5895 33.5499C50.3055 33.8674 49.9505 34.0438 49.5955 34.0438C49.3115 34.0438 49.0985 33.938 48.921 33.7616C48.708 33.5499 48.637 33.2677 48.637 32.9149C48.637 32.3505 48.85 31.8919 49.3115 31.5744C49.631 31.3627 50.057 31.1863 50.554 31.1511V30.5161C50.554 30.0575 50.412 29.8105 50.128 29.8105C49.915 29.8105 49.773 30.0575 49.7375 30.5161C49.702 30.9394 49.5245 31.1158 49.205 31.1158C49.063 31.1158 48.9565 31.0805 48.8855 30.9394C48.8145 30.8336 48.7435 30.6925 48.7435 30.4808C48.7435 30.0575 48.8855 29.7047 49.2405 29.493C49.489 29.3166 49.8085 29.2461 50.1635 29.2461C51.0156 29.2461 51.4416 29.7753 51.4416 30.8688V33.0913C51.4416 33.2324 51.4771 33.303 51.5126 33.303C51.5836 33.303 51.6546 33.2324 51.7256 33.0913L51.9386 33.5146C51.7256 33.8674 51.4771 34.0438 51.1931 34.0438ZM50.554 31.6802C50.27 31.7508 50.057 31.8566 49.8795 32.033C49.631 32.2799 49.5245 32.5269 49.5245 32.8444C49.5245 32.9502 49.56 33.0913 49.631 33.1619C49.702 33.2677 49.773 33.303 49.8795 33.303C50.0925 33.303 50.341 33.1619 50.554 32.8091V31.6802Z" fill="white"/>
<path d="M54.7433 33.9011V33.4425C54.9918 33.4425 55.0983 33.3367 55.0983 33.125V30.7614C55.0983 30.1264 54.9208 29.7737 54.5303 29.7737C54.4238 29.7737 54.3173 29.8795 54.1398 30.0206C53.9623 30.197 53.8558 30.3734 53.7848 30.585V33.0897C53.7848 33.3014 53.9268 33.4072 54.1753 33.4072V33.8658H52.5422V33.4072C52.7907 33.4072 52.8973 33.3014 52.8973 33.0897V30.2675C52.8973 30.0912 52.7907 29.9853 52.5422 29.9853V29.5267C52.9328 29.4914 53.2168 29.3856 53.4653 29.1387H53.7848V29.6326C54.0688 29.3151 54.3883 29.1387 54.7433 29.1387C55.1338 29.1387 55.4179 29.2798 55.6309 29.562C55.8439 29.8442 55.9504 30.2323 55.9504 30.7261V33.0544C55.9504 33.2661 56.0924 33.3719 56.3409 33.3719V33.8305H54.7433V33.9011Z" fill="white"/>
<path d="M56.9797 33.9005V33.4419C57.2637 33.4419 57.4058 33.3008 57.4058 33.0186V28.3267C57.4058 28.1504 57.3703 28.0445 57.2992 28.0092C57.2637 27.974 57.1572 27.974 57.0152 27.974V27.5154C57.4058 27.5154 57.7253 27.3743 57.9738 27.0215H58.2578V31.2195L59.0033 30.3375C59.1808 30.1612 59.2518 30.02 59.2518 29.9142C59.2518 29.8437 59.1808 29.8084 59.0743 29.8084H58.8968V29.3498H60.5299V29.8084C60.2104 29.8084 59.9264 29.9848 59.6423 30.3023L59.2163 30.8314L60.3169 33.0186C60.4589 33.3008 60.6364 33.4419 60.8849 33.4772V33.9358H59.1098V33.4772C59.2873 33.4772 59.3938 33.4419 59.3938 33.3714C59.3938 33.3361 59.3583 33.2303 59.3228 33.1244L58.6128 31.6781L58.3288 31.9956V33.0892C58.3288 33.3714 58.4708 33.5125 58.7548 33.5125V33.9711H56.9797V33.9005Z" fill="white"/>
<path d="M65.5711 29.1395C65.2161 28.2928 64.8256 27.8342 64.4351 27.8342C64.2576 27.8342 64.1865 27.9753 64.1865 28.2575V32.9494C64.1865 33.2669 64.3641 33.408 64.6836 33.408V33.9019H62.6245V33.408C62.944 33.408 63.1215 33.2669 63.1215 32.9494V28.2575C63.1215 27.9753 63.0505 27.8342 62.873 27.8342C62.4825 27.8342 62.092 28.2575 61.7369 29.1395H61.3464L61.6304 27.1992H65.6776L65.9616 29.1395H65.5711Z" fill="white"/>
<path d="M68.6599 34.0438C68.3403 34.0438 68.1628 33.9027 68.0563 33.5499C67.7723 33.8674 67.4173 34.0438 67.0623 34.0438C66.7783 34.0438 66.5653 33.938 66.3878 33.7616C66.1748 33.5499 66.1038 33.2677 66.1038 32.9149C66.1038 32.3505 66.3168 31.8919 66.7783 31.5744C67.0978 31.3627 67.5238 31.1863 68.0208 31.1511V30.5161C68.0208 30.0575 67.8788 29.8105 67.5948 29.8105C67.3818 29.8105 67.2398 30.0575 67.2043 30.5161C67.1688 30.9394 66.9913 31.1158 66.6718 31.1158C66.5298 31.1158 66.4588 31.0805 66.3523 30.9394C66.2813 30.8336 66.2103 30.6925 66.2103 30.4808C66.2103 30.0575 66.3523 29.7047 66.7073 29.493C66.9558 29.3166 67.2753 29.2461 67.6303 29.2461C68.4824 29.2461 68.9084 29.7753 68.9084 30.8688V33.0913C68.9084 33.2324 68.9439 33.303 68.9794 33.303C69.0504 33.303 69.1214 33.2324 69.1924 33.0913L69.4054 33.5146C69.1924 33.8674 68.9439 34.0438 68.6599 34.0438ZM68.0208 31.6802C67.7368 31.7508 67.5238 31.8566 67.3463 32.033C67.0978 32.2799 66.9913 32.5269 66.9913 32.8444C66.9913 32.9502 67.0268 33.0913 67.0978 33.1619C67.1688 33.2677 67.2398 33.303 67.3463 33.303C67.5593 33.303 67.8078 33.1619 68.0208 32.8091V31.6802Z" fill="white"/>
<path d="M69.9377 33.9005V33.4772C70.2218 33.4772 70.3638 33.3361 70.3638 33.0186V30.4434C70.3638 30.267 70.3283 30.1259 70.2573 30.0906C70.1863 30.0553 70.1153 30.02 69.9732 30.02V29.5614C70.3993 29.5614 70.7188 29.4556 70.9318 29.2439H71.2513V33.0539C71.2513 33.3714 71.3933 33.5125 71.7128 33.5125V33.9358H69.9377V33.9005ZM71.2513 28.3267C71.1448 28.4678 71.0028 28.5384 70.8608 28.5384C70.7188 28.5384 70.5768 28.4678 70.4703 28.3267C70.3638 28.1856 70.3283 28.0092 70.3283 27.7976C70.3283 27.5859 70.3638 27.4095 70.4703 27.2684C70.5768 27.1273 70.7188 27.0215 70.8608 27.0215C71.0028 27.0215 71.1448 27.092 71.2513 27.2684C71.3578 27.4095 71.4288 27.5859 71.4288 27.7976C71.4288 28.0092 71.3578 28.1856 71.2513 28.3267Z" fill="white"/>
<path d="M77.1446 29.9513C77.0736 30.0571 76.9671 30.2335 76.8961 30.4804L75.9021 33.9023H75.4761L74.8015 31.2918L74.056 33.9023H73.63L72.6359 30.3393C72.5294 29.9866 72.3519 29.8102 72.1389 29.8102V29.3516H73.843V29.8102H73.701C73.559 29.8102 73.5235 29.8454 73.5235 29.9513C73.5235 29.9866 73.559 30.1277 73.63 30.3746L74.1625 32.2796L74.6595 30.551C74.5885 30.304 74.553 30.1277 74.482 30.0218C74.3755 29.8807 74.269 29.8102 74.127 29.8102V29.3516H75.7246V29.8102H75.6181C75.5471 29.8102 75.4761 29.8454 75.4761 29.8454C75.4761 29.8807 75.4406 29.916 75.4406 29.9513C75.4406 29.9866 75.4406 30.0924 75.5116 30.2335L76.0441 32.2443L76.6121 30.1982C76.6476 30.0571 76.6831 29.9866 76.6831 29.9513C76.6831 29.8454 76.5766 29.8102 76.3991 29.8102H76.2216V29.3516H77.6061V29.8102C77.3576 29.8102 77.2511 29.8807 77.1446 29.9513Z" fill="white"/>
<path d="M80.3752 34.0438C80.0557 34.0438 79.8782 33.9027 79.7717 33.5499C79.4877 33.8674 79.1326 34.0438 78.7776 34.0438C78.4936 34.0438 78.2806 33.938 78.1031 33.7616C77.8901 33.5499 77.8191 33.2677 77.8191 32.9149C77.8191 32.3505 78.0321 31.8919 78.4936 31.5744C78.8131 31.3627 79.2392 31.1863 79.7362 31.1511V30.5161C79.7362 30.0575 79.5942 29.8105 79.3101 29.8105C79.0971 29.8105 78.9551 30.0575 78.9196 30.5161C78.8841 30.9394 78.7066 31.1158 78.3871 31.1158C78.2451 31.1158 78.1741 31.0805 78.0676 30.9394C77.9611 30.8336 77.9256 30.6925 77.9256 30.4808C77.9256 30.0575 78.0676 29.7047 78.4226 29.493C78.6711 29.3166 78.9906 29.2461 79.3457 29.2461C80.1977 29.2461 80.6237 29.7753 80.6237 30.8688V33.0913C80.6237 33.2324 80.6592 33.303 80.6947 33.303C80.7302 33.303 80.8367 33.2324 80.9077 33.0913L81.1207 33.5146C80.9077 33.8674 80.6592 34.0438 80.3752 34.0438ZM79.7362 31.6802C79.4522 31.7508 79.2391 31.8566 79.0616 32.033C78.8131 32.2799 78.7066 32.5269 78.7066 32.8444C78.7066 32.9502 78.7421 33.0913 78.8131 33.1619C78.8841 33.2677 78.9551 33.303 79.0616 33.303C79.2746 33.303 79.5232 33.1619 79.7362 32.8091V31.6802Z" fill="white"/>
<path d="M83.7477 33.9011V33.4425C83.9962 33.4425 84.1027 33.3367 84.1027 33.125V30.7614C84.1027 30.1264 83.9252 29.7737 83.5347 29.7737C83.4282 29.7737 83.3217 29.8795 83.1442 30.0206C82.9667 30.197 82.8602 30.3734 82.7892 30.585V33.0897C82.7892 33.3014 82.9312 33.4072 83.1797 33.4072V33.8658H81.5466V33.4072C81.7951 33.4072 81.9016 33.3014 81.9016 33.0897V30.2675C81.9016 30.0912 81.7951 29.9853 81.5466 29.9853V29.5267C81.9371 29.4914 82.2212 29.3856 82.4697 29.1387H82.7892V29.6326C83.0732 29.3151 83.3927 29.1387 83.7477 29.1387C84.1382 29.1387 84.4223 29.2798 84.6353 29.562C84.8483 29.8442 84.9548 30.2323 84.9548 30.7261V33.0544C84.9548 33.2661 85.0968 33.3719 85.3453 33.3719V33.8305H83.7477V33.9011Z" fill="white"/>
<path d="M91.3451 33.9019H88.292V33.408C88.5405 33.408 88.6825 33.2316 88.6825 32.9141V28.1517C88.6825 27.8342 88.5405 27.6931 88.292 27.6931V27.1992H89.9606V27.6931C89.8186 27.6931 89.7476 27.7284 89.6766 27.7637C89.6056 27.8342 89.5701 27.9753 89.5701 28.187V32.8788C89.5701 33.2316 89.7121 33.408 89.9606 33.408C90.2801 33.408 90.5286 33.3022 90.7416 33.0905C90.9191 32.8788 91.0966 32.4908 91.2031 31.9616H91.4871L91.3451 33.9019Z" fill="white"/>
<path d="M91.8423 33.9019V33.408C92.0908 33.408 92.2328 33.2669 92.2328 32.9494V28.1517C92.2328 27.8342 92.0908 27.6931 91.8423 27.6931V27.1992H93.5108V27.6931C93.2268 27.6931 93.1203 27.8695 93.1203 28.1517V32.9141C93.1203 33.2316 93.2623 33.3727 93.5108 33.3727V33.8666H91.8423V33.9019Z" fill="white"/>
<path d="M97.1319 29.1747C96.9899 28.6456 96.8124 28.2575 96.5994 28.0459C96.3864 27.8342 96.1024 27.7284 95.7119 27.7284C95.5344 27.7284 95.4279 27.8695 95.4279 28.187V30.3036H96.1024C96.2444 30.3036 96.3154 30.2331 96.3864 30.0919C96.4574 29.9508 96.4574 29.8803 96.4574 29.5275H96.7414V31.8558H96.4574C96.4574 31.4678 96.4219 31.2208 96.3509 31.0797C96.2799 30.9386 96.2089 30.868 96.0669 30.868H95.3924V32.9494C95.3924 33.3022 95.4989 33.4433 95.7474 33.4433V33.9371H94.1853V33.4433C94.4338 33.4433 94.5403 33.2669 94.5403 32.9494V28.1517C94.5403 27.8342 94.3983 27.6931 94.1853 27.6931V27.1992H97.2384L97.3804 29.0689L97.1319 29.1747Z" fill="white"/>
<path d="M100.646 33.9019H97.6643V33.408C97.9128 33.408 98.0193 33.2669 98.0193 32.9494V28.1517C98.0193 27.8695 97.8773 27.6931 97.6643 27.6931V27.1992H100.682L100.824 29.0689L100.54 29.1747C100.398 28.6456 100.22 28.2575 100.007 28.0459C99.7944 27.8342 99.5104 27.7284 99.1554 27.7284C98.9779 27.7284 98.8714 27.8695 98.8714 28.187V30.1978H99.3329C99.4749 30.1978 99.5459 30.1272 99.6169 29.9861C99.6879 29.845 99.6879 29.5981 99.6879 29.21H99.9719V31.75H99.6879C99.6879 31.3619 99.6524 31.0797 99.6169 30.9386C99.5459 30.7975 99.4749 30.7269 99.3329 30.7269H98.8714V32.9847C98.8714 33.3022 99.0134 33.4433 99.3329 33.4433C99.9009 33.4433 100.327 32.9847 100.54 32.0322H100.824L100.646 33.9019Z" fill="white"/>
<path d="M103.345 33.9019V33.408C103.593 33.408 103.735 33.2669 103.735 32.9494V28.1517C103.735 27.8342 103.593 27.6931 103.345 27.6931V27.1992H105.013V27.6931C104.729 27.6931 104.623 27.8695 104.623 28.1517V32.9141C104.623 33.2316 104.765 33.3727 105.013 33.3727V33.8666H103.345V33.9019Z" fill="white"/>
<path d="M109.096 27.7637C109.025 27.8342 108.989 27.9753 108.989 28.187V33.9019H108.634L106.327 28.9631V32.8436C106.327 33.0552 106.362 33.1963 106.433 33.2669C106.504 33.3374 106.646 33.3727 106.824 33.3727V33.8666H105.546V33.3727C105.723 33.3727 105.83 33.3374 105.901 33.2669C105.972 33.1963 106.007 33.0552 106.007 32.8436V28.2928C106.007 28.0459 105.972 27.8695 105.865 27.7989C105.794 27.7284 105.688 27.6931 105.546 27.6931V27.1992H106.575L108.67 31.6794V28.187C108.67 27.8695 108.492 27.6931 108.173 27.6931V27.1992H109.415V27.6931C109.273 27.6931 109.167 27.7284 109.096 27.7637Z" fill="white"/>
<path d="M112.362 33.5474C112.113 33.8649 111.794 34.0413 111.439 34.0413C111.226 34.0413 111.048 34.006 110.835 33.9002C110.622 33.7943 110.516 33.7591 110.48 33.7591C110.374 33.7591 110.267 33.8296 110.125 34.006L109.664 31.9599L109.983 31.7835C110.303 32.8066 110.764 33.3357 111.297 33.3357C111.439 33.3357 111.581 33.2652 111.687 33.0888C111.794 32.9477 111.865 32.736 111.865 32.5244C111.865 32.2421 111.758 31.9599 111.581 31.713C111.439 31.5366 111.261 31.3249 110.977 31.078C110.622 30.7605 110.374 30.4783 110.196 30.2313C109.948 29.8433 109.841 29.3847 109.841 28.9261C109.841 28.3617 109.948 27.903 110.161 27.5856C110.374 27.2681 110.693 27.127 111.084 27.127C111.261 27.127 111.439 27.1622 111.652 27.2681C111.865 27.3739 111.971 27.4092 111.971 27.4092C112.042 27.4092 112.113 27.3386 112.22 27.1622L112.575 29.0319L112.255 29.2436C112.078 28.785 111.936 28.4675 111.794 28.2205C111.581 27.9383 111.368 27.7619 111.119 27.7619C110.977 27.7619 110.871 27.8325 110.764 27.9736C110.658 28.1147 110.622 28.3264 110.622 28.538C110.622 28.785 110.693 28.9966 110.871 29.2436C110.977 29.3847 111.155 29.5611 111.439 29.808C111.9 30.1961 112.184 30.5136 112.291 30.6899C112.539 31.078 112.681 31.5719 112.681 32.1716C112.788 32.736 112.646 33.1946 112.362 33.5474Z" fill="white"/>
<path d="M116.48 28.187V31.8558C116.48 32.4908 116.374 33.0199 116.125 33.408C115.912 33.796 115.593 34.0077 115.238 34.0077C114.705 34.0077 114.315 33.8666 114.066 33.5491C113.782 33.1963 113.64 32.6319 113.64 31.7852V28.3281C113.64 27.9048 113.498 27.6931 113.214 27.6931V27.1992H114.918V27.6931C114.634 27.6931 114.492 27.9048 114.492 28.3281V31.7852C114.492 32.7024 114.776 33.1611 115.38 33.1611C115.628 33.1611 115.841 33.0552 115.983 32.773C116.125 32.5261 116.196 32.1733 116.196 31.7147V28.187C116.196 27.8695 116.019 27.6931 115.699 27.6931V27.1992H116.977V27.6931C116.658 27.6931 116.48 27.8695 116.48 28.187Z" fill="white"/>
<path d="M119.924 33.9019L118.823 30.8328H118.646V32.9494C118.646 33.2669 118.788 33.408 119.036 33.408V33.9019H117.368V33.408C117.616 33.408 117.758 33.2669 117.758 32.9494V28.1517C117.758 27.8342 117.616 27.6931 117.368 27.6931V27.1992H119.214C120.137 27.1992 120.598 27.7989 120.598 28.9984C120.598 29.9861 120.314 30.5505 119.746 30.7622L120.527 32.8436C120.669 33.2316 120.882 33.4433 121.131 33.4433V33.9371H119.924V33.9019ZM119.533 28.0459C119.391 27.8342 119.214 27.7284 119.001 27.7284C118.752 27.7284 118.646 27.8695 118.646 28.187V30.3389H118.93C119.462 30.3389 119.711 29.8803 119.711 28.9631C119.746 28.5397 119.675 28.2575 119.533 28.0459Z" fill="white"/>
<path d="M122.657 31.5017L122.48 32.4189C122.409 32.8069 122.373 33.0539 122.373 33.1244C122.373 33.3008 122.551 33.3714 122.87 33.3714V33.8653H121.486V33.3714C121.805 33.3714 122.018 33.0186 122.16 32.2778L123.225 27.1626L123.687 27.0215L125 32.3836C125.071 32.6306 125.142 32.8422 125.249 33.0539C125.391 33.3008 125.497 33.4066 125.604 33.4066V33.9005H123.9V33.4066C124.113 33.4066 124.184 33.3361 124.184 33.195C124.184 33.1244 124.148 32.948 124.077 32.7011L123.793 31.537H122.657V31.5017ZM123.687 30.9725L123.19 28.8912L122.764 30.9725H123.687Z" fill="white"/>
<path d="M129.438 27.7637C129.367 27.8342 129.332 27.9753 129.332 28.187V33.9019H128.977L126.669 28.9631V32.8436C126.669 33.0552 126.705 33.1963 126.776 33.2669C126.847 33.3374 126.989 33.3727 127.166 33.3727V33.8666H125.888V33.3727C126.066 33.3727 126.172 33.3374 126.243 33.2669C126.314 33.1963 126.35 33.0552 126.35 32.8436V28.2928C126.35 28.0459 126.314 27.8695 126.208 27.7989C126.137 27.7284 126.03 27.6931 125.888 27.6931V27.1992H126.918L129.012 31.6794V28.187C129.012 27.8695 128.835 27.6931 128.515 27.6931V27.1992H129.758V27.6931C129.616 27.6931 129.509 27.7284 129.438 27.7637Z" fill="white"/>
<path d="M131.888 34.0435C131.32 34.0435 130.894 33.726 130.61 33.0557C130.326 32.456 130.184 31.6446 130.184 30.6569C130.184 29.5985 130.326 28.7519 130.574 28.1169C130.858 27.4114 131.284 27.0586 131.852 27.0586C131.994 27.0586 132.136 27.0939 132.349 27.1997C132.527 27.3055 132.633 27.3408 132.669 27.3408C132.74 27.3408 132.846 27.2703 132.988 27.0939L133.272 28.7872L132.988 28.9988C132.74 28.1522 132.385 27.7289 131.959 27.7289C131.675 27.7289 131.426 28.0464 131.249 28.6813C131.107 29.2105 131.036 29.8808 131.036 30.6216C131.036 31.3624 131.107 31.9268 131.249 32.3854C131.426 32.8793 131.675 33.1615 131.994 33.1615C132.385 33.1615 132.74 32.7029 133.059 31.7857L133.343 32.0327C133.059 33.3379 132.562 34.0435 131.888 34.0435Z" fill="white"/>
<path d="M136.787 33.9019H133.805V33.408C134.053 33.408 134.16 33.2669 134.16 32.9494V28.1517C134.16 27.8695 134.018 27.6931 133.805 27.6931V27.1992H136.823L136.965 29.0689L136.681 29.1747C136.539 28.6456 136.361 28.2575 136.148 28.0459C135.935 27.8342 135.651 27.7284 135.296 27.7284C135.118 27.7284 135.012 27.8695 135.012 28.187V30.1978H135.367C135.509 30.1978 135.58 30.1272 135.651 29.9861C135.722 29.845 135.722 29.5981 135.722 29.21H136.006V31.75H135.722C135.722 31.3619 135.687 31.0797 135.651 30.9386C135.58 30.7975 135.509 30.7269 135.367 30.7269H135.012V32.9847C135.012 33.3022 135.154 33.4433 135.474 33.4433C136.042 33.4433 136.468 32.9847 136.681 32.0322H136.965L136.787 33.9019Z" fill="white"/>
</svg>
