<svg width="35" height="34" xmlns="http://www.w3.org/2000/svg" fill="none">
 <g>
  <title>Layer 1</title>
  <path d="m21.2299,27.1634c0.7455,-0.3175 1.491,-0.7056 2.1655,-1.1994c1.7751,-1.27 3.4437,-3.175 4.3312,-6.1383l-3.5856,-0.0352l-0.426,-1.9756l6.4612,0c-0.426,5.5738 -3.8696,9.9129 -8.9463,11.5357l0,-2.1872zm0,6.3851c7.4553,-1.8344 13.029,-8.5723 13.029,-16.5096c0,-7.97268 -5.5737,-14.67533 -13.029,-16.54502l0,2.04607c6.3547,1.79914 11.0054,7.58455 11.0054,14.46365c0,6.8437 -4.6507,12.6645 -11.0054,14.4636l0,2.0813zm-0.0355,-9.0309l2.5206,0c-2.2011,-3.8805 -2.6272,-8.1843 -1.9881,-12.6645l-0.5325,0l0,12.6645zm0.0355,-15.4161l0,-0.28222l0.142,0l-0.142,0.28222zm0,-2.18718l0,-2.15191c4.8636,1.62275 7.8103,5.25629 8.9108,10.72429l-6.4968,0.0352l0,-2.0108l3.9052,0c-1.136,-2.928 -3.2661,-5.32681 -6.3192,-6.59678zm-4.1182,21.06048c1.3845,0 2.8046,-0.2823 4.1182,-0.8114l0,2.1872c-1.2426,0.388 -2.6138,0.6702 -4.1049,0.6702l-0.0133,-2.046zm4.1182,-27.48092l0,2.04607c-1.3136,-0.38805 -2.6627,-0.59971 -4.1182,-0.59971l0,-1.94024l0.0355,0c1.3845,0 2.7691,0.17639 4.0827,0.49388zm0,4.26853l0,2.15191c-0.7456,-0.3175 -1.5976,-0.59971 -2.4496,-0.74082l0,-2.08135c0.852,0.17638 1.6685,0.38804 2.4496,0.67026zm0,4.02159l0,0.28222l-1.4201,2.78688l1.3846,0l0,12.6645l-1.4556,0l-1.0295,-2.7869l-1.6331,0l0,-12.9467l4.1537,0zm0,22.6832l0,2.0813c-1.3136,0.3175 -2.6627,0.4586 -4.0827,0.4586l-0.0355,0l0,-1.9755c1.42,0.0353 2.8046,-0.1764 4.1182,-0.5644zm-8.1299,-4.2333c1.2426,0.4939 2.6271,0.7056 4.0117,0.7409l0.0133,2.046c-0.071,0 -0.2263,0 -0.2973,0c-1.3136,0 -2.5206,-0.2116 -3.6922,-0.5997l-0.0355,-2.1872zm4.0117,-27.2339l0,1.94024c-1.3846,0 -2.6981,0.21166 -3.9762,0.56444l0,-2.04608c1.2781,-0.28221 2.5916,-0.4586 3.9762,-0.4586zm0,8.784l0,12.9467l-1.5266,0l-1.0295,2.7869l-1.4201,0l0,-12.6292l1.3491,0l-1.3491,-2.71635l0,-0.38805l3.9762,0zm0,23.2476l0,1.9755c-1.3846,0 -2.6981,-0.1411 -3.9762,-0.4586l0,-2.0107c1.2781,0.3174 2.5916,0.4938 3.9762,0.4938zm-3.9762,-25.15256l0,-2.11663c0.8166,-0.31749 1.6686,-0.52916 2.5916,-0.67026l0,2.1519c-0.923,0.10583 -1.8105,0.35277 -2.5916,0.63499zm-2.5206,10.86536l-0.4615,1.9755l-3.69214,0c0.21301,1.2347 0.85203,2.3283 1.49106,3.3866c1.20705,1.905 3.01758,3.3513 5.14768,4.1274l0.0355,2.1872c-1.3845,-0.4586 -2.6626,-1.0936 -3.79863,-1.9049c-3.05312,-2.2578 -5.0767,-5.7855 -5.25421,-9.8071l6.53224,0.0353zm2.5206,-17.2858c-7.52628,1.83441 -13.1355,8.57234 -13.1355,16.5803c0,8.0079 5.60922,14.7458 13.1355,16.5096l0,-2.0107c-6.42573,-1.7639 -11.14742,-7.5846 -11.14742,-14.4989c-0.0355,-6.9496 4.72169,-12.80565 11.14742,-14.53422l0,-2.04608zm0,4.30381l0,2.11663c-3.0531,1.16414 -5.32519,3.45716 -6.39023,6.52626l3.86963,0l0.1775,1.9402l-6.63873,-0.0705c0.85203,-5.32685 4.04716,-8.88984 8.98183,-10.51259zm0,4.02159l0,0.38805l-0.213,-0.38805l0.213,0zm0,3.1044l-0.4615,0c0.781,4.7977 -0.2485,8.9604 -2.1656,12.6292l2.6271,0l0,-12.6292z" fill="white" id="svg_20"/>
 </g>

</svg>