<svg width="14" height="30" viewBox="0 0 14 30" fill="none" xmlns="http://www.w3.org/2000/svg">
<path d="M11.6464 11.2483C11.6464 11.0728 11.5775 10.9412 11.4772 10.7407L7.59839 2.68856C7.42293 2.34391 7.24748 2.20605 7.00309 2.20605C6.75871 2.20605 6.58325 2.34391 6.4078 2.68856L2.52897 10.7407C2.42871 10.9412 2.35352 11.0728 2.35352 11.2483C2.35352 11.5804 2.60417 11.7935 3.00521 11.7935L11.001 11.7872C11.402 11.7872 11.6464 11.5804 11.6464 11.2483Z" fill="#797470"/>
<path d="M11.6464 18.7517C11.6464 18.9272 11.5775 19.0588 11.4772 19.2593L7.59839 27.3114C7.42293 27.6561 7.24748 27.7939 7.00309 27.7939C6.75871 27.7939 6.58325 27.6561 6.4078 27.3114L2.52897 19.2593C2.42871 19.0588 2.35352 18.9272 2.35352 18.7517C2.35352 18.4196 2.60417 18.2065 3.00521 18.2065L11.001 18.2128C11.402 18.2128 11.6464 18.4196 11.6464 18.7517Z" fill="#CC7A00"/>
</svg>
