<svg width="40" height="40" viewBox="0 0 40 40" fill="none" xmlns="http://www.w3.org/2000/svg">
<circle cx="20" cy="20" r="20" fill="#AC113E"/>
<path d="M10.7009 31.0599H29.3118C30.9786 31.0599 32.0815 29.7691 32.0815 28.2652C32.0815 27.8015 31.9687 27.3378 31.718 26.8991L22.3938 10.3436C21.88 9.41618 20.94 8.93994 20.0126 8.93994C19.0727 8.93994 18.1202 9.41618 17.6064 10.3436L8.28215 26.9116C8.04403 27.3378 7.9187 27.8015 7.9187 28.2652C7.9187 29.7691 9.04663 31.0599 10.7009 31.0599ZM20.0126 23.2772C19.6116 23.2772 19.3735 23.0265 19.3735 22.5879L19.2607 16.1336C19.2481 15.695 19.5489 15.3817 20.0126 15.3817C20.4513 15.3817 20.7771 15.695 20.7646 16.1336L20.6518 22.5879C20.6393 23.0265 20.4011 23.2772 20.0126 23.2772ZM20.0126 26.8991C19.4612 26.8991 18.9975 26.4479 18.9975 25.909C18.9975 25.3576 19.4487 24.9064 20.0126 24.9064C20.5766 24.9064 21.0278 25.3576 21.0278 25.909C21.0278 26.4479 20.5641 26.8991 20.0126 26.8991Z" fill="white"/>
</svg>
