<svg width="120" height="120" viewBox="0 0 120 120" fill="none" xmlns="http://www.w3.org/2000/svg">
<rect width="120" height="120" fill="white"/>
<path d="M100.434 27.1216H49.3818V64.6133H100.434V27.1216Z" fill="url(#paint0_linear_567_26309)"/>
<path opacity="0.2" d="M100.434 51.0525L49.3818 39.087V27.1216H100.434V51.0525Z" fill="#7A7A7A"/>
<path d="M79.6938 49.4573H71.7168V67.8043H79.6938V49.4573Z" fill="#838A89"/>
<path d="M82.0876 48.6595L77.3014 45.4688H75.7061L80.4922 48.6595H82.0876Z" fill="#AEB8B7"/>
<path d="M70.1221 48.6595V49.4572H80.4921V48.6595L75.706 45.4688L70.1221 48.6595Z" fill="#AEB8B7"/>
<path d="M75.674 46.4021L79.0563 48.6595H71.7334L75.674 46.4021ZM75.706 45.4688L70.1221 48.6595V49.4572H80.4921V48.6595L75.706 45.4688Z" fill="#DBDBDB"/>
<path d="M55.7634 30.3125H49.3818V64.6135H55.7634V30.3125Z" fill="#EDEDED"/>
<path d="M119.579 27.1217V23.9309H106.018V27.1217H100.435V64.6135H104.423V69.3996H117.186V64.6135H114.793V27.1217H119.579Z" fill="#838A89"/>
<path d="M69.324 30.3125H62.9424V64.6135H69.324V30.3125Z" fill="#EDEDED"/>
<path d="M86.0759 30.3125H79.6943V64.6135H86.0759V30.3125Z" fill="#EDEDED"/>
<path d="M100.434 30.3125H94.0527V64.6135H100.434V30.3125Z" fill="#EDEDED"/>
<path d="M57.3585 64.6135C57.3585 65.4909 56.6406 66.2089 55.7631 66.2089H49.3815C48.5041 66.2089 47.7861 65.4909 47.7861 64.6135C47.7861 63.736 48.5041 63.0181 49.3815 63.0181H55.7631C56.6406 63.0181 57.3585 63.736 57.3585 64.6135Z" fill="#AEB8B7"/>
<path d="M70.919 64.6135C70.919 65.4909 70.2011 66.2089 69.3237 66.2089H62.9421C62.0646 66.2089 61.3467 65.4909 61.3467 64.6135C61.3467 63.736 62.0646 63.0181 62.9421 63.0181H69.3237C70.2011 63.0181 70.919 63.736 70.919 64.6135Z" fill="#AEB8B7"/>
<path d="M55.7631 28.7173H49.3815C48.5041 28.7173 47.7861 29.4352 47.7861 30.3127C47.7861 31.1901 48.5041 31.9081 49.3815 31.9081L55.7631 35.0989V31.9081C56.6406 31.9081 57.3585 31.1901 57.3585 30.3127C57.3585 29.4352 56.6406 28.7173 55.7631 28.7173Z" fill="#9DA6A4"/>
<path d="M69.3237 28.7173H62.9421C62.0646 28.7173 61.3467 29.4352 61.3467 30.3127C61.3467 31.1901 62.0646 31.9081 62.9421 31.9081L69.3237 35.0989V31.9081C70.2011 31.9081 70.919 31.1901 70.919 30.3127C70.919 29.4352 70.2011 28.7173 69.3237 28.7173Z" fill="#9DA6A4"/>
<path d="M86.0756 28.7173H79.694C78.8166 28.7173 78.0986 29.4352 78.0986 30.3127C78.0986 31.1901 78.8166 31.9081 79.694 31.9081L86.0756 35.0989V31.9081C86.9531 31.9081 87.671 31.1901 87.671 30.3127C87.671 29.4352 86.9531 28.7173 86.0756 28.7173Z" fill="#9DA6A4"/>
<path d="M100.434 28.7173H94.0524C93.175 28.7173 92.457 29.4352 92.457 30.3127C92.457 31.1901 93.175 31.9081 94.0524 31.9081L100.434 35.0989V31.9081C101.311 31.9081 102.029 31.1901 102.029 30.3127C102.029 29.4352 101.311 28.7173 100.434 28.7173Z" fill="#9DA6A4"/>
<path d="M87.671 64.6135C87.671 65.4909 86.9531 66.2089 86.0756 66.2089H79.694C78.8166 66.2089 78.0986 65.4909 78.0986 64.6135C78.0986 63.736 78.8166 63.0181 79.694 63.0181H86.0756C86.9531 63.0181 87.671 63.736 87.671 64.6135Z" fill="#AEB8B7"/>
<path d="M102.029 64.6135C102.029 65.4909 101.311 66.2089 100.434 66.2089H94.0524C93.175 66.2089 92.457 65.4909 92.457 64.6135C92.457 63.736 93.175 63.0181 94.0524 63.0181H100.434C101.311 63.0181 102.029 63.736 102.029 64.6135Z" fill="#AEB8B7"/>
<path d="M103.625 28.717C103.625 29.5945 102.907 30.3124 102.029 30.3124H47.7858C46.9084 30.3124 46.1904 29.5945 46.1904 28.717V26.3239C46.1904 25.4464 46.9084 24.7285 47.7858 24.7285H102.029C102.907 24.7285 103.625 25.4464 103.625 26.3239V28.717Z" fill="url(#paint1_linear_567_26309)"/>
<path d="M119.579 23.9309L86.0757 0H73.3125L104.423 23.9309H119.579Z" fill="#AEB8B7"/>
<path d="M43 23.9309V27.1217H106.018V23.9309L73.3125 0L43 23.9309Z" fill="#D2D6D6"/>
<path d="M73.4002 5.00954L98.1767 23.1332H50.4505L73.4002 5.00954ZM73.3125 0L43 23.9309V27.1217H106.018V23.9309L73.3125 0Z" fill="#EDEDED"/>
<path d="M119.579 70.9951H43V75.7813H119.579V70.9951Z" fill="#EDEDED"/>
<path d="M104.423 64.6135H45.3936V69.3997H104.423V64.6135Z" fill="#EDEDED"/>
<path d="M119.579 70.9951H106.815V75.7813H119.579V70.9951Z" fill="#838A89"/>
<path opacity="0.4" d="M50.4668 23.1331L73.4245 5.00146L75.8017 6.78033L54.4553 23.1331H50.4668Z" fill="#7A7A7A"/>
<path d="M46.71 32.0155L32.89 27.1155C31.85 26.7455 31.32 27.2955 31.7 28.3255L33.37 32.8355C22.87 37.4055 16 47.9255 16 60.4455H26C26 52.2855 30.27 45.4055 36.84 42.2555L38.59 46.9955C38.97 48.0255 39.73 48.0955 40.28 47.1355L47.6 34.4255C48.15 33.4655 47.75 32.3855 46.71 32.0155Z" fill="#3A556C"/>
<path d="M102.59 79.4456H92.5899C92.5899 87.6056 88.3199 94.4856 81.7499 97.6356L79.9999 92.9056C79.6199 91.8756 78.8599 91.8056 78.3099 92.7656L70.9999 105.476C70.4499 106.426 70.8499 107.506 71.8899 107.876L85.7099 112.776C86.7499 113.146 87.2798 112.596 86.8998 111.566L85.2298 107.056C95.7198 102.486 102.59 91.9656 102.59 79.4456Z" fill="#DF413D"/>
<path d="M57 104.974C57 106.28 55.9313 107.349 54.625 107.349H2.375C1.06875 107.349 0 106.28 0 104.974V100.224C0 98.9176 1.06875 97.8489 2.375 97.8489H54.625C55.9313 97.8489 57 98.9176 57 100.224V104.974Z" fill="#399E83"/>
<path d="M57 102.005C57 103.311 55.9313 104.38 54.625 104.38H2.375C1.06875 104.38 0 103.311 0 102.005V99.0364C0 97.7301 1.06875 96.6614 2.375 96.6614H54.625C55.9313 96.6614 57 97.7301 57 99.0364V102.005Z" fill="#42B89A"/>
<path d="M57 99.0364C57 100.343 55.9313 101.411 54.625 101.411H2.375C1.06875 101.411 0 100.343 0 99.0364V94.2864C0 92.9801 1.06875 91.9114 2.375 91.9114H54.625C55.9313 91.9114 57 92.9801 57 94.2864V99.0364Z" fill="#399E83"/>
<path d="M57 96.0676C57 97.3739 55.9313 98.4426 54.625 98.4426H2.375C1.06875 98.4426 0 97.3739 0 96.0676V93.0989C0 91.7926 1.06875 90.7239 2.375 90.7239H54.625C55.9313 90.7239 57 91.7926 57 93.0989V96.0676Z" fill="#42B89A"/>
<path d="M57 93.0989C57 94.4051 55.9313 95.4739 54.625 95.4739H2.375C1.06875 95.4739 0 94.4051 0 93.0989V88.3489C0 87.0426 1.06875 85.9739 2.375 85.9739H54.625C55.9313 85.9739 57 87.0426 57 88.3489V93.0989Z" fill="#399E83"/>
<path d="M57 90.1301C57 91.4364 55.9313 92.5051 54.625 92.5051H2.375C1.06875 92.5051 0 91.4364 0 90.1301V87.1614C0 85.8551 1.06875 84.7864 2.375 84.7864H54.625C55.9313 84.7864 57 85.8551 57 87.1614V90.1301Z" fill="#42B89A"/>
<path d="M57 87.1612C57 88.4675 55.9313 89.5362 54.625 89.5362H2.375C1.06875 89.5362 0 88.4675 0 87.1612V84.3884C0 83.0822 1.06875 82.0134 2.375 82.0134H54.625C55.9313 82.0134 57 83.0822 57 84.3884V87.1612Z" fill="#399E83"/>
<path opacity="0.2" d="M54.0312 107.349H54.625C55.3375 107.349 55.9728 107.028 56.4062 106.524V83.5989H54.0312V107.349Z" fill="#7A7A7A"/>
<path d="M57 84.1926C57 85.4989 55.9313 86.5676 54.625 86.5676H2.375C1.06875 86.5676 0 85.4989 0 84.1926V66.9739C0 65.6676 1.06875 64.5989 2.375 64.5989H54.625C55.9313 64.5989 57 65.6676 57 66.9739V84.1926Z" fill="#4ACFAD"/>
<path opacity="0.5" d="M23.1562 93.6926L42.75 104.974L39.1875 105.467C39.1875 105.467 38.6947 107.349 37.1094 107.349C35.5241 107.349 23.75 107.349 23.75 107.349L23.1562 93.6926Z" fill="#7A7A7A"/>
<path d="M25.8162 111.802C24.0825 110.377 21.0188 109.427 17.5156 109.427C14.0125 109.427 10.9488 110.377 9.215 111.802H7.71875V114.771H7.74844C8.04531 117.419 12.3025 119.521 17.5156 119.521C22.7347 119.521 26.9859 117.419 27.2828 114.771H27.3125V111.802H25.8162Z" fill="#E3AB00"/>
<path d="M25.8162 109.427C24.0825 108.002 21.0188 107.052 17.5156 107.052C14.0125 107.052 10.9488 108.002 9.215 109.427H7.71875V112.396H7.74844C8.04531 115.044 12.3025 117.146 17.5156 117.146C22.7347 117.146 26.9859 115.044 27.2828 112.396H27.3125V109.427H25.8162Z" fill="url(#paint2_linear_567_26309)"/>
<path d="M25.8162 107.052C24.0825 105.627 21.0188 104.677 17.5156 104.677C14.0125 104.677 10.9488 105.627 9.215 107.052H7.71875V110.021H7.74844C8.04531 112.669 12.3025 114.771 17.5156 114.771C22.7347 114.771 26.9859 112.669 27.2828 110.021H27.3125V107.052H25.8162Z" fill="#E3AB00"/>
<path d="M25.8162 104.677C24.0825 103.252 21.0188 102.302 17.5156 102.302C14.0125 102.302 10.9488 103.252 9.215 104.677H7.71875V107.646H7.74844C8.04531 110.294 12.3025 112.396 17.5156 112.396C22.7347 112.396 26.9859 110.294 27.2828 107.646H27.3125V104.677H25.8162Z" fill="url(#paint3_linear_567_26309)"/>
<path d="M25.8162 102.302C24.0825 100.877 21.0188 99.927 17.5156 99.927C14.0125 99.927 10.9488 100.877 9.215 102.302H7.71875V105.271H7.74844C8.04531 107.919 12.3025 110.021 17.5156 110.021C22.7347 110.021 26.9859 107.919 27.2828 105.271H27.3125V102.302H25.8162Z" fill="#E3AB00"/>
<path d="M25.8162 99.927C24.0825 98.502 21.0188 97.552 17.5156 97.552C14.0125 97.552 10.9488 98.502 9.215 99.927H7.71875V102.896H7.74844C8.04531 105.544 12.3025 107.646 17.5156 107.646C22.7347 107.646 26.9859 105.544 27.2828 102.896H27.3125V99.927H25.8162Z" fill="url(#paint4_linear_567_26309)"/>
<path d="M25.8162 97.552C24.0825 96.127 21.0188 95.177 17.5156 95.177C14.0125 95.177 10.9488 96.127 9.215 97.552H7.71875V100.521H7.74844C8.04531 103.169 12.3025 105.271 17.5156 105.271C22.7347 105.271 26.9859 103.169 27.2828 100.521H27.3125V97.552H25.8162Z" fill="#E3AB00"/>
<path d="M17.5156 102.896C22.9263 102.896 27.3125 100.636 27.3125 97.8489C27.3125 95.0616 22.9263 92.802 17.5156 92.802C12.105 92.802 7.71875 95.0616 7.71875 97.8489C7.71875 100.636 12.105 102.896 17.5156 102.896Z" fill="url(#paint5_linear_567_26309)"/>
<path d="M17.5156 94.6189C21.6006 94.6189 24.3438 96.2873 24.3438 97.8489C24.3438 99.4105 21.6006 101.079 17.5156 101.079C13.4306 101.079 10.6875 99.4105 10.6875 97.8489C10.6875 96.2873 13.4306 94.6189 17.5156 94.6189ZM17.5156 94.0251C13.4188 94.0251 10.0938 95.7351 10.0938 97.8489C10.0938 99.9626 13.4188 101.673 17.5156 101.673C21.6125 101.673 24.9375 99.9626 24.9375 97.8489C24.9375 95.7351 21.6125 94.0251 17.5156 94.0251Z" fill="#E3AB00"/>
<path d="M14.82 97.1242H14.8022L13.8462 97.3736L13.6562 96.8926L14.9803 96.5542H15.9481V99.2854H14.8141V97.1242H14.82Z" fill="#E3AB00"/>
<path d="M20.9891 97.9083C20.9891 98.7515 20.3656 99.3333 19.0891 99.3333C17.7947 99.3333 17.2247 98.698 17.2188 97.9261C17.2188 97.1365 17.8363 96.5071 19.1306 96.5071C20.4666 96.5071 20.9891 97.1602 20.9891 97.9083ZM18.3944 97.9261C18.3884 98.5496 18.6616 98.8524 19.1188 98.8524C19.5759 98.8524 19.8194 98.5436 19.8194 97.9202C19.8194 97.3146 19.5819 96.994 19.1128 96.994C18.6794 96.994 18.3825 97.2908 18.3944 97.9261Z" fill="#E3AB00"/>
<path d="M20.1994 81.2239H10.3372C9.68406 80.2086 8.13438 78.2551 5.9375 78.2551V72.9114C8.14031 72.9114 9.68406 70.9579 10.3372 69.9426H20.1994C20.8525 69.0223 21.6541 68.2148 22.5803 67.5676H4.75C4.09688 67.5676 3.5625 68.102 3.5625 68.7551V82.4114C3.5625 83.0645 4.09688 83.5989 4.75 83.5989H22.5803C21.6541 82.9517 20.8525 82.1442 20.1994 81.2239Z" fill="#3CA88C"/>
<path d="M52.2502 67.5676H33.8262C34.7524 68.2148 35.554 69.0223 36.2071 69.9426H46.663C47.3162 70.9579 48.8659 72.9114 51.0627 72.9114V78.2551C48.8599 78.2551 47.3162 80.2086 46.663 81.2239H36.2071C35.554 82.1442 34.7524 82.9517 33.8262 83.5989H52.2502C52.9034 83.5989 53.4377 83.0645 53.4377 82.4114V68.7551C53.4377 68.102 52.9034 67.5676 52.2502 67.5676Z" fill="#3CA88C"/>
<path d="M47.1913 109.13C45.4575 107.705 42.3938 106.755 38.8906 106.755C35.3875 106.755 32.3238 107.705 30.59 109.13H29.0938V112.099H29.1234C29.4203 114.747 33.6775 116.849 38.8906 116.849C44.1097 116.849 48.3609 114.747 48.6578 112.099H48.6875V109.13H47.1913Z" fill="#E3AB00"/>
<path d="M38.8906 114.474C44.3013 114.474 48.6875 112.214 48.6875 109.427C48.6875 106.64 44.3013 104.38 38.8906 104.38C33.48 104.38 29.0938 106.64 29.0938 109.427C29.0938 112.214 33.48 114.474 38.8906 114.474Z" fill="url(#paint6_linear_567_26309)"/>
<path d="M38.8906 106.233C42.9756 106.233 45.7188 107.901 45.7188 109.463C45.7188 111.024 42.9756 112.693 38.8906 112.693C34.8056 112.693 32.0625 111.024 32.0625 109.463C32.0625 107.901 34.8056 106.233 38.8906 106.233ZM38.8906 105.639C34.7938 105.639 31.4688 107.349 31.4688 109.463C31.4688 111.576 34.7938 113.286 38.8906 113.286C42.9875 113.286 46.3125 111.576 46.3125 109.463C46.3125 107.349 42.9875 105.639 38.8906 105.639Z" fill="#E3AB00"/>
<path d="M36.195 108.738H36.1772L35.2212 108.987L35.0312 108.506L36.3553 108.168H37.3231V110.899H36.1891V108.738H36.195Z" fill="#E3AB00"/>
<path d="M42.3641 109.522C42.3641 110.365 41.7406 110.947 40.4641 110.947C39.1697 110.947 38.5997 110.312 38.5938 109.54C38.5938 108.75 39.2113 108.121 40.5056 108.121C41.8416 108.121 42.3641 108.774 42.3641 109.522ZM39.7694 109.54C39.7634 110.163 40.0366 110.466 40.4937 110.466C40.9509 110.466 41.1944 110.157 41.1944 109.534C41.1944 108.928 40.9569 108.608 40.4878 108.608C40.0544 108.608 39.7575 108.905 39.7694 109.54Z" fill="#E3AB00"/>
<path d="M28.203 83.6641C32.666 83.6641 36.2839 80.0461 36.2839 75.5831C36.2839 71.1202 32.666 67.5022 28.203 67.5022C23.74 67.5022 20.1221 71.1202 20.1221 75.5831C20.1221 80.0461 23.74 83.6641 28.203 83.6641Z" fill="#39A186"/>
<path d="M28.2031 67.5676C32.6206 67.5676 36.2188 71.1658 36.2188 75.5833C36.2188 80.0008 32.6206 83.5989 28.2031 83.5989C23.7856 83.5989 20.1875 80.0008 20.1875 75.5833C20.1875 71.1658 23.7856 67.5676 28.2031 67.5676ZM28.2031 65.7864C22.7941 65.7864 18.4062 70.1742 18.4062 75.5833C18.4062 80.9923 22.7941 85.3801 28.2031 85.3801C33.6122 85.3801 38 80.9923 38 75.5833C38 70.1742 33.6122 65.7864 28.2031 65.7864Z" fill="#4ACFAD"/>
<path d="M33.0185 79.5019C32.781 78.6706 31.2847 78.1244 30.1091 77.6969C29.735 77.5603 29.646 77.02 29.64 76.5628C29.8063 76.4441 29.9607 76.2778 30.1091 76.0581C30.3229 75.7434 30.5366 75.5 30.7029 75.0903C30.8097 75.0784 30.9344 74.9953 30.9997 74.8884C31.255 74.4669 31.3916 73.8078 31.3085 73.5941C31.261 73.4753 31.1304 73.4516 31.0235 73.4456C31.0888 71.9375 30.3288 71.035 29.3669 70.6966C29.1532 70.6134 28.791 70.4828 28.2863 70.3581C28.0072 70.2869 27.7935 70.1503 27.7697 70.0256C27.645 70.0494 27.3244 70.4413 27.4847 70.6491C27.4907 70.6491 26.695 70.6134 26.5585 71.0825C26.5347 71.1063 26.6179 71.0884 26.7188 71.0766C26.1191 71.5456 25.7154 72.3294 25.7569 73.4456C25.6441 73.4456 25.4957 73.4634 25.4422 73.5941C25.3591 73.8078 25.4897 74.4669 25.751 74.8884C25.8222 75.0013 25.9588 75.0844 26.0716 75.0903C26.2379 75.5 26.4397 75.7375 26.6535 76.0522C26.8197 76.2956 26.986 76.4619 27.176 76.5806C27.1641 76.9963 27.0572 77.4653 26.6713 77.5722C25.9469 77.7681 23.851 78.5341 23.5244 79.5019L24.1182 80.0363C24.1182 80.0363 25.8935 79.4128 28.3516 79.4128C30.8454 79.4128 32.3832 80.0363 32.3832 80.0363L33.0185 79.5019Z" fill="#4ACFAD"/>
<defs>
<linearGradient id="paint0_linear_567_26309" x1="82.0999" y1="61.6316" x2="57.5223" y2="7.7578" gradientUnits="userSpaceOnUse">
<stop stop-color="#D1D1D1"/>
<stop offset="1" stop-color="#C4C4C4"/>
</linearGradient>
<linearGradient id="paint1_linear_567_26309" x1="74.9075" y1="30.5784" x2="74.9075" y2="26.979" gradientUnits="userSpaceOnUse">
<stop stop-color="#E6E6E6"/>
<stop offset="1" stop-color="#DBDBDB"/>
</linearGradient>
<linearGradient id="paint2_linear_567_26309" x1="7.71875" y1="112.099" x2="27.3125" y2="112.099" gradientUnits="userSpaceOnUse">
<stop stop-color="#F5CA3F"/>
<stop offset="1" stop-color="#EEC02D"/>
</linearGradient>
<linearGradient id="paint3_linear_567_26309" x1="7.71875" y1="107.349" x2="27.3125" y2="107.349" gradientUnits="userSpaceOnUse">
<stop stop-color="#F5CA3F"/>
<stop offset="1" stop-color="#EEC02D"/>
</linearGradient>
<linearGradient id="paint4_linear_567_26309" x1="7.71875" y1="102.599" x2="27.3125" y2="102.599" gradientUnits="userSpaceOnUse">
<stop stop-color="#F5CA3F"/>
<stop offset="1" stop-color="#EEC02D"/>
</linearGradient>
<linearGradient id="paint5_linear_567_26309" x1="7.71875" y1="97.8489" x2="27.3125" y2="97.8489" gradientUnits="userSpaceOnUse">
<stop stop-color="#FFD242"/>
<stop offset="1" stop-color="#FFCE30"/>
</linearGradient>
<linearGradient id="paint6_linear_567_26309" x1="29.0938" y1="109.427" x2="48.6875" y2="109.427" gradientUnits="userSpaceOnUse">
<stop stop-color="#FFD242"/>
<stop offset="1" stop-color="#FFCE30"/>
</linearGradient>
</defs>
</svg>
