<svg width="211" height="204" viewBox="0 0 211 204" fill="none" xmlns="http://www.w3.org/2000/svg">
<path d="M32.1116 113.141C47.0843 110.728 72.491 103.529 88.8433 82.0422L92.4243 100.867C92.4243 100.867 72.3779 132.396 37.4041 143.682C38.5576 132.577 38.3088 120.665 32.1116 113.141Z" fill="#8CBD92"/>
<path d="M19.9058 114.355C19.9058 114.355 24.7459 114.325 32.1115 113.142C38.3087 120.666 38.565 132.577 37.3965 143.675C31.6517 145.53 25.4998 146.834 18.9634 147.369C18.9634 147.369 3.96061 149.284 2.08338 132.675C2.08338 132.675 -0.261288 115.426 19.9058 114.355Z" fill="#F6FBF7"/>
<path d="M92.417 100.86C92.417 100.86 65.2386 143.607 18.9637 147.362C18.9637 147.362 3.96093 149.276 2.08369 132.668C2.08369 132.668 -0.260973 115.418 19.9061 114.355C19.9061 114.355 64.4545 114.092 88.8435 82.0354" stroke="#4B2E1A" stroke-width="2.76224" stroke-miterlimit="10" stroke-linecap="round" stroke-linejoin="round"/>
<path d="M52.4671 150.737C52.6631 148.046 52.927 145.362 53.1381 142.671C54.6157 141.962 55.2565 140.273 55.0605 138.705C57.6238 135.72 57.9103 131.008 58.0912 127.231C58.5737 117.332 62.7278 107.961 62.185 97.9639C62.102 96.4938 61.3632 95.4684 60.3831 94.8879C61.9588 91.518 63.4742 88.1103 64.7483 84.5971C65.0951 83.6472 65.0498 82.7575 64.7633 81.981C67.0401 78.0607 69.5808 74.0876 71.541 69.926C105.135 72.4516 138.895 71.3057 172.565 71.2152C196.818 108.451 194.933 148.634 194.933 148.634C195.823 194.562 161.505 199.764 161.505 199.764C146.321 203.428 97.1135 201.453 80.7311 200.669C72.0536 196.718 64.2733 192.896 58.6567 184.437C53.9146 177.298 51.5624 168.869 50.9065 160.305C50.7708 158.525 50.7029 156.746 50.6728 154.974C50.8914 154.507 51.0121 153.994 51.0497 153.467C51.8263 152.833 52.3842 151.898 52.4671 150.737Z" fill="#8CBD92"/>
<path d="M56.5911 177.162C59.7349 183.94 64.6956 189.669 73.0715 195.188C81.3268 200.631 94.9876 200.918 108.52 200.405H136.935C150.521 200.91 164.181 200.624 172.437 195.188C187.417 185.319 191.48 174.772 193.75 158.774C195.71 144.947 192.287 119.398 188.035 106.649C187.786 105.91 188.171 105.103 188.902 104.847C189.626 104.591 190.41 104.99 190.659 105.729C195.009 118.779 198.507 144.97 196.486 159.181C194.549 172.857 191.367 186.081 173.929 197.57C165.033 203.436 150.867 203.76 136.882 203.24H108.566C105.799 203.345 103.024 203.413 100.288 203.413C89.2202 203.413 78.6957 202.267 71.5637 197.57C62.9164 191.871 57.7823 185.749 54.5555 179.356C55.4979 178.994 56.2744 178.263 56.5911 177.162Z" fill="#4B2E1A"/>
<path d="M97.1185 112.324C96.3531 112.512 95.5894 112.049 95.3972 111.294L93.5178 103.761C93.3294 102.995 93.7925 102.232 94.548 102.039C95.3104 101.844 96.084 102.311 96.2693 103.07L98.1488 110.602C98.341 111.358 97.881 112.128 97.1185 112.324Z" fill="#FBC93F"/>
<path d="M105.001 118.806L93.6641 121.642C93.1683 121.77 92.6461 121.612 92.2962 121.247C91.9432 120.875 91.8175 120.346 91.9564 119.857L95.0928 109.327C95.2309 108.855 95.6066 108.492 96.0856 108.364C96.5913 108.24 97.0715 108.358 97.4261 108.697L105.634 116.387C106.012 116.74 106.164 117.274 106.041 117.781C105.901 118.287 105.5 118.686 105.001 118.806ZM95.3828 118.284L101.778 116.683L97.1515 112.342L95.3828 118.284Z" fill="#FBC93F"/>
<path d="M106.599 123.152L94.5342 126.168C93.7687 126.357 93.005 125.893 92.8128 125.138C92.6176 124.376 93.0845 123.602 93.8431 123.417L105.908 120.401C106.674 120.212 107.437 120.675 107.633 121.438C107.822 122.186 107.355 122.96 106.599 123.152Z" fill="#FBC93F"/>
<path d="M108.327 127.68L105.59 128.365C105.159 128.472 104.723 128.211 104.616 127.78C104.509 127.349 104.77 126.913 105.201 126.806L107.939 126.121C108.369 126.014 108.805 126.276 108.912 126.706C109.019 127.137 108.758 127.573 108.327 127.68Z" fill="#4B2E1A"/>
<path d="M100.886 129.544L98.2747 130.198C97.8441 130.305 97.408 130.044 97.301 129.613C97.194 129.182 97.4553 128.746 97.8859 128.639L100.497 127.985C100.928 127.878 101.364 128.139 101.471 128.57C101.585 128.998 101.317 129.437 100.886 129.544Z" fill="#4B2E1A"/>
<path d="M111.194 139.144L108.456 139.829C108.026 139.936 107.59 139.674 107.483 139.244C107.376 138.813 107.637 138.377 108.068 138.27L110.805 137.585C111.236 137.478 111.672 137.739 111.779 138.17C111.886 138.601 111.625 139.037 111.194 139.144Z" fill="#4B2E1A"/>
<path d="M109.811 139.406C109.38 139.513 108.944 139.252 108.837 138.821L106.001 127.484C105.894 127.053 106.155 126.617 106.586 126.51C107.017 126.403 107.453 126.664 107.56 127.095L110.396 138.432C110.503 138.863 110.238 139.292 109.811 139.406Z" fill="#4B2E1A"/>
<path d="M102.486 141.235C102.055 141.342 101.619 141.081 101.512 140.65L98.6765 129.313C98.5695 128.882 98.8307 128.446 99.2613 128.339C99.692 128.232 100.128 128.493 100.235 128.924L103.071 140.261C103.178 140.692 102.917 141.128 102.486 141.235Z" fill="#4B2E1A"/>
<path d="M97.7926 142.961C97.3619 143.068 96.9259 142.807 96.8189 142.376L93.8225 130.393C93.7155 129.962 93.9767 129.526 94.4074 129.419C94.838 129.312 95.274 129.574 95.381 130.004L98.3774 141.987C98.4844 142.418 98.2232 142.854 97.7926 142.961Z" fill="#4B2E1A"/>
<path d="M108.254 139.876L105.079 140.671C104.648 140.778 104.212 140.517 104.105 140.086L101.258 128.705C101.151 128.274 101.412 127.838 101.843 127.731C102.274 127.624 102.71 127.885 102.817 128.316L105.469 138.918L107.865 138.318C108.296 138.211 108.732 138.472 108.839 138.902C108.946 139.333 108.685 139.769 108.254 139.876Z" fill="#4B2E1A"/>
<path d="M96.6087 136.86C96.1781 136.967 95.742 136.706 95.635 136.275C95.528 135.845 95.7892 135.409 96.2199 135.302C97.252 135.045 97.8446 133.846 97.5401 132.629C97.2357 131.412 96.1464 130.64 95.1143 130.896C94.6836 131.003 94.2476 130.742 94.1406 130.311C94.0336 129.88 94.2948 129.444 94.7254 129.337C96.6188 128.867 98.5832 130.169 99.0987 132.24C99.624 134.315 98.5021 136.39 96.6087 136.86Z" fill="#4B2E1A"/>
<path d="M98.1302 142.961C97.6996 143.068 97.2635 142.807 97.1565 142.376C97.0495 141.945 97.3107 141.509 97.7414 141.402C98.7735 141.146 99.3661 139.947 99.0616 138.73C98.7602 137.52 97.6679 136.74 96.6357 136.996C96.2051 137.103 95.7691 136.842 95.6621 136.412C95.5551 135.981 95.8163 135.545 96.2469 135.438C98.1403 134.968 100.105 136.27 100.62 138.341C101.146 140.416 100.024 142.491 98.1302 142.961Z" fill="#4B2E1A"/>
<path d="M73.6971 183.645C73.6971 183.645 97.6187 160.259 155.338 186.661" stroke="#4B2E1A" stroke-width="2.26173" stroke-miterlimit="10" stroke-linecap="round" stroke-linejoin="round"/>
<path d="M181.453 88.0424C181.453 88.0424 133.678 -21.7794 60.3604 21.0652C60.3604 21.0652 41.2111 34.1681 47.3479 64.8221C47.3479 64.8221 43.0958 111.368 86.7471 102.246" fill="#8CBD92"/>
<path d="M181.453 88.0425C181.453 88.0425 133.678 -21.7794 60.3604 21.0652C60.3604 21.0652 41.2111 34.1681 47.3479 64.8221C47.3479 64.8221 43.0958 111.368 86.7471 102.246" stroke="#4B2E1A" stroke-width="3.01563" stroke-miterlimit="10" stroke-linecap="round" stroke-linejoin="round"/>
<path d="M62.562 100.791C62.5997 108.157 61.5819 115.507 59.863 122.662C58.2195 129.492 55.4149 135.931 53.7036 142.723C50.6201 154.974 51.1026 168.922 56.7795 180.374" stroke="#4B2E1A" stroke-width="2.9744" stroke-miterlimit="10" stroke-linecap="round" stroke-linejoin="round"/>
<path d="M208.013 134.114C208.858 141.291 209.318 159.875 192.52 164.956C192.52 164.956 193.621 146.704 186.889 128.052C193.923 126.258 202.434 128.889 208.013 134.114Z" fill="#F6FBF7"/>
<path d="M168.924 101.274L170.816 83.0365C170.816 83.0365 199.238 90.7942 207.569 131.249C207.569 131.249 207.803 132.335 208.006 134.114C202.42 128.889 193.916 126.251 186.882 128.045C183.414 118.41 177.835 108.662 168.924 101.274Z" fill="#8CBD92"/>
<path d="M170.657 83.0365C170.657 83.0365 199.08 90.7942 207.411 131.249C207.411 131.249 214.512 158.616 193.561 164.956C193.561 164.956 194.903 122.956 168.758 101.274" stroke="#4B2E1A" stroke-width="3.16491" stroke-miterlimit="10" stroke-linecap="round" stroke-linejoin="round"/>
<path d="M91.3911 16.4136C91.3911 16.4136 81.5752 7.62303 88.0438 3.0845C88.0438 3.0845 100.001 -2.04208 112.772 16.0366" fill="#F6FBF7"/>
<path d="M91.3911 16.4136C91.3911 16.4136 81.5752 7.62303 88.0438 3.0845C88.0438 3.0845 100.001 -2.04208 112.772 16.0366" stroke="#4B2E1A" stroke-width="2.99995" stroke-miterlimit="10" stroke-linecap="round" stroke-linejoin="round"/>
<path d="M50.4088 33.7385C50.4088 33.7385 36.3257 27.8806 37.909 19.1503C37.909 19.1503 43.3748 7.96233 61.3027 21.7664" fill="#F6FBF7"/>
<path d="M50.4088 33.7385C50.4088 33.7385 36.3257 27.8806 37.909 19.1503C37.909 19.1503 43.3748 7.96233 61.3027 21.7664" stroke="#4B2E1A" stroke-width="2.99995" stroke-miterlimit="10" stroke-linecap="round" stroke-linejoin="round"/>
<path d="M93.804 55.7902C97.7017 54.6442 102.625 51.1084 101.366 46.8488C100.114 42.6118 93.133 39.5434 89.3409 40.6592C85.5412 41.7825 83.4529 46.0874 84.6893 50.2565C85.9181 54.4256 90.0119 56.9059 93.804 55.7902ZM89.8762 42.4686C92.7485 41.6242 98.6215 44.2252 99.5488 47.3765C100.386 50.2188 96.4352 53.0309 93.2687 53.9657C90.4717 54.7875 87.441 52.8801 86.5062 49.7137C85.5713 46.5472 87.0867 43.2979 89.8762 42.4686Z" fill="#A6D4AD"/>
<path d="M48.6524 66.2168C50.2657 66.5184 52.0449 66.4354 53.4246 66.0283C56.2216 65.2065 57.7369 61.9572 56.8021 58.7832C55.8673 55.6093 52.829 53.7019 50.0395 54.5312C49.2329 54.7725 48.3885 55.3228 47.612 56.0466C47.5893 55.9485 47.5667 55.8505 47.5366 55.7525C47.5441 55.6244 47.5592 55.5037 47.5592 55.3756C47.5592 55.3153 47.5517 55.2625 47.5517 55.2022C47.6421 54.7046 47.6497 54.1844 47.5592 53.6868C48.2 53.2496 48.8559 52.9103 49.5118 52.7143C53.3115 51.591 57.3977 54.0789 58.6266 58.248C59.8554 62.4171 57.7671 66.7219 53.9749 67.8452C52.4219 68.3051 50.4617 68.4333 48.6071 68.1392C48.6901 67.6492 48.6674 67.1441 48.577 66.6616C48.5996 66.5108 48.6297 66.36 48.6524 66.2168Z" fill="#A6D4AD"/>
<path d="M102.972 54.0035C100.778 54.6519 98.9758 55.9863 97.762 57.6826C95.5908 59.7634 94.6258 62.8846 95.5078 65.8927C96.5859 69.5567 100.084 71.8712 103.846 71.7128C105.218 71.9164 106.666 71.8335 108.106 71.4113C113.149 69.9261 116.09 64.8221 114.672 60.0122C113.255 55.2098 108.015 52.5183 102.972 54.0035Z" fill="#A6D4AD"/>
<path d="M71.7899 56.9512C66.2185 58.5948 61.4237 61.1731 57.9482 64.1285C52.0224 67.9508 48.7203 73.0246 50.002 77.3595C51.5626 82.652 59.4334 85.1625 68.6914 83.7979C71.9935 83.7075 75.567 83.1496 79.2008 82.0715C91.9871 78.3019 100.702 69.6169 98.6517 62.6734C96.6161 55.745 84.5837 53.1742 71.7899 56.9512Z" fill="#F6FBF7"/>
<path d="M82.382 61.7009C83.2113 64.5205 77.6851 68.6368 70.0405 70.891C62.3883 73.1452 55.5127 72.6853 54.6834 69.8657C53.8541 67.0461 59.3802 62.9297 67.0249 60.6756C74.6695 58.4138 81.5527 58.8737 82.382 61.7009Z" fill="#4B2E1A"/>
<path d="M93.4121 62.7112C93.4121 62.7112 77.776 88.1631 52.1733 75.8518" stroke="#4B2E1A" stroke-width="3.01563" stroke-miterlimit="10" stroke-linecap="round" stroke-linejoin="round"/>
<path d="M96.186 45.0997C96.186 45.0997 92.8839 52.9253 83.3696 49.5327" stroke="#4B2E1A" stroke-width="3.01563" stroke-miterlimit="10" stroke-linecap="round" stroke-linejoin="round"/>
<path d="M56.644 58.3159C56.644 58.3159 52.7765 63.7818 46.8206 61.7914" stroke="#4B2E1A" stroke-width="3.01563" stroke-miterlimit="10" stroke-linecap="round" stroke-linejoin="round"/>
</svg>
