<svg width="207" height="200" viewBox="0 0 207 200" fill="none" xmlns="http://www.w3.org/2000/svg">
<ellipse opacity="0.4" cx="103.5" cy="183.5" rx="103.5" ry="12.5" fill="#725F42"/>
<path d="M146.524 135.637C146.321 133.197 146.118 130.826 145.915 128.387C144.562 127.777 144.021 126.218 144.156 124.795C141.856 122.085 141.586 117.884 141.45 114.496C141.045 105.62 137.256 97.1498 137.797 88.2056C137.865 86.8505 138.542 85.9696 139.421 85.4275C138 82.3784 136.647 79.3293 135.497 76.1446C135.159 75.2637 135.227 74.5184 135.497 73.773C133.468 70.2496 131.168 66.6584 129.409 62.9316C99.2367 65.1677 68.9971 64.1513 38.7574 64.0835C16.9741 97.5564 18.6653 133.672 18.6653 133.672C17.8535 174.937 48.6344 179.612 48.6344 179.612C62.2321 182.932 106.408 181.103 121.088 180.425C128.868 176.902 135.836 173.446 140.909 165.857C145.171 159.42 147.268 151.899 147.877 144.174C148.013 142.548 148.08 140.99 148.08 139.363C147.877 138.957 147.742 138.483 147.742 138.008C147.065 137.534 146.592 136.721 146.524 135.637Z" fill="#8CBD92"/>
<path d="M142.803 159.42C139.962 165.518 135.497 170.668 127.988 175.614C120.547 180.493 108.302 180.764 96.1924 180.29H70.6883C58.5112 180.764 46.2666 180.493 38.825 175.614C25.3626 166.738 21.7095 157.252 19.68 142.887C17.9211 130.487 20.9654 107.517 24.8214 96.0657C25.0244 95.3881 24.6861 94.6427 24.0773 94.4394C23.4008 94.2362 22.7243 94.575 22.5213 95.2526C18.5976 106.975 15.4857 130.555 17.3123 143.294C19.0712 155.558 21.9125 167.483 37.5397 177.783C45.5224 183.068 58.2407 183.339 70.7559 182.865H96.1924C98.6955 182.932 101.131 183 103.634 183C113.579 183 122.982 181.984 129.409 177.715C137.188 172.565 141.789 167.077 144.698 161.317C143.751 161.046 143.074 160.369 142.803 159.42Z" fill="#4B2E1A"/>
<path d="M108.098 101.485C107.422 101.35 106.948 100.74 107.084 99.9945L108.234 93.1509C108.369 92.4733 108.978 91.999 109.722 92.1345C110.399 92.27 110.872 92.8798 110.737 93.6252L109.587 100.469C109.451 101.146 108.775 101.621 108.098 101.485Z" fill="#FBC93F"/>
<path d="M112.225 109.684L101.875 107.922C101.401 107.854 101.063 107.516 100.86 107.109C100.725 106.703 100.792 106.228 101.063 105.822L107.422 98.3004C107.693 97.9617 108.166 97.8261 108.572 97.8939C109.046 97.9617 109.384 98.2327 109.587 98.6392L113.578 107.922C113.781 108.329 113.714 108.871 113.375 109.21C113.172 109.548 112.699 109.752 112.225 109.684ZM104.513 105.754L110.331 106.77L108.099 101.553L104.513 105.754Z" fill="#FBC93F"/>
<path d="M111.955 113.818L100.928 111.921C100.251 111.785 99.7775 111.176 99.9128 110.43C100.048 109.753 100.657 109.278 101.401 109.414L112.428 111.311C113.105 111.447 113.578 112.056 113.443 112.802C113.308 113.479 112.699 113.954 111.955 113.818Z" fill="#FBC93F"/>
<path d="M111.752 118.154L109.249 117.748C108.843 117.68 108.572 117.273 108.64 116.935C108.707 116.528 109.113 116.257 109.452 116.325L111.955 116.731C112.361 116.799 112.631 117.206 112.563 117.545C112.563 117.951 112.158 118.222 111.752 118.154Z" fill="#4B2E1A"/>
<path d="M104.987 117.002L102.619 116.595C102.213 116.528 101.943 116.121 102.01 115.782C102.078 115.376 102.484 115.105 102.822 115.172L105.19 115.579C105.596 115.647 105.866 116.053 105.799 116.392C105.731 116.799 105.393 117.07 104.987 117.002Z" fill="#4B2E1A"/>
<path d="M109.993 128.656L107.49 128.25C107.084 128.182 106.813 127.775 106.881 127.437C106.949 127.03 107.355 126.759 107.693 126.827L110.196 127.233C110.602 127.301 110.872 127.64 110.805 128.046C110.737 128.453 110.399 128.724 109.993 128.656Z" fill="#4B2E1A"/>
<path d="M108.775 128.386C108.369 128.319 108.098 127.912 108.166 127.573L109.925 117.206C109.993 116.8 110.399 116.529 110.737 116.596C111.143 116.664 111.413 117.003 111.346 117.409L109.587 127.776C109.519 128.183 109.113 128.454 108.775 128.386Z" fill="#4B2E1A"/>
<path d="M102.078 127.234C101.672 127.166 101.401 126.827 101.469 126.421L103.228 116.054C103.295 115.647 103.701 115.376 104.04 115.444C104.445 115.512 104.716 115.851 104.648 116.257L102.89 126.624C102.822 127.031 102.484 127.302 102.078 127.234Z" fill="#4B2E1A"/>
<path d="M97.6129 126.963C97.207 126.895 96.9364 126.489 97.004 126.15L98.8982 115.173C98.9659 114.766 99.3718 114.495 99.71 114.563C100.116 114.631 100.387 115.037 100.319 115.376L98.4247 126.353C98.357 126.76 98.0188 127.031 97.6129 126.963Z" fill="#4B2E1A"/>
<path d="M107.287 128.183L104.445 127.709C104.039 127.641 103.769 127.234 103.837 126.896L105.595 116.528C105.663 116.122 106.069 115.851 106.407 115.919C106.813 115.986 107.084 116.393 107.016 116.732L105.392 126.421L107.557 126.828C107.963 126.895 108.234 127.234 108.166 127.641C108.098 127.98 107.693 128.251 107.287 128.183Z" fill="#4B2E1A"/>
<path d="M98.8306 121.473C98.4247 121.405 98.1541 121.067 98.2218 120.66C98.2894 120.254 98.6953 119.982 99.0336 120.05C99.9807 120.186 100.928 119.44 101.063 118.356C101.266 117.272 100.657 116.188 99.7101 116.052C99.3042 115.985 99.0336 115.646 99.1012 115.239C99.1689 114.833 99.5748 114.562 99.913 114.63C101.672 114.901 102.754 116.73 102.484 118.627C102.213 120.457 100.522 121.812 98.8306 121.473Z" fill="#4B2E1A"/>
<path d="M97.8834 127.03C97.4775 126.962 97.2069 126.623 97.2745 126.217C97.3422 125.81 97.7481 125.539 98.0863 125.607C99.0334 125.742 99.9805 124.997 100.116 123.913C100.319 122.829 99.7099 121.745 98.7628 121.609C98.3569 121.541 98.0863 121.135 98.154 120.796C98.2216 120.389 98.6275 120.118 98.9658 120.186C100.725 120.457 101.807 122.287 101.536 124.184C101.266 126.081 99.5746 127.369 97.8834 127.03Z" fill="#4B2E1A"/>
<path d="M127.447 165.246C127.447 165.246 106.002 144.24 54.1816 167.956" stroke="#4B2E1A" stroke-width="3" stroke-miterlimit="10" stroke-linecap="round" stroke-linejoin="round"/>
<path d="M23.9419 95.1838C23.9419 95.1838 63.179 -18.6507 139.421 19.1586C139.421 19.1586 156.604 30.9487 151.124 58.4587C151.124 58.4587 154.913 100.266 115.743 92.067" fill="#8CBD92"/>
<path d="M23.9419 95.1838C23.9419 95.1838 63.179 -18.6507 139.421 19.1586C139.421 19.1586 156.604 30.9487 151.124 58.4587C151.124 58.4587 154.913 100.266 115.743 92.0671" stroke="#4B2E1A" stroke-width="3" stroke-miterlimit="10" stroke-linecap="round" stroke-linejoin="round"/>
<path d="M137.459 90.7793C137.459 97.4197 138.338 103.992 139.894 110.429C141.383 116.595 143.886 122.355 145.442 128.453C148.215 139.43 147.742 152.033 142.668 162.265" stroke="#4B2E1A" stroke-width="3.9453" stroke-miterlimit="10" stroke-linecap="round" stroke-linejoin="round"/>
<path d="M111.549 14.9574C111.549 14.9574 120.344 7.02966 114.526 2.96413C114.526 2.96413 103.769 -1.64346 92.3364 14.6186" fill="#F6FBF7"/>
<path d="M111.549 14.9574C111.549 14.9574 120.344 7.02966 114.526 2.96413C114.526 2.96413 103.769 -1.64346 92.3364 14.6186" stroke="#4B2E1A" stroke-width="3.9792" stroke-miterlimit="10" stroke-linecap="round" stroke-linejoin="round"/>
<path d="M148.351 30.4733C148.351 30.4733 161.002 25.1881 159.581 17.3959C159.581 17.3959 154.642 7.36759 138.609 19.7674" fill="#F6FBF7"/>
<path d="M148.351 30.4733C148.351 30.4733 161.002 25.1881 159.581 17.3959C159.581 17.3959 154.642 7.36759 138.609 19.7674" stroke="#4B2E1A" stroke-width="3.9792" stroke-miterlimit="10" stroke-linecap="round" stroke-linejoin="round"/>
<path d="M109.384 50.327C105.867 49.3106 101.469 46.126 102.619 42.2637C103.769 38.4692 109.993 35.6911 113.443 36.7075C116.826 37.7239 118.72 41.5861 117.638 45.3129C116.488 49.1073 112.835 51.3434 109.384 50.327ZM112.902 38.3337C110.331 37.5884 105.055 39.8922 104.243 42.738C103.499 45.3129 107.017 47.8199 109.858 48.633C112.361 49.3784 115.067 47.6844 115.946 44.8385C116.826 41.9927 115.405 39.0791 112.902 38.3337Z" fill="#A6D4AD"/>
<path d="M149.907 59.6775C148.486 59.9486 146.862 59.8808 145.645 59.542C143.142 58.7967 141.789 55.8831 142.601 53.0372C143.412 50.1913 146.186 48.4974 148.689 49.2427C149.433 49.446 150.177 49.988 150.854 50.5979C150.854 50.5301 150.922 50.3946 150.922 50.3268C150.922 50.1913 150.922 50.1236 150.922 49.9881C150.922 49.9203 150.922 49.8525 150.922 49.8525C150.854 49.3782 150.854 48.9717 150.922 48.4974C150.38 48.0908 149.771 47.8198 149.163 47.6165C145.78 46.6001 142.059 48.8361 140.977 52.5629C139.895 56.2896 141.721 60.1519 145.171 61.1682C146.592 61.5748 148.351 61.7103 149.974 61.4393C149.907 61.0327 149.907 60.5584 149.974 60.0841C149.974 59.9486 149.974 59.8131 149.907 59.6775Z" fill="#A6D4AD"/>
<path d="M101.198 48.7011C103.16 49.311 104.784 50.4629 105.866 52.0213C107.828 53.9186 108.708 56.6967 107.896 59.407C106.949 62.7272 103.769 64.76 100.387 64.6244C99.1688 64.8277 97.8835 64.76 96.5981 64.3534C92.0655 62.9982 89.4272 58.4584 90.7125 54.1218C91.9302 49.7853 96.6658 47.4137 101.198 48.7011Z" fill="#A6D4AD"/>
<path d="M129.138 51.3437C134.144 52.8344 138.474 55.1382 141.586 57.7808C146.93 61.2365 149.839 65.7763 148.689 69.7063C147.269 74.4494 140.233 76.6855 131.912 75.4658C128.935 75.3981 125.756 74.856 122.509 73.9074C111.008 70.5194 103.228 62.7272 105.055 56.4934C106.881 50.2596 117.705 47.9558 129.138 51.3437Z" fill="#F6FBF7"/>
<path d="M119.667 55.6135C118.923 58.1206 123.861 61.8474 130.762 63.8801C137.594 65.9129 143.818 65.5063 144.562 62.9315C145.306 60.4244 140.368 56.6977 133.468 54.6649C126.567 52.6999 120.411 53.1065 119.667 55.6135Z" fill="#4B2E1A"/>
<path d="M109.79 56.5605C109.79 56.5605 123.794 79.463 146.795 68.3506" stroke="#4B2E1A" stroke-width="4" stroke-miterlimit="10" stroke-linecap="round" stroke-linejoin="round"/>
<path d="M107.287 40.7051C107.287 40.7051 110.264 47.752 118.788 44.7028" stroke="#4B2E1A" stroke-width="4" stroke-miterlimit="10" stroke-linecap="round" stroke-linejoin="round"/>
<path d="M142.736 52.5645C142.736 52.5645 146.186 57.4431 151.53 55.6814" stroke="#4B2E1A" stroke-width="4" stroke-miterlimit="10" stroke-linecap="round" stroke-linejoin="round"/>
<mask id="mask0_701:22170" style="mask-type:alpha" maskUnits="userSpaceOnUse" x="73" y="33" width="187" height="175">
<path d="M151.649 70.1244C152.609 68.4724 151.502 56.8523 151.644 54.6008L161.136 33.5394L259.155 74.3055L214.674 191.751C197.669 195.663 152.558 213.296 117.651 205.93C74.0171 196.723 72.8623 172.674 73.3133 159.853C73.7644 147.033 102.338 107.136 116.419 93.0434C124.187 94.2526 128.882 93.9628 136.562 92.1347C143.666 90.4435 151.467 78.6788 151.649 70.1244Z" fill="#C4C4C4"/>
</mask>
<g mask="url(#mask0_701:22170)">
<path d="M148.17 77.3228L198.666 102.597C203.736 105.134 205.794 111.304 203.264 116.379L168.609 185.883C166.078 190.957 159.918 193.014 154.848 190.477L104.351 165.203C99.2821 162.666 97.2237 156.495 99.7539 151.42L134.409 81.917C136.939 76.8424 143.1 74.7855 148.17 77.3228Z" fill="#FFB8B8" stroke="#4A2E19" stroke-width="3" stroke-linejoin="round"/>
<path d="M169.879 52.9969C170.249 52.2554 171.149 51.9549 171.89 52.3256L204.388 68.5893C205.129 68.96 205.43 69.8616 205.06 70.603L203.538 73.6545C203.168 74.396 202.268 74.6966 201.527 74.3259L169.029 58.0622C168.289 57.6915 167.988 56.7899 168.358 56.0484L169.879 52.9969Z" fill="#FFC0C0" stroke="#4A2E19" stroke-width="3" stroke-linejoin="round"/>
<path d="M170.55 58.8313C169.81 58.4606 168.909 58.7611 168.54 59.5026L158.036 80.5671C157.666 81.3086 157.967 82.2101 158.708 82.5809L165.021 85.7405C165.762 86.1112 166.662 85.8107 167.032 85.0692L177.536 64.0047C177.905 63.2633 177.604 62.3617 176.864 61.9909L170.55 58.8313Z" fill="#E0E0E2" stroke="#4A2E19" stroke-width="3" stroke-linejoin="round"/>
<path d="M193.688 70.4075C192.947 70.0368 192.047 70.3373 191.677 71.0788L181.174 92.1433C180.804 92.8847 181.105 93.7863 181.845 94.157L188.159 97.3167C188.899 97.6874 189.8 97.3868 190.169 96.6454L200.673 75.5809C201.043 74.8394 200.742 73.9378 200.001 73.5671L193.688 70.4075Z" fill="#E0E0E2" stroke="#4A2E19" stroke-width="3" stroke-linejoin="round"/>
<path d="M166.952 137.044C166.935 137.049 166.919 137.054 166.903 137.06L161.83 138.753L161.83 138.753L146.585 143.844L141.489 128.572L141.489 128.572L139.796 123.497C139.2 121.665 139.351 119.673 140.216 117.954C141.081 116.233 142.591 114.925 144.417 114.316C146.242 113.706 148.235 113.845 149.96 114.701C151.683 115.556 153 117.058 153.623 118.88L155.316 123.956C155.442 124.334 155.712 124.646 156.068 124.824C156.424 125.002 156.836 125.031 157.213 124.905L162.285 123.212L162.303 123.205C163.215 122.888 164.18 122.755 165.143 122.814C166.107 122.874 167.049 123.124 167.915 123.551C168.781 123.977 169.554 124.572 170.19 125.3C170.825 126.028 171.309 126.875 171.615 127.792C171.921 128.709 172.042 129.677 171.971 130.641C171.9 131.605 171.639 132.545 171.202 133.406C170.765 134.268 170.162 135.034 169.428 135.66C168.701 136.279 167.86 136.75 166.952 137.044Z" fill="#FF008A" stroke="#4A2E19" stroke-width="3" stroke-linejoin="round"/>
<path d="M104.347 165.222C103.606 164.851 102.706 165.152 102.336 165.893L101.286 168C99.7562 171.067 101 174.797 104.065 176.331C107.129 177.865 110.854 176.621 112.383 173.554L113.434 171.447C113.803 170.706 113.502 169.804 112.762 169.434L104.347 165.222Z" fill="#E0E0E2" stroke="#4A2E19" stroke-width="3" stroke-linejoin="round"/>
<path d="M146.414 186.271C145.673 185.9 144.773 186.201 144.403 186.942L143.353 189.048C141.823 192.116 143.067 195.846 146.132 197.38C149.196 198.913 152.921 197.67 154.45 194.603L155.5 192.496C155.87 191.755 155.569 190.853 154.829 190.482L146.414 186.271Z" fill="#E0E0E2" stroke="#4A2E19" stroke-width="3" stroke-linejoin="round"/>
<path d="M141.505 85.4566C142.667 86.0381 144.079 85.5667 144.659 84.4035C145.239 83.2404 144.767 81.826 143.605 81.2444C142.443 80.6629 141.031 81.1343 140.451 82.2975C139.871 83.4606 140.343 84.875 141.505 85.4566Z" fill="#4A2E19"/>
<path d="M196.191 112.82C197.353 113.401 198.765 112.93 199.345 111.767C199.925 110.604 199.453 109.189 198.291 108.608C197.129 108.026 195.717 108.498 195.137 109.661C194.557 110.824 195.029 112.238 196.191 112.82Z" fill="#4A2E19"/>
<path d="M104.729 159.191C105.891 159.773 107.303 159.301 107.883 158.138C108.463 156.975 107.991 155.56 106.829 154.979C105.667 154.397 104.255 154.869 103.675 156.032C103.095 157.195 103.567 158.609 104.729 159.191Z" fill="#4A2E19"/>
<path d="M159.415 186.554C160.577 187.136 161.989 186.664 162.569 185.501C163.149 184.338 162.677 182.924 161.515 182.342C160.353 181.761 158.941 182.232 158.361 183.395C157.781 184.558 158.253 185.973 159.415 186.554Z" fill="#4A2E19"/>
</g>
<path d="M101.426 118.329C88.8608 113.011 68.2544 101.256 58.6394 79.0183L51.5311 94.7085C51.5311 94.7085 62.2941 126.504 90.3797 143.862C91.6256 133.916 94.3629 123.568 101.426 118.329Z" fill="#8CBD92"/>
<path d="M111.802 121.992C111.802 121.992 107.596 120.959 101.412 118.324C94.4145 123.58 91.6115 133.911 90.2999 143.841C94.8931 146.713 100.009 149.155 105.549 151.003C105.549 151.003 118.227 155.86 123.407 141.788C123.407 141.788 129.109 127.288 111.802 121.992Z" fill="#F6FBF7"/>
<path d="M51.464 94.6915C51.464 94.6915 66.0746 137.82 105.558 151.002C105.558 151.002 118.235 155.858 123.415 141.788C123.415 141.788 129.133 127.223 111.811 121.993C111.811 121.993 73.0174 112.258 58.6376 79.0188" stroke="#4B2E1A" stroke-width="3.6639" stroke-miterlimit="10" stroke-linecap="round" stroke-linejoin="round"/>
<path d="M27.0938 27.6557C25.7795 27.6557 24.6015 28.2361 23.7997 29.1537C22.6506 26.2283 19.8032 24.1562 16.4701 24.1562C12.1214 24.1562 8.59602 27.6815 8.59602 32.0304H31.4683C31.4683 29.6143 29.5097 27.6557 27.0938 27.6557Z" fill="#D3E1F5"/>
<path d="M27.095 27.6562C26.2768 27.6562 25.5127 27.8801 24.8582 28.2722C25.4386 28.9421 25.908 29.7093 26.2367 30.5491C27.0394 29.6321 28.2172 29.0517 29.5308 29.0517C29.818 29.0517 30.0989 29.0795 30.3706 29.1336C29.571 28.2274 28.3994 27.6562 27.095 27.6562Z" fill="#C0D6F2"/>
<path d="M8.59446 32.0304H11.1553C11.8145 28.3471 15.0331 25.5516 18.9061 25.5516C19.8262 25.5516 20.709 25.7091 21.5303 26.0009C20.1626 24.8494 18.3966 24.1563 16.4686 24.1563C12.1202 24.1561 8.59446 27.6818 8.59446 32.0304Z" fill="#C0D6F2"/>
<path d="M33.9045 33.1893H6.15765C5.51828 33.1893 4.99996 32.671 4.99996 32.0316C4.99996 31.3921 5.51828 30.874 6.15765 30.874H7.51205C7.69471 29.4442 8.21427 28.0838 9.04386 26.8881C9.40824 26.3628 10.1294 26.2325 10.6552 26.5969C11.1804 26.9614 11.3109 27.683 10.9462 28.2081C10.3874 29.0134 10.0172 29.9194 9.85168 30.874H30.094C29.6282 29.6706 28.4585 28.8149 27.0926 28.8149C26.1653 28.8149 25.2823 29.2166 24.6703 29.917C24.4042 30.2213 23.9985 30.3647 23.6004 30.2959C23.2021 30.2267 22.8687 29.9548 22.7208 29.5785C21.7036 26.9886 19.2496 25.3154 16.4688 25.3154C15.8724 25.3154 15.2812 25.3935 14.7117 25.5475C14.0944 25.7144 13.4588 25.349 13.292 24.7319C13.1251 24.1148 13.4903 23.4789 14.1076 23.3122C14.8739 23.1051 15.6684 23 16.469 23C19.6782 23 22.5639 24.6573 24.1822 27.3283C25.0481 26.7921 26.054 26.4996 27.0926 26.4996C29.746 26.4996 31.9683 28.3778 32.5021 30.8743H33.9043C34.5437 30.8743 35.062 31.3926 35.062 32.032C35.0623 32.671 34.5438 33.1893 33.9045 33.1893Z" fill="#432513"/>
</svg>
