<svg width="220" height="290" viewBox="0 0 220 290" fill="none" xmlns="http://www.w3.org/2000/svg">
<g clip-path="url(#clip0_1131_42778)">
<path d="M43.2758 73.9534C41.9748 80.3445 51.1049 85.9975 64.7011 88.5844C78.3049 91.1636 91.8555 87.2909 93.1489 80.8923C94.4424 74.5012 83.8362 69.6318 70.24 67.045C56.6438 64.4657 44.5769 67.5547 43.2758 73.9534Z" fill="#8CBD92"/>
<path d="M100.894 30.4487C94.4269 29.8628 87.9598 30.4487 81.835 32.8377C77.8102 28.965 72.9636 19.2948 66.1921 24.4C63.1792 26.6749 62.3651 30.228 62.426 33.8496C62.4868 37.4256 62.6162 41.2526 63.9933 44.5851C57.4653 51.0142 52.497 59.0031 49.5373 67.7375C43.6408 73.0025 42.4007 80.3675 40.9398 87.8618C37.9802 99.708 33.514 110.953 27.6099 121.651C24.3839 127.494 21.2264 133.208 18.67 139.378C10.9171 158.087 9.53232 176.18 6.54982 196.076C4.55643 209.383 5.24879 221.359 7.3335 237.428C9.21277 251.93 10.5138 260.367 22.4971 268.995C28.4925 273.309 33.1564 280.705 40.4909 282.112C47.3385 283.428 48.3504 287.111 55.3121 287.21C63.902 287.331 72.4843 286.997 81.0666 286.943C90.1586 286.89 99.2735 287.194 108.343 286.487C126.192 286.586 144.445 287.948 162.043 284.128C170.656 282.264 179.207 278.886 185.675 272.761C190.171 268.501 193.778 263.258 196.684 257.72C206.986 253.428 217.28 244.717 218.794 233.144C219.814 225.338 213.613 217.676 205.137 216.063C205.03 209.185 206.362 199.645 205.472 192.926C204.186 183.111 202.55 172.969 199.423 163.55C196.737 155.462 193.253 147.595 189.266 140.055C189.182 139.896 189.076 139.812 188.969 139.698C184.678 130.142 180.014 120.89 175.327 111.501C169.75 100.362 165.611 88.615 160.422 77.3013C155.119 65.7213 148.112 51.6457 137.369 43.3145C137.856 41.4733 138.16 39.6016 138.358 37.9658C138.86 33.842 138.579 29.1781 135.102 26.3782C129.167 21.6229 122.259 28.5085 117.998 34.2605C113.174 32.6399 108.168 31.3465 103.116 30.6998" fill="#8CBD92"/>
<path d="M63.3695 63.5754C62.4793 67.1514 59.7707 70.0274 57.3208 70.0045C54.8709 69.9817 53.6079 67.0677 54.4981 63.4917C55.3883 59.9158 58.0969 57.0398 60.5544 57.0626C62.9967 57.0931 64.2597 60.0071 63.3695 63.5754Z" fill="#4B2E1A"/>
<path d="M56.4381 73.2379C60.151 73.0781 63.9171 69.1217 65.1877 64.0317C65.979 60.8666 65.591 57.8613 64.1378 55.9972C63.1867 54.7722 61.8324 54.0875 60.3107 54.0723C60.2194 54.0723 60.1281 54.0723 60.0368 54.0799C56.3163 54.2397 52.5578 58.196 51.2872 63.2861C50.4959 66.4511 50.8915 69.4565 52.3371 71.3205C53.2882 72.5455 54.6501 73.2302 56.1642 73.2455C56.2555 73.2455 56.3468 73.2455 56.4381 73.2379ZM60.2803 56.7504C60.9879 56.758 61.5737 57.0548 62.0226 57.633C62.9585 58.8427 63.1791 61.0492 62.5933 63.385C61.5509 67.5696 58.5075 70.4684 56.3239 70.5673H56.1794C55.4794 70.5597 54.8936 70.263 54.4447 69.6847C53.5088 68.475 53.2882 66.2685 53.874 63.9328C54.9164 59.7481 57.9521 56.8493 60.1433 56.758L60.2803 56.7504Z" fill="#A6D4AD"/>
<path d="M59.9987 59.5667C59.8542 60.6091 59.3444 61.5449 58.789 61.6818C58.2336 61.8112 57.739 61.0199 57.8455 59.9852C57.9597 58.9504 58.6064 58.0146 59.1618 57.8776C59.7248 57.7483 60.1585 58.395 59.9987 59.5667Z" fill="white"/>
<path d="M79.7808 33.2408C76.2733 30.6387 73.2375 22.064 67.4551 23.6846C62.1673 25.0541 63.2401 33.2484 63.6433 37.1211C63.7194 38.9547 63.7955 40.7807 64.8455 42.5687" fill="#F6FBF7"/>
<path d="M78.2824 34.8703C75.4673 32.5725 72.4011 24.9109 68.148 25.7935C63.7199 26.7065 65.4013 38.6288 66.7176 41.3679C67.9502 43.9167 64.222 46.3362 62.9819 43.7645C61.2547 40.1962 61.133 35.9583 61.0569 32.04C60.9961 28.3499 61.8178 24.7283 64.8535 22.4153C72.0587 16.9373 77.1031 28.1825 81.2801 31.5987C83.5094 33.4171 80.4888 36.6811 78.2824 34.8703Z" fill="#4B2E1A"/>
<path d="M125.918 35.8816C143.144 41.3672 152.974 60.9969 159.928 76.2974C165.162 87.809 169.347 99.7694 174.97 111.106C180.204 121.674 185.431 132.044 190.118 142.886C191.259 145.519 187.014 146.85 185.895 144.248C181.361 133.771 176.392 123.69 171.234 113.518C166.136 103.467 162.218 92.8533 157.813 82.4907C154.161 73.878 149.923 65.5011 144.726 57.7101C139.88 50.4593 133.504 42.9498 124.922 40.2107C122.221 39.3434 123.187 35.0066 125.918 35.8816Z" fill="#4B2E1A"/>
<path d="M189.038 140.177C193.063 147.854 196.578 155.858 199.286 164.09C202.451 173.669 204.095 184.001 205.396 193.983C206.75 204.346 207.656 215.18 206.75 225.611C205.936 235.023 203.395 244.184 199.819 252.895C196.494 261.029 191.853 269.124 185.454 275.234C178.926 281.465 170.306 284.896 161.625 286.791C143.867 290.663 125.454 289.279 107.453 289.165C104.6 289.142 104.394 284.706 107.263 284.721C123.697 284.82 140.009 285.642 156.352 283.26C165.345 281.952 174.331 278.893 181.346 272.974C188.094 267.26 192.492 258.822 195.893 250.818C203.479 232.984 203.334 214.359 201.112 195.437C198.936 176.819 193.991 159.198 185.294 142.573C183.986 140.055 187.714 137.635 189.038 140.177Z" fill="#4B2E1A"/>
<path d="M206.4 214.724C215.431 215.911 219.913 226.768 218.855 234.924C217.326 246.74 206.879 255.634 196.456 259.979C193.801 261.09 192.477 256.844 195.094 255.749C203.128 252.401 211.307 245.812 213.925 237.184C215.918 230.626 213.255 220.08 205.403 219.046C202.565 218.673 203.585 214.351 206.4 214.724Z" fill="#4B2E1A"/>
<path d="M124.382 40.004C111.021 34.2748 95.5229 29.8696 81.3864 35.4541C67.4098 40.9778 56.6972 54.1252 52.1625 68.1931C51.2952 70.8941 46.9584 69.9278 47.8334 67.1964C52.9006 51.4851 64.2447 38.0638 79.4615 31.4521C94.6403 24.8632 112.071 29.9152 126.459 36.078C129.091 37.2117 126.999 41.1224 124.382 40.004Z" fill="#4B2E1A"/>
<path d="M27.0394 152.281C23.6308 151.665 20.2146 151.171 16.7832 150.676C13.9529 150.273 14.9724 145.944 17.7875 146.347C21.2113 146.841 24.6351 147.336 28.0361 147.96C30.8588 148.47 29.8469 152.791 27.0394 152.281Z" fill="#FBC93F"/>
<path d="M26.4385 157.348C25.1603 156.998 23.8364 156.899 22.5202 156.769C21.9191 156.709 21.5691 155.971 21.6909 155.438C21.843 154.791 22.4213 154.548 23.0223 154.609C24.3386 154.738 25.6624 154.844 26.9407 155.187C28.3178 155.552 27.8232 157.728 26.4385 157.348Z" fill="#4B2E1A"/>
<path d="M131.229 47.3242C134.364 44.9047 137.704 31.453 133.976 27.1315C128.391 20.6415 119.337 32.4954 116.218 37.7908" fill="#F6FBF7"/>
<path d="M129.593 45.8176C133.192 42.6221 134.865 32.9518 132.476 28.8128C129.015 22.8326 119.702 36.3071 118.18 38.8331C116.712 41.2754 112.778 39.2135 114.254 36.756C117.511 31.354 126.74 18.298 134.363 24.4684C137.878 27.3139 138.16 32.0616 137.658 36.2614C137.171 40.3395 136.121 45.9393 132.864 48.8229C130.742 50.7022 127.447 47.7121 129.593 45.8176Z" fill="#4B2E1A"/>
<path d="M51.2036 69.5643C45.7027 74.038 44.9951 81.4867 43.7397 87.9919C43.1995 90.7994 38.8703 89.8027 39.4105 86.9952C40.9474 79.0444 42.18 71.2153 48.8069 65.8286C51.021 64.0178 53.3948 67.7763 51.2036 69.5643Z" fill="#4B2E1A"/>
<path d="M43.7398 87.9909C40.9399 99.3275 36.8314 110.207 31.4446 120.563C28.1958 126.809 24.0492 132.569 21.8276 139.272C15.1702 159.343 11.4878 166.89 7.57703 200.154C7.24226 203 3.18698 203.38 3.53696 200.542C7.96506 164.417 12.4464 159.434 16.9734 139.416C18.4723 132.797 22.733 127.326 25.9818 121.377C31.9392 110.497 36.4434 99.046 39.4182 86.9942C40.0954 84.2172 44.4246 85.2063 43.7398 87.9909Z" fill="#4B2E1A"/>
<path d="M112.474 66.9237C112.649 71.0246 109.758 74.4788 106.022 74.631C102.287 74.7908 99.114 71.5952 98.9466 67.4943C98.7716 63.3934 101.663 59.9468 105.399 59.787C109.134 59.6272 112.299 62.8227 112.474 66.9237Z" fill="#4B2E1A"/>
<path d="M106.867 77.424C113.402 77.1501 120.303 74.7686 120.06 68.9102C119.809 63.006 111.63 55.2074 105.946 55.4509C100.361 55.6867 96.0171 60.8072 96.2758 66.8635C96.5268 72.9198 101.274 77.6598 106.867 77.424ZM106.053 58.1214C110.313 57.9388 117.199 64.5658 117.389 69.0243C117.602 74.1523 107.863 74.7078 106.753 74.7534C102.636 74.9284 99.1365 71.3372 98.9463 66.7494C98.7485 62.1691 101.936 58.2964 106.053 58.1214Z" fill="#A6D4AD"/>
<path d="M101.465 63.3944C101.389 64.8476 101.998 66.0953 102.933 66.2019C103.869 66.3084 105.003 65.1062 105.125 63.6606C105.246 62.2151 104.394 60.9825 103.466 60.876C102.53 60.7771 101.556 61.7585 101.465 63.3944Z" fill="white"/>
<path d="M118.553 72.0127C115.32 72.1496 112.398 73.3594 110.154 75.2767C106.471 77.3842 104.067 81.333 104.257 85.7535C104.485 91.1478 108.48 95.515 113.692 96.5878C115.502 97.3411 117.519 97.7215 119.626 97.6302C127.044 97.3182 132.827 91.3304 132.53 84.2546C132.233 77.1864 125.972 71.7007 118.553 72.0127Z" fill="#A6D4AD"/>
<path d="M43.8389 82.5503C44.0824 91.6272 53.3266 98.4823 74.7138 99.1899C91.6806 99.7529 106.593 94.0847 106.35 85.0078C106.099 75.931 92.1523 70.4301 75.2921 68.4824C58.4242 66.527 43.603 73.4659 43.8389 82.5503Z" fill="#F6FBF7"/>
<path d="M50.8462 77.5373C49.5832 81.9425 57.6406 84.1642 66.2837 84.499C74.9345 84.8337 83.707 80.4361 82.094 76.221C80.8995 73.1092 74.8508 71.7016 66.1848 71.9375C57.2906 72.1809 51.7212 74.4635 50.8462 77.5373Z" fill="#4B2E1A"/>
<path d="M59.8087 97.8055C59.8087 102.454 62.3956 106.22 65.5911 106.22C68.7867 106.22 71.3735 102.454 71.3735 97.8055C71.3735 93.1568 68.7867 89.3906 65.5911 89.3906C62.3956 89.3906 59.8087 93.1644 59.8087 97.8055Z" fill="#F6FBF7" stroke="#4B2E1A" stroke-width="3.42378" stroke-miterlimit="10" stroke-linecap="round" stroke-linejoin="round"/>
<path d="M53.9355 135.332C52.8856 135.332 52.041 134.488 52.041 133.438V123.105C52.041 122.063 52.8856 121.211 53.9355 121.211C54.9779 121.211 55.83 122.055 55.83 123.105V133.445C55.83 134.488 54.9855 135.332 53.9355 135.332Z" fill="#FBC93F"/>
<path d="M62.0233 146.266H46.4489C45.7717 146.266 45.1403 145.901 44.8055 145.315C44.4707 144.721 44.4783 143.999 44.8207 143.413L52.2769 130.821C52.6117 130.258 53.2128 129.908 53.8671 129.893C54.5595 129.9 55.1377 130.212 55.4953 130.76L63.6135 143.352C63.9863 143.93 64.0167 144.676 63.6819 145.284C63.3548 145.885 62.7157 146.266 62.0233 146.266ZM49.7738 142.484H58.5539L53.9736 135.386L49.7738 142.484Z" fill="#FBC93F"/>
<path d="M62.6927 152.391H46.1215C45.0716 152.391 44.2271 151.546 44.2271 150.496C44.2271 149.454 45.0716 148.602 46.1215 148.602H62.6927C63.735 148.602 64.5872 149.446 64.5872 150.496C64.5796 151.546 63.735 152.391 62.6927 152.391Z" fill="#FBC93F"/>
<path d="M63.4612 158.804H59.7027C59.1092 158.804 58.6299 158.324 58.6299 157.731C58.6299 157.138 59.1092 156.658 59.7027 156.658H63.4612C64.0547 156.658 64.534 157.138 64.534 157.731C64.534 158.324 64.0547 158.804 63.4612 158.804Z" fill="#4B2E1A"/>
<path d="M53.2433 158.804H49.6597C49.0662 158.804 48.5869 158.324 48.5869 157.731C48.5869 157.138 49.0662 156.658 49.6597 156.658H53.2433C53.8367 156.658 54.316 157.138 54.316 157.731C54.316 158.324 53.8367 158.804 53.2433 158.804Z" fill="#4B2E1A"/>
<path d="M63.4612 174.546H59.7027C59.1092 174.546 58.6299 174.067 58.6299 173.473C58.6299 172.88 59.1092 172.4 59.7027 172.4H63.4612C64.0547 172.4 64.534 172.88 64.534 173.473C64.534 174.067 64.0547 174.546 63.4612 174.546Z" fill="#4B2E1A"/>
<path d="M61.5821 174.439C60.9886 174.439 60.5093 173.959 60.5093 173.366V157.792C60.5093 157.198 60.9886 156.719 61.5821 156.719C62.1755 156.719 62.6548 157.198 62.6548 157.792V173.366C62.6548 173.959 62.1755 174.439 61.5821 174.439Z" fill="#4B2E1A"/>
<path d="M51.5313 174.439C50.9378 174.439 50.4585 173.959 50.4585 173.366V157.792C50.4585 157.198 50.9378 156.719 51.5313 156.719C52.1247 156.719 52.6041 157.198 52.6041 157.792V173.366C52.6041 173.959 52.1247 174.439 51.5313 174.439Z" fill="#4B2E1A"/>
<path d="M44.9043 175.153C44.3109 175.153 43.8315 174.674 43.8315 174.081V157.624C43.8315 157.03 44.3109 156.551 44.9043 156.551C45.4978 156.551 45.9771 157.03 45.9771 157.624V174.081C45.9771 174.674 45.4978 175.153 44.9043 175.153Z" fill="#4B2E1A"/>
<path d="M59.429 174.547H55.0694C54.4759 174.547 53.9966 174.067 53.9966 173.474V157.846C53.9966 157.253 54.4759 156.773 55.0694 156.773C55.6628 156.773 56.1421 157.253 56.1421 157.846V172.401H59.429C60.0224 172.401 60.5018 172.88 60.5018 173.474C60.5018 174.067 60.0224 174.547 59.429 174.547Z" fill="#4B2E1A"/>
<path d="M45.3457 166.891C44.7523 166.891 44.2729 166.411 44.2729 165.818C44.2729 165.224 44.7523 164.745 45.3457 164.745C46.7609 164.745 47.9174 163.391 47.9174 161.725C47.9174 160.058 46.7609 158.696 45.3457 158.696C44.7523 158.696 44.2729 158.217 44.2729 157.624C44.2729 157.03 44.7523 156.551 45.3457 156.551C47.9478 156.551 50.0629 158.871 50.0629 161.717C50.0629 164.562 47.9478 166.891 45.3457 166.891Z" fill="#4B2E1A"/>
<path d="M45.3457 175.27C44.7523 175.27 44.2729 174.79 44.2729 174.197C44.2729 173.603 44.7523 173.124 45.3457 173.124C46.7609 173.124 47.9174 171.77 47.9174 170.104C47.9174 168.437 46.7609 167.083 45.3457 167.083C44.7523 167.083 44.2729 166.604 44.2729 166.01C44.2729 165.417 44.7523 164.938 45.3457 164.938C47.9478 164.938 50.0629 167.258 50.0629 170.104C50.0629 172.949 47.9478 175.27 45.3457 175.27Z" fill="#4B2E1A"/>
<path d="M30.5393 116.994L23.0222 129.092C23.0222 129.092 26.3547 145.937 47.042 153.18C39.7912 158.741 35.5153 167.255 33.7273 176.545C32.9056 175.952 32.0839 175.343 31.2469 174.719C31.2469 174.719 -12.7373 135.125 30.5393 116.994Z" fill="#8CBD92"/>
<path d="M47.0422 153.18C54.468 155.782 64.1383 157.144 76.6922 156.048C76.6922 156.048 110.177 151.848 104.257 180.281C104.257 180.281 90.7449 217.882 33.7199 176.545C35.5155 167.255 39.7914 158.749 47.0422 153.18Z" fill="#F6FBF7"/>
<path d="M23.0224 129.221C23.0224 129.221 29.17 160.339 76.6922 156.185C76.6922 156.185 110.177 151.985 104.257 180.418C104.257 180.418 90.3569 219.114 31.2395 174.856C31.2395 174.856 -12.7371 135.262 30.5319 117.131" stroke="#4B2E1A" stroke-width="4.56505" stroke-miterlimit="10" stroke-linecap="round" stroke-linejoin="round"/>
<path d="M105.573 129.314C117.184 130.729 138.404 129.481 162.751 109.859L171.31 127.146C171.31 127.146 149.291 152.687 116.111 162.761C117.1 150.648 113.539 137.904 105.573 129.314Z" fill="#8CBD92"/>
<path d="M52.0789 135.325C52.0789 135.325 56.4081 111.518 96.1544 127.146C96.1544 127.146 99.5934 128.584 105.574 129.314C113.547 137.904 117.1 150.648 116.111 162.768C107.887 165.264 98.9847 166.816 89.5503 166.793C89.5427 166.785 43.8085 167.691 52.0789 135.325Z" fill="#F6FBF7"/>
<path d="M171.31 127.145C171.31 127.145 137.034 166.915 89.5501 166.785C89.5501 166.785 43.8159 167.691 52.0863 135.317C52.0863 135.317 56.4155 111.51 96.1618 127.138C96.1618 127.138 125.865 139.578 162.758 109.852" stroke="#4B2E1A" stroke-width="4.56505" stroke-miterlimit="10" stroke-linecap="round" stroke-linejoin="round"/>
<path d="M96.2607 106.221C96.2607 106.221 84.2775 117.321 87.7013 136.304" stroke="#4B2E1A" stroke-width="3.04336" stroke-miterlimit="10" stroke-linecap="round" stroke-linejoin="round"/>
<path d="M83.6763 111.547C83.6763 111.547 75.6798 126.003 79.7884 141.6" stroke="#4B2E1A" stroke-width="3.04336" stroke-miterlimit="10" stroke-linecap="round" stroke-linejoin="round"/>
<path d="M13.0168 35.2341C10.7724 28.4855 14.4016 21.1966 21.1198 18.9597C27.8456 16.7229 35.1116 20.3825 37.3561 27.1312C38.8702 31.6734 37.7137 36.4515 34.7464 39.7764L37.4855 47.9934L25.4185 52.0107L22.6795 43.7936C18.3199 42.9034 14.5233 39.7764 13.0168 35.2341Z" fill="#FFE500" stroke="#4B2E1A" stroke-width="3.04336" stroke-miterlimit="10" stroke-linecap="round" stroke-linejoin="round"/>
<path d="M30.5391 45.6268C29.6565 42.9867 29.4967 40.552 29.9532 37.7825C30.3413 35.4391 32.1673 31.3306 30.5467 29.147C29.5956 27.8688 27.3968 27.747 26.499 29.0785C26.149 29.5959 25.1067 32.8599 26.5447 32.0838C26.3544 31.3458 26.0729 29.7861 25.3501 29.3296C24.3002 28.6676 22.8394 29.5883 22.4513 30.4708C22.1774 31.0871 22.0253 33.2707 23.2807 33.0805C24.5893 32.8827 22.5198 30.6611 21.7666 30.5393C21.021 30.4176 19.621 30.6534 19.3395 31.6045C18.8982 33.1034 20.8383 34.8381 21.7514 35.5913C24.3078 37.6988 27.8457 41.8378 27.8077 45.4594" stroke="#F5A400" stroke-width="2.28252" stroke-miterlimit="10" stroke-linecap="round" stroke-linejoin="round"/>
<path d="M22.535 50.7553C23.06 52.3379 27.1837 52.3835 31.7336 50.8694C36.291 49.3554 39.555 46.8446 39.03 45.262C38.5051 43.6795 34.3889 43.6338 29.8315 45.1479C25.2816 46.6696 22.01 49.1804 22.535 50.7553Z" fill="#898989" stroke="#4B2E1A" stroke-width="2.89713" stroke-miterlimit="10" stroke-linecap="round" stroke-linejoin="round"/>
<path d="M23.9198 54.9166C24.4447 56.4991 28.5609 56.5448 33.1183 55.0307C37.6758 53.5167 40.9398 51.0059 40.4148 49.4233C39.8898 47.8484 35.7737 47.7951 31.2162 49.3092C26.6664 50.8233 23.3948 53.334 23.9198 54.9166Z" fill="#898989" stroke="#4B2E1A" stroke-width="2.89713" stroke-miterlimit="10" stroke-linecap="round" stroke-linejoin="round"/>
<path d="M25.2894 59.026C25.8144 60.6085 29.9381 60.6542 34.488 59.1401C39.0454 57.626 42.3094 55.1152 41.7844 53.5327C41.2595 51.9578 37.1433 51.9045 32.5859 53.4186C28.036 54.9403 24.7644 57.451 25.2894 59.026Z" fill="#898989" stroke="#4B2E1A" stroke-width="2.89713" stroke-miterlimit="10" stroke-linecap="round" stroke-linejoin="round"/>
<path d="M31.8253 63.3534C32.0916 64.1523 33.2252 64.4947 34.3513 64.1143L37.5925 63.0339C38.7261 62.661 39.4261 61.7024 39.1598 60.9111L38.4674 58.8264C38.2011 58.0275 37.0675 57.6851 35.9414 58.0656L32.7003 59.146C31.5666 59.5264 30.8666 60.4774 31.1329 61.2687L31.8253 63.3534Z" fill="#5E5D5C" stroke="#4B2E1A" stroke-width="2.55726" stroke-miterlimit="10" stroke-linecap="round" stroke-linejoin="round"/>
<path d="M19.0049 10.5755L16.1593 2.03125" stroke="#F5A400" stroke-width="3.04336" stroke-miterlimit="10" stroke-linecap="round" stroke-linejoin="round"/>
<path d="M10.0957 16.7534L1.52101 11.0547" stroke="#F5A400" stroke-width="3.04336" stroke-miterlimit="10" stroke-linecap="round" stroke-linejoin="round"/>
<path d="M31.9699 10.9635L34.1611 1.52148" stroke="#F5A400" stroke-width="3.04336" stroke-miterlimit="10" stroke-linecap="round" stroke-linejoin="round"/>
<path d="M134.919 288.816C150.037 288.816 164.409 287.294 174.148 281.032C197.97 265.724 202.314 248.103 204.962 229.888C207.709 210.959 202.938 176.067 196.996 158.674C196.661 157.685 195.581 157.152 194.592 157.494C193.603 157.829 193.078 158.91 193.413 159.899C199.218 176.888 203.889 210.921 201.219 229.341C198.122 250.652 192.568 264.697 172.109 277.852C160.833 285.103 142.17 285.483 123.689 284.806H84.871C66.3217 285.483 47.6582 285.103 36.3826 277.852C15.9236 264.705 10.3694 250.659 7.27278 229.341C4.59462 210.921 9.26619 176.888 15.079 159.899C15.4138 158.91 14.8888 157.837 13.8997 157.494C12.9106 157.152 11.8378 157.685 11.4955 158.674C5.5533 176.059 0.782822 210.951 3.52945 229.888C6.17719 248.103 10.5216 265.724 34.3359 281.032C46.4865 288.846 65.8347 289.28 84.9394 288.587H123.613C127.394 288.724 131.183 288.816 134.919 288.816Z" fill="#4B2E1A"/>
</g>
<defs>
<clipPath id="clip0_1131_42778">
<rect width="219.008" height="289.5" fill="white" transform="matrix(-1 0 0 1 219.008 0)"/>
</clipPath>
</defs>
</svg>
