<svg width="42" height="41" viewBox="0 0 42 41" fill="none" xmlns="http://www.w3.org/2000/svg">
<mask id="mask0_980_47322" style="mask-type:alpha" maskUnits="userSpaceOnUse" x="0" y="0" width="42" height="41">
<path d="M0.479055 20.5C0.479055 16.2811 0.705202 12.8955 1.30658 10.1895C1.90778 7.48433 2.88311 5.46256 4.37865 3.96703C5.87418 2.47149 7.89595 1.49616 10.6011 0.894957C13.3071 0.29358 16.6927 0.0674342 20.9116 0.0674342C25.1305 0.0674342 28.5161 0.29358 31.2221 0.894957C33.9273 1.49616 35.9491 2.47149 37.4446 3.96703C38.9401 5.46256 39.9155 7.48433 40.5167 10.1895C41.118 12.8955 41.3442 16.2811 41.3442 20.5C41.3442 24.7189 41.118 28.1045 40.5167 30.8105C39.9155 33.5157 38.9401 35.5374 37.4446 37.033C35.9491 38.5285 33.9273 39.5038 31.2221 40.105C28.5161 40.7064 25.1305 40.9326 20.9116 40.9326C16.6927 40.9326 13.3071 40.7064 10.6011 40.105C7.89595 39.5038 5.87418 38.5285 4.37865 37.033C2.88311 35.5374 1.90778 33.5157 1.30658 30.8105C0.705202 28.1045 0.479055 24.7189 0.479055 20.5Z" fill="#C4C4C4" stroke="black" stroke-width="0.134868"/>
</mask>
<g mask="url(#mask0_980_47322)">
<path d="M0.816226 20.5C0.816226 16.2888 1.0424 12.9324 1.63572 10.2627C2.22802 7.59756 3.1808 5.64171 4.61706 4.20544C6.05333 2.76918 8.00918 1.8164 10.6743 1.2241C13.344 0.630779 16.7004 0.404605 20.9116 0.404605C25.1228 0.404605 28.4793 0.630779 31.149 1.2241C33.8141 1.8164 35.7699 2.76918 37.2062 4.20544C38.6424 5.64171 39.5952 7.59756 40.1875 10.2627C40.7808 12.9324 41.007 16.2888 41.007 20.5C41.007 24.7112 40.7808 28.0676 40.1875 30.7373C39.5952 33.4024 38.6424 35.3583 37.2062 36.7946C35.7699 38.2308 33.8141 39.1836 31.149 39.7759C28.4793 40.3692 25.1228 40.5954 20.9116 40.5954C16.7004 40.5954 13.344 40.3692 10.6743 39.7759C8.00918 39.1836 6.05333 38.2308 4.61706 36.7946C3.1808 35.3583 2.22802 33.4024 1.63572 30.7373C1.0424 28.0676 0.816226 24.7112 0.816226 20.5Z" fill="#FFE298" stroke="#4A2E1C" stroke-width="0.809211"/>
<path d="M13.4435 11.4776C13.4435 11.4776 10.2091 13.544 8.81627 18.6199C8.81627 18.6199 6.7499 24.0998 6.21069 25.5822C6.21069 25.5822 1.76354 33.5342 0.460298 40.0477C0.460298 40.0477 -4.1221 58.8252 8.54577 62.8683C8.54577 62.8683 27.5032 63.9468 32.6249 62.6892C32.6249 62.6892 41.5191 61.162 41.9688 48.1341C41.9688 48.1341 42.508 36.4542 35.5 25.7622C35.5 25.7622 31.9504 13.4526 28.5817 11.7687C28.5817 11.7687 23.6625 5.56957 17.6658 9.07355L13.4435 11.4776Z" fill="#8FB795"/>
<path d="M12.9767 11.4777C12.9767 11.4777 11.4441 12.3546 9.08574 17.9178C9.08574 17.9178 6.41745 25.3494 5.37127 26.8774C5.37127 26.8774 0.573012 31.2798 0.398351 40.2646C0.398351 40.2646 0.20488 41.4003 -0.0378545 43.6781C-0.646034 49.3864 -1.20226 59.9798 8.00015 62.8693C8.00015 62.8693 27.2675 63.9477 32.4724 62.6902C32.4724 62.6902 41.5118 61.163 41.9695 48.1351C41.9695 48.1351 42.5177 36.4552 35.3951 25.7632C35.3951 25.7632 31.7881 13.4536 28.363 11.7697C28.363 11.7697 23.3632 5.57055 17.2679 9.07453L12.9767 11.4777Z" fill="#8CBD92"/>
<path d="M1.45362 36.4577C1.41779 36.4577 1.38197 36.4532 1.34614 36.4434C1.13117 36.3843 1.00488 36.1612 1.06399 35.9463C1.62291 33.9211 4.10489 28.5505 4.53035 27.7166C4.60738 27.5643 4.72113 27.3485 4.8528 27.1003C5.21466 26.4151 5.76194 25.3806 5.92585 24.931C6.25636 24.0263 6.55821 23.1315 6.85111 22.2663C7.34284 20.8098 7.85071 19.3042 8.49382 17.7716C9.50954 15.3497 10.6274 13.0092 13.1282 11.0091C13.3028 10.8694 13.5572 10.898 13.6969 11.0718C13.8367 11.2465 13.808 11.5008 13.6333 11.6397C11.2812 13.5215 10.2127 15.7617 9.23904 18.0842C8.60757 19.5899 8.12658 21.0159 7.61693 22.5251C7.32314 23.3957 7.0195 24.295 6.68451 25.2095C6.50178 25.7102 5.96168 26.7322 5.56757 27.4783C5.43859 27.722 5.32663 27.9342 5.25049 28.0838C4.84653 28.8756 2.37709 34.2256 1.84325 36.1612C1.79399 36.3404 1.63097 36.4577 1.45362 36.4577Z" fill="#4B2E1A"/>
<path d="M40.2884 36.5473C40.1111 36.5473 39.9481 36.43 39.8988 36.2509C39.3632 34.3108 36.8946 28.9644 36.4916 28.1735C36.4154 28.0239 36.3035 27.8116 36.1745 27.568C35.7804 26.8218 35.2403 25.7999 35.0575 25.2992C34.7235 24.3846 34.4198 23.4854 34.126 22.6147C33.6164 21.1055 33.1354 19.6795 32.5039 18.1739C31.5303 15.8513 30.4617 13.6112 28.1096 11.7293C27.9349 11.5896 27.9072 11.3352 28.046 11.1614C28.1857 10.9868 28.4401 10.959 28.6148 11.0987C31.1156 13.0997 32.2343 15.4393 33.2491 17.8613C33.8922 19.3938 34.4001 20.8995 34.8918 22.3559C35.1838 23.222 35.4866 24.1168 35.8171 25.0206C35.981 25.4693 36.5283 26.5048 36.8901 27.19C37.0209 27.4381 37.1356 27.654 37.2126 27.8062C37.6363 28.6383 40.1182 34.0063 40.6781 36.0359C40.7372 36.2509 40.6109 36.4739 40.3959 36.533C40.3601 36.5429 40.3243 36.5473 40.2884 36.5473Z" fill="#4B2E1A"/>
<path d="M16.7888 9.86105C16.649 9.86105 16.5138 9.7885 16.4385 9.65952C16.3266 9.46605 16.3929 9.21883 16.5863 9.10687C17.9711 8.30522 19.7069 8.06249 21.0209 7.99979C22.4711 7.93082 24.2455 8.50765 25.4305 8.96804C25.6392 9.04955 25.7422 9.28332 25.6607 9.49202C25.5791 9.69982 25.3445 9.80283 25.1376 9.72222C24 9.27974 22.3555 8.7459 21.0586 8.80771C19.878 8.86414 18.2595 9.07194 16.9903 9.80731C16.9276 9.84403 16.8577 9.86105 16.7888 9.86105Z" fill="#4B2E1A"/>
<path d="M14.3346 63.7299C11.1038 63.7299 8.03335 63.4048 5.95175 62.0666C0.862386 58.7955 -0.0655576 55.0309 -0.631639 51.1382C-1.21922 47.0932 -0.199017 39.6383 1.07019 35.923C1.14274 35.7116 1.37204 35.5978 1.58342 35.6713C1.79481 35.7438 1.90767 35.9731 1.83601 36.1845C0.595468 39.8139 -0.403236 47.0861 0.169116 51.0218C0.830142 55.5755 2.01784 58.5761 6.38885 61.3868C8.79828 62.9355 12.7859 63.017 16.7351 62.8728H25.0283C28.9927 63.017 32.9795 62.9363 35.3889 61.3868C39.7608 58.577 40.9476 55.5764 41.6086 51.0218C42.1801 47.0861 41.1823 39.8139 39.9417 36.1845C39.8701 35.9731 39.982 35.7429 40.1943 35.6713C40.4057 35.5987 40.6359 35.7116 40.7076 35.923C41.9777 39.6383 42.997 47.0941 42.4094 51.1382C41.8442 55.0309 40.9154 58.7955 35.826 62.0666C33.2294 63.7362 29.0948 63.8294 25.0131 63.6807H16.7494C15.9433 63.7102 15.1336 63.7299 14.3346 63.7299Z" fill="#4B2E1A"/>
<path d="M12.9535 12.2667C12.0999 11.3844 11.1137 9.13262 12.0067 7.96911C12.9499 6.73931 14.6813 7.85088 15.5026 8.59431C16.0087 9.0529 16.4342 9.52673 16.7942 10.1107" fill="#F6FBF7"/>
<path d="M12.9535 12.6707C12.8478 12.6707 12.7421 12.6295 12.6633 12.5471C11.7523 11.6058 10.6148 9.12019 11.687 7.722C12.004 7.30908 12.4349 7.06635 12.9329 7.02156C14.1474 6.90871 15.4149 7.96742 15.7749 8.29435C16.3527 8.81834 16.7871 9.32709 17.1391 9.89765C17.2564 10.0875 17.1982 10.3365 17.0083 10.4539C16.8184 10.5721 16.5694 10.513 16.4521 10.3231C16.1359 9.81256 15.7606 9.37188 15.233 8.89447C14.6463 8.36243 13.7103 7.7641 13.0072 7.82769C12.7322 7.85277 12.511 7.97907 12.3301 8.21553C11.5929 9.17751 12.5173 11.2322 13.2464 11.9864C13.4013 12.1468 13.3977 12.4029 13.2365 12.5579C13.1568 12.6331 13.0547 12.6707 12.9535 12.6707Z" fill="#4B2E1A"/>
<path d="M25.2283 9.9451C25.6082 8.77708 27.1341 6.85073 28.5812 7.09362C30.1097 7.35015 29.9396 9.4006 29.668 10.4746C29.5002 11.1366 29.2803 11.735 28.9341 12.3264" fill="#F6FBF7"/>
<path d="M24.8706 10.1344C24.9181 10.2238 24.9988 10.2956 25.103 10.3295C25.315 10.3985 25.5434 10.2824 25.6124 10.0703C25.9367 9.07273 27.3191 7.29252 28.5136 7.49306C28.8065 7.54244 29.0225 7.67822 29.1728 7.90977C29.5578 8.49944 29.469 9.6083 29.2753 10.3763C29.1006 11.0673 28.8869 11.6067 28.5845 12.1241C28.4714 12.316 28.5363 12.5644 28.7298 12.6767C28.9225 12.7894 29.1697 12.7241 29.2824 12.5314C29.6206 11.9534 29.8675 11.3316 30.059 10.5748C30.1778 10.1031 30.5147 8.48739 29.8509 7.46776C29.577 7.04929 29.1614 6.78212 28.648 6.69563C26.9112 6.40369 25.2478 8.5754 24.8438 9.82014C24.8084 9.92919 24.8211 10.0411 24.8706 10.1344Z" fill="#4B2E1A"/>
<path d="M28.1383 17.6059C28.1383 18.4461 27.5274 19.1259 26.7741 19.1259C26.0199 19.1259 25.41 18.4461 25.41 17.6059C25.41 16.7667 26.0208 16.0859 26.7741 16.0859C27.5274 16.0859 28.1383 16.7667 28.1383 17.6059Z" fill="#4B2E1A"/>
<path d="M26.9192 19.7C25.7924 19.7 24.8761 18.6924 24.8761 17.4545C24.8761 16.2158 25.7924 15.209 26.9192 15.209C28.0442 15.209 29.7039 16.609 29.7039 17.8674C29.7039 19.1313 28.0755 19.7 26.9192 19.7ZM26.9192 15.7473C26.0898 15.7473 25.4153 16.5131 25.4153 17.4536C25.4153 18.395 26.0898 19.1599 26.9192 19.1599C27.8606 19.1599 29.1656 18.7103 29.1656 17.8665C29.1647 16.9314 27.7728 15.7473 26.9192 15.7473Z" fill="#A6D4AD"/>
<path d="M26.4704 17.2658C26.4426 17.5623 26.5546 17.8229 26.7418 17.8525C26.9299 17.882 27.1672 17.6465 27.2049 17.3527C27.2416 17.058 27.0813 16.7991 26.8941 16.7696C26.7069 16.74 26.5017 16.9317 26.4704 17.2658Z" fill="white"/>
<path d="M16.391 17.424C16.391 18.2803 15.7676 18.9744 14.9991 18.9744C14.2306 18.9744 13.6072 18.2803 13.6072 17.424C13.6072 16.5677 14.2306 15.8735 14.9991 15.8735C15.7676 15.8735 16.391 16.5677 16.391 17.424Z" fill="#4B2E1A"/>
<path d="M14.7897 19.6999C13.6701 19.6999 12.0497 18.9941 12.0497 17.7169C12.0497 16.4727 13.6441 15.208 14.7897 15.208C15.9165 15.208 16.8328 16.2157 16.8328 17.4535C16.8337 18.6923 15.9165 19.6999 14.7897 19.6999ZM14.7897 15.7472C13.9209 15.7472 12.5881 16.8032 12.5881 17.7169C12.5881 18.5982 13.8922 19.1607 14.7897 19.1607C15.6191 19.1607 16.2936 18.3949 16.2936 17.4544C16.2945 16.513 15.62 15.7472 14.7897 15.7472Z" fill="#A6D4AD"/>
<path d="M15.3592 17.1054C15.4013 17.3911 15.3009 17.65 15.1137 17.6885C14.9257 17.7261 14.6749 17.5093 14.6238 17.2254C14.5727 16.9406 14.7214 16.6817 14.9086 16.6432C15.0967 16.6056 15.3126 16.782 15.3592 17.1054Z" fill="white"/>
<path d="M21.0935 32.1852C20.8704 32.1852 20.6895 32.0042 20.6895 31.7812V29.5724C20.6895 29.3494 20.8704 29.1685 21.0935 29.1685C21.3165 29.1685 21.4974 29.3494 21.4974 29.5724V31.7812C21.4974 32.0042 21.3165 32.1852 21.0935 32.1852Z" fill="#FBC93F"/>
<path d="M22.8222 34.521H19.4947C19.3496 34.521 19.2152 34.4431 19.1435 34.3168C19.0719 34.1905 19.0728 34.0355 19.1471 33.9101L20.7406 31.2194C20.8122 31.0985 20.9403 31.0242 21.0809 31.0215C21.2287 31.0233 21.3523 31.0887 21.4285 31.2069L23.1634 33.8976C23.2441 34.0221 23.2494 34.1797 23.1787 34.3096C23.1061 34.4395 22.97 34.521 22.8222 34.521ZM20.2032 33.7122H22.0796L21.1015 32.1949L20.2032 33.7122Z" fill="#FBC93F"/>
<path d="M22.9636 35.8304H19.4238C19.2008 35.8304 19.0198 35.6495 19.0198 35.4264C19.0198 35.2034 19.2008 35.0225 19.4238 35.0225H22.9636C23.1866 35.0225 23.3676 35.2034 23.3676 35.4264C23.3676 35.6495 23.1866 35.8304 22.9636 35.8304Z" fill="#FBC93F"/>
<path d="M23.1283 37.2013H22.3258C22.1995 37.2013 22.0965 37.0992 22.0965 36.972C22.0965 36.8457 22.1986 36.7427 22.3258 36.7427H23.1283C23.2546 36.7427 23.3576 36.8448 23.3576 36.972C23.3576 37.0983 23.2555 37.2013 23.1283 37.2013Z" fill="#4B2E1A"/>
<path d="M20.9456 37.2013H20.1797C20.0534 37.2013 19.9504 37.0992 19.9504 36.972C19.9504 36.8457 20.0534 36.7427 20.1797 36.7427H20.9456C21.0719 36.7427 21.1749 36.8448 21.1749 36.972C21.174 37.0983 21.0719 37.2013 20.9456 37.2013Z" fill="#4B2E1A"/>
<path d="M23.1283 40.5636H22.3258C22.1995 40.5636 22.0965 40.4615 22.0965 40.3343C22.0965 40.208 22.1986 40.105 22.3258 40.105H23.1283C23.2546 40.105 23.3576 40.2071 23.3576 40.3343C23.3576 40.4615 23.2555 40.5636 23.1283 40.5636Z" fill="#4B2E1A"/>
<path d="M22.728 40.5405C22.6017 40.5405 22.4987 40.4384 22.4987 40.3112V36.9837C22.4987 36.8574 22.6008 36.7544 22.728 36.7544C22.8551 36.7544 22.9573 36.8565 22.9573 36.9837V40.3112C22.9564 40.4384 22.8542 40.5405 22.728 40.5405Z" fill="#4B2E1A"/>
<path d="M20.5801 40.5405C20.4538 40.5405 20.3508 40.4384 20.3508 40.3112V36.9837C20.3508 36.8574 20.4538 36.7544 20.5801 36.7544C20.7064 36.7544 20.8094 36.8565 20.8094 36.9837V40.3112C20.8094 40.4384 20.7064 40.5405 20.5801 40.5405Z" fill="#4B2E1A"/>
<path d="M19.1641 40.6948C19.0378 40.6948 18.9348 40.5927 18.9348 40.4655V36.949C18.9348 36.8227 19.0378 36.7197 19.1641 36.7197C19.2904 36.7197 19.3934 36.8218 19.3934 36.949V40.4655C19.3934 40.5918 19.2904 40.6948 19.1641 40.6948Z" fill="#4B2E1A"/>
<path d="M22.2668 40.5644H21.3353C21.209 40.5644 21.106 40.4623 21.106 40.3351V36.9959C21.106 36.8696 21.209 36.7666 21.3353 36.7666C21.4616 36.7666 21.5646 36.8687 21.5646 36.9959V40.1058H22.2677C22.394 40.1058 22.497 40.2079 22.497 40.3351C22.4961 40.4614 22.394 40.5644 22.2668 40.5644Z" fill="#4B2E1A"/>
<path d="M19.258 38.928C19.1318 38.928 19.0287 38.8259 19.0287 38.6987C19.0287 38.5724 19.1318 38.4694 19.258 38.4694C19.5608 38.4694 19.808 38.1792 19.808 37.8236C19.808 37.4671 19.5617 37.1778 19.258 37.1778C19.1318 37.1778 19.0287 37.0757 19.0287 36.9485C19.0287 36.8222 19.1318 36.7192 19.258 36.7192C19.8143 36.7192 20.2657 37.2146 20.2657 37.8236C20.2666 38.4327 19.8143 38.928 19.258 38.928Z" fill="#4B2E1A"/>
<path d="M19.258 40.7176C19.1318 40.7176 19.0287 40.6155 19.0287 40.4883C19.0287 40.362 19.1318 40.259 19.258 40.259C19.5608 40.259 19.808 39.9688 19.808 39.6132C19.808 39.2576 19.5617 38.9674 19.258 38.9674C19.1318 38.9674 19.0287 38.8653 19.0287 38.7381C19.0287 38.6118 19.1318 38.5088 19.258 38.5088C19.8143 38.5088 20.2657 39.0041 20.2657 39.6132C20.2666 40.2223 19.8143 40.7176 19.258 40.7176Z" fill="#4B2E1A"/>
<path d="M29.2847 19.8687C28.6326 19.8687 28.0343 20.0881 27.5667 20.4544C26.8072 20.8477 26.2903 21.6224 26.2903 22.5145C26.2903 23.6019 27.0589 24.5164 28.0979 24.7753C28.4561 24.9419 28.8583 25.0359 29.2847 25.0359C30.7814 25.0359 31.9951 23.8787 31.9951 22.4527C31.9951 21.0259 30.7814 19.8687 29.2847 19.8687Z" fill="#A6D4AD"/>
<path d="M11.9896 19.8687C11.3376 19.8687 10.7392 20.0881 10.2717 20.4544C9.51214 20.8477 8.99622 21.6224 8.99622 22.5145C8.99622 23.6019 9.76472 24.5164 10.8037 24.7753C11.162 24.9419 11.5642 25.0359 11.9905 25.0359C13.4872 25.0359 14.7009 23.8787 14.7009 22.4527C14.7 21.0259 13.4864 19.8687 11.9896 19.8687Z" fill="#A6D4AD"/>
<path d="M20.9439 18.1621C19.2905 18.1621 17.7732 18.4792 16.5873 19.0076C14.6624 19.5746 13.352 20.6934 13.352 21.9805C13.352 23.5506 15.2992 24.87 17.9353 25.2435C18.8444 25.4844 19.8646 25.6197 20.9439 25.6197C24.739 25.6197 27.8166 23.9501 27.8166 21.8909C27.8175 19.8317 24.7399 18.1621 20.9439 18.1621Z" fill="#F6FBF7"/>
<path d="M24.9424 20.3524C24.9424 21.1898 23.1017 21.8688 20.832 21.8688C18.5623 21.8688 16.7217 21.1898 16.7217 20.3524C16.7217 19.5149 18.5623 18.8359 20.832 18.8359C23.1017 18.8359 24.9424 19.5149 24.9424 20.3524Z" fill="#4B2E1A"/>
<path d="M21.3444 23.6171C17.7715 23.6171 15.3325 21.9636 15.1892 21.8642C15.0056 21.737 14.9599 21.4853 15.088 21.3017C15.2152 21.1181 15.466 21.0733 15.6505 21.1996C15.697 21.2318 20.395 24.3972 26.1651 21.7047C26.3675 21.6098 26.6076 21.6976 26.7025 21.9C26.7974 22.1024 26.7097 22.3434 26.5072 22.4374C24.637 23.3089 22.885 23.6171 21.3444 23.6171Z" fill="#4B2E1A"/>
<path d="M0.849943 20.5C0.849943 16.2896 1.07612 12.9361 1.66863 10.27C2.26004 7.60889 3.21057 5.65962 4.64091 4.22928C6.07124 2.79895 8.02051 1.84842 10.6816 1.25701C13.3477 0.664499 16.7012 0.438322 20.9116 0.438322C25.1221 0.438322 28.4756 0.664499 31.1416 1.25701C33.8027 1.84842 35.752 2.79895 37.1823 4.22928C38.6127 5.65962 39.5632 7.60889 40.1546 10.27C40.7471 12.9361 40.9733 16.2896 40.9733 20.5C40.9733 24.7104 40.7471 28.0639 40.1546 30.73C39.5632 33.3911 38.6127 35.3404 37.1823 36.7707C35.752 38.201 33.8027 39.1516 31.1416 39.743C28.4756 40.3355 25.1221 40.5617 20.9116 40.5617C16.7012 40.5617 13.3477 40.3355 10.6816 39.743C8.02051 39.1516 6.07124 38.201 4.64091 36.7707C3.21057 35.3404 2.26004 33.3911 1.66863 30.73C1.07612 28.0639 0.849943 24.7104 0.849943 20.5Z" stroke="#4A2E1C" stroke-width="0.876645"/>
</g>
</svg>
