<svg width="375" height="276" viewBox="0 0 375 276" fill="none" xmlns="http://www.w3.org/2000/svg">
<path d="M124.089 102.656C122.775 102.656 121.597 103.236 120.795 104.154C119.646 101.228 116.799 99.1562 113.466 99.1562C109.117 99.1562 105.592 102.682 105.592 107.03H128.464C128.464 104.614 126.505 102.656 124.089 102.656Z" fill="#D3E1F5"/>
<path d="M124.093 103.656C123.274 103.656 122.51 103.88 121.856 104.272C122.436 104.942 122.906 105.709 123.234 106.549C124.037 105.632 125.215 105.052 126.528 105.052C126.816 105.052 127.096 105.08 127.368 105.134C126.569 104.227 125.397 103.656 124.093 103.656Z" fill="#C0D6F2"/>
<path d="M105.592 107.03H108.153C108.812 103.347 112.031 100.552 115.904 100.552C116.824 100.552 117.707 100.709 118.528 101.001C117.16 99.8494 115.394 99.1563 113.466 99.1563C109.118 99.1561 105.592 102.682 105.592 107.03Z" fill="#C0D6F2"/>
<path d="M130.904 109.189H103.158C102.518 109.189 102 108.671 102 108.032C102 107.392 102.518 106.874 103.158 106.874H104.512C104.695 105.444 105.214 104.084 106.044 102.888C106.408 102.363 107.129 102.233 107.655 102.597C108.18 102.961 108.311 103.683 107.946 104.208C107.387 105.013 107.017 105.919 106.852 106.874H127.094C126.628 105.671 125.458 104.815 124.093 104.815C123.165 104.815 122.282 105.217 121.67 105.917C121.404 106.221 120.998 106.365 120.6 106.296C120.202 106.227 119.869 105.955 119.721 105.579C118.704 102.989 116.25 101.315 113.469 101.315C112.872 101.315 112.281 101.394 111.712 101.547C111.094 101.714 110.459 101.349 110.292 100.732C110.125 100.115 110.49 99.4789 111.108 99.3122C111.874 99.1051 112.668 99 113.469 99C116.678 99 119.564 100.657 121.182 103.328C122.048 102.792 123.054 102.5 124.093 102.5C126.746 102.5 128.968 104.378 129.502 106.874H130.904C131.544 106.874 132.062 107.393 132.062 108.032C132.062 108.671 131.544 109.189 130.904 109.189Z" fill="#432513"/>
<path d="M299.089 62.6557C297.775 62.6557 296.597 63.2361 295.795 64.1537C294.646 61.2283 291.799 59.1562 288.466 59.1562C284.117 59.1562 280.592 62.6815 280.592 67.0304H303.464C303.464 64.6143 301.505 62.6557 299.089 62.6557Z" fill="#D3E1F5"/>
<path d="M299.093 63.6562C298.274 63.6562 297.51 63.8801 296.856 64.2722C297.436 64.9421 297.906 65.7093 298.234 66.5491C299.037 65.6321 300.215 65.0517 301.528 65.0517C301.816 65.0517 302.096 65.0795 302.368 65.1336C301.569 64.2274 300.397 63.6562 299.093 63.6562Z" fill="#C0D6F2"/>
<path d="M280.592 67.0304H283.153C283.812 63.3471 287.031 60.5516 290.904 60.5516C291.824 60.5516 292.707 60.7091 293.528 61.0009C292.16 59.8494 290.394 59.1563 288.466 59.1563C284.118 59.1561 280.592 62.6818 280.592 67.0304Z" fill="#C0D6F2"/>
<path d="M305.904 69.1893H278.158C277.518 69.1893 277 68.671 277 68.0316C277 67.3921 277.518 66.874 278.158 66.874H279.512C279.695 65.4442 280.214 64.0838 281.044 62.8881C281.408 62.3628 282.129 62.2325 282.655 62.5969C283.18 62.9614 283.311 63.683 282.946 64.2081C282.387 65.0134 282.017 65.9194 281.852 66.874H302.094C301.628 65.6706 300.458 64.8149 299.093 64.8149C298.165 64.8149 297.282 65.2166 296.67 65.917C296.404 66.2213 295.998 66.3647 295.6 66.2959C295.202 66.2267 294.869 65.9548 294.721 65.5785C293.704 62.9886 291.25 61.3154 288.469 61.3154C287.872 61.3154 287.281 61.3935 286.712 61.5475C286.094 61.7144 285.459 61.349 285.292 60.7319C285.125 60.1148 285.49 59.4789 286.108 59.3122C286.874 59.1051 287.668 59 288.469 59C291.678 59 294.564 60.6573 296.182 63.3283C297.048 62.7921 298.054 62.4996 299.093 62.4996C301.746 62.4996 303.968 64.3778 304.502 66.8743H305.904C306.544 66.8743 307.062 67.3926 307.062 68.032C307.062 68.671 306.544 69.1893 305.904 69.1893Z" fill="#432513"/>
<ellipse cx="188" cy="371" rx="300" ry="242" fill="#FFD37D"/>
<path d="M280.929 189.444C282.71 189.444 284.307 190.181 285.394 191.347C286.951 187.631 290.81 185 295.328 185C301.222 185 306 189.477 306 195H275C275 191.932 277.655 189.444 280.929 189.444Z" fill="#D3E1F5"/>
<path d="M280.754 190C281.941 190 283.05 190.31 284 190.852C283.158 191.778 282.476 192.839 281.999 194C280.834 192.732 279.125 191.93 277.219 191.93C276.802 191.93 276.394 191.968 276 192.043C277.16 190.79 278.861 190 280.754 190Z" fill="#C0D6F2"/>
<path d="M306 195H302.437C301.519 190.322 297.041 186.772 291.652 186.772C290.371 186.772 289.143 186.972 288 187.343C289.903 185.88 292.361 185 295.043 185C301.094 185 306 189.477 306 195Z" fill="#C0D6F2"/>
<path d="M271.579 197H309.421C310.293 197 311 196.288 311 195.409C311 194.531 310.293 193.819 309.421 193.819H307.574C307.325 191.854 306.616 189.985 305.485 188.342C304.988 187.62 304.004 187.441 303.287 187.942C302.571 188.443 302.393 189.434 302.89 190.156C303.652 191.262 304.157 192.507 304.383 193.819H276.776C277.411 192.165 279.006 190.99 280.869 190.99C282.134 190.99 283.338 191.542 284.173 192.504C284.536 192.922 285.089 193.119 285.632 193.024C286.175 192.929 286.63 192.556 286.832 192.039C288.219 188.48 291.566 186.181 295.358 186.181C296.172 186.181 296.978 186.289 297.755 186.5C298.597 186.729 299.463 186.228 299.691 185.38C299.919 184.532 299.421 183.658 298.579 183.429C297.534 183.144 296.45 183 295.358 183C290.981 183 287.045 185.277 284.838 188.947C283.657 188.21 282.286 187.808 280.869 187.808C277.25 187.808 274.219 190.389 273.491 193.819H271.579C270.707 193.819 270 194.531 270 195.41C270 196.288 270.707 197 271.579 197Z" fill="#432513"/>
<ellipse opacity="0.4" cx="190.5" cy="227.5" rx="103.5" ry="12.5" fill="#725F42"/>
<path d="M236.154 179.285C235.951 176.846 235.748 174.474 235.546 172.035C234.193 171.425 233.651 169.867 233.787 168.444C231.487 165.733 231.216 161.532 231.081 158.144C230.675 149.268 226.886 140.798 227.428 131.854C227.495 130.499 228.172 129.618 229.051 129.076C227.63 126.027 226.277 122.978 225.127 119.793C224.789 118.912 224.857 118.167 225.127 117.421C223.098 113.898 220.798 110.307 219.039 106.58C188.867 108.816 158.627 107.8 128.388 107.732C106.604 141.205 108.295 177.32 108.295 177.32C107.484 218.585 138.264 223.261 138.264 223.261C151.862 226.581 196.038 224.751 210.718 224.074C218.498 220.55 225.466 217.095 230.539 209.506C234.801 203.069 236.899 195.547 237.507 187.823C237.643 186.197 237.71 184.638 237.71 183.012C237.507 182.605 237.372 182.131 237.372 181.657C236.696 181.182 236.222 180.369 236.154 179.285Z" fill="#8CBD92"/>
<path d="M232.434 203.069C229.592 209.167 225.127 214.316 217.618 219.263C210.177 224.142 197.932 224.413 185.823 223.938H160.318C148.141 224.413 135.897 224.142 128.455 219.263C114.993 210.386 111.34 200.9 109.31 186.535C107.551 174.136 110.595 151.165 114.452 139.714C114.655 139.037 114.316 138.291 113.707 138.088C113.031 137.885 112.354 138.223 112.151 138.901C108.228 150.623 105.116 174.203 106.942 186.942C108.701 199.206 111.543 211.132 127.17 221.431C135.153 226.716 147.871 226.987 160.386 226.513H185.823C188.326 226.581 190.761 226.649 193.264 226.649C203.209 226.649 212.612 225.632 219.039 221.363C226.819 216.214 231.419 210.725 234.328 204.966C233.381 204.695 232.704 204.017 232.434 203.069Z" fill="#4B2E1A"/>
<path d="M197.729 145.134C197.052 144.998 196.579 144.388 196.714 143.643L197.864 136.799C198 136.122 198.608 135.647 199.353 135.783C200.029 135.918 200.503 136.528 200.367 137.274L199.217 144.117C199.082 144.795 198.405 145.269 197.729 145.134Z" fill="#FBC93F"/>
<path d="M201.855 153.332L191.505 151.571C191.031 151.503 190.693 151.164 190.49 150.758C190.355 150.351 190.423 149.877 190.693 149.47L197.052 141.949C197.323 141.61 197.796 141.475 198.202 141.542C198.676 141.61 199.014 141.881 199.217 142.288L203.208 151.571C203.411 151.977 203.344 152.519 203.006 152.858C202.803 153.197 202.329 153.4 201.855 153.332ZM194.143 149.402L199.961 150.419L197.729 145.201L194.143 149.402Z" fill="#FBC93F"/>
<path d="M201.585 157.467L190.558 155.569C189.881 155.434 189.408 154.824 189.543 154.079C189.678 153.401 190.287 152.927 191.031 153.062L202.058 154.959C202.735 155.095 203.209 155.705 203.073 156.45C202.938 157.128 202.329 157.602 201.585 157.467Z" fill="#FBC93F"/>
<path d="M201.382 161.803L198.879 161.396C198.473 161.328 198.202 160.922 198.27 160.583C198.338 160.177 198.744 159.906 199.082 159.973L201.585 160.38C201.991 160.448 202.261 160.854 202.194 161.193C202.194 161.599 201.788 161.871 201.382 161.803Z" fill="#4B2E1A"/>
<path d="M194.617 160.65L192.249 160.244C191.843 160.176 191.573 159.77 191.64 159.431C191.708 159.024 192.114 158.753 192.452 158.821L194.82 159.227C195.226 159.295 195.496 159.702 195.429 160.041C195.361 160.447 195.023 160.718 194.617 160.65Z" fill="#4B2E1A"/>
<path d="M199.623 172.305L197.12 171.898C196.714 171.83 196.444 171.424 196.511 171.085C196.579 170.679 196.985 170.407 197.323 170.475L199.826 170.882C200.232 170.95 200.503 171.288 200.435 171.695C200.367 172.101 200.029 172.372 199.623 172.305Z" fill="#4B2E1A"/>
<path d="M198.405 172.035C198 171.967 197.729 171.56 197.797 171.222L199.556 160.855C199.623 160.448 200.029 160.177 200.367 160.245C200.773 160.313 201.044 160.651 200.976 161.058L199.217 171.425C199.15 171.831 198.744 172.103 198.405 172.035Z" fill="#4B2E1A"/>
<path d="M191.708 170.882C191.302 170.815 191.031 170.476 191.099 170.069L192.858 159.702C192.926 159.296 193.332 159.025 193.67 159.092C194.076 159.16 194.346 159.499 194.279 159.906L192.52 170.273C192.452 170.679 192.114 170.95 191.708 170.882Z" fill="#4B2E1A"/>
<path d="M187.243 170.611C186.837 170.544 186.567 170.137 186.634 169.798L188.528 158.821C188.596 158.415 189.002 158.144 189.34 158.212C189.746 158.279 190.017 158.686 189.949 159.025L188.055 170.002C187.987 170.408 187.649 170.679 187.243 170.611Z" fill="#4B2E1A"/>
<path d="M196.917 171.831L194.076 171.357C193.67 171.289 193.399 170.883 193.467 170.544L195.226 160.177C195.293 159.77 195.699 159.499 196.038 159.567C196.444 159.635 196.714 160.041 196.646 160.38L195.023 170.07L197.188 170.476C197.594 170.544 197.864 170.883 197.797 171.289C197.729 171.628 197.323 171.899 196.917 171.831Z" fill="#4B2E1A"/>
<path d="M188.461 165.122C188.055 165.054 187.784 164.715 187.852 164.308C187.92 163.902 188.326 163.631 188.664 163.699C189.611 163.834 190.558 163.089 190.693 162.005C190.896 160.921 190.287 159.836 189.34 159.701C188.934 159.633 188.664 159.294 188.731 158.888C188.799 158.481 189.205 158.21 189.543 158.278C191.302 158.549 192.385 160.378 192.114 162.276C191.843 164.105 190.152 165.46 188.461 165.122Z" fill="#4B2E1A"/>
<path d="M187.514 170.678C187.108 170.61 186.837 170.272 186.905 169.865C186.973 169.459 187.378 169.188 187.717 169.255C188.664 169.391 189.611 168.645 189.746 167.561C189.949 166.477 189.34 165.393 188.393 165.258C187.987 165.19 187.717 164.783 187.784 164.444C187.852 164.038 188.258 163.767 188.596 163.835C190.355 164.106 191.437 165.935 191.167 167.832C190.896 169.73 189.205 171.017 187.514 170.678Z" fill="#4B2E1A"/>
<path d="M217.077 208.894C217.077 208.894 195.632 187.889 143.812 211.604" stroke="#4B2E1A" stroke-width="3" stroke-miterlimit="10" stroke-linecap="round" stroke-linejoin="round"/>
<path d="M113.572 138.832C113.572 138.832 152.809 24.9977 229.051 62.8071C229.051 62.8071 246.234 74.5971 240.755 102.107C240.755 102.107 244.543 143.914 205.373 135.715" fill="#8CBD92"/>
<path d="M113.572 138.832C113.572 138.832 152.809 24.9977 229.051 62.8071C229.051 62.8071 246.234 74.5971 240.755 102.107C240.755 102.107 244.543 143.914 205.373 135.715" stroke="#4B2E1A" stroke-width="3" stroke-miterlimit="10" stroke-linecap="round" stroke-linejoin="round"/>
<path d="M227.089 134.428C227.089 141.068 227.969 147.641 229.525 154.078C231.013 160.244 233.516 166.003 235.072 172.102C237.845 183.079 237.372 195.682 232.298 205.913" stroke="#4B2E1A" stroke-width="3.9453" stroke-miterlimit="10" stroke-linecap="round" stroke-linejoin="round"/>
<path d="M201.179 58.6059C201.179 58.6059 209.974 50.6781 204.156 46.6126C204.156 46.6126 193.399 42.005 181.967 58.2671" fill="#F6FBF7"/>
<path d="M201.179 58.6059C201.179 58.6059 209.974 50.6781 204.156 46.6126C204.156 46.6126 193.399 42.005 181.967 58.2671" stroke="#4B2E1A" stroke-width="3.9792" stroke-miterlimit="10" stroke-linecap="round" stroke-linejoin="round"/>
<path d="M237.981 74.1218C237.981 74.1218 250.631 68.8366 249.211 61.0443C249.211 61.0443 244.272 51.016 228.239 63.4159" fill="#F6FBF7"/>
<path d="M237.981 74.1218C237.981 74.1218 250.631 68.8366 249.211 61.0443C249.211 61.0443 244.272 51.016 228.239 63.4159" stroke="#4B2E1A" stroke-width="3.9792" stroke-miterlimit="10" stroke-linecap="round" stroke-linejoin="round"/>
<path d="M199.014 93.9754C195.497 92.9591 191.099 89.7744 192.249 85.9122C193.399 82.1177 199.623 79.3396 203.073 80.3559C206.456 81.3723 208.35 85.2346 207.268 88.9613C206.118 92.7558 202.465 94.9918 199.014 93.9754ZM202.532 81.9821C199.961 81.2368 194.685 83.5406 193.873 86.3865C193.129 88.9613 196.647 91.4684 199.488 92.2815C201.991 93.0268 204.697 91.3328 205.576 88.487C206.456 85.6411 205.035 82.7275 202.532 81.9821Z" fill="#A6D4AD"/>
<path d="M239.537 103.326C238.116 103.597 236.493 103.529 235.275 103.19C232.772 102.445 231.419 99.5315 232.231 96.6856C233.042 93.8398 235.816 92.1458 238.319 92.8911C239.063 93.0944 239.807 93.6365 240.484 94.2463C240.484 94.1786 240.552 94.043 240.552 93.9753C240.552 93.8398 240.552 93.772 240.552 93.6365C240.552 93.5687 240.552 93.501 240.552 93.501C240.484 93.0267 240.484 92.6201 240.552 92.1458C240.01 91.7392 239.402 91.4682 238.793 91.2649C235.41 90.2486 231.689 92.4846 230.607 96.2113C229.525 99.938 231.351 103.8 234.801 104.817C236.222 105.223 237.981 105.359 239.605 105.088C239.537 104.681 239.537 104.207 239.605 103.733C239.605 103.597 239.605 103.462 239.537 103.326Z" fill="#A6D4AD"/>
<path d="M190.829 92.3496C192.79 92.9594 194.414 94.1113 195.496 95.6698C197.458 97.567 198.338 100.345 197.526 103.055C196.579 106.376 193.399 108.408 190.017 108.273C188.799 108.476 187.514 108.408 186.228 108.002C181.696 106.647 179.057 102.107 180.343 97.7703C181.56 93.4337 186.296 91.0622 190.829 92.3496Z" fill="#A6D4AD"/>
<path d="M218.768 94.9921C223.774 96.4828 228.104 98.7866 231.216 101.429C236.56 104.885 239.469 109.425 238.319 113.355C236.898 118.098 229.863 120.334 221.542 119.114C218.565 119.046 215.386 118.504 212.138 117.556C200.638 114.168 192.858 106.376 194.685 100.142C196.511 93.908 207.335 91.6042 218.768 94.9921Z" fill="#F6FBF7"/>
<path d="M209.297 99.262C208.553 101.769 213.492 105.496 220.392 107.529C227.225 109.561 233.448 109.155 234.192 106.58C234.937 104.073 229.998 100.346 223.098 98.3134C216.198 96.3484 210.041 96.7549 209.297 99.262Z" fill="#4B2E1A"/>
<path d="M199.42 100.209C199.42 100.209 213.424 123.111 236.425 111.999" stroke="#4B2E1A" stroke-width="4" stroke-miterlimit="10" stroke-linecap="round" stroke-linejoin="round"/>
<path d="M196.917 84.3535C196.917 84.3535 199.894 91.4004 208.418 88.3513" stroke="#4B2E1A" stroke-width="4" stroke-miterlimit="10" stroke-linecap="round" stroke-linejoin="round"/>
<path d="M232.366 96.2129C232.366 96.2129 235.816 101.092 241.161 99.3298" stroke="#4B2E1A" stroke-width="4" stroke-miterlimit="10" stroke-linecap="round" stroke-linejoin="round"/>
<mask id="mask0_681:22171" style="mask-type:alpha" maskUnits="userSpaceOnUse" x="162" y="77" width="187" height="175">
<path d="M241.28 113.773C242.239 112.121 241.133 100.501 241.275 98.2493L250.766 77.1879L348.785 117.954L304.304 235.399C287.299 239.312 242.188 256.944 207.281 249.579C163.647 240.372 162.493 216.322 162.944 203.502C163.395 190.681 191.968 150.784 206.049 136.692C213.817 137.901 218.512 137.611 226.192 135.783C233.297 134.092 241.097 122.327 241.28 113.773Z" fill="#C4C4C4"/>
</mask>
<g mask="url(#mask0_681:22171)">
<path d="M237.799 120.971L288.296 146.245C293.366 148.782 295.424 154.953 292.894 160.027L258.239 229.531C255.708 234.606 249.548 236.662 244.478 234.125L193.981 208.851C188.912 206.314 186.854 200.143 189.384 195.069L224.039 125.565C226.569 120.491 232.73 118.434 237.799 120.971Z" fill="#FFB8B8" stroke="#4A2E19" stroke-width="3" stroke-linejoin="round"/>
<path d="M259.509 96.6453C259.879 95.9039 260.779 95.6033 261.52 95.974L294.018 112.238C294.759 112.608 295.059 113.51 294.69 114.251L293.168 117.303C292.798 118.044 291.898 118.345 291.157 117.974L258.659 101.711C257.918 101.34 257.618 100.438 257.987 99.6969L259.509 96.6453Z" fill="#FFC0C0" stroke="#4A2E19" stroke-width="3" stroke-linejoin="round"/>
<path d="M260.18 102.48C259.44 102.109 258.539 102.41 258.17 103.151L247.666 124.216C247.296 124.957 247.597 125.859 248.338 126.229L254.651 129.389C255.392 129.76 256.292 129.459 256.662 128.718L267.166 107.653C267.535 106.912 267.234 106.01 266.494 105.639L260.18 102.48Z" fill="#E0E0E2" stroke="#4A2E19" stroke-width="3" stroke-linejoin="round"/>
<path d="M283.318 114.056C282.577 113.685 281.677 113.986 281.307 114.727L270.803 135.792C270.434 136.533 270.734 137.435 271.475 137.805L277.788 140.965C278.529 141.336 279.429 141.035 279.799 140.294L290.303 119.229C290.673 118.488 290.372 117.586 289.631 117.216L283.318 114.056Z" fill="#E0E0E2" stroke="#4A2E19" stroke-width="3" stroke-linejoin="round"/>
<path d="M256.582 180.693C256.566 180.697 256.549 180.703 256.533 180.708L251.46 182.402L251.46 182.402L236.215 187.492L231.119 172.221L231.119 172.221L229.426 167.145C228.831 165.314 228.981 163.322 229.846 161.602C230.711 159.881 232.222 158.574 234.047 157.964C235.872 157.355 237.865 157.493 239.59 158.349C241.313 159.204 242.63 160.707 243.253 162.529L244.946 167.604C245.072 167.982 245.343 168.294 245.698 168.472C246.054 168.65 246.466 168.68 246.843 168.554L251.915 166.86L251.933 166.854C252.845 166.537 253.81 166.404 254.773 166.463C255.737 166.522 256.679 166.772 257.545 167.199C258.411 167.626 259.184 168.22 259.82 168.949C260.455 169.677 260.939 170.524 261.245 171.441C261.551 172.357 261.672 173.326 261.601 174.29C261.53 175.253 261.269 176.193 260.832 177.055C260.396 177.916 259.792 178.683 259.058 179.309C258.331 179.928 257.49 180.398 256.582 180.693Z" fill="#FF008A" stroke="#4A2E19" stroke-width="3" stroke-linejoin="round"/>
<path d="M193.977 208.87C193.236 208.5 192.336 208.8 191.967 209.542L190.916 211.648C189.387 214.716 190.631 218.446 193.695 219.979C196.76 221.513 200.484 220.27 202.014 217.202L203.064 215.096C203.434 214.354 203.133 213.453 202.392 213.082L193.977 208.87Z" fill="#E0E0E2" stroke="#4A2E19" stroke-width="3" stroke-linejoin="round"/>
<path d="M236.044 229.919C235.303 229.548 234.403 229.849 234.033 230.59L232.983 232.697C231.453 235.764 232.698 239.494 235.762 241.028C238.827 242.562 242.551 241.319 244.08 238.251L245.131 236.145C245.5 235.403 245.2 234.502 244.459 234.131L236.044 229.919Z" fill="#E0E0E2" stroke="#4A2E19" stroke-width="3" stroke-linejoin="round"/>
<path d="M231.135 129.105C232.297 129.687 233.709 129.215 234.289 128.052C234.869 126.889 234.397 125.474 233.235 124.893C232.073 124.311 230.661 124.783 230.081 125.946C229.501 127.109 229.973 128.523 231.135 129.105Z" fill="#4A2E19"/>
<path d="M285.821 156.468C286.983 157.05 288.395 156.578 288.975 155.415C289.555 154.252 289.083 152.838 287.921 152.256C286.759 151.675 285.347 152.146 284.767 153.309C284.187 154.472 284.659 155.887 285.821 156.468Z" fill="#4A2E19"/>
<path d="M194.359 202.839C195.521 203.421 196.933 202.95 197.513 201.786C198.093 200.623 197.621 199.209 196.459 198.627C195.297 198.046 193.885 198.517 193.305 199.68C192.725 200.843 193.197 202.258 194.359 202.839Z" fill="#4A2E19"/>
<path d="M249.045 230.203C250.207 230.784 251.619 230.313 252.199 229.15C252.779 227.986 252.308 226.572 251.146 225.991C249.984 225.409 248.571 225.88 247.992 227.044C247.412 228.207 247.883 229.621 249.045 230.203Z" fill="#4A2E19"/>
</g>
<path d="M191.056 161.977C178.491 156.66 157.885 144.904 148.27 122.667L141.161 138.357C141.161 138.357 151.924 170.152 180.01 187.51C181.256 177.564 183.993 167.217 191.056 161.977Z" fill="#8CBD92"/>
<path d="M201.432 165.64C201.432 165.64 197.225 164.607 191.042 161.973C184.044 167.229 181.241 177.56 179.93 187.49C184.523 190.361 189.639 192.803 195.179 194.652C195.179 194.652 207.856 199.508 213.036 185.437C213.036 185.437 218.739 170.936 201.432 165.64Z" fill="#F6FBF7"/>
<path d="M141.094 138.34C141.094 138.34 155.705 181.468 195.188 194.651C195.188 194.651 207.865 199.507 213.045 185.437C213.045 185.437 218.763 170.871 201.441 165.641C201.441 165.641 162.647 155.906 148.268 122.667" stroke="#4B2E1A" stroke-width="3.6639" stroke-miterlimit="10" stroke-linecap="round" stroke-linejoin="round"/>
<path d="M106.44 39.4996C109.026 40.297 114.104 42.6883 114.104 42.6883C115.417 43.1067 116.328 44.6517 115.715 46.0311C114.152 49.5488 112.555 52.934 108.267 53.5339C108.264 53.5343 58.6268 60.4779 58.6268 60.4779L44.8864 57.151C43.9636 56.8501 43.7704 55.63 44.5551 55.0587L56.4229 48.9946C56.4229 48.9946 101.322 39.2023 101.328 39.2009C103.179 38.7974 104.846 39.0079 106.44 39.4996Z" fill="#FDF6EC"/>
<path d="M115.716 46.0324C114.152 49.5497 112.555 52.9357 108.268 53.5347C108.265 53.5347 58.628 60.4781 58.628 60.4781L44.8864 57.1523C43.9646 56.8512 43.7716 55.6315 44.5559 55.0602L45.873 54.387L58.9955 57.5646C58.9955 57.5646 106.495 50.9192 106.498 50.9192C110.602 50.3448 112.131 47.1055 113.627 43.7396C113.803 43.3443 113.848 42.9336 113.791 42.543C113.991 42.6372 114.104 42.6896 114.104 42.6896C115.418 43.1081 116.329 44.6521 115.716 46.0324Z" fill="#FAE2C0"/>
<path d="M93.628 51.375L80.9283 54.0887L66.7979 69.5819H74.4505L93.628 51.375Z" fill="#FDDEB0"/>
<path d="M93.6275 51.375L74.451 69.5819H66.7974L69.643 66.4615H72.0166C72.5715 66.4615 73.1051 66.2485 73.5074 65.8664L87.3604 52.7137L93.6275 51.375Z" fill="#FCCD7F"/>
<path d="M55.0396 57.6106L44.0654 67.8431H50.2515L63.3094 56.6855L55.0396 57.6106Z" fill="#FDDEB0"/>
<path d="M63.3098 56.6855L50.2522 67.8441H44.0669L47.4467 64.6927H49.795C50.3095 64.6927 50.8065 64.5053 51.1928 64.1655L59.1703 57.1487L63.3098 56.6855Z" fill="#FCCD7F"/>
<path d="M87.6519 42.1855L77.0894 33.1602H69.6348L79.4376 43.977L87.6519 42.1855Z" fill="#FDDEB0"/>
<path d="M87.6517 42.1847L83.9137 42.9999L75.4124 35.7369H71.9708L69.6348 33.1602H77.0892L87.6517 42.1847Z" fill="#FCCD7F"/>
<path d="M47.5387 53.5343L39.1577 36.5195L45.9692 38.6146L56.4235 48.9945L47.5387 53.5343Z" fill="#FDDEB0"/>
<path d="M56.4237 48.9951L53.9086 50.2795L45.2838 41.7165L41.0825 40.4243L39.1587 36.5195L45.9693 38.6147L56.4237 48.9951Z" fill="#FCCD7F"/>
<path d="M92.6881 45.4574L91.7775 45.6272C91.1488 45.7444 90.734 46.3492 90.8512 46.9778C90.9551 47.5349 91.4415 47.9238 91.9884 47.9238C92.0588 47.9238 93.1126 47.7342 93.1126 47.7342C93.7413 47.617 94.156 47.0122 94.0388 46.3836C93.9215 45.7549 93.3173 45.3399 92.6881 45.4574Z" fill="#432513"/>
<path d="M80.4384 47.7406L78.5487 48.0929C77.92 48.2103 77.5054 48.8149 77.6226 49.4436C77.7265 50.0006 78.2129 50.3895 78.7598 50.3895C78.8302 50.3895 80.8632 50.0174 80.8632 50.0174C81.4919 49.9 81.9064 49.2954 81.7893 48.6667C81.6721 48.038 81.0671 47.6231 80.4384 47.7406Z" fill="#432513"/>
<path d="M87.0531 46.5064L85.1634 46.8587C84.5347 46.976 84.1202 47.5807 84.2373 48.2094C84.3413 48.7663 84.8276 49.1553 85.3745 49.1553C85.4449 49.1553 87.4779 48.7831 87.4779 48.7831C88.1066 48.6658 88.5212 48.0612 88.404 47.4325C88.2867 46.8036 87.6822 46.3884 87.0531 46.5064Z" fill="#432513"/>
<path d="M116.751 43.6523C116.323 42.7013 115.499 41.9437 114.535 41.6108C113.915 41.3198 109.289 39.1654 106.782 38.3925C104.753 37.7665 102.942 37.6634 101.084 38.0689C101.081 38.0693 95.4676 39.2937 87.9674 40.9294L77.842 32.2776C77.6323 32.0985 77.3655 32 77.0897 32H69.6351C69.1772 32 68.7622 32.2699 68.5766 32.6888C68.391 33.1075 68.4696 33.5962 68.7771 33.9356L77.2363 43.2697C69.7412 44.9043 62.0572 46.5802 56.7926 47.7283L46.7854 37.7928C46.6523 37.6608 46.4893 37.5629 46.31 37.5076L39.4985 35.4124C39.0566 35.2768 38.5764 35.4163 38.2766 35.7683C37.9769 36.12 37.915 36.6164 38.1191 37.0311L45.996 53.0222L44.0289 54.0274C43.975 54.055 43.9233 54.0867 43.8744 54.1223C43.1578 54.6437 42.7988 55.5115 42.9373 56.3869C43.0758 57.2624 43.6854 57.9769 44.5281 58.2518C44.5567 58.261 44.5855 58.2692 44.6147 58.2762L50.9762 59.8163L43.2767 66.9956C42.9288 67.3202 42.8146 67.8243 42.989 68.2669C43.1634 68.7094 43.5907 69.0005 44.0665 69.0005H50.2523C50.5281 69.0005 50.7949 68.902 51.0046 68.7229L53.225 66.8258C53.7112 66.4104 53.7687 65.6793 53.3533 65.1931C52.9378 64.7068 52.2069 64.6495 51.7207 65.065L49.8251 66.6845H47.0062L55.5497 58.7182L59.6899 58.2552L55.7722 61.6027C55.2859 62.018 55.2285 62.7491 55.644 63.2353C56.0595 63.7215 56.7904 63.7788 57.2766 63.3635L59.4148 61.5365C65.0671 60.7458 70.0672 60.0464 74.4909 59.4275L65.9424 68.8005C65.6332 69.1393 65.5533 69.6287 65.7385 70.0484C65.9238 70.4681 66.3393 70.7389 66.7979 70.7389H74.4506C74.7473 70.7389 75.0327 70.6251 75.2479 70.4207L88.9588 57.4036C108.277 54.7013 108.428 54.6802 108.428 54.6802C113.451 53.9775 115.294 49.832 116.774 46.5008C117.177 45.5946 117.169 44.583 116.751 43.6523ZM72.2474 34.3163H76.6624L85.1271 41.549C84.4926 41.6874 79.8459 42.7007 79.8459 42.7007L72.2474 34.3163ZM41.3828 38.4152L45.3563 39.6374L54.4741 48.6902L48.0588 51.9681L41.3828 38.4152ZM73.9886 68.423H69.4215L81.5337 55.1428L89.8483 53.3659L73.9886 68.423ZM114.658 45.5605C112.966 49.3671 111.596 51.8986 108.107 52.3867C108.08 52.3904 100.813 53.4071 91.8479 54.6612L94.4255 52.2141C94.8016 51.857 94.8944 51.2932 94.6526 50.8344C94.4108 50.3755 93.8939 50.1332 93.3861 50.2418L80.6863 52.9555C80.4501 53.0059 80.2356 53.1291 80.0728 53.3076L76.9357 56.7471C71.2882 57.5372 66.1139 58.261 62.6876 58.7403L64.0624 57.5656C64.449 57.235 64.5748 56.6911 64.3726 56.2243C64.1701 55.7577 63.687 55.4767 63.1815 55.5343L54.9115 56.4592C54.6642 56.4868 54.4324 56.5933 54.2505 56.763L53.0048 57.9244L45.2309 56.0423C45.2272 56.037 45.2246 56.0262 45.2241 56.0173L56.8171 50.0937C59.6149 49.4835 101.515 40.3452 101.576 40.3319C103.029 40.0148 104.467 40.102 106.1 40.6055C107.202 40.9455 108.801 41.5981 110.241 42.2201L97.3023 44.5972C96.6733 44.7129 96.257 45.3164 96.3726 45.9454C96.4752 46.5036 96.9621 46.8944 97.5103 46.8944C97.5798 46.8944 113.976 43.8888 113.976 43.8888C114.259 44.0418 114.502 44.2984 114.638 44.6009C114.74 44.829 114.827 45.1802 114.658 45.5605Z" fill="#432513"/>
<path d="M73.8245 48.973L71.9348 49.3254C71.3061 49.4427 70.8915 50.0473 71.0087 50.6761C71.1126 51.233 71.599 51.6219 72.1459 51.6219C72.2163 51.6219 74.2491 51.2498 74.2491 51.2498C74.8778 51.1325 75.2924 50.5278 75.1752 49.8991C75.058 49.2704 74.4538 48.8555 73.8245 48.973Z" fill="#432513"/>
<path d="M67.2105 50.2075L65.3208 50.5599C64.6921 50.6772 64.2775 51.2818 64.3947 51.9106C64.4986 52.4675 64.985 52.8564 65.5319 52.8564C65.6023 52.8564 67.6352 52.4843 67.6352 52.4843C68.264 52.367 68.6785 51.7623 68.5613 51.1336C68.4442 50.5049 67.8394 50.0896 67.2105 50.2075Z" fill="#432513"/>
<path d="M60.5967 51.4396L59.686 51.6096C59.0573 51.727 58.6428 52.3317 58.7601 52.9605C58.864 53.5172 59.3504 53.9062 59.8971 53.9062C59.9675 53.9062 61.0214 53.7164 61.0214 53.7164C61.6502 53.5991 62.0647 52.9943 61.9474 52.3656C61.83 51.737 61.2248 51.3229 60.5967 51.4396Z" fill="#432513"/>
<path d="M27.929 158.444C29.7102 158.444 31.3069 159.181 32.3937 160.347C33.951 156.631 37.8103 154 42.3278 154C48.2218 154 53 158.477 53 164H22C22 160.932 24.6545 158.444 27.929 158.444Z" fill="#D3E1F5"/>
<path d="M27.7538 159C28.9412 159 30.0501 159.31 31 159.852C30.1577 160.778 29.4765 161.839 28.9994 163C27.8345 161.732 26.1252 160.93 24.2188 160.93C23.802 160.93 23.3944 160.968 23 161.043C24.1605 159.79 25.8608 159 27.7538 159Z" fill="#C0D6F2"/>
<path d="M53 164H49.4366C48.5194 159.322 44.0407 155.772 38.6515 155.772C37.3713 155.772 36.1428 155.972 35 156.343C36.9031 154.88 39.3605 154 42.0433 154C48.094 154 53 158.477 53 164Z" fill="#C0D6F2"/>
<path d="M18.5787 166H56.4211C57.2931 166 58 165.288 58 164.409C58 163.531 57.2931 162.819 56.4211 162.819H54.5739C54.3248 160.854 53.6162 158.985 52.4847 157.342C51.9878 156.62 51.0042 156.441 50.2872 156.942C49.5708 157.443 49.3928 158.434 49.8902 159.156C50.6523 160.262 51.1573 161.507 51.383 162.819H23.7756C24.4109 161.165 26.0062 159.99 27.869 159.99C29.1337 159.99 30.338 160.542 31.1728 161.504C31.5356 161.922 32.089 162.119 32.6319 162.024C33.1751 161.929 33.6298 161.556 33.8315 161.039C35.2188 157.48 38.5657 155.181 42.3582 155.181C43.1717 155.181 43.978 155.289 44.7546 155.5C45.5965 155.729 46.4635 155.228 46.6909 154.38C46.9185 153.532 46.4205 152.658 45.5786 152.429C44.5335 152.144 43.4499 152 42.358 152C37.9812 152 34.0455 154.277 31.8384 157.947C30.6575 157.21 29.2856 156.808 27.869 156.808C24.2502 156.808 21.2194 159.389 20.4914 162.819H18.5789C17.7069 162.819 17 163.531 17 164.41C16.9996 165.288 17.7067 166 18.5787 166Z" fill="#432513"/>
<path d="M51.0894 3.65573C49.7751 3.65573 48.5971 4.23612 47.7953 5.15372C46.6462 2.2283 43.7988 0.15625 40.4657 0.15625C36.1171 0.15625 32.5916 3.68152 32.5916 8.03036H55.4639C55.4639 5.6143 53.5053 3.65573 51.0894 3.65573Z" fill="#D3E1F5"/>
<path d="M51.0926 4.65625C50.2744 4.65625 49.5103 4.88013 48.8558 5.27215C49.4362 5.9421 49.9055 6.70931 50.2343 7.54909C51.037 6.63211 52.2147 6.05172 53.5284 6.05172C53.8156 6.05172 54.0964 6.07951 54.3682 6.13355C53.5685 5.22738 52.3969 4.65625 51.0926 4.65625Z" fill="#C0D6F2"/>
<path d="M32.592 8.03036H35.1529C35.812 4.34714 39.0307 1.55157 42.9036 1.55157C43.8237 1.55157 44.7066 1.70905 45.5278 2.00087C44.1602 0.849353 42.3941 0.15625 40.4661 0.15625C36.1178 0.156096 32.592 3.68183 32.592 8.03036Z" fill="#C0D6F2"/>
<path d="M57.9045 10.1893H30.1576C29.5183 10.1893 29 9.67102 29 9.03165C29 8.39212 29.5183 7.87395 30.1576 7.87395H31.5121C31.6947 6.44421 32.2143 5.08378 33.0439 3.88811C33.4082 3.36284 34.1294 3.23252 34.6552 3.59691C35.1804 3.96145 35.3109 4.68296 34.9462 5.20808C34.3874 6.01343 34.0172 6.91945 33.8517 7.87395H54.094C53.6282 6.67056 52.4585 5.81487 51.0926 5.81487C50.1653 5.81487 49.2823 6.21662 48.6703 6.91698C48.4042 7.2213 47.9985 7.36474 47.6004 7.29588C47.2021 7.22671 46.8687 6.95481 46.7208 6.57853C45.7036 3.98862 43.2496 2.31539 40.4688 2.31539C39.8724 2.31539 39.2812 2.39351 38.7117 2.54745C38.0944 2.71436 37.4588 2.34905 37.292 1.73191C37.1251 1.11477 37.4903 0.47895 38.1076 0.312197C38.8739 0.105147 39.6684 0 40.469 0C43.6782 0 46.5639 1.65733 48.1822 4.3283C49.0481 3.79207 50.054 3.49964 51.0926 3.49964C53.746 3.49964 55.9683 5.37776 56.5021 7.87426H57.9043C58.5437 7.87426 59.062 8.39258 59.062 9.03195C59.0623 9.67102 58.5438 10.1893 57.9045 10.1893Z" fill="#432513"/>
</svg>
