<svg width="192" height="204" viewBox="0 0 192 204" fill="none" xmlns="http://www.w3.org/2000/svg">
<mask id="mask0_322:15660" style="mask-type:alpha" maskUnits="userSpaceOnUse" x="1" y="1" width="189" height="202">
<ellipse cx="95.5846" cy="101.966" rx="93.8868" ry="100.38" transform="rotate(0.976922 95.5846 101.966)" fill="white"/>
</mask>
<g mask="url(#mask0_322:15660)">
<path d="M171.94 167.437C171.467 149.912 169.737 131.945 161.865 116.05C160.982 114.279 161.396 112.637 162.365 111.425C156.801 102.168 149.698 92.604 140.617 83.7085C140.617 83.7085 118.431 42.6107 105.114 39.2244C105.114 39.2244 82.7846 20.9411 64.1331 38.1043L50.943 49.9548C50.943 49.9548 41.016 59.825 39.9874 78.9737C39.9874 78.9737 36.8894 100.088 36.09 105.796C36.09 105.796 26.4213 137.575 26.8161 161.768C26.8161 161.768 25.0536 232.189 73.3117 236.803C73.3117 236.803 141.667 225.964 158.941 217.482C158.941 217.482 161.204 216.573 164.296 214.309C171.985 199.837 172.402 183.627 171.94 167.437Z" fill="#8FB795"/>
<path d="M148.484 97.8827C148.484 97.8827 147.126 93.1207 144.852 86.5176C144.366 86.1934 143.916 85.7996 143.54 85.2316C137.412 76.1056 130.858 67.2883 124.623 58.2658C119.177 50.3099 111.665 44.109 106.078 36.2559C105.563 35.5451 105.329 34.8391 105.305 34.2068C98.5367 31.7746 90.2608 31.2824 81.2973 36.1142L65.0746 44.6484C65.0746 44.6484 59.2644 47.7788 50.1453 67.9128C50.1453 67.9128 42.3954 88.0351 37.6784 97.0463C37.6772 97.1165 37.6754 97.2218 37.6742 97.292C36.6471 108.121 31.6712 117.9 27.3258 127.76C27.252 127.97 27.1432 128.179 27.07 128.353C25.9209 133.985 24.2471 139.503 22.5728 145.055C22.4241 145.544 22.2063 145.962 21.9547 146.309C21.6016 150.55 21.111 154.614 20.0209 158.842C19.8716 159.366 19.6526 159.854 19.2939 160.304C18.7213 165.069 18.1837 169.833 17.9958 174.674C17.4895 187.9 18.8833 202.912 27.0148 213.933C32.7787 221.754 41.1736 227.619 49.9083 232.085C67.7574 233.162 119.558 235.871 135.696 232.32C135.696 232.32 169.693 227.213 172.081 179.759C172.011 179.758 174.667 137.223 148.484 97.8827Z" fill="#8CBD92"/>
<path d="M27.6793 148.197C27.5383 148.229 27.433 148.228 27.2926 148.225C26.4861 148.176 25.8658 147.499 25.9153 146.657C26.3265 139.012 31.0031 117.959 31.8671 114.639C32.0176 114.045 32.2782 113.172 32.5407 112.194C33.2892 109.468 34.4477 105.346 34.6876 103.63C35.1679 100.163 35.5424 96.7294 35.9145 93.436C36.536 87.8653 37.1956 82.1196 38.2806 76.1355C40.0207 66.7225 42.1784 57.5272 49.5643 48.4562C50.0663 47.8329 51.0156 47.7437 51.6389 48.2458C52.2622 48.7479 52.3513 49.6972 51.8493 50.3205C44.9292 58.8378 42.8483 67.6483 41.1849 76.6765C40.1024 82.5202 39.4826 87.9857 38.8575 93.767C38.4848 97.0955 38.1103 100.529 37.6288 104.066C37.3502 105.992 36.228 110.045 35.4051 113.015C35.1427 113.993 34.8827 114.831 34.7321 115.425C33.9062 118.571 29.2665 139.518 28.8607 146.848C28.7791 147.513 28.3133 148.067 27.6793 148.197Z" fill="#4B2E1A"/>
<path d="M160.361 107.494C160.469 107.285 160.613 107.112 160.721 106.938C156.474 100.758 152.151 94.8569 150.983 93.3978C150.605 92.8999 150.02 92.223 149.402 91.4051C147.614 89.1982 144.933 85.8879 144.045 84.3984C142.236 81.3838 140.497 78.4055 138.861 75.5343C136.065 70.6775 133.202 65.6441 129.813 60.6368C124.472 52.6826 118.809 45.1091 108.44 39.7371C107.709 39.3736 106.827 39.6394 106.464 40.3703C106.1 41.1013 106.366 41.9834 107.097 42.3469C116.839 47.4274 122.262 54.6809 127.362 62.2799C130.683 67.2159 133.411 71.9662 136.308 77.0002C137.979 79.9071 139.683 82.9199 141.527 85.9351C142.551 87.6024 145.199 90.8771 147.124 93.2618C147.742 94.0446 148.292 94.7209 148.67 95.2188C149.838 96.7131 154.709 103.36 159.161 109.895C159.562 109.06 159.961 108.259 160.361 107.494Z" fill="#4B2E1A"/>
<path d="M61.687 41.5723C61.1939 41.6692 60.6348 41.5193 60.2904 41.1273C59.7391 40.5211 59.7898 39.6093 60.3959 39.058C64.7104 35.1298 70.7156 32.9154 75.3355 31.6603C80.4485 30.3083 87.2118 30.9853 91.7982 31.6953C92.6036 31.8144 93.1525 32.5609 93.0334 33.3662C92.9144 34.1716 92.1328 34.7199 91.3625 34.6014C86.9516 33.8944 80.6784 33.2959 76.1293 34.5172C71.968 35.6397 66.3529 37.6151 62.4299 41.234C62.1462 41.4046 61.8987 41.5057 61.687 41.5723Z" fill="#4B2E1A"/>
<path d="M72.5238 235.666C60.7285 235.71 49.5494 234.607 41.9443 229.773C23.2958 217.942 19.8438 204.228 17.7337 190.045C15.528 175.299 19.0805 148.12 23.6648 134.543C23.9236 133.775 24.773 133.369 25.5409 133.627C26.3087 133.886 26.7155 134.736 26.4567 135.504C22.0181 148.767 18.5121 175.28 20.6542 189.639C23.1447 206.215 27.5219 217.136 43.5309 227.308C52.3517 232.9 66.8801 233.147 81.2831 232.515L111.509 232.364C125.964 232.821 140.503 232.437 149.235 226.759C165.102 216.428 169.396 205.479 171.716 188.845C173.716 174.487 169.955 147.99 165.371 134.783C165.104 134.006 165.504 133.171 166.281 132.903C167.058 132.636 167.894 133.036 168.161 133.813C172.845 147.337 176.699 174.502 174.658 189.246C172.661 203.429 169.337 217.202 150.878 229.209C141.437 235.331 126.37 235.776 111.495 235.277L81.3738 235.43C78.3879 235.555 75.4377 235.645 72.5238 235.666Z" fill="#4B2E1A"/>
<path d="M49.8707 53.1306C46.1571 50.6452 40.8749 43.3941 43.1689 38.5539C45.573 33.4347 52.6192 36.0472 56.095 38.0722C58.2504 39.3025 60.1227 40.6683 61.8819 42.4886" fill="#F6FBF7"/>
<path d="M50.1976 54.5405C49.8098 54.6392 49.425 54.5625 49.0782 54.3108C45.1213 51.6808 39.1147 43.6802 41.8466 37.8646C42.648 36.1582 44.0025 34.9527 45.7316 34.4206C49.9667 33.0887 55.2898 35.8824 56.8546 36.7515C59.3228 38.1626 61.2635 39.635 62.9531 41.4189C63.505 41.99 63.4889 42.9375 62.9178 43.4894C62.3468 44.0413 61.3992 44.0251 60.8473 43.4541C59.3296 41.8837 57.6316 40.591 55.4066 39.3245C52.9038 37.8777 49.1015 36.4789 46.6663 37.2448C45.7134 37.5444 45.0008 38.1641 44.5629 39.1396C42.6693 43.1441 47.5762 49.7569 50.735 51.8468C51.4291 52.3149 51.5896 53.1952 51.1565 53.8899C50.8692 54.2712 50.5497 54.4763 50.1976 54.5405Z" fill="#4B2E1A"/>
<path d="M107.965 40.8171C110.312 36.9958 112.077 28.2151 107.993 24.7756C103.668 21.1213 98.3818 26.437 96.0445 29.6968C94.6061 31.7083 93.4478 33.7596 92.6357 36.0977" fill="#F6FBF7"/>
<path d="M108.257 42.2612C107.905 42.3254 107.519 42.2837 107.172 42.0671C106.477 41.6341 106.282 40.7181 106.68 40.0228C108.702 36.7576 110.383 28.7477 107.027 25.8822C106.196 25.166 105.323 24.9054 104.303 25.0284C101.77 25.3362 98.8782 28.2004 97.1882 30.5586C95.6778 32.6742 94.6629 34.5524 93.9608 36.6115C93.702 37.3794 92.8526 37.7861 92.0847 37.5273C91.3169 37.2685 90.9101 36.4191 91.169 35.6512C91.9805 33.3483 93.1406 31.1917 94.7949 28.868C95.8377 27.4114 99.5337 22.7005 103.931 22.1436C105.725 21.9285 107.471 22.4497 108.925 23.668C113.839 27.8237 111.707 37.546 109.18 41.6099C109 41.9228 108.645 42.1625 108.257 42.2612Z" fill="#4B2E1A"/>
<path d="M105.383 68.7508C101.366 69.6301 97.3083 66.7526 96.3654 62.3487C95.4225 57.9447 97.883 53.6339 101.9 52.7546C105.916 51.8753 112.909 55.5751 113.886 60.0498C114.861 64.5947 109.505 67.8733 105.383 68.7508ZM102.323 54.6925C99.3633 55.3441 97.553 58.5778 98.3032 61.9254C99.0184 65.2724 102.035 67.4651 104.994 66.8486C108.341 66.1334 112.633 63.5037 111.982 60.5088C111.232 57.1612 105.353 54.0421 102.323 54.6925Z" fill="#A6D4AD"/>
<path d="M62.1863 78.1583C58.2046 79.0381 51.8726 77.7718 50.897 73.2268C49.9196 68.7872 54.6161 63.0402 58.703 62.1621C62.7198 61.2828 66.7777 64.1603 67.7206 68.5642C68.6629 73.0032 66.203 77.279 62.1863 78.1583ZM59.1263 64.1C56.0256 64.7843 52.1179 69.5619 52.7992 72.838C53.4829 75.9739 58.5558 76.973 61.7618 76.2906C64.7215 75.639 66.5318 72.4053 65.7815 69.0577C65.0675 65.6405 62.0861 63.4484 59.1263 64.1Z" fill="#A6D4AD"/>
<path d="M92.2436 120.863C91.434 120.99 90.671 120.45 90.5444 119.641L89.2759 111.686C89.1493 110.876 89.6888 110.113 90.4984 109.987C91.3079 109.86 92.071 110.4 92.1976 111.209L93.466 119.164C93.5926 119.974 93.0531 120.737 92.2436 120.863Z" fill="#FBC93F"/>
<path d="M99.8402 128.26L87.8721 130.197C87.3439 130.294 86.8211 130.074 86.4768 129.682C86.1331 129.255 86.0718 128.727 86.2563 128.204L90.4388 117.604C90.6226 117.116 91.0497 116.772 91.5422 116.71C92.0704 116.614 92.5587 116.798 92.9031 117.19L100.724 125.853C101.068 126.245 101.199 126.809 101.014 127.332C100.795 127.82 100.368 128.199 99.8402 128.26ZM89.9293 126.898L96.6874 125.819L92.2781 120.9L89.9293 126.898Z" fill="#FBC93F"/>
<path d="M101.094 132.916L88.352 134.98C87.5424 135.107 86.7794 134.567 86.6528 133.758C86.5262 132.948 87.0657 132.185 87.8752 132.059L100.618 129.994C101.427 129.868 102.19 130.407 102.317 131.217C102.444 132.026 101.904 132.789 101.094 132.916Z" fill="#FBC93F"/>
<path d="M102.487 137.748L99.6001 138.225C99.1427 138.287 98.7263 137.999 98.6288 137.541C98.5664 137.084 98.8544 136.668 99.3124 136.57L102.199 136.093C102.656 136.03 103.073 136.318 103.17 136.776C103.268 137.234 102.945 137.65 102.487 137.748Z" fill="#4B2E1A"/>
<path d="M94.6368 139.019L91.8912 139.463C91.4338 139.526 91.0175 139.238 90.92 138.78C90.8576 138.322 91.1455 137.906 91.6035 137.808L94.3491 137.364C94.8065 137.301 95.2228 137.589 95.3203 138.047C95.3827 138.505 95.0948 138.921 94.6368 139.019Z" fill="#4B2E1A"/>
<path d="M104.456 149.857L101.57 150.334C101.112 150.397 100.696 150.109 100.598 149.651C100.536 149.193 100.824 148.777 101.282 148.68L104.168 148.202C104.626 148.14 105.042 148.428 105.14 148.886C105.202 149.343 104.914 149.759 104.456 149.857Z" fill="#4B2E1A"/>
<path d="M102.98 150.008C102.522 150.071 102.106 149.783 102.008 149.325L100.071 137.357C100.009 136.899 100.297 136.483 100.755 136.386C101.212 136.323 101.628 136.611 101.726 137.069L103.663 149.037C103.761 149.495 103.438 149.911 102.98 150.008Z" fill="#4B2E1A"/>
<path d="M95.2709 151.245C94.8134 151.307 94.3971 151.019 94.2996 150.561L92.3624 138.593C92.3 138.136 92.5879 137.719 93.0459 137.622C93.5033 137.559 93.9197 137.847 94.0172 138.305L95.9544 150.273C96.0168 150.731 95.7283 151.182 95.2709 151.245Z" fill="#4B2E1A"/>
<path d="M90.2626 152.634C89.8052 152.696 89.3889 152.408 89.2914 151.95L87.2609 139.279C87.1985 138.821 87.4864 138.405 87.9444 138.307C88.4018 138.245 88.8181 138.533 88.9156 138.991L90.9461 151.663C91.0085 152.12 90.7206 152.536 90.2626 152.634Z" fill="#4B2E1A"/>
<path d="M101.359 150.332L98.0154 150.872C97.558 150.934 97.1416 150.646 97.0441 150.188L95.1075 138.185C95.0451 137.728 95.3331 137.311 95.7911 137.214C96.2485 137.151 96.6648 137.439 96.7623 137.897L98.5723 149.091L101.107 148.678C101.564 148.615 101.98 148.903 102.078 149.361C102.105 149.853 101.817 150.269 101.359 150.332Z" fill="#4B2E1A"/>
<path d="M89.5643 146.197C89.1069 146.259 88.6906 145.972 88.5931 145.514C88.5307 145.056 88.8186 144.64 89.2766 144.542C90.3681 144.35 91.0903 143.169 90.8662 141.902C90.6421 140.634 89.6048 139.704 88.5134 139.896C88.056 139.958 87.6396 139.67 87.5421 139.212C87.4797 138.755 87.7677 138.338 88.2257 138.241C90.2319 137.924 92.1369 139.431 92.4858 141.613C92.9043 143.832 91.5706 145.88 89.5643 146.197Z" fill="#4B2E1A"/>
<path d="M90.6136 152.64C90.1562 152.703 89.7399 152.415 89.6424 151.957C89.58 151.499 89.8679 151.083 90.3259 150.986C91.4174 150.794 92.1396 149.612 91.9155 148.345C91.6914 147.077 90.6542 146.147 89.5627 146.339C89.1053 146.401 88.689 146.114 88.5915 145.656C88.5291 145.198 88.817 144.782 89.275 144.684C91.2813 144.367 93.1862 145.874 93.5351 148.057C93.9536 150.275 92.6199 152.324 90.6136 152.64Z" fill="#4B2E1A"/>
<path d="M34.4507 111.349C34.4507 111.349 5.83242 155.126 43.4872 182.517C43.4872 182.517 74.1043 198.554 89.6189 175.967C89.6189 175.967 98.3922 151.404 70.914 150.97C70.914 150.97 36.5316 154 41.7341 126.813" fill="#8CBD92"/>
<path d="M34.4507 111.349C34.4507 111.349 5.83243 155.126 43.4872 182.517C43.4872 182.517 74.1043 198.554 89.6189 175.967C89.6189 175.967 98.3922 151.404 70.914 150.97C70.914 150.97 36.5316 154 41.7341 126.813" stroke="#4B2E1A" stroke-width="2.83256" stroke-miterlimit="10" stroke-linecap="round" stroke-linejoin="round"/>
<path d="M35.6585 170.202C35.6585 170.202 33.3275 158.684 48.2143 156.446C48.2143 156.446 54.6197 155.467 58.4087 153.53C58.4087 153.53 66.7834 148.232 78.9292 152.336C78.9292 152.336 98.0515 161.086 87.6586 179.76C87.6586 179.76 72.554 194.772 47.767 184.731C47.6962 184.765 35.6604 180.382 35.6585 170.202Z" fill="#F6FBF7"/>
<path d="M34.4507 111.349C34.4507 111.349 5.83243 155.126 43.4872 182.517C43.4872 182.517 74.1043 198.554 89.6189 175.967C89.6189 175.967 98.3922 151.404 70.914 150.97C70.914 150.97 36.5316 154 41.7341 126.813" stroke="#4B2E1A" stroke-width="2.83256" stroke-miterlimit="10" stroke-linecap="round" stroke-linejoin="round"/>
<path d="M155.847 102.502C155.847 102.502 188.391 143.46 153.396 174.211C153.396 174.211 124.396 192.988 106.853 171.943C106.853 171.943 95.8479 148.271 123.173 145.332C123.173 145.332 157.682 145.183 150.026 118.585" fill="#8CBD92"/>
<path d="M155.847 102.502C155.847 102.502 188.391 143.46 153.396 174.211C153.396 174.211 124.396 192.988 106.853 171.943C106.853 171.943 95.8479 148.271 123.173 145.332C123.173 145.332 157.682 145.183 150.026 118.585" stroke="#4B2E1A" stroke-width="2.83256" stroke-miterlimit="10" stroke-linecap="round" stroke-linejoin="round"/>
<path d="M160.076 161.197C160.076 161.197 161.328 149.529 146.319 148.641C146.319 148.641 139.867 148.25 135.892 146.673C135.892 146.673 127.089 142.135 115.345 147.376C115.345 147.376 97.0886 157.841 109.179 175.493C109.179 175.493 125.587 189.042 149.35 176.775C149.385 176.776 160.991 171.357 160.076 161.197Z" fill="#F6FBF7"/>
<path d="M155.847 102.502C155.847 102.502 188.391 143.46 153.396 174.211C153.396 174.211 124.396 192.988 106.853 171.943C106.853 171.943 95.8479 148.271 123.173 145.332C123.173 145.332 157.682 145.183 150.026 118.585" stroke="#4B2E1A" stroke-width="2.83256" stroke-miterlimit="10" stroke-linecap="round" stroke-linejoin="round"/>
<path d="M113.934 67.526C111.608 68.048 109.657 69.2784 108.259 70.9395C105.873 72.9348 104.626 76.0728 105.309 79.2788C106.155 83.1546 109.585 85.8107 113.515 85.9479C114.913 86.2526 116.422 86.2783 117.937 85.9531C123.258 84.7802 126.679 79.7135 125.607 74.6404C124.5 69.5666 119.254 66.3881 113.934 67.526Z" fill="#A6D4AD"/>
<path d="M51.4183 81.7665C49.092 82.3236 47.1749 83.5897 45.812 85.2865C43.4606 87.3175 42.2832 90.4918 43.0365 93.6639C43.9538 97.5058 47.4545 100.128 51.3504 100.159C52.7493 100.464 54.2589 100.455 55.7745 100.094C61.0968 98.8161 64.4133 93.7125 63.2011 88.637C61.9882 83.5966 56.7401 80.5233 51.4183 81.7665Z" fill="#A6D4AD"/>
<path d="M82.8964 67.9099C77.0126 69.1786 71.8477 71.5126 68.0443 74.2911C61.6309 77.7973 57.8249 82.7872 58.8344 87.4029C60.0377 93.0048 68.0219 96.1949 77.6873 95.4822C81.1246 95.6461 84.851 95.3235 88.6917 94.4763C102.221 91.5478 111.877 83.1824 110.282 75.8538C108.687 68.5252 96.4259 64.9813 82.8964 67.9099Z" fill="#F6FBF7"/>
<path d="M98.8584 72.6056C99.5094 75.6005 93.4766 79.4291 85.408 81.1871C77.3395 82.9451 70.2306 81.9463 69.579 78.9865C68.928 75.9917 74.9608 72.163 83.0294 70.405C91.133 68.6477 98.2068 69.6459 98.8584 72.6056Z" fill="#4B2E1A"/>
<path d="M88.5727 87.0324C75.8534 89.7993 65.8821 85.803 65.2897 85.5472C64.523 85.2182 64.1865 84.37 64.4798 83.6378C64.7737 82.8706 65.657 82.5346 66.3892 82.8279C66.5634 82.9011 85.7751 90.5301 104.233 76.4877C104.873 76.0072 105.819 76.1286 106.299 76.7687C106.78 77.4087 106.658 78.3544 106.018 78.835C100.043 83.4018 94.0343 85.8267 88.5727 87.0324Z" fill="#4B2E1A"/>
<path d="M56.7603 71.115C56.782 73.9588 59.34 76.2841 62.4645 76.2671C65.624 76.2508 68.1563 73.907 68.1346 71.0633C68.1129 68.2196 65.5549 65.8943 62.4304 65.9112C59.306 65.9281 56.7737 68.2719 56.7603 71.115Z" fill="#4B2E1A"/>
<path d="M66.7706 70.7585C66.9543 72.3413 66.2285 73.733 64.9616 73.922C63.6946 74.111 62.0662 72.8547 61.8118 71.3058C61.558 69.7218 62.6347 68.3361 63.901 68.1821C65.1335 67.9574 66.5204 68.964 66.7706 70.7585Z" fill="white"/>
<path d="M61.2184 73.1566C61.3129 73.7901 60.9875 74.3461 60.4249 74.4068C59.8271 74.4668 59.064 73.9272 58.9344 73.2932C58.8048 72.6591 59.2706 72.1054 59.8684 72.0454C60.4305 72.0199 61.09 72.4523 61.2184 73.1566Z" fill="white"/>
<path d="M60.5031 69.7752C60.6006 70.233 60.3128 70.6491 59.7854 70.7103C59.2932 70.7721 58.6333 70.3749 58.5358 69.9171C58.4384 69.4593 58.8314 69.045 59.3588 68.9838C59.8504 68.9571 60.4069 69.2473 60.5031 69.7752Z" fill="white"/>
<path d="M108.903 62.0348C108.811 59.1899 106.181 56.9335 103.055 57.0557C99.9294 57.1429 97.431 59.5575 97.5229 62.4024C97.6148 65.2473 100.244 67.5036 103.37 67.3814C106.531 67.2949 108.994 64.8797 108.903 62.0348Z" fill="#4B2E1A"/>
<path d="M99.375 62.8898C99.1551 61.3766 99.8458 59.9843 101.078 59.7947C102.309 59.605 103.905 60.7555 104.195 62.2348C104.485 63.7492 103.479 65.1362 102.247 65.3258C101.015 65.5505 99.6264 64.6141 99.375 62.8898Z" fill="white"/>
<path d="M104.442 60.0987C104.313 59.4646 104.638 58.9085 105.201 58.8128C105.799 58.7528 106.563 59.2572 106.728 59.8568C106.893 60.4915 106.427 61.0452 105.829 61.1403C105.265 61.236 104.57 60.838 104.442 60.0987Z" fill="white"/>
<path d="M105.227 63.4817C105.13 63.0239 105.418 62.5727 105.91 62.5109C106.403 62.4492 107.063 62.8113 107.196 63.2697C107.328 63.7281 106.9 64.1769 106.407 64.2387C105.916 64.2654 105.324 64.0097 105.227 63.4817Z" fill="white"/>
<path d="M139.908 47.0487C140.638 45.4464 141.403 43.8096 142.758 42.569C144.077 41.3629 146.126 40.6255 147.976 41.2187C150.105 41.922 151.259 44.2585 151.014 46.2903C150.769 48.3221 149.405 50.054 147.871 51.5021C145.267 53.9149 142.043 55.6853 138.819 57.4206" fill="#DD282E"/>
<path d="M142.567 47.5852C142.632 45.8312 142.663 44.0063 142.025 42.3105C141.387 40.6147 139.869 39.0443 137.978 38.8014C135.737 38.4824 133.674 40.0619 132.974 41.9807C132.274 43.8994 132.694 46.0829 133.467 48.0619C134.709 51.3827 136.834 54.4027 138.889 57.4215" fill="#DD282E"/>
<path d="M128.692 23.4074C128.432 22.2095 128.172 21.0116 128.403 19.7869C128.635 18.5622 129.463 17.3127 130.734 16.878C132.217 16.3767 133.818 17.2114 134.534 18.4171C135.25 19.6579 135.225 21.1669 134.954 22.6015C134.527 25.0164 133.47 27.3151 132.413 29.6139" fill="#DD282E"/>
<path d="M130.391 22.5943C129.706 21.5997 128.986 20.5695 127.909 19.9192C126.867 19.2696 125.362 19.0333 124.228 19.6459C122.881 20.3952 122.361 22.1063 122.794 23.4827C123.227 24.824 124.333 25.8609 125.583 26.6194C127.667 27.9537 130.076 28.7319 132.449 29.5096" fill="#DD282E"/>
<path d="M145.887 27.8792C146.147 27.0061 146.443 26.1336 147.051 25.4419C147.66 24.7502 148.652 24.2406 149.596 24.4322C150.715 24.6619 151.469 25.7629 151.451 26.8157C151.468 27.8691 150.89 28.8421 150.174 29.6724C148.992 31.0563 147.464 32.1536 145.971 33.2514" fill="#DD282E"/>
<path d="M147.254 27.9725C147.165 27.0583 147.075 26.1441 146.632 25.3292C146.19 24.5143 145.324 23.8326 144.342 23.7807C143.184 23.761 142.22 24.6923 141.992 25.7064C141.764 26.7205 142.132 27.815 142.608 28.7358C143.458 30.3299 144.697 31.7552 145.937 33.1453" fill="#DD282E"/>
<path d="M134.625 41.9022C134.267 44.3884 134.784 46.9948 136.046 49.1576C136.625 50.1855 138.22 49.3 137.641 48.2721C136.516 46.3223 136.132 44.1393 136.45 41.9333C136.529 41.4432 136.009 41.0131 135.553 41.0053C134.992 40.9957 134.704 41.4121 134.625 41.9022Z" fill="white"/>
<path d="M124.678 22.0763C124.73 23.1303 125.17 24.0856 125.895 24.8351C126.584 25.584 127.524 26.0564 128.466 26.3884C128.92 26.5365 129.487 26.2303 129.6 25.7759C129.713 25.2864 129.475 24.826 128.987 24.6421C128.882 24.6052 128.778 24.5683 128.708 24.5321C128.673 24.5315 128.603 24.4952 128.568 24.4946C128.429 24.422 128.708 24.5671 128.603 24.4952C128.429 24.422 128.256 24.3137 128.082 24.2054C127.908 24.0972 127.735 23.9889 127.596 23.8812C127.457 23.7736 127.631 23.8818 127.63 23.9169C127.631 23.8818 127.526 23.8449 127.527 23.8099C127.458 23.7385 127.389 23.6671 127.285 23.5951C127.216 23.5237 127.147 23.4523 127.113 23.3816C127.079 23.3459 127.044 23.3102 127.045 23.2751C126.941 23.168 127.045 23.24 127.079 23.3108C126.977 23.1335 126.874 22.9913 126.772 22.8141C126.737 22.7784 126.738 22.7433 126.703 22.7076C126.636 22.5309 126.77 22.9194 126.703 22.7427C126.669 22.6719 126.635 22.566 126.637 22.4959C126.603 22.4251 126.605 22.3198 126.571 22.249C126.571 22.2139 126.571 22.2139 126.572 22.1788C126.573 22.1086 126.572 22.1437 126.57 22.2841C126.571 22.249 126.572 22.1788 126.573 22.1086C126.546 21.6518 126.203 21.1546 125.676 21.1807C125.149 21.2068 124.651 21.5844 124.678 22.0763Z" fill="white"/>
<path d="M143.294 25.5175C143.166 26.8843 143.669 28.2619 144.564 29.2952C144.771 29.5093 145.157 29.5159 145.371 29.3089C145.586 29.0669 145.591 28.7511 145.385 28.5018C145.178 28.2877 145.11 28.1461 144.939 27.8624C144.871 27.7208 144.803 27.6143 144.735 27.4728C144.736 27.4377 144.701 27.402 144.702 27.3669C144.736 27.4026 144.736 27.4026 144.702 27.3669C144.668 27.2961 144.669 27.2259 144.635 27.1551C144.435 26.555 144.406 26.1683 144.452 25.5373C144.492 25.2571 144.182 24.9359 143.9 24.9662C143.549 24.9602 143.335 25.2023 143.294 25.5175Z" fill="white"/>
</g>
</svg>
