<svg width="214" height="206" viewBox="0 0 214 206" fill="none" xmlns="http://www.w3.org/2000/svg">
<g clip-path="url(#clip0_584_18405)">
<path d="M27.4653 178.086C28.2627 159.839 30.3771 141.157 38.8749 124.71C39.8151 122.892 39.4273 121.151 38.4323 119.896C44.395 110.359 51.982 100.493 61.5809 91.3846C61.5809 91.3846 85.4318 48.954 99.3583 45.6581C99.3583 45.6581 122.949 27.02 142.078 45.2008L155.602 57.7665C155.602 57.7665 165.764 68.225 166.492 88.213C166.492 88.213 169.36 110.279 170.062 116.234C170.062 116.234 179.581 149.516 178.725 174.742C178.725 174.742 179.314 248.179 128.941 252.093C128.941 252.093 57.8898 239.564 40.0492 230.452C40.0492 230.452 37.7263 229.464 34.5364 227.057C26.8543 211.85 26.7263 194.939 27.4653 178.086Z" fill="#8FB795"/>
<path d="M53.1716 106.003C53.1716 106.003 54.6751 101.083 57.1626 94.2168C57.6711 93.9022 58.143 93.4669 58.5418 92.8925C65.0861 83.4985 72.0878 74.4337 78.7309 65.1128C84.562 56.9296 92.4928 50.601 98.4665 42.5202C99.0042 41.7923 99.264 41.0716 99.3079 40.3876C106.397 37.9842 115.034 37.6074 124.3 42.8165L141.065 51.9984C141.065 51.9984 147.05 55.3493 156.214 76.5151C156.214 76.5151 163.943 97.6225 168.677 107.112C168.68 107.203 168.677 107.291 168.684 107.386C169.577 118.701 174.592 128.987 178.934 139.318C179.022 139.53 179.113 139.742 179.205 139.954C180.313 145.847 181.959 151.609 183.598 157.433C183.741 157.941 183.957 158.369 184.205 158.75C184.491 163.18 184.944 167.43 186.005 171.842C186.137 172.391 186.389 172.914 186.726 173.375C187.249 178.357 187.714 183.336 187.823 188.359C188.127 202.15 186.389 217.77 177.742 229.103C171.596 237.154 162.74 243.113 153.565 247.62C134.964 248.421 80.9258 250.331 64.1789 246.347C64.1789 246.347 28.8269 240.435 27.1917 190.93C27.1844 190.923 25.1797 146.539 53.1716 106.003Z" fill="#8CBD92"/>
<path d="M178.178 160.593C178.309 160.623 178.448 160.637 178.587 160.634C179.436 160.601 180.098 159.887 180.065 159.042C179.765 151.068 175.262 129.042 174.417 125.589C174.263 124.96 174.029 124.06 173.762 123.028C173.02 120.179 171.9 115.877 171.684 114.069C171.249 110.437 170.913 106.863 170.587 103.406C170.038 97.5933 169.471 91.5793 168.429 85.3532C166.783 75.5092 164.686 65.8811 157.18 56.3041C156.657 55.6347 155.691 55.5176 155.022 56.0407C154.352 56.5638 154.239 57.5296 154.762 58.199C161.822 67.209 163.823 76.4238 165.4 85.8617C166.424 91.9781 166.958 97.6738 167.529 103.699C167.858 107.174 168.198 110.766 168.637 114.439C168.879 116.447 169.983 120.698 170.792 123.804C171.055 124.817 171.286 125.702 171.436 126.321C172.237 129.602 176.711 151.536 177 159.163C177.022 159.862 177.523 160.44 178.178 160.593Z" fill="#4B2E1A"/>
<path d="M40.6097 115.803C40.4963 115.583 40.3682 115.389 40.2365 115.203C44.7689 108.849 49.3892 102.765 50.6183 101.254C51.028 100.75 51.6243 100.04 52.3083 99.2242C54.2032 96.9708 57.0602 93.5614 58.0296 92.025C59.9831 88.9302 61.8194 85.8464 63.5973 82.8651C66.5896 77.8498 69.6807 72.6626 73.295 67.4827C79.0053 59.2995 85.0302 51.504 95.9204 46.0717C96.6777 45.6913 97.5995 46.0022 97.9836 46.7594C98.3604 47.5203 98.0531 48.4422 97.2959 48.819C87.0532 53.9257 81.288 61.3919 75.8154 69.2386C72.267 74.327 69.3369 79.2362 66.2384 84.4344C64.4496 87.4304 62.6023 90.5325 60.6306 93.6602C59.5514 95.3722 56.7273 98.7377 54.6642 101.192C53.9911 101.993 53.4021 102.692 52.9997 103.19C51.745 104.73 46.5797 111.548 41.8132 118.287C41.4291 117.456 41.0377 116.622 40.6097 115.803Z" fill="#4B2E1A"/>
<path d="M144.635 48.871C145.151 48.9917 145.718 48.8417 146.105 48.432C146.687 47.8138 146.658 46.8407 146.043 46.2591C141.62 42.0852 135.413 39.6781 130.606 38.3027C125.302 36.7846 118.238 37.3699 113.453 38.043C112.612 38.16 112.026 38.9392 112.143 39.7769C112.264 40.6146 113.04 41.1999 113.877 41.0829C118.468 40.439 125.02 39.894 129.761 41.2511C134.077 42.4876 139.883 44.6678 143.936 48.4906C144.137 48.6881 144.379 48.8125 144.635 48.871Z" fill="#4B2E1A"/>
<path d="M129.885 250.948C142.158 251.219 153.846 250.242 161.868 245.337C181.476 233.338 185.321 219.115 187.793 204.377C190.365 189.064 187.12 160.655 182.61 146.436C182.354 145.627 181.49 145.177 180.682 145.437C179.874 145.693 179.424 146.557 179.68 147.365C184.088 161.259 187.267 188.965 184.764 203.868C181.867 221.113 177.108 232.409 160.266 242.718C150.982 248.399 135.83 248.373 120.843 247.491L89.3388 246.793C74.2673 247.009 59.13 246.365 50.1091 240.278C33.739 229.234 29.4846 217.736 27.3556 200.382C25.5156 185.384 29.9199 157.846 34.9389 144.161C35.2315 143.363 34.8218 142.481 34.0244 142.189C33.2269 141.892 32.3453 142.306 32.0526 143.1C26.9166 157.107 22.4171 185.34 24.3084 200.755C26.1301 215.589 29.3383 229.969 48.3934 242.824C58.1167 249.383 73.8137 250.085 89.3315 249.866L120.722 250.561C123.776 250.736 126.849 250.879 129.885 250.948Z" fill="#4B2E1A"/>
<path d="M156.723 61.11C160.648 58.5895 166.256 51.1233 163.966 46.0385C161.548 40.6684 154.177 43.2693 150.493 45.3069C148.222 46.5616 146.235 47.9444 144.395 49.7881" fill="#F6FBF7"/>
<path d="M156.371 62.6065C156.762 62.698 157.186 62.6394 157.552 62.4053C161.741 59.7202 168.117 51.5151 165.366 45.4133C164.554 43.6099 163.171 42.3369 161.368 41.7369C156.974 40.259 151.366 43.0721 149.749 43.9684C147.156 45.4024 145.107 46.9058 143.307 48.7093C142.708 49.3092 142.708 50.2823 143.307 50.8822C143.907 51.4858 144.88 51.4822 145.48 50.8822C147.094 49.269 148.868 47.9667 151.235 46.6608C153.868 45.2048 157.852 43.8038 160.395 44.6561C161.39 44.989 162.099 45.6511 162.564 46.679C164.455 50.8786 159.246 57.6717 155.888 59.8263C155.174 60.2836 154.966 61.2347 155.423 61.948C155.654 62.2882 155.994 62.5187 156.371 62.6065Z" fill="#4B2E1A"/>
<path d="M96.4211 47.2572C94.0324 43.2479 92.3496 34.0661 96.6662 30.536C101.228 26.8083 106.66 32.4309 109.049 35.8951C110.523 38.0351 111.679 40.1568 112.506 42.6297" fill="#F6FBF7"/>
<path d="M96.0665 48.7525C96.4396 48.8403 96.8493 48.7891 97.2042 48.5769C97.9321 48.1416 98.1699 47.2015 97.7383 46.4698C95.697 43.0458 94.0692 34.6395 97.6358 31.724C98.5101 31.0106 99.4393 30.7326 100.478 30.8826C103.127 31.2594 106.075 34.2883 107.783 36.7648C109.32 38.9963 110.326 40.9534 111.05 43.1153C111.317 43.9201 112.188 44.3554 112.993 44.0847C113.797 43.8177 114.229 42.9471 113.962 42.1423C113.157 39.7279 111.998 37.4672 110.315 35.0236C109.265 33.5018 105.49 28.4938 100.914 27.8427C99.0332 27.5756 97.2298 28.0951 95.697 29.3462C90.5171 33.5823 92.5584 43.7701 95.1044 48.0428C95.3239 48.416 95.6751 48.661 96.0665 48.7525Z" fill="#4B2E1A"/>
<path d="M98.5984 76.4341C102.765 77.4145 107.034 74.488 108.113 69.908C109.192 65.3281 106.679 60.803 102.513 59.8226C98.3533 58.8422 90.9931 62.5735 89.8957 67.2266C88.7946 71.9054 94.322 75.4281 98.5984 76.4341ZM102.041 61.8163C105.11 62.5406 106.935 65.9573 106.116 69.4398C105.296 72.9187 102.132 75.1611 99.0666 74.4404C95.5841 73.621 91.1504 70.8226 91.8857 67.6985C92.7051 64.2416 98.8874 61.0737 102.041 61.8163Z" fill="#A6D4AD"/>
<path d="M143.454 87.0029C147.595 87.9796 154.205 86.7797 155.318 82.0571C156.4 77.4552 151.608 71.39 147.368 70.3914C143.202 69.411 138.933 72.3375 137.854 76.9175C136.775 81.4974 139.288 86.0189 143.454 87.0029ZM146.897 72.385C150.112 73.1423 154.118 78.2088 153.32 81.5852C152.552 84.8446 147.24 85.7884 143.922 85.0056C140.853 84.2812 139.024 80.8646 139.847 77.3857C140.667 73.9068 143.831 71.6607 146.897 72.385Z" fill="#A6D4AD"/>
<path d="M111.361 130.973C112.195 131.123 112.996 130.567 113.142 129.733L114.624 121.473C114.774 120.639 114.218 119.838 113.384 119.691C112.55 119.541 111.749 120.097 111.602 120.932L110.121 129.192C109.971 130.026 110.527 130.823 111.361 130.973Z" fill="#FBC93F"/>
<path d="M103.331 138.549L115.776 140.781C116.321 140.879 116.873 140.678 117.225 140.254C117.579 139.829 117.678 139.248 117.484 138.732L113.329 127.604C113.142 127.106 112.71 126.737 112.191 126.635C111.635 126.543 111.13 126.704 110.768 127.096L102.475 135.996C102.091 136.405 101.963 136.994 102.142 137.528C102.325 138.055 102.779 138.45 103.331 138.549ZM113.669 137.28L106.649 136.021L111.324 131.002L113.669 137.28Z" fill="#FBC93F"/>
<path d="M101.926 143.352L115.165 145.726C115.999 145.876 116.8 145.32 116.946 144.486C117.096 143.652 116.54 142.851 115.706 142.705L102.467 140.331C101.633 140.181 100.832 140.737 100.686 141.571C100.532 142.405 101.088 143.202 101.926 143.352Z" fill="#FBC93F"/>
<path d="M115.415 151.245L112.429 150.637C111.96 150.54 111.654 150.08 111.75 149.611C111.847 149.141 112.306 148.836 112.776 148.932L115.762 149.541C116.232 149.637 116.537 150.097 116.441 150.566C116.348 151.037 115.89 151.339 115.415 151.245Z" fill="#4B2E1A"/>
<path d="M107.287 149.588L104.437 149.006C103.967 148.91 103.662 148.45 103.758 147.98C103.854 147.511 104.314 147.205 104.784 147.302L107.634 147.884C108.104 147.98 108.409 148.44 108.313 148.91C108.22 149.381 107.757 149.685 107.287 149.588Z" fill="#4B2E1A"/>
<path d="M112.868 163.766L109.882 163.157C109.413 163.061 109.107 162.601 109.204 162.131C109.3 161.662 109.76 161.356 110.229 161.453L113.215 162.061C113.685 162.157 113.99 162.617 113.894 163.087C113.798 163.556 113.338 163.862 112.868 163.766Z" fill="#4B2E1A"/>
<path d="M111.391 163.375C110.921 163.279 110.616 162.819 110.712 162.349L113.236 149.961C113.332 149.491 113.792 149.186 114.262 149.282C114.731 149.378 115.037 149.838 114.941 150.307L112.416 162.696C112.324 163.167 111.864 163.473 111.391 163.375Z" fill="#4B2E1A"/>
<path d="M103.397 161.744C102.927 161.648 102.622 161.188 102.718 160.718L105.242 148.329C105.338 147.86 105.798 147.554 106.268 147.65C106.737 147.747 107.043 148.207 106.946 148.676L104.422 161.065C104.325 161.538 103.866 161.84 103.397 161.744Z" fill="#4B2E1A"/>
<path d="M98.0052 161.242C97.5356 161.146 97.2303 160.686 97.3265 160.217L99.9959 147.126C100.092 146.656 100.552 146.351 101.022 146.447C101.491 146.543 101.796 147.003 101.7 147.473L99.0309 160.564C98.9381 161.035 98.4795 161.336 98.0052 161.242Z" fill="#4B2E1A"/>
<path d="M109.659 163.112L106.188 162.405C105.718 162.309 105.413 161.849 105.509 161.379L108.043 148.947C108.139 148.478 108.599 148.172 109.068 148.268C109.538 148.365 109.843 148.824 109.747 149.294L107.387 160.874L110.002 161.406C110.472 161.502 110.777 161.962 110.681 162.432C110.588 162.903 110.128 163.208 109.659 163.112Z" fill="#4B2E1A"/>
<path d="M99.6983 154.735C99.2287 154.639 98.9234 154.179 99.0196 153.71C99.1158 153.24 99.5757 152.935 100.045 153.031C101.175 153.259 102.312 152.369 102.583 151.044C102.854 149.719 102.153 148.452 101.028 148.221C100.559 148.125 100.253 147.665 100.35 147.196C100.446 146.726 100.906 146.421 101.375 146.517C103.444 146.938 104.751 149.127 104.291 151.392C103.826 153.66 101.766 155.16 99.6983 154.735Z" fill="#4B2E1A"/>
<path d="M98.3409 161.399C97.8713 161.303 97.566 160.843 97.6622 160.374C97.7583 159.904 98.2183 159.599 98.6879 159.695C99.8173 159.923 100.955 159.033 101.226 157.708C101.497 156.383 100.796 155.116 99.6709 154.885C99.2013 154.789 98.8961 154.329 98.9922 153.86C99.0884 153.39 99.5483 153.085 100.018 153.181C102.087 153.602 103.393 155.791 102.933 158.056C102.47 160.321 100.408 161.824 98.3409 161.399Z" fill="#4B2E1A"/>
<path d="M89.7028 75.0005C92.1135 75.5675 94.1364 76.9027 95.5484 78.6623C98.014 80.7767 99.2505 84.0946 98.4749 87.3906C97.5275 91.4145 93.8913 94.1252 89.8198 94.1764C88.3493 94.48 86.7799 94.4763 85.2033 94.1069C79.6685 92.8046 76.186 87.4674 77.4298 82.1924C78.6699 76.9137 84.168 73.6946 89.7028 75.0005Z" fill="#A6D4AD"/>
<path d="M154.608 90.9522C157.008 91.5667 159.005 92.9385 160.381 94.7237C162.806 96.8856 163.977 100.226 163.139 103.507C162.115 107.509 158.427 110.154 154.356 110.128C152.881 110.402 151.309 110.369 149.743 109.971C144.234 108.562 140.854 103.159 142.196 97.9099C143.539 92.6569 149.095 89.5401 154.608 90.9522Z" fill="#A6D4AD"/>
<path d="M120.035 75.9517C126.151 77.393 131.485 79.8879 135.41 82.8729C142.035 86.6481 145.905 91.9267 144.782 96.686C143.414 102.491 135.062 105.674 124.988 104.763C121.417 104.862 117.525 104.474 113.534 103.534C99.498 100.227 89.5699 91.3707 91.366 83.7545C93.1585 76.1383 105.995 72.6448 120.035 75.9517Z" fill="#F6FBF7"/>
<path d="M105.34 80.5674C104.612 83.6622 110.828 87.7776 119.223 89.7566C127.618 91.7356 135.015 90.8284 135.747 87.73C136.475 84.6352 130.26 80.5198 121.868 78.5408C113.469 76.5618 106.068 77.469 105.34 80.5674Z" fill="#4B2E1A"/>
<path d="M115.806 95.7736C129.019 98.8867 139.482 94.8957 140.1 94.6506C140.89 94.3396 141.278 93.4471 140.967 92.6569C140.656 91.8704 139.767 91.4826 138.977 91.7899C138.776 91.8667 118.641 99.483 99.6485 84.4993C98.9827 83.9725 98.0169 84.0896 97.4902 84.7517C96.9634 85.4175 97.0804 86.3832 97.7426 86.91C103.896 91.768 110.107 94.4311 115.806 95.7736Z" fill="#4B2E1A"/>
<path d="M150.208 79.7491C150.142 82.7268 147.435 85.0826 144.157 85.0094C140.88 84.9363 138.279 82.467 138.344 79.4857C138.41 76.508 141.117 74.1521 144.395 74.2253C147.673 74.2985 150.274 76.7713 150.208 79.7491Z" fill="#4B2E1A"/>
<path d="M139.816 79.1848C139.582 80.8236 140.339 82.2978 141.663 82.5063C142.991 82.7112 144.703 81.4565 145.007 79.8323C145.307 78.2044 144.206 76.7265 142.885 76.5217C141.557 76.3131 140.076 77.3338 139.816 79.1848Z" fill="white"/>
<path d="M145.545 81.8005C145.417 82.4663 145.754 83.0516 146.364 83.1211C146.983 83.1869 147.795 82.6602 147.956 82.0017C148.117 81.3396 147.619 80.7543 147.008 80.6884C146.39 80.6189 145.691 81.0506 145.545 81.8005Z" fill="white"/>
<path d="M146.345 78.2964C146.25 78.7865 146.543 79.2255 147.062 79.2877C147.585 79.3499 148.262 78.9731 148.387 78.4866C148.511 78.0001 148.079 77.5574 147.564 77.4989C147.04 77.4367 146.455 77.744 146.345 78.2964Z" fill="white"/>
<path d="M95.0323 69.3639C95.1786 66.3862 97.9478 64.1072 101.222 64.2645C104.496 64.4255 107.031 66.9642 106.885 69.9383C106.738 72.9123 103.969 75.195 100.699 75.0377C97.421 74.8767 94.8896 72.338 95.0323 69.3639Z" fill="#4B2E1A"/>
<path d="M104.953 70.4238C105.22 68.8435 104.525 67.3985 103.252 67.1644C101.972 66.9303 100.285 68.1009 99.9488 69.6666C99.6159 71.2359 100.644 72.6918 101.917 72.9223C103.197 73.1564 104.653 72.2053 104.953 70.4238Z" fill="white"/>
<path d="M99.7475 67.4355C99.8901 66.7733 99.5719 66.1771 98.961 66.0929C98.3464 66.0088 97.5197 66.5136 97.3404 67.1684C97.1612 67.8269 97.6441 68.4231 98.255 68.5036C98.8732 68.5914 99.5829 68.1817 99.7475 67.4355Z" fill="white"/>
<path d="M98.8534 70.9138C98.9632 70.4272 98.6815 69.9773 98.1657 69.9041C97.6462 69.8309 96.9585 70.1858 96.8232 70.6687C96.6842 71.1515 97.1048 71.6051 97.6206 71.6783C98.1364 71.7551 98.729 71.4661 98.8534 70.9138Z" fill="white"/>
<path d="M68.6061 47.9194C68.9353 50.5203 68.3427 53.209 67.0038 55.4551C66.382 56.5013 64.7431 55.5502 65.3687 54.5003C66.5612 52.4993 67.0038 50.224 66.7112 47.9194C66.6453 47.4109 67.1941 46.9719 67.6586 46.9719C68.222 46.9719 68.5403 47.4109 68.6061 47.9194Z" fill="white"/>
<path d="M79.3191 27.4438C79.2532 28.5229 78.774 29.5179 78.0168 30.2825C77.2705 31.0397 76.3011 31.5226 75.3061 31.8628C74.8379 32.0238 74.2489 31.6799 74.1428 31.2007C74.0221 30.6739 74.3001 30.2093 74.8049 30.0374C74.9074 30.0008 75.0135 29.9642 75.1159 29.9276C75.1634 29.9094 75.2073 29.8911 75.2549 29.8728C75.4159 29.8106 75.1159 29.935 75.222 29.8874C75.4122 29.7996 75.6024 29.7118 75.7853 29.6094C75.9682 29.507 76.1438 29.3972 76.3121 29.2728C76.4621 29.1631 76.2901 29.2582 76.2865 29.2948C76.2901 29.2728 76.3852 29.2143 76.3999 29.1997C76.484 29.1302 76.5608 29.057 76.6413 28.9802C76.7072 28.9144 76.773 28.8485 76.8352 28.779C76.8645 28.7424 76.8974 28.7095 76.9267 28.6729C77.0218 28.5595 76.934 28.6437 76.9011 28.7095C76.9925 28.5376 77.1205 28.3876 77.212 28.212C77.2339 28.1718 77.2522 28.1279 77.2742 28.0876C77.3656 27.9084 77.201 28.2961 77.2669 28.1096C77.2998 28.0218 77.329 27.9376 77.3547 27.8462C77.3803 27.7584 77.4022 27.6669 77.4205 27.5755C77.4242 27.5499 77.4315 27.5206 77.4351 27.495C77.4461 27.4218 77.4424 27.4584 77.4205 27.6084C77.4132 27.5572 77.4315 27.495 77.4351 27.4401C77.4644 26.9463 77.8485 26.4707 78.3826 26.4927C78.8581 26.5183 79.3483 26.9134 79.3191 27.4438Z" fill="white"/>
<path d="M59.8477 30.6933C59.9465 32.1309 59.4124 33.5649 58.443 34.6184C58.2345 34.8452 57.8175 34.8489 57.6053 34.6184C57.3822 34.3733 57.3822 34.0258 57.6053 33.7807C57.8211 33.5466 57.9126 33.4295 58.0918 33.1259C58.1686 32.9942 58.2418 32.8589 58.3077 32.7235C58.3223 32.6906 58.3406 32.654 58.3552 32.6211C58.3333 32.676 58.3369 32.6686 58.3625 32.6028C58.3918 32.5333 58.4174 32.4601 58.443 32.387C58.6552 31.7687 58.7137 31.3481 58.6662 30.6896C58.6442 30.3787 58.9551 30.086 59.2588 30.097C59.5953 30.1189 59.8258 30.364 59.8477 30.6933Z" fill="white"/>
</g>
<path d="M171.767 122.083C171.767 122.083 200.827 168.223 161.089 196.106C161.089 196.106 128.908 212.278 113.12 188.478C113.12 188.478 104.414 162.718 133.06 162.762C133.06 162.762 168.837 166.526 163.898 138.113" fill="#8CBD92"/>
<path d="M171.767 122.083C171.767 122.083 200.827 168.223 161.089 196.106C161.089 196.106 128.908 212.278 113.12 188.478C113.12 188.478 104.414 162.718 133.06 162.762C133.06 162.762 168.837 166.526 163.898 138.113" stroke="#4B2E1A" stroke-width="3.07231" stroke-miterlimit="10" stroke-linecap="round" stroke-linejoin="round"/>
<path d="M169.474 183.391C169.474 183.391 172.1 171.439 156.645 168.828C156.645 168.828 149.987 167.686 146.08 165.608C146.08 165.608 137.454 159.924 124.724 163.988C124.724 163.988 104.637 172.767 115.151 192.422C115.151 192.422 130.628 208.332 156.637 198.323C156.637 198.327 169.272 194.01 169.474 183.391Z" fill="#F6FBF7"/>
<path d="M171.767 122.083C171.767 122.083 200.827 168.223 161.089 196.106C161.089 196.106 128.908 212.278 113.12 188.478C113.12 188.478 104.414 162.718 133.06 162.762C133.06 162.762 168.837 166.526 163.898 138.113" stroke="#4B2E1A" stroke-width="3.07231" stroke-miterlimit="10" stroke-linecap="round" stroke-linejoin="round"/>
<path d="M45.4117 110.685C45.4117 110.685 10.773 152.801 46.6884 185.46C46.6884 185.46 76.5789 205.554 95.2353 183.931C95.2353 183.931 107.113 159.469 78.6896 155.906C78.6896 155.906 42.723 155.138 51.1989 127.574" fill="#8CBD92"/>
<path d="M45.4117 110.685C45.4117 110.685 10.773 152.801 46.6884 185.46C46.6884 185.46 76.5789 205.554 95.2353 183.931C95.2353 183.931 107.113 159.469 78.6896 155.906C78.6896 155.906 42.723 155.138 51.1989 127.574" stroke="#4B2E1A" stroke-width="3.07231" stroke-miterlimit="10" stroke-linecap="round" stroke-linejoin="round"/>
<path d="M39.9692 171.794C39.9692 171.794 38.8681 159.605 54.5322 158.961C54.5322 158.961 61.2814 158.669 65.4151 157.099C65.4151 157.099 74.6884 152.545 86.8078 158.178C86.8078 158.178 105.632 169.416 92.7266 187.593C92.7266 187.593 75.3688 201.428 50.8265 188.226C50.8229 188.226 38.8316 182.355 39.9692 171.794Z" fill="#F6FBF7"/>
<path d="M45.4117 110.685C45.4117 110.685 10.773 152.801 46.6884 185.46C46.6884 185.46 76.5789 205.554 95.2353 183.931C95.2353 183.931 107.113 159.469 78.6896 155.906C78.6896 155.906 42.723 155.138 51.1989 127.574" stroke="#4B2E1A" stroke-width="3.07231" stroke-miterlimit="10" stroke-linecap="round" stroke-linejoin="round"/>
<defs>
<clipPath id="clip0_584_18405">
<rect width="165" height="152" fill="white" transform="matrix(-1 0 0 1 189 22.001)"/>
</clipPath>
</defs>
</svg>
