<svg width="171" height="83" viewBox="0 0 171 83" fill="none" xmlns="http://www.w3.org/2000/svg">
<path fill-rule="evenodd" clip-rule="evenodd" d="M35.0003 55.6749C35.0003 40.3007 47.4635 27.8375 62.8377 27.8375C69.6262 27.8375 75.8473 30.2674 80.6783 34.305C85.7967 14.5715 103.728 0 125.062 0C150.384 0 170.912 20.5276 170.912 45.8498C170.912 49.2222 170.548 52.5097 169.857 55.6749L35.0003 55.6749Z" fill="#D1E6E4"/>
<path opacity="0.4" fill-rule="evenodd" clip-rule="evenodd" d="M107.412 83.0001H0.833911C0.287761 80.4986 0 77.9005 0 75.2352C0 55.2231 16.2231 39 36.2352 39C53.0959 39 67.267 50.5159 71.3121 66.1114C75.1301 62.9205 80.0465 61 85.4116 61C97.5618 61 107.412 70.8498 107.412 83C107.412 83 107.412 83 107.412 83.0001Z" fill="#D1E6E4"/>
</svg>
