<svg width="235" height="85" viewBox="0 0 235 85" fill="none" xmlns="http://www.w3.org/2000/svg">
<path fill-rule="evenodd" clip-rule="evenodd" d="M0 69H167.133C167.99 65.0773 168.441 61.0031 168.441 56.8235C168.441 25.4408 143 0 111.618 0C85.1769 0 62.9541 18.059 56.6107 42.5156C50.6233 37.5116 42.9134 34.5 34.5 34.5C15.4462 34.5 0 49.9462 0 69Z" fill="#D1E6E4"/>
<path fill-rule="evenodd" clip-rule="evenodd" d="M235 84.506H141.73C141.252 82.3169 141 80.0433 141 77.7108C141 60.1974 155.197 46 172.711 46C187.466 46 199.868 56.078 203.408 69.7262C206.749 66.9337 211.052 65.2531 215.747 65.2531C226.38 65.2531 235 73.8729 235 84.506Z" fill="#D1E6E4"/>
</svg>
