<svg width="243" height="69" viewBox="0 0 243 69" fill="none" xmlns="http://www.w3.org/2000/svg">
<path fill-rule="evenodd" clip-rule="evenodd" d="M0 69H167.133C167.99 65.0773 168.441 61.0031 168.441 56.8235C168.441 25.4408 143 0 111.618 0C85.1769 0 62.9541 18.059 56.6107 42.5156C50.6233 37.5116 42.9134 34.5 34.5 34.5C15.4462 34.5 0 49.9462 0 69Z" fill="#D1E6E4"/>
<path fill-rule="evenodd" clip-rule="evenodd" d="M243 67.506H149.73C149.252 65.3169 149 63.0434 149 60.7109C149 43.1975 163.197 29 180.711 29C195.466 29 207.868 39.078 211.408 52.7261C214.749 49.9336 219.052 48.2529 223.747 48.2529C234.38 48.2529 243 56.8728 243 67.506Z" fill="#D1E6E4"/>
</svg>
