<svg width="310" height="98" viewBox="0 0 310 98" fill="none" xmlns="http://www.w3.org/2000/svg">
<path fill-rule="evenodd" clip-rule="evenodd" d="M309.441 97.6747H237.562C237.194 95.9877 237 94.2355 237 92.438C237 78.9413 247.941 68 261.438 68C272.809 68 282.367 75.7666 285.095 86.2847C287.67 84.1326 290.986 82.8375 294.604 82.8375C302.798 82.8375 309.441 89.4803 309.441 97.6747Z" fill="#D1E6E4"/>
<path opacity="0.4" fill-rule="evenodd" clip-rule="evenodd" d="M168.441 69H1.30767C0.451243 65.0773 0 61.0031 0 56.8235C0 25.4408 25.4408 0 56.8235 0C83.2642 0 105.487 18.059 111.83 42.5156C117.818 37.5116 125.528 34.5 133.941 34.5C152.995 34.5 168.441 49.9462 168.441 69Z" fill="#D1E6E4"/>
</svg>
