<svg width="120" height="120" viewBox="0 0 120 120" fill="none" xmlns="http://www.w3.org/2000/svg">
<path fill-rule="evenodd" clip-rule="evenodd" d="M36.9938 24H114.136C117.362 24 120 26.6383 120 29.8645V76.1066C120 79.3615 117.362 81.9998 114.136 81.9998H36.9938C33.7676 81.9998 31.1006 79.3615 31.1006 76.1066V29.8645C31.1006 26.6383 33.7532 24 36.9938 24Z" fill="#63B0B8"/>
<path d="M120 40.1741H31.1006V50.2685H120V40.1741Z" fill="#40494C"/>
<path fill-rule="evenodd" clip-rule="evenodd" d="M43.2314 56.4768H90.0614V63.5027H43.2314V56.4768ZM107.856 56.4768H93.1872V63.5027H107.856V56.4768Z" fill="#FEFEFE"/>
<path fill-rule="evenodd" clip-rule="evenodd" d="M5.8645 37.134H83.0063C86.2325 37.134 88.8995 39.7723 88.8995 42.9985V89.2406C88.8995 92.4955 86.2325 95.1338 83.0063 95.1338H5.8645C2.63831 95.1195 0 92.4955 0 89.2263V42.9985C0 39.7723 2.63831 37.134 5.8645 37.134Z" fill="#F17E00"/>
<path fill-rule="evenodd" clip-rule="evenodd" d="M7.92914 70.959H80.9701C82.0025 70.959 82.8485 71.805 82.8485 72.8373V76.8522C82.8485 77.8845 82.0025 78.7305 80.9701 78.7305H7.92914C6.89676 78.7305 6.05078 77.8845 6.05078 76.8522V72.8373C6.05078 71.805 6.89676 70.959 7.92914 70.959Z" fill="#CA6400"/>
<path fill-rule="evenodd" clip-rule="evenodd" d="M13.9517 49.4224H24.3615C26.4263 49.4224 28.0896 51.0856 28.0896 53.1504V56.8211C28.0896 58.8859 26.4263 60.5491 24.3615 60.5491H13.9517C11.9156 60.5491 10.2236 58.8859 10.2236 56.8211V53.1504C10.2236 51.0856 11.9156 49.4224 13.9517 49.4224Z" fill="#DACD71"/>
<path fill-rule="evenodd" clip-rule="evenodd" d="M13.9517 49.4224H17.2065V54.4982H10.2236V53.1504C10.2236 51.0856 11.9156 49.4224 13.9517 49.4224ZM19.1566 49.4224H24.3615C26.4263 49.4224 28.0896 51.0856 28.0896 53.1504V54.4982H19.1566V49.4224ZM28.0896 56.563V56.8068C28.0896 58.8715 26.4263 60.5348 24.3615 60.5348H13.9517C11.9156 60.5348 10.2236 58.8715 10.2236 56.8068V56.563H28.0896Z" fill="#DACD71"/>
</svg>
