<svg width="109" height="109" viewBox="0 0 109 109" fill="none" xmlns="http://www.w3.org/2000/svg">
<path opacity="0.2" fill-rule="evenodd" clip-rule="evenodd" d="M49.8265 96.616C77.2655 96.616 99.5084 97.6312 99.5084 98.8828C99.5084 100.135 77.2647 101.15 49.8265 101.15C22.3883 101.15 0.144531 100.134 0.144531 98.8828C0.144531 97.6312 22.3874 96.616 49.8265 96.616Z" fill="black"/>
<path fill-rule="evenodd" clip-rule="evenodd" d="M82.7133 84.2454H16.94C15.6344 84.2454 13.7794 84.3146 12.9043 85.1053L0.145564 95.0959C0.137124 97.0083 -0.0612017 99.0844 3.20147 99.0962H96.4519C99.7078 99.0962 99.5162 97.0007 99.5078 95.0959L86.7491 85.1053C85.8697 84.3103 83.997 84.2454 82.7133 84.2454Z" fill="#CACACA"/>
<path fill-rule="evenodd" clip-rule="evenodd" d="M84.8011 82.3467H21.3714H14.7945C12.9919 82.3467 10.877 82.8353 10.2516 83.5383C6.50029 87.7538 3.99547 90.5667 0.252595 94.7729C-0.435216 95.5451 0.89399 96.0151 3.39712 96.0151H78.2243H96.1985C98.7016 96.0151 100.031 95.5451 99.343 94.7729C95.6002 90.5675 93.0954 87.7538 89.344 83.5392C88.7085 82.8244 86.6038 82.3467 84.8011 82.3467Z" fill="#E8EEFA"/>
<path fill-rule="evenodd" clip-rule="evenodd" d="M84.7049 30.3984H14.7937C12.9226 30.3984 11.3926 31.9293 11.3926 33.7995V78.9453C11.3926 80.8163 12.9235 82.3464 14.7937 82.3464H84.7049C86.5759 82.3464 88.1059 80.8155 88.1059 78.9453V33.7995C88.1059 31.9285 86.5759 30.3984 84.7049 30.3984Z" fill="#202020"/>
<path d="M84.5646 34.2336H14.9336V78.5127H84.5646V34.2336Z" fill="#056EA0"/>
<path fill-rule="evenodd" clip-rule="evenodd" d="M23.4778 86.384C23.85 86.384 23.9766 86.6954 23.7808 87.0828C23.574 87.4777 23.1056 87.8027 22.7233 87.8027C19.2193 87.8027 15.7144 87.8027 12.2103 87.8027C11.8356 87.8027 11.7909 87.4777 12.0905 87.0819C12.385 86.6946 12.9032 86.384 13.2678 86.384C16.6731 86.384 20.0717 86.384 23.4778 86.384ZM55.426 85.6312C55.0673 85.6312 54.7433 85.3333 54.7061 84.9721C54.669 84.6159 54.9247 84.3298 55.2733 84.3298C57.0118 84.3298 58.7503 84.3298 60.4888 84.3298C60.8382 84.3298 61.1851 84.6159 61.2712 84.9721C61.3581 85.3341 61.1446 85.6312 60.7859 85.6312C58.9993 85.6312 57.2126 85.6312 55.426 85.6312ZM47.1149 85.6312C46.7562 85.6312 46.4836 85.3333 46.5089 84.9721C46.5334 84.6159 46.8381 84.3298 47.1866 84.3298C48.9184 84.3298 50.6561 84.3298 52.3946 84.3298C52.744 84.3298 53.0486 84.6159 53.0731 84.9721C53.0976 85.3341 52.8258 85.6312 52.4672 85.6312C50.6814 85.6312 48.8948 85.6312 47.1149 85.6312ZM38.7827 85.6312C38.424 85.6312 38.2105 85.3341 38.2974 84.9721C38.3835 84.6159 38.7295 84.3307 39.0789 84.3307C40.8174 84.3307 42.5559 84.3307 44.2944 84.3307C44.6438 84.3307 44.8995 84.6168 44.8624 84.9729C44.8253 85.335 44.5012 85.632 44.1425 85.632C42.3559 85.6312 40.5693 85.6312 38.7827 85.6312ZM30.4724 85.6312C30.1137 85.6312 29.9441 85.3333 30.0935 84.9721C30.2411 84.6159 30.6437 84.3307 30.9923 84.3307C32.7232 84.3307 34.4617 84.3307 36.2002 84.3307C36.542 84.3307 36.7488 84.6159 36.6509 84.9721C36.5513 85.3341 36.1757 85.6312 35.8247 85.6312C34.038 85.6312 32.2514 85.6312 30.4724 85.6312ZM22.1469 85.6312C21.7882 85.6312 21.6701 85.3333 21.8819 84.9721C22.0904 84.6159 22.5427 84.3307 22.8921 84.3307C24.623 84.3307 26.3615 84.3307 28.1077 84.3307C28.4571 84.3307 28.614 84.6159 28.4545 84.9721C28.2925 85.3341 27.8663 85.6312 27.5076 85.6312C25.7126 85.6312 23.9259 85.6312 22.1469 85.6312ZM13.829 85.6312C13.4704 85.6312 13.418 85.3333 13.6923 84.9721C13.9624 84.6159 14.4493 84.3307 14.7979 84.3307C16.5364 84.3307 18.2749 84.3307 20.0058 84.3307C20.3552 84.3307 20.4557 84.6159 20.2345 84.9721C20.01 85.3341 19.54 85.6312 19.1805 85.6312C17.4023 85.6312 15.6157 85.6312 13.829 85.6312ZM80.3873 85.6312C80.0286 85.6312 79.5585 85.3341 79.334 84.9721C79.1129 84.6151 79.2133 84.3298 79.5627 84.3298C81.308 84.3298 83.0465 84.3298 84.785 84.3298C85.1344 84.3298 85.629 84.6168 85.899 84.9721C86.1733 85.3341 86.1134 85.6312 85.7547 85.6312C83.9673 85.632 82.1806 85.632 80.3873 85.6312ZM72.0761 85.6312C71.7175 85.6312 71.2913 85.3341 71.1292 84.9721C70.9697 84.6151 71.1259 84.3298 71.4752 84.3298C73.1994 84.3298 74.9379 84.3298 76.6765 84.3298C77.0258 84.3298 77.4782 84.6159 77.6866 84.9721C77.8985 85.3341 77.7803 85.6312 77.4216 85.6312C75.635 85.6312 73.8484 85.6312 72.0761 85.6312ZM63.7583 85.6312C63.392 85.6312 63.0173 85.3341 62.9177 84.9721C62.8189 84.6159 63.0257 84.3298 63.3819 84.3298C65.1128 84.3298 66.8513 84.3298 68.5898 84.3298C68.9392 84.3298 69.3426 84.6159 69.4894 84.9721C69.6388 85.3341 69.4692 85.6312 69.1105 85.6312C67.3239 85.6312 65.5373 85.6312 63.7583 85.6312ZM26.2122 87.8027C25.8375 87.8027 25.6872 87.4777 25.878 87.0828C26.0569 86.6954 26.5042 86.384 26.8764 86.384C28.6461 86.384 30.4158 86.384 32.1932 86.384C32.5578 86.384 32.7476 86.6954 32.6135 87.0828C32.4767 87.4777 32.0581 87.8018 31.6834 87.8018C29.8546 87.8018 28.0334 87.8027 26.2122 87.8027ZM34.644 87.8018C34.2693 87.8018 34.065 87.4769 34.1891 87.0828C34.3106 86.6954 34.7064 86.384 35.0702 86.384C36.8323 86.384 38.6021 86.384 40.3794 86.384C40.744 86.384 40.9778 86.6954 40.9161 87.0828C40.8453 87.4777 40.4891 87.8018 40.1136 87.8018C38.2864 87.8018 36.4652 87.8018 34.644 87.8018ZM43.0682 87.8018C42.6935 87.8018 42.4428 87.4769 42.5011 87.0828C42.5509 86.6954 42.8868 86.384 43.2505 86.384C45.0202 86.384 46.7976 86.384 48.5749 86.384C48.9395 86.384 49.2332 86.6954 49.2281 87.0828C49.2231 87.4777 48.9133 87.8018 48.5386 87.8018C46.7106 87.8018 44.8894 87.8018 43.0682 87.8018ZM51.5 87.8018C51.1253 87.8018 50.813 87.4769 50.8046 87.0828C50.797 86.6954 51.0882 86.3848 51.4528 86.3848C53.2225 86.3848 54.9846 86.3848 56.762 86.3848C57.1266 86.3848 57.4717 86.6954 57.5401 87.0828C57.6017 87.4777 57.346 87.8018 56.9713 87.8018C55.1425 87.8018 53.3212 87.8018 51.5 87.8018ZM59.9318 87.8018C59.5571 87.8018 59.19 87.4769 59.1166 87.0828C59.0364 86.6954 59.2761 86.3848 59.6407 86.3848C61.4104 86.3848 63.1801 86.3848 64.9651 86.3848C65.3297 86.3848 65.7272 86.6954 65.8521 87.0828C65.9795 87.4777 65.7778 87.8018 65.4031 87.8018C63.5743 87.8018 61.753 87.8018 59.9318 87.8018ZM68.3645 87.8018C67.9898 87.8018 67.5686 87.4769 67.4285 87.0828C67.291 86.6954 67.4783 86.3848 67.8429 86.3848C69.6127 86.3848 71.3824 86.3848 73.1454 86.3848C73.51 86.3848 73.959 86.6954 74.1564 87.0828C74.3497 87.4777 74.2029 87.8018 73.8273 87.8018C72.0061 87.8018 70.1849 87.8018 68.3645 87.8018ZM76.8495 87.8018C76.4747 87.8018 76.0064 87.4769 75.8004 87.0828C75.5903 86.6954 75.7177 86.3848 76.0823 86.3848C79.4885 86.3848 82.9014 86.3848 86.3151 86.3848C86.6797 86.3848 87.2055 86.6954 87.4991 87.0828C87.7987 87.4777 87.7464 87.8018 87.3709 87.8018C83.8584 87.8018 80.3543 87.8018 76.8495 87.8018ZM10.4398 90.1767C10.0473 90.1767 10.0119 89.8222 10.3393 89.3909C10.6617 88.9656 11.2153 88.6255 11.596 88.6255C13.851 88.6255 16.106 88.6255 18.3694 88.6246C18.7509 88.6246 18.8496 88.9639 18.5948 89.3901C18.3357 89.8222 17.8107 90.1767 17.4175 90.1767C15.0865 90.1767 12.7631 90.1767 10.4398 90.1767ZM20.4784 90.1767C20.086 90.1767 19.967 89.8222 20.2126 89.3901C20.4548 88.9648 20.9586 88.6246 21.3401 88.6246C23.455 88.6246 25.5708 88.6246 27.6857 88.6246C28.0672 88.6246 28.2359 88.9639 28.0579 89.3901C27.8773 89.8222 27.4089 90.1767 27.0164 90.1767C24.8365 90.1767 22.6575 90.1767 20.4784 90.1767ZM87.9827 88.6246C88.3642 88.6246 88.9406 88.9648 89.263 89.3893C89.5913 89.8222 89.5322 90.1767 89.1398 90.1767C86.808 90.1767 84.4846 90.1767 82.1612 90.1767C81.7688 90.1767 81.243 89.8222 80.9831 89.3893C80.7282 88.9639 80.8278 88.6246 81.2093 88.6246C83.4651 88.6246 85.7201 88.6246 87.9827 88.6246ZM78.2394 88.6246C78.62 88.6246 79.1247 88.9648 79.3661 89.3893C79.6117 89.8222 79.4935 90.1767 79.1011 90.1767C76.922 90.1767 74.743 90.1767 72.5631 90.1767C72.1706 90.1767 71.7014 89.8222 71.5208 89.3893C71.3436 88.9639 71.5124 88.6246 71.8938 88.6246C74.0088 88.6246 76.1245 88.6246 78.2394 88.6246ZM68.3636 88.6246C68.7443 88.6246 69.1831 88.9648 69.3426 89.3893C69.5055 89.8222 69.319 90.1767 68.9257 90.1767C62.548 90.1767 56.1704 90.1767 49.8012 90.1767C43.4319 90.1767 37.0619 90.1767 30.6927 90.1767C30.3002 90.1767 30.1129 89.8222 30.2749 89.3901C30.4344 88.9648 30.8733 88.6246 31.2539 88.6246C37.4357 88.6246 43.6184 88.6246 49.8003 88.6246C55.9839 88.6246 62.1733 88.6246 68.3636 88.6246Z" fill="#A3A3A3"/>
<path fill-rule="evenodd" clip-rule="evenodd" d="M37.6994 94.3356C37.2985 94.3356 37.0184 94.1415 36.8901 93.8359C36.766 93.5406 36.788 93.1481 36.9762 92.7363C37.1517 92.3498 37.4445 92.0147 37.7703 91.781C38.0868 91.5539 38.4446 91.4155 38.7746 91.4155C43.4627 91.4155 53.1857 91.4155 57.8747 91.4155C58.203 91.4155 58.5574 91.5531 58.8705 91.781C59.1921 92.0147 59.4781 92.3498 59.6478 92.7363C59.8275 93.1481 59.841 93.5406 59.7119 93.8359C59.5777 94.1406 59.2925 94.3356 58.8925 94.3356C53.5056 94.3356 43.0854 94.3356 37.6994 94.3356Z" fill="#CACACA"/>
<path opacity="0.25" fill-rule="evenodd" clip-rule="evenodd" d="M68.476 37.2537H24.0585C20.1857 37.2537 17.7045 39.8597 18.5442 43.0439L25.1742 68.174C26.0148 71.359 29.8708 73.9642 33.7436 73.9642H37.884L39.0976 78.5637C39.474 79.9908 41.7535 80.7141 42.7316 79.7165L48.3759 73.9634H78.1611C82.0339 73.9634 84.5151 71.3573 83.6754 68.1731L77.0454 43.0431C76.2048 39.8589 72.3488 37.2537 68.476 37.2537Z" fill="black"/>
<path fill-rule="evenodd" clip-rule="evenodd" d="M86.5101 23.5723H40.4622C36.4476 23.5723 33.1621 26.8569 33.1621 30.8724V62.553C33.1621 66.5677 36.4467 69.8531 40.4622 69.8531H44.7545V75.6518C44.7545 77.4511 46.92 78.3626 48.207 77.106L55.632 69.8531H86.5101C90.5248 69.8531 93.8102 66.5685 93.8102 62.553V30.8724C93.8102 26.8577 90.5248 23.5723 86.5101 23.5723Z" fill="#E8EEFA"/>
<path fill-rule="evenodd" clip-rule="evenodd" d="M47.2764 60.9435C58.0173 60.9435 68.7581 60.9435 79.4989 60.9435C82.3903 60.9435 84.7558 58.5779 84.7558 55.6866C84.7558 49.7131 84.7558 43.7397 84.7558 37.7663C84.7558 36.8177 84.5018 35.9257 84.0571 35.156H42.7183C42.2744 35.9265 42.0195 36.8186 42.0195 37.7672C42.0195 43.7406 42.0195 49.714 42.0195 55.6874C42.0195 58.5779 44.3851 60.9435 47.2764 60.9435Z" fill="#FFBF00"/>
<path fill-rule="evenodd" clip-rule="evenodd" d="M47.2769 60.9434H50.1783H76.5979H79.4994C81.4421 60.9434 83.1477 59.8749 84.0575 58.2976L65.3237 44.5701C64.0333 43.6983 62.7438 43.6569 61.4534 44.5701L42.7188 58.2976C43.6285 59.8749 45.3341 60.9434 47.2769 60.9434Z" fill="#FFAA00"/>
<path fill-rule="evenodd" clip-rule="evenodd" d="M47.2769 32.5098H50.1783H76.5979H79.4994C81.4421 32.5098 83.1477 33.5782 84.0575 35.1555L65.3237 48.8839C64.0333 49.7557 62.7438 49.797 61.4534 48.8839L42.7188 35.1564C43.6285 33.5782 45.3341 32.5098 47.2769 32.5098Z" fill="#FFD500"/>
<path fill-rule="evenodd" clip-rule="evenodd" d="M80.7626 42.2739C83.9493 42.2739 86.5478 39.6746 86.5478 36.4878C86.5478 33.3011 83.9485 30.7026 80.7626 30.7026C77.5759 30.7026 74.9766 33.302 74.9766 36.4878C74.9774 39.6746 77.5767 42.2739 80.7626 42.2739Z" fill="#FF0000"/>
<path fill-rule="evenodd" clip-rule="evenodd" d="M81.6709 33.6386V33.6428V39.4069V39.4719H81.6676C81.6346 39.7875 81.368 40.034 81.0439 40.034C80.719 40.034 80.4523 39.7875 80.4202 39.4719H80.4168V39.4069V36.7823V35.1577L79.8944 35.6801L79.8885 35.6742C79.7746 35.7906 79.6151 35.8632 79.4395 35.8632C79.0927 35.8632 78.8125 35.5822 78.8125 35.2362C78.8125 35.0269 78.9155 34.8412 79.0733 34.7273L80.6033 33.1981C80.7164 33.0858 80.8726 33.0166 81.0447 33.0166C81.3882 33.0158 81.6684 33.2943 81.6709 33.6386Z" fill="white"/>
<path fill-rule="evenodd" clip-rule="evenodd" d="M89.8472 18.3204C89.8472 18.9955 89.3004 19.5433 88.6244 19.5433C87.9492 19.5433 87.4015 18.9964 87.4023 18.3212V9.07164C87.4023 8.39648 87.9501 7.84877 88.6244 7.84961C89.2995 7.84961 89.8472 8.39648 89.8464 9.07164L89.8472 18.3204ZM94.6332 20.2589L99.2572 12.2491C99.5948 11.6651 99.3956 10.9182 98.8116 10.5806C98.2276 10.243 97.4807 10.4422 97.1431 11.0262L92.5192 19.036C92.1816 19.6201 92.3816 20.3669 92.9648 20.7045C93.5488 21.0421 94.2956 20.8429 94.6332 20.2589ZM97.8124 24.3292C97.2283 24.6668 96.4815 24.4668 96.1439 23.8828C95.8063 23.2988 96.0055 22.5519 96.5895 22.2152L104.599 17.5912C105.183 17.2536 105.93 17.4537 106.268 18.0368C106.605 18.6208 106.406 19.3677 105.822 19.7053L97.8124 24.3292ZM98.5272 29.4452C97.852 29.4452 97.3043 28.8975 97.3043 28.2223C97.3043 27.5472 97.852 26.9995 98.5272 26.9995H107.776C108.451 26.9995 108.999 27.5472 108.999 28.2223C108.999 28.8975 108.451 29.4452 107.776 29.4452H98.5272Z" fill="white"/>
</svg>
