<svg width="301" height="370" viewBox="0 0 301 370" fill="none" xmlns="http://www.w3.org/2000/svg">
<path d="M234.482 129.427C234.482 129.427 207.923 108.466 205.723 103.594C203.523 98.7223 202.508 68.4399 202.508 68.4399L213.927 65.9022L220.525 101.683L259.35 112.848L236.935 136.363L234.482 129.427Z" fill="#00666B"/>
<path d="M226.559 346.171L225.206 357.337L220.976 362.58L209.472 357.59L210.402 355.814L213.067 320.202L226.559 346.171Z" fill="#F6B690"/>
<path d="M268.298 346.171L270.393 363.236L273.881 362.58L284.036 357.59L283.106 355.814L280.442 320.202L268.298 346.171Z" fill="#F6B690"/>
<path d="M222.172 182.18L220.051 187.67L212.814 275.499L209.769 347.058H229.563L241.489 272.834L260.39 189.702L253.058 182.554L222.172 182.18Z" fill="#222954"/>
<path d="M241.495 183.112C241.495 183.112 241.489 217.001 246.68 255.654C250.876 286.893 257.705 322.286 265.133 347.707C270.853 347.707 286.069 347.707 286.069 347.707C286.069 347.707 279.926 192.169 279.071 187.888C278.217 183.607 275.309 181.679 275.309 181.679L241.495 183.112Z" fill="#0A3C5F"/>
<path d="M266.735 98.0806C266.735 98.0806 266.012 106.332 266.329 113.057C262.777 116.292 254.847 115.721 251.167 112.168C252.435 102.588 251.825 92.004 251.825 92.004C251.825 92.004 263.742 96.0288 263.944 96.1831C264.146 96.3343 266.735 98.0806 266.735 98.0806Z" fill="#F4A086"/>
<path d="M268.533 92.3372C268.533 92.3372 261.863 100.814 260.144 101.82C258.426 102.826 247.14 104.057 241.71 99.4581C236.28 94.8595 249.781 78.7449 253.173 75.7444C260.957 79.0225 270.599 86.2591 270.599 86.2591L268.533 92.3372Z" fill="#F6B690"/>
<path d="M261.539 65.7664C261.539 65.7664 258.366 63.7563 253.048 70.8711C247.731 77.9843 260.374 88.2954 266.199 87.8573C263.66 92.7784 266.235 99.3007 266.235 99.3007C266.235 99.3007 281.646 94.0603 281.432 86.6725C281.367 84.4326 278.47 83.2308 278.47 83.2308C278.47 83.2308 281.484 79.4004 275.904 74.4361C270.326 69.4734 264.16 71.1241 262.014 69.1819C259.859 67.2335 261.539 65.7664 261.539 65.7664Z" fill="#222954"/>
<path d="M266.963 94.591C267.486 94.2794 269.576 93.7225 270.266 95.4117C270.951 97.0932 270.048 98.2286 268.58 99.2406C267.09 100.268 263.978 101.169 263.151 99.8669C262.378 98.6513 264.171 96.2602 266.963 94.591Z" fill="#F6B690"/>
<path d="M266.329 113.057C253.355 111.819 251.706 110.931 251.706 110.931C251.706 110.931 231.593 110.465 226.169 136.914C223.064 152.058 222.172 182.18 222.172 182.18C222.172 182.18 244.144 187.374 275.309 181.677C274.591 173.392 273.906 170.252 275.335 159.784C277.367 144.877 292.275 119.837 266.329 113.057Z" fill="#63C0C4"/>
<path d="M225.863 355.997L227.327 369.178H180.914C180.914 369.178 180.321 364.889 183.564 362.588C186.806 360.286 191.828 362.204 196.013 360.251C200.198 358.298 205.184 351.707 210.241 352.335C215.298 352.963 212.822 359.833 217.459 360.007C221.373 360.153 221.288 357.495 223.429 356.348C224.086 355.996 224.847 355.888 225.587 355.967L225.863 355.997Z" fill="#0A3C5F"/>
<path d="M226.965 365.9L227.329 369.178H180.915C180.915 369.178 180.707 367.632 181.237 365.9H226.965Z" fill="#222954"/>
<path d="M300.007 369.178H267.793L269.118 356.089H270.468C270.468 356.089 271.771 361.287 274.092 361.287C276.412 361.287 277.965 354.515 282.089 354.464C286.212 354.415 284.363 357.963 289.461 360.562C294.558 363.162 300.007 362.555 300.007 369.178Z" fill="#0A3C5F"/>
<path d="M299.092 365.752C299.672 366.699 300.007 367.538 300.007 369.178H267.793L268.168 365.752H299.092Z" fill="#222954"/>
<path d="M289.799 362.347C293.861 362.248 296.184 363.049 297.48 363.84C299.013 364.845 300.007 366.353 300.007 369.178H281.267C281.267 369.178 281.995 362.538 289.799 362.347Z" fill="#222954"/>
<path d="M250.723 52.1154L253.006 52.7078C253.006 52.7078 256.931 53.4529 259.876 51.2438C261.562 53.0703 258.589 54.2304 258.589 54.2304C258.589 54.2304 264.679 55.5833 265.272 57.6134C265.864 59.6436 258.057 59.8132 256.534 59.2209C255.012 58.6285 253.091 56.6832 253.091 56.6832L247.763 54.9909L250.723 52.1154Z" fill="#F6B690"/>
<path d="M162.224 32.3863L160.13 22.8696L164.127 22.2356L167.171 32.3863H162.224Z" fill="#F6B690"/>
<path d="M150.868 48.3097L144.397 42.8533L141.289 44.2494C141.289 44.2494 144.144 49.0702 146.617 51.6079C149.091 54.1455 150.868 48.3097 150.868 48.3097Z" fill="#F6B690"/>
<path d="M233.035 32.7627L236.637 39.3884C238.542 42.8918 241.427 45.7642 244.937 47.6571L251.801 51.3564L248.946 57.6165L238.852 54.7147C235.434 53.732 232.328 51.8778 229.842 49.3339L226.446 45.8599L233.035 32.7627Z" fill="#D1EAED"/>
<path d="M234.186 17.8683L226.783 27.4652L233.319 33.0542L240.304 23.5715L234.186 17.8683Z" fill="#F4A086"/>
<path d="M239.049 15.269C239.049 15.269 231.092 22.8712 233.663 29.5432C236.231 36.2152 240.567 37.1007 242.587 36.3648C244.606 35.629 249.373 33.6035 250.11 32.0793C250.849 30.5567 251.101 29.1297 251.667 28.7302C252.233 28.3306 257.165 25.9488 257.208 21.9518C257.251 17.9547 250.288 10.064 246.402 10.4374C242.516 10.8122 239.049 15.269 239.049 15.269Z" fill="#F6B690"/>
<path d="M258.543 22.0906C258.543 22.0906 261.631 14.8432 256.352 8.35172C251.073 1.86021 243.306 -1.13872 239.269 1.80005C240.307 -0.500059 238.581 0.228075 238.679 1.57019C237.535 3.09279 240.102 13.5088 250.723 20.801C250.811 19.5283 251.269 19.1627 251.269 19.1627C251.269 19.1627 252.468 22.1246 255.234 23.0887C254.211 20.7177 254.712 20.5511 254.712 20.5511C254.712 20.5511 256.803 24.2735 258.543 22.0906Z" fill="#222954"/>
<path d="M239.914 2.56522C239.914 2.56522 237.032 0.528909 234.203 3.79009C231.374 7.05127 230.249 9.81108 230.9 13.7557C231.551 17.7018 232.778 19.8692 232.778 19.8692L239.701 20.6791C239.701 20.6791 243.029 17.6663 243.905 14.5794C244.778 11.4926 239.914 2.56522 239.914 2.56522Z" fill="#222954"/>
<path d="M237.828 21.0055C238.749 19.8629 238.725 18.3163 237.774 17.5509C236.824 16.7856 235.308 17.0914 234.388 18.234C233.467 19.3766 233.491 20.9233 234.442 21.6886C235.392 22.454 236.908 22.1481 237.828 21.0055Z" fill="#F6B690"/>
<path d="M160.888 30.9687L167.235 29.3612C167.235 29.3612 174.086 41.0345 178.231 53.9759C184.659 52.2003 193.034 45.7705 198.87 45.8553C201.153 57.9513 175.608 68.7777 175.608 68.7777L166.966 57.2139L160.888 30.9687Z" fill="#222954"/>
<path d="M199.294 45.8568L219.933 63.4508C219.933 63.4508 207.922 74.1939 176.455 78.3375C156.916 69.7942 144.397 50.9306 144.397 50.9306L150.065 46.3628C150.065 46.3628 165.798 56.006 174.764 62.6888C184.153 57.7831 190.92 46.3643 199.294 45.8568Z" fill="#0A3C5F"/>
<path d="M230 28.7703C236.527 32.6207 236.513 52.4547 219.934 63.4508C202.678 54.9924 197.942 52.5395 199.294 45.8568C208.768 40.9187 218.241 21.8329 230 28.7703Z" fill="#B7DDDF"/>
<path d="M196.391 22.0767L194.475 20.7006C194.475 20.7006 191.391 18.1614 191.204 14.4853C188.722 14.3588 189.733 17.3839 189.733 17.3839C189.733 17.3839 184.796 13.5689 182.857 14.4128C180.918 15.2566 185.783 21.3655 187.212 22.1554C188.64 22.9467 191.365 23.1781 191.365 23.1781L196.074 26.191L196.391 22.0767Z" fill="#F6B690"/>
<path d="M226.954 27.2694C226.954 27.2694 209.698 27.2478 195.234 19.7196L191.851 26.1926C191.851 26.1926 202.375 39.0831 220.779 41.2891C227.502 42.0943 230.59 37.2288 229.999 32.0686C229.592 28.5205 226.954 27.2694 226.954 27.2694Z" fill="#D1EAED"/>
<path d="M128.918 40.9187L145.117 37.838L145.923 44.1398C145.923 44.1398 143.255 41.8165 142.495 46.1745C142.495 46.1745 139.323 43.6801 129.807 43.6168C127.966 43.1077 128.918 40.9187 128.918 40.9187Z" fill="#0A3C5F"/>
<path d="M150.777 16.6034L166.793 20.5248L165.176 25.7344C165.176 25.7344 163.447 23.371 160.946 27.0194C160.946 27.0194 159.097 23.4327 150.466 19.4249C149.003 18.2 150.777 16.6034 150.777 16.6034Z" fill="#0A3C5F"/>
<path d="M221.286 61.4918L219.678 54.8229L222.933 43.2344C222.933 43.2344 221.286 40.8294 219.763 45.1812C218.71 48.1941 211.728 40.3604 209.275 40.9513C206.822 41.5421 203.004 47.5215 206.557 51.7499C210.109 55.9799 213.418 57.5302 213.418 57.5302L215.017 65.5058L221.286 61.4918Z" fill="#F6B690"/>
<path d="M211.39 62.7737L222.171 58.6285L231.944 98.8071L268.639 113.743C268.639 113.743 282.284 116.148 281.432 130.867C280.581 145.585 261.802 139.41 256.051 137.127C251.261 135.225 228.058 118.329 220.427 112.726C218.868 111.583 217.841 109.857 217.577 107.941L211.39 62.7737Z" fill="#01888B"/>
<path d="M55.3238 132.638L76.6988 168.352L103.131 197.759C103.131 197.759 118.149 203.182 117.872 207.599C117.484 213.785 106.289 212.319 103.737 210.229C101.187 208.137 98.1372 201.349 98.1372 201.349L66.2998 175.783C66.2998 175.783 42.9408 153.317 41.1544 145.334C39.3696 137.349 47.2572 123.969 55.3238 132.638Z" fill="#F39F85"/>
<path d="M72.4838 89.6561C72.4838 89.6561 74.0651 94.9598 72.345 97.5653C70.6234 100.171 66.7621 100.589 66.7621 100.589L65.2734 88.8647L72.4838 89.6561Z" fill="#161C3A"/>
<path d="M45.8402 105.768C45.8402 105.768 46.3816 115.571 45.5918 121.433C53.4547 121.759 56.338 122.478 56.338 122.478L55.7348 108.359L45.8402 105.768Z" fill="#F4A086"/>
<path d="M67.7386 88.2136C67.7386 88.2136 70.1575 100.87 67.2727 109.755C64.388 118.643 60.6655 118.269 58.3855 117.99C56.1054 117.711 49.1727 114.769 46.9868 106.656C42.1953 103.102 39.9152 99.7049 41.3576 93.3306C43.2165 85.1175 50.2449 81.7453 57.8749 82.4441C63.7586 82.9825 67.7386 88.2136 67.7386 88.2136Z" fill="#F6B690"/>
<path d="M98.595 255.41C98.595 255.41 96.4569 280.688 43.7767 283.59C-8.90356 286.492 1.86111 251.217 1.86111 251.217L98.595 255.41Z" fill="#FDAC47"/>
<path d="M59.9217 87.9346C62.3406 91.6107 75.1832 88.7722 72.3447 97.5654C76.9048 92.2154 73.9737 82.398 65.7375 78.8622C57.5028 75.3264 48.4582 78.7388 47.4909 84.5238C42.4279 82.0725 38.7533 84.0733 37.4035 87.4965C35.9488 91.188 37.6364 100.498 35.5893 108.686C33.5422 116.875 44.4766 108.64 44.4766 108.64L46.4311 103.645C46.4296 103.643 59.4095 100.683 59.9217 87.9346Z" fill="#222954"/>
<path d="M51.9071 121.125C35.1199 121.125 29.5416 125.588 27.3387 129.12C25.1358 132.653 25.6742 139.112 26.9469 144.251C28.2196 149.389 39.4764 172.097 32.232 180.809C38.6927 180.809 64.9734 180.809 64.9734 180.809C64.9734 180.809 66.604 164.962 67.7147 150.735C68.6866 138.279 67.0421 127.55 60.8051 124.557C57.6334 123.035 57.3511 122.598 51.9071 121.125Z" fill="#FDD247"/>
<path d="M64.9756 180.809C68.1319 209.147 82.3012 272.785 82.3012 272.785C82.3012 272.785 80.9668 306.99 88.5521 357.796C85.9465 365.752 81.604 361.465 81.604 361.465C81.604 361.465 78.6868 360.73 78.4708 356.633C77.067 325.407 58.3299 289.256 62.9008 277.786C59.4113 267.202 17.5374 211.804 35.8225 180.81C58.154 180.809 61.4368 180.809 64.9756 180.809Z" fill="#F6B690"/>
<path d="M60.8052 180.809C60.8052 180.809 58.1534 220.443 37.0761 279.344C37.3553 304.888 20.8843 340.48 22.7 355.276C16.9768 354.438 16.6405 363.77 16.9768 354.438C18.0936 323.451 10.5562 306.096 18.0936 277.785C16.0003 241.798 11.6176 209.01 32.2337 180.809C44.6135 180.809 60.8052 180.809 60.8052 180.809Z" fill="#F6B690"/>
<path d="M64.9756 180.809C64.9756 180.809 70.5754 243.084 98.5947 255.409C88.5505 291.146 31.9411 257.044 14.7019 256.256C-0.10919 255.577 2.16006 266.19 2.16006 266.19C2.16006 266.19 1.3733 264.427 0.955245 261.434C0.102154 255.347 -0.320534 244.183 2.85426 232.511C7.58868 215.104 32.2357 180.809 32.2357 180.809H64.9756Z" fill="#FDD247"/>
<path d="M88.1663 355.182C90.1039 354.717 91.3472 361.465 101.297 362.619C106.669 363.242 107.087 368.581 107.087 368.581H73.9121L77.508 354.469C77.508 354.469 78.7746 354.017 79.1818 354.356C79.5891 354.696 82.2795 358.177 84.6999 358.359C87.1204 358.542 88.1663 355.182 88.1663 355.182Z" fill="#018A89"/>
<path d="M106.635 366.768C107.021 367.782 107.087 368.581 107.087 368.581H73.9121L74.3734 366.768H106.635Z" fill="#0A3C5F"/>
<path d="M22.3753 352.439C21.9881 351.145 17.5591 350.481 17.0393 352.439C15.3963 358.619 11.8143 359.436 11.4888 368.581C14.3273 368.581 26.7966 368.581 29.1229 368.581C29.2602 359.651 24.9346 360.999 22.3753 352.439Z" fill="#018A89"/>
<path d="M29.0659 366.583C29.1106 367.19 29.1322 367.848 29.1214 368.581H11.4873C11.5135 367.864 11.5598 367.203 11.6231 366.583H29.0659Z" fill="#0A3C5F"/>
<path d="M39.8829 126.103C44.1484 129.119 64.5886 173.356 64.5886 173.356L95.5174 199.848C95.5174 199.848 103.544 203.569 106.782 204.091C110.02 204.612 116.081 210.192 115.637 212.35C115.191 214.508 109.377 219.642 100.824 216.071C92.2716 212.5 94.8155 207.885 90.8277 205.356C86.8399 202.826 56.2937 183.627 56.2937 183.627C56.2937 183.627 29.2911 146.943 25.9558 138.384C22.6191 129.824 32.5168 120.893 39.8829 126.103Z" fill="#F6B690"/>
<path d="M48.0957 103.335C48.0957 103.335 47.9723 99.7528 46.2753 99.7528C44.5784 99.7528 43.5047 101.288 43.588 103.335C43.6713 105.382 45.4901 107.731 47.0621 107.522C48.1805 107.374 48.0957 103.335 48.0957 103.335Z" fill="#F6B690"/>
<path d="M195.15 282.117L196.379 284.684L201.032 289.605C201.032 289.605 201.604 298.162 198.323 298.75C195.042 299.337 193.01 287.625 193.01 287.625L191.245 283.614L195.15 282.117Z" fill="#F6B690"/>
<path d="M164.367 222.946C164.367 222.946 167.121 228.912 164.367 235.26C158.992 247.654 181.31 247.634 180.027 264.481C178.743 281.328 166.028 285.018 150.144 284.256C134.259 283.494 130.609 267.088 134.299 257.542C137.989 247.996 144.311 249.627 143.228 238.629C142.577 232.013 164.367 222.946 164.367 222.946Z" fill="#222954"/>
<path d="M155.182 234.979L156 253.491L147.176 251.686L146.238 240.115L155.182 234.979Z" fill="#F4A086"/>
<path d="M153.658 227.037C154.456 232.15 154.139 239.872 151.212 242.682C148.284 245.489 144.995 248.457 139.861 247.856C134.727 247.254 133.162 241.398 133.483 238.109C133.804 234.82 134.727 233.697 134.606 231.932C134.486 230.168 132.24 228.042 133.443 225.314C134.645 222.585 151.893 215.727 153.658 227.037Z" fill="#F6B690"/>
<path d="M157.228 218.254C157.223 218.374 162.603 217.331 164.367 222.946C166.132 228.562 162.201 234.618 156.947 233.415C153.779 232.212 153.377 232.171 153.377 232.171C153.377 232.171 151.252 235.741 148.685 233.134C146.118 230.527 147.481 226.436 147.481 226.436C147.481 226.436 145.556 228.586 142.428 226.167C138.417 229.564 124.738 226.596 124.618 217.732C124.497 208.868 135.779 206.064 142.067 213.561C146.88 208.145 157.509 211.636 157.228 218.254Z" fill="#222954"/>
<path d="M181.35 272.009C181.35 272.009 169.424 269.121 164.611 267.571C159.798 266.02 155.518 248.371 161.617 249.494C167.713 250.617 183.919 261.153 183.919 261.153L196.38 282.439L190.978 285.541L181.35 272.009Z" fill="#01888B"/>
<path d="M144.555 249.492H140.758C140.758 249.492 127.869 247.313 121.933 243.081C118.029 235.48 113.911 226.484 113.911 226.484L105.89 229.543L116.532 254.091C116.532 254.091 128.405 265.269 140.545 266.553C146.588 255.643 144.555 249.492 144.555 249.492Z" fill="#00666B"/>
<path d="M144.417 285.106C144.417 285.106 158.002 319.228 168.218 327.196C183.728 327.571 206.297 328.319 206.297 328.319C206.297 328.319 209.933 329.924 211.859 333.989C213.999 333.774 212.822 331.101 212.822 331.101L208.169 322.169C208.169 322.169 206.779 322.917 204.854 323.559C193.891 321.633 181.813 315.535 177.204 317.194C172.363 307.834 172.122 287.565 167.309 285.105C148.055 284.998 144.417 285.106 144.417 285.106Z" fill="#F6B690"/>
<path d="M137.065 285.059L144.417 285.107C144.417 285.107 155.446 285.059 158.008 285.059C160.088 304.307 154.151 321.742 153.831 328.266C156.398 330.887 154.793 355.702 155.595 358.376C156.398 361.049 156.933 361.585 156.933 361.585L147.894 367.039L144.419 366.719V365.008L147.788 364.099L150.782 359.5C150.782 359.5 147.628 338.857 143.615 329.337C139.177 313.4 137.6 293.135 137.065 285.059Z" fill="#F6B690"/>
<path d="M205.23 322.41L205.825 323.799C205.825 323.799 208.605 324.557 209.037 325.459C209.469 326.362 206.438 328.636 206.438 328.636L208.297 330.279C208.297 330.279 210.824 329.358 211.689 331.019C212.556 332.679 210.534 333.745 210.534 333.745C210.534 333.745 211.49 334.846 212.465 335.459C213.44 336.071 217.104 334.195 217.104 334.195L211.689 320.299L205.23 322.41Z" fill="#60C2C5"/>
<path d="M211.691 320.297L217.106 334.194C217.106 334.194 216.5 334.504 215.716 334.831L210.093 320.82L211.691 320.297Z" fill="#11858A"/>
<path d="M156.319 358.124L155.151 358.356C155.151 358.356 155.554 360.808 154.009 361.82C152.465 362.832 149.496 360.795 149.496 360.795L148.522 362.102C148.522 362.102 150.053 363.935 148.613 365.089C147.174 366.243 146.214 364.141 146.214 364.141C146.214 364.141 145.141 364.672 144.332 364.672C141.181 364.672 142.27 369.9 142.27 369.9H151.064L159.912 363.569L156.319 358.124Z" fill="#60C2C5"/>
<path d="M142.105 368.553H150.728L158.942 362.1L159.912 363.572L151.065 369.903H142.27C142.27 369.902 142.15 369.323 142.105 368.553Z" fill="#11858A"/>
<path d="M113 227.564L112.043 224.87L114.701 218.442C114.701 218.442 113.745 217.33 112.964 218.442C112.185 219.554 112.15 220.299 111.547 220.193C110.945 220.086 111.689 210.909 109.456 210.27C107.224 209.633 103.326 217.454 103.29 219.355C103.255 221.256 106.798 226.288 106.798 226.288L108.5 230.539L113 227.564Z" fill="#F6B690"/>
<path d="M155.824 228.923C158.213 229.561 158.912 233.535 156.666 235.581C154.42 237.626 153.147 235.468 152.816 233.976C152.414 232.171 152.374 228 155.824 228.923Z" fill="#F6B690"/>
<path d="M161.615 249.492C161.615 249.492 148.941 248.584 144.555 249.492C140.169 250.401 134.66 266.286 136.694 285.058C144.394 285.058 168.355 285.058 168.355 285.058C168.355 285.058 166.644 272.865 167.018 263.292C166.322 254.574 166.643 250.455 161.615 249.492Z" fill="#01888B"/>
<path d="M168.355 285.059C168.355 285.059 178.782 306.856 180.079 312.18C171.897 325.317 152.491 329.811 137.943 327.94C130.134 299.381 136.694 285.059 136.694 285.059H168.355Z" fill="#01888B"/>
</svg>
