<svg width="96" height="95" viewBox="0 0 96 95" fill="none" xmlns="http://www.w3.org/2000/svg">
<g clip-path="url(#clip0_486:15228)">
<path d="M13.9588 76.548L19.5751 68.3027C27.3424 72.9631 31.8833 76.07 38.4556 81.4474L32.8393 89.6927C32.6003 90.0512 28.1789 87.4222 22.921 83.8373C17.7827 80.1329 13.7198 76.9065 13.9588 76.548Z" fill="#2980BA"/>
<path d="M36.7833 78.2207C33.0789 74.8748 29.1355 72.2458 24.9531 69.8559C28.8965 65.076 33.4374 60.4156 34.2739 59.6987C36.6638 57.5477 39.5317 56.1138 43.2361 55.3968C44.7896 55.0383 70.4814 49.1829 73.4689 48.5854C75.5003 48.227 77.4123 49.4219 77.7707 51.4534C78.1292 53.2458 77.0538 54.7993 75.3808 55.6358L56.3808 61.1326C55.9028 61.3716 56.0223 62.0886 56.6198 62.0886H56.9783L74.9028 57.5477L83.8651 51.4534C85.0601 50.4974 86.8525 49.3024 88.7645 48.227C89.2424 47.988 92.5884 46.554 94.3808 48.466C94.5003 48.7049 94.5003 48.9439 94.3808 49.1829C94.2613 49.4219 93.3053 50.2584 92.8273 50.7364C92.3494 51.2144 84.7016 58.3842 83.6261 59.4597C82.3116 60.6546 81.4751 61.2521 80.5192 61.8496C80.5192 61.8496 71.5569 67.227 70.3619 68.0634C69.0475 68.7804 67.1355 69.7364 66.0601 69.9754C65.3431 70.0949 47.299 73.7993 46.9406 73.7993C43.1167 74.6358 40.1292 76.1892 37.7393 77.6232C37.2613 77.7427 37.0223 77.9817 36.7833 78.2207Z" fill="#FDD7AD"/>
<path d="M47.2986 17.1572C47.0597 15.8427 45.7452 14.8867 44.1917 14.8867C42.5188 14.8867 41.2043 15.9622 41.0848 17.2767C39.2924 17.5156 37.8584 18.5911 37.8584 19.9056C37.8584 21.3395 39.6509 22.5345 41.9213 22.5345C42.8773 22.5345 43.7137 22.2955 44.3112 22.0565C44.7892 22.2955 45.3867 22.415 46.1037 22.415C48.0156 22.415 49.4496 21.2201 49.4496 19.7861C49.5691 18.4716 48.6131 17.5156 47.2986 17.1572Z" fill="#D1E6E4"/>
<path d="M28.1796 9.74843C27.9406 8.19497 26.2676 7 24.3557 7C22.4437 7 20.7708 8.19497 20.5318 9.86792C18.2613 10.2264 16.5884 11.4214 16.5884 12.9748C16.5884 14.7673 18.8588 16.2013 21.6072 16.2013C22.6827 16.2013 23.7582 15.9623 24.5947 15.6038C25.1922 15.8428 25.9091 16.0818 26.7456 16.0818C29.0161 16.0818 30.8085 14.6478 30.8085 12.8553C30.928 11.4214 29.733 10.2264 28.1796 9.74843Z" fill="#D1E6E4"/>
<path d="M32.9587 39.0241C29.3738 39.2631 25.6694 38.1876 21.965 36.1562C18.6191 34.3637 5.71343 27.5524 3.68198 26.4769C3.56249 26.3574 3.32349 26.3574 3.0845 26.3574L0.216574 26.9549C-0.38091 27.0744 -0.7394 27.7914 -0.261413 28.3889L12.4053 44.4014L34.7512 40.0996L32.9587 39.0241Z" fill="#B4DDF1"/>
<path d="M89.9589 32.9288C89.8394 32.3313 89.6005 31.7338 89.481 31.2559C90.9149 31.3754 91.9904 31.7338 92.1099 32.4508C92.2294 33.1678 91.5124 34.0043 90.1979 34.6018C90.1979 34.1238 90.0784 33.5263 89.9589 32.9288Z" fill="#8ABCD9"/>
<path d="M12.1668 44.1624C14.1982 43.4454 37.6196 37.829 43.8334 36.5146L64.5064 32.2127C68.6888 31.3762 77.7705 29.1057 82.5504 29.2252C87.3303 29.3447 88.1668 30.0617 89.4812 31.2567C89.7202 31.7347 89.8397 32.3322 89.9592 32.9296C90.0787 33.5271 90.1982 34.1246 90.1982 34.7221C87.4498 36.3951 81.4749 39.6215 74.3051 41.1749C67.1353 42.7284 54.2297 45.3573 48.6133 46.5523C42.997 47.7473 33.4372 49.1812 26.8649 48.9422C20.2926 48.5837 11.5693 46.7913 10.8523 46.1938C10.1353 45.4768 10.1353 44.8793 12.1668 44.1624Z" fill="#8ABCD9"/>
<path d="M26.1476 42.9686C23.0407 43.0881 6.19164 45.0001 5.11617 45.0001C3.8017 45.3586 1.41177 45.9561 0.216797 46.5536C2.12875 46.912 10.613 46.912 12.6445 46.7925C17.1853 46.1951 24.9526 44.1636 26.2671 43.9246C27.5816 43.6856 28.0596 42.8491 26.1476 42.9686Z" fill="#8ABCD9"/>
<path d="M73.1097 38.5469C69.6443 41.5343 51.9588 49.3016 50.1663 49.8991C48.4934 50.6161 45.0279 50.4966 43.4745 50.4966C41.921 50.4966 50.8833 44.9997 51.6003 44.1632C52.4367 43.3268 73.1097 38.5469 73.1097 38.5469Z" fill="#BED8FB"/>
</g>
<defs>
<clipPath id="clip0_486:15228">
<rect width="95" height="95" fill="white" transform="translate(0.5)"/>
</clipPath>
</defs>
</svg>
