<svg width="96" height="95" viewBox="0 0 96 95" fill="none" xmlns="http://www.w3.org/2000/svg">
<g clip-path="url(#clip0_486:14967)">
<path d="M78.1863 86.5251V37.6005C78.1863 35.4173 76.4172 33.6476 74.2342 33.6465H11.0058C8.82206 33.6465 7.05176 35.4168 7.05176 37.6005V86.5251H78.1863Z" fill="#F4FBFF"/>
<path d="M84.9943 33.6465H72.895C75.0787 33.6465 76.849 35.4168 76.849 37.6005V86.5251H88.9483V37.6005C88.9483 35.4168 87.178 33.6465 84.9943 33.6465Z" fill="#E4F6FF"/>
<path d="M78.1864 41.2891H17.3191C15.8694 41.2891 14.6943 42.4641 14.6943 43.9138V84.1055H78.1864V41.2891Z" fill="#CBE2FF"/>
<path d="M81.3057 84.1057V43.9138C81.3057 42.4641 80.1307 41.2891 78.681 41.2891H76.8489V84.1055H81.3057V84.1057Z" fill="#BED8FB"/>
<path d="M84.096 88.7595V84.1055H2.89364C1.5835 84.1055 0.52124 85.1675 0.52124 86.4779C0.52124 91.1837 4.33608 94.9986 9.04211 94.9986H77.8588C81.3037 94.9974 84.096 92.2046 84.096 88.7595Z" fill="#D8E2F1"/>
<path d="M93.1065 84.1055H83.3794V88.7595C83.3794 92.2053 80.5862 94.9986 77.1404 94.9986H86.958C91.6639 94.9986 95.4789 91.1837 95.4789 86.4777C95.4789 85.1675 94.4166 84.1055 93.1065 84.1055Z" fill="#B9CBEA"/>
<path d="M33.532 84.1055C33.532 87.1136 35.9704 89.552 38.9785 89.552H57.0218C60.0299 89.552 62.4684 87.1136 62.4684 84.1055H33.532Z" fill="#B9CBEA"/>
<g clip-path="url(#clip1_486:14967)">
<path fill-rule="evenodd" clip-rule="evenodd" d="M71.6999 13.1016C64.9999 19.7016 79.7999 34.7016 86.4999 27.9016C85.9999 26.7016 84.1999 24.6016 82.6999 24.1016L81.3999 25.4016C80.0999 26.7016 72.7999 19.4016 74.0999 18.1016L75.3999 16.8016C74.6999 15.6016 72.9999 13.7016 71.6999 13.1016Z" fill="#61C78A"/>
<path d="M84.5998 16.102V17.802H76.7998C76.7998 17.502 76.7998 17.102 76.9998 16.802C77.1998 16.302 77.4998 15.802 77.9998 15.202C78.3998 14.702 78.9998 14.102 79.7998 13.402C81.0998 12.402 81.8998 11.502 82.3998 10.902C82.8998 10.302 82.8998 9.70195 82.8998 9.20195C82.8998 8.60195 82.8998 8.10195 82.4998 7.70195C82.0998 7.30195 81.5998 7.10195 80.8998 7.10195C79.5998 7.10195 78.7998 8.20195 78.7998 9.50195L77.0998 9.40195C77.1998 8.30195 77.5998 7.50195 78.1998 6.90195C78.8998 6.30195 79.7998 6.00195 80.8998 6.00195C81.9998 6.00195 82.8998 6.30195 83.5998 6.90195C84.2998 7.50195 84.5998 8.30195 84.5998 9.20195C84.5998 9.70195 84.4998 10.102 84.2998 10.602C84.0998 11.102 83.7998 11.502 83.2998 12.002C82.8998 12.502 82.0998 13.202 81.0998 14.102C80.2998 14.702 79.5998 15.402 78.9998 16.002L84.5998 16.102ZM90.6998 17.802V15.002H85.5998V13.602L90.9998 6.00195H92.2998V13.602H93.7998V15.002H92.2998V17.802H90.6998ZM90.6998 13.602V8.40195L86.9998 13.702H90.6998V13.602Z" fill="#CC690F"/>
<path fill-rule="evenodd" clip-rule="evenodd" d="M74.3 25.7008C78 29.3008 83.2 31.2008 86.6 27.9008C86.1 26.7008 84.3 24.6008 82.8 24.1008L81.5 25.4008C80.9 26.0008 78.8 24.6008 77 22.8008L74.3 25.7008Z" fill="#40825C"/>
</g>
<g clip-path="url(#clip2_486:14967)">
<path d="M49.8874 15.3874C55.8802 18.9065 57.7343 22.261 57.3174 55.8724L39.3436 55.868L39.0996 13.0162C39.0996 13.0162 45.2299 12.6514 49.8874 15.3874Z" fill="#1D1D1D"/>
<path d="M28.8044 15.3877C22.8116 18.9068 19.3872 22.2167 21.3744 55.8727L39.3438 55.8682L39.5922 13.012C39.5922 13.0164 33.4619 12.6516 28.8044 15.3877Z" fill="#3E3E3E"/>
<path d="M39.1002 48.0794L31.1868 44.0977V62.089C31.1868 62.089 34.2475 65.7727 39.1002 65.7727C44.8312 65.7727 47.0136 62.3826 47.0136 62.3826V46.7537L39.1002 48.0794Z" fill="#FFDBA8"/>
<path d="M39.291 15.7441C39.2333 15.7441 39.1624 15.7441 39.1003 15.7441C36.0839 15.7486 24.0674 16.4604 25.957 33.4864C25.957 33.4864 26.3796 36.7726 26.8756 40.3845C27.7234 46.5578 30.7504 52.2158 36.8726 53.3767C37.7413 53.5414 38.5157 53.6158 39.1047 53.5731C39.6385 53.6119 40.3446 53.535 41.1427 53.3744C47.3527 52.1248 50.4923 46.5037 51.3537 40.2282C51.841 36.6784 52.2523 33.4864 52.2523 33.4864C53.6984 16.4248 42.3916 15.7708 39.291 15.7441Z" fill="#FFDBA8"/>
<path d="M39.5343 13.0146C39.4722 13.0146 39.4012 13.0146 39.3391 13.0146C39.2637 13.0146 39.1794 12.9968 39.0996 13.019C17.9453 17.6103 24.9406 32.6831 24.9406 32.6831L26.014 32.6609C26.014 32.6609 33.7145 32.0647 39.104 28.9817C45.2298 25.4804 49.3019 19.986 49.3019 19.986C50.087 14.7585 42.7103 13.0323 39.5343 13.0146Z" fill="#3E3E3E"/>
<path d="M41.4729 83.9993H36.5803C36.5803 83.9993 28.2144 68.7485 28.2543 67.4139C28.3031 66.0836 39.0865 62.7559 39.0865 62.7559C39.0865 62.7559 47.7717 62.8048 48.9916 63.2586C51.9591 64.3664 45.8998 79.0789 41.4729 83.9993Z" fill="#F2F2F2"/>
<path d="M48.9519 18.4805C48.9519 18.4805 47.5369 26.1771 52.1811 33.0506C56.8298 39.9242 53.6715 23.8903 53.6715 23.8903C53.6715 23.8903 50.3004 18.4805 48.9519 18.4805Z" fill="#1D1D1D"/>
<path d="M51.0229 42.4816C51.0229 42.4816 52.9703 42.9665 53.9639 38.7756C55.1083 33.9352 54.9042 33.1745 53.6312 32.9787C52.5222 32.8052 51.2625 33.7306 51.2625 33.7306L51.0229 42.4816Z" fill="#FFDBA8"/>
<path d="M40.7323 62.752H37.4675V83.9954H40.7323V62.752Z" fill="#F8F8F8"/>
<path d="M47.0267 57.4258C47.0267 57.4258 45.8911 61.4076 39.0911 62.7511C39.0911 62.7511 41.5174 69.3755 47.9405 66.8263C54.6207 64.1792 51.3383 59.063 47.0267 57.4258Z" fill="#E5E5E5"/>
<path d="M31.1727 57.2832C31.1727 57.2832 32.2905 61.4073 39.0906 62.7509C39.0906 62.7509 36.6642 69.3753 30.2412 66.8261C23.5609 64.179 26.8611 58.9248 31.1727 57.2832Z" fill="#D7D7D7"/>
<path d="M23.8141 72.2614L25.5707 69.721L26.449 68.4531L23.2552 63.1856L22.0664 61.2192L22.0442 61.1836C22.0442 61.1836 9.58855 66.8915 9.5708 66.9138C8.68365 67.8836 7.0779 76.5056 6 83.9931H32.7034L23.8141 72.2614Z" fill="#5987CD"/>
<path d="M54.1812 72.2628L41.4727 83.999H71.9997C70.9218 76.5115 69.3161 67.8895 68.4289 66.9196C68.4067 66.8974 55.951 61.1895 55.951 61.1895L51.5463 68.4545L54.1812 72.2628Z" fill="#5987CD"/>
<path d="M26.4536 68.4532L25.5709 69.7211L23.8187 72.2614L32.7036 83.9976H36.5805L35.1877 79.1973L30.4902 63.0211L29.0707 58.1406L22.0444 61.1881L23.2598 63.1857L26.4536 68.4532Z" fill="#3E6298"/>
<path d="M54.1812 72.2628L51.5463 68.4546L55.951 61.1895L49.1111 58.3066L47.7094 63.018L43.2381 78.0598L41.4727 83.999H45.2963L54.1812 72.2628Z" fill="#3E6298"/>
<path d="M54 64.4965L55.9 61.1973C59.5667 62.5306 67.3 65.3965 68.5 66.9965C69.7 68.5965 71.3333 78.9965 72 83.9965H59V70.4965C59 67.2965 55.6667 65.1631 54 64.4965Z" fill="#416DAF"/>
<path d="M37.7781 69.1489C37.7825 69.8162 38.3237 70.3546 38.989 70.3635V67.9121C38.3148 67.921 37.7781 68.4727 37.7781 69.1489Z" fill="#F7F7F7"/>
<path d="M38.9974 67.9121C38.9929 67.9121 38.9929 67.9121 38.9929 67.9121V70.3635C39.0018 70.3635 39.0062 70.3635 39.0151 70.3635C39.6938 70.359 40.2349 69.8074 40.2305 69.1267C40.2261 68.4505 39.676 67.9077 38.9974 67.9121Z" fill="white"/>
<path d="M38.816 69.1405C38.816 69.2918 38.7007 69.4119 38.5499 69.4119C38.3946 69.4164 38.2793 69.2918 38.2793 69.145C38.2793 68.9937 38.3991 68.8691 38.5454 68.8691C38.6918 68.8736 38.8205 68.9937 38.816 69.1405Z" fill="#C9C9C9"/>
<path d="M39.7919 69.1347C39.7963 69.2859 39.6721 69.4061 39.5257 69.4061C39.3749 69.4105 39.2507 69.2904 39.2507 69.1391C39.2507 68.9879 39.3705 68.8633 39.5213 68.8633C39.6677 68.8633 39.7919 68.9834 39.7919 69.1347Z" fill="#D4D4D4"/>
<path d="M37.7957 79.4087C37.8001 80.0805 38.3413 80.6143 39.0067 80.6232V78.1719C38.3324 78.1763 37.7912 78.728 37.7957 79.4087Z" fill="#F7F7F7"/>
<path d="M39.0155 78.1719C39.011 78.1719 39.011 78.1719 39.0066 78.1719V80.6233C39.0155 80.6233 39.0243 80.6233 39.0288 80.6233C39.7075 80.6188 40.2486 80.0671 40.2442 79.3865C40.2397 78.7102 39.6897 78.1675 39.0155 78.1719Z" fill="white"/>
<path d="M38.8332 79.4022C38.8332 79.5491 38.7179 79.6736 38.5671 79.6781C38.4163 79.6781 38.2965 79.5535 38.2965 79.4067C38.2921 79.251 38.4163 79.1309 38.5627 79.1309C38.709 79.1309 38.8332 79.251 38.8332 79.4022Z" fill="#C9C9C9"/>
<path d="M39.8046 79.3901C39.809 79.5414 39.6848 79.6615 39.5385 79.6659C39.3876 79.6659 39.2634 79.5458 39.2634 79.399C39.2634 79.2433 39.3832 79.1232 39.534 79.1232C39.6804 79.1187 39.8046 79.2433 39.8046 79.3901Z" fill="#D4D4D4"/>
<path d="M39.9341 53.4841C46.8539 52.4164 43.9263 25.6784 44.5917 25.0112C45.1693 24.432 48.2726 21.0026 48.7748 20.3992C48.7828 20.3718 48.793 20.3519 48.8057 20.3398C48.8674 20.2811 48.8511 20.3076 48.7748 20.3992C48.4895 21.3861 51.1974 32.0573 52.1325 32.1294C52.2064 34.947 51.9994 41.8725 50.58 47.0332C49.1605 52.194 42.8913 53.4841 39.9341 53.4841Z" fill="#F0BD6D"/>
<path d="M20.2835 38.7455C19.9642 36.1251 21.5256 33.7182 23.8943 32.9219L25.1807 43.5325C22.6922 43.3278 20.5985 41.3659 20.2835 38.7455Z" fill="#4DBBC9"/>
<path d="M24.9408 32.6833C25.3001 32.6388 25.6594 32.6344 26.0143 32.661L27.3007 43.2717C26.968 43.3829 26.6176 43.463 26.2538 43.5075C25.8901 43.552 25.5308 43.5564 25.1848 43.5297L23.8984 32.9191C24.2267 32.8079 24.5771 32.7278 24.9408 32.6833Z" fill="#60768E"/>
<path d="M41.7129 50.5343V48.7903C52.1858 48.7903 53.8492 41.7922 53.9157 41.4941L55.6191 41.859C55.5969 41.9479 53.6451 50.5343 41.7129 50.5343Z" fill="#4DBBC9"/>
<path d="M43.5315 49.6624C43.5315 50.5566 42.8085 51.2818 41.9169 51.2818H39.1356C38.244 51.2818 37.521 50.5566 37.521 49.6624C37.521 48.7681 38.244 48.043 39.1356 48.043H41.9124C42.804 48.043 43.5315 48.7681 43.5315 49.6624Z" fill="#60768E"/>
<path d="M55.1796 37.2008L54.0928 36.7114C54.4167 35.5013 54.0618 32.8675 54.0618 32.8675C54.0618 32.8675 54.0618 32.6807 54.0618 32.4938C54.0618 23.8407 47.3327 16.7981 39.06 16.7981C30.7872 16.7981 24.0582 23.8407 24.0582 32.4938L24.0892 37.1785L22.3504 37.1919L22.3193 32.5027C22.3193 22.8798 29.8291 15.0586 39.06 15.0586C48.2908 15.0586 55.8051 22.8842 55.8051 32.4983C55.8006 34.0821 55.5921 35.6659 55.1796 37.2008Z" fill="#4DBBC9"/>
<path d="M57.8458 38.7474C58.1652 36.127 56.5994 33.7202 54.2351 32.9238L52.9487 43.5345C55.4372 43.3298 57.5265 41.3678 57.8458 38.7474Z" fill="#4DBBC9"/>
<path d="M53.1884 32.6852C52.8291 32.6408 52.4698 32.6363 52.1149 32.663L50.9128 43.3003C51.2455 43.4115 51.5117 43.4649 51.871 43.5094C52.2347 43.5539 52.594 43.5584 52.94 43.5317L54.2264 32.921C53.9026 32.8098 53.5521 32.7297 53.1884 32.6852Z" fill="#60768E"/>
</g>
</g>
<defs>
<clipPath id="clip0_486:14967">
<rect width="95" height="95" fill="white" transform="translate(0.5)"/>
</clipPath>
<clipPath id="clip1_486:14967">
<rect width="23.8" height="23.6" fill="white" transform="translate(70 6.00195)"/>
</clipPath>
<clipPath id="clip2_486:14967">
<rect width="66" height="71" fill="white" transform="translate(6.00024 12.998)"/>
</clipPath>
</defs>
</svg>
