<svg width="96" height="95" viewBox="0 0 96 95" fill="none" xmlns="http://www.w3.org/2000/svg">
<g clip-path="url(#clip0_486:15044)">
<path d="M32.8335 8.97266H23.237C18.4967 8.97266 14.6538 12.8155 14.6538 17.5559V25.835L16.3733 27.0854H33.5807V10.2359L32.8335 8.97266Z" fill="#565250"/>
<path d="M51.671 53.7231L39.4019 50.1211H20.1951L7.9215 53.7235C3.522 55.0147 0.5 59.0513 0.5 63.6363V81.1067H59.0918V63.6358C59.0918 59.0509 56.0702 55.0145 51.671 53.7231Z" fill="#797470"/>
<path d="M51.6713 53.7231L39.4022 50.1211H29.8506L29.9376 54.9791L39.5719 57.9579C43.9711 59.2493 46.9927 63.2856 46.9927 67.8705V81.1065H59.092V63.6356C59.092 59.0509 56.0704 55.0145 51.6713 53.7231Z" fill="#565250"/>
<path d="M31.6676 62.002H27.9236L24.5422 81.0793L24.5576 81.1081H35.0561L31.6676 62.002Z" fill="#DD636E"/>
<path d="M36.5344 50.9268V40.0918H23.0527V50.9268C23.0527 54.6496 29.7937 54.9804 29.7937 54.9804C29.7937 54.9804 36.5344 54.6496 36.5344 50.9268Z" fill="#FFDDCE"/>
<path d="M50.7793 81.1063V75.1263C50.7793 74.3348 50.1379 73.6934 49.3463 73.6934C48.5548 73.6934 47.9133 74.3348 47.9133 75.1263V81.1063H50.7793Z" fill="#B6AAA2"/>
<path d="M41.2038 13.9616H41.0782C40.3826 13.9616 39.8187 13.3978 39.8187 12.7021C39.8187 10.6424 38.149 8.97266 36.0892 8.97266H32.834V27.0854H43.2139L44.9333 25.835V17.6911C44.9333 15.6314 43.2636 13.9616 41.2038 13.9616Z" fill="#492D18"/>
<path d="M20.4244 49.4026L18.5045 50.2645C17.4087 50.7565 17.1441 52.193 17.993 53.0432L23.3098 58.3682C23.9841 59.0247 25.0458 59.0651 25.7681 58.4617L29.9372 54.9792L22.8293 49.6679C22.1353 49.1493 21.2146 49.0478 20.4244 49.4026Z" fill="#B6AAA2"/>
<path d="M36.7535 49.7005L29.9373 54.9786L33.8558 58.329C34.5737 58.9428 35.6402 58.912 36.3214 58.2576L41.6408 53.0773C42.5103 52.2306 42.2505 50.7737 41.1419 50.2796L39.1847 49.4076C38.3822 49.0502 37.4482 49.1626 36.7535 49.7005Z" fill="#B6AAA2"/>
<path d="M29.9374 54.9805L25.832 58.4092L27.9239 62.0017H31.6679L33.7597 58.2531L29.9374 54.9805Z" fill="#E28086"/>
<path d="M33.5809 33.3711V19.8858C30.2097 20.5261 26.7155 20.3036 23.4296 19.2182L23.4248 19.2165C21.6523 18.6309 19.8259 19.9509 19.8259 21.8177V23.2384C19.8259 24.6716 18.664 25.8335 17.2309 25.8335H14.6538V30.0771C14.6538 31.1615 15.5329 32.0406 16.6173 32.0406C16.9594 32.0406 17.2377 32.3087 17.2593 32.6501C17.6227 38.4139 21.8707 43.1233 27.4159 44.1857C31.0619 41.9458 33.5117 37.9482 33.5809 33.3711Z" fill="#FFDDCE"/>
<path d="M42.3559 25.8329C40.9227 25.8329 39.7608 24.671 39.7608 23.2378V21.8177C39.7608 19.9507 37.9343 18.6307 36.1618 19.2167C35.0713 19.577 33.9577 19.8397 32.8336 20.0101V33.1865C32.7637 37.81 30.1959 41.8254 26.4211 43.9486C27.4945 44.2473 28.6247 44.41 29.7935 44.41C36.4618 44.41 41.9136 39.2136 42.3275 32.6497C42.349 32.3083 42.6275 32.0402 42.9695 32.0402C44.0538 32.0402 44.933 31.1611 44.933 30.0767V25.8331H42.3559V25.8329Z" fill="#FFCBBE"/>
<path d="M71.8756 39.6031L71.147 39.1394L70.4184 39.6031C64.0875 43.6318 56.0631 45.2944 46.829 45.0576L45.3613 45.02L45.4389 46.4861C46.4014 64.6521 49.8889 86.8273 70.5854 96.2348L71.147 96.4901L71.7086 96.2348C92.4058 86.827 95.8927 64.5297 96.855 46.4866L96.9332 45.0199L95.465 45.0576C86.2309 45.2944 78.2065 43.6318 71.8756 39.6031ZM71.2635 46.4962C76.6678 49.3447 83.1017 50.9795 90.339 51.3413C89.0863 65.4029 85.7339 81.6127 71.147 89.3741C56.596 81.6328 53.1105 65.482 51.9584 51.3521C59.1908 51.0127 65.7016 49.3709 71.2635 46.4962Z" fill="#75CEF8" stroke="white" stroke-width="2.71429"/>
<path d="M71.147 47.1387C65.8425 49.9115 59.5734 51.4788 52.5811 51.961C53.1838 57.9889 54.0278 63.1729 55.3539 67.6336C58.3679 77.7605 63.5519 84.6323 71.147 88.8519C78.8628 84.5118 84.0468 77.6399 86.9402 67.513C88.2663 63.0524 89.1102 57.9889 89.713 51.8405C82.7206 51.4788 76.4516 49.791 71.147 47.1387ZM82.4795 70.2859H75.4871V77.2783H66.8069V70.2859H59.8146V61.7262H66.8069V54.7339H75.3666V61.7262H82.4795V70.2859Z" fill="#F19920"/>
</g>
<defs>
<clipPath id="clip0_486:15044">
<rect width="95" height="95" fill="white" transform="translate(0.5)"/>
</clipPath>
</defs>
</svg>
