<svg width="96" height="95" viewBox="0 0 96 95" fill="none" xmlns="http://www.w3.org/2000/svg">
<path d="M79.1031 69.6454H76.9635C76.513 74.2625 72.6842 77.7535 67.9545 77.7535H26.8508C21.8958 77.7535 17.8418 73.6994 17.8418 68.6318V53.9922H15.7021V68.6318C15.7021 74.8255 20.6571 79.8931 26.8508 79.8931H68.0671C73.9229 79.8931 78.6527 75.3886 79.1031 69.6454Z" fill="#4D4D4D"/>
<path d="M87.0986 24.4857H84.1707V23.6974C84.1707 23.3596 83.9455 23.1343 83.6077 23.1343H79.6662C79.3284 23.1343 79.1031 23.3596 79.1031 23.6974V24.5983H75.2743V21.3325C75.2743 20.8821 74.8239 20.4316 74.3734 20.4316C73.923 20.4316 73.4725 20.8821 73.4725 21.3325V24.5983H69.0806V21.3325C69.0806 20.8821 68.6302 20.4316 68.1797 20.4316C67.7293 20.4316 67.2788 20.8821 67.2788 21.3325V24.5983H50.95V21.3325C50.95 20.8821 50.4995 20.4316 50.0491 20.4316C49.5986 20.4316 49.1482 20.8821 49.1482 21.3325V24.5983H44.7563V21.3325C44.7563 20.8821 44.3058 20.4316 43.8554 20.4316C43.4049 20.4316 42.9545 20.8821 42.9545 21.3325V24.5983H39.1256V23.6974C39.1256 23.3596 38.9004 23.1343 38.5626 23.1343H34.6211C34.2833 23.1343 34.0581 23.3596 34.0581 23.6974V24.5983H32.7067C32.7067 25.9497 32.7067 27.4136 32.5941 29.1028C32.1436 34.6208 30.9049 39.801 29.3283 43.5172C29.3283 43.9677 29.3283 44.4181 29.1031 44.8686C28.4274 46.3326 27.4139 47.6839 26.4004 49.1479V64.9137C26.4004 67.5038 28.54 69.6434 31.1301 69.6434H32.9319L33.7202 71.3326C33.9454 71.6704 34.3959 71.8957 34.959 71.8957H37.2112C37.7743 71.8957 38.2247 71.6704 38.45 71.3326L39.2382 69.6434H77.0761C77.0761 69.3056 77.0761 68.9677 77.0761 68.6299V45.2064L76.8509 43.0668C74.0356 42.5037 72.0085 40.0263 72.0085 36.9857C72.0085 33.6073 74.8239 30.792 78.2022 30.792C81.5806 30.792 84.3959 33.6073 84.3959 36.9857C84.3959 39.9136 82.2563 42.3911 79.441 43.0668L79.2158 45.0938V68.5173C79.2158 68.8551 79.2158 69.1929 79.2158 69.5308L80.004 71.22C80.2293 71.5578 80.6797 71.783 81.2428 71.783H83.495C84.0581 71.783 84.5086 71.5578 84.7338 71.22L85.5221 69.5308H87.3239C89.914 69.5308 92.0536 67.3911 92.0536 64.8011V29.328C91.8284 26.6253 89.6887 24.4857 87.0986 24.4857ZM73.5851 43.0668V54.1028H64.5761V63.1119H53.5401V54.1028H44.531V43.0668H53.5401V34.0578H64.5761V43.0668H73.5851Z" fill="#F19920"/>
<path d="M78.0897 32.5938C75.6122 32.5938 73.5852 34.6208 73.5852 37.0983C73.5852 39.5757 75.6122 41.6028 78.0897 41.6028C80.5672 41.6028 82.5942 39.5757 82.5942 37.0983C82.5942 34.5082 80.5672 32.5938 78.0897 32.5938ZM78.0897 39.6884C76.6258 39.6884 75.4996 38.5622 75.4996 37.0983C75.4996 35.6343 76.6258 34.5082 78.0897 34.5082C79.5537 34.5082 80.6798 35.6343 80.6798 37.0983C80.7924 38.4496 79.5537 39.6884 78.0897 39.6884Z" fill="#4D4D4D"/>
<path d="M47.0085 23.9234C48.1347 23.9234 49.0356 23.0225 49.0356 21.8964V19.1937C49.0356 17.955 50.0491 17.0541 51.1752 17.0541H67.1662C68.405 17.0541 69.3059 18.0676 69.3059 19.1937V22.009C69.3059 23.1351 70.2068 24.036 71.3329 24.036C72.459 24.036 73.3599 23.1351 73.3599 22.009V19.1937C73.3599 15.8153 70.6572 13 67.1662 13H51.0626C47.6842 13 44.8689 15.7027 44.8689 19.1937V22.009C44.9815 23.0225 45.8824 23.9234 47.0085 23.9234Z" fill="#4D4D4D"/>
<path d="M16.6032 53.8789C16.4906 53.8789 16.4906 53.8789 16.6032 53.8789C12.4365 53.4284 7.93199 47.7978 6.01757 43.969C4.21577 40.3654 2.86442 34.8473 2.41396 28.8789C1.8509 22.6852 2.7518 18.7437 5.00406 17.1671C6.58063 16.041 8.38244 16.041 10.6347 16.041C11.1978 16.041 11.8734 16.041 12.4365 16.041C12.7743 16.041 13.1122 16.2662 13.1122 16.6041C13.1122 16.9419 12.8869 17.2798 12.5491 17.2798C9.50857 17.3924 7.36892 17.0545 5.79235 18.1807C3.76532 19.532 3.08964 23.1356 3.6527 28.7663C4.10316 34.6221 5.45451 39.9149 7.1437 43.4059C8.83289 46.8969 13.1122 52.3023 16.7158 52.6401C17.0536 52.6401 17.2788 52.978 17.2788 53.3158C17.1662 53.6537 16.8284 53.8789 16.6032 53.8789Z" fill="#4D4D4D"/>
<path d="M15.2516 18.5177L11.4227 17.9546C11.0849 17.842 10.7471 17.5042 10.7471 17.0537V16.2654C10.7471 15.815 11.0849 15.4771 11.5354 15.3645L15.2516 14.9141C15.5894 14.9141 15.8146 15.1393 15.8146 15.3645L15.702 17.9546C15.8146 18.4051 15.4768 18.6303 15.2516 18.5177Z" fill="#4D4D4D"/>
<path d="M16.9411 53.8795C16.6032 53.8795 16.378 53.6543 16.2654 53.3164C16.2654 52.9786 16.4906 52.6408 16.8284 52.6408C20.4321 52.1903 24.5987 46.8975 26.4005 43.4065C28.0897 39.9155 29.4411 34.6227 29.8915 28.7669C30.342 23.1362 29.6663 19.5326 27.8645 18.1813C26.2879 17.0551 24.1483 17.393 21.1077 17.2804C20.7699 17.2804 20.4321 16.9425 20.5447 16.6047C20.5447 16.2668 20.8825 15.929 21.2203 16.0416C21.896 16.0416 22.4591 16.0416 23.0221 16.0416C25.2744 16.0416 27.0762 16.0416 28.6528 17.1677C30.905 18.8569 31.8059 22.6858 31.2429 28.8795C30.6798 34.8479 29.4411 40.366 27.6393 43.9696C25.6122 47.7984 20.9951 53.429 16.9411 53.8795Z" fill="#4D4D4D"/>
<path d="M18.2924 18.5177L22.0086 17.842C22.459 17.842 22.6843 17.5042 22.6843 17.0537V16.2654C22.6843 15.815 22.3464 15.4771 21.896 15.3645L18.1798 14.9141C17.8419 14.9141 17.6167 15.1393 17.6167 15.3645L17.7293 17.9546C17.7293 18.4051 17.9545 18.6303 18.2924 18.5177Z" fill="#4D4D4D"/>
<path d="M27.3015 42.8435C26.8511 42.6183 26.288 42.8435 26.0628 43.294C24.7115 46.1093 22.5718 48.812 20.0943 50.7264C18.9682 51.6273 17.5042 52.6409 15.9277 52.1904C14.5763 51.8526 13.4502 50.9517 12.4367 49.9381C10.4096 48.0237 8.60784 45.6589 7.3691 43.1814C7.14388 42.7309 6.58081 42.5057 6.13036 42.7309C5.67991 42.9562 5.45468 43.5192 5.67991 43.9697C6.80604 46.3345 8.49523 48.4742 10.297 50.3886C11.1979 51.5147 12.3241 52.303 13.3376 53.2039C14.1259 54.1048 14.9142 55.0057 15.4772 56.0192C15.7024 56.3571 15.8151 56.6949 15.9277 57.1454L16.716 55.5688L16.8286 54.8931L16.9412 55.5688L17.8421 57.1454C17.8421 56.3571 18.5178 55.4562 18.9682 54.8931C19.306 54.33 19.7565 53.767 20.3196 53.3165C20.77 52.8661 21.3331 52.4156 21.8961 51.9652C22.9097 51.0643 23.9232 50.0508 24.8241 49.0372C26.0628 47.5733 27.1889 45.8841 27.9772 44.1949C27.9772 43.6318 27.8646 43.0688 27.3015 42.8435Z" fill="#4D4D4D"/>
</svg>
