<svg width="357" height="221" viewBox="0 0 357 221" fill="none" xmlns="http://www.w3.org/2000/svg">
<path d="M38.0684 109.281L0.922905 74.9214L32.4965 98.1373L38.0684 109.281Z" fill="#547563"/>
<path d="M39.9252 94.4227L0.922443 74.9214L56.6406 86.9937L39.9252 94.4227Z" fill="#4AC281"/>
<path d="M39.9258 94.4228L38.0685 109.281L32.4967 98.1373L0.923054 74.9214L39.9258 94.4228Z" fill="#097C3E"/>
<path d="M32.4961 98.1373L10.2088 112.067L0.922457 74.9214L32.4961 98.1373Z" fill="#4AC281"/>
<path d="M0.000675122 74.9094C0.000789566 74.8749 0.00322716 74.8404 0.00810235 74.8063C0.0127487 74.7701 0.0229606 74.7357 0.0313186 74.6995L0.0368919 74.6744C0.0424613 74.654 0.0368919 74.6336 0.0471076 74.6132L0.0526771 74.602C0.0692787 74.5657 0.0878486 74.5304 0.108395 74.4961C0.11861 74.4776 0.119541 74.4562 0.130684 74.4376C0.141827 74.4191 0.152969 74.4163 0.161327 74.4033C0.17572 74.3786 0.191509 74.3546 0.208691 74.3318C0.227261 74.3095 0.251408 74.2937 0.271835 74.2733C0.292267 74.2528 0.302483 74.2445 0.318268 74.2306C0.334057 74.2166 0.360058 74.1869 0.384201 74.1693C0.392559 74.1637 0.397202 74.1553 0.40556 74.1498C0.413918 74.1442 0.431561 74.1396 0.443634 74.1321C0.51804 74.0974 0.592678 74.0631 0.667435 74.029C0.686935 74.0244 0.707367 74.029 0.726868 74.0216C0.765175 74.0143 0.803944 74.0093 0.842945 74.0068C0.885082 74.0013 0.927685 73.9992 0.970169 74.0003C0.99826 74.0032 1.02612 74.0075 1.05375 74.0133C1.07418 74.0133 1.0946 74.0133 1.11504 74.0133L56.8332 86.0855C57.3346 86.1936 57.6534 86.6876 57.5454 87.189C57.4828 87.4794 57.285 87.7223 57.0134 87.8425L40.7771 95.058L38.9848 109.396C38.9848 109.413 38.9737 109.427 38.9709 109.444C38.9613 109.489 38.9483 109.534 38.9319 109.578C38.9146 109.631 38.8929 109.683 38.8669 109.732C38.8447 109.77 38.8199 109.806 38.7926 109.84C38.756 109.888 38.7153 109.932 38.6709 109.972C38.6542 109.986 38.644 110.006 38.6264 110.019C38.6087 110.032 38.5846 110.04 38.5651 110.053C38.5204 110.081 38.4735 110.106 38.4249 110.126C38.3804 110.145 38.3344 110.161 38.2874 110.173C38.2642 110.179 38.2447 110.192 38.2206 110.197C38.1702 110.205 38.1193 110.209 38.0683 110.21C37.9669 110.208 37.8666 110.19 37.7711 110.156C37.7442 110.147 37.7191 110.133 37.6922 110.121C37.621 110.089 37.5543 110.048 37.4934 110C37.4795 109.988 37.4609 109.984 37.447 109.971L28.3761 101.807L10.7013 112.858C10.2667 113.13 9.69366 112.999 9.42134 112.564C9.37026 112.483 9.33219 112.394 9.30839 112.301L0.0220336 75.1555C0.0215682 75.1465 0.0215682 75.1375 0.0220336 75.1285C0.0155334 75.0979 0.0173911 75.0663 0.0136756 75.0357C0.00613013 74.994 0.00172035 74.9518 0.000675122 74.9094ZM33.0722 97.413C33.0861 97.4242 33.0963 97.4372 33.1103 97.4493C33.1945 97.5225 33.2648 97.6107 33.3174 97.7093C33.3174 97.7148 33.3248 97.7176 33.3276 97.7223L37.5269 106.124L38.9198 94.9605L10.2352 80.6159L33.0462 97.3889C33.0536 97.3945 33.0629 97.4056 33.0722 97.413ZM7.94144 77.3926L39.9487 93.3958L53.6694 87.2993L7.94144 77.3926ZM35.0446 105.31L32.125 99.4663L30.017 100.784L35.0446 105.31ZM10.8007 110.603L27.9805 99.8637L30.8435 98.0752L6.81593 80.4069L2.45135 77.1957L10.8007 110.603Z" fill="#4A2E19"/>
<path d="M125.5 177.056L125.858 177.989L125.5 177.056ZM294 130.055L293.865 131.045L294 130.055ZM39.2234 128.78C39.2811 129.329 39.7732 129.727 40.3224 129.67C40.8717 129.612 41.2702 129.12 41.2125 128.571L39.2234 128.78ZM42.8262 136.467C42.6663 135.938 42.1081 135.639 41.5794 135.799C41.0508 135.959 40.752 136.517 40.912 137.046L42.8262 136.467ZM44.0115 144.864C44.2553 145.36 44.8547 145.564 45.3502 145.32C45.8458 145.076 46.0499 144.477 45.8061 143.981L44.0115 144.864ZM49.908 150.979C49.596 150.523 48.9737 150.407 48.5179 150.719C48.0622 151.031 47.9456 151.653 48.2576 152.109L49.908 150.979ZM53.4338 158.702C53.8018 159.113 54.434 159.149 54.8458 158.781C55.2577 158.413 55.2933 157.781 54.9253 157.369L53.4338 158.702ZM60.702 163.094C60.2872 162.729 59.6554 162.77 59.2907 163.185C58.9261 163.599 58.9667 164.231 59.3815 164.596L60.702 163.094ZM65.9818 169.747C66.4361 170.061 67.059 169.947 67.3729 169.493C67.6868 169.038 67.5729 168.415 67.1185 168.101L65.9818 169.747ZM74.0725 172.331C73.5847 172.072 72.9793 172.258 72.7203 172.745C72.4613 173.233 72.6467 173.838 73.1345 174.097L74.0725 172.331ZM80.7485 177.579C81.2636 177.778 81.8427 177.522 82.0418 177.007C82.241 176.492 81.9849 175.913 81.4698 175.714L80.7485 177.579ZM89.2179 178.173C88.6821 178.039 88.1391 178.365 88.0052 178.901C87.8713 179.437 88.1971 179.98 88.7329 180.114L89.2179 178.173ZM96.9795 181.618C97.5281 181.681 98.0242 181.288 98.0876 180.739C98.1509 180.191 97.7575 179.694 97.2089 179.631L96.9795 181.618ZM105.317 180.017C104.765 180.029 104.327 180.486 104.338 181.038C104.349 181.59 104.806 182.028 105.358 182.017L105.317 180.017ZM113.717 181.264C114.262 181.176 114.633 180.663 114.546 180.118C114.458 179.573 113.945 179.202 113.399 179.289L113.717 181.264ZM121.303 177.447C120.775 177.609 120.479 178.168 120.641 178.696C120.803 179.224 121.363 179.521 121.891 179.358L121.303 177.447ZM129.407 176.561C129.916 176.346 130.154 175.759 129.939 175.251C129.724 174.742 129.137 174.504 128.628 174.719L129.407 176.561ZM135.235 171.618C134.745 171.874 134.556 172.478 134.812 172.967C135.069 173.457 135.673 173.646 136.162 173.39L135.235 171.618ZM142.649 169.528C143.105 169.217 143.223 168.594 142.911 168.138C142.6 167.682 141.978 167.565 141.522 167.876L142.649 169.528ZM147.121 163.356C146.725 163.741 146.717 164.374 147.102 164.77C147.487 165.166 148.121 165.174 148.516 164.789L147.121 163.356ZM153.303 158.777C153.581 158.299 153.419 157.687 152.942 157.41C152.464 157.132 151.852 157.294 151.575 157.771L153.303 158.777ZM153.905 151.188C153.83 151.735 154.213 152.24 154.76 152.315C155.307 152.39 155.812 152.007 155.887 151.46L153.905 151.188ZM155.305 143.707C155.154 143.176 154.601 142.868 154.069 143.019C153.538 143.169 153.23 143.723 153.381 144.254L155.305 143.707ZM150.328 137.874C150.639 138.33 151.261 138.449 151.718 138.138C152.174 137.827 152.293 137.205 151.982 136.749L150.328 137.874ZM146.923 131.008C146.512 130.638 145.88 130.672 145.511 131.083C145.141 131.494 145.175 132.126 145.586 132.495L146.923 131.008ZM139.739 128.307C140.222 128.576 140.831 128.402 141.099 127.92C141.368 127.437 141.194 126.828 140.712 126.56L139.739 128.307ZM133.494 123.824C132.95 123.725 132.43 124.085 132.331 124.628C132.232 125.172 132.592 125.692 133.135 125.791L133.494 123.824ZM127.297 127.117C127.625 126.673 127.531 126.047 127.086 125.719C126.641 125.391 126.015 125.486 125.688 125.931L127.297 127.117ZM124.902 134.328C125.012 134.869 125.54 135.219 126.081 135.109C126.622 134.999 126.972 134.472 126.862 133.93L124.902 134.328ZM130.333 140.487C129.935 140.104 129.302 140.116 128.919 140.514C128.536 140.911 128.548 141.544 128.945 141.928L130.333 140.487ZM136.399 146.044C136.928 146.204 137.486 145.905 137.646 145.376C137.806 144.848 137.507 144.289 136.978 144.13L136.399 146.044ZM144.772 145.455C144.221 145.415 143.742 145.83 143.703 146.381C143.663 146.932 144.078 147.41 144.629 147.45L144.772 145.455ZM152.891 147.531C153.443 147.508 153.872 147.043 153.849 146.491C153.827 145.939 153.361 145.51 152.809 145.532L152.891 147.531ZM160.895 144.919C160.346 144.977 159.948 145.469 160.006 146.018C160.064 146.567 160.556 146.966 161.105 146.908L160.895 144.919ZM169.204 145.88C169.75 145.8 170.129 145.293 170.05 144.746C169.97 144.2 169.463 143.821 168.916 143.9L169.204 145.88ZM176.946 142.623C176.402 142.716 176.036 143.233 176.128 143.777C176.221 144.322 176.738 144.688 177.283 144.595L176.946 142.623ZM185.337 143.152C185.88 143.051 186.238 142.529 186.137 141.986C186.036 141.443 185.514 141.085 184.971 141.186L185.337 143.152ZM192.953 139.662C192.41 139.768 192.056 140.293 192.162 140.835C192.267 141.377 192.792 141.731 193.334 141.626L192.953 139.662ZM201.331 140.056C201.873 139.95 202.225 139.424 202.118 138.882C202.012 138.34 201.486 137.987 200.944 138.094L201.331 140.056ZM208.945 136.523C208.403 136.628 208.049 137.153 208.155 137.695C208.26 138.238 208.785 138.591 209.327 138.486L208.945 136.523ZM217.328 136.948C217.87 136.846 218.227 136.323 218.125 135.78C218.023 135.238 217.5 134.881 216.957 134.983L217.328 136.948ZM224.984 133.508C224.44 133.605 224.078 134.124 224.175 134.668C224.272 135.212 224.791 135.574 225.335 135.477L224.984 133.508ZM233.352 134.103C233.897 134.014 234.267 133.5 234.177 132.955C234.088 132.41 233.574 132.04 233.029 132.129L233.352 134.103ZM241.101 130.88C240.554 130.959 240.175 131.467 240.255 132.013C240.334 132.56 240.841 132.938 241.388 132.859L241.101 130.88ZM249.444 131.781C249.992 131.714 250.383 131.215 250.316 130.667C250.249 130.119 249.75 129.729 249.202 129.795L249.444 131.781ZM257.334 128.917C256.784 128.968 256.38 129.456 256.431 130.006C256.482 130.555 256.97 130.96 257.519 130.908L257.334 128.917ZM265.609 130.29C266.16 130.257 266.581 129.784 266.549 129.233C266.517 128.681 266.043 128.261 265.492 128.293L265.609 130.29ZM273.67 127.98C273.118 127.99 272.677 128.445 272.687 128.997C272.696 129.549 273.151 129.989 273.703 129.98L273.67 127.98ZM281.797 130.048C282.349 130.068 282.812 129.636 282.831 129.084C282.85 128.532 282.419 128.069 281.867 128.049L281.797 130.048ZM290.071 128.588C289.521 128.534 289.031 128.936 288.977 129.485C288.923 130.035 289.325 130.525 289.874 130.579L290.071 128.588ZM298.024 131.674C298.569 131.764 299.084 131.396 299.175 130.851C299.266 130.307 298.898 129.791 298.353 129.701L298.024 131.674ZM306.696 131.365C306.159 131.239 305.62 131.573 305.495 132.111C305.369 132.648 305.702 133.187 306.24 133.312L306.696 131.365ZM314.298 135.507C314.825 135.672 315.386 135.378 315.551 134.851C315.716 134.324 315.422 133.763 314.895 133.598L314.298 135.507ZM322.921 136.466C322.409 136.259 321.826 136.506 321.619 137.018C321.411 137.53 321.658 138.113 322.17 138.32L322.921 136.466ZM329.764 141.793C330.256 142.046 330.858 141.852 331.111 141.361C331.363 140.87 331.17 140.267 330.678 140.014L329.764 141.793ZM338.072 144.276C337.608 143.977 336.989 144.111 336.69 144.575C336.391 145.04 336.525 145.658 336.989 145.958L338.072 144.276ZM343.752 150.822C344.183 151.168 344.813 151.098 345.158 150.667C345.503 150.236 345.434 149.607 345.003 149.262L343.752 150.822ZM351.374 154.949C350.982 154.56 350.349 154.562 349.96 154.954C349.571 155.346 349.573 155.979 349.965 156.368L351.374 154.949ZM355.55 162.545C355.898 162.974 356.528 163.039 356.957 162.691C357.386 162.343 357.451 161.713 357.103 161.284L355.55 162.545ZM362.135 168.185C361.833 167.723 361.213 167.593 360.751 167.895C360.288 168.197 360.158 168.817 360.46 169.279L362.135 168.185ZM364.672 176.477C364.927 176.966 365.531 177.156 366.021 176.9C366.51 176.645 366.7 176.041 366.444 175.551L364.672 176.477ZM370.041 183.282C369.831 182.772 369.246 182.528 368.736 182.739C368.225 182.949 367.982 183.534 368.192 184.045L370.041 183.282ZM371.051 191.896C371.219 192.422 371.782 192.713 372.308 192.545C372.834 192.377 373.125 191.814 372.957 191.288L371.051 191.896ZM375.237 199.49C375.108 198.953 374.569 198.622 374.031 198.75C373.494 198.879 373.163 199.418 373.291 199.955L375.237 199.49ZM374.961 208.16C375.053 208.705 375.57 209.071 376.114 208.979C376.659 208.887 377.025 208.37 376.933 207.826L374.961 208.16ZM378.098 216.246C378.038 215.696 377.545 215.3 376.996 215.359C376.447 215.419 376.05 215.912 376.11 216.461L378.098 216.246ZM39 124.555C39 125.963 39.0756 127.373 39.2234 128.78L41.2125 128.571C41.0718 127.231 41 125.891 41 124.555H39ZM40.912 137.046C41.7137 139.695 42.7549 142.31 44.0115 144.864L45.8061 143.981C44.5948 141.519 43.5946 139.006 42.8262 136.467L40.912 137.046ZM48.2576 152.109C49.8173 154.387 51.5491 156.592 53.4338 158.702L54.9253 157.369C53.0961 155.322 51.4176 153.185 49.908 150.979L48.2576 152.109ZM59.3815 164.596C61.4626 166.425 63.6683 168.149 65.9818 169.747L67.1185 168.101C64.869 166.547 62.7247 164.872 60.702 163.094L59.3815 164.596ZM73.1345 174.097C75.5898 175.401 78.133 176.568 80.7485 177.579L81.4698 175.714C78.93 174.731 76.459 173.598 74.0725 172.331L73.1345 174.097ZM88.7329 180.114C91.4316 180.788 94.1855 181.295 96.9795 181.618L97.2089 179.631C94.5034 179.319 91.8349 178.827 89.2179 178.173L88.7329 180.114ZM105.358 182.017C108.126 181.96 110.917 181.714 113.717 181.264L113.399 179.289C110.692 179.725 107.994 179.962 105.317 180.017L105.358 182.017ZM121.891 179.358C123.215 178.951 124.538 178.496 125.858 177.989L125.142 176.122C123.864 176.612 122.584 177.053 121.303 177.447L121.891 179.358ZM125.858 177.989C127.085 177.519 128.267 177.043 129.407 176.561L128.628 174.719C127.51 175.191 126.349 175.659 125.142 176.122L125.858 177.989ZM136.162 173.39C138.571 172.129 140.727 170.839 142.649 169.528L141.522 167.876C139.671 169.139 137.582 170.389 135.235 171.618L136.162 173.39ZM148.516 164.789C150.548 162.811 152.127 160.799 153.303 158.777L151.575 157.771C150.5 159.619 149.039 161.489 147.121 163.356L148.516 164.789ZM155.887 151.46C156.254 148.782 156.006 146.176 155.305 143.707L153.381 144.254C154.014 146.482 154.231 148.81 153.905 151.188L155.887 151.46ZM151.982 136.749C150.54 134.629 148.803 132.697 146.923 131.008L145.586 132.495C147.361 134.089 148.986 135.902 150.328 137.874L151.982 136.749ZM140.712 126.56C138.251 125.191 135.761 124.236 133.494 123.824L133.135 125.791C135.139 126.156 137.422 127.018 139.739 128.307L140.712 126.56ZM125.688 125.931C124.896 127.005 124.5 128.395 124.5 130.055H126.5C126.5 128.71 126.818 127.767 127.297 127.117L125.688 125.931ZM124.5 130.055C124.5 131.585 124.635 133.008 124.902 134.328L126.862 133.93C126.624 132.757 126.5 131.468 126.5 130.055H124.5ZM128.945 141.928C130.902 143.812 133.429 145.145 136.399 146.044L136.978 144.13C134.226 143.297 132.005 142.098 130.333 140.487L128.945 141.928ZM144.629 147.45C147.192 147.634 149.955 147.651 152.891 147.531L152.809 145.532C149.93 145.65 147.244 145.632 144.772 145.455L144.629 147.45ZM161.105 146.908C163.707 146.633 166.411 146.286 169.204 145.88L168.916 143.9C166.144 144.303 163.467 144.647 160.895 144.919L161.105 146.908ZM177.283 144.595C179.909 144.147 182.597 143.662 185.337 143.152L184.971 141.186C182.238 141.695 179.56 142.177 176.946 142.623L177.283 144.595ZM193.334 141.626C195.964 141.114 198.632 140.588 201.331 140.056L200.944 138.094C198.245 138.626 195.579 139.151 192.953 139.662L193.334 141.626ZM209.327 138.486C211.975 137.969 214.643 137.455 217.328 136.948L216.957 134.983C214.267 135.49 211.594 136.006 208.945 136.523L209.327 138.486ZM225.335 135.477C228.001 135.002 230.675 134.542 233.352 134.103L233.029 132.129C230.341 132.57 227.658 133.031 224.984 133.508L225.335 135.477ZM241.388 132.859C244.079 132.469 246.767 132.107 249.444 131.781L249.202 129.795C246.508 130.123 243.806 130.487 241.101 130.88L241.388 132.859ZM257.519 130.908C260.236 130.655 262.935 130.446 265.609 130.29L265.492 128.293C262.793 128.451 260.071 128.662 257.334 128.917L257.519 130.908ZM273.703 129.98C276.438 129.935 279.139 129.955 281.797 130.048L281.867 128.049C279.171 127.955 276.437 127.935 273.67 127.98L273.703 129.98ZM289.874 130.579C291.219 130.711 292.55 130.867 293.865 131.045L294.135 129.064C292.794 128.881 291.439 128.723 290.071 128.588L289.874 130.579ZM293.865 131.045C295.273 131.237 296.66 131.446 298.024 131.674L298.353 129.701C296.968 129.47 295.562 129.258 294.135 129.064L293.865 131.045ZM306.24 133.312C309.025 133.965 311.71 134.698 314.298 135.507L314.895 133.598C312.259 132.774 309.527 132.028 306.696 131.365L306.24 133.312ZM322.17 138.32C324.816 139.391 327.346 140.551 329.764 141.793L330.678 140.014C328.205 138.744 325.621 137.559 322.921 136.466L322.17 138.32ZM336.989 145.958C339.368 147.49 341.62 149.114 343.752 150.822L345.003 149.262C342.817 147.51 340.508 145.845 338.072 144.276L336.989 145.958ZM349.965 156.368C351.952 158.343 353.812 160.404 355.55 162.545L357.103 161.284C355.32 159.089 353.413 156.975 351.374 154.949L349.965 156.368ZM360.46 169.279C361.981 171.607 363.383 174.009 364.672 176.477L366.444 175.551C365.127 173.028 363.692 170.569 362.135 168.185L360.46 169.279ZM368.192 184.045C369.249 186.608 370.2 189.227 371.051 191.896L372.957 191.288C372.089 188.57 371.12 185.898 370.041 183.282L368.192 184.045ZM373.291 199.955C373.937 202.654 374.491 205.391 374.961 208.16L376.933 207.826C376.456 205.015 375.893 202.234 375.237 199.49L373.291 199.955ZM376.11 216.461C376.26 217.847 376.391 219.239 376.503 220.635L378.497 220.475C378.383 219.06 378.25 217.65 378.098 216.246L376.11 216.461Z" fill="#C4BBB5"/>
<path fill-rule="evenodd" clip-rule="evenodd" d="M371.441 103.675H299.562C299.194 101.988 299 100.235 299 98.438C299 84.9413 309.941 74 323.438 74C334.809 74 344.367 81.7666 347.095 92.2847C349.67 90.1326 352.986 88.8375 356.604 88.8375C364.798 88.8375 371.441 95.4803 371.441 103.675Z" fill="#D1E6E4"/>
<path opacity="0.4" fill-rule="evenodd" clip-rule="evenodd" d="M230.441 69H63.3077C62.4512 65.0773 62 61.0031 62 56.8235C62 25.4408 87.4408 0 118.824 0C145.264 0 167.487 18.059 173.83 42.5156C179.818 37.5116 187.528 34.5 195.941 34.5C214.995 34.5 230.441 49.9462 230.441 69Z" fill="#D1E6E4"/>
</svg>
