<svg width="109" height="109" viewBox="0 0 109 109" fill="none" xmlns="http://www.w3.org/2000/svg">
<path d="M78.6821 45.7927H31.1177C28.7569 45.7927 26.834 47.7128 26.834 50.0736V96.6696C26.834 99.0304 28.7541 100.951 31.1177 100.951H78.6793C81.0402 100.951 82.9631 99.0304 82.9631 96.6696V50.0736C82.9631 47.7128 81.043 45.7927 78.6821 45.7927Z" fill="#F43131"/>
<path d="M83.1226 14.948H26.6763C23.42 14.948 20.7812 17.5867 20.7812 20.843V102.079C20.7812 105.336 23.42 107.974 26.6763 107.974H83.1226C86.3789 107.974 89.0176 105.336 89.0176 102.079V20.843C89.0176 17.5867 86.3789 14.948 83.1226 14.948ZM83.4426 96.6699C83.4426 99.2946 81.3063 101.431 78.6816 101.431H31.1172C28.4925 101.431 26.3563 99.2946 26.3563 96.6699V50.0739C26.3563 47.4492 28.4925 45.313 31.1172 45.313H78.6788C81.3035 45.313 83.4398 47.4492 83.4398 50.0739V96.6699H83.4426Z" fill="#F43131"/>
<path d="M78.6808 45.313H31.1164C28.4917 45.313 26.3555 47.4492 26.3555 50.0739V96.6699C26.3555 99.2946 28.4917 101.431 31.1164 101.431H78.678C81.3027 101.431 83.439 99.2946 83.439 96.6699V50.0739C83.4418 47.4492 81.3055 45.313 78.6808 45.313ZM82.9618 96.6699C82.9618 99.0307 81.0417 100.951 78.678 100.951H31.1164C28.7556 100.951 26.8327 99.0307 26.8327 96.6699V50.0739C26.8327 47.7131 28.7528 45.793 31.1164 45.793H78.678C81.0389 45.793 82.9618 47.7131 82.9618 50.0739V96.6699Z" fill="#E22020"/>
<path d="M83.202 30.1992H26.5957V37.3H83.202V30.1992Z" fill="#25242A"/>
<path d="M80.9843 25.0427H28.8162C27.5894 25.0427 26.5957 26.0365 26.5957 27.2632V30.4521H83.202V27.2632C83.2048 26.0365 82.2111 25.0427 80.9843 25.0427Z" fill="#323232"/>
<path d="M55.9366 53.1019C57.3174 52.53 57.9731 50.9469 57.4012 49.5661C56.8292 48.1853 55.2462 47.5296 53.8654 48.1016C52.4846 48.6735 51.8289 50.2566 52.4009 51.6374C52.9728 53.0182 54.5558 53.6739 55.9366 53.1019Z" fill="#969696"/>
<path d="M56.47 52.1712C57.3372 51.304 57.3372 49.8981 56.47 49.031C55.6029 48.1639 54.197 48.1639 53.3299 49.031C52.4627 49.8981 52.4627 51.304 53.3299 52.1712C54.197 53.0383 55.6029 53.0383 56.47 52.1712Z" fill="#ADADAD"/>
<path d="M55.1543 49.2822H54.6406V51.9181H55.1543V49.2822Z" fill="#7F7F7F"/>
<mask id="mask0_900_55411" style="mask-type:alpha" maskUnits="userSpaceOnUse" x="26" y="0" width="58" height="38">
<rect x="26.9941" y="0.908203" width="56.8063" height="36.3916" fill="#C4C4C4"/>
</mask>
<g mask="url(#mask0_900_55411)">
<path d="M61.5175 2.86255L28.8555 37.2559L48.7929 56.1897L81.4549 21.7964L61.5175 2.86255Z" fill="white"/>
<path opacity="0.6" d="M48.7949 56.1881L54.2436 28.6555L81.459 21.792L48.7949 56.1881Z" fill="#25242A"/>
<path d="M48.7949 56.1881L54.5384 28.9334L81.459 21.792L48.7949 56.1881Z" fill="white"/>
<path opacity="0.6" d="M28.8574 37.2567L58.4252 32.6277L61.5187 2.8606L28.8574 37.2567Z" fill="#25242A"/>
<path d="M28.8574 37.2567L57.7459 31.9848L61.5187 2.8606L28.8574 37.2567Z" fill="white"/>
</g>
<path d="M50.0469 14.9478C50.5129 14.4313 50.9817 13.9204 51.4505 13.4067C51.9192 12.893 52.388 12.3821 52.8625 11.874L54.2801 10.3469C54.7517 9.83879 55.2261 9.32789 55.7005 8.8226L57.1265 7.30393L58.5582 5.79087L59.9926 4.28062L61.4327 2.77318L61.5197 2.68335L61.6095 2.77037L64.7816 5.8021L67.9453 8.84225C69.0008 9.85563 70.0563 10.869 71.1033 11.888C72.1532 12.907 73.2059 13.9232 74.253 14.945C73.1778 13.9541 72.1083 12.9547 71.036 11.9582C69.9636 10.9645 68.8969 9.9623 67.8302 8.96015L64.63 5.95649L61.4411 2.95003L61.618 2.94442L60.1863 4.46028L58.7519 5.97334L57.3146 7.48078L55.8717 8.98261C55.3917 9.48509 54.9061 9.98195 54.4232 10.4816L52.9719 11.9778C52.4891 12.4775 52.0007 12.9716 51.515 13.4656C51.0266 13.9625 50.5409 14.4566 50.0469 14.9478Z" fill="#6E5C4F"/>
</svg>
