<svg width="304" height="304" viewBox="0 0 304 304" fill="none" xmlns="http://www.w3.org/2000/svg">
<mask id="mask0_833_31365" style="mask-type:alpha" maskUnits="userSpaceOnUse" x="0" y="0" width="304" height="304">
<path d="M0.5 152C0.5 120.718 2.17679 95.6152 6.63578 75.5515C11.0935 55.4935 18.3252 40.5029 29.4141 29.4141C40.5029 18.3252 55.4935 11.0935 75.5515 6.63578C95.6152 2.17679 120.718 0.5 152 0.5C183.282 0.5 208.385 2.17679 228.448 6.63578C248.506 11.0935 263.497 18.3252 274.586 29.4141C285.675 40.5029 292.906 55.4935 297.364 75.5515C301.823 95.6152 303.5 120.718 303.5 152C303.5 183.282 301.823 208.385 297.364 228.448C292.906 248.506 285.675 263.497 274.586 274.586C263.497 285.675 248.506 292.906 228.448 297.364C208.385 301.823 183.282 303.5 152 303.5C120.718 303.5 95.6152 301.823 75.5515 297.364C55.4935 292.906 40.5029 285.675 29.4141 274.586C18.3252 263.497 11.0935 248.506 6.63578 228.448C2.17679 208.385 0.5 183.282 0.5 152Z" fill="#C4C4C4" stroke="black"/>
</mask>
<g mask="url(#mask0_833_31365)">
<path d="M3 152C3 120.775 4.677 95.8887 9.07624 76.0939C13.4679 56.3331 20.5325 41.8312 31.1818 31.1818C41.8312 20.5325 56.3331 13.4679 76.0939 9.07624C95.8887 4.677 120.775 3 152 3C183.225 3 208.111 4.677 227.906 9.07624C247.667 13.4679 262.169 20.5325 272.818 31.1818C283.468 41.8312 290.532 56.3331 294.924 76.0939C299.323 95.8887 301 120.775 301 152C301 183.225 299.323 208.111 294.924 227.906C290.532 247.667 283.468 262.169 272.818 272.818C262.169 283.468 247.667 290.532 227.906 294.924C208.111 299.323 183.225 301 152 301C120.775 301 95.8887 299.323 76.0939 294.924C56.3331 290.532 41.8312 283.468 31.1818 272.818C20.5325 262.169 13.4679 247.667 9.07624 227.906C4.677 208.111 3 183.225 3 152Z" fill="#FFE298" stroke="#4A2E1C" stroke-width="6"/>
<ellipse cx="235" cy="92" rx="51" ry="27" fill="white"/>
<path d="M220.541 124.617C222.485 134.165 208.845 142.61 188.532 146.475C168.208 150.328 147.964 144.543 146.031 134.983C144.099 125.435 159.944 118.16 180.257 114.295C200.57 110.442 218.598 115.057 220.541 124.617Z" fill="#8DBC93"/>
<path d="M134.459 59.6182C144.121 58.7429 153.783 59.6182 162.933 63.1874C168.946 57.4016 176.187 42.9543 186.304 50.5815C190.805 53.9802 192.021 59.2885 191.93 64.6992C191.839 70.0416 191.646 75.7591 189.589 80.7378C199.342 90.3429 206.764 102.278 211.186 115.327C219.995 123.193 221.848 134.196 224.03 145.393C228.452 163.091 235.124 179.891 243.945 195.873C248.765 204.603 253.482 213.139 257.301 222.358C268.884 250.309 272.226 279.852 271.498 309.894C288.242 326.353 299.768 347.916 296.665 371.923C293.857 393.589 281.842 414.038 263.951 426.928C254.994 433.373 244.866 438.476 233.908 440.579C223.678 442.546 212.982 443.057 202.581 443.205C189.748 443.387 176.926 442.887 164.104 442.807C150.521 442.728 136.903 443.182 123.354 442.125C96.6872 442.273 69.4181 444.308 43.1265 438.601C30.2592 435.817 17.4828 430.77 7.82093 421.619C1.1031 415.254 -4.2848 407.422 -8.62695 399.147C-24.0177 392.736 -39.3971 379.721 -41.6591 362.432C-43.1823 350.77 -33.9183 339.323 -21.2556 336.913C-21.0964 326.638 -23.0856 312.384 -21.7557 302.347C-19.8347 287.683 -17.3908 272.531 -12.719 258.459C-8.70652 246.376 -3.50049 234.623 2.45576 223.358C2.58079 223.119 2.73993 222.994 2.89906 222.824C9.30999 208.547 16.2779 194.725 23.2799 180.698C31.6004 164.08 37.784 146.518 45.5249 129.627C53.4476 112.326 63.9165 91.2977 79.9665 78.8509C79.2391 76.1001 78.7844 73.3039 78.4888 70.86C77.7386 64.6992 78.1592 57.7313 83.3539 53.5483C92.22 46.4439 102.541 56.731 108.907 65.3243C116.113 62.9032 123.593 60.9708 131.14 60.0046" fill="#8DBC93"/>
<path d="M190.521 109.112C191.851 114.455 195.898 118.751 199.558 118.717C203.218 118.683 205.105 114.329 203.775 108.987C202.445 103.645 198.398 99.3479 194.727 99.382C191.078 99.4161 189.191 103.77 190.521 109.112Z" fill="#4A2E1C"/>
<path d="M200.877 123.546C195.329 123.308 189.703 117.397 187.805 109.792C186.622 105.064 187.202 100.574 189.373 97.7889C190.794 95.9588 192.817 94.9358 195.091 94.9131C195.227 94.9131 195.364 94.9131 195.5 94.9244C201.058 95.1632 206.674 101.074 208.572 108.678C209.754 113.407 209.163 117.897 207.003 120.682C205.582 122.512 203.548 123.535 201.286 123.558C201.149 123.546 201.013 123.546 200.877 123.546ZM195.136 98.9142C194.079 98.9256 193.204 99.3689 192.533 100.233C191.135 102.04 190.805 105.337 191.681 108.826C193.238 115.078 197.785 119.409 201.047 119.556H201.263C202.309 119.545 203.184 119.102 203.855 118.238C205.253 116.431 205.582 113.134 204.707 109.645C203.15 103.393 198.615 99.062 195.341 98.9256L195.136 98.9142Z" fill="#A7D4AE"/>
<path d="M195.557 103.12C195.773 104.678 196.535 106.076 197.364 106.28C198.194 106.474 198.933 105.291 198.774 103.745C198.603 102.2 197.637 100.801 196.807 100.597C195.966 100.404 195.318 101.358 195.557 103.12Z" fill="white"/>
<path d="M166.003 63.782C171.243 59.8945 175.778 47.0841 184.417 49.5052C192.317 51.5512 190.714 63.7934 190.112 69.5791C189.998 72.3185 189.884 75.0466 188.316 77.7178" fill="#F6FBF7"/>
<path d="M168.242 66.2246C172.448 62.7918 177.029 51.3453 183.383 52.6639C189.998 54.0279 187.486 71.8398 185.52 75.9319C183.678 79.7398 189.248 83.3545 191.101 79.5125C193.681 74.1814 193.863 67.8501 193.977 61.9961C194.068 56.4832 192.84 51.0725 188.305 47.617C177.54 39.4329 170.004 56.2331 163.763 61.3368C160.433 64.0535 164.946 68.9186 168.242 66.2246Z" fill="#4A2E1C"/>
<path d="M97.0738 67.7231C71.3392 75.9187 56.6532 105.245 46.2638 128.104C38.4434 145.302 32.1916 163.171 23.7915 180.108C15.9711 195.885 8.16205 211.389 1.16005 227.576C-0.544985 231.509 5.79773 233.498 7.46867 229.61C14.2433 213.958 21.6659 198.897 29.3727 183.699C36.9885 168.684 42.8424 152.827 49.4238 137.345C54.8799 124.478 61.2113 111.963 68.9749 100.323C76.2156 89.4907 85.741 78.2716 98.5629 74.1795C102.598 72.9064 101.155 66.4273 97.0738 67.7231Z" fill="#4A2E1C"/>
<path d="M2.77442 223.543C-3.23866 235.012 -8.49016 246.97 -12.5368 259.269C-17.2654 273.58 -19.7206 289.016 -21.6644 303.929C-23.6877 319.411 -25.0403 335.597 -23.6877 351.181C-22.4714 365.242 -18.6749 378.928 -13.3325 391.943C-8.36513 404.094 -1.43133 416.188 8.12822 425.316C17.881 434.626 30.7597 439.752 43.7293 442.582C70.2596 448.368 97.7675 446.299 124.662 446.129C128.924 446.095 129.231 439.468 124.946 439.491C100.393 439.638 76.0226 440.866 51.6066 437.308C38.1709 435.353 24.7466 430.784 14.2663 421.94C4.18392 413.404 -2.38615 400.798 -7.46714 388.84C-18.7999 362.196 -18.584 334.37 -15.2648 306.1C-12.0139 278.285 -4.62542 251.96 8.36693 227.123C10.322 223.361 4.75226 219.757 2.77442 223.543Z" fill="#4A2E1C"/>
<path d="M99.3699 73.8861C119.33 65.3269 142.485 58.7454 163.604 67.0887C184.485 75.3411 200.49 94.9831 207.264 116C208.56 120.036 215.039 118.592 213.732 114.511C206.162 91.0388 189.214 70.9876 166.48 61.1097C143.803 51.266 117.762 58.8136 96.2667 68.0208C92.3338 69.7145 95.4597 75.5684 99.3699 73.8861Z" fill="#4A2E1C"/>
<path d="M89.1399 84.8213C84.4568 81.2066 79.4667 61.11 85.0365 54.6536C93.3798 44.9576 106.906 62.6672 111.567 70.5786" fill="#F6FBF7"/>
<path d="M91.5841 82.5815C86.2076 77.8074 83.7069 63.3601 87.2761 57.1765C92.448 48.2421 106.361 68.3729 108.634 72.1467C110.828 75.7955 116.705 72.715 114.5 69.0435C109.635 60.973 95.8467 41.4675 84.4571 50.686C79.2056 54.9372 78.785 62.0302 79.5352 68.3047C80.2627 74.3973 81.8313 82.7634 86.6964 87.0714C89.8677 89.879 94.7896 85.4118 91.5841 82.5815Z" fill="#4A2E1C"/>
<path d="M208.697 118.044C216.915 124.728 217.972 135.856 219.848 145.575C220.655 149.769 227.122 148.28 226.315 144.086C224.019 132.208 222.178 120.511 212.277 112.463C208.97 109.769 205.423 115.385 208.697 118.044Z" fill="#4A2E1C"/>
<path d="M219.848 145.589C224.031 162.525 230.169 178.78 238.216 194.25C243.07 203.583 248.424 212.506 252.584 222.202C264.951 250.983 268.373 281.559 267.475 312.716C267.35 316.99 273.988 317.274 274.102 313C275 281.923 271.703 251.335 259.836 222.429C255.994 213.04 251.232 204.367 246.378 195.478C237.478 179.223 230.748 162.116 226.304 144.111C225.292 139.951 218.825 141.417 219.848 145.589Z" fill="#4A2E1C"/>
<path d="M117.16 114.113C116.898 120.24 121.218 125.4 126.799 125.628C132.38 125.866 137.12 121.092 137.37 114.966C137.631 108.839 133.312 103.69 127.731 103.451C122.15 103.212 117.421 107.986 117.16 114.113Z" fill="#4A2E1C"/>
<path d="M125.537 129.801C115.772 129.392 105.463 125.834 105.826 117.081C106.201 108.26 118.421 96.6094 126.912 96.9732C135.255 97.3255 141.746 104.975 141.359 114.023C140.984 123.072 133.891 130.153 125.537 129.801ZM126.753 100.963C120.387 100.69 110.1 110.591 109.816 117.252C109.498 124.913 124.047 125.743 125.707 125.811C131.857 126.072 137.085 120.707 137.369 113.853C137.665 106.999 132.902 101.213 126.753 100.963Z" fill="#A7D4AE"/>
<path d="M133.607 108.839C133.721 111.01 132.812 112.874 131.413 113.034C130.015 113.193 128.322 111.397 128.14 109.237C127.958 107.077 129.231 105.236 130.618 105.077C132.016 104.929 133.471 106.384 133.607 108.839Z" fill="white"/>
<path d="M108.078 121.719C112.909 121.924 117.274 123.731 120.627 126.596C126.128 129.744 129.72 135.644 129.436 142.248C129.095 150.307 123.127 156.831 115.341 158.434C112.636 159.56 109.624 160.128 106.475 159.991C95.3923 159.525 86.7534 150.58 87.1967 140.008C87.6401 129.437 96.995 121.253 108.078 121.719Z" fill="#A7D4AE"/>
<path d="M214.996 137.312C214.649 150.748 201.489 160.896 171.042 161.943C146.887 162.777 125.658 154.386 126.004 140.95C126.362 127.514 146.216 119.371 170.218 116.488C194.232 113.605 215.332 123.876 214.996 137.312Z" fill="#F6FBF7"/>
<path d="M204.972 128.404C206.859 134.985 194.822 138.304 181.909 138.805C168.985 139.305 155.879 132.735 158.289 126.437C160.073 121.788 169.11 119.686 182.057 120.038C195.345 120.413 203.665 123.812 204.972 128.404Z" fill="#4A2E1C"/>
<path d="M203.797 216.313C202.229 216.313 200.967 215.052 200.967 213.483V198.035C200.967 196.478 202.229 195.205 203.797 195.205C205.355 195.205 206.628 196.467 206.628 198.035V213.483C206.628 215.04 205.366 216.313 203.797 216.313Z" fill="#FAC84D"/>
<path d="M215.881 232.637H192.613C191.601 232.637 190.658 232.092 190.157 231.216C189.657 230.33 189.669 229.25 190.18 228.375L201.32 209.563C201.82 208.721 202.718 208.199 203.695 208.176C204.73 208.187 205.594 208.653 206.128 209.472L218.256 228.284C218.813 229.148 218.859 230.262 218.359 231.171C217.87 232.08 216.915 232.637 215.881 232.637ZM197.58 226.988H210.697L203.855 216.383L197.58 226.988Z" fill="#FAC84D"/>
<path d="M216.881 241.796H192.124C190.555 241.796 189.293 240.535 189.293 238.966C189.293 237.409 190.555 236.136 192.124 236.136H216.881C218.438 236.136 219.711 237.397 219.711 238.966C219.7 240.535 218.438 241.796 216.881 241.796Z" fill="#FAC84D"/>
<path d="M218.029 251.38H212.414C211.527 251.38 210.811 250.664 210.811 249.778C210.811 248.891 211.527 248.175 212.414 248.175H218.029C218.915 248.175 219.632 248.891 219.632 249.778C219.632 250.664 218.915 251.38 218.029 251.38Z" fill="#4A2E1C"/>
<path d="M202.763 251.38H197.409C196.523 251.38 195.807 250.664 195.807 249.778C195.807 248.891 196.523 248.175 197.409 248.175H202.763C203.65 248.175 204.366 248.891 204.366 249.778C204.366 250.664 203.65 251.38 202.763 251.38Z" fill="#4A2E1C"/>
<path d="M218.029 274.885H212.414C211.527 274.885 210.811 274.169 210.811 273.282C210.811 272.396 211.527 271.68 212.414 271.68H218.029C218.915 271.68 219.632 272.396 219.632 273.282C219.632 274.18 218.915 274.885 218.029 274.885Z" fill="#4A2E1C"/>
<path d="M215.221 274.727C214.335 274.727 213.619 274.011 213.619 273.125V249.857C213.619 248.97 214.335 248.254 215.221 248.254C216.108 248.254 216.824 248.97 216.824 249.857V273.125C216.824 274.011 216.108 274.727 215.221 274.727Z" fill="#4A2E1C"/>
<path d="M200.205 274.727C199.319 274.727 198.603 274.011 198.603 273.125V249.857C198.603 248.97 199.319 248.254 200.205 248.254C201.092 248.254 201.808 248.97 201.808 249.857V273.125C201.808 274.011 201.092 274.727 200.205 274.727Z" fill="#4A2E1C"/>
<path d="M190.305 275.809C189.418 275.809 188.702 275.093 188.702 274.206V249.619C188.702 248.733 189.418 248.017 190.305 248.017C191.192 248.017 191.908 248.733 191.908 249.619V274.206C191.908 275.093 191.192 275.809 190.305 275.809Z" fill="#4A2E1C"/>
<path d="M212.004 274.9H205.491C204.604 274.9 203.888 274.184 203.888 273.297V249.949C203.888 249.063 204.604 248.347 205.491 248.347C206.378 248.347 207.094 249.063 207.094 249.949V271.694H212.004C212.891 271.694 213.607 272.41 213.607 273.297C213.607 274.184 212.891 274.9 212.004 274.9Z" fill="#4A2E1C"/>
<path d="M190.965 263.451C190.078 263.451 189.362 262.734 189.362 261.848C189.362 260.961 190.078 260.245 190.965 260.245C193.079 260.245 194.807 258.222 194.807 255.732C194.807 253.243 193.079 251.208 190.965 251.208C190.078 251.208 189.362 250.492 189.362 249.606C189.362 248.719 190.078 248.003 190.965 248.003C194.852 248.003 198.012 251.47 198.012 255.721C198.012 259.972 194.852 263.451 190.965 263.451Z" fill="#4A2E1C"/>
<path d="M190.965 275.967C190.078 275.967 189.362 275.25 189.362 274.364C189.362 273.477 190.078 272.761 190.965 272.761C193.079 272.761 194.807 270.738 194.807 268.248C194.807 265.759 193.079 263.736 190.965 263.736C190.078 263.736 189.362 263.02 189.362 262.133C189.362 261.246 190.078 260.53 190.965 260.53C194.852 260.53 198.012 263.997 198.012 268.248C198.012 272.511 194.852 275.967 190.965 275.967Z" fill="#4A2E1C"/>
<path d="M135.051 223.381C121.081 218.982 97.6765 206.342 80.8762 170.116L61.6094 186.28C61.6094 186.28 72.4989 228.349 104.622 257.812C110.18 242.819 121.263 229.463 135.051 223.381Z" fill="#8DBC93"/>
<path d="M192.476 258.654C192.476 258.654 200.706 227.94 146.952 225.746C146.952 225.746 142.257 225.656 135.062 223.394C121.263 229.475 110.18 242.831 104.622 257.835C112.579 265.133 121.831 271.669 132.562 276.591C132.55 276.579 183.985 301.666 192.476 258.654Z" fill="#F6FBF7"/>
<path d="M61.6094 186.291C61.6094 186.291 78.5574 251.798 132.55 276.578C132.55 276.578 183.985 301.665 192.476 258.652C192.476 258.652 200.706 227.939 146.952 225.745C146.952 225.745 106.349 225.018 80.8876 170.127" stroke="#4A2E1C" stroke-width="6.82013" stroke-miterlimit="10" stroke-linecap="round" stroke-linejoin="round"/>
<path d="M242.024 186.997C262.644 203.831 273.92 207.492 274.261 232.635C274.488 249.401 265.292 266.577 251.698 269.498C215.846 277.216 216.244 242.479 228.657 241.785C261.496 239.955 254.403 209.526 250.822 203.831C247.242 198.148 242.024 186.997 242.024 186.997Z" fill="#8DBC93"/>
<path d="M228.646 241.798C216.426 244.049 215.835 277.229 251.686 269.511C265.281 266.589 274.477 249.403 274.25 232.648C274.25 232.648 264.042 221.69 254.551 226.999C245.071 232.296 240.297 239.65 228.646 241.798Z" fill="#F6FBF7"/>
<path d="M249.708 208.174C249.708 208.174 259.768 234.545 233.124 239.91C211.834 244.195 217.131 281.786 251.698 269.51C268.737 263.451 274.488 249.401 274.261 232.647C273.931 207.503 255.937 195.216 235.318 178.393" stroke="#4A2E1C" stroke-width="6.25179" stroke-miterlimit="10" stroke-linecap="round" stroke-linejoin="round"/>
<path d="M148.35 57.4812C148.634 47.8534 144.849 38.3393 138.109 31.4851C135.54 28.8707 131.516 32.8946 134.085 35.509C139.825 41.3402 142.906 49.3197 142.667 57.4812C142.564 61.1413 148.248 61.1413 148.35 57.4812Z" fill="#4A2E1C"/>
<path d="M133.562 32.5216C133.562 32.5216 120.74 38.8643 118.637 33.1808C116.534 27.486 133.562 32.5216 133.562 32.5216Z" fill="#90C34D"/>
<path d="M140.655 35.371C140.655 35.371 139.461 18.5253 146.736 23.1289C153.999 27.7325 140.655 35.371 140.655 35.371Z" fill="#90C34D"/>
<path d="M141.45 38.6921C145.554 37.3167 150.055 35.2706 152.158 31.2354C153.931 27.8367 153.704 23.4036 151.169 20.4368C148.168 16.9245 143.098 17.5042 139.847 20.3004C135.96 23.6423 135.835 29.0302 136.096 33.7475C137.517 32.929 138.95 32.1106 140.37 31.2922C135.653 28.9279 130.799 26.6318 125.48 26.0862C121.069 25.6429 114.84 26.6545 113.317 31.5991C111.726 36.7938 117.989 39.4423 122.036 40.0561C126.651 40.7495 131.481 39.7833 135.278 36.987C136.506 36.0777 137.131 34.5204 136.301 33.0996C135.585 31.8833 133.653 31.1672 132.414 32.0765C129.958 33.8952 127.151 34.7591 124.093 34.6C122.763 34.5318 121.388 34.2021 120.16 33.6679C120.035 33.6111 118.637 32.8154 118.66 32.7926C118.739 32.7358 118.853 33.1905 118.762 33.2246C118.591 33.3042 118.796 33.0427 118.932 32.9972C119.296 32.8608 119.649 32.3834 120.035 32.2129C120.637 31.9401 121.365 31.8265 122.013 31.7469C123.741 31.5423 125.514 31.7014 127.208 32.0879C130.845 32.9063 134.198 34.5431 137.506 36.2027C139.313 37.1121 141.905 36.0322 141.78 33.7475C141.632 31.0308 141.212 27.5184 142.985 25.1996C143.564 24.4494 144.519 23.6991 145.497 23.6196C146.372 23.5627 146.793 23.9606 147.077 24.4039C147.963 25.7452 147.838 27.6662 146.815 29.087C145.224 31.2922 142.416 32.3834 139.927 33.2132C136.494 34.3726 137.972 39.8628 141.45 38.6921Z" fill="#4A2E1C"/>
<path d="M3.25 152C3.25 120.781 4.92702 95.9161 9.32028 76.1481C13.7053 56.4171 20.7532 41.964 31.3586 31.3586C41.964 20.7532 56.4171 13.7053 76.1481 9.32028C95.9161 4.92702 120.781 3.25 152 3.25C183.219 3.25 208.084 4.92702 227.852 9.32028C247.583 13.7053 262.036 20.7532 272.641 31.3586C283.247 41.964 290.295 56.4171 294.68 76.1481C299.073 95.9161 300.75 120.781 300.75 152C300.75 183.219 299.073 208.084 294.68 227.852C290.295 247.583 283.247 262.036 272.641 272.641C262.036 283.247 247.583 290.295 227.852 294.68C208.084 299.073 183.219 300.75 152 300.75C120.781 300.75 95.9161 299.073 76.1481 294.68C56.4171 290.295 41.964 283.247 31.3586 272.641C20.7532 262.036 13.7053 247.583 9.32028 227.852C4.92702 208.084 3.25 183.219 3.25 152Z" stroke="#4A2E1C" stroke-width="6.5"/>
</g>
</svg>
