<svg width="261" height="316" viewBox="0 0 261 316" fill="none" xmlns="http://www.w3.org/2000/svg">
<g opacity="0.2">
<path d="M151.91 245.147C152.856 247.944 153.05 250.94 152.47 253.835C152.193 253.136 151.721 252.531 151.109 252.094C150.074 251.368 148.745 251.228 147.352 251.588C148.985 249.449 150.185 247.012 150.885 244.414L151.236 243.12L151.91 245.147Z" fill="#E7E7E7"/>
<path d="M152.469 253.835C153.375 256.027 152.781 259.308 150.746 262.193C148.048 266.014 143.836 267.69 141.338 265.935C138.84 264.181 139.003 259.659 141.7 255.837C143.281 253.599 145.38 252.096 147.351 251.588C148.745 251.229 150.074 251.368 151.108 252.094C151.72 252.531 152.193 253.136 152.469 253.835V253.835Z" fill="#C0C0C0"/>
<path d="M145.966 221.668C146.781 224.891 146.844 228.233 145.79 231.379C145.266 230.205 144.454 229.291 143.371 228.774C142.429 228.34 141.374 228.214 140.357 228.416C142.406 226.238 143.977 223.656 144.968 220.834L145.425 219.53L145.966 221.668Z" fill="#E7E7E7"/>
<path d="M140.357 228.416C141.375 228.214 142.43 228.34 143.371 228.774C144.455 229.291 145.267 230.205 145.791 231.379C146.905 233.878 146.714 237.552 145.035 241.075C142.566 246.255 137.818 249.145 134.432 247.531C131.046 245.918 130.3 240.409 132.769 235.229C134.561 231.468 137.555 228.915 140.357 228.416V228.416Z" fill="#C0C0C0"/>
<path d="M131.617 212.948L130.891 214.126C129.324 216.672 128.307 219.519 127.907 222.482C127.423 221.565 126.661 220.824 125.73 220.367C124.646 219.85 123.425 219.795 122.183 220.128C123.962 217.328 126.598 215.272 129.615 213.875L131.617 212.948Z" fill="#E7E7E7"/>
<path d="M127.907 222.482C129.284 224.974 129.186 228.907 127.394 232.668C124.925 237.848 120.178 240.739 116.791 239.124C113.403 237.51 112.659 232.002 115.128 226.822C116.807 223.299 119.54 220.837 122.183 220.128C123.425 219.795 124.647 219.85 125.73 220.367C126.661 220.824 127.423 221.565 127.907 222.482V222.482Z" fill="#C0C0C0"/>
<path d="M109.634 223.293L108.849 224.38C107.272 226.561 106.136 229.028 105.503 231.643C104.904 230.335 103.959 229.39 102.743 229.044C102.018 228.844 101.251 228.858 100.534 229.083C102.417 226.81 104.866 225.072 107.635 224.046L109.634 223.293Z" fill="#E7E7E7"/>
<path d="M105.761 238.709C104.491 243.211 101.082 246.186 98.1454 245.35C95.2093 244.515 93.8585 240.188 95.1271 235.685C96.0859 232.288 98.2609 229.76 100.534 229.083C101.251 228.858 102.018 228.844 102.743 229.044C103.959 229.39 104.904 230.335 105.503 231.643C106.349 233.495 106.504 236.071 105.761 238.709V238.709Z" fill="#C0C0C0"/>
<path d="M131.763 268.634C134.006 270.821 135.489 273.668 135.995 276.76C136.501 279.851 136.003 283.023 134.575 285.81C131.042 292.691 122.66 295.6 115.578 292.487C112.045 290.943 109.256 288.077 107.81 284.502C107.583 283.937 107.151 283.477 106.601 283.215C106.051 282.953 105.422 282.907 104.84 283.087C101.152 284.215 97.17 283.854 93.7452 282.082C86.8669 278.541 83.8478 270.198 86.9671 263.121C88.2329 260.256 90.3832 257.872 93.1028 256.318C95.8225 254.764 98.9684 254.122 102.079 254.487C102.597 254.55 103.121 254.449 103.577 254.198C104.034 253.947 104.4 253.558 104.623 253.087L104.642 253.049C108.123 245.744 116.905 242.665 124.257 246.168C131.609 249.672 134.748 258.433 131.267 265.738L131.248 265.776C131.023 266.246 130.952 266.775 131.045 267.288C131.137 267.801 131.389 268.272 131.763 268.634Z" fill="#C0C0C0"/>
<path d="M146.16 257.962C147.741 255.724 149.839 254.222 151.811 253.713C151.996 253.665 152.18 253.627 152.363 253.597C152.081 252.996 151.649 252.479 151.109 252.094C150.074 251.368 148.745 251.229 147.352 251.588C145.38 252.096 143.282 253.599 141.701 255.837C139.003 259.659 138.84 264.181 141.338 265.936C142.235 266.565 143.353 266.751 144.543 266.556C143.491 264.369 144.05 260.952 146.16 257.962V257.962Z" fill="#D2D2D2"/>
<path d="M134.431 247.532C135.222 247.9 136.099 248.046 136.967 247.952C135.333 245.499 135.333 241.331 137.228 237.355C139.02 233.594 142.014 231.041 144.816 230.541C144.977 230.513 145.137 230.493 145.296 230.478C144.822 229.745 144.157 229.156 143.372 228.774C142.43 228.34 141.375 228.214 140.358 228.416C137.555 228.915 134.562 231.469 132.769 235.229C130.3 240.409 131.044 245.917 134.431 247.532V247.532Z" fill="#D2D2D2"/>
<path d="M116.791 239.124C117.582 239.493 118.459 239.638 119.327 239.545C117.694 237.092 117.692 232.924 119.587 228.947C121.266 225.424 123.999 222.962 126.642 222.253C126.974 222.164 127.312 222.103 127.654 222.07C127.18 221.337 126.514 220.748 125.73 220.367C124.646 219.85 123.425 219.795 122.183 220.128C119.539 220.836 116.806 223.299 115.127 226.822C112.659 232.002 113.405 237.51 116.791 239.124V239.124Z" fill="#D2D2D2"/>
<path d="M98.1451 245.35C98.7849 245.528 99.4598 245.538 100.104 245.377C99.0374 243.509 98.773 240.697 99.5861 237.811C100.545 234.413 102.72 231.886 104.993 231.209C105.077 231.184 105.161 231.161 105.245 231.142C104.647 230.095 103.797 229.344 102.743 229.044C102.018 228.844 101.25 228.858 100.533 229.083C98.2604 229.76 96.0854 232.288 95.1266 235.685C93.8582 240.188 95.209 244.515 98.1451 245.35V245.35Z" fill="#D2D2D2"/>
<path d="M91.4264 265.246C92.6922 262.381 94.8425 259.997 97.5621 258.443C100.282 256.889 103.428 256.248 106.539 256.612C107.056 256.675 107.58 256.574 108.037 256.323C108.493 256.072 108.859 255.683 109.083 255.213L109.101 255.174C112.222 248.624 119.605 245.473 126.398 247.417C125.72 246.942 125.004 246.524 124.257 246.168C116.905 242.665 108.123 245.744 104.642 253.049L104.623 253.087C104.4 253.558 104.034 253.947 103.577 254.198C103.121 254.449 102.597 254.55 102.079 254.487C98.9684 254.122 95.8225 254.764 93.1028 256.318C90.3832 257.872 88.2329 260.256 86.9671 263.121C83.8478 270.198 86.8669 278.541 93.7452 282.082C94.6215 282.533 95.5403 282.897 96.4881 283.168C90.8459 279.212 88.5804 271.703 91.4264 265.246Z" fill="#D2D2D2"/>
<path d="M101.203 259.305C100.991 259.204 100.823 259.032 100.727 258.819C100.631 258.606 100.613 258.365 100.678 258.14C100.742 257.915 100.885 257.721 101.079 257.591C101.274 257.461 101.508 257.405 101.741 257.432C102.873 257.565 104.018 257.34 105.016 256.788C106.014 256.236 106.813 255.386 107.302 254.356L107.317 254.325C108.287 252.315 109.81 250.622 111.708 249.447C113.606 248.272 115.8 247.662 118.032 247.69C118.294 247.693 118.544 247.8 118.727 247.987C118.91 248.175 119.011 248.427 119.008 248.689C119.005 248.951 118.898 249.201 118.711 249.385C118.524 249.568 118.271 249.669 118.009 249.666C116.154 249.642 114.331 250.147 112.753 251.123C111.175 252.098 109.909 253.504 109.101 255.174L109.088 255.201C108.423 256.604 107.334 257.763 105.976 258.515C104.617 259.267 103.057 259.575 101.515 259.395C101.407 259.382 101.301 259.352 101.203 259.305V259.305ZM120.905 250.13C120.677 250.022 120.5 249.831 120.409 249.596C120.318 249.361 120.32 249.101 120.414 248.867C120.509 248.634 120.689 248.446 120.918 248.341C121.147 248.236 121.407 248.222 121.645 248.302C122.102 248.456 122.548 248.636 122.982 248.843C123.219 248.956 123.401 249.158 123.489 249.405C123.576 249.652 123.562 249.924 123.449 250.16C123.336 250.397 123.134 250.579 122.887 250.666C122.64 250.754 122.369 250.74 122.132 250.627C121.77 250.454 121.397 250.303 121.016 250.175C120.978 250.163 120.941 250.147 120.905 250.13V250.13Z" fill="#FAFAFA"/>
</g>
<g opacity="0.3">
<path d="M243.929 153.128C244.876 155.924 245.069 158.921 244.489 161.816C244.212 161.117 243.74 160.512 243.128 160.075C242.093 159.348 240.764 159.209 239.371 159.568C241.004 157.43 242.204 154.993 242.904 152.395L243.255 151.101L243.929 153.128Z" fill="#E7E7E7"/>
<path d="M244.489 161.816C245.394 164.008 244.801 167.289 242.766 170.174C240.067 173.995 235.856 175.671 233.357 173.916C230.859 172.162 231.023 167.64 233.72 163.818C235.301 161.58 237.399 160.077 239.371 159.569C240.764 159.209 242.093 159.348 243.128 160.075C243.74 160.512 244.212 161.117 244.489 161.816V161.816Z" fill="#C0C0C0"/>
<path d="M237.985 129.649C238.8 132.872 238.863 136.214 237.809 139.36C237.285 138.185 236.473 137.271 235.39 136.755C234.448 136.32 233.393 136.195 232.376 136.397C234.425 134.219 235.996 131.637 236.987 128.815L237.444 127.51L237.985 129.649Z" fill="#E7E7E7"/>
<path d="M232.376 136.397C233.394 136.195 234.449 136.32 235.39 136.755C236.474 137.271 237.286 138.186 237.81 139.36C238.924 141.859 238.733 145.533 237.054 149.056C234.585 154.236 229.837 157.126 226.451 155.512C223.065 153.898 222.319 148.39 224.788 143.21C226.58 139.449 229.574 136.896 232.376 136.397V136.397Z" fill="#C0C0C0"/>
<path d="M223.636 120.929L222.911 122.107C221.343 124.653 220.326 127.5 219.926 130.463C219.442 129.546 218.68 128.805 217.749 128.347C216.666 127.831 215.444 127.776 214.202 128.109C215.982 125.309 218.618 123.253 221.635 121.856L223.636 120.929Z" fill="#E7E7E7"/>
<path d="M219.926 130.463C221.303 132.954 221.205 136.888 219.413 140.648C216.944 145.829 212.197 148.719 208.81 147.105C205.422 145.49 204.678 139.983 207.147 134.802C208.826 131.28 211.559 128.817 214.202 128.109C215.444 127.776 216.666 127.831 217.749 128.347C218.68 128.805 219.442 129.546 219.926 130.463V130.463Z" fill="#C0C0C0"/>
<path d="M201.653 131.274L200.868 132.361C199.291 134.542 198.155 137.008 197.522 139.624C196.923 138.315 195.978 137.371 194.762 137.025C194.037 136.825 193.27 136.838 192.553 137.064C194.436 134.79 196.885 133.053 199.654 132.027L201.653 131.274Z" fill="#E7E7E7"/>
<path d="M197.781 146.69C196.511 151.192 193.101 154.167 190.165 153.331C187.229 152.495 185.878 148.169 187.147 143.666C188.105 140.269 190.28 137.741 192.553 137.064C193.27 136.838 194.038 136.825 194.763 137.025C195.979 137.371 196.924 138.315 197.522 139.624C198.369 141.476 198.524 144.052 197.781 146.69V146.69Z" fill="#C0C0C0"/>
<path d="M223.783 176.615C226.025 178.801 227.508 181.649 228.014 184.74C228.52 187.831 228.022 191.003 226.594 193.791C223.062 200.671 214.68 203.581 207.597 200.468C204.064 198.924 201.276 196.057 199.829 192.483C199.602 191.917 199.171 191.458 198.621 191.196C198.071 190.933 197.442 190.888 196.859 191.068C193.172 192.195 189.19 191.835 185.765 190.063C178.886 186.522 175.867 178.179 178.987 171.102C180.252 168.237 182.403 165.852 185.122 164.299C187.842 162.745 190.988 162.103 194.099 162.468C194.616 162.531 195.14 162.43 195.597 162.178C196.053 161.927 196.419 161.539 196.643 161.068L196.661 161.029C200.142 153.725 208.925 150.645 216.277 154.149C223.628 157.653 226.767 166.414 223.286 173.718L223.268 173.757C223.043 174.227 222.972 174.756 223.064 175.269C223.157 175.782 223.408 176.253 223.783 176.615Z" fill="#C0C0C0"/>
<path d="M238.178 165.943C239.759 163.705 241.858 162.202 243.829 161.694C244.015 161.646 244.199 161.607 244.381 161.578C244.1 160.977 243.668 160.459 243.127 160.075C242.093 159.348 240.764 159.209 239.37 159.569C237.399 160.077 235.3 161.58 233.719 163.818C231.022 167.64 230.859 172.162 233.357 173.916C234.254 174.546 235.372 174.732 236.561 174.537C235.51 172.35 236.069 168.932 238.178 165.943V165.943Z" fill="#D2D2D2"/>
<path d="M226.45 155.512C227.241 155.881 228.118 156.027 228.986 155.933C227.352 153.48 227.352 149.312 229.247 145.335C231.039 141.575 234.033 139.021 236.835 138.522C236.996 138.493 237.156 138.474 237.315 138.459C236.841 137.726 236.176 137.137 235.391 136.755C234.449 136.32 233.394 136.195 232.377 136.397C229.574 136.896 226.581 139.449 224.788 143.21C222.319 148.39 223.063 153.898 226.45 155.512V155.512Z" fill="#D2D2D2"/>
<path d="M208.809 147.105C209.6 147.474 210.477 147.619 211.345 147.525C209.712 145.073 209.711 140.904 211.606 136.928C213.285 133.405 216.018 130.943 218.661 130.234C218.992 130.145 219.331 130.084 219.672 130.051C219.198 129.318 218.533 128.729 217.748 128.347C216.665 127.831 215.443 127.776 214.201 128.109C211.558 128.817 208.825 131.279 207.146 134.802C204.678 139.983 205.423 145.491 208.809 147.105V147.105Z" fill="#D2D2D2"/>
<path d="M190.164 153.331C190.804 153.509 191.479 153.518 192.123 153.358C191.056 151.49 190.792 148.677 191.605 145.791C192.564 142.394 194.739 139.866 197.012 139.189C197.096 139.164 197.18 139.142 197.264 139.122C196.666 138.075 195.816 137.325 194.762 137.024C194.037 136.825 193.269 136.838 192.552 137.064C190.279 137.741 188.104 140.269 187.146 143.666C185.877 148.169 187.228 152.495 190.164 153.331V153.331Z" fill="#D2D2D2"/>
<path d="M183.445 173.227C184.711 170.362 186.862 167.978 189.581 166.424C192.301 164.87 195.447 164.228 198.558 164.593C199.075 164.656 199.599 164.555 200.056 164.304C200.512 164.053 200.878 163.664 201.102 163.193L201.12 163.155C204.241 156.605 211.624 153.453 218.417 155.397C217.739 154.923 217.023 154.505 216.276 154.149C208.924 150.645 200.142 153.725 196.661 161.029L196.642 161.068C196.419 161.539 196.053 161.927 195.596 162.178C195.14 162.43 194.616 162.531 194.098 162.468C190.987 162.103 187.842 162.745 185.122 164.299C182.402 165.853 180.252 168.237 178.986 171.102C175.867 178.179 178.886 186.522 185.764 190.063C186.641 190.514 187.559 190.878 188.507 191.148C182.865 187.193 180.599 179.684 183.445 173.227Z" fill="#D2D2D2"/>
<path d="M193.222 167.286C193.011 167.185 192.842 167.013 192.746 166.8C192.65 166.586 192.633 166.346 192.697 166.121C192.762 165.896 192.904 165.701 193.099 165.572C193.294 165.442 193.528 165.385 193.76 165.412C194.893 165.545 196.038 165.32 197.036 164.769C198.033 164.217 198.833 163.366 199.322 162.337L199.336 162.306C200.306 160.295 201.83 158.603 203.728 157.428C205.626 156.253 207.819 155.643 210.051 155.671C210.313 155.674 210.564 155.781 210.747 155.968C210.93 156.156 211.031 156.408 211.028 156.67C211.025 156.932 210.918 157.182 210.73 157.365C210.543 157.548 210.291 157.65 210.029 157.647C208.174 157.622 206.35 158.128 204.773 159.103C203.195 160.079 201.928 161.484 201.121 163.154L201.108 163.182C200.442 164.585 199.354 165.744 197.995 166.496C196.637 167.248 195.077 167.556 193.535 167.375C193.426 167.363 193.321 167.333 193.222 167.286V167.286ZM212.924 158.111C212.697 158.003 212.52 157.812 212.429 157.577C212.337 157.342 212.339 157.081 212.434 156.848C212.528 156.615 212.709 156.426 212.937 156.321C213.166 156.216 213.426 156.203 213.665 156.283C214.121 156.436 214.568 156.617 215.002 156.824C215.238 156.937 215.421 157.139 215.508 157.386C215.596 157.633 215.581 157.904 215.469 158.141C215.356 158.377 215.154 158.56 214.907 158.647C214.66 158.735 214.388 158.72 214.152 158.608C213.789 158.435 213.416 158.284 213.036 158.156C212.998 158.143 212.96 158.128 212.924 158.111V158.111Z" fill="#FAFAFA"/>
</g>
<g opacity="0.3">
<path d="M114.258 132.22C111.68 130.78 108.769 130.045 105.817 130.088C106.454 130.488 106.962 131.062 107.281 131.743C107.807 132.893 107.702 134.225 107.096 135.53C109.496 134.313 112.11 133.576 114.792 133.36L116.128 133.251L114.258 132.22Z" fill="#E7E7E7"/>
<path d="M105.817 130.088C103.826 128.799 100.492 128.786 97.2853 130.262C93.0369 132.221 90.623 136.057 91.8935 138.833C93.164 141.608 97.6407 142.27 101.89 140.314C104.378 139.166 106.237 137.376 107.096 135.53C107.703 134.225 107.808 132.893 107.281 131.743C106.963 131.062 106.454 130.488 105.817 130.088V130.088Z" fill="#C0C0C0"/>
<path d="M136.264 142.335C133.243 140.947 129.968 140.277 126.683 140.741C127.743 141.47 128.494 142.435 128.804 143.594C129.061 144.599 128.992 145.66 128.609 146.623C131.122 145.004 133.948 143.929 136.902 143.468L138.269 143.256L136.264 142.335Z" fill="#E7E7E7"/>
<path d="M128.609 146.623C128.992 145.66 129.061 144.599 128.805 143.594C128.494 142.435 127.743 141.47 126.683 140.741C124.428 139.191 120.781 138.711 117.012 139.721C111.469 141.206 107.763 145.349 108.734 148.972C109.705 152.595 114.986 154.331 120.528 152.846C124.552 151.767 127.608 149.288 128.609 146.623V146.623Z" fill="#C0C0C0"/>
<path d="M142.228 158.032L140.938 158.531C138.149 159.609 135.165 160.091 132.179 159.945C132.992 160.588 133.582 161.472 133.863 162.47C134.173 163.63 134.005 164.841 133.452 166.002C136.529 164.761 139.03 162.543 140.953 159.831L142.228 158.032Z" fill="#E7E7E7"/>
<path d="M132.179 159.945C129.979 158.138 126.094 157.519 122.07 158.597C116.527 160.082 112.821 164.224 113.792 167.848C114.763 171.473 120.044 173.207 125.587 171.722C129.356 170.712 132.275 168.472 133.452 166.002C134.005 164.841 134.173 163.63 133.863 162.47C133.582 161.472 132.992 160.588 132.179 159.945V159.945Z" fill="#C0C0C0"/>
<path d="M128.057 177.766L126.845 178.34C124.414 179.493 121.781 180.162 119.095 180.309C120.272 181.135 121.029 182.237 121.148 183.495C121.213 184.245 121.06 184.996 120.708 185.661C123.286 184.222 125.44 182.13 126.953 179.594L128.057 177.766Z" fill="#E7E7E7"/>
<path d="M112.194 178.769C107.536 179.199 103.99 182.01 104.277 185.05C104.565 188.089 108.574 190.204 113.232 189.776C116.747 189.451 119.628 187.772 120.707 185.661C121.06 184.996 121.213 184.244 121.148 183.495C121.029 182.237 120.272 181.135 119.094 180.309C117.428 179.139 114.922 178.519 112.194 178.769V178.769Z" fill="#C0C0C0"/>
<path d="M87.4984 147.757C85.756 145.154 83.2256 143.177 80.2781 142.118C77.3307 141.058 74.1212 140.97 71.1202 141.867C63.712 144.089 59.3263 151.802 61.0986 159.332C61.9743 163.088 64.2854 166.351 67.5372 168.424C68.0521 168.75 68.4255 169.258 68.5833 169.846C68.741 170.435 68.6716 171.062 68.3887 171.601C66.6089 175.022 66.239 179.004 67.3583 182.694C69.5886 190.101 77.2431 194.588 84.7698 192.808C87.8173 192.085 90.553 190.404 92.5756 188.013C94.5983 185.621 95.8016 182.644 96.0091 179.519C96.0411 178.999 96.2359 178.502 96.566 178.099C96.896 177.695 97.3446 177.406 97.8482 177.272L97.8896 177.261C105.705 175.167 110.331 167.091 108.223 159.225C106.116 151.358 98.0717 146.678 90.2559 148.772L90.2146 148.783C89.7114 148.919 89.1783 148.892 88.6908 148.708C88.2033 148.524 87.7862 148.191 87.4984 147.757Z" fill="#C0C0C0"/>
<path d="M100.611 135.542C103.099 134.395 104.958 132.604 105.817 130.758C105.898 130.585 105.969 130.411 106.032 130.237C106.571 130.623 107.002 131.142 107.281 131.743C107.808 132.893 107.703 134.225 107.096 135.53C106.237 137.376 104.378 139.166 101.89 140.314C97.6407 142.27 93.164 141.608 91.8935 138.832C91.4374 137.836 91.4584 136.703 91.8664 135.569C93.8253 137.001 97.2877 137.073 100.611 135.542V135.542Z" fill="#D2D2D2"/>
<path d="M108.734 148.972C108.515 148.127 108.532 147.239 108.782 146.402C110.897 148.455 114.995 149.214 119.25 148.074C123.274 146.995 126.329 144.516 127.33 141.851C127.387 141.699 127.435 141.545 127.479 141.391C128.114 141.991 128.572 142.752 128.805 143.593C129.061 144.598 128.992 145.659 128.609 146.622C127.608 149.287 124.552 151.766 120.528 152.844C114.986 154.331 109.705 152.597 108.734 148.972V148.972Z" fill="#D2D2D2"/>
<path d="M113.791 167.848C113.573 167.003 113.589 166.115 113.839 165.278C115.954 167.33 120.052 168.09 124.307 166.95C128.077 165.94 130.995 163.701 132.173 161.23C132.321 160.921 132.443 160.599 132.537 160.269C133.171 160.869 133.629 161.63 133.862 162.471C134.173 163.631 134.005 164.842 133.451 166.002C132.274 168.473 129.356 170.712 125.586 171.722C120.043 173.207 114.762 171.472 113.791 167.848V167.848Z" fill="#D2D2D2"/>
<path d="M104.277 185.05C104.219 184.388 104.333 183.723 104.607 183.118C106.251 184.507 108.968 185.279 111.954 185.004C115.469 184.68 118.35 183.001 119.429 180.889C119.469 180.811 119.506 180.732 119.541 180.653C120.462 181.431 121.045 182.404 121.148 183.495C121.213 184.245 121.06 184.997 120.708 185.661C119.628 187.772 116.747 189.451 113.232 189.776C108.574 190.204 104.565 188.089 104.277 185.05V185.05Z" fill="#D2D2D2"/>
<path d="M83.4912 188.037C86.5388 187.313 89.2744 185.633 91.2971 183.241C93.3198 180.849 94.5231 177.873 94.7306 174.747C94.7625 174.227 94.9574 173.73 95.2874 173.327C95.6175 172.924 96.0661 172.635 96.5697 172.501L96.611 172.489C103.619 170.612 108.061 163.925 107.386 156.892C107.729 157.645 108.009 158.425 108.223 159.225C110.331 167.091 105.705 175.167 97.8896 177.261L97.8482 177.272C97.3446 177.406 96.896 177.695 96.566 178.099C96.2359 178.502 96.0411 178.999 96.0091 179.519C95.8016 182.644 94.5983 185.621 92.5756 188.013C90.5529 190.404 87.8173 192.085 84.7698 192.808C77.2431 194.588 69.5886 190.102 67.3583 182.694C67.074 181.75 66.8835 180.78 66.7898 179.799C69.6531 186.067 76.6243 189.661 83.4912 188.037Z" fill="#D2D2D2"/>
<path d="M91.1116 179.505C91.172 179.731 91.3107 179.928 91.503 180.061C91.6952 180.195 91.9286 180.255 92.1614 180.233C92.3943 180.21 92.6116 180.106 92.7746 179.938C92.9377 179.77 93.0358 179.55 93.0517 179.316C93.1268 178.179 93.5565 177.093 94.2805 176.213C95.0044 175.332 95.9862 174.701 97.0877 174.407L97.1205 174.398C99.274 173.81 101.215 172.62 102.716 170.968C104.217 169.316 105.216 167.269 105.594 165.069C105.639 164.811 105.579 164.546 105.428 164.332C105.277 164.117 105.048 163.972 104.789 163.927C104.531 163.883 104.266 163.942 104.052 164.093C103.837 164.244 103.692 164.474 103.647 164.732C103.334 166.561 102.505 168.262 101.259 169.636C100.012 171.01 98.4 172 96.6108 172.489L96.5812 172.497C95.0807 172.897 93.7431 173.756 92.7564 174.955C91.7697 176.154 91.1835 177.632 91.0803 179.181C91.0728 179.29 91.0834 179.399 91.1116 179.505V179.505ZM103.718 161.801C103.783 162.044 103.938 162.253 104.153 162.385C104.367 162.517 104.623 162.563 104.87 162.512C105.117 162.462 105.335 162.319 105.48 162.113C105.625 161.907 105.685 161.654 105.65 161.405C105.582 160.928 105.486 160.456 105.361 159.992C105.293 159.739 105.128 159.523 104.901 159.392C104.674 159.261 104.404 159.225 104.151 159.293C103.898 159.361 103.682 159.526 103.551 159.753C103.42 159.98 103.385 160.25 103.452 160.503C103.556 160.891 103.637 161.285 103.694 161.683C103.699 161.723 103.707 161.762 103.718 161.801V161.801Z" fill="#FAFAFA"/>
</g>
<g opacity="0.4">
<path d="M206.278 40.2003C203.7 38.7606 200.788 38.0256 197.836 38.0692C198.473 38.4683 198.982 39.043 199.301 39.7242C199.827 40.8736 199.722 42.2059 199.115 43.5106C201.515 42.2941 204.13 41.5572 206.812 41.3409L208.148 41.2317L206.278 40.2003Z" fill="#E7E7E7"/>
<path d="M197.836 38.0692C195.846 36.7802 192.511 36.7668 189.305 38.2431C185.056 40.2014 182.643 44.0377 183.913 46.8134C185.184 49.5892 189.66 50.2512 193.909 48.2945C196.397 47.147 198.256 45.3567 199.115 43.5105C199.722 42.2058 199.827 40.8736 199.301 39.7241C198.982 39.0429 198.474 38.4683 197.836 38.0692V38.0692Z" fill="#C0C0C0"/>
<path d="M228.283 50.3161C225.262 48.9282 221.987 48.2579 218.702 48.7222C219.762 49.4509 220.513 50.4156 220.824 51.5751C221.08 52.5801 221.011 53.6404 220.628 54.604C223.141 52.9846 225.967 51.91 228.921 51.4493L230.288 51.2365L228.283 50.3161Z" fill="#E7E7E7"/>
<path d="M220.628 54.604C221.012 53.6404 221.08 52.5801 220.824 51.5751C220.513 50.4156 219.762 49.4509 218.703 48.7222C216.448 47.1716 212.801 46.6914 209.031 47.7014C203.488 49.1866 199.783 53.3298 200.754 56.953C201.724 60.5762 207.005 62.3115 212.548 60.8263C216.572 59.7481 219.627 57.269 220.628 54.604V54.604Z" fill="#C0C0C0"/>
<path d="M234.247 66.0124L232.957 66.5114C230.168 67.5897 227.184 68.0716 224.198 67.9261C225.012 68.5689 225.601 69.4528 225.882 70.4512C226.192 71.6107 226.024 72.8218 225.471 73.9826C228.548 72.7422 231.049 70.5241 232.972 67.8116L234.247 66.0124Z" fill="#E7E7E7"/>
<path d="M224.198 67.9261C221.998 66.1186 218.113 65.4994 214.089 66.5776C208.546 68.0628 204.84 72.2044 205.811 75.8292C206.782 79.4539 212.063 81.1877 217.606 79.7024C221.375 78.6924 224.294 76.4529 225.471 73.9827C226.024 72.8218 226.192 71.6107 225.882 70.4513C225.601 69.4529 225.012 68.5689 224.198 67.9261V67.9261Z" fill="#C0C0C0"/>
<path d="M220.076 85.7468L218.864 86.3204C216.433 87.4742 213.8 88.1431 211.114 88.2897C212.291 89.1163 213.048 90.2175 213.168 91.4761C213.232 92.2253 213.079 92.9772 212.727 93.6415C215.305 92.2032 217.459 90.1109 218.972 87.5752L220.076 85.7468Z" fill="#E7E7E7"/>
<path d="M204.213 86.7498C199.555 87.1796 196.009 89.9913 196.297 93.0304C196.584 96.0695 200.593 98.1849 205.251 97.7567C208.766 97.4319 211.647 95.753 212.727 93.6415C213.079 92.9772 213.232 92.2253 213.167 91.476C213.048 90.2175 212.291 89.1162 211.113 88.2897C209.447 87.1203 206.941 86.4994 204.213 86.7498V86.7498Z" fill="#C0C0C0"/>
<path d="M179.518 55.7373C177.776 53.1344 175.245 51.1582 172.298 50.0984C169.35 49.0386 166.141 48.9509 163.14 49.8482C155.732 52.0702 151.346 59.7828 153.118 67.3132C153.994 71.0686 156.305 74.3318 159.557 76.4043C160.072 76.7305 160.445 77.2383 160.603 77.827C160.761 78.4158 160.691 79.0423 160.408 79.5822C158.628 83.0029 158.259 86.9845 159.378 90.6746C161.608 98.0822 169.263 102.569 176.789 100.789C179.837 100.066 182.572 98.3849 184.595 95.9933C186.618 93.6017 187.821 90.6251 188.029 87.4997C188.061 86.9796 188.255 86.4827 188.585 86.0794C188.916 85.6761 189.364 85.3869 189.868 85.2528L189.909 85.2417C197.725 83.1475 202.351 75.0721 200.243 67.2055C198.135 59.3388 190.091 54.6583 182.275 56.7526L182.234 56.7636C181.731 56.8993 181.198 56.8731 180.71 56.6889C180.223 56.5047 179.806 56.1718 179.518 55.7373Z" fill="#C0C0C0"/>
<path d="M192.63 43.523C195.118 42.3756 196.977 40.5853 197.836 38.7391C197.917 38.5655 197.988 38.3917 198.051 38.2178C198.59 38.6038 199.021 39.1226 199.3 39.724C199.827 40.8735 199.722 42.2057 199.115 43.5104C198.256 45.3566 196.397 47.1469 193.909 48.2944C189.66 50.2511 185.183 49.5891 183.913 46.8133C183.456 45.8167 183.477 44.6835 183.885 43.5495C185.844 44.9816 189.307 45.0535 192.63 43.523V43.523Z" fill="#D2D2D2"/>
<path d="M200.753 56.9531C200.534 56.1081 200.551 55.2194 200.801 54.3832C202.916 56.4363 207.014 57.1947 211.269 56.0545C215.293 54.9763 218.348 52.4972 219.349 49.8322C219.406 49.6795 219.455 49.5259 219.499 49.3721C220.133 49.9715 220.591 50.733 220.824 51.5741C221.08 52.5791 221.011 53.6394 220.628 54.603C219.627 57.268 216.572 59.7471 212.548 60.8253C207.005 62.3116 201.724 60.5778 200.753 56.9531V56.9531Z" fill="#D2D2D2"/>
<path d="M205.811 75.8291C205.592 74.9842 205.609 74.0955 205.859 73.2593C207.973 75.3111 212.072 76.071 216.327 74.9309C220.096 73.9209 223.015 71.6814 224.192 69.2111C224.34 68.9014 224.462 68.5799 224.557 68.2499C225.191 68.8494 225.649 69.6108 225.882 70.4519C226.192 71.6114 226.024 72.8224 225.471 73.9833C224.294 76.4535 221.375 78.693 217.606 79.7031C212.063 81.1876 206.782 79.4523 205.811 75.8291V75.8291Z" fill="#D2D2D2"/>
<path d="M196.297 93.0304C196.238 92.369 196.352 91.7036 196.626 91.0991C198.27 92.4881 200.987 93.2597 203.973 92.9852C207.488 92.6604 210.369 90.9815 211.448 88.87C211.488 88.792 211.525 88.7129 211.56 88.634C212.481 89.4121 213.064 90.3847 213.167 91.4762C213.232 92.2254 213.079 92.9774 212.727 93.6417C211.647 95.7532 208.766 97.4321 205.251 97.7568C200.593 98.1849 196.584 96.0696 196.297 93.0304V93.0304Z" fill="#D2D2D2"/>
<path d="M175.51 96.0175C178.558 95.2941 181.293 93.6134 183.316 91.2219C185.339 88.8303 186.542 85.8536 186.75 82.7283C186.782 82.2081 186.976 81.7112 187.306 81.308C187.637 80.9047 188.085 80.6155 188.589 80.4814L188.63 80.4703C195.638 78.5925 200.08 71.9061 199.405 64.873C199.748 65.626 200.028 66.4062 200.243 67.2056C202.35 75.0722 197.724 83.1476 189.909 85.2418L189.867 85.2529C189.364 85.387 188.915 85.6762 188.585 86.0795C188.255 86.4828 188.06 86.9797 188.028 87.4998C187.821 90.6252 186.617 93.6018 184.595 95.9934C182.572 98.385 179.836 100.066 176.789 100.789C169.262 102.569 161.608 98.0823 159.377 90.6747C159.093 89.7309 158.903 88.7613 158.809 87.78C161.672 94.0477 168.643 97.6414 175.51 96.0175Z" fill="#D2D2D2"/>
<path d="M183.131 87.4854C183.192 87.7114 183.33 87.9086 183.522 88.0419C183.715 88.1753 183.948 88.2361 184.181 88.2135C184.414 88.1909 184.631 88.0863 184.794 87.9185C184.957 87.7507 185.055 87.5305 185.071 87.2971C185.146 86.1596 185.576 85.0742 186.3 84.1937C187.024 83.3131 188.006 82.6816 189.107 82.388L189.14 82.3793C191.294 81.7912 193.235 80.6012 194.736 78.9487C196.237 77.2963 197.235 75.25 197.614 73.05C197.659 72.7918 197.599 72.5265 197.448 72.3123C197.297 72.0981 197.067 71.9527 196.809 71.908C196.551 71.8634 196.285 71.9231 196.071 72.0741C195.857 72.225 195.712 72.4549 195.667 72.7131C195.353 74.5414 194.525 76.2423 193.278 77.6163C192.032 78.9903 190.42 79.9803 188.63 80.4702L188.601 80.4781C187.1 80.8774 185.763 81.7369 184.776 82.9357C183.789 84.1346 183.203 85.6126 183.1 87.1618C183.092 87.2707 183.103 87.38 183.131 87.4854V87.4854ZM195.737 69.7813C195.802 70.0245 195.958 70.2335 196.172 70.3658C196.386 70.4981 196.643 70.5437 196.89 70.4931C197.136 70.4426 197.354 70.2998 197.499 70.094C197.644 69.8881 197.705 69.6347 197.669 69.3854C197.601 68.9091 197.505 68.4372 197.381 67.9724C197.313 67.7193 197.147 67.5035 196.92 67.3725C196.693 67.2415 196.424 67.206 196.171 67.2738C195.917 67.3416 195.702 67.5072 195.571 67.7341C195.44 67.961 195.404 68.2307 195.472 68.4838C195.576 68.8719 195.656 69.2659 195.713 69.6636C195.719 69.7033 195.727 69.7426 195.737 69.7813V69.7813Z" fill="#FAFAFA"/>
</g>
</svg>
