<svg width="80" height="116" viewBox="0 0 80 116" fill="none" xmlns="http://www.w3.org/2000/svg">
<path d="M69.071 6.44429C67.2898 6.44429 65.6931 7.18138 64.6063 8.34672C63.049 4.63147 59.1897 2 54.6722 2C48.7782 2 44 6.47704 44 12H75C75 8.93164 72.3455 6.44429 69.071 6.44429Z" fill="#D3E1F5"/>
<path d="M69.2462 6C68.0588 6 66.9499 6.30956 66 6.85162C66.8423 7.77797 67.5235 8.83881 68.0006 10C69.1655 8.73207 70.8748 7.92955 72.7812 7.92955C73.198 7.92955 73.6056 7.96798 74 8.0427C72.8395 6.78971 71.1392 6 69.2462 6Z" fill="#C0D6F2"/>
<path d="M44 12H47.5634C48.4806 7.32237 52.9593 3.77203 58.3485 3.77203C59.6287 3.77203 60.8572 3.97204 62 4.34264C60.0969 2.88023 57.6395 2 54.9567 2C48.906 1.9998 44 6.47743 44 12Z" fill="#C0D6F2"/>
<path d="M78.4213 14H40.5789C39.7069 14 39 13.2878 39 12.4093C39 11.5306 39.7069 10.8187 40.5789 10.8187H42.4261C42.6752 8.85424 43.3838 6.98504 44.5153 5.3422C45.0122 4.62049 45.9958 4.44144 46.7128 4.9421C47.4292 5.44297 47.6072 6.43432 47.1098 7.15582C46.3477 8.26236 45.8427 9.50722 45.617 10.8187H73.2244C72.5891 9.16525 70.9938 7.98954 69.131 7.98954C67.8663 7.98954 66.662 8.54154 65.8272 9.50383C65.4644 9.92196 64.911 10.119 64.3681 10.0244C63.8249 9.92939 63.3702 9.5558 63.1685 9.03881C61.7812 5.48031 58.4343 3.18131 54.6418 3.18131C53.8283 3.18131 53.022 3.28865 52.2454 3.50016C51.4035 3.72949 50.5365 3.22755 50.3091 2.37962C50.0815 1.53168 50.5795 0.65807 51.4214 0.428954C52.4665 0.14447 53.5501 0 54.642 0C59.0188 0 62.9545 2.27715 65.1616 5.94703C66.3425 5.21025 67.7144 4.80845 69.131 4.80845C72.7498 4.80845 75.7806 7.38897 76.5086 10.8191H78.4211C79.2931 10.8191 80 11.5313 80 12.4098C80.0004 13.2878 79.2933 14 78.4213 14Z" fill="#432513"/>
<path d="M22.0889 108.656C20.7747 108.656 19.5966 109.236 18.7948 110.154C17.6457 107.228 14.7983 105.156 11.4652 105.156C7.11656 105.156 3.59114 108.682 3.59114 113.03H26.4634C26.4634 110.614 24.5048 108.656 22.0889 108.656Z" fill="#D3E1F5"/>
<path d="M22.0921 109.656C21.2739 109.656 20.5098 109.88 19.8553 110.272C20.4357 110.942 20.905 111.709 21.2338 112.549C22.0365 111.632 23.2143 111.052 24.5279 111.052C24.8151 111.052 25.0959 111.08 25.3677 111.134C24.568 110.227 23.3964 109.656 22.0921 109.656Z" fill="#C0D6F2"/>
<path d="M3.59153 113.03H6.15241C6.81155 109.347 10.0302 106.552 13.9032 106.552C14.8232 106.552 15.7061 106.709 16.5273 107.001C15.1597 105.849 13.3936 105.156 11.4656 105.156C7.11726 105.156 3.59153 108.682 3.59153 113.03Z" fill="#C0D6F2"/>
<path d="M28.904 115.189H1.15716C0.51779 115.189 -0.000530243 114.671 -0.000530243 114.032C-0.000530243 113.392 0.51779 112.874 1.15716 112.874H2.51156C2.69422 111.444 3.21378 110.084 4.04337 108.888C4.40775 108.363 5.12896 108.233 5.65469 108.597C6.17996 108.961 6.31043 109.683 5.94573 110.208C5.38696 111.013 5.01671 111.919 4.85119 112.874H25.0935C24.6277 111.671 23.458 110.815 22.0922 110.815C21.1648 110.815 20.2818 111.217 19.6698 111.917C19.4037 112.221 18.998 112.365 18.5999 112.296C18.2016 112.227 17.8682 111.955 17.7203 111.579C16.7031 108.989 14.2491 107.315 11.4683 107.315C10.8719 107.315 10.2807 107.394 9.71125 107.547C9.09396 107.714 8.45829 107.349 8.29154 106.732C8.12463 106.115 8.48979 105.479 9.10708 105.312C9.87337 105.105 10.6679 105 11.4685 105C14.6777 105 17.5634 106.657 19.1817 109.328C20.0476 108.792 21.0535 108.5 22.0922 108.5C24.7455 108.5 26.9678 110.378 27.5016 112.874H28.9038C29.5432 112.874 30.0615 113.393 30.0615 114.032C30.0618 114.671 29.5434 115.189 28.904 115.189Z" fill="#432513"/>
</svg>
