<svg width="366" height="138" viewBox="0 0 366 138" fill="none" xmlns="http://www.w3.org/2000/svg">
<path d="M75.5876 121.459C76.0446 121.382 76.4659 121.164 76.7925 120.835C77.1191 120.506 77.3346 120.083 77.4087 119.626C77.4829 119.168 77.4121 118.699 77.2061 118.284C77.0001 117.869 76.6694 117.528 76.2603 117.311L68.402 112.91C68.364 112.887 68.3334 112.854 68.3139 112.814C68.2944 112.774 68.2869 112.73 68.2922 112.686L69.3477 103.791C69.4032 103.339 69.3185 102.881 69.1052 102.479C68.8919 102.077 68.5602 101.751 68.155 101.544C67.7499 101.336 67.2909 101.259 66.8401 101.321C66.3894 101.383 65.9687 101.583 65.635 101.892L59.0368 107.986C59.0042 108.016 58.9636 108.036 58.9199 108.044C58.8762 108.052 58.8312 108.046 58.7905 108.029L50.6226 104.234C50.2066 104.03 49.737 103.961 49.2799 104.037C48.8227 104.113 48.4008 104.33 48.0733 104.658C47.7459 104.986 47.5292 105.408 47.4538 105.866C47.3784 106.323 47.448 106.792 47.6529 107.208L51.4118 115.364C51.4306 115.405 51.437 115.45 51.4302 115.494C51.4235 115.539 51.4038 115.58 51.3737 115.614L45.2901 122.173C44.9784 122.506 44.7768 122.927 44.7128 123.379C44.6488 123.831 44.7255 124.291 44.9325 124.698C45.1394 125.104 45.4666 125.437 45.8695 125.651C46.2723 125.865 46.7313 125.95 47.184 125.894L56.1024 124.838C56.1467 124.832 56.1917 124.84 56.2315 124.861C56.2712 124.881 56.3039 124.913 56.325 124.952L60.6905 132.8C60.9015 133.206 61.2334 133.535 61.6403 133.743C62.0472 133.951 62.5087 134.028 62.9609 133.961C63.4105 133.893 63.8281 133.688 64.1561 133.373C64.4841 133.058 64.7065 132.649 64.7925 132.202L66.545 123.394C66.5531 123.35 66.5749 123.309 66.6072 123.277C66.6395 123.245 66.6808 123.225 66.7255 123.217L75.5876 121.459Z" fill="#FFE1A6"/>
<path d="M296.587 90.4593C297.044 90.382 297.466 90.1636 297.792 89.8348C298.119 89.5059 298.334 89.0831 298.409 88.6256C298.483 88.1682 298.412 87.6989 298.206 87.2838C298 86.8686 297.669 86.5283 297.26 86.3106L289.402 81.9102C289.364 81.8873 289.333 81.854 289.314 81.8141C289.294 81.7743 289.287 81.7296 289.292 81.6856L290.348 72.7908C290.403 72.3391 290.318 71.8813 290.105 71.4794C289.892 71.0775 289.56 70.7508 289.155 70.5437C288.75 70.3365 288.291 70.2588 287.84 70.3211C287.389 70.3835 286.969 70.5828 286.635 70.8922L280.037 76.9863C280.004 77.0164 279.964 77.0364 279.92 77.044C279.876 77.0515 279.831 77.0463 279.79 77.0288L271.622 73.2339C271.206 73.0297 270.737 72.9607 270.28 73.0368C269.823 73.1129 269.401 73.3301 269.073 73.6581C268.746 73.986 268.529 74.4082 268.454 74.8655C268.378 75.3228 268.448 75.7922 268.653 76.2079L272.412 84.3637C272.43 84.4045 272.437 84.45 272.43 84.4945C272.423 84.5389 272.404 84.5804 272.374 84.6138L266.29 91.1733C265.978 91.5063 265.777 91.9273 265.713 92.3789C265.649 92.8306 265.725 93.291 265.932 93.6975C266.139 94.104 266.466 94.437 266.869 94.6509C267.272 94.8649 267.731 94.9496 268.184 94.8935L277.102 93.8383C277.147 93.8324 277.192 93.8402 277.231 93.8605C277.271 93.8809 277.304 93.9128 277.325 93.9521L281.69 101.8C281.901 102.206 282.233 102.535 282.64 102.743C283.047 102.951 283.509 103.028 283.961 102.961C284.41 102.893 284.828 102.688 285.156 102.373C285.484 102.058 285.706 101.649 285.792 101.202L287.545 92.3944C287.553 92.3499 287.575 92.3089 287.607 92.2772C287.639 92.2455 287.681 92.2245 287.725 92.2171L296.587 90.4593Z" fill="#FFE1A6"/>
<path d="M358.587 27.4593C359.044 27.382 359.466 27.1636 359.792 26.8348C360.119 26.5059 360.334 26.0831 360.409 25.6256C360.483 25.1682 360.412 24.6989 360.206 24.2838C360 23.8686 359.669 23.5283 359.26 23.3106L351.402 18.9102C351.364 18.8873 351.333 18.854 351.314 18.8141C351.294 18.7743 351.287 18.7296 351.292 18.6856L352.348 9.79076C352.403 9.33912 352.318 8.88135 352.105 8.47942C351.892 8.0775 351.56 7.75083 351.155 7.54366C350.75 7.33649 350.291 7.25881 349.84 7.32115C349.389 7.38349 348.969 7.58283 348.635 7.89218L342.037 13.9863C342.004 14.0164 341.964 14.0364 341.92 14.044C341.876 14.0515 341.831 14.0463 341.79 14.0288L333.622 10.2339C333.206 10.0297 332.737 9.96073 332.28 10.0368C331.823 10.1129 331.401 10.3301 331.073 10.6581C330.746 10.986 330.529 11.4082 330.454 11.8655C330.378 12.3228 330.448 12.7922 330.653 13.2079L334.412 21.3637C334.43 21.4045 334.437 21.45 334.43 21.4945C334.423 21.5389 334.404 21.5804 334.374 21.6138L328.29 28.1733C327.978 28.5063 327.777 28.9273 327.713 29.3789C327.649 29.8306 327.725 30.291 327.932 30.6975C328.139 31.104 328.466 31.437 328.869 31.6509C329.272 31.8649 329.731 31.9496 330.184 31.8935L339.102 30.8383C339.147 30.8324 339.192 30.8402 339.231 30.8605C339.271 30.8809 339.304 30.9128 339.325 30.9521L343.69 38.8003C343.901 39.2057 344.233 39.5353 344.64 39.7433C345.047 39.9514 345.509 40.0276 345.961 39.9613C346.41 39.8934 346.828 39.6878 347.156 39.3728C347.484 39.0578 347.706 38.6489 347.792 38.2024L349.545 29.3944C349.553 29.3499 349.575 29.3089 349.607 29.2772C349.639 29.2455 349.681 29.2245 349.725 29.2171L358.587 27.4593Z" fill="#FFE1A6"/>
<path d="M21.5876 75.4593C22.0446 75.382 22.4659 75.1636 22.7925 74.8348C23.1191 74.5059 23.3346 74.0831 23.4087 73.6256C23.4829 73.1682 23.4121 72.6989 23.2061 72.2838C23.0001 71.8686 22.6694 71.5283 22.2603 71.3106L14.402 66.9102C14.364 66.8873 14.3334 66.854 14.3139 66.8141C14.2944 66.7743 14.2869 66.7296 14.2922 66.6856L15.3477 57.7908C15.4032 57.3391 15.3185 56.8813 15.1052 56.4794C14.8919 56.0775 14.5602 55.7508 14.155 55.5437C13.7499 55.3365 13.2909 55.2588 12.8401 55.3211C12.3894 55.3835 11.9687 55.5828 11.635 55.8922L5.03682 61.9863C5.00422 62.0164 4.96363 62.0364 4.91991 62.044C4.8762 62.0515 4.83125 62.0463 4.79046 62.0288L-3.37741 58.2339C-3.79344 58.0297 -4.26295 57.9607 -4.72012 58.0368C-5.17729 58.1129 -5.59919 58.3301 -5.92667 58.6581C-6.25414 58.986 -6.47077 59.4082 -6.54617 59.8655C-6.62158 60.3228 -6.55198 60.7922 -6.34713 61.2079L-2.58821 69.3637C-2.56941 69.4045 -2.56299 69.45 -2.56976 69.4945C-2.57652 69.5389 -2.59616 69.5804 -2.62625 69.6138L-8.70987 76.1733C-9.0216 76.5063 -9.22317 76.9273 -9.28717 77.3789C-9.35116 77.8306 -9.27447 78.291 -9.06751 78.6975C-8.86056 79.104 -8.53341 79.437 -8.13055 79.6509C-7.72769 79.8649 -7.26869 79.9496 -6.81599 79.8935L2.10243 78.8383C2.1467 78.8324 2.1917 78.8402 2.23146 78.8605C2.27122 78.8809 2.30385 78.9128 2.32502 78.9521L6.69049 86.8003C6.90147 87.2057 7.23345 87.5353 7.6403 87.7433C8.04716 87.9514 8.50871 88.0276 8.96086 87.9613C9.41052 87.8934 9.82809 87.6878 10.1561 87.3728C10.4841 87.0578 10.7065 86.6489 10.7925 86.2024L12.545 77.3944C12.5531 77.3499 12.5749 77.3089 12.6072 77.2772C12.6395 77.2455 12.6808 77.2245 12.7255 77.2171L21.5876 75.4593Z" fill="#FFE1A6"/>
</svg>
