<svg width="145" height="249" viewBox="0 0 145 249" fill="none" xmlns="http://www.w3.org/2000/svg">
<path d="M36.5876 84.4593C37.0445 84.382 37.4658 84.1636 37.7924 83.8348C38.119 83.5059 38.3345 83.0831 38.4087 82.6256C38.4829 82.1682 38.412 81.6989 38.206 81.2838C38.0001 80.8686 37.6693 80.5283 37.2602 80.3106L29.4019 75.9102C29.3639 75.8873 29.3333 75.854 29.3139 75.8141C29.2944 75.7743 29.2869 75.7296 29.2922 75.6856L30.3477 66.7908C30.4031 66.3391 30.3185 65.8813 30.1051 65.4794C29.8918 65.0775 29.5601 64.7508 29.155 64.5437C28.7498 64.3365 28.2908 64.2588 27.8401 64.3211C27.3894 64.3835 26.9687 64.5828 26.635 64.8922L20.0368 70.9863C20.0042 71.0164 19.9636 71.0364 19.9199 71.044C19.8762 71.0515 19.8312 71.0463 19.7904 71.0288L11.6225 67.2339C11.2065 67.0297 10.737 66.9607 10.2798 67.0368C9.82265 67.1129 9.40075 67.3301 9.07328 67.6581C8.7458 67.986 8.52918 68.4082 8.45377 68.8655C8.37837 69.3228 8.44797 69.7922 8.65282 70.2079L12.4117 78.3637C12.4305 78.4045 12.437 78.45 12.4302 78.4945C12.4234 78.5389 12.4038 78.5804 12.3737 78.6138L6.29008 85.1733C5.97835 85.5063 5.77677 85.9273 5.71278 86.3789C5.64879 86.8306 5.72548 87.291 5.93243 87.6975C6.13938 88.104 6.46654 88.437 6.8694 88.6509C7.27226 88.8649 7.73126 88.9496 8.18396 88.8935L17.1024 87.8383C17.1466 87.8324 17.1917 87.8402 17.2314 87.8605C17.2712 87.8809 17.3038 87.9128 17.325 87.9521L21.6904 95.8003C21.9014 96.2057 22.2334 96.5353 22.6403 96.7433C23.0471 96.9514 23.5087 97.0276 23.9608 96.9613C24.4105 96.8934 24.828 96.6878 25.1561 96.3728C25.4841 96.0578 25.7064 95.6489 25.7925 95.2024L27.5449 86.3944C27.5531 86.3499 27.5748 86.3089 27.6071 86.2772C27.6394 86.2455 27.6807 86.2245 27.7254 86.2171L36.5876 84.4593Z" fill="#FFE1A6"/>
<path d="M115.588 17.4593C116.045 17.382 116.466 17.1636 116.792 16.8348C117.119 16.5059 117.335 16.0831 117.409 15.6256C117.483 15.1682 117.412 14.6989 117.206 14.2838C117 13.8686 116.669 13.5283 116.26 13.3106L108.402 8.9102C108.364 8.88733 108.333 8.85396 108.314 8.81411C108.294 8.77426 108.287 8.72963 108.292 8.68559L109.348 -0.209242C109.403 -0.660882 109.318 -1.11865 109.105 -1.52058C108.892 -1.9225 108.56 -2.24917 108.155 -2.45634C107.75 -2.66351 107.291 -2.74119 106.84 -2.67885C106.389 -2.61651 105.969 -2.41717 105.635 -2.10782L99.0368 3.98634C99.0042 4.01642 98.9636 4.03644 98.9199 4.04398C98.8762 4.05152 98.8312 4.04626 98.7904 4.02883L90.6225 0.233896C90.2065 0.0296536 89.737 -0.0392667 89.2798 0.0368004C88.8227 0.112867 88.4008 0.330107 88.0733 0.658058C87.7458 0.986009 87.5292 1.40823 87.4538 1.86551C87.3784 2.32279 87.448 2.7922 87.6528 3.20793L91.4117 11.3637C91.4305 11.4045 91.437 11.45 91.4302 11.4945C91.4234 11.5389 91.4038 11.5804 91.3737 11.6138L85.2901 18.1733C84.9783 18.5063 84.7768 18.9273 84.7128 19.3789C84.6488 19.8306 84.7255 20.291 84.9324 20.6975C85.1394 21.104 85.4665 21.437 85.8694 21.6509C86.2723 21.8649 86.7313 21.9496 87.184 21.8935L96.1024 20.8383C96.1466 20.8324 96.1917 20.8402 96.2314 20.8605C96.2712 20.8809 96.3038 20.9128 96.325 20.9521L100.69 28.8003C100.901 29.2057 101.233 29.5353 101.64 29.7433C102.047 29.9514 102.509 30.0276 102.961 29.9613C103.41 29.8934 103.828 29.6878 104.156 29.3728C104.484 29.0578 104.706 28.6489 104.792 28.2024L106.545 19.3944C106.553 19.3499 106.575 19.3089 106.607 19.2772C106.639 19.2455 106.681 19.2245 106.725 19.2171L115.588 17.4593Z" fill="#FFE1A6"/>
<path d="M137.588 232.459C138.045 232.382 138.466 232.164 138.792 231.835C139.119 231.506 139.335 231.083 139.409 230.626C139.483 230.168 139.412 229.699 139.206 229.284C139 228.869 138.669 228.528 138.26 228.311L130.402 223.91C130.364 223.887 130.333 223.854 130.314 223.814C130.294 223.774 130.287 223.73 130.292 223.686L131.348 214.791C131.403 214.339 131.318 213.881 131.105 213.479C130.892 213.077 130.56 212.751 130.155 212.544C129.75 212.336 129.291 212.259 128.84 212.321C128.389 212.383 127.969 212.583 127.635 212.892L121.037 218.986C121.004 219.016 120.964 219.036 120.92 219.044C120.876 219.052 120.831 219.046 120.79 219.029L112.623 215.234C112.207 215.03 111.737 214.961 111.28 215.037C110.823 215.113 110.401 215.33 110.073 215.658C109.746 215.986 109.529 216.408 109.454 216.866C109.378 217.323 109.448 217.792 109.653 218.208L113.412 226.364C113.431 226.405 113.437 226.45 113.43 226.494C113.423 226.539 113.404 226.58 113.374 226.614L107.29 233.173C106.978 233.506 106.777 233.927 106.713 234.379C106.649 234.831 106.725 235.291 106.932 235.698C107.139 236.104 107.467 236.437 107.869 236.651C108.272 236.865 108.731 236.95 109.184 236.894L118.102 235.838C118.147 235.832 118.192 235.84 118.231 235.861C118.271 235.881 118.304 235.913 118.325 235.952L122.69 243.8C122.901 244.206 123.233 244.535 123.64 244.743C124.047 244.951 124.509 245.028 124.961 244.961C125.41 244.893 125.828 244.688 126.156 244.373C126.484 244.058 126.706 243.649 126.792 243.202L128.545 234.394C128.553 234.35 128.575 234.309 128.607 234.277C128.639 234.245 128.681 234.225 128.725 234.217L137.588 232.459Z" fill="#FFE1A6"/>
</svg>
