<svg width="93" height="114" viewBox="0 0 93 114" fill="none" xmlns="http://www.w3.org/2000/svg">
<path d="M62.929 106.444C64.7102 106.444 66.3069 107.181 67.3937 108.347C68.951 104.631 72.8103 102 77.3278 102C83.2218 102 88 106.477 88 112H57C57 108.932 59.6545 106.444 62.929 106.444Z" fill="#D3E1F5"/>
<path d="M62.7538 107C63.9412 107 65.0501 107.31 66 107.852C65.1577 108.778 64.4765 109.839 63.9994 111C62.8345 109.732 61.1252 108.93 59.2188 108.93C58.802 108.93 58.3944 108.968 58 109.043C59.1605 107.79 60.8608 107 62.7538 107Z" fill="#C0D6F2"/>
<path d="M88 112H84.4366C83.5194 107.322 79.0407 103.772 73.6515 103.772C72.3713 103.772 71.1428 103.972 70 104.343C71.9031 102.88 74.3605 102 77.0433 102C83.094 102 88 106.477 88 112Z" fill="#C0D6F2"/>
<path d="M53.5787 114H91.4211C92.2931 114 93 113.288 93 112.409C93 111.531 92.2931 110.819 91.4211 110.819H89.5739C89.3248 108.854 88.6162 106.985 87.4847 105.342C86.9878 104.62 86.0042 104.441 85.2872 104.942C84.5708 105.443 84.3928 106.434 84.8902 107.156C85.6523 108.262 86.1573 109.507 86.383 110.819H58.7756C59.4109 109.165 61.0062 107.99 62.869 107.99C64.1337 107.99 65.338 108.542 66.1728 109.504C66.5356 109.922 67.089 110.119 67.6319 110.024C68.1751 109.929 68.6298 109.556 68.8315 109.039C70.2188 105.48 73.5657 103.181 77.3582 103.181C78.1717 103.181 78.978 103.289 79.7546 103.5C80.5965 103.729 81.4635 103.228 81.6909 102.38C81.9185 101.532 81.4205 100.658 80.5786 100.429C79.5335 100.144 78.4499 100 77.358 100C72.9812 100 69.0455 102.277 66.8384 105.947C65.6575 105.21 64.2856 104.808 62.869 104.808C59.2502 104.808 56.2194 107.389 55.4914 110.819H53.5789C52.7069 110.819 52 111.531 52 112.41C51.9996 113.288 52.7067 114 53.5787 114Z" fill="#432513"/>
<path d="M22.0918 4.65573C20.7776 4.65573 19.5995 5.23612 18.7977 6.15372C17.6487 3.2283 14.8012 1.15625 11.4682 1.15625C7.11949 1.15625 3.59407 4.68152 3.59407 9.03036H26.4663C26.4663 6.6143 24.5077 4.65573 22.0918 4.65573Z" fill="#D3E1F5"/>
<path d="M22.0931 4.65625C21.2749 4.65625 20.5108 4.88013 19.8563 5.27215C20.4366 5.9421 20.906 6.70931 21.2347 7.54909C22.0375 6.63211 23.2152 6.05172 24.5289 6.05172C24.8161 6.05172 25.0969 6.07951 25.3687 6.13355C24.569 5.22738 23.3974 4.65625 22.0931 4.65625Z" fill="#C0D6F2"/>
<path d="M3.59446 9.03036H6.15534C6.81448 5.34714 10.0331 2.55157 13.9061 2.55157C14.8262 2.55157 15.709 2.70905 16.5303 3.00087C15.1626 1.84935 13.3966 1.15625 11.4686 1.15625C7.12019 1.1561 3.59446 4.68183 3.59446 9.03036Z" fill="#C0D6F2"/>
<path d="M28.9045 10.1893H1.15765C0.518278 10.1893 -4.19617e-05 9.67102 -4.19617e-05 9.03165C-4.19617e-05 8.39212 0.518278 7.87395 1.15765 7.87395H2.51205C2.69471 6.44421 3.21427 5.08378 4.04386 3.88811C4.40824 3.36284 5.12944 3.23252 5.65518 3.59691C6.18045 3.96145 6.31092 4.68296 5.94622 5.20808C5.38745 6.01343 5.0172 6.91945 4.85168 7.87395H25.094C24.6282 6.67056 23.4585 5.81487 22.0926 5.81487C21.1653 5.81487 20.2823 6.21662 19.6703 6.91698C19.4042 7.2213 18.9985 7.36474 18.6004 7.29588C18.2021 7.22671 17.8687 6.95481 17.7208 6.57853C16.7036 3.98862 14.2496 2.31539 11.4688 2.31539C10.8724 2.31539 10.2812 2.39351 9.71174 2.54745C9.09445 2.71436 8.45878 2.34905 8.29203 1.73191C8.12512 1.11477 8.49028 0.47895 9.10757 0.312197C9.87386 0.105147 10.6684 0 11.469 0C14.6782 0 17.5639 1.65733 19.1822 4.3283C20.0481 3.79207 21.054 3.49964 22.0926 3.49964C24.746 3.49964 26.9683 5.37776 27.5021 7.87426H28.9043C29.5437 7.87426 30.062 8.39258 30.062 9.03195C30.0623 9.67102 29.5438 10.1893 28.9045 10.1893Z" fill="#432513"/>
</svg>
