<svg width="442" height="143" viewBox="0 0 442 143" fill="none" xmlns="http://www.w3.org/2000/svg">
<path d="M295.477 21.6166C297.536 22.2342 299.32 23.6066 300.761 25.6652C301.242 26.3514 301.928 26.6945 302.683 26.6945C303.163 26.6945 303.712 26.5573 304.192 26.2828C305.702 25.4594 306.731 23.538 305.839 22.0284C304.055 18.8718 301.173 16.676 297.536 15.7153C295.752 15.235 294.174 16.6074 293.693 18.1856C293.419 18.9405 293.487 19.7639 293.831 20.3815C294.242 20.9991 294.791 21.4108 295.477 21.6166Z" fill="#D03360"/>
<path d="M326.357 28.5473C327.18 29.2335 328.278 29.2335 329.239 28.616C330.405 27.8611 331.229 26.077 330.748 24.7732C330.337 23.6753 329.582 22.9891 328.621 22.5774C326.014 21.5481 322.24 23.3322 319.495 24.5674C319.083 24.7732 318.74 24.9105 318.397 25.0477C323.2 20.3816 327.523 15.4409 331.297 10.363C332.327 8.99064 331.846 7.41238 330.817 6.58894C329.925 5.90274 328.553 5.7655 327.386 7.00066C321.553 13.4509 314.554 20.9991 307.006 28.5473C306.594 28.9591 306.32 29.4394 306.183 29.9197C303.575 31.0177 301.242 31.9783 299.046 32.939C296.027 34.2428 293.282 35.478 290.606 36.7131C290.263 36.8504 289.851 37.0562 289.439 37.1935C287.655 37.9483 285.597 38.7717 284.636 40.5558C283.744 42.2027 284.293 43.7124 285.253 44.4672C285.734 44.8103 286.283 45.0161 286.9 45.0161C287.655 45.0161 288.479 44.673 289.165 44.1241C289.576 43.781 289.92 43.232 290.057 42.6831C290.674 42.4086 291.429 42.2027 292.115 41.9282C292.664 41.7224 293.213 41.5851 293.556 41.3793C294.86 40.8303 296.233 40.2127 297.536 39.6638C300.899 38.2228 304.261 36.7817 307.555 35.478C310.643 34.2428 313.799 32.939 316.956 31.7725C317.368 31.6352 317.917 31.3608 318.671 31.0177C323.2 28.9591 325.808 28.1356 326.357 28.5473Z" fill="#D03360"/>
<path d="M323.475 56.6128V56.5442C323.475 56.2011 323.475 55.9266 323.475 55.5835C323.475 53.9367 323.475 52.2898 323.406 50.6429V48.5843C323.406 47.1433 322.514 46.2512 321.211 46.2512C319.564 46.2512 317.505 47.8295 317.505 49.8195V52.0153C317.505 53.6622 317.436 55.2404 317.436 56.8873C317.436 57.2304 317.436 57.5049 317.436 57.848C317.368 59.5635 317.368 61.3476 318.397 63.0631C318.809 63.6807 319.358 63.9552 320.044 63.9552H320.113C321.279 63.8866 322.308 62.8573 322.72 62.1024C323.612 60.3183 323.544 58.4656 323.475 56.6128Z" fill="#D03360"/>
<path d="M332.67 37.5366C331.297 37.5366 329.651 38.6345 329.513 40.2814C329.033 44.9475 328.827 49.7509 328.69 54.4171C328.621 56.2012 328.69 58.0539 328.758 59.8381C328.827 62.1025 328.621 87.0116 327.043 88.3154C326.906 88.4526 326.768 88.4526 326.7 88.4526C325.533 88.3154 324.367 88.9329 323.749 89.9622C323.2 90.9229 323.2 92.0208 323.818 92.8443C324.71 94.0108 325.876 94.6284 327.249 94.6284C327.386 94.6284 327.523 94.6284 327.661 94.6284C329.719 94.4225 331.984 92.7757 333.013 90.6484C334.797 87.0116 336.238 51.6037 334.934 39.6638C334.797 38.36 333.905 37.5366 332.67 37.5366Z" fill="#D03360"/>
<path d="M345.433 43.9867C345.707 43.9867 345.982 43.9181 346.325 43.8495C349.276 42.8202 352.226 41.5164 355.177 39.8695C355.589 39.6637 356 39.4578 356.412 39.252C358.882 37.9482 361.627 36.5072 363 34.1055C363.48 33.2134 363.617 31.841 363 30.8803C362.725 30.5372 362.108 29.9196 360.941 30.0569C358.677 30.3314 356.824 31.7038 355.04 33.0075C354.422 33.4879 353.805 33.8996 353.256 34.3113C350.923 35.821 348.452 37.1934 345.982 38.6344L344.884 39.252C343.58 40.0068 343.237 41.7909 343.786 42.8888C343.992 43.575 344.61 43.9867 345.433 43.9867Z" fill="#D03360"/>
<path d="M362.245 42.0653C359.775 42.6142 357.648 44.3984 355.658 46.1825C354.834 46.9373 354.079 47.6235 353.325 48.1038C352.158 48.9273 350.923 49.7507 349.688 50.5742C347.972 51.7407 346.12 52.9072 344.404 54.2796C344.198 54.4169 344.061 54.6227 344.061 54.8972C343.237 56.1324 343.169 57.8479 343.924 58.8086C344.13 59.1517 345.09 60.0437 346.806 59.3575C349.482 58.191 351.884 56.6813 353.668 55.5148C353.53 57.9851 353.393 61.0044 353.325 63.7492V63.8178C353.256 65.7392 353.187 67.5233 353.119 68.8957C353.05 69.925 352.982 71.0229 352.844 72.0522C352.501 75.4832 352.227 78.9828 353.119 82.208C353.393 83.1687 354.148 83.7862 355.177 83.7862C356.481 83.7862 357.922 82.8256 358.334 81.659C359.5 78.1594 359.5 72.3953 359.5 67.6605C359.5 66.2881 359.5 64.8471 359.5 63.7492C359.5 62.7885 359.569 61.8278 359.638 60.8672C359.775 57.7106 359.912 54.4169 359.775 51.1917C361.833 49.7507 364.098 47.9666 365.196 45.4963C365.608 44.5356 365.47 43.5063 364.853 42.8201C364.235 42.2025 363.275 41.8594 362.245 42.0653Z" fill="#D03360"/>
<path d="M373.43 22.5086C373.705 22.5086 374.048 22.44 374.322 22.3713C376.861 21.6165 392.644 15.5093 394.565 14.0683C395.663 13.2449 396.487 11.2549 395.938 9.88251C395.8 9.53941 395.183 8.44149 393.467 8.57873C390.928 8.78459 388.458 9.81389 386.125 10.9118C385.507 11.1863 384.89 11.4608 384.272 11.7352L380.155 13.588C377.685 14.6173 375.077 15.6466 372.675 16.8817C371.029 17.7052 370.548 19.7638 371.166 21.1362C371.509 21.9596 372.401 22.5086 373.43 22.5086Z" fill="#D03360"/>
<path d="M401.496 23.1261C400.879 22.0282 399.643 21.6851 398.34 22.3027C394.977 23.7437 391.683 25.5278 388.527 27.1747C387.566 27.655 386.674 28.204 385.714 28.6843L384.272 29.4392C382.763 30.2626 381.253 31.0174 379.744 31.8409C379.606 31.9095 379.195 32.1153 378.714 32.4584C377.479 33.2133 374.734 34.9288 373.362 35.4091C373.019 35.1346 372.607 34.9288 372.127 34.9288C371.578 34.9288 370.823 35.066 370.068 35.8894L369.794 36.2325C368.97 37.1932 368.353 38.7715 369.382 40.0066C372.127 43.3004 376.656 40.5556 379.744 38.7029C380.361 38.3598 380.91 38.0167 381.39 37.7422C382.763 37.056 384.204 36.3698 385.645 35.6836L385.851 35.615C386.674 35.2032 387.498 34.7915 388.39 34.3798C388.047 38.9087 387.978 43.5062 387.909 48.0352C387.841 52.0151 387.841 56.1323 387.566 60.1809C387.292 64.6412 386.88 69.1701 386.331 73.6304L386.125 74.4539C385.645 79.2573 385.165 83.3745 380.224 84.4038C378.646 84.7469 377.548 86.6682 377.616 88.1092C377.685 89.3444 378.44 90.2365 379.675 90.3737C380.293 90.4423 380.841 90.5109 381.39 90.5109C383.38 90.5109 385.233 89.962 386.743 88.7954C391.821 84.9527 392.37 75.6204 392.85 69.9936V69.8563C392.919 69.4446 392.919 69.0329 392.987 68.6212C393.605 62.1023 394.017 55.7206 394.222 49.5448C394.222 48.5155 394.291 47.4862 394.36 46.4569V46.0452C394.566 41.1045 394.497 36.2325 394.36 31.1547C396.624 29.9881 398.477 28.9588 400.261 27.8609C401.839 26.9688 402.251 24.4985 401.496 23.1261Z" fill="#D03360"/>
<path d="M311.329 57.0245C311.604 52.77 312.153 45.7022 306.938 44.7415C302.752 43.9867 297.743 48.1039 294.929 50.78C294.174 49.6821 292.939 49.1332 291.498 49.0645C290.126 49.0645 289.028 50.1625 288.753 51.2604C288.479 52.2211 288.959 53.1131 289.851 53.5935C290.263 53.7993 291.087 55.1717 290.263 63.8178V63.9551C290.194 64.3668 290.195 64.7099 290.195 64.9158C289.989 67.8664 289.577 71.0229 288.753 75.0715C288.479 75.6891 288.479 76.3067 288.479 77.0615C288.479 78.2967 289.165 79.1201 290.332 79.2573C291.91 79.4632 293.969 78.0908 294.312 76.6498C294.449 76.0322 294.586 75.8263 294.723 75.6205C294.861 75.346 295.067 75.1401 295.204 74.3853C295.478 74.3853 295.753 74.3167 296.096 74.1795C299.252 72.9443 302.134 71.0916 304.879 69.2388L305.291 68.9643L305.222 72.6012C305.222 73.0815 305.291 73.7677 305.291 74.3167V74.3853C305.291 74.5226 305.291 74.6598 305.291 74.797C304.536 75.0029 303.85 75.4146 303.37 75.9636C302.752 76.6498 302.477 77.4046 302.615 78.1594C303.095 80.1494 304.742 81.7277 306.595 81.9335C306.732 81.9335 306.869 81.9335 307.006 81.9335C308.585 81.9335 309.888 80.9728 310.712 79.326C311.604 77.4732 311.398 75.0715 311.192 72.8757C311.124 72.0522 311.055 71.2974 311.055 70.6112L311.192 58.74C311.192 58.3282 311.261 57.7107 311.329 57.0245ZM295.959 66.6313C295.959 66.0823 296.027 65.602 296.027 65.2589C297.125 64.504 298.36 63.6806 299.664 62.9258C300.144 62.6513 300.625 62.3768 301.174 62.1023C302.546 61.4161 303.987 60.6613 304.948 59.4948C305.154 59.2889 305.291 59.0144 305.36 58.74V62.7199C305.291 62.7885 305.154 62.7885 305.085 62.8572C304.124 63.4747 303.164 64.0237 302.134 64.7099C300.007 66.0137 297.811 67.3175 295.89 68.8271C295.89 68.2095 295.89 67.3861 295.959 66.6313ZM305.222 56.9558C304.811 56.201 304.056 55.7893 303.164 55.8579C301.105 55.9265 299.252 57.2303 297.674 58.3282L297.605 58.3969C297.331 58.6027 297.056 58.74 296.851 58.9458C296.645 59.0831 296.439 59.2203 296.233 59.3575C296.233 59.2203 296.233 59.0144 296.233 58.8772C296.233 58.5341 296.233 58.1224 296.233 57.642C296.233 57.3676 296.233 57.0245 296.233 56.6814L296.37 56.5441C298.154 54.76 300.213 52.7014 302.477 51.8093C303.575 51.3976 304.467 51.2604 304.879 51.5349C305.703 52.0838 305.565 54.4169 305.497 55.9265C305.497 56.3383 305.428 56.8186 305.428 57.1617C305.291 57.1617 305.291 57.0245 305.222 56.9558Z" fill="#D03360"/>
<path d="M103.891 51.8781C106.979 50.7116 110.273 49.5451 113.773 48.4471C113.361 50.5744 113.018 52.9761 113.498 55.1719C113.773 56.5443 114.871 56.7502 115.145 56.7502C115.214 56.7502 115.282 56.7502 115.351 56.7502C116.312 56.7502 117.341 56.1326 117.821 55.2405C119.194 52.7016 119.537 49.7509 119.811 46.9375V46.7316L120.017 46.663C120.36 46.5944 120.772 46.4572 121.115 46.3885C123.174 45.9082 125.301 45.4965 127.153 45.222C126.948 46.3199 126.742 47.3492 126.536 48.4471L126.467 48.653C126.193 50.094 125.918 51.535 125.644 52.9761C125.438 54.2112 126.056 54.8974 126.81 55.1033C127.908 55.4464 129.418 54.7602 130.036 53.7309C131.614 50.9175 132.712 47.7609 133.329 44.1927C136.005 43.6437 140.191 42.4086 141.77 41.9282C143.211 41.4479 144.034 39.9383 143.828 38.8403C143.691 37.811 142.867 37.1248 141.632 36.9876C140.397 36.919 137.858 37.3307 135.525 37.6738C134.976 37.7424 134.427 37.8797 133.947 37.9483C133.947 37.6738 134.015 37.3307 134.015 36.9876C134.221 34.1056 134.427 29.7139 134.221 27.2436C134.084 26.0084 133.329 25.2536 132.094 25.3222C130.653 25.3908 129.006 26.7632 129.075 28.3415C129.143 30.8118 128.457 36.4386 128.114 38.9776C125.987 39.4579 123.86 40.0755 121.938 40.5558C121.527 40.6931 121.046 40.7617 120.635 40.8989C120.635 40.7617 120.703 40.6931 120.703 40.5558C120.978 38.9776 121.184 37.9483 121.046 35.8211C120.978 34.8604 120.36 34.2428 119.468 34.1056C118.37 33.9683 117.066 34.7231 116.655 35.6838C115.625 38.36 115.282 39.3893 114.802 42.2713L114.733 42.6144C110.891 43.8496 106.842 45.4279 102.382 47.2806C101.764 47.5551 101.284 48.0354 101.078 48.653C100.803 49.4078 100.803 50.2313 101.146 50.8488C101.695 51.9468 102.793 52.3585 103.891 51.8781Z" fill="#492D18"/>
<path d="M146.024 62.4458C142.525 63.6123 139.025 64.8475 135.594 66.0826H135.526C134.839 66.3571 134.153 66.563 133.536 66.8374C138.064 61.8968 141.495 57.5737 144.377 53.3193C145.132 52.2214 144.721 50.9862 143.897 50.4373C143.28 50.0255 142.25 49.8197 141.221 50.7804C137.584 54.28 134.084 57.9855 130.653 61.6223C131.065 60.8675 131.271 59.9068 130.997 59.2892C130.859 59.0148 130.379 58.1913 129.075 58.3972C128.046 58.5344 126.399 59.0834 125.027 59.4951C125.027 59.3579 125.095 59.2206 125.095 59.0148C125.164 58.8089 125.164 58.5344 125.233 58.3972C125.301 57.9855 125.301 56.9562 124.889 56.27C124.684 55.9269 124.34 55.721 123.997 55.6524C122.625 55.3779 121.39 56.4072 120.978 58.0541C120.704 59.152 120.36 60.3185 119.88 61.4165C119.468 61.5537 119.057 61.7596 118.645 61.8968C115.077 63.3378 111.303 64.9161 107.46 66.4943C106.705 66.7688 106.156 67.455 105.813 68.2098C105.539 68.9647 105.47 69.7881 105.813 70.4057C106.225 71.3664 107.323 71.6408 108.489 71.2291C110.96 70.3371 113.498 69.3764 116.312 68.2785C115.694 69.3764 115.008 70.4057 114.322 71.5036L113.773 72.327C113.636 72.6015 113.498 72.8074 113.43 73.0819L113.018 73.2191C108.97 74.317 104.852 75.4836 100.804 76.856C99.3628 77.3363 98.4707 79.3263 98.8138 80.5614C99.0883 81.5221 99.9804 82.0025 101.078 81.7966C106.019 80.9732 110.891 79.738 114.391 78.7087C109.107 83.7866 103.48 88.6586 97.9904 93.3934C94.079 96.7558 90.0991 100.187 86.2564 103.686C85.4329 104.441 85.2271 105.265 85.2271 105.814C85.2271 106.5 85.4329 107.117 85.9133 107.598C86.3936 108.078 87.0112 108.353 87.6974 108.353C88.3836 108.353 89.0011 108.147 89.6187 107.666C100.186 100.05 109.587 90.7858 118.714 81.728L120.566 79.8752C122.076 78.4342 123.586 76.9246 125.095 75.4149C132.781 73.0132 140.329 70.5429 147.465 67.3178C148.152 67.0433 148.632 66.4257 148.906 65.7395C149.181 64.9847 149.181 64.0926 148.838 63.4751C148.426 62.4458 147.328 62.034 146.024 62.4458ZM127.497 65.0533L127.36 65.1906C125.713 66.9747 124.066 68.7588 122.419 70.5429C121.939 70.6802 121.253 70.886 120.566 71.0233C120.223 71.0919 119.949 71.1605 119.606 71.2977C120.429 69.5822 121.321 68.0726 122.556 66.2885C124.478 65.5337 127.909 63.8182 129.83 62.5144C129.075 63.4064 128.32 64.2299 127.497 65.0533Z" fill="#492D18"/>
<path d="M155.562 28.6159C159.679 27.4493 163.728 26.0083 167.639 24.6359C169.972 23.8125 172.648 22.8518 175.256 22.0283C178.618 20.9304 181.637 19.9697 184.451 19.1463C185 18.9404 185.755 18.666 186.715 18.3229C188.431 17.7053 190.489 16.8818 192.136 16.6074C192.411 16.8132 192.685 17.0191 193.097 17.1563L193.44 17.2936C194.469 17.6367 195.704 17.1563 196.391 16.4701C197.557 15.3722 197.969 14.4115 197.832 12.9705C197.763 12.0098 197.145 11.255 196.048 10.8433C193.714 9.95121 190.764 11.0491 188.431 11.9412C187.813 12.1471 187.196 12.4215 186.647 12.5588C182.735 13.7939 179.236 14.8919 175.873 16.0584L174.913 16.4015C167.982 18.7346 160.846 21.1363 154.327 24.43C153.023 25.0476 152.611 26.6945 153.091 27.7924C153.435 28.4786 154.052 28.8903 154.876 28.8903C155.081 28.6845 155.287 28.6845 155.562 28.6159Z" fill="#492D18"/>
<path d="M176.011 27.7241C176.079 26.6948 175.53 25.8713 174.638 25.5282C173.609 25.1851 172.442 25.5969 171.756 26.4889C168.394 30.9492 168.188 37.8798 169.766 42.4088C170.109 43.3694 170.864 43.987 171.825 43.987C171.962 43.987 172.099 43.987 172.305 43.9184C173.815 43.6439 175.599 41.997 175.393 40.3502C175.324 39.8012 175.256 39.2522 175.187 38.7033C174.981 36.9878 174.844 35.4095 174.981 33.7626C175.05 32.802 175.256 31.8413 175.462 30.9492L175.119 30.8806L175.462 30.9492C175.736 29.8513 175.942 28.822 176.011 27.7241Z" fill="#492D18"/>
<path d="M190.627 26.3515C191.176 24.9791 190.558 23.8125 189.666 23.2636C188.637 22.646 187.333 22.8519 186.441 23.7439C184.931 25.1849 183.765 27.5866 183.353 29.9197C182.941 32.6645 183.49 35.0662 185.068 36.6445C185.549 37.1248 186.166 37.3993 186.784 37.3993C187.058 37.3993 187.401 37.3307 187.676 37.1934C188.911 36.7131 189.872 35.3407 189.803 34.1055C189.735 33.488 189.666 32.8704 189.529 32.3214C189.391 31.498 189.254 30.7432 189.323 29.9883C189.391 28.959 189.803 28.067 190.215 27.1063L189.872 26.9691L190.215 27.0377C190.421 26.8318 190.489 26.5573 190.627 26.3515Z" fill="#492D18"/>
<path d="M193.097 34.9291C193.166 35.6153 193.509 36.2329 194.127 36.6446C194.538 36.9877 195.087 37.125 195.636 37.125C196.117 37.125 196.871 36.9877 197.558 36.2329C202.087 31.4981 204.694 26.7633 205.243 22.1658C205.38 20.9306 204.763 19.97 203.665 19.6955C202.498 19.421 200.92 20.0386 200.234 21.411L200.097 21.6855C198.312 25.734 196.597 29.5081 193.715 33.0078C193.235 33.6253 193.029 34.2429 193.097 34.9291Z" fill="#492D18"/>
<path d="M92.0884 65.3964C91.5395 63.0633 89.8926 61.2792 87.1478 59.9754C80.2858 56.7503 71.2966 57.0934 59.7684 61.0047C50.8478 64.024 42.4076 68.0726 34.5849 73.2191C33.1439 74.1797 31.497 75.2777 29.7815 76.5128C30.8794 71.0919 29.7815 67.7295 26.4877 66.4943C25.3898 66.0826 24.3605 66.7002 23.8115 67.5236C23.2626 68.3471 23.0567 69.5136 23.8802 70.2684C25.3898 71.5722 25.0467 75.0032 22.9195 80.63C22.5764 81.5221 22.2333 82.3455 21.8216 83.2376C19.214 85.9138 17.2926 88.6586 16.0575 91.5406C15.4399 92.9816 16.1947 94.354 17.224 94.903C18.3906 95.5206 19.6943 95.3147 20.5864 94.2854C22.8509 91.8151 24.7036 89.2075 26.2132 86.4627C29.1639 83.5121 32.8694 80.9731 36.4376 78.6401C41.9958 74.9346 47.8972 71.7781 53.9357 69.2391C54.965 68.8274 55.8571 68.4157 56.8178 68.0726L56.0629 79.738C52.8378 81.179 47.0737 85.2276 43.9858 88.1782C44.1231 87.492 44.1917 86.8058 44.3289 86.1883C44.5348 84.8159 43.8486 83.7179 42.5448 83.5121C41.0352 83.2376 38.9766 84.2669 38.5648 86.051C37.4669 90.6486 36.5749 95.3833 35.6142 99.9123C35.3397 101.147 35.1338 102.314 34.8594 103.549C34.7221 104.304 34.7907 104.99 35.1338 105.47C35.4083 105.951 35.9573 106.225 36.5749 106.363C38.2217 106.706 40.4176 105.608 40.8979 103.755C42.4076 97.785 49.6813 90.1682 55.4454 86.7372C54.8964 94.4227 54.4161 101.216 53.8671 108.353V108.421C53.7985 109.519 53.6612 111.784 53.4554 114.322C53.1809 118.646 52.8378 123.998 52.5633 126.743C52.5633 127.086 52.4947 127.566 52.4947 128.252C52.2888 136.075 51.2595 137.242 50.642 137.242C49.0637 137.242 47.8972 138.545 47.6913 139.78C47.4854 140.947 48.1716 142.045 49.3382 142.388C50.093 142.594 50.7792 142.731 51.4654 142.731C52.4947 142.731 53.3868 142.457 54.2102 141.976C57.9157 139.643 58.3274 132.644 58.5333 128.87V128.801C58.5333 128.321 58.6019 127.841 58.6019 127.497C58.8764 124.341 59.1508 121.459 59.4253 118.577L59.4939 117.891C59.9057 113.362 60.1801 106.294 60.5919 97.3047C60.7291 93.3247 60.935 88.9331 61.1408 84.3355C63.6798 83.7866 70.2673 83.1004 71.9142 86.3255C72.669 87.7665 72.9435 93.0503 71.5711 95.2461C71.228 95.8637 70.7476 96.2068 70.1987 96.2068C69.3066 96.2754 68.4145 96.8243 67.797 97.5792C67.1794 98.334 66.8363 99.2947 66.9735 100.118C67.1108 101.422 68.2087 102.177 69.7183 102.039C76.7862 101.491 78.3644 94.4227 78.6389 90.3055C79.1193 83.2376 75.7569 78.5028 69.5125 77.6794C67.7283 77.4735 63.5425 77.8166 61.4153 78.0911C61.6212 73.768 61.7584 69.8567 61.827 66.1512C66.3559 64.7102 70.4045 63.9554 74.1786 63.8181C77.2665 63.7495 81.521 63.9554 84.403 65.7395C85.3637 66.2885 85.9126 67.0433 86.0499 67.8667C86.4616 70.1312 84.0599 73.0818 82.6189 74.866C82.0699 75.5522 81.7954 76.307 81.9327 76.9932C82.0013 77.6107 82.3444 78.1597 82.962 78.5714C84.0599 79.3263 85.9126 79.3263 87.2164 77.8166C88.8633 76.1697 93.3236 70.4743 92.0884 65.3964Z" fill="#492D18"/>
<path d="M18.4588 50.5058C22.3015 49.2706 23.7425 48.7217 26.9677 47.4865C27.9283 47.1434 29.0263 46.6631 30.3987 46.1827C29.438 47.9668 28.2714 49.6823 27.0363 51.5351C26.7618 51.9468 25.8697 53.2506 25.2522 54.2113L24.6346 55.1719C23.6739 56.613 24.2229 58.1912 25.1835 58.946C25.5953 59.2891 26.1442 59.4264 26.6932 59.4264C27.448 59.4264 28.1342 59.1519 28.8204 58.5343C32.6631 55.1033 36.7117 48.4472 38.2213 43.0948C39.0448 42.7517 39.9368 42.4086 40.7603 42.0655L43.9168 40.8304C45.6323 40.1442 47.3478 39.458 49.0633 38.7718C49.0633 40.2128 49.1319 42.1341 49.6123 43.9869C49.8867 45.1534 50.7788 45.8396 51.9453 45.8396C53.3864 45.8396 54.7588 44.7417 55.1019 43.3693C55.6508 40.9676 55.6508 38.4286 55.5822 36.2328C58.6015 35.0663 61.3463 34.037 64.0225 33.0763C63.4735 35.6152 62.7187 38.0855 62.0325 40.5559L61.9639 40.8304C61.6894 41.8597 61.4149 42.8203 61.1404 43.8496L60.7973 43.9869C57.6408 45.5651 54.2784 47.212 51.2591 48.9961C50.5043 49.4765 49.9554 50.1627 49.7495 50.9861C49.5436 51.6723 49.6809 52.4271 50.024 52.9761C50.5729 53.8682 51.7395 54.4857 53.5236 53.7309C55.9253 52.7016 58.1898 51.6723 60.7973 50.2999C61.209 50.643 61.8266 50.8489 62.5128 50.8489C63.748 50.8489 65.2576 50.1627 65.8752 48.9275C66.1497 48.3786 66.4242 47.6924 66.6986 47.0062C67.1104 46.5258 67.3162 45.8396 67.3848 45.222C69.1003 40.4186 70.061 35.4094 70.8845 30.606C73.6293 29.7139 76.1682 28.8905 78.5699 28.1357C78.1582 31.2236 77.6778 34.6546 77.7465 38.0169C77.8151 41.5166 78.913 46.1827 83.4419 48.9275C87.1474 51.1234 91.2646 51.0547 94.4897 48.7217C95.7935 47.8296 95.9308 46.32 95.3818 45.2907C94.8328 44.2614 93.6663 43.781 92.3625 44.0555C89.8236 44.6045 87.8336 44.33 86.5298 43.2321C83.0302 40.35 84.2654 32.1156 85.0202 27.2436C85.0888 26.9691 85.0888 26.626 85.1574 26.3515C85.7064 26.2143 86.2553 26.0771 86.8043 25.9398C87.2846 25.8026 87.9022 25.6653 88.5884 25.3909C89.8236 24.9791 91.3332 24.5674 92.4998 24.3616C92.5684 24.3616 92.5684 24.4302 92.637 24.4302L92.9115 24.5674C93.7349 25.0478 95.0387 25.0478 95.9308 24.4988C97.1659 23.744 98.058 22.5088 98.1266 21.4109C98.1952 20.5188 97.7835 19.6954 97.0287 19.0092C94.8328 17.2937 90.7156 18.5289 87.6277 19.4895C87.0102 19.6954 86.4612 19.8326 85.9809 19.9699C86.9415 13.9999 87.9708 7.27517 85.3633 1.71695C84.8143 0.481793 83.5792 0.00145255 82.2754 0.413173C80.6971 0.962133 79.3247 2.74625 79.8737 4.39313C81.3147 8.78481 80.5599 13.6568 79.8737 18.3916C79.7364 19.4895 79.5306 20.6561 79.3933 21.754C76.923 22.4402 74.3841 23.2636 71.8451 24.0871C72.3941 20.5188 72.8058 15.9899 71.9824 11.8041C71.7765 10.6376 70.9531 9.95135 69.7865 9.95135C68.3455 9.95135 66.9045 11.0493 66.63 12.3531C65.9438 15.5782 65.6693 18.872 65.4635 22.0285V22.1657C65.3262 23.5381 65.2576 24.9791 65.1204 26.3515C62.307 27.3808 59.4249 28.4101 56.4743 29.5767C56.1312 29.7139 55.7881 29.8512 55.445 29.9884C55.445 26.9691 55.445 23.8126 55.1019 20.6561C54.9646 19.4895 54.0726 18.6661 52.906 18.6661C51.465 18.6661 49.8181 19.6954 49.6809 21.2737C49.3378 24.3616 49.3378 27.5181 49.3378 30.5374V32.1156C49.3378 32.2529 49.3378 32.3215 49.3378 32.4587C47.4164 33.2135 45.5637 33.9683 43.7109 34.7232L39.5251 36.4387C39.6624 33.4194 39.4565 26.1457 39.1134 23.8812C38.8389 22.5088 37.8782 21.754 36.5058 21.8912C34.9276 22.0285 33.2121 23.5381 33.2807 25.2536C33.4179 28.4101 33.4179 36.3701 33.0062 39.0462C31.5652 39.5952 30.0556 40.2128 28.6145 40.7617C26.5559 41.5852 25.2522 42.0655 24.2915 42.4772C22.7132 43.0948 21.7525 43.5065 19.145 44.3986C18.7333 44.5358 18.1843 44.7417 17.3609 45.0162C14.6847 46.0455 9.88128 47.8296 6.93062 47.9668C7.2051 47.3493 7.13648 46.5944 6.72476 46.1141C6.31304 45.6338 5.55822 45.2907 4.52892 45.771L2.19584 46.7317C1.30378 47.0748 0.54896 47.761 0.20586 48.5844C-0.06862 49.202 -0.06862 49.8196 0.20586 50.4372C2.7448 56.1326 11.4595 53.0447 16.6747 51.192C17.2236 50.9175 17.9098 50.7116 18.4588 50.5058Z" fill="#492D18"/>
<path d="M185.548 50.7802C185.96 50.5743 186.372 50.3684 186.852 50.094C191.107 47.8295 198.998 43.6437 202.566 46.0454C203.252 46.4571 203.595 46.9374 203.595 47.3492C203.664 48.3098 202.292 49.545 201.262 50.5743C200.988 50.8488 200.713 51.1233 200.439 51.3291C198.792 53.0446 197.694 54.4856 196.939 56.1325C196.459 55.3777 195.567 54.966 194.606 55.2405C193.371 55.5149 192.067 56.8187 192.273 58.2597C192.342 58.6715 192.342 59.0832 192.41 59.4949V59.6321C192.548 60.5928 192.685 61.5535 192.685 62.5142C192.685 63.1318 192.685 63.818 192.616 64.4355C192.548 65.1904 192.548 65.9452 192.616 66.7686C192.685 67.8665 193.371 68.6214 194.469 68.7586C195.773 68.8958 197.282 68.0038 197.694 66.8372C198.449 64.71 198.586 62.1025 198.037 59.5635C199.41 60.0439 201.4 59.4949 202.154 57.7794C202.841 56.407 204.144 55.1032 205.448 53.8681C208.056 51.3291 211.006 48.4471 209.016 44.1926C208.124 42.3399 206.752 41.0361 204.899 40.3499C200.576 38.7717 194.606 40.8303 190.558 42.4771C182.117 45.9081 174.295 50.6429 167.364 56.4756C167.982 53.8681 168.188 51.2605 168.119 48.7902C168.05 47.555 167.227 46.7316 166.06 46.663H165.992C164.551 46.663 162.767 47.7609 162.561 49.4078C161.531 57.848 159.336 63.7493 155.15 69.1017C154.464 69.9938 154.395 70.8172 154.532 71.2975C154.669 71.9151 155.013 72.5327 155.63 72.9444C156.11 73.2189 156.659 73.4248 157.208 73.4248C158.238 73.4248 159.13 72.9444 159.816 72.0524C166.678 63.2004 175.53 55.9267 185.548 50.7802Z" fill="#492D18"/>
<path d="M171.825 66.5628C170.933 66.0825 169.698 66.2197 168.874 67.4549C166.679 70.8859 164.208 74.7286 161.258 79.532C160.709 80.3554 160.709 81.3161 161.189 82.0709C161.601 82.6885 162.356 83.1002 163.11 83.1002C163.934 83.1002 164.689 82.6199 165.169 81.8651C168.12 77.0617 170.521 73.2189 172.58 69.6507C173.06 68.8959 172.992 68.2097 172.854 67.798C172.717 67.3176 172.305 66.8373 171.825 66.5628Z" fill="#492D18"/>
<path d="M232.142 113.224C230.564 112.195 228.78 111.44 226.996 110.685C225.898 110.205 224.731 109.725 223.702 109.176C222.741 108.695 221.781 108.215 220.82 107.666C219.448 106.911 218.007 106.156 216.565 105.47C211.488 103 205.861 100.735 199.822 98.9514C195.499 97.6476 190.97 96.4811 186.098 95.4518C190.01 90.717 191.725 86.0508 191.313 81.2474C191.245 80.424 190.833 79.8064 190.147 79.3947C189.392 78.9829 188.294 78.9829 187.402 79.4633C186.167 80.0122 184.863 80.5612 183.422 81.1102C183.971 80.0809 184.589 78.7771 185.206 77.4733C187.951 76.5812 191.176 73.0816 190.97 70.2682C190.902 69.3761 190.559 68.8272 190.147 68.5527C190.353 66.4941 190.01 64.2983 189.735 62.6514C189.529 61.6907 188.843 61.0731 187.882 61.0731C186.716 61.0731 185.618 61.9652 185.412 63.1317C185.069 65.0531 184.726 67.1803 184.932 69.1703C185 69.8565 185.275 70.2682 185.618 70.5427C185.549 70.7485 185.481 70.9544 185.481 71.0916C185.412 71.1603 185.275 71.1603 185.206 71.2289C184.794 71.4347 183.834 71.9151 183.559 71.9837C182.942 71.7778 182.461 71.0916 182.255 70.5427C181.569 68.9644 182.324 67.1117 182.942 65.3962L183.148 64.8472C183.422 64.0924 183.422 63.4062 183.148 62.8572C182.873 62.3083 182.461 61.9652 181.844 61.7593C180.609 61.3476 178.824 61.8279 178.138 63.4748C176.491 67.1803 174.501 73.8364 180.06 76.9243C178.893 78.8457 177.795 80.7671 176.697 82.6884L175.805 84.3353C175.188 85.4332 175.256 86.8742 175.942 87.6977C176.491 88.3839 177.452 88.5897 178.481 88.3153C180.746 87.7663 182.942 87.0115 185.275 86.1194C184.383 89.5504 181.844 92.3638 179.991 94.2166C174.57 93.2559 168.806 92.5011 162.905 91.8835C161.326 91.7463 160.023 93.05 159.748 94.3538C159.542 95.4517 160.16 96.3438 161.326 96.5497C164.963 97.3045 168.6 97.9907 172.168 98.6083L174.639 99.0886C172.031 101.147 168.669 103.137 164.826 102.108C163.179 101.628 161.738 102.794 161.258 104.098C160.983 104.784 160.983 105.539 161.258 106.156C161.532 106.774 162.013 107.186 162.699 107.46C169.492 109.999 175.874 105.333 181.226 100.392C187.951 101.765 193.029 103 197.695 104.372C203.871 106.225 209.703 108.627 214.987 111.372C216.017 111.921 217.046 112.47 218.144 113.156C221.986 115.352 225.898 117.547 230.221 117.959C230.289 117.959 230.358 117.959 230.427 117.959C231.731 117.959 232.554 116.998 232.897 116.175C233.377 115.008 233.103 113.842 232.142 113.224Z" fill="#492D18"/>
<path d="M134.22 80.287C130.789 79.1891 125.437 81.7966 122.349 83.5808C122.006 83.169 121.457 82.8946 120.771 82.8946C119.536 82.8946 118.095 83.7866 117.82 85.159C117.614 86.4628 117.408 87.8352 117.203 89.139V89.2762C116.997 90.8545 116.722 92.7072 116.379 94.4227C116.242 95.2462 115.967 96.1382 115.83 96.893C115.418 98.5399 115.007 100.187 114.938 101.971C114.938 101.971 114.869 101.971 114.869 102.04C114.321 102.383 113.497 103.343 113.634 104.304C113.634 104.578 113.84 105.265 114.732 105.539C116.859 106.363 119.398 105.676 121.594 105.059L121.731 104.99C122.075 104.922 122.349 104.853 122.624 104.784L123.241 104.647C124.819 104.235 126.604 103.824 128.182 103.137C127.976 103.549 127.839 103.961 127.77 104.235C127.152 104.098 126.466 104.235 125.78 104.647C124.957 105.127 124.339 105.882 124.202 106.568C124.065 107.117 124.133 107.666 124.408 108.078L124.614 108.421C124.957 108.97 125.506 109.313 126.123 109.45C126.329 109.519 126.466 109.519 126.672 109.519C126.741 109.519 126.809 109.519 126.878 109.519C129.829 109.313 132.23 107.049 134.083 102.863C136.21 98.0596 137.445 93.1189 137.583 88.9331C137.72 86.5314 137.926 81.4535 134.22 80.287ZM124.819 95.1089L125.986 94.7658C127.29 94.3541 128.662 93.9424 129.966 93.462C130.721 93.1875 131.338 92.57 131.681 91.8151C131.956 91.1289 132.024 90.4427 131.819 89.8938C131.407 88.8645 130.309 88.4528 129.005 88.8645C127.633 89.2762 126.329 89.6879 125.094 90.1683H125.025C124.614 90.3055 124.27 90.4427 123.859 90.58L123.31 90.7858C123.035 90.8545 122.761 90.9917 122.486 91.0603C122.555 90.0996 122.692 89.2076 122.692 88.2469C122.761 88.2469 122.829 88.1783 122.898 88.1783C123.378 87.9724 123.859 87.7666 124.339 87.4921C126.329 86.5314 128.593 85.5021 130.515 85.3649C131.956 85.2276 131.956 85.2276 132.162 87.149C132.299 88.3841 132.23 89.6193 132.093 91.0603C131.819 93.2562 131.201 95.452 130.515 97.5106C130.446 97.6479 130.378 97.7851 130.309 97.9909C130.035 97.8537 129.691 97.8537 129.348 97.8537C127.701 97.9223 126.055 98.5399 124.476 99.0889C123.653 99.3633 122.898 99.6378 122.212 99.8437C121.663 99.9809 121.114 100.118 120.565 100.187C121.045 98.883 121.457 97.442 121.731 95.9323C122.555 95.7951 123.378 95.5206 124.202 95.2461C124.408 95.2461 124.614 95.1775 124.819 95.1089Z" fill="#492D18"/>
<path d="M396.967 96.6871C396.898 96.6871 396.898 96.6871 396.967 96.6871C370.754 96.9616 343.924 98.1968 317.23 100.393C304.81 101.422 292.047 102.726 278.254 104.373C271.804 105.127 265.354 105.951 259.041 106.843C255.061 107.392 252.11 107.872 249.297 108.284C248.885 108.353 248.473 108.421 247.993 108.49C245.66 108.833 243.189 109.176 241.337 110.754C241.131 110.96 240.994 111.166 241.062 111.509C241.131 111.852 241.405 112.195 241.748 112.332C242.778 112.744 243.944 112.881 245.042 112.881C246.415 112.881 247.856 112.676 249.297 112.47C249.914 112.401 250.532 112.264 251.149 112.195C254.1 111.852 256.982 111.509 259.521 111.166C266.246 110.274 304.879 106.843 318.603 105.745C343.855 103.755 370.205 102.52 396.967 102.177C398.614 102.177 399.437 100.255 399.437 99.0888C399.3 97.8537 398.545 96.6871 396.967 96.6871Z" fill="#D03360"/>
<path d="M228.505 89.9623C228.505 89.825 228.505 89.6878 228.437 89.5506C228.642 85.4334 228.642 81.2475 228.642 77.1303C228.642 72.4642 229.054 67.3177 228.299 62.7201C227.819 59.7695 226.104 56.6816 222.81 56.3385C219.928 55.9954 217.869 57.7109 217.183 60.3871C216.565 63.1319 220.477 63.5436 221.575 61.485C221.369 61.8281 222.055 63.0632 222.124 63.6808C222.329 64.916 222.192 66.4256 222.192 67.6608C222.192 70.337 222.192 73.0131 222.124 75.6893C222.055 81.3162 221.712 86.8744 221.712 92.4326C221.643 96.5498 227.476 97.3732 228.162 93.1874C228.437 92.0895 228.505 91.1288 228.505 89.9623Z" fill="#D03360"/>
<path d="M249.502 25.1851C249.296 22.6461 246.758 20.7934 244.356 21.9599C243.258 22.5089 242.64 24.1558 243.875 24.9792C244.013 25.0478 234.886 34.1057 233.994 34.9291C230.083 38.4287 229.74 38.4973 225.623 41.7225C222.329 44.2614 225.966 49.4765 229.397 47.0062C235.984 42.2714 239.209 39.7325 244.768 33.8998C246.895 31.704 249.708 28.6847 249.502 25.1851Z" fill="#D03360"/>
<path d="M257.187 70.6114C257.05 70.68 256.981 70.68 256.913 70.7486C257.462 67.6607 259.246 63.2691 258.011 60.387C255.129 53.5937 248.061 59.0146 243.463 62.377C242.64 61.8281 240.581 62.0339 240.032 62.9946C238.523 65.6022 238.728 68.8273 238.66 71.7779C238.591 75.0717 239.072 78.5027 239.826 81.7278C240.444 84.404 244.63 84.404 245.179 81.7278C245.934 78.5027 245.59 75.0717 245.453 71.7779C245.453 70.68 245.453 69.5821 245.385 68.4842C246.688 67.249 249.09 66.1511 250.531 64.9846C250.531 64.9846 252.59 64.0925 252.452 64.0925C252.727 64.1611 252.178 67.7294 252.178 67.9352C252.178 72.0524 249.982 73.6307 247.169 76.5813C244.424 79.4634 248.61 83.6492 251.492 80.9044C254.374 78.2282 256.844 77.8165 260.206 75.7579C263.569 73.7679 260.687 69.1018 257.187 70.6114Z" fill="#D03360"/>
<path d="M270.637 91.9523C269.471 91.8837 268.373 91.3348 267.686 90.3055C267.069 89.3448 265.834 87.8351 266.245 86.7372C266.52 86.1196 268.441 86.051 269.196 86.051C269.333 86.051 269.471 85.9824 269.471 85.8452C269.539 85.7079 269.471 85.5707 269.402 85.5021C269.471 84.6786 269.539 83.7866 269.608 82.9631C269.745 81.179 269.882 77.3363 269.951 75.5522C270.157 72.3956 270.225 69.1705 270.294 66.014C270.363 62.8575 270.363 58.7403 270.294 55.3093C270.294 54.4858 270.294 53.5938 270.294 52.6331C270.294 50.3 270.363 48.2414 269.882 46.1142C269.608 44.9476 269.333 44.0556 268.304 43.987C267.824 43.987 267.275 44.1242 266.52 44.3301C265.628 44.5359 264.736 44.9476 263.844 45.2907L263.226 45.4966C260.756 46.4573 239.895 55.0348 236.67 58.1227C235.366 59.3578 231.661 59.2206 231.112 57.7796C230.22 55.3093 232.484 53.5938 234.68 53.5938C243.601 47.6924 260.481 40.2815 260.481 40.2815C263.02 39.1836 266.108 37.8112 268.99 37.8798C269.814 37.8798 270.568 38.0856 271.323 38.2915C275.166 39.7325 275.44 43.7811 275.646 47.418V47.5552C276.264 58.0541 276.744 71.5036 275.989 82.2769C275.989 82.5514 275.921 82.8945 275.921 83.2376C275.715 86.7372 274.96 91.472 270.98 91.7465C270.98 91.9523 270.843 91.9523 270.637 91.9523Z" fill="#D03360"/>
<path d="M440.884 71.9152C439.718 70.1997 437.59 69.4449 434.708 69.6508C431.14 69.8566 425.788 71.4349 422.219 75.1404C422.151 70.2683 420.161 66.6315 416.73 64.916C411.995 62.5143 407.466 65.6708 405.339 69.5135C400.741 77.8852 403.075 93.3247 412.338 98.8143C413.23 99.3632 414.26 99.1574 415.014 98.4025C415.838 97.5791 416.25 96.1381 415.495 95.1088C414.946 94.2853 414.328 93.5305 413.711 92.8443L413.642 92.7757C412.27 90.9916 410.897 89.3447 410.005 87.2861C408.633 84.1296 408.015 80.8358 408.152 77.6107C408.221 76.2383 408.633 71.5035 410.829 69.9939C411.515 69.5135 412.27 69.3763 413.23 69.5821C417.279 70.4742 417.073 75.2776 416.936 78.8458C416.936 79.3262 416.867 79.8065 416.867 80.2182C416.867 81.3848 417.347 82.0024 417.759 82.2768C418.24 82.5513 418.857 82.6199 419.475 82.4827C419.818 82.8258 420.298 83.0317 420.847 82.963C421.602 82.8944 422.631 82.4141 422.974 81.3848C423.523 79.6693 425.788 77.6107 428.67 76.1697C431.209 74.8659 433.748 74.4542 435.326 74.9345C436.218 75.209 436.767 75.7579 436.973 76.5128C437.865 80.081 431.758 87.6292 429.493 89.825C425.856 93.3933 421.396 96.8243 415.357 100.598C414.809 100.941 414.191 101.353 413.573 101.765L413.436 101.834C408.633 104.853 402.114 109.039 396.624 108.421C394.977 108.215 393.536 109.725 393.262 111.234C393.056 112.47 393.742 113.362 394.909 113.636C395.664 113.773 396.487 113.842 397.242 113.842C397.791 113.842 398.408 113.773 398.957 113.705C401.977 113.293 404.721 111.989 407.398 110.686C412.132 108.352 416.73 105.745 420.984 102.863C428.052 98.0594 435.806 92.0895 439.855 83.9237C441.776 80.2182 443.011 75.0031 440.884 71.9152Z" fill="#D03360"/>
</svg>
