<svg width="182" height="178" viewBox="0 0 182 178" fill="none" xmlns="http://www.w3.org/2000/svg">
<path d="M81.465 144.068C81.5992 143.625 81.5913 143.15 81.4423 142.712C81.2933 142.273 81.0107 141.891 80.6341 141.621C80.2575 141.351 79.8058 141.206 79.3423 141.205C78.8789 141.205 78.4269 141.349 78.0498 141.619L70.6106 146.696C70.5732 146.72 70.5297 146.732 70.4854 146.732C70.441 146.732 70.3977 146.718 70.3606 146.694L62.8662 141.788C62.4865 141.538 62.0389 141.409 61.5841 141.422C61.1292 141.434 60.689 141.585 60.3231 141.856C59.9572 142.126 59.6833 142.503 59.5384 142.934C59.3935 143.365 59.3847 143.831 59.5131 144.267L62.0317 152.889C62.0442 152.931 62.044 152.977 62.0313 153.019C62.0186 153.062 61.9938 153.1 61.9601 153.128L54.9252 158.752C54.557 159.034 54.2863 159.423 54.1508 159.866C54.0154 160.31 54.022 160.784 54.1698 161.223C54.3177 161.663 54.5993 162.045 54.9751 162.316C55.351 162.587 55.8023 162.734 56.2658 162.735L65.2421 163.001C65.2871 163.003 65.3306 163.017 65.3674 163.043C65.4042 163.069 65.4326 163.105 65.4491 163.147L68.6136 171.515C68.7729 171.942 69.0601 172.31 69.436 172.568C69.812 172.827 70.2584 172.963 70.7145 172.959C71.1707 172.955 71.6144 172.81 71.9854 172.544C72.3564 172.279 72.6366 171.906 72.7879 171.475L75.8143 163.02C75.8287 162.978 75.8557 162.941 75.8916 162.914C75.9275 162.888 75.9707 162.873 76.0153 162.871L84.9864 162.457C85.4432 162.449 85.8862 162.298 86.2536 162.027C86.6211 161.755 86.8948 161.376 87.0368 160.941C87.1763 160.508 87.1781 160.043 87.0421 159.609C86.9061 159.175 86.639 158.794 86.2775 158.518L79.1712 153.027C79.135 153 79.108 152.962 79.094 152.919C79.08 152.876 79.0796 152.83 79.0928 152.786L81.465 144.068Z" fill="#FFE1A6"/>
<path d="M174.588 27.4593C175.045 27.382 175.466 27.1636 175.792 26.8348C176.119 26.5059 176.335 26.0831 176.409 25.6256C176.483 25.1682 176.412 24.6989 176.206 24.2838C176 23.8686 175.669 23.5283 175.26 23.3106L167.402 18.9102C167.364 18.8873 167.333 18.854 167.314 18.8141C167.294 18.7743 167.287 18.7296 167.292 18.6856L168.348 9.79076C168.403 9.33912 168.318 8.88135 168.105 8.47942C167.892 8.0775 167.56 7.75083 167.155 7.54366C166.75 7.33649 166.291 7.25881 165.84 7.32115C165.389 7.38349 164.969 7.58283 164.635 7.89218L158.037 13.9863C158.004 14.0164 157.964 14.0364 157.92 14.044C157.876 14.0515 157.831 14.0463 157.79 14.0288L149.623 10.2339C149.207 10.0297 148.737 9.96073 148.28 10.0368C147.823 10.1129 147.401 10.3301 147.073 10.6581C146.746 10.986 146.529 11.4082 146.454 11.8655C146.378 12.3228 146.448 12.7922 146.653 13.2079L150.412 21.3637C150.431 21.4045 150.437 21.45 150.43 21.4945C150.423 21.5389 150.404 21.5804 150.374 21.6138L144.29 28.1733C143.978 28.5063 143.777 28.9273 143.713 29.3789C143.649 29.8306 143.725 30.291 143.932 30.6975C144.139 31.104 144.467 31.437 144.869 31.6509C145.272 31.8649 145.731 31.9496 146.184 31.8935L155.102 30.8383C155.147 30.8324 155.192 30.8402 155.231 30.8605C155.271 30.8809 155.304 30.9128 155.325 30.9521L159.69 38.8003C159.901 39.2057 160.233 39.5353 160.64 39.7433C161.047 39.9514 161.509 40.0276 161.961 39.9613C162.41 39.8934 162.828 39.6878 163.156 39.3728C163.484 39.0578 163.706 38.6489 163.792 38.2024L165.545 29.3944C165.553 29.3499 165.575 29.3089 165.607 29.2772C165.639 29.2455 165.681 29.2245 165.725 29.2171L174.588 27.4593Z" fill="#FFE1A6"/>
<path d="M36.5876 45.4593C37.0445 45.382 37.4658 45.1636 37.7924 44.8348C38.119 44.5059 38.3345 44.0831 38.4087 43.6256C38.4829 43.1682 38.412 42.6989 38.206 42.2838C38.0001 41.8686 37.6693 41.5283 37.2602 41.3106L29.4019 36.9102C29.3639 36.8873 29.3333 36.854 29.3139 36.8141C29.2944 36.7743 29.2868 36.7296 29.2922 36.6856L30.3477 27.7908C30.4031 27.3391 30.3185 26.8813 30.1051 26.4794C29.8918 26.0775 29.5601 25.7508 29.155 25.5437C28.7498 25.3365 28.2908 25.2588 27.8401 25.3211C27.3893 25.3835 26.9686 25.5828 26.6349 25.8922L20.0368 31.9863C20.0042 32.0164 19.9636 32.0364 19.9199 32.044C19.8761 32.0515 19.8312 32.0463 19.7904 32.0288L11.6225 28.2339C11.2065 28.0297 10.737 27.9607 10.2798 28.0368C9.82265 28.1129 9.40074 28.3301 9.07327 28.6581C8.74579 28.986 8.52917 29.4082 8.45377 29.8655C8.37836 30.3228 8.44796 30.7922 8.65281 31.2079L12.4117 39.3637C12.4305 39.4045 12.4369 39.45 12.4302 39.4945C12.4234 39.5389 12.4038 39.5804 12.3737 39.6138L6.29007 46.1733C5.97834 46.5063 5.77676 46.9273 5.71277 47.3789C5.64878 47.8306 5.72547 48.291 5.93242 48.6975C6.13938 49.104 6.46653 49.437 6.86939 49.6509C7.27225 49.8649 7.73125 49.9496 8.18395 49.8935L17.1024 48.8383C17.1466 48.8324 17.1916 48.8402 17.2314 48.8605C17.2712 48.8809 17.3038 48.9128 17.325 48.9521L21.6904 56.8003C21.9014 57.2057 22.2334 57.5353 22.6402 57.7433C23.0471 57.9514 23.5087 58.0276 23.9608 57.9613C24.4105 57.8934 24.828 57.6878 25.156 57.3728C25.4841 57.0578 25.7064 56.6489 25.7925 56.2024L27.5449 47.3944C27.5531 47.3499 27.5748 47.3089 27.6071 47.2772C27.6394 47.2455 27.6807 47.2245 27.7254 47.2171L36.5876 45.4593Z" fill="#FFE1A6"/>
</svg>
