<svg width="173" height="99" viewBox="0 0 173 99" fill="none" xmlns="http://www.w3.org/2000/svg">
<path d="M68.4404 60.4996C71.0257 61.297 76.1039 63.6883 76.1039 63.6883C77.4169 64.1067 78.3281 65.6517 77.7149 67.0311C76.1518 70.5488 74.5551 73.934 70.267 74.5339C70.2639 74.5343 20.6268 81.4779 20.6268 81.4779L6.88641 78.151C5.96356 77.8501 5.77041 76.63 6.55507 76.0587L18.4229 69.9946C18.4229 69.9946 63.3222 60.2023 63.3284 60.2009C65.1795 59.7974 66.8461 60.0079 68.4404 60.4996Z" fill="#FDF6EC"/>
<path d="M77.716 67.0324C76.1519 70.5497 74.5554 73.9357 70.2677 74.5347C70.2646 74.5347 20.628 81.4781 20.628 81.4781L6.88635 78.1523C5.96458 77.8512 5.77158 76.6315 6.55594 76.0602L7.87297 75.387L20.9955 78.5646C20.9955 78.5646 68.4952 71.9192 68.4983 71.9192C72.6022 71.3448 74.1308 68.1055 75.6269 64.7396C75.8029 64.3443 75.8477 63.9336 75.7906 63.543C75.9913 63.6372 76.104 63.6896 76.104 63.6896C77.418 64.1081 78.3289 65.6521 77.716 67.0324Z" fill="#FAE2C0"/>
<path d="M55.628 72.375L42.9283 75.0887L28.7979 90.5819H36.4505L55.628 72.375Z" fill="#FDDEB0"/>
<path d="M55.6275 72.375L36.451 90.5819H28.7974L31.643 87.4615H34.0166C34.5715 87.4615 35.1051 87.2485 35.5074 86.8664L49.3604 73.7137L55.6275 72.375Z" fill="#FCCD7F"/>
<path d="M17.0396 78.6106L6.06543 88.8431H12.2515L25.3094 77.6855L17.0396 78.6106Z" fill="#FDDEB0"/>
<path d="M25.3098 77.6855L12.2522 88.8441H6.06689L9.44672 85.6927H11.795C12.3095 85.6927 12.8065 85.5053 13.1928 85.1655L21.1703 78.1487L25.3098 77.6855Z" fill="#FCCD7F"/>
<path d="M49.6519 63.1855L39.0894 54.1602H31.6348L41.4376 64.977L49.6519 63.1855Z" fill="#FDDEB0"/>
<path d="M49.6517 63.1847L45.9137 63.9999L37.4124 56.7369H33.9708L31.6348 54.1602H39.0892L49.6517 63.1847Z" fill="#FCCD7F"/>
<path d="M9.53872 74.5343L1.15771 57.5195L7.96924 59.6146L18.4235 69.9945L9.53872 74.5343Z" fill="#FDDEB0"/>
<path d="M18.4237 69.9951L15.9086 71.2795L7.28375 62.7165L3.08252 61.4243L1.15869 57.5195L7.96929 59.6147L18.4237 69.9951Z" fill="#FCCD7F"/>
<path d="M54.6883 66.4574L53.7776 66.6272C53.1489 66.7444 52.7342 67.3492 52.8514 67.9778C52.9553 68.5349 53.4416 68.9238 53.9885 68.9238C54.0589 68.9238 55.1127 68.7342 55.1127 68.7342C55.7414 68.617 56.1561 68.0122 56.0389 67.3836C55.9216 66.7549 55.3174 66.3399 54.6883 66.4574Z" fill="#432513"/>
<path d="M42.4386 68.7406L40.5489 69.0929C39.9202 69.2103 39.5057 69.8149 39.6228 70.4436C39.7268 71.0006 40.2131 71.3895 40.76 71.3895C40.8304 71.3895 42.8634 71.0174 42.8634 71.0174C43.4921 70.9 43.9067 70.2954 43.7895 69.6667C43.6723 69.038 43.0674 68.6231 42.4386 68.7406Z" fill="#432513"/>
<path d="M49.0529 67.5064L47.1632 67.8587C46.5345 67.976 46.1199 68.5807 46.2371 69.2094C46.341 69.7663 46.8274 70.1553 47.3743 70.1553C47.4447 70.1553 49.4777 69.7831 49.4777 69.7831C50.1064 69.6658 50.5209 69.0612 50.4038 68.4325C50.2864 67.8036 49.6819 67.3884 49.0529 67.5064Z" fill="#432513"/>
<path d="M78.7505 64.6523C78.3235 63.7013 77.4995 62.9437 76.5354 62.6108C75.9147 62.3198 71.289 60.1654 68.7825 59.3925C66.7529 58.7665 64.9418 58.6634 63.084 59.0689C63.0814 59.0693 57.4676 60.2937 49.9674 61.9294L39.842 53.2776C39.6323 53.0985 39.3655 53 39.0897 53H31.6351C31.1772 53 30.7622 53.2699 30.5766 53.6888C30.391 54.1075 30.4696 54.5962 30.7771 54.9356L39.2363 64.2697C31.7412 65.9043 24.0572 67.5802 18.7926 68.7283L8.78544 58.7928C8.65235 58.6608 8.4893 58.5629 8.31004 58.5076L1.49852 56.4124C1.05662 56.2768 0.576439 56.4163 0.276594 56.7683C-0.0230973 57.12 -0.0850118 57.6164 0.119105 58.0311L7.99599 74.0222L6.02893 75.0274C5.97505 75.055 5.92332 75.0867 5.87438 75.1223C5.15781 75.6437 4.79882 76.5115 4.93732 77.3869C5.07582 78.2624 5.68539 78.9769 6.52811 79.2518C6.55667 79.261 6.58554 79.2692 6.61473 79.2762L12.9762 80.8163L5.27669 87.9956C4.92883 88.3202 4.81457 88.8243 4.98905 89.2669C5.16336 89.7094 5.59074 90.0005 6.06645 90.0005H12.2523C12.5281 90.0005 12.7949 89.902 13.0046 89.7229L15.225 87.8258C15.7112 87.4104 15.7687 86.6793 15.3533 86.1931C14.9378 85.7068 14.2069 85.6495 13.7207 86.065L11.8251 87.6845H9.00623L17.5497 79.7182L21.6899 79.2552L17.7722 82.6027C17.2859 83.018 17.2285 83.7491 17.644 84.2353C18.0595 84.7215 18.7904 84.7788 19.2766 84.3635L21.4148 82.5365C27.0671 81.7458 32.0672 81.0464 36.4909 80.4275L27.9424 89.8005C27.6332 90.1393 27.5533 90.6287 27.7385 91.0484C27.9238 91.4681 28.3393 91.7389 28.7979 91.7389H36.4506C36.7473 91.7389 37.0327 91.6251 37.2479 91.4207L50.9588 78.4036C70.2766 75.7013 70.4276 75.6802 70.4279 75.6802C75.4515 74.9775 77.2936 70.832 78.7737 67.5008C79.1769 66.5946 79.1685 65.583 78.7505 64.6523ZM34.2474 55.3163H38.6624L47.1271 62.549C46.4926 62.6874 41.8459 63.7007 41.8459 63.7007L34.2474 55.3163ZM3.38282 59.4152L7.35631 60.6374L16.4741 69.6902L10.0588 72.9681L3.38282 59.4152ZM35.9886 89.423H31.4215L43.5337 76.1428L51.8483 74.3659L35.9886 89.423ZM76.6575 66.5605C74.966 70.3671 73.5964 72.8986 70.1071 73.3867C70.0802 73.3904 62.8129 74.4071 53.8479 75.6612L56.4255 73.2141C56.8016 72.857 56.8944 72.2932 56.6526 71.8344C56.4108 71.3755 55.8939 71.1332 55.3861 71.2418L42.6863 73.9555C42.4501 74.0059 42.2356 74.1291 42.0728 74.3076L38.9357 77.7471C33.2882 78.5372 28.1139 79.261 24.6876 79.7403L26.0624 78.5656C26.449 78.235 26.5748 77.6911 26.3726 77.2243C26.1701 76.7577 25.687 76.4767 25.1815 76.5343L16.9115 77.4592C16.6642 77.4868 16.4324 77.5933 16.2505 77.763L15.0048 78.9244L7.23094 77.0423C7.22723 77.037 7.22461 77.0262 7.22414 77.0173L18.8171 71.0937C21.6149 70.4835 63.5153 61.3452 63.5761 61.3319C65.0295 61.0148 66.4669 61.102 68.0999 61.6055C69.2024 61.9455 70.8014 62.5981 72.2412 63.2201L59.3023 65.5972C58.6733 65.7129 58.257 66.3164 58.3726 66.9454C58.4752 67.5036 58.9621 67.8944 59.5103 67.8944C59.5798 67.8944 75.9763 64.8888 75.9763 64.8888C76.2587 65.0418 76.5019 65.2984 76.6379 65.6009C76.7401 65.829 76.8266 66.1802 76.6575 66.5605Z" fill="#432513"/>
<path d="M35.8244 69.973L33.9347 70.3254C33.306 70.4427 32.8914 71.0473 33.0086 71.6761C33.1125 72.233 33.5989 72.6219 34.1457 72.6219C34.2162 72.6219 36.249 72.2498 36.249 72.2498C36.8777 72.1325 37.2923 71.5278 37.1751 70.8991C37.0579 70.2704 36.4537 69.8555 35.8244 69.973Z" fill="#432513"/>
<path d="M29.2106 71.2075L27.3209 71.5599C26.6922 71.6772 26.2776 72.2818 26.3948 72.9106C26.4987 73.4675 26.9851 73.8564 27.532 73.8564C27.6024 73.8564 29.6354 73.4843 29.6354 73.4843C30.2641 73.367 30.6787 72.7623 30.5615 72.1336C30.4443 71.5049 29.8395 71.0896 29.2106 71.2075Z" fill="#432513"/>
<path d="M22.5967 72.4396L21.686 72.6096C21.0573 72.727 20.6428 73.3317 20.7601 73.9605C20.864 74.5172 21.3504 74.9062 21.8971 74.9062C21.9675 74.9062 23.0214 74.7164 23.0214 74.7164C23.6502 74.5991 24.0647 73.9943 23.9474 73.3656C23.83 72.737 23.2248 72.3229 22.5967 72.4396Z" fill="#432513"/>
<path d="M142.929 91.4443C144.71 91.4443 146.307 92.1814 147.394 93.3467C148.951 89.6315 152.81 87 157.328 87C163.222 87 168 91.477 168 97H137C137 93.9316 139.655 91.4443 142.929 91.4443Z" fill="#D3E1F5"/>
<path d="M142.754 92C143.941 92 145.05 92.3096 146 92.8516C145.158 93.778 144.476 94.8388 143.999 96C142.834 94.7321 141.125 93.9295 139.219 93.9295C138.802 93.9295 138.394 93.968 138 94.0427C139.16 92.7897 140.861 92 142.754 92Z" fill="#C0D6F2"/>
<path d="M168 97H164.437C163.519 92.3224 159.041 88.772 153.652 88.772C152.371 88.772 151.143 88.972 150 89.3426C151.903 87.8802 154.361 87 157.043 87C163.094 86.9998 168 91.4774 168 97Z" fill="#C0D6F2"/>
<path d="M133.579 99H171.422C172.294 99 173 98.2878 173 97.4093C173 96.5306 172.294 95.8187 171.422 95.8187H169.574C169.325 93.8542 168.617 91.985 167.485 90.3422C166.988 89.6205 166.005 89.4414 165.288 89.9421C164.571 90.443 164.393 91.4343 164.891 92.1558C165.653 93.2624 166.158 94.5072 166.383 95.8187H138.776C139.411 94.1652 141.007 92.9895 142.869 92.9895C144.134 92.9895 145.339 93.5415 146.173 94.5038C146.536 94.922 147.089 95.119 147.632 95.0244C148.176 94.9294 148.63 94.5558 148.832 94.0388C150.219 90.4803 153.566 88.1813 157.359 88.1813C158.172 88.1813 158.979 88.2887 159.755 88.5002C160.597 88.7295 161.464 88.2276 161.691 87.3796C161.919 86.5317 161.421 85.6581 160.579 85.429C159.534 85.1445 158.45 85 157.359 85C152.982 85 149.046 87.2772 146.839 90.947C145.658 90.2102 144.286 89.8084 142.869 89.8084C139.251 89.8084 136.22 92.389 135.492 95.8191H133.579C132.707 95.8191 132 96.5313 132 97.4098C132 98.2878 132.707 99 133.579 99Z" fill="#432513"/>
<path d="M107.091 4.65573C105.777 4.65573 104.599 5.23612 103.797 6.15372C102.648 3.2283 99.8002 1.15625 96.4672 1.15625C92.1185 1.15625 88.5931 4.68152 88.5931 9.03036H111.465C111.465 6.6143 109.507 4.65573 107.091 4.65573Z" fill="#D3E1F5"/>
<path d="M107.092 4.65625C106.274 4.65625 105.51 4.88013 104.855 5.27215C105.436 5.9421 105.905 6.70931 106.234 7.54909C107.036 6.63211 108.214 6.05172 109.528 6.05172C109.815 6.05172 110.096 6.07951 110.368 6.13355C109.568 5.22738 108.396 4.65625 107.092 4.65625Z" fill="#C0D6F2"/>
<path d="M88.5935 9.03036H91.1544C91.8135 5.34714 95.0321 2.55157 98.9051 2.55157C99.8252 2.55157 100.708 2.70905 101.529 3.00087C100.162 1.84935 98.3956 1.15625 96.4676 1.15625C92.1192 1.1561 88.5935 4.68183 88.5935 9.03036Z" fill="#C0D6F2"/>
<path d="M113.903 10.1893H86.1567C85.5173 10.1893 84.999 9.67102 84.999 9.03165C84.999 8.39212 85.5173 7.87395 86.1567 7.87395H87.5111C87.6937 6.44421 88.2133 5.08378 89.0429 3.88811C89.4073 3.36284 90.1285 3.23252 90.6542 3.59691C91.1795 3.96145 91.3099 4.68296 90.9452 5.20808C90.3865 6.01343 90.0162 6.91945 89.8507 7.87395H110.093C109.627 6.67056 108.457 5.81487 107.092 5.81487C106.164 5.81487 105.281 6.21662 104.669 6.91698C104.403 7.2213 103.997 7.36474 103.599 7.29588C103.201 7.22671 102.868 6.95481 102.72 6.57853C101.703 3.98862 99.2486 2.31539 96.4678 2.31539C95.8714 2.31539 95.2802 2.39351 94.7108 2.54745C94.0935 2.71436 93.4578 2.34905 93.291 1.73191C93.1241 1.11477 93.4893 0.47895 94.1066 0.312197C94.8729 0.105147 95.6674 0 96.468 0C99.6772 0 102.563 1.65733 104.181 4.3283C105.047 3.79207 106.053 3.49964 107.092 3.49964C109.745 3.49964 111.967 5.37776 112.501 7.87426H113.903C114.543 7.87426 115.061 8.39258 115.061 9.03195C115.061 9.67102 114.543 10.1893 113.903 10.1893Z" fill="#432513"/>
</svg>
