<svg width="65" height="64" viewBox="0 0 65 64" fill="none" xmlns="http://www.w3.org/2000/svg">
<path d="M60.5716 32C62.6924 32 64.4354 33.7254 64.1815 35.8309C63.5819 40.8032 61.8209 45.5843 59.0187 49.7782C55.5024 55.0406 50.5047 59.1421 44.6575 61.5641C38.8103 63.9861 32.3761 64.6199 26.1687 63.3851C19.9613 62.1504 14.2595 59.1027 9.7842 54.6274C5.30892 50.1521 2.26122 44.4503 1.02649 38.2429C-0.208235 32.0355 0.425472 25.6014 2.84748 19.7541C5.26948 13.9069 9.371 8.90918 14.6334 5.39297C18.8273 2.59068 23.6084 0.829682 28.5807 0.230113C30.6862 -0.0237752 32.4116 1.71923 32.4116 3.84C32.4116 5.96077 30.6819 7.64904 28.5875 7.98253C25.1371 8.53192 21.8301 9.82094 18.9002 11.7787C14.9008 14.451 11.7836 18.2492 9.94287 22.6931C8.10215 27.137 7.62053 32.027 8.55892 36.7446C9.49732 41.4622 11.8136 45.7956 15.2148 49.1968C18.616 52.598 22.9494 54.9143 27.667 55.8527C32.3846 56.7911 37.2746 56.3095 41.7185 54.4688C46.1624 52.628 49.9606 49.5109 52.633 45.5115C54.5907 42.5815 55.8797 39.2745 56.4291 35.8242C56.7626 33.7298 58.4508 32 60.5716 32Z" fill="#06974F"/>
</svg>
