<svg width="137" height="76" viewBox="0 0 137 76" fill="none" xmlns="http://www.w3.org/2000/svg">
<path d="M19.5632 41.1052L0.473917 23.2871L16.6998 35.3263L19.5632 41.1052Z" fill="#547563"/>
<path d="M20.5178 33.4001L0.474056 23.2871L29.108 29.5475L20.5178 33.4001Z" fill="#4AC281"/>
<path d="M20.5177 33.4001L19.5632 41.1052L16.6998 35.3263L0.473917 23.2871L20.5177 33.4001Z" fill="#097C3E"/>
<path d="M16.7 35.3263L5.24636 42.5499L0.474033 23.2871L16.7 35.3263Z" fill="#4AC281"/>
<path d="M5.52723e-05 23.2802C0.000114402 23.2623 0.00136753 23.2444 0.00387188 23.2267C0.00625988 23.2079 0.011507 23.1901 0.0158024 23.1713L0.0186653 23.1583C0.0215301 23.1478 0.0186672 23.1372 0.0239162 23.1266L0.0267811 23.1208C0.0353107 23.1019 0.0448551 23.0836 0.0554123 23.0659C0.0606632 23.0563 0.06114 23.0452 0.0668678 23.0355C0.0725937 23.0259 0.0783195 23.0245 0.0826149 23.0177C0.0900116 23.0049 0.0981254 22.9925 0.106955 22.9806C0.116499 22.9691 0.128908 22.9609 0.139406 22.9503C0.149906 22.9397 0.155155 22.9354 0.163269 22.9282C0.171381 22.9209 0.184744 22.9055 0.197151 22.8964C0.201447 22.8935 0.203833 22.8891 0.208128 22.8863C0.212423 22.8834 0.221491 22.881 0.227694 22.8771C0.265932 22.8591 0.304291 22.8413 0.342709 22.8237C0.35273 22.8212 0.363228 22.8237 0.373251 22.8198C0.392937 22.816 0.412861 22.8134 0.432905 22.8121C0.454559 22.8093 0.476452 22.8082 0.498285 22.8087C0.512722 22.8102 0.527039 22.8125 0.541237 22.8155C0.551735 22.8155 0.562235 22.8155 0.572733 22.8155L29.2067 29.0759C29.4644 29.1319 29.6282 29.3881 29.5727 29.6481C29.5405 29.7987 29.4389 29.9246 29.2993 29.987L20.9553 33.7288L20.0343 41.1642C20.0343 41.1729 20.0286 41.1801 20.0271 41.1888C20.0222 41.2125 20.0155 41.2358 20.0071 41.2586C19.9982 41.2862 19.987 41.3129 19.9737 41.3385C19.9623 41.358 19.9495 41.3767 19.9355 41.3944C19.9167 41.419 19.8958 41.4419 19.873 41.4628C19.8644 41.47 19.8591 41.4806 19.8501 41.4873C19.841 41.4941 19.8286 41.4979 19.8186 41.5047C19.7956 41.5194 19.7715 41.5321 19.7465 41.5427C19.7237 41.5528 19.7 41.561 19.6759 41.5673C19.664 41.5702 19.6539 41.5769 19.6415 41.5793C19.6156 41.5836 19.5895 41.5859 19.5633 41.5861C19.5112 41.5851 19.4596 41.5757 19.4105 41.5581C19.3967 41.5533 19.3838 41.5461 19.37 41.5398C19.3334 41.5235 19.2991 41.5025 19.2679 41.4772C19.2607 41.471 19.2511 41.469 19.244 41.4623L14.5824 37.2288L5.49921 42.9595C5.27586 43.1007 4.98135 43.0326 4.8414 42.8072C4.81515 42.7649 4.79559 42.7189 4.78336 42.6706L0.0110301 23.4078C0.0107917 23.4032 0.0107917 23.3985 0.0110301 23.3938C0.00769038 23.3779 0.00864596 23.3616 0.00673671 23.3457C0.00285907 23.3241 0.000591235 23.3022 5.52723e-05 23.2802ZM16.9957 34.95C17.0029 34.9558 17.0082 34.9626 17.0153 34.9688C17.0586 35.0068 17.0947 35.0526 17.1217 35.1037C17.1217 35.1066 17.1256 35.108 17.127 35.1104L19.285 39.4672L20.0009 33.6782L5.25964 26.2394L16.9824 34.9375C16.9862 34.9404 16.991 34.9462 16.9957 34.95ZM4.08087 24.5679L20.5297 32.8668L27.5808 29.7053L4.08087 24.5679ZM18.0094 39.0453L16.509 36.0148L15.4257 36.6981L18.0094 39.0453ZM5.55027 41.7902L14.3791 36.2209L15.8504 35.2934L3.50247 26.1311L1.25947 24.4658L5.55027 41.7902Z" fill="#4A2E19"/>
<path d="M48.6 61.6681L48.9489 62.6052L48.6 61.6681ZM101.022 47.4699L100.891 48.4613L101.022 47.4699ZM21.8678 50.5027C22.058 51.0212 22.6325 51.2874 23.151 51.0972C23.6695 50.9071 23.9357 50.3326 23.7456 49.8141L21.8678 50.5027ZM28.5417 56.6175C28.1296 56.2497 27.4975 56.2856 27.1297 56.6976C26.7619 57.1096 26.7978 57.7418 27.2098 58.1095L28.5417 56.6175ZM35.1979 62.7505C35.7216 62.9259 36.2884 62.6436 36.4638 62.1199C36.6392 61.5963 36.3569 61.0295 35.8332 60.8541L35.1979 62.7505ZM44.1649 61.7322C43.6168 61.8 43.2274 62.2993 43.2952 62.8474C43.3631 63.3955 43.8623 63.7849 44.4105 63.7171L44.1649 61.7322ZM52.1975 61.199C52.6902 60.9494 52.8872 60.3477 52.6376 59.855C52.3881 59.3623 51.7863 59.1653 51.2937 59.4148L52.1975 61.199ZM56.1031 55.514C55.816 55.9858 55.9658 56.601 56.4377 56.888C56.9095 57.1751 57.5247 57.0253 57.8117 56.5534L56.1031 55.514ZM57.3768 49.0543C57.0578 48.6034 56.4337 48.4965 55.9829 48.8155C55.532 49.1345 55.4251 49.7585 55.7441 50.2094L57.3768 49.0543ZM50.8504 46.8684C51.3944 46.9635 51.9125 46.5996 52.0077 46.0556C52.1028 45.5116 51.739 44.9934 51.1949 44.8983L50.8504 46.8684ZM50.1117 52.2491C50.5852 52.5333 51.1995 52.3798 51.4837 51.9063C51.7679 51.4328 51.6144 50.8185 51.1409 50.5343L50.1117 52.2491ZM59.6211 51.2576C59.0718 51.3147 58.6728 51.8064 58.7299 52.3557C58.787 52.905 59.2786 53.304 59.828 53.2469L59.6211 51.2576ZM69.0621 51.7957C69.605 51.6942 69.9628 51.1718 69.8612 50.629C69.7597 50.0861 69.2374 49.7283 68.6945 49.8298L69.0621 51.7957ZM77.8128 48.1116C77.2693 48.2095 76.908 48.7295 77.0058 49.273C77.1037 49.8166 77.6236 50.1779 78.1672 50.08L77.8128 48.1116ZM87.272 48.6807C87.8205 48.616 88.2127 48.1189 88.148 47.5705C88.0833 47.022 87.5862 46.6298 87.0377 46.6945L87.272 48.6807ZM96.4219 46.1453C95.8697 46.1362 95.4147 46.5765 95.4056 47.1287C95.3965 47.6809 95.8368 48.1359 96.389 48.145L96.4219 46.1453ZM104.212 49.0316C104.752 49.1474 105.283 48.8035 105.399 48.2635C105.515 47.7235 105.171 47.1919 104.631 47.0761L104.212 49.0316ZM111.386 49.2202C110.881 48.9985 110.291 49.2288 110.069 49.7347C109.847 50.2405 110.078 50.8303 110.584 51.052L111.386 49.2202ZM116.265 54.4416C116.698 54.7851 117.327 54.713 117.67 54.2805C118.014 53.848 117.942 53.219 117.509 52.8755L116.265 54.4416ZM122.427 58.0718C122.108 57.6212 121.484 57.5149 121.033 57.8343C120.582 58.1537 120.476 58.7779 120.796 59.2285L122.427 58.0718ZM123.886 65.0863C124.082 65.6026 124.659 65.8623 125.175 65.6664C125.692 65.4704 125.951 64.893 125.755 64.3766L123.886 65.0863ZM127.567 71.2244C127.477 70.6794 126.962 70.3105 126.418 70.4003C125.873 70.4901 125.504 71.0047 125.593 71.5496L127.567 71.2244ZM21 45.8086C21 47.3953 21.3085 48.9773 21.8678 50.5027L23.7456 49.8141C23.258 48.4844 23 47.1352 23 45.8086H21ZM27.2098 58.1095C29.4581 60.1166 32.1932 61.744 35.1979 62.7505L35.8332 60.8541C33.0934 59.9363 30.5937 58.4494 28.5417 56.6175L27.2098 58.1095ZM44.4105 63.7171C45.9199 63.5304 47.4399 63.1671 48.9489 62.6052L48.2511 60.7309C46.8903 61.2376 45.5223 61.5643 44.1649 61.7322L44.4105 63.7171ZM48.9489 62.6052C50.1585 62.1549 51.2381 61.685 52.1975 61.199L51.2937 59.4148C50.4095 59.8627 49.3997 60.3033 48.2511 60.7309L48.9489 62.6052ZM57.8117 56.5534C59.4746 53.8199 58.8267 51.1036 57.3768 49.0543L55.7441 50.2094C56.8684 51.7985 57.2423 53.6413 56.1031 55.514L57.8117 56.5534ZM51.1949 44.8983C50.3941 44.7582 49.5122 44.7785 48.7884 45.2018C47.9884 45.6697 47.6 46.496 47.6 47.4699H49.6C49.6 47.2462 49.6418 47.1214 49.6743 47.0578C49.7035 47.0008 49.7403 46.9621 49.7981 46.9283C49.9402 46.8452 50.2697 46.7668 50.8504 46.8684L51.1949 44.8983ZM47.6 47.4699C47.6 49.6649 48.4748 51.2667 50.1117 52.2491L51.1409 50.5343C50.1747 49.9544 49.6 49.0461 49.6 47.4699H47.6ZM59.828 53.2469C62.6046 52.9581 65.7422 52.4165 69.0621 51.7957L68.6945 49.8298C65.3795 50.4497 62.3106 50.9779 59.6211 51.2576L59.828 53.2469ZM78.1672 50.08C81.1886 49.536 84.2533 49.0368 87.272 48.6807L87.0377 46.6945C83.9625 47.0573 80.8537 47.5642 77.8128 48.1116L78.1672 50.08ZM96.389 48.145C97.9441 48.1707 99.4498 48.271 100.891 48.4613L101.153 46.4785C99.6238 46.2766 98.0408 46.172 96.4219 46.1453L96.389 48.145ZM100.891 48.4613C102.047 48.6138 103.153 48.8047 104.212 49.0316L104.631 47.0761C103.518 46.8375 102.359 46.6376 101.153 46.4785L100.891 48.4613ZM110.584 51.052C112.742 51.9979 114.626 53.1399 116.265 54.4416L117.509 52.8755C115.73 51.4625 113.697 50.2326 111.386 49.2202L110.584 51.052ZM120.796 59.2285C122.074 61.0315 123.093 62.9984 123.886 65.0863L125.755 64.3766C124.909 62.146 123.813 60.0262 122.427 58.0718L120.796 59.2285ZM125.593 71.5496C125.775 72.648 125.91 73.7636 126.003 74.8912L127.997 74.726C127.899 73.5482 127.757 72.3791 127.567 71.2244L125.593 71.5496Z" fill="#C4BBB5"/>
<path d="M104.58 8.37044C132.588 -4.99154 153.144 3.66019 153.144 22.7598C153.144 30.9827 166.249 41.2605 184.75 30.9824" stroke="#C4BBB5" stroke-width="2" stroke-dasharray="8 8"/>
<g clip-path="url(#clip0_406:9872)">
<path d="M89.1144 12.584L99.8343 8.32357L101.609 12.7902L89.1144 12.584Z" fill="#547563"/>
<path d="M89.1143 12.5843L98.1879 6.13355L93.8129 6.83789L89.1143 12.5843Z" fill="#4AC281"/>
<path d="M98.1877 6.13477L99.7854 10.1548L89.1142 12.5856L98.1877 6.13477Z" fill="#097C3E"/>
<path d="M89.1144 12.584L100.281 8.14605L103.399 10.786L89.1144 12.584Z" fill="#4AC281"/>
<path d="M103.544 10.6156L100.426 7.97573C100.363 7.92198 100.275 7.90755 100.198 7.93828L99.751 8.1158L99.2904 8.29887L98.3986 6.05509C98.3985 6.05491 98.3985 6.05472 98.3985 6.05472L98.3972 6.05159C98.3968 6.05054 98.3963 6.04963 98.3959 6.04858C98.3946 6.0455 98.3933 6.04246 98.3918 6.03943C98.3907 6.03698 98.3895 6.03449 98.3883 6.03208C98.3875 6.03045 98.3866 6.02888 98.3857 6.02724C98.3844 6.02488 98.383 6.02253 98.3816 6.02019C98.3802 6.01779 98.3788 6.01535 98.3773 6.01304C98.3761 6.01104 98.3747 6.00908 98.3733 6.00712C98.3726 6.00618 98.3721 6.00516 98.3714 6.00422C98.3707 6.00321 98.3699 6.00238 98.3692 6.00136C98.3677 5.99934 98.3663 5.99736 98.3648 5.99543C98.3631 5.99326 98.3613 5.99117 98.3595 5.98906C98.3579 5.98717 98.3562 5.98525 98.3546 5.98343C98.3533 5.98202 98.352 5.98056 98.3507 5.97918C98.3487 5.97712 98.3467 5.97515 98.3446 5.97318C98.3426 5.97119 98.3405 5.96922 98.3384 5.96731C98.3372 5.96629 98.3361 5.96526 98.3349 5.96427C98.3328 5.96247 98.3307 5.96075 98.3286 5.95903C98.3261 5.95707 98.3237 5.95514 98.3211 5.95327C98.32 5.95243 98.3188 5.95165 98.3177 5.95083C98.3156 5.94931 98.3134 5.9479 98.3112 5.94647C98.3085 5.9447 98.3058 5.94294 98.3031 5.94128C98.3017 5.9405 98.3004 5.93981 98.2991 5.93903C98.297 5.93783 98.2948 5.93664 98.2926 5.93551C98.2898 5.93408 98.2871 5.93258 98.2843 5.93126C98.2827 5.9305 98.2811 5.92981 98.2795 5.9291C98.2773 5.92808 98.275 5.92718 98.2727 5.92624C98.27 5.92516 98.2674 5.92404 98.2648 5.92305C98.2629 5.92236 98.261 5.92175 98.2591 5.92111C98.2567 5.92028 98.2542 5.91961 98.2517 5.91887C98.2493 5.91813 98.2469 5.9174 98.2444 5.91672C98.2423 5.91618 98.2403 5.91566 98.2382 5.91521C98.2356 5.9146 98.2329 5.91412 98.2302 5.91362C98.2278 5.91317 98.2255 5.91266 98.2232 5.91229C98.2211 5.91199 98.2191 5.91163 98.217 5.91139C98.2141 5.91101 98.2113 5.91079 98.2084 5.91055C98.206 5.9103 98.2036 5.91008 98.2011 5.90995C98.1992 5.90984 98.1973 5.90969 98.1954 5.90963C98.1925 5.90951 98.1897 5.90959 98.1868 5.90959C98.184 5.90961 98.1812 5.90966 98.1784 5.90976C98.1768 5.90985 98.1751 5.90983 98.1734 5.90995C98.1707 5.91013 98.168 5.91044 98.1653 5.91072C98.162 5.91104 98.1587 5.91147 98.1555 5.91193C98.1543 5.91209 98.1532 5.91212 98.152 5.9123L98.1491 5.91278C98.1488 5.91284 98.1485 5.91287 98.1482 5.91293L93.777 6.61663C93.7225 6.62533 93.6733 6.65379 93.6384 6.69646L88.9416 12.4408C88.9414 12.4411 88.9412 12.4414 88.9409 12.4417L88.9399 12.443C88.9392 12.4437 88.9387 12.4445 88.9381 12.4454C88.9375 12.4462 88.9367 12.4469 88.9361 12.4478C88.9348 12.4495 88.9336 12.4512 88.9323 12.453C88.9311 12.4546 88.9299 12.4562 88.9287 12.4578C88.9282 12.4586 88.9277 12.4594 88.9272 12.4602C88.9264 12.4613 88.9257 12.4625 88.9249 12.4637C88.9245 12.4644 88.924 12.465 88.9235 12.4657C88.9224 12.4675 88.9214 12.4693 88.9204 12.4711C88.9193 12.4729 88.9182 12.4747 88.9171 12.4765C88.9167 12.4772 88.9164 12.478 88.916 12.4787C88.9152 12.4801 88.9145 12.4816 88.9137 12.483C88.9134 12.4836 88.913 12.4843 88.9127 12.485C88.9119 12.4867 88.9111 12.4884 88.9103 12.4901C88.9094 12.4921 88.9083 12.4941 88.9075 12.4962C88.9072 12.4968 88.907 12.4975 88.9067 12.4982C88.906 12.4998 88.9053 12.5013 88.9047 12.5029C88.9044 12.5037 88.9041 12.5045 88.9038 12.5053C88.9032 12.5069 88.9027 12.5085 88.9021 12.51C88.9014 12.5122 88.9005 12.5143 88.8998 12.5165C88.8996 12.5172 88.8994 12.518 88.8992 12.5188C88.8987 12.5203 88.8982 12.5219 88.8977 12.5234C88.8975 12.5244 88.8972 12.5254 88.8969 12.5263C88.8965 12.5279 88.8962 12.5295 88.8958 12.5311C88.8953 12.5331 88.8947 12.5352 88.8942 12.5372C88.894 12.5382 88.8939 12.5392 88.8937 12.5402C88.8934 12.5417 88.893 12.5431 88.8927 12.5445C88.8925 12.5456 88.8923 12.5466 88.8922 12.5477C88.8919 12.5494 88.8918 12.5511 88.8915 12.5528C88.891 12.5559 88.8906 12.559 88.8902 12.5622C88.8901 12.5635 88.8899 12.5649 88.8898 12.5662C88.8897 12.5672 88.8896 12.5682 88.8895 12.5692C88.8894 12.5709 88.8895 12.5725 88.8894 12.5742C88.8892 12.5776 88.889 12.5809 88.889 12.5843C88.889 12.5857 88.889 12.5871 88.889 12.5884C88.889 12.5893 88.889 12.59 88.889 12.5909C88.8891 12.5927 88.8893 12.5945 88.8894 12.5964C88.8895 12.599 88.8895 12.6017 88.8898 12.6043C88.8898 12.6051 88.8899 12.6058 88.89 12.6066C88.8901 12.6077 88.8902 12.6088 88.8904 12.6099C88.8907 12.6129 88.8912 12.6159 88.8916 12.619C88.892 12.6213 88.8922 12.6237 88.8926 12.6261C88.8928 12.627 88.893 12.6279 88.8931 12.6287C88.8933 12.6295 88.8935 12.6304 88.8937 12.6312C88.894 12.6327 88.8943 12.6343 88.8946 12.6358C88.8951 12.6378 88.8957 12.6397 88.8962 12.6417C88.8967 12.6437 88.8971 12.6456 88.8976 12.6476C88.8979 12.6484 88.8981 12.6492 88.8983 12.6501C88.8986 12.6509 88.8989 12.6518 88.8992 12.6526C88.8997 12.6541 88.9 12.6556 88.9006 12.6571C88.9013 12.6594 88.9023 12.6616 88.9032 12.6639C88.904 12.6661 88.9047 12.6684 88.9056 12.6705C88.906 12.6716 88.9065 12.6726 88.907 12.6737C88.9075 12.675 88.908 12.6763 88.9086 12.6776C88.9096 12.68 88.9109 12.6823 88.9121 12.6847C88.9129 12.6865 88.9137 12.6883 88.9146 12.6901C88.9153 12.6915 88.9162 12.6928 88.917 12.6942C88.9175 12.6952 88.9179 12.6963 88.9186 12.6973C88.9199 12.6996 88.9214 12.7018 88.9228 12.7041C88.9238 12.7056 88.9246 12.7072 88.9255 12.7087C88.9257 12.709 88.9258 12.7092 88.926 12.7095C88.9269 12.7108 88.9279 12.7121 88.9288 12.7134C88.9308 12.7163 88.933 12.7192 88.9351 12.722C88.9354 12.7223 88.9356 12.7227 88.9358 12.723C88.9367 12.7241 88.9374 12.7252 88.9382 12.7263C88.9386 12.7268 88.939 12.7273 88.9393 12.7278C88.9399 12.7284 88.9405 12.729 88.941 12.7296C88.9414 12.7301 88.9418 12.7306 88.9422 12.731C88.9443 12.7335 88.9465 12.7359 88.9487 12.7383C88.9491 12.7387 88.9496 12.7393 88.9501 12.7398C88.9509 12.7407 88.9517 12.7417 88.9526 12.7426C88.9532 12.7432 88.9538 12.7439 88.9544 12.7446C88.9547 12.7448 88.955 12.7451 88.9553 12.7453C88.956 12.746 88.9567 12.7466 88.9574 12.7473C88.9596 12.7494 88.9618 12.7513 88.964 12.7533C88.9641 12.7534 88.9642 12.7535 88.9643 12.7536C88.9657 12.7549 88.9671 12.7563 88.9686 12.7576C88.9694 12.7583 88.9703 12.759 88.9712 12.7597C88.9714 12.7598 88.9715 12.76 88.9717 12.7601C88.9722 12.7605 88.9728 12.7608 88.9734 12.7613C88.9734 12.7613 88.9735 12.7614 88.9736 12.7615C88.9759 12.7633 88.9783 12.7651 88.9806 12.7668C88.9816 12.7675 88.9826 12.7684 88.9836 12.7691C88.9844 12.7697 88.9852 12.7703 88.986 12.7709C88.9861 12.7709 88.9862 12.7709 88.9863 12.771C88.9878 12.7721 88.9893 12.773 88.9908 12.774C88.9925 12.7751 88.9941 12.7762 88.9958 12.7772C88.9971 12.778 88.9985 12.7788 88.9998 12.7795C89.0015 12.7806 89.0032 12.7817 89.005 12.7826C89.0063 12.7834 89.0077 12.784 89.0091 12.7847C89.0112 12.7858 89.0133 12.787 89.0155 12.788C89.0167 12.7886 89.018 12.7892 89.0193 12.7898C89.0208 12.7905 89.0223 12.7913 89.0239 12.792C89.0244 12.7923 89.025 12.7925 89.0255 12.7927C89.0265 12.7931 89.0275 12.7934 89.0284 12.7938C89.0316 12.7951 89.0348 12.7963 89.038 12.7975C89.0404 12.7984 89.0427 12.7993 89.0451 12.8001C89.0463 12.8005 89.0476 12.8008 89.0488 12.8011C89.0494 12.8013 89.0501 12.8016 89.0508 12.8018C89.0512 12.8019 89.0515 12.8021 89.0519 12.8022C89.0523 12.8023 89.0526 12.8024 89.053 12.8025C89.0552 12.8031 89.0574 12.8035 89.0596 12.8041C89.0618 12.8046 89.0639 12.8053 89.066 12.8057C89.0674 12.8061 89.0688 12.8062 89.0702 12.8065C89.0732 12.8071 89.0762 12.8076 89.0792 12.8081C89.0808 12.8084 89.0825 12.8086 89.0842 12.8089C89.087 12.8092 89.0897 12.8096 89.0926 12.8098C89.0958 12.8101 89.0991 12.8103 89.1024 12.8105C89.1053 12.8107 89.1081 12.8109 89.111 12.811L89.111 12.811C89.1112 12.811 89.1114 12.811 89.1115 12.811L101.606 13.0172C101.636 13.0177 101.665 13.0121 101.693 13.0013C101.733 12.9851 101.769 12.9571 101.795 12.92C101.838 12.858 101.847 12.7787 101.819 12.7087L101.253 11.2848L103.427 11.0112C103.446 11.0087 103.465 11.0039 103.482 10.997C103.545 10.9719 103.595 10.9189 103.615 10.8518C103.64 10.766 103.613 10.6734 103.544 10.6156ZM90.7693 11.6854L98.0845 6.48474L98.8716 8.46531L90.7693 11.6854L90.7693 11.6854ZM93.9331 7.04801L97.2703 6.51075L90.3492 11.4312L93.9331 7.04801ZM92.2918 12.4127L100.791 11.3429L101.275 12.561L92.2918 12.4127ZM100.908 10.8741L90.8432 12.1409L99.2474 8.80084L99.9174 8.53457L100.238 8.40698L102.862 10.6281L100.908 10.8741Z" fill="#4A2E19"/>
</g>
<defs>
<clipPath id="clip0_406:9872">
<rect width="14.3894" height="14.3894" fill="white" transform="translate(86.3364 6.20508) rotate(-21.6744)"/>
</clipPath>
</defs>
</svg>
