<svg width="245" height="145" viewBox="0 0 245 145" fill="none" xmlns="http://www.w3.org/2000/svg">
<path d="M174.756 64.699L242.875 1.68945L184.974 44.2635L174.756 64.699Z" fill="#547563"/>
<path d="M171.35 37.4516L242.875 1.68944L140.697 23.8279L171.35 37.4516Z" fill="#4AC281"/>
<path d="M171.35 37.4516L174.756 64.699L184.974 44.2635L242.875 1.68945L171.35 37.4516Z" fill="#097C3E"/>
<path d="M184.974 44.2635L225.845 69.8079L242.875 1.68945L184.974 44.2635Z" fill="#4AC281"/>
<path d="M244.566 1.66767C244.566 1.60444 244.561 1.54122 244.552 1.47864C244.544 1.41222 244.525 1.34921 244.51 1.2828L244.499 1.23682C244.489 1.19935 244.499 1.16189 244.481 1.12442L244.47 1.10399C244.44 1.03736 244.406 0.972646 244.368 0.909849C244.349 0.87579 244.348 0.836621 244.327 0.802562C244.307 0.768503 244.286 0.763394 244.271 0.739553C244.245 0.694211 244.216 0.650361 244.184 0.608425C244.15 0.567554 244.106 0.538603 244.068 0.501138C244.031 0.463673 244.012 0.448347 243.983 0.422802C243.954 0.397258 243.907 0.342763 243.862 0.310407C243.847 0.300189 243.839 0.284863 243.823 0.274645C243.808 0.264427 243.776 0.255912 243.753 0.242289C243.617 0.17864 243.48 0.115631 243.343 0.0532599C243.307 0.0447451 243.27 0.0532593 243.234 0.0396356C243.164 0.0262248 243.093 0.0170717 243.021 0.0123886C242.944 0.0023837 242.866 -0.0014479 242.788 0.000467935C242.736 0.00578969 242.685 0.0136658 242.635 0.0243093C242.597 0.0243093 242.56 0.0243093 242.522 0.0243093L140.345 22.1628C139.425 22.361 138.84 23.267 139.039 24.1863C139.153 24.719 139.516 25.1643 140.014 25.3848L169.789 38.6168L173.075 64.9105C173.075 64.9412 173.096 64.9667 173.101 64.9974C173.119 65.0815 173.143 65.1638 173.173 65.2443C173.204 65.3418 173.244 65.4363 173.292 65.527C173.332 65.596 173.378 65.662 173.428 65.7245C173.495 65.8116 173.57 65.8925 173.651 65.9664C173.682 65.9919 173.7 66.0294 173.733 66.0532C173.765 66.0771 173.809 66.0907 173.845 66.1145C173.927 66.1665 174.013 66.2114 174.102 66.2491C174.184 66.2846 174.268 66.3136 174.354 66.3359C174.397 66.3461 174.433 66.37 174.477 66.3785C174.569 66.3936 174.663 66.4017 174.756 66.4023C174.942 66.3989 175.126 66.3655 175.301 66.3035C175.351 66.2865 175.397 66.261 175.446 66.2388C175.576 66.1809 175.699 66.1066 175.81 66.0175C175.836 65.9953 175.87 65.9885 175.896 65.9647L192.53 50.9939L224.943 71.2592C225.74 71.7586 226.79 71.5176 227.29 70.7206C227.384 70.5712 227.453 70.4083 227.497 70.2374L244.527 2.11895C244.527 2.10256 244.527 2.08596 244.527 2.06957C244.538 2.01337 244.535 1.95547 244.542 1.89927C244.556 1.82285 244.564 1.74536 244.566 1.66767ZM183.918 42.9355C183.893 42.956 183.874 42.9798 183.848 43.0019C183.694 43.1363 183.565 43.298 183.469 43.4788C183.469 43.489 183.455 43.4941 183.45 43.5026L175.749 58.9093L173.195 38.438L225.797 12.1324L183.966 42.8912C183.952 42.9015 183.935 42.9219 183.918 42.9355ZM230.004 6.22138L171.308 35.5685L146.147 24.3886L230.004 6.22138ZM180.301 57.4175L185.655 46.7008L189.521 49.1173L180.301 57.4175ZM224.76 67.1244L193.256 47.4296L188.005 44.1497L232.068 11.7492L240.072 5.86036L224.76 67.1244Z" fill="#4A2E19"/>
<path d="M165.5 87.5209C173.5 122.521 149.004 146.809 122 143.522C64.5 136.521 108.5 38.0186 1 63.0196" stroke="#C4BBB5" stroke-width="2" stroke-dasharray="8 8"/>
</svg>
