<svg width="99" height="148" viewBox="0 0 99 148" fill="none" xmlns="http://www.w3.org/2000/svg">
<path d="M23.0656 46.8929L8.36499 33.2949L20.8605 42.4828L23.0656 46.8929Z" fill="#547563"/>
<path d="M23.8004 41.0127L8.36481 33.2949L30.4156 38.0726L23.8004 41.0127Z" fill="#4AC281"/>
<path d="M23.8005 41.0127L23.0655 46.8929L20.8604 42.4828L8.36495 33.2949L23.8005 41.0127Z" fill="#097C3E"/>
<path d="M20.8604 42.4828L12.04 47.9955L8.36487 33.2949L20.8604 42.4828Z" fill="#4AC281"/>
<path d="M7.99996 33.2896C8 33.2759 8.00097 33.2623 8.0029 33.2488C8.00474 33.2345 8.00878 33.2209 8.01208 33.2065L8.01429 33.1966C8.0165 33.1885 8.01429 33.1804 8.01833 33.1723L8.02054 33.1679C8.02711 33.1536 8.03446 33.1396 8.04259 33.126C8.04663 33.1187 8.047 33.1102 8.05141 33.1029C8.05582 33.0955 8.06023 33.0944 8.06354 33.0893C8.06923 33.0795 8.07548 33.07 8.08228 33.061C8.08963 33.0522 8.09919 33.0459 8.10727 33.0378C8.11536 33.0298 8.1194 33.0264 8.12565 33.0209C8.1319 33.0154 8.14219 33.0037 8.15174 32.9967C8.15505 32.9945 8.15689 32.9912 8.16019 32.989C8.1635 32.9868 8.17048 32.9849 8.17526 32.982C8.20471 32.9682 8.23425 32.9546 8.26383 32.9412C8.27155 32.9393 8.27964 32.9412 8.28735 32.9382C8.30251 32.9353 8.31786 32.9334 8.33329 32.9324C8.34997 32.9302 8.36683 32.9294 8.38364 32.9298C8.39476 32.9309 8.40579 32.9326 8.41672 32.9349C8.4248 32.9349 8.43289 32.9349 8.44098 32.9349L30.4918 37.7126C30.6902 37.7554 30.8164 37.9509 30.7737 38.1493C30.7489 38.2643 30.6706 38.3604 30.5631 38.408L24.1375 41.2635L23.4282 46.938C23.4282 46.9446 23.4238 46.9501 23.4227 46.9567C23.4189 46.9748 23.4137 46.9926 23.4072 47.01C23.4004 47.031 23.3918 47.0514 23.3815 47.071C23.3727 47.0859 23.3629 47.1001 23.3521 47.1136C23.3377 47.1324 23.3215 47.1499 23.304 47.1658C23.2974 47.1713 23.2933 47.1794 23.2863 47.1846C23.2794 47.1897 23.2698 47.1926 23.2621 47.1978C23.2444 47.209 23.2258 47.2187 23.2066 47.2268C23.189 47.2345 23.1708 47.2407 23.1522 47.2456C23.143 47.2478 23.1353 47.2529 23.1257 47.2548C23.1058 47.258 23.0857 47.2598 23.0655 47.2599C23.0254 47.2592 22.9857 47.252 22.9479 47.2386C22.9372 47.2349 22.9273 47.2294 22.9166 47.2246C22.8885 47.2121 22.862 47.1961 22.838 47.1768C22.8325 47.1721 22.8251 47.1706 22.8196 47.1654L19.2297 43.9346L12.2348 48.308C12.0628 48.4158 11.836 48.3638 11.7282 48.1918C11.708 48.1596 11.693 48.1244 11.6836 48.0875L8.00841 33.387C8.00823 33.3834 8.00823 33.3799 8.00841 33.3763C8.00584 33.3642 8.00657 33.3517 8.0051 33.3396C8.00212 33.3231 8.00037 33.3064 7.99996 33.2896ZM21.0882 42.1956C21.0937 42.2 21.0978 42.2051 21.1033 42.2099C21.1367 42.2389 21.1644 42.2738 21.1853 42.3128C21.1853 42.315 21.1882 42.3161 21.1893 42.3179L22.8512 45.6428L23.4025 41.225L12.0503 35.548L21.0779 42.186C21.0809 42.1882 21.0846 42.1926 21.0882 42.1956ZM11.1426 34.2723L23.8097 40.6057L29.2397 38.193L11.1426 34.2723ZM21.8688 45.3209L20.7134 43.0081L19.8791 43.5296L21.8688 45.3209ZM12.2741 47.4157L19.0732 43.1654L20.2062 42.4576L10.6971 35.4653L8.96983 34.1944L12.2741 47.4157Z" fill="#4A2E19"/>
<path d="M57.6933 73.7111L58.0528 74.6443L57.6933 73.7111ZM124.095 55.1065L123.96 56.0973L124.095 55.1065ZM23.478 56.9281C23.6051 57.4656 24.1439 57.7982 24.6813 57.671C25.2188 57.5439 25.5514 57.0051 25.4243 56.4677L23.478 56.9281ZM28.3919 63.0294C28.0814 62.5727 27.4594 62.4542 27.0027 62.7647C26.5459 63.0752 26.4274 63.6972 26.738 64.1539L28.3919 63.0294ZM32.0699 69.94C32.4975 70.2896 33.1275 70.2263 33.4771 69.7988C33.8266 69.3712 33.7634 68.7412 33.3358 68.3916L32.0699 69.94ZM39.5712 72.2083C39.0651 71.9872 38.4756 72.2183 38.2546 72.7244C38.0335 73.2306 38.2646 73.82 38.7707 74.0411L39.5712 72.2083ZM46.3662 76.1151C46.9148 76.1791 47.4114 75.7863 47.4754 75.2377C47.5394 74.6892 47.1466 74.1926 46.598 74.1285L46.3662 76.1151ZM53.842 73.8108C53.3015 73.9241 52.9551 74.4541 53.0683 74.9947C53.1816 75.5352 53.7116 75.8816 54.2521 75.7683L53.842 73.8108ZM62.1831 72.7916C62.6719 72.5345 62.8597 71.9299 62.6026 71.4411C62.3455 70.9523 61.7409 70.7644 61.2521 71.0215L62.1831 72.7916ZM67.4478 65.7689C67.1716 66.2471 67.3353 66.8587 67.8135 67.135C68.2917 67.4113 68.9034 67.2475 69.1796 66.7693L67.4478 65.7689ZM68.6357 57.4246C68.3262 56.9671 67.7045 56.8471 67.2471 57.1566C66.7897 57.4661 66.6697 58.0878 66.9791 58.5452L68.6357 57.4246ZM60.5944 54.0135C61.1376 54.113 61.6586 53.7532 61.7581 53.21C61.8576 52.6667 61.4979 52.1457 60.9546 52.0462L60.5944 54.0135ZM58.2837 59.8768C58.6473 60.2924 59.2791 60.3346 59.6948 59.971C60.1104 59.6074 60.1526 58.9756 59.789 58.5599L58.2837 59.8768ZM67.2446 60.6581C66.6924 60.6613 66.2473 61.1116 66.2505 61.6639C66.2537 62.2162 66.7041 62.6613 67.2563 62.658L67.2446 60.6581ZM76.1986 61.7872C76.7442 61.7016 77.1171 61.1899 77.0315 60.6442C76.9459 60.0986 76.4342 59.7257 75.8886 59.8114L76.1986 61.7872ZM84.5384 58.2423C83.9964 58.3485 83.6432 58.874 83.7494 59.4159C83.8556 59.9579 84.381 60.3112 84.923 60.205L84.5384 58.2423ZM93.5894 58.5056C94.1319 58.4022 94.4879 57.8786 94.3846 57.3361C94.2812 56.7936 93.7576 56.4376 93.2151 56.5409L93.5894 58.5056ZM101.955 55.0159C101.409 55.0996 101.034 55.61 101.118 56.1559C101.201 56.7018 101.712 57.0765 102.258 56.9928L101.955 55.0159ZM110.955 55.9426C111.505 55.8977 111.915 55.4151 111.87 54.8647C111.825 54.3142 111.343 53.9044 110.792 53.9492L110.955 55.9426ZM119.745 53.725C119.193 53.7015 118.727 54.1299 118.703 54.6816C118.68 55.2334 119.108 55.6997 119.66 55.7232L119.745 53.725ZM128.255 56.8639C128.794 56.9844 129.329 56.645 129.449 56.106C129.569 55.567 129.23 55.0325 128.691 54.9121L128.255 56.8639ZM137.314 57.7747C136.812 57.544 136.219 57.7636 135.988 58.2654C135.757 58.7672 135.977 59.361 136.478 59.5918L137.314 57.7747ZM143.762 64.1599C144.186 64.5142 144.817 64.4581 145.171 64.0345C145.525 63.6108 145.469 62.9802 145.046 62.6258L143.762 64.1599ZM151.158 69.4242C150.849 68.966 150.228 68.8446 149.77 69.153C149.311 69.4614 149.19 70.0828 149.498 70.541L151.158 69.4242ZM153.365 78.2478C153.553 78.7672 154.126 79.036 154.646 78.8483C155.165 78.6606 155.434 78.0873 155.246 77.5679L153.365 78.2478ZM157.467 86.3592C157.381 85.8137 156.869 85.4413 156.323 85.5275C155.778 85.6137 155.405 86.1258 155.491 86.6714L157.467 86.3592ZM23 52.9297C23 54.2692 23.1658 55.6084 23.478 56.9281L25.4243 56.4677C25.1453 55.2885 25 54.1039 25 52.9297H23ZM26.738 64.1539C28.182 66.2778 29.9909 68.2403 32.0699 69.94L33.3358 68.3916C31.3989 66.8081 29.7227 64.9867 28.3919 63.0294L26.738 64.1539ZM38.7707 74.0411C41.1578 75.0836 43.7156 75.8058 46.3662 76.1151L46.598 74.1285C44.156 73.8436 41.7892 73.177 39.5712 72.2083L38.7707 74.0411ZM54.2521 75.7683C55.5201 75.5027 56.7896 75.1308 58.0528 74.6443L57.3339 72.7779C56.1715 73.2256 55.0053 73.5671 53.842 73.8108L54.2521 75.7683ZM58.0528 74.6443C59.5948 74.0503 60.9671 73.4312 62.1831 72.7916L61.2521 71.0215C60.1134 71.6204 58.813 72.2082 57.3339 72.7779L58.0528 74.6443ZM69.1796 66.7693C71.1407 63.3748 70.3866 60.0128 68.6357 57.4246L66.9791 58.5452C68.4222 60.6783 68.9283 63.2062 67.4478 65.7689L69.1796 66.7693ZM60.9546 52.0462C59.962 51.8644 58.9073 51.8967 58.0599 52.4065C57.1414 52.9589 56.6933 53.9294 56.6933 55.1065H58.6933C58.6933 54.4591 58.9077 54.2304 59.0908 54.1203C59.345 53.9674 59.8308 53.8737 60.5944 54.0135L60.9546 52.0462ZM56.6933 55.1065C56.6933 57.0601 57.2176 58.6581 58.2837 59.8768L59.789 58.5599C59.1103 57.7841 58.6933 56.6911 58.6933 55.1065H56.6933ZM67.2563 62.658C69.8882 62.6426 72.9177 62.302 76.1986 61.7872L75.8886 59.8114C72.6461 60.3202 69.73 60.6435 67.2446 60.6581L67.2563 62.658ZM84.923 60.205C87.7321 59.6546 90.631 59.0692 93.5894 58.5056L93.2151 56.5409C90.251 57.1057 87.3314 57.695 84.5384 58.2423L84.923 60.205ZM102.258 56.9928C105.184 56.544 108.099 56.1753 110.955 55.9426L110.792 53.9492C107.878 54.1868 104.914 54.5621 101.955 55.0159L102.258 56.9928ZM119.66 55.7232C121.134 55.7858 122.57 55.9076 123.96 56.0973L124.23 54.1157C122.771 53.9165 121.273 53.7899 119.745 53.725L119.66 55.7232ZM123.96 56.0973C125.455 56.3015 126.886 56.5582 128.255 56.8639L128.691 54.9121C127.265 54.5935 125.779 54.3272 124.23 54.1157L123.96 56.0973ZM136.478 59.5918C139.248 60.8654 141.663 62.4043 143.762 64.1599L145.046 62.6258C142.807 60.7532 140.24 59.1203 137.314 57.7747L136.478 59.5918ZM149.498 70.541C151.099 72.9186 152.374 75.5063 153.365 78.2478L155.246 77.5679C154.206 74.6888 152.859 71.9516 151.158 69.4242L149.498 70.541ZM155.491 86.6714C155.717 88.0983 155.886 89.5466 156.003 91.0095L157.997 90.8498C157.876 89.3391 157.701 87.8399 157.467 86.3592L155.491 86.6714Z" fill="#C4BBB5"/>
</svg>
