<svg width="379" height="190" viewBox="0 0 379 190" fill="none" xmlns="http://www.w3.org/2000/svg">
<path d="M38.0679 78.2814L0.922417 43.9219L32.4961 67.1378L38.0679 78.2814Z" fill="#547563"/>
<path d="M39.9252 63.4232L0.922443 43.9219L56.6406 55.9941L39.9252 63.4232Z" fill="#4AC281"/>
<path d="M39.9248 63.4232L38.0675 78.2814L32.4957 67.1378L0.922077 43.9219L39.9248 63.4232Z" fill="#097C3E"/>
<path d="M32.4961 67.1378L10.2088 81.0673L0.922457 43.9219L32.4961 67.1378Z" fill="#4AC281"/>
<path d="M0.000186841 43.9094C0.000301285 43.8749 0.00273888 43.8404 0.00761407 43.8063C0.0122604 43.7701 0.0224723 43.7357 0.0308303 43.6995L0.0364036 43.6744C0.0419731 43.654 0.0364036 43.6336 0.0466194 43.6132L0.0521888 43.602C0.0687904 43.5657 0.0873603 43.5304 0.107906 43.4961C0.118122 43.4776 0.119053 43.4562 0.130196 43.4376C0.141338 43.4191 0.152481 43.4163 0.160839 43.4033C0.175232 43.3786 0.191021 43.3546 0.208202 43.3318C0.226772 43.3095 0.250919 43.2937 0.271347 43.2733C0.291779 43.2528 0.301994 43.2445 0.31778 43.2306C0.333569 43.2166 0.35957 43.1869 0.383713 43.1693C0.392071 43.1637 0.396713 43.1553 0.405071 43.1498C0.413429 43.1442 0.431072 43.1396 0.443146 43.1321C0.517551 43.0974 0.59219 43.0631 0.666946 43.029C0.686447 43.0244 0.706879 43.029 0.726379 43.0216C0.764687 43.0143 0.803455 43.0093 0.842457 43.0068C0.884594 43.0013 0.927197 42.9992 0.969681 43.0003C0.997772 43.0032 1.02563 43.0075 1.05326 43.0133C1.07369 43.0133 1.09412 43.0133 1.11455 43.0133L56.8327 55.0855C57.3341 55.1936 57.6529 55.6876 57.5449 56.189C57.4823 56.4794 57.2845 56.7223 57.0129 56.8425L40.7766 64.058L38.9843 78.3962C38.9843 78.4129 38.9732 78.4268 38.9704 78.4435C38.9608 78.4894 38.9478 78.5343 38.9314 78.5782C38.9141 78.6313 38.8924 78.6829 38.8664 78.7323C38.8442 78.7699 38.8194 78.8059 38.7921 78.8401C38.7555 78.8875 38.7148 78.9316 38.6705 78.9719C38.6537 78.9858 38.6435 79.0063 38.6259 79.0193C38.6082 79.0323 38.5841 79.0397 38.5646 79.0527C38.5199 79.081 38.473 79.1055 38.4244 79.1261C38.3799 79.1455 38.3339 79.1612 38.2869 79.1734C38.2637 79.179 38.2442 79.192 38.2201 79.1966C38.1697 79.2049 38.1188 79.2093 38.0678 79.2096C37.9664 79.2078 37.8661 79.1896 37.7706 79.1558C37.7437 79.1465 37.7186 79.1326 37.6917 79.1205C37.6205 79.0889 37.5538 79.0484 37.4929 78.9998C37.479 78.9877 37.4604 78.984 37.4465 78.971L28.3756 70.8073L10.7009 81.8581C10.2663 82.1304 9.69317 81.999 9.42085 81.5644C9.36977 81.4829 9.3317 81.3941 9.3079 81.3009L0.0215453 44.1555C0.0210799 44.1465 0.0210799 44.1375 0.0215453 44.1285C0.0150451 44.0979 0.0169028 44.0663 0.0131873 44.0357C0.00564185 43.994 0.00123206 43.9518 0.000186841 43.9094ZM33.0717 66.413C33.0856 66.4242 33.0959 66.4372 33.1098 66.4493C33.1941 66.5225 33.2643 66.6107 33.3169 66.7093C33.3169 66.7148 33.3243 66.7176 33.3271 66.7223L37.5264 75.1236L38.9193 63.9605L10.2347 49.6159L33.0457 66.3889C33.0531 66.3945 33.0624 66.4056 33.0717 66.413ZM7.94096 46.3926L39.9483 62.3958L53.6689 56.2993L7.94096 46.3926ZM35.0441 74.3102L32.1245 68.4663L30.0165 69.784L35.0441 74.3102ZM10.8002 79.6034L27.98 68.8637L30.843 67.0752L6.81544 49.4069L2.45086 46.1957L10.8002 79.6034Z" fill="#4A2E19"/>
<path d="M125.5 146.055L125.858 146.989L125.5 146.055ZM294 99.054L293.865 100.045L294 99.054ZM39.2234 97.7791C39.2811 98.3284 39.7732 98.7269 40.3224 98.6692C40.8717 98.6115 41.2702 98.1195 41.2125 97.5702L39.2234 97.7791ZM42.8262 105.466C42.6663 104.938 42.1081 104.639 41.5794 104.799C41.0508 104.959 40.752 105.517 40.912 106.046L42.8262 105.466ZM44.0115 113.864C44.2553 114.359 44.8547 114.563 45.3502 114.319C45.8458 114.076 46.0499 113.476 45.8061 112.981L44.0115 113.864ZM49.908 119.979C49.596 119.523 48.9737 119.406 48.5179 119.718C48.0622 120.03 47.9456 120.653 48.2576 121.108L49.908 119.979ZM53.4338 127.701C53.8018 128.113 54.434 128.148 54.8458 127.78C55.2577 127.413 55.2933 126.78 54.9253 126.369L53.4338 127.701ZM60.702 132.093C60.2872 131.729 59.6554 131.769 59.2907 132.184C58.9261 132.599 58.9667 133.231 59.3815 133.595L60.702 132.093ZM65.9818 138.746C66.4361 139.06 67.059 138.946 67.3729 138.492C67.6868 138.038 67.5729 137.415 67.1185 137.101L65.9818 138.746ZM74.0725 141.331C73.5847 141.072 72.9793 141.257 72.7203 141.745C72.4613 142.233 72.6467 142.838 73.1345 143.097L74.0725 141.331ZM80.7485 146.578C81.2636 146.778 81.8427 146.522 82.0418 146.006C82.241 145.491 81.9849 144.912 81.4698 144.713L80.7485 146.578ZM89.2179 147.173C88.6821 147.039 88.1391 147.365 88.0052 147.901C87.8713 148.436 88.1971 148.979 88.7329 149.113L89.2179 147.173ZM96.9795 150.617C97.5281 150.681 98.0242 150.287 98.0876 149.739C98.1509 149.19 97.7575 148.694 97.2089 148.631L96.9795 150.617ZM105.317 149.017C104.765 149.028 104.327 149.485 104.338 150.037C104.349 150.589 104.806 151.028 105.358 151.017L105.317 149.017ZM113.717 150.263C114.262 150.176 114.633 149.663 114.546 149.117C114.458 148.572 113.945 148.201 113.399 148.289L113.717 150.263ZM121.303 146.446C120.775 146.608 120.479 147.168 120.641 147.696C120.803 148.224 121.363 148.52 121.891 148.358L121.303 146.446ZM129.407 145.56C129.916 145.345 130.154 144.759 129.939 144.25C129.724 143.741 129.137 143.503 128.628 143.718L129.407 145.56ZM135.235 140.617C134.745 140.873 134.556 141.478 134.812 141.967C135.069 142.456 135.673 142.645 136.162 142.389L135.235 140.617ZM142.649 138.527C143.105 138.216 143.223 137.594 142.911 137.138C142.6 136.682 141.978 136.564 141.522 136.875L142.649 138.527ZM147.121 132.355C146.725 132.741 146.717 133.374 147.102 133.769C147.487 134.165 148.121 134.174 148.516 133.788L147.121 132.355ZM153.303 127.776C153.581 127.299 153.419 126.687 152.942 126.409C152.464 126.131 151.852 126.293 151.575 126.771L153.303 127.776ZM153.905 120.188C153.83 120.735 154.213 121.239 154.76 121.314C155.307 121.389 155.812 121.007 155.887 120.459L153.905 120.188ZM155.305 112.707C155.154 112.175 154.601 111.867 154.069 112.018C153.538 112.169 153.23 112.722 153.381 113.253L155.305 112.707ZM150.328 106.873C150.639 107.33 151.261 107.448 151.718 107.137C152.174 106.827 152.293 106.205 151.982 105.748L150.328 106.873ZM146.923 100.007C146.512 99.6379 145.88 99.6718 145.511 100.083C145.141 100.494 145.175 101.126 145.586 101.495L146.923 100.007ZM139.739 97.3067C140.222 97.5752 140.831 97.4017 141.099 96.9191C141.368 96.4364 141.194 95.8275 140.712 95.559L139.739 97.3067ZM133.494 92.8231C132.95 92.7242 132.43 93.0845 132.331 93.6279C132.232 94.1712 132.592 94.6919 133.135 94.7908L133.494 92.8231ZM127.297 96.117C127.625 95.6725 127.531 95.0464 127.086 94.7187C126.641 94.3909 126.015 94.4856 125.688 94.9301L127.297 96.117ZM124.902 103.327C125.012 103.869 125.54 104.218 126.081 104.109C126.622 103.999 126.972 103.471 126.862 102.93L124.902 103.327ZM130.333 109.487C129.935 109.103 129.302 109.115 128.919 109.513C128.536 109.911 128.548 110.544 128.945 110.927L130.333 109.487ZM136.399 115.043C136.928 115.203 137.486 114.904 137.646 114.376C137.806 113.847 137.507 113.289 136.978 113.129L136.399 115.043ZM144.772 114.454C144.221 114.415 143.742 114.83 143.703 115.38C143.663 115.931 144.078 116.41 144.629 116.449L144.772 114.454ZM152.891 116.53C153.443 116.508 153.872 116.042 153.849 115.49C153.827 114.938 153.361 114.509 152.809 114.532L152.891 116.53ZM160.895 113.918C160.346 113.976 159.948 114.468 160.006 115.018C160.064 115.567 160.556 115.965 161.105 115.907L160.895 113.918ZM169.204 114.879C169.75 114.8 170.129 114.292 170.05 113.746C169.97 113.199 169.463 112.82 168.916 112.9L169.204 114.879ZM176.946 111.623C176.402 111.716 176.036 112.233 176.128 112.777C176.221 113.321 176.738 113.687 177.283 113.594L176.946 111.623ZM185.337 112.151C185.88 112.05 186.238 111.528 186.137 110.985C186.036 110.442 185.514 110.084 184.971 110.185L185.337 112.151ZM192.953 108.662C192.41 108.767 192.056 109.292 192.162 109.834C192.267 110.376 192.792 110.73 193.334 110.625L192.953 108.662ZM201.331 109.056C201.873 108.949 202.225 108.423 202.118 107.881C202.012 107.34 201.486 106.987 200.944 107.094L201.331 109.056ZM208.945 105.522C208.403 105.628 208.049 106.153 208.155 106.695C208.26 107.237 208.785 107.591 209.327 107.485L208.945 105.522ZM217.328 105.948C217.87 105.845 218.227 105.322 218.125 104.78C218.023 104.237 217.5 103.88 216.957 103.982L217.328 105.948ZM224.984 102.507C224.44 102.604 224.078 103.124 224.175 103.667C224.272 104.211 224.791 104.573 225.335 104.476L224.984 102.507ZM233.352 103.103C233.897 103.013 234.267 102.499 234.177 101.954C234.088 101.409 233.574 101.04 233.029 101.129L233.352 103.103ZM241.101 99.8794C240.554 99.9587 240.175 100.466 240.255 101.013C240.334 101.559 240.841 101.938 241.388 101.859L241.101 99.8794ZM249.444 100.78C249.992 100.713 250.383 100.215 250.316 99.6665C250.249 99.1183 249.75 98.728 249.202 98.7948L249.444 100.78ZM257.334 97.9165C256.784 97.9678 256.38 98.4551 256.431 99.005C256.482 99.5549 256.97 99.9591 257.519 99.9078L257.334 97.9165ZM265.609 99.289C266.16 99.2567 266.581 98.7836 266.549 98.2322C266.517 97.6809 266.043 97.2601 265.492 97.2924L265.609 99.289ZM273.67 96.98C273.118 96.9891 272.677 97.4441 272.687 97.9963C272.696 98.5485 273.151 98.9888 273.703 98.9797L273.67 96.98ZM281.797 99.0478C282.349 99.0671 282.812 98.6353 282.831 98.0834C282.85 97.5315 282.419 97.0683 281.867 97.049L281.797 99.0478ZM290.071 97.5879C289.521 97.5337 289.031 97.9353 288.977 98.4849C288.923 99.0345 289.325 99.524 289.874 99.5783L290.071 97.5879ZM298.024 100.673C298.569 100.764 299.084 100.396 299.175 99.8509C299.266 99.3061 298.898 98.7909 298.353 98.7002L298.024 100.673ZM306.696 100.365C306.159 100.239 305.62 100.573 305.495 101.11C305.369 101.648 305.702 102.186 306.24 102.312L306.696 100.365ZM314.298 104.507C314.825 104.672 315.386 104.378 315.551 103.851C315.716 103.324 315.422 102.763 314.895 102.598L314.298 104.507ZM322.921 105.466C322.409 105.258 321.826 105.505 321.619 106.017C321.411 106.529 321.658 107.112 322.17 107.319L322.921 105.466ZM329.764 110.793C330.256 111.045 330.858 110.852 331.111 110.36C331.363 109.869 331.17 109.266 330.678 109.014L329.764 110.793ZM338.072 113.276C337.608 112.977 336.989 113.111 336.69 113.575C336.391 114.039 336.525 114.658 336.989 114.957L338.072 113.276ZM343.752 119.822C344.183 120.167 344.813 120.098 345.158 119.667C345.503 119.236 345.434 118.607 345.003 118.261L343.752 119.822ZM351.374 123.949C350.982 123.56 350.349 123.562 349.96 123.953C349.571 124.345 349.573 124.978 349.965 125.368L351.374 123.949ZM355.55 131.545C355.898 131.973 356.528 132.039 356.957 131.69C357.386 131.342 357.451 130.712 357.103 130.284L355.55 131.545ZM362.135 137.185C361.833 136.722 361.213 136.592 360.751 136.894C360.288 137.197 360.158 137.816 360.46 138.279L362.135 137.185ZM364.672 145.476C364.927 145.966 365.531 146.155 366.021 145.9C366.51 145.644 366.7 145.04 366.444 144.551L364.672 145.476ZM370.041 152.282C369.831 151.771 369.246 151.528 368.736 151.738C368.225 151.949 367.982 152.533 368.192 153.044L370.041 152.282ZM371.051 160.895C371.219 161.422 371.782 161.712 372.308 161.544C372.834 161.376 373.125 160.814 372.957 160.288L371.051 160.895ZM375.237 168.49C375.108 167.953 374.569 167.621 374.031 167.75C373.494 167.878 373.163 168.418 373.291 168.955L375.237 168.49ZM374.961 177.16C375.053 177.704 375.57 178.071 376.114 177.978C376.659 177.886 377.025 177.37 376.933 176.825L374.961 177.16ZM378.098 185.245C378.038 184.696 377.545 184.299 376.996 184.359C376.447 184.418 376.05 184.912 376.11 185.461L378.098 185.245ZM39 93.5547C39 94.9626 39.0756 96.372 39.2234 97.7791L41.2125 97.5702C41.0718 96.2306 41 94.891 41 93.5547H39ZM40.912 106.046C41.7137 108.695 42.7549 111.309 44.0115 113.864L45.8061 112.981C44.5948 110.518 43.5946 108.005 42.8262 105.466L40.912 106.046ZM48.2576 121.108C49.8173 123.387 51.5491 125.592 53.4338 127.701L54.9253 126.369C53.0961 124.321 51.4176 122.184 49.908 119.979L48.2576 121.108ZM59.3815 133.595C61.4626 135.425 63.6683 137.148 65.9818 138.746L67.1185 137.101C64.869 135.547 62.7247 133.871 60.702 132.093L59.3815 133.595ZM73.1345 143.097C75.5898 144.401 78.133 145.567 80.7485 146.578L81.4698 144.713C78.93 143.731 76.459 142.598 74.0725 141.331L73.1345 143.097ZM88.7329 149.113C91.4316 149.788 94.1855 150.295 96.9795 150.617L97.2089 148.631C94.5034 148.318 91.8349 147.827 89.2179 147.173L88.7329 149.113ZM105.358 151.017C108.126 150.96 110.917 150.714 113.717 150.263L113.399 148.289C110.692 148.724 107.994 148.962 105.317 149.017L105.358 151.017ZM121.891 148.358C123.215 147.951 124.538 147.495 125.858 146.989L125.142 145.121C123.864 145.611 122.584 146.052 121.303 146.446L121.891 148.358ZM125.858 146.989C127.085 146.518 128.267 146.042 129.407 145.56L128.628 143.718C127.51 144.191 126.349 144.659 125.142 145.121L125.858 146.989ZM136.162 142.389C138.571 141.128 140.727 139.839 142.649 138.527L141.522 136.875C139.671 138.139 137.582 139.389 135.235 140.617L136.162 142.389ZM148.516 133.788C150.548 131.81 152.127 129.799 153.303 127.776L151.575 126.771C150.5 128.618 149.039 130.488 147.121 132.355L148.516 133.788ZM155.887 120.459C156.254 117.782 156.006 115.175 155.305 112.707L153.381 113.253C154.014 115.482 154.231 117.809 153.905 120.188L155.887 120.459ZM151.982 105.748C150.54 103.628 148.803 101.697 146.923 100.007L145.586 101.495C147.361 103.089 148.986 104.901 150.328 106.873L151.982 105.748ZM140.712 95.559C138.251 94.1903 135.761 93.2358 133.494 92.8231L133.135 94.7908C135.139 95.1555 137.422 96.0175 139.739 97.3067L140.712 95.559ZM125.688 94.9301C124.896 96.0043 124.5 97.3947 124.5 99.054H126.5C126.5 97.7094 126.818 96.7668 127.297 96.117L125.688 94.9301ZM124.5 99.054C124.5 100.584 124.635 102.008 124.902 103.327L126.862 102.93C126.624 101.756 126.5 100.468 126.5 99.054H124.5ZM128.945 110.927C130.902 112.811 133.429 114.145 136.399 115.043L136.978 113.129C134.226 112.297 132.005 111.097 130.333 109.487L128.945 110.927ZM144.629 116.449C147.192 116.633 149.955 116.65 152.891 116.53L152.809 114.532C149.93 114.649 147.244 114.632 144.772 114.454L144.629 116.449ZM161.105 115.907C163.707 115.633 166.411 115.285 169.204 114.879L168.916 112.9C166.144 113.303 163.467 113.647 160.895 113.918L161.105 115.907ZM177.283 113.594C179.909 113.146 182.597 112.662 185.337 112.151L184.971 110.185C182.238 110.694 179.56 111.177 176.946 111.623L177.283 113.594ZM193.334 110.625C195.964 110.114 198.632 109.588 201.331 109.056L200.944 107.094C198.245 107.626 195.579 108.151 192.953 108.662L193.334 110.625ZM209.327 107.485C211.975 106.969 214.643 106.454 217.328 105.948L216.957 103.982C214.267 104.49 211.594 105.005 208.945 105.522L209.327 107.485ZM225.335 104.476C228.001 104.001 230.675 103.541 233.352 103.103L233.029 101.129C230.341 101.569 227.658 102.031 224.984 102.507L225.335 104.476ZM241.388 101.859C244.079 101.468 246.767 101.106 249.444 100.78L249.202 98.7948C246.508 99.123 243.806 99.4868 241.101 99.8794L241.388 101.859ZM257.519 99.9078C260.236 99.6544 262.935 99.4457 265.609 99.289L265.492 97.2924C262.793 97.4506 260.071 97.6611 257.334 97.9165L257.519 99.9078ZM273.703 98.9797C276.438 98.9347 279.139 98.9546 281.797 99.0478L281.867 97.049C279.171 96.9546 276.437 96.9345 273.67 96.98L273.703 98.9797ZM289.874 99.5783C291.219 99.7109 292.55 99.8661 293.865 100.045L294.135 98.0631C292.794 97.8809 291.439 97.7229 290.071 97.5879L289.874 99.5783ZM293.865 100.045C295.273 100.236 296.66 100.446 298.024 100.673L298.353 98.7002C296.968 98.4697 295.562 98.2572 294.135 98.0631L293.865 100.045ZM306.24 102.312C309.025 102.964 311.71 103.697 314.298 104.507L314.895 102.598C312.259 101.774 309.527 101.028 306.696 100.365L306.24 102.312ZM322.17 107.319C324.816 108.39 327.346 109.55 329.764 110.793L330.678 109.014C328.205 107.743 325.621 106.559 322.921 105.466L322.17 107.319ZM336.989 114.957C339.368 116.489 341.62 118.113 343.752 119.822L345.003 118.261C342.817 116.509 340.508 114.845 338.072 113.276L336.989 114.957ZM349.965 125.368C351.952 127.342 353.812 129.404 355.55 131.545L357.103 130.284C355.32 128.089 353.413 125.974 351.374 123.949L349.965 125.368ZM360.46 138.279C361.981 140.607 363.383 143.008 364.672 145.476L366.444 144.551C365.127 142.027 363.692 139.569 362.135 137.185L360.46 138.279ZM368.192 153.044C369.249 155.607 370.2 158.227 371.051 160.895L372.957 160.288C372.089 157.569 371.12 154.898 370.041 152.282L368.192 153.044ZM373.291 168.955C373.937 171.653 374.491 174.391 374.961 177.16L376.933 176.825C376.456 174.015 375.893 171.234 375.237 168.49L373.291 168.955ZM376.11 185.461C376.26 186.847 376.391 188.238 376.503 189.635L378.497 189.474C378.383 188.06 378.25 186.65 378.098 185.245L376.11 185.461Z" fill="#C4BBB5"/>
<path d="M203.5 14.5557C258 -11.445 298 5.39014 298 42.5557C298 58.5564 323.5 78.5557 359.5 58.5557" stroke="#C4BBB5" stroke-width="2" stroke-dasharray="8 8"/>
<g clip-path="url(#clip0_322:16512)">
<path d="M173.405 22.7559L194.265 14.4656L197.719 23.1571L173.405 22.7559Z" fill="#547563"/>
<path d="M173.406 22.755L191.062 10.2025L182.548 11.5731L173.406 22.755Z" fill="#4AC281"/>
<path d="M191.061 10.2025L194.17 18.0249L173.405 22.755L191.061 10.2025Z" fill="#097C3E"/>
<path d="M173.405 22.7559L195.134 14.1202L201.201 19.2571L173.405 22.7559Z" fill="#4AC281"/>
<path d="M201.485 18.9212L195.417 13.7843C195.294 13.6797 195.123 13.6516 194.972 13.7114L194.103 14.0569L193.207 14.4131L191.471 10.047C191.471 10.0466 191.471 10.0463 191.471 10.0463L191.469 10.0402C191.468 10.0381 191.467 10.0363 191.466 10.0343C191.464 10.0283 191.461 10.0224 191.458 10.0165C191.456 10.0117 191.454 10.0069 191.451 10.0022C191.45 9.99902 191.448 9.99597 191.446 9.99278C191.444 9.98819 191.441 9.98362 191.438 9.97907C191.436 9.97439 191.433 9.96964 191.43 9.96515C191.428 9.96125 191.425 9.95744 191.422 9.95362C191.421 9.95179 191.42 9.94982 191.419 9.94799C191.417 9.94603 191.416 9.9444 191.414 9.94242C191.411 9.93849 191.409 9.93464 191.406 9.93088C191.402 9.92667 191.399 9.92259 191.395 9.91849C191.392 9.91481 191.389 9.91107 191.386 9.90753C191.383 9.90478 191.381 9.90194 191.378 9.89927C191.374 9.89526 191.37 9.89141 191.366 9.88758C191.362 9.88371 191.358 9.87988 191.354 9.87616C191.352 9.87418 191.35 9.87217 191.348 9.87026C191.343 9.86674 191.339 9.86339 191.335 9.86004C191.33 9.85625 191.326 9.85248 191.321 9.84884C191.318 9.8472 191.316 9.84568 191.314 9.84409C191.31 9.84114 191.306 9.8384 191.301 9.83561C191.296 9.83216 191.291 9.82874 191.286 9.82551C191.283 9.82399 191.28 9.82264 191.278 9.82112C191.274 9.8188 191.269 9.81647 191.265 9.81429C191.26 9.8115 191.254 9.80859 191.249 9.80601C191.246 9.80454 191.243 9.80319 191.24 9.80181C191.235 9.79984 191.231 9.79808 191.226 9.79625C191.221 9.79414 191.216 9.79196 191.211 9.79004C191.207 9.78871 191.204 9.78751 191.2 9.78626C191.195 9.78466 191.191 9.78334 191.186 9.78191C191.181 9.78047 191.176 9.77904 191.171 9.77772C191.167 9.77666 191.163 9.77566 191.159 9.77478C191.154 9.7736 191.149 9.77266 191.144 9.7717C191.139 9.77081 191.135 9.76982 191.13 9.76911C191.126 9.76852 191.122 9.76781 191.118 9.76734C191.113 9.76662 191.107 9.76619 191.101 9.76571C191.097 9.76523 191.092 9.76481 191.087 9.76455C191.083 9.76433 191.08 9.76404 191.076 9.76392C191.07 9.76368 191.065 9.76384 191.059 9.76385C191.054 9.76388 191.048 9.76398 191.043 9.76418C191.04 9.76435 191.037 9.76432 191.033 9.76456C191.028 9.76489 191.023 9.7655 191.018 9.76606C191.011 9.76666 191.005 9.76751 190.998 9.76841C190.996 9.76871 190.994 9.76876 190.992 9.76911L190.986 9.77006C190.985 9.77018 190.985 9.77023 190.984 9.77035L182.478 11.1397C182.372 11.1566 182.277 11.212 182.209 11.295L173.069 22.4728C173.069 22.4734 173.068 22.4739 173.068 22.4745L173.066 22.477C173.065 22.4785 173.064 22.4801 173.063 22.4817C173.061 22.4832 173.06 22.4847 173.059 22.4863C173.056 22.4897 173.054 22.4931 173.051 22.4965C173.049 22.4996 173.047 22.5027 173.044 22.5058C173.043 22.5074 173.042 22.5089 173.041 22.5105C173.04 22.5127 173.038 22.515 173.037 22.5173C173.036 22.5186 173.035 22.5199 173.034 22.5213C173.032 22.5247 173.03 22.5283 173.028 22.5317C173.026 22.5353 173.024 22.5387 173.022 22.5423C173.021 22.5437 173.02 22.5451 173.019 22.5466C173.018 22.5493 173.016 22.5521 173.015 22.5548C173.014 22.5561 173.014 22.5574 173.013 22.5587C173.011 22.562 173.01 22.5654 173.008 22.5686C173.007 22.5726 173.005 22.5765 173.003 22.5806C173.002 22.5818 173.002 22.5832 173.001 22.5845C173 22.5876 172.999 22.5905 172.997 22.5936C172.997 22.5951 172.996 22.5967 172.996 22.5982C172.994 22.6013 172.994 22.6044 172.992 22.6075C172.991 22.6117 172.989 22.6158 172.988 22.62C172.987 22.6215 172.987 22.623 172.987 22.6245C172.986 22.6275 172.985 22.6305 172.984 22.6336C172.983 22.6354 172.983 22.6373 172.982 22.6391C172.982 22.6422 172.981 22.6454 172.98 22.6485C172.979 22.6525 172.978 22.6564 172.977 22.6604C172.977 22.6624 172.976 22.6643 172.976 22.6662C172.975 22.669 172.975 22.6718 172.974 22.6746C172.974 22.6767 172.973 22.6787 172.973 22.6807C172.973 22.684 172.972 22.6874 172.972 22.6906C172.971 22.6967 172.97 22.7028 172.969 22.7089C172.969 22.7116 172.969 22.7142 172.969 22.7168C172.968 22.7187 172.968 22.7206 172.968 22.7225C172.968 22.7259 172.968 22.7291 172.968 22.7324C172.967 22.7389 172.967 22.7454 172.967 22.7519C172.967 22.7546 172.967 22.7574 172.967 22.7601C172.967 22.7617 172.967 22.7632 172.967 22.7648C172.967 22.7683 172.968 22.7719 172.968 22.7755C172.968 22.7807 172.968 22.7858 172.968 22.791C172.969 22.7924 172.969 22.7939 172.969 22.7953C172.969 22.7975 172.969 22.7996 172.97 22.8018C172.97 22.8077 172.971 22.8135 172.972 22.8194C172.973 22.8241 172.973 22.8288 172.974 22.8334C172.974 22.8351 172.975 22.8368 172.975 22.8384C172.975 22.84 172.976 22.8416 172.976 22.8433C172.977 22.8463 172.977 22.8492 172.978 22.8523C172.979 22.8561 172.98 22.8598 172.981 22.8637C172.982 22.8675 172.983 22.8713 172.984 22.8751C172.984 22.8768 172.985 22.8784 172.985 22.88C172.986 22.8817 172.986 22.8833 172.987 22.8849C172.988 22.8878 172.988 22.8908 172.989 22.8937C172.991 22.8982 172.993 22.9025 172.994 22.9069C172.996 22.9112 172.997 22.9156 172.999 22.9198C173 22.9219 173.001 22.9239 173.002 22.926C173.003 22.9285 173.004 22.931 173.005 22.9335C173.007 22.9383 173.01 22.9428 173.012 22.9474C173.013 22.9509 173.015 22.9545 173.017 22.9579C173.018 22.9606 173.02 22.9632 173.021 22.9659C173.022 22.9679 173.023 22.9699 173.024 22.9718C173.027 22.9763 173.03 22.9807 173.033 22.9852C173.035 22.9881 173.036 22.9912 173.038 22.9941C173.038 22.9946 173.039 22.995 173.039 22.9955C173.041 22.9981 173.043 23.0006 173.044 23.0032C173.048 23.0089 173.052 23.0145 173.057 23.02C173.057 23.0206 173.058 23.0213 173.058 23.0219C173.06 23.024 173.061 23.0262 173.063 23.0283C173.063 23.0292 173.064 23.0302 173.065 23.0312C173.066 23.0324 173.067 23.0336 173.068 23.0348C173.069 23.0357 173.07 23.0366 173.07 23.0375C173.075 23.0424 173.079 23.047 173.083 23.0516C173.084 23.0525 173.085 23.0536 173.086 23.0545C173.087 23.0564 173.089 23.0582 173.091 23.06C173.092 23.0613 173.093 23.0626 173.094 23.0639C173.095 23.0644 173.095 23.0648 173.096 23.0653C173.097 23.0667 173.099 23.0679 173.1 23.0692C173.104 23.0732 173.109 23.077 173.113 23.0809C173.113 23.0811 173.113 23.0813 173.113 23.0814C173.116 23.084 173.119 23.0867 173.122 23.0891C173.123 23.0905 173.125 23.0919 173.127 23.0933C173.127 23.0936 173.127 23.0939 173.128 23.0941C173.129 23.095 173.13 23.0955 173.131 23.0964C173.131 23.0965 173.131 23.0966 173.132 23.0967C173.136 23.1003 173.141 23.1038 173.145 23.1071C173.147 23.1086 173.149 23.1102 173.151 23.1117C173.153 23.1128 173.154 23.1139 173.156 23.115C173.156 23.1151 173.156 23.1152 173.156 23.1154C173.159 23.1174 173.162 23.1192 173.165 23.1211C173.168 23.1232 173.171 23.1253 173.175 23.1273C173.177 23.1289 173.18 23.1304 173.182 23.1319C173.186 23.1339 173.189 23.1361 173.193 23.138C173.195 23.1394 173.198 23.1406 173.201 23.142C173.205 23.1442 173.209 23.1463 173.213 23.1484C173.216 23.1496 173.218 23.1508 173.22 23.1519C173.224 23.1533 173.226 23.1549 173.229 23.1563C173.23 23.1567 173.232 23.1571 173.233 23.1576C173.234 23.1584 173.236 23.1589 173.238 23.1597C173.244 23.1622 173.251 23.1646 173.257 23.1668C173.261 23.1685 173.266 23.1704 173.271 23.1719C173.273 23.1727 173.276 23.1732 173.278 23.1739C173.279 23.1743 173.28 23.1748 173.282 23.1751C173.283 23.1754 173.283 23.1757 173.284 23.1759C173.285 23.1762 173.285 23.1764 173.286 23.1766C173.29 23.1778 173.295 23.1786 173.299 23.1797C173.303 23.1807 173.307 23.182 173.311 23.1829C173.314 23.1835 173.317 23.1838 173.32 23.1844C173.325 23.1855 173.331 23.1865 173.337 23.1875C173.34 23.188 173.343 23.1885 173.347 23.189C173.352 23.1897 173.358 23.1903 173.363 23.1908C173.369 23.1914 173.376 23.1918 173.382 23.1922C173.388 23.1925 173.393 23.193 173.399 23.1931L173.399 23.1931C173.399 23.1931 173.4 23.1931 173.4 23.1931L197.712 23.5944C197.771 23.5954 197.828 23.5845 197.881 23.5635C197.961 23.5319 198.03 23.4775 198.08 23.4052C198.163 23.2845 198.181 23.1303 198.127 22.9941L197.026 20.2234L201.256 19.6909C201.294 19.6862 201.33 19.6768 201.364 19.6633C201.487 19.6144 201.583 19.5114 201.622 19.3807C201.671 19.2139 201.618 19.0336 201.485 18.9212ZM176.626 21.0028L190.86 10.883L192.392 14.737L176.626 21.0029L176.626 21.0028ZM182.782 11.9791L189.276 10.9336L175.808 20.5083L182.782 11.9791ZM179.588 22.4181L196.127 20.3364L197.069 22.7066L179.588 22.4181ZM196.354 19.4241L176.77 21.8892L193.123 15.3899L194.427 14.8717L195.052 14.6235L200.156 18.9455L196.354 19.4241Z" fill="#4A2E19"/>
</g>
<defs>
<clipPath id="clip0_322:16512">
<rect width="28" height="28" fill="white" transform="translate(168 10.3418) rotate(-21.6744)"/>
</clipPath>
</defs>
</svg>
