<svg width="379" height="147" viewBox="0 0 379 147" fill="none" xmlns="http://www.w3.org/2000/svg">
<path d="M38.0679 35.2814L0.922417 0.921872L32.4961 24.1378L38.0679 35.2814Z" fill="#547563"/>
<path d="M39.9252 20.4232L0.922443 0.92187L56.6406 12.9941L39.9252 20.4232Z" fill="#4AC281"/>
<path d="M39.9248 20.4232L38.0675 35.2814L32.4957 24.1378L0.922077 0.921872L39.9248 20.4232Z" fill="#097C3E"/>
<path d="M32.4958 24.1378L10.2086 38.0673L0.922213 0.921872L32.4958 24.1378Z" fill="#4AC281"/>
<path d="M0.000186841 0.90939C0.000301285 0.874915 0.00273888 0.840439 0.00761407 0.806311C0.0122604 0.770095 0.0224723 0.735735 0.0308303 0.699518L0.0364036 0.674445C0.0419731 0.654015 0.0364036 0.633585 0.0466194 0.613155L0.0521888 0.602011C0.0687904 0.565678 0.0873603 0.530391 0.107906 0.496147C0.118122 0.477575 0.119053 0.456215 0.130196 0.437643C0.141338 0.41907 0.152481 0.416284 0.160839 0.403283C0.175232 0.378558 0.191021 0.354646 0.208202 0.331779C0.226772 0.309491 0.250919 0.293704 0.271347 0.273274C0.291779 0.252844 0.301994 0.244487 0.31778 0.230557C0.333569 0.216628 0.35957 0.186911 0.383713 0.169267C0.392071 0.163695 0.396713 0.155338 0.405071 0.149766C0.413429 0.144194 0.431072 0.139551 0.443146 0.132122C0.517551 0.0974139 0.59219 0.0630543 0.666946 0.029043C0.686447 0.0243998 0.706879 0.0290427 0.726379 0.0216136C0.764687 0.0143006 0.803455 0.00930933 0.842457 0.00675558C0.884594 0.00129985 0.927197 -0.000789551 0.969681 0.000255168C0.997772 0.00315716 1.02563 0.00745205 1.05326 0.013256C1.07369 0.013256 1.09412 0.013256 1.11455 0.013256L56.8327 12.0855C57.3341 12.1936 57.6529 12.6876 57.5449 13.189C57.4823 13.4794 57.2845 13.7223 57.0129 13.8425L40.7766 21.058L38.9843 35.3962C38.9843 35.4129 38.9732 35.4268 38.9704 35.4435C38.9608 35.4894 38.9478 35.5343 38.9314 35.5782C38.9141 35.6313 38.8924 35.6829 38.8664 35.7323C38.8442 35.7699 38.8194 35.8059 38.7921 35.8401C38.7555 35.8875 38.7148 35.9316 38.6705 35.9719C38.6537 35.9858 38.6435 36.0063 38.6259 36.0193C38.6082 36.0323 38.5841 36.0397 38.5646 36.0527C38.5199 36.081 38.473 36.1055 38.4244 36.1261C38.3799 36.1455 38.3339 36.1612 38.2869 36.1734C38.2637 36.179 38.2442 36.192 38.2201 36.1966C38.1697 36.2049 38.1188 36.2093 38.0678 36.2096C37.9664 36.2078 37.8661 36.1896 37.7706 36.1558C37.7437 36.1465 37.7186 36.1326 37.6917 36.1205C37.6205 36.0889 37.5538 36.0484 37.4929 35.9998C37.479 35.9877 37.4604 35.984 37.4465 35.971L28.3756 27.8073L10.7009 38.8581C10.2663 39.1304 9.69317 38.999 9.42085 38.5644C9.36977 38.4829 9.3317 38.3941 9.3079 38.3009L0.0215453 1.15548C0.0210799 1.14654 0.0210799 1.13749 0.0215453 1.12855C0.0150451 1.0979 0.0169028 1.06633 0.0131873 1.03568C0.00564185 0.994012 0.00123206 0.951759 0.000186841 0.90939ZM33.0717 23.413C33.0856 23.4242 33.0959 23.4372 33.1098 23.4493C33.1941 23.5225 33.2643 23.6107 33.3169 23.7093C33.3169 23.7148 33.3243 23.7176 33.3271 23.7223L37.5264 32.1236L38.9193 20.9605L10.2347 6.61586L33.0457 23.3889C33.0531 23.3945 33.0624 23.4056 33.0717 23.413ZM7.94096 3.39256L39.9483 19.3958L53.6689 13.2993L7.94096 3.39256ZM35.0441 31.3102L32.1245 25.4663L30.0165 26.784L35.0441 31.3102ZM10.8002 36.6034L27.98 25.8637L30.843 24.0752L6.81544 6.40692L2.45086 3.19569L10.8002 36.6034Z" fill="#4A2E19"/>
<path d="M125.5 103.055L125.858 103.989L125.5 103.055ZM294 56.054L293.865 57.0449L294 56.054ZM39.2234 54.7791C39.2811 55.3284 39.7732 55.7269 40.3224 55.6692C40.8717 55.6115 41.2702 55.1195 41.2125 54.5702L39.2234 54.7791ZM42.8262 62.4662C42.6663 61.9376 42.1081 61.6388 41.5794 61.7987C41.0508 61.9587 40.752 62.5169 40.912 63.0455L42.8262 62.4662ZM44.0115 70.8635C44.2553 71.3591 44.8547 71.5632 45.3502 71.3194C45.8458 71.0756 46.0499 70.4762 45.8061 69.9806L44.0115 70.8635ZM49.908 76.9786C49.596 76.5229 48.9737 76.4063 48.5179 76.7182C48.0622 77.0302 47.9456 77.6525 48.2576 78.1083L49.908 76.9786ZM53.4338 84.701C53.8018 85.1129 54.434 85.1485 54.8458 84.7805C55.2577 84.4125 55.2933 83.7804 54.9253 83.3685L53.4338 84.701ZM60.702 89.0933C60.2872 88.7286 59.6554 88.7693 59.2907 89.1841C58.9261 89.5988 58.9667 90.2307 59.3815 90.5954L60.702 89.0933ZM65.9818 95.7464C66.4361 96.0604 67.059 95.9465 67.3729 95.4921C67.6868 95.0377 67.5729 94.4148 67.1185 94.1009L65.9818 95.7464ZM74.0725 98.3306C73.5847 98.0716 72.9793 98.257 72.7203 98.7448C72.4613 99.2326 72.6467 99.838 73.1345 100.097L74.0725 98.3306ZM80.7485 103.578C81.2636 103.778 81.8427 103.522 82.0418 103.006C82.241 102.491 81.9849 101.912 81.4698 101.713L80.7485 103.578ZM89.2179 104.173C88.6821 104.039 88.1391 104.365 88.0052 104.901C87.8713 105.436 88.1971 105.979 88.7329 106.113L89.2179 104.173ZM96.9795 107.617C97.5281 107.681 98.0242 107.287 98.0876 106.739C98.1509 106.19 97.7575 105.694 97.2089 105.631L96.9795 107.617ZM105.317 106.017C104.765 106.028 104.327 106.485 104.338 107.037C104.349 107.589 104.806 108.028 105.358 108.017L105.317 106.017ZM113.717 107.263C114.262 107.176 114.633 106.663 114.546 106.117C114.458 105.572 113.945 105.201 113.399 105.289L113.717 107.263ZM121.303 103.446C120.775 103.608 120.479 104.168 120.641 104.696C120.803 105.224 121.363 105.52 121.891 105.358L121.303 103.446ZM129.407 102.56C129.916 102.345 130.154 101.759 129.939 101.25C129.724 100.741 129.137 100.503 128.628 100.718L129.407 102.56ZM135.235 97.6172C134.745 97.8733 134.556 98.4776 134.812 98.9669C135.069 99.4562 135.673 99.6453 136.162 99.3892L135.235 97.6172ZM142.649 95.5274C143.105 95.2161 143.223 94.5939 142.911 94.1377C142.6 93.6815 141.978 93.5641 141.522 93.8755L142.649 95.5274ZM147.121 89.3553C146.725 89.7406 146.717 90.3737 147.102 90.7694C147.487 91.1651 148.121 91.1735 148.516 90.7883L147.121 89.3553ZM153.303 84.7763C153.581 84.2989 153.419 83.6868 152.942 83.4091C152.464 83.1315 151.852 83.2934 151.575 83.7708L153.303 84.7763ZM153.905 77.1877C153.83 77.7349 154.213 78.2393 154.76 78.3143C155.307 78.3893 155.812 78.0066 155.887 77.4594L153.905 77.1877ZM155.305 69.7066C155.154 69.1754 154.601 68.8671 154.069 69.0181C153.538 69.169 153.23 69.722 153.381 70.2533L155.305 69.7066ZM150.328 63.8733C150.639 64.3299 151.261 64.4481 151.718 64.1374C152.174 63.8267 152.293 63.2047 151.982 62.7481L150.328 63.8733ZM146.923 57.007C146.512 56.6379 145.88 56.6718 145.511 57.0826C145.141 57.4935 145.175 58.1258 145.586 58.4948L146.923 57.007ZM139.739 54.3067C140.222 54.5752 140.831 54.4017 141.099 53.9191C141.368 53.4364 141.194 52.8275 140.712 52.559L139.739 54.3067ZM133.494 49.8231C132.95 49.7242 132.43 50.0845 132.331 50.6279C132.232 51.1712 132.592 51.6919 133.135 51.7908L133.494 49.8231ZM127.297 53.117C127.625 52.6725 127.531 52.0464 127.086 51.7187C126.641 51.3909 126.015 51.4856 125.688 51.9301L127.297 53.117ZM124.902 60.3273C125.012 60.8686 125.54 61.2184 126.081 61.1086C126.622 60.9988 126.972 60.471 126.862 59.9298L124.902 60.3273ZM130.333 66.4866C129.935 66.1035 129.302 66.1154 128.919 66.5131C128.536 66.9109 128.548 67.544 128.945 67.9271L130.333 66.4866ZM136.399 72.0434C136.928 72.2033 137.486 71.9044 137.646 71.3757C137.806 70.8471 137.507 70.2889 136.978 70.129L136.399 72.0434ZM144.772 71.4544C144.221 71.415 143.742 71.8295 143.703 72.3804C143.663 72.9313 144.078 73.4098 144.629 73.4493L144.772 71.4544ZM152.891 73.5302C153.443 73.5077 153.872 73.042 153.849 72.4902C153.827 71.9384 153.361 71.5093 152.809 71.5319L152.891 73.5302ZM160.895 70.9182C160.346 70.9762 159.948 71.4684 160.006 72.0177C160.064 72.5669 160.556 72.9652 161.105 72.9072L160.895 70.9182ZM169.204 71.879C169.75 71.7996 170.129 71.2921 170.05 70.7456C169.97 70.199 169.463 69.8204 168.916 69.8998L169.204 71.879ZM176.946 68.6229C176.402 68.7158 176.036 69.2325 176.128 69.7769C176.221 70.3213 176.738 70.6873 177.283 70.5944L176.946 68.6229ZM185.337 69.1514C185.88 69.0503 186.238 68.5282 186.137 67.9852C186.036 67.4423 185.514 67.0841 184.971 67.1852L185.337 69.1514ZM192.953 65.6618C192.41 65.7673 192.056 66.2922 192.162 66.8343C192.267 67.3765 192.792 67.7305 193.334 67.625L192.953 65.6618ZM201.331 66.056C201.873 65.9492 202.225 65.4233 202.118 64.8814C202.012 64.3396 201.486 63.9869 200.944 64.0937L201.331 66.056ZM208.945 62.5221C208.403 62.6278 208.049 63.1529 208.155 63.695C208.26 64.2371 208.785 64.5908 209.327 64.4851L208.945 62.5221ZM217.328 62.9478C217.87 62.8454 218.227 62.3225 218.125 61.7797C218.023 61.237 217.5 60.8801 216.957 60.9824L217.328 62.9478ZM224.984 59.5074C224.44 59.6043 224.078 60.1236 224.175 60.6673C224.272 61.2111 224.791 61.5733 225.335 61.4764L224.984 59.5074ZM233.352 60.1026C233.897 60.0134 234.267 59.4992 234.177 58.9542C234.088 58.4091 233.574 58.0397 233.029 58.1289L233.352 60.1026ZM241.101 56.8794C240.554 56.9587 240.175 57.4661 240.255 58.0126C240.334 58.5592 240.841 58.938 241.388 58.8586L241.101 56.8794ZM249.444 57.7801C249.992 57.7133 250.383 57.2148 250.316 56.6665C250.249 56.1183 249.75 55.728 249.202 55.7948L249.444 57.7801ZM257.334 54.9165C256.784 54.9678 256.38 55.4551 256.431 56.005C256.482 56.5549 256.97 56.9591 257.519 56.9078L257.334 54.9165ZM265.609 56.289C266.16 56.2567 266.581 55.7836 266.549 55.2322C266.517 54.6809 266.043 54.2601 265.492 54.2924L265.609 56.289ZM273.67 53.98C273.118 53.9891 272.677 54.4441 272.687 54.9963C272.696 55.5485 273.151 55.9888 273.703 55.9797L273.67 53.98ZM281.797 56.0478C282.349 56.0671 282.812 55.6353 282.831 55.0834C282.85 54.5315 282.419 54.0683 281.867 54.049L281.797 56.0478ZM290.071 54.5879C289.521 54.5337 289.031 54.9353 288.977 55.4849C288.923 56.0345 289.325 56.524 289.874 56.5783L290.071 54.5879ZM298.024 57.673C298.569 57.7638 299.084 57.3956 299.175 56.8509C299.266 56.3061 298.898 55.7909 298.353 55.7002L298.024 57.673ZM306.696 57.3647C306.159 57.2387 305.62 57.5725 305.495 58.1103C305.369 58.648 305.702 59.186 306.24 59.312L306.696 57.3647ZM314.298 61.5067C314.825 61.6716 315.386 61.3779 315.551 60.8508C315.716 60.3237 315.422 59.7627 314.895 59.5979L314.298 61.5067ZM322.921 62.4656C322.409 62.2583 321.826 62.5053 321.619 63.0173C321.411 63.5292 321.658 64.1122 322.17 64.3194L322.921 62.4656ZM329.764 67.7929C330.256 68.0453 330.858 67.8517 331.111 67.3605C331.363 66.8693 331.17 66.2664 330.678 66.014L329.764 67.7929ZM338.072 70.2756C337.608 69.9766 336.989 70.1105 336.69 70.5748C336.391 71.0391 336.525 71.6579 336.989 71.957L338.072 70.2756ZM343.752 76.8218C344.183 77.1672 344.813 77.0978 345.158 76.6669C345.503 76.2359 345.434 75.6066 345.003 75.2612L343.752 76.8218ZM351.374 80.9489C350.982 80.5596 350.349 80.5616 349.96 80.9534C349.571 81.3452 349.573 81.9783 349.965 82.3676L351.374 80.9489ZM355.55 88.5445C355.898 88.9733 356.528 89.0386 356.957 88.6904C357.386 88.3422 357.451 87.7125 357.103 87.2837L355.55 88.5445ZM362.135 94.1847C361.833 93.7223 361.213 93.5924 360.751 93.8945C360.288 94.1965 360.158 94.8162 360.46 95.2786L362.135 94.1847ZM364.672 102.476C364.927 102.966 365.531 103.155 366.021 102.9C366.51 102.644 366.7 102.04 366.444 101.551L364.672 102.476ZM370.041 109.282C369.831 108.771 369.246 108.528 368.736 108.738C368.225 108.949 367.982 109.533 368.192 110.044L370.041 109.282ZM371.051 117.895C371.219 118.422 371.782 118.712 372.308 118.544C372.834 118.376 373.125 117.814 372.957 117.288L371.051 117.895ZM375.237 125.49C375.108 124.953 374.569 124.621 374.031 124.75C373.494 124.878 373.163 125.418 373.291 125.955L375.237 125.49ZM374.961 134.16C375.053 134.704 375.57 135.071 376.114 134.978C376.659 134.886 377.025 134.37 376.933 133.825L374.961 134.16ZM378.098 142.245C378.038 141.696 377.545 141.299 376.996 141.359C376.447 141.418 376.05 141.912 376.11 142.461L378.098 142.245ZM39 50.5547C39 51.9626 39.0756 53.372 39.2234 54.7791L41.2125 54.5702C41.0718 53.2306 41 51.891 41 50.5547H39ZM40.912 63.0455C41.7137 65.6947 42.7549 68.3092 44.0115 70.8635L45.8061 69.9806C44.5948 67.5185 43.5946 65.0053 42.8262 62.4662L40.912 63.0455ZM48.2576 78.1083C49.8173 80.3869 51.5491 82.5915 53.4338 84.701L54.9253 83.3685C53.0961 81.3212 51.4176 79.1841 49.908 76.9786L48.2576 78.1083ZM59.3815 90.5954C61.4626 92.4249 63.6683 94.1482 65.9818 95.7464L67.1185 94.1009C64.869 92.5469 62.7247 90.8714 60.702 89.0933L59.3815 90.5954ZM73.1345 100.097C75.5898 101.401 78.133 102.567 80.7485 103.578L81.4698 101.713C78.93 100.731 76.459 99.5978 74.0725 98.3306L73.1345 100.097ZM88.7329 106.113C91.4316 106.788 94.1855 107.295 96.9795 107.617L97.2089 105.631C94.5034 105.318 91.8349 104.827 89.2179 104.173L88.7329 106.113ZM105.358 108.017C108.126 107.96 110.917 107.714 113.717 107.263L113.399 105.289C110.692 105.724 107.994 105.962 105.317 106.017L105.358 108.017ZM121.891 105.358C123.215 104.951 124.538 104.495 125.858 103.989L125.142 102.121C123.864 102.611 122.584 103.052 121.303 103.446L121.891 105.358ZM125.858 103.989C127.085 103.518 128.267 103.042 129.407 102.56L128.628 100.718C127.51 101.191 126.349 101.659 125.142 102.121L125.858 103.989ZM136.162 99.3892C138.571 98.1285 140.727 96.8389 142.649 95.5274L141.522 93.8755C139.671 95.1386 137.582 96.3887 135.235 97.6172L136.162 99.3892ZM148.516 90.7883C150.548 88.8101 152.127 86.7989 153.303 84.7763L151.575 83.7708C150.5 85.6184 149.039 87.4884 147.121 89.3553L148.516 90.7883ZM155.887 77.4594C156.254 74.7818 156.006 72.1755 155.305 69.7066L153.381 70.2533C154.014 72.4819 154.231 74.8092 153.905 77.1877L155.887 77.4594ZM151.982 62.7481C150.54 60.6284 148.803 58.6965 146.923 57.007L145.586 58.4948C147.361 60.0889 148.986 61.901 150.328 63.8733L151.982 62.7481ZM140.712 52.559C138.251 51.1903 135.761 50.2358 133.494 49.8231L133.135 51.7908C135.139 52.1555 137.422 53.0175 139.739 54.3067L140.712 52.559ZM125.688 51.9301C124.896 53.0043 124.5 54.3947 124.5 56.054H126.5C126.5 54.7094 126.818 53.7668 127.297 53.117L125.688 51.9301ZM124.5 56.054C124.5 57.5844 124.635 59.0076 124.902 60.3273L126.862 59.9298C126.624 58.7563 126.5 57.4676 126.5 56.054H124.5ZM128.945 67.9271C130.902 69.8114 133.429 71.1449 136.399 72.0434L136.978 70.129C134.226 69.2967 132.005 68.0971 130.333 66.4866L128.945 67.9271ZM144.629 73.4493C147.192 73.633 149.955 73.65 152.891 73.5302L152.809 71.5319C149.93 71.6494 147.244 71.6316 144.772 71.4544L144.629 73.4493ZM161.105 72.9072C163.707 72.6326 166.411 72.285 169.204 71.879L168.916 69.8998C166.144 70.3028 163.467 70.6469 160.895 70.9182L161.105 72.9072ZM177.283 70.5944C179.909 70.146 182.597 69.6617 185.337 69.1514L184.971 67.1852C182.238 67.6941 179.56 68.1766 176.946 68.6229L177.283 70.5944ZM193.334 67.625C195.964 67.1136 198.632 66.5879 201.331 66.056L200.944 64.0937C198.245 64.6257 195.579 65.151 192.953 65.6618L193.334 67.625ZM209.327 64.4851C211.975 63.9689 214.643 63.4541 217.328 62.9478L216.957 60.9824C214.267 61.4898 211.594 62.0054 208.945 62.5221L209.327 64.4851ZM225.335 61.4764C228.001 61.0012 230.675 60.5411 233.352 60.1026L233.029 58.1289C230.341 58.5691 227.658 59.0309 224.984 59.5074L225.335 61.4764ZM241.388 58.8586C244.079 58.4681 246.767 58.1063 249.444 57.7801L249.202 55.7948C246.508 56.123 243.806 56.4868 241.101 56.8794L241.388 58.8586ZM257.519 56.9078C260.236 56.6544 262.935 56.4457 265.609 56.289L265.492 54.2924C262.793 54.4506 260.071 54.6611 257.334 54.9165L257.519 56.9078ZM273.703 55.9797C276.438 55.9347 279.139 55.9546 281.797 56.0478L281.867 54.049C279.171 53.9546 276.437 53.9345 273.67 53.98L273.703 55.9797ZM289.874 56.5783C291.219 56.7109 292.55 56.8661 293.865 57.0449L294.135 55.0631C292.794 54.8809 291.439 54.7229 290.071 54.5879L289.874 56.5783ZM293.865 57.0449C295.273 57.2363 296.66 57.4458 298.024 57.673L298.353 55.7002C296.968 55.4697 295.562 55.2572 294.135 55.0631L293.865 57.0449ZM306.24 59.312C309.025 59.9645 311.71 60.6974 314.298 61.5067L314.895 59.5979C312.259 58.7736 309.527 58.0279 306.696 57.3647L306.24 59.312ZM322.17 64.3194C324.816 65.3904 327.346 66.55 329.764 67.7929L330.678 66.014C328.205 64.7431 325.621 63.5586 322.921 62.4656L322.17 64.3194ZM336.989 71.957C339.368 73.4892 341.62 75.113 343.752 76.8218L345.003 75.2612C342.817 73.5091 340.508 71.8449 338.072 70.2756L336.989 71.957ZM349.965 82.3676C351.952 84.3423 353.812 86.4039 355.55 88.5445L357.103 87.2837C355.32 85.0888 353.413 82.9745 351.374 80.9489L349.965 82.3676ZM360.46 95.2786C361.981 97.6066 363.383 100.008 364.672 102.476L366.444 101.551C365.127 99.0271 363.692 96.569 362.135 94.1847L360.46 95.2786ZM368.192 110.044C369.249 112.607 370.2 115.227 371.051 117.895L372.957 117.288C372.089 114.569 371.12 111.898 370.041 109.282L368.192 110.044ZM373.291 125.955C373.937 128.653 374.491 131.391 374.961 134.16L376.933 133.825C376.456 131.015 375.893 128.234 375.237 125.49L373.291 125.955ZM376.11 142.461C376.26 143.847 376.391 145.238 376.503 146.635L378.497 146.474C378.383 145.06 378.25 143.65 378.098 142.245L376.11 142.461Z" fill="#C4BBB5"/>
</svg>
