<svg width="259" height="86" viewBox="0 0 259 86" fill="none" xmlns="http://www.w3.org/2000/svg">
<path d="M204.488 62.8502L257.283 47.8694L215.349 54.8111L204.488 62.8502Z" fill="#547563"/>
<path d="M209.99 47.5695L257.283 47.8686L197.475 32.1757L209.99 47.5695Z" fill="#4AC281"/>
<path d="M209.99 47.5685L204.488 62.8483L215.349 54.8093L257.283 47.8676L209.99 47.5685Z" fill="#097C3E"/>
<path d="M215.349 54.8108L230.059 79.2271L257.283 47.8691L215.349 54.8108Z" fill="#4AC281"/>
<path d="M258.181 48.3097C258.198 48.2763 258.212 48.2418 258.224 48.2064C258.237 48.1691 258.244 48.1308 258.254 48.0917L258.261 48.0647C258.266 48.0422 258.281 48.0252 258.281 48.0005L258.281 47.9869C258.283 47.9437 258.283 47.9004 258.279 47.8572C258.279 47.8342 258.288 47.8131 258.287 47.7897C258.285 47.7663 258.276 47.7581 258.274 47.7414C258.272 47.7104 258.269 47.6796 258.263 47.649C258.256 47.6183 258.241 47.5912 258.231 47.5614C258.221 47.5316 258.215 47.5185 258.207 47.4973C258.199 47.4761 258.188 47.4346 258.173 47.4057C258.168 47.3962 258.168 47.3858 258.162 47.3763C258.157 47.3668 258.142 47.3537 258.134 47.3405C258.079 47.2704 258.024 47.2005 257.968 47.1309C257.952 47.1169 257.93 47.1113 257.915 47.0946C257.881 47.0687 257.846 47.0448 257.81 47.0232C257.772 46.9972 257.731 46.9743 257.69 46.9544C257.661 46.9434 257.632 46.9339 257.603 46.9259C257.583 46.9159 257.563 46.9059 257.543 46.8958L197.735 31.2029C197.197 31.0612 196.646 31.3823 196.505 31.9201C196.422 32.2317 196.494 32.5637 196.698 32.8134L208.854 47.7653L203.545 62.5104C203.537 62.5265 203.541 62.5455 203.535 62.563C203.522 62.6121 203.513 62.6619 203.507 62.7124C203.497 62.7723 203.493 62.8328 203.494 62.8934C203.497 62.9406 203.503 62.9876 203.513 63.034C203.525 63.0979 203.543 63.1606 203.566 63.2213C203.575 63.243 203.575 63.2677 203.586 63.289C203.596 63.3102 203.616 63.3293 203.628 63.3514C203.658 63.4007 203.691 63.4475 203.728 63.4912C203.761 63.5318 203.798 63.5696 203.838 63.6045C203.857 63.6213 203.87 63.6435 203.891 63.6598C203.936 63.6925 203.983 63.7218 204.032 63.7472C204.131 63.7952 204.237 63.8268 204.346 63.8411C204.376 63.8453 204.407 63.8441 204.439 63.8457C204.524 63.8501 204.608 63.8437 204.691 63.8266C204.71 63.8217 204.73 63.8273 204.75 63.8215L217.531 60.3827L229.194 79.7498C229.481 80.2266 230.1 80.381 230.576 80.0945C230.666 80.0408 230.746 79.9736 230.815 79.8952L258.039 48.5372C258.044 48.5288 258.048 48.52 258.052 48.5111C258.074 48.4847 258.087 48.4533 258.106 48.4255C258.134 48.3889 258.159 48.3502 258.181 48.3097ZM215.148 53.8269C215.129 53.8309 215.113 53.8384 215.093 53.8433C214.976 53.8727 214.865 53.9235 214.766 53.993C214.763 53.9984 214.754 53.9974 214.749 54.0005L206.562 60.062L210.698 48.5832L245.481 48.801L215.185 53.8164C215.175 53.8181 215.161 53.8243 215.148 53.8269ZM249.282 46.8107L210.472 46.5648L200.198 33.9305L249.282 46.8107ZM209.362 60.4946L215.056 56.2776L216.447 58.5872L209.362 60.4946ZM230.206 77.5207L218.868 58.6975L216.978 55.5619L248.89 50.2783L254.688 49.3169L230.206 77.5207Z" fill="#4A2E19"/>
<path d="M195.5 64.9998C175 76.9995 120.5 83.9997 88.5 58.4999C62.7692 37.9957 49 -10.0004 1 4.05446" stroke="#C4BBB5" stroke-width="2" stroke-dasharray="8 8"/>
</svg>
