<svg width="180" height="115" viewBox="0 0 180 115" fill="none" xmlns="http://www.w3.org/2000/svg">
<path d="M11.5399 45.5148C12.5013 45.9449 13.4803 46.4542 14.5343 46.4376C15.5873 46.4209 16.7215 45.6408 16.684 44.5878C16.6434 43.4515 15.3883 42.7996 14.2958 42.4819C11.8826 41.7799 9.34132 41.5331 6.83752 41.7289C5.58459 41.8268 4.34102 42.0351 3.12558 42.3528C2.3559 42.5538 0.314537 42.8891 0 43.664C4.0619 43.639 7.75301 43.8213 11.5399 45.5148Z" fill="#286069"/>
<path d="M17.6777 57.4965C18.9639 57.4955 20.2127 56.6696 20.7168 55.4854C21.2209 54.3022 20.9511 52.8295 20.0606 51.9015C20.9918 51.2131 21.0115 49.7154 20.3158 48.7895C19.6211 47.8636 18.4223 47.4428 17.2684 47.3574C15.1666 47.2022 13.0992 47.9917 11.2776 49.0509C7.47294 51.261 4.14947 53.6815 1.3728 57.1903C3.2996 57.1872 5.2264 57.3455 7.12715 57.6621C11.0849 58.3214 15.6634 59.1192 19.2785 56.8789" fill="#538087"/>
<path d="M10.4006 52.0151C12.2014 51.6693 14.0251 51.4391 15.8644 51.3485C17.7027 51.26 19.5586 51.285 21.3927 51.5568C22.3093 51.6891 23.2185 51.8828 24.109 52.1473C24.9995 52.4098 25.8723 52.7431 26.7045 53.1628C28.3792 53.9877 29.8529 55.1896 31.0819 56.5758C32.3151 57.9673 33.3014 59.5473 34.1544 61.1772C35.0074 62.8135 35.7104 64.509 36.3936 66.2109C37.7341 69.6218 38.7954 73.1786 39.1766 76.8395C39.1828 76.9041 39.1359 76.9624 39.0714 76.9686C39.0078 76.9749 38.9506 76.9291 38.9422 76.8655C38.5089 73.24 37.3925 69.7354 36.0187 66.3609C35.324 64.6736 34.6085 62.9905 33.7534 61.3876C32.8983 59.7868 31.9162 58.2485 30.7059 56.9081C29.5051 55.5666 28.0865 54.4147 26.4712 53.6252C25.6682 53.2232 24.8235 52.9024 23.959 52.6504C23.0946 52.3963 22.2093 52.2098 21.3146 52.0838C19.5253 51.8245 17.7048 51.8047 15.8904 51.8974C14.0751 51.9911 12.2597 52.1765 10.4256 52.2473C10.3611 52.2494 10.3059 52.1994 10.3027 52.1338C10.3027 52.0765 10.3444 52.0255 10.4006 52.0151Z" fill="#7BADB2"/>
<path d="M55.2793 34.5274C54.268 35.2857 53.2265 36.1147 52.7734 37.2947C52.5953 37.7593 52.512 38.2769 52.6484 38.7549C52.8453 39.4455 53.4754 39.9454 54.1555 40.1766C54.8356 40.4078 55.5678 40.4151 56.2864 40.4203C55.4293 41.5993 55.9604 43.4303 57.1853 44.2208C58.4101 45.0113 60.0723 44.8728 61.3471 44.1656C62.6209 43.4584 63.4895 42.2232 64.2967 41.0098C66.1798 38.18 66.9546 32.3215 67.0609 30.8926C67.0744 30.7082 66.9078 30.5593 66.7255 30.5874C64.756 30.8957 57.7518 32.6725 55.2793 34.5274Z" fill="#538087"/>
<path d="M39.165 73.4913C40.9939 59.3018 48.6501 45.9507 59.9724 37.2051" stroke="#538087" stroke-width="5.3025" stroke-miterlimit="10"/>
<path d="M39.0931 48.5983C38.0829 48.4296 37.3955 47.9807 36.9226 47.3891C36.4477 46.7923 36.1842 46.0393 36.0613 45.3623C35.8738 44.3427 35.9655 43.2689 35.9842 42.1753C36.0175 40.1391 36.2081 38.1519 36.5216 36.2897C36.8351 34.4285 37.2694 32.6913 37.7787 31.1321C38.0318 30.3562 38.3078 29.6147 38.5901 28.9346C38.7359 28.5857 38.8754 28.2659 39.0265 27.943C39.1025 27.7847 39.1764 27.6306 39.2483 27.4796C39.3264 27.3254 39.4024 27.1754 39.4764 27.0296C39.5555 26.8828 39.6316 26.7401 39.7055 26.6016C39.7836 26.461 39.8597 26.3256 39.9357 26.1964C40.0138 26.061 40.094 25.9267 40.1721 25.8017C40.2534 25.6725 40.3325 25.5496 40.4085 25.4299C40.4898 25.3049 40.5689 25.1882 40.646 25.0789C40.6877 25.0185 40.7283 24.9602 40.7689 24.9029C40.8116 24.8445 40.8533 24.7862 40.8928 24.731C40.9793 24.6175 41.0616 24.5102 41.1407 24.4082C41.2303 24.2905 41.3178 24.1832 41.4021 24.0874C41.4771 24.002 41.5553 23.9676 41.6084 24.0374C42.2551 25.0476 43.1477 25.9433 44.034 26.9703C44.9297 27.9878 45.8536 29.1231 46.6982 30.2531C48.3907 32.5028 49.7644 34.7379 50.0915 35.2919C51.3194 37.3312 52.2151 40.3443 52.3182 42.8398C52.3672 44.0021 52.1589 45.2321 51.5194 46.3163C50.9747 47.2402 50.079 48.039 49.0229 48.4087C48.5105 48.5879 47.9678 48.6629 47.4388 48.6223C46.9086 48.5827 46.391 48.4348 45.9077 48.1911C45.213 47.8359 44.6152 47.2943 44.3423 46.6486C44.2601 46.4392 43.7601 45.1269 43.8132 45.0217C43.2623 46.0497 43.0269 47.1277 42.0083 47.8932C41.2449 48.4764 40.1555 48.7722 39.0931 48.5983Z" fill="#286069"/>
<path d="M41.9189 25.3408C41.923 25.5803 41.9272 25.8188 41.947 26.0365L41.972 26.3687L42.0063 26.6885C42.0272 26.903 42.0553 27.1103 42.0824 27.3165C42.1074 27.5248 42.1386 27.7279 42.1688 27.931C42.2896 28.7424 42.4209 29.536 42.5552 30.3244C42.8229 31.9002 43.0874 33.4594 43.3197 35.0237C43.78 38.1482 44.1248 41.2884 44.1456 44.4473C44.1467 44.5619 44.0373 44.6566 43.9019 44.6566C43.7665 44.6577 43.6582 44.566 43.6571 44.4515V44.4483C43.6967 41.3186 43.4155 38.1826 43.0156 35.0581C42.8135 33.4937 42.5802 31.9315 42.3417 30.3515C42.223 29.561 42.1063 28.7653 42.0001 27.9498C41.947 27.5415 41.898 27.129 41.8605 26.701C41.8407 26.4875 41.822 26.2719 41.8126 26.0448C41.8074 25.9313 41.798 25.823 41.797 25.7043L41.7949 25.3439C41.7949 25.3085 41.822 25.2793 41.8564 25.2793C41.8907 25.2783 41.9178 25.3064 41.9189 25.3408Z" fill="#7EB4B8"/>
<path d="M43.8673 43.6401C43.8735 43.5641 43.8569 43.4974 43.7954 43.4714C43.7277 43.4422 43.6194 43.4391 43.5454 43.4245C42.6435 43.2402 41.7728 42.9631 40.9531 42.6017C40.1397 42.2435 39.3794 41.8019 38.6982 41.2894C38.29 40.9811 37.9098 40.6489 37.563 40.2927C37.4641 40.1906 37.3724 40.2729 37.4682 40.3792C38.7201 41.78 39.8387 42.9246 43.7287 43.9463C43.7621 43.9547 43.8558 43.7839 43.8673 43.6401Z" fill="#7EB4B8"/>
<path d="M43.8382 41.9109C42.2051 41.2433 40.6105 40.4778 39.2847 39.4331C38.9087 39.1363 38.5567 38.8187 38.2369 38.4781C38.139 38.3739 38.0547 38.502 38.1536 38.6072C39.3055 39.8331 40.6355 41.2016 43.7434 42.4306C43.8861 42.4869 43.9809 41.9692 43.8382 41.9109Z" fill="#7EB4B8"/>
<path d="M43.7153 40.0716C42.1405 39.2967 40.7313 38.2906 39.5815 37.0918C39.2545 36.7512 38.9493 36.394 38.665 36.0243C38.5775 35.9107 38.49 36.0305 38.5775 36.1451C39.5992 37.4792 40.9251 39.4467 43.6736 40.5819C43.8163 40.6402 43.8528 40.1382 43.7153 40.0716Z" fill="#7EB4B8"/>
<path d="M43.5047 38.016C42.1091 36.9037 40.7322 36.0163 39.774 34.5728C39.5053 34.1666 39.1793 33.8177 39.0075 33.3688C38.9575 33.2386 38.8242 33.2313 38.8752 33.3626C39.5012 34.9894 40.8322 36.4392 42.2091 37.5953C42.608 37.9306 43.0538 38.3441 43.462 38.6701C43.5776 38.7617 43.6203 38.1077 43.5047 38.016Z" fill="#7EB4B8"/>
<path d="M42.8508 32.779C41.6968 31.8854 40.9573 30.8116 40.2897 29.5722C40.221 29.4441 40.0324 29.416 40.1001 29.5441C40.773 30.8095 41.6343 32.452 42.8081 33.3529C42.9268 33.4435 42.9685 32.8707 42.8508 32.779Z" fill="#7EB4B8"/>
<path d="M42.4155 29.7798C41.8406 29.3028 41.274 28.7997 40.9668 28.1311C40.9064 27.9967 40.8012 28.029 40.8616 28.1623C41.1772 28.8466 41.6511 29.4455 42.2426 29.9329C42.3583 30.0277 42.5311 29.8746 42.4155 29.7798Z" fill="#7EB4B8"/>
<path d="M43.2194 35.4509C42.8257 35.1905 42.4237 34.9374 42.0425 34.6635C41.677 34.3989 41.3562 34.0958 41.0604 33.773C40.449 33.1054 39.9366 32.6023 39.3992 31.8743C39.3127 31.7577 39.0732 31.6577 39.1596 31.7754C39.7054 32.52 40.2595 33.2491 40.8854 33.9261C41.1739 34.2365 41.6436 34.8676 41.9946 35.1238C42.3873 35.4113 42.7643 35.7071 43.1736 35.9758C43.2986 36.0581 43.3444 35.5342 43.2194 35.4509Z" fill="#7EB4B8"/>
<path d="M43.8706 43.8832C43.8602 43.8082 43.8737 43.7395 43.9342 43.7103C43.9998 43.6781 44.1081 43.6697 44.182 43.651C45.0725 43.4208 45.9287 43.0886 46.7223 42.6626C47.5107 42.2408 48.2387 41.7263 48.8782 41.1409C49.2615 40.7889 49.6125 40.415 49.9281 40.0161C50.0176 39.9026 50.1207 39.9817 50.0301 40.0963C48.8907 41.5273 47.8138 42.8709 44.0248 44.1832C43.9904 44.1936 43.8894 44.0259 43.8706 43.8832Z" fill="#7EB4B8"/>
<path d="M43.8843 42.2496C45.4674 41.4716 46.9088 40.4634 48.1368 39.2855C48.4857 38.9512 48.8065 38.5991 49.0939 38.2252C49.1814 38.1117 49.2783 38.2325 49.1887 38.3471C48.1534 39.6823 46.9495 41.231 43.927 42.6652C43.7885 42.7318 43.7458 42.3184 43.8843 42.2496Z" fill="#7EB4B8"/>
<path d="M43.7779 40.3101C45.2818 39.4071 46.5931 38.2604 47.6273 36.9616C47.921 36.5919 48.1929 36.2107 48.4418 35.8212C48.5178 35.7014 48.6168 35.8118 48.5397 35.9316C47.6429 37.3313 46.5108 39.4571 43.8602 40.8152C43.7237 40.885 43.6467 40.3892 43.7779 40.3101Z" fill="#7EB4B8"/>
<path d="M43.6342 38.4121C44.9236 37.1779 46.2078 36.1572 47.0379 34.6616C47.2712 34.2419 47.567 33.8753 47.7045 33.4316C47.7451 33.3025 47.8763 33.2858 47.8357 33.416C47.3368 35.0251 46.1516 36.5936 44.8861 37.8747C44.5206 38.2455 44.1133 38.6985 43.7363 39.0599C43.6301 39.162 43.528 38.5142 43.6342 38.4121Z" fill="#7EB4B8"/>
<path d="M43.0407 33.8058C44.1238 32.8299 44.7873 31.7227 45.4205 30.5417C45.4861 30.4198 45.6736 30.3896 45.609 30.5104C44.9643 31.704 44.2249 33.3829 43.1292 34.3734C43.0188 34.4734 42.9303 33.9057 43.0407 33.8058Z" fill="#7EB4B8"/>
<path d="M42.6448 30.8519C43.2041 30.3592 43.7582 29.8604 44.0759 29.2407C44.1384 29.1167 44.2425 29.149 44.1811 29.2709C43.8561 29.9041 43.3968 30.4936 42.824 30.9977C42.7115 31.0966 42.5324 30.9498 42.6448 30.8519Z" fill="#7EB4B8"/>
<path d="M43.3729 36.0287C43.5572 35.8818 44.003 35.5944 44.6185 35.009C45.2351 34.4248 46.0194 33.5374 46.8974 32.2209C46.9755 32.1043 47.2088 31.9959 47.1296 32.1126C46.6235 32.8406 45.1685 35.5881 43.4656 36.5474C43.3323 36.6213 43.2552 36.1224 43.3729 36.0287Z" fill="#7EB4B8"/>
<path d="M58.8203 47.6523C53.6055 50.6665 49.0343 54.8554 45.8254 59.9526C42.6165 65.0498 39.7013 72.3705 39.8534 78.3915" stroke="#7BADB2" stroke-width="5.3025" stroke-miterlimit="10"/>
<path d="M52.7224 48.9452C53.5316 50.069 54.7408 49.6253 55.7917 49.4681C55.6657 49.4733 54.9304 50.5835 54.8314 50.7647C54.5023 51.3324 54.4482 52.0375 54.6315 52.7009C54.8804 53.6154 55.5178 54.36 56.3135 54.8371C57.1269 55.3193 58.0737 55.563 58.8923 55.5172C59.1329 55.5047 59.3641 55.4703 59.587 55.4193C59.8171 55.3766 60.0379 55.3151 60.2504 55.238C60.6764 55.0849 61.0638 54.8621 61.4252 54.6079C62.975 53.5383 64.7685 51.826 65.9694 50.1919C66.5516 49.4118 67.1806 48.588 67.8535 47.786C68.5117 46.9455 69.2147 46.1436 69.8896 45.2583C70.5687 44.3886 71.2436 43.5075 71.8549 42.5316C72.4757 41.5974 73.0381 40.5829 73.4943 39.4748C72.6423 39.4498 71.7737 39.4862 70.9051 39.5477C70.0448 39.6424 69.1668 39.7112 68.2857 39.7622C66.4714 39.8716 64.6154 39.9882 62.7969 40.4121C61.8773 40.6256 60.9597 40.8839 60.0775 41.237C59.6328 41.4068 59.1891 41.5817 58.7506 41.7703C58.3205 41.9733 57.8914 42.1837 57.4665 42.4004L56.5624 42.8722C56.2698 43.0451 55.9813 43.2242 55.6959 43.4086C55.1314 43.7856 54.5606 44.1532 54.0638 44.6177C53.4369 45.1885 52.8286 45.803 52.5318 46.5883C52.336 47.0976 52.2735 47.6631 52.387 48.1787C52.4474 48.4526 52.5578 48.713 52.7224 48.9452Z" fill="#7BADB2"/>
<path d="M72.2756 40.6211C69.401 41.8042 66.6619 43.1488 64.031 44.6236C61.3991 46.0973 58.8755 47.7002 56.4113 49.3948C56.3217 49.4562 56.1947 49.4281 56.127 49.3312C56.0593 49.2354 56.0791 49.1063 56.1697 49.0438L56.1728 49.0417C58.6776 47.3836 61.2387 45.8193 63.905 44.3872C66.5702 42.9541 69.3396 41.6543 72.2371 40.519C72.2642 40.5086 72.2944 40.5232 72.3048 40.5502C72.3142 40.5794 72.3017 40.6096 72.2756 40.6211Z" fill="#B8DADA"/>
<path d="M37.3757 75.7978C36.9654 72.2181 36.4634 68.452 35.2531 65.2004C34.172 62.2977 32.4067 59.0034 30.006 55.4081C25.6462 48.8789 19.0493 44.415 11.9128 43.1068L12.2774 42.709C19.5627 44.0452 26.0232 48.4467 30.4663 55.1009C32.891 58.7316 34.6761 62.0644 35.7718 65.0077C37.0039 68.3166 37.5111 72.1213 37.9256 75.7353L37.3757 75.7978Z" fill="#538087"/>
<path d="M16.1184 43.8171C17.3735 43.7598 18.7982 43.2338 18.8482 41.8278C18.8764 41.0446 18.567 40.2884 18.0515 39.6646C17.4547 38.924 16.5704 38.4731 15.6695 38.1554C13.7209 37.5201 11.0473 37.4847 9.15801 37.894C4.94926 38.8074 2.27883 41.0394 1.56539 41.6643C1.0061 42.1559 0.339533 42.912 0 43.665C4.33373 42.385 8.47166 42.3048 12.8773 43.3078C13.8229 43.5234 14.7666 43.7921 15.7362 43.8202C15.8612 43.8233 15.9893 43.8233 16.1184 43.8171Z" fill="#538087"/>
<path d="M35.4063 70.9875C35.7812 71.5677 36.0978 72.1832 36.2832 72.831C36.4718 73.4726 36.5405 74.1537 36.452 74.8182L35.9041 74.7766C35.9833 74.1767 35.9218 73.5642 35.7542 72.9925C35.5886 72.4102 35.298 71.8395 34.9459 71.2948C34.5918 70.7501 34.1711 70.2304 33.7107 69.7367C33.4764 69.4919 33.242 69.2493 32.9879 69.016L32.2151 68.3213C30.1446 66.4809 27.7585 65.0155 25.262 63.923L25.489 63.4199C27.4002 64.251 29.2385 65.3071 30.9361 66.5674L32.1818 67.5506L33.3639 68.6119C34.1336 69.3347 34.8428 70.1189 35.4063 70.9875Z" fill="#255259"/>
<path d="M26.8158 67.2587C27.2053 66.7119 27.2428 66.1891 27.0928 65.7152C26.9428 65.2434 26.6241 64.8007 26.3544 64.3716C26.4085 64.4612 27.6448 64.6934 27.85 64.7257C28.4634 64.8403 29.1488 64.6653 29.7362 64.3247C30.5465 63.8529 31.1214 63.0781 31.3026 62.1584C31.3963 61.6866 31.3911 61.194 31.2963 60.7065C31.2005 60.2212 31.0214 59.7296 30.7475 59.3088C30.4319 58.811 30.0278 58.3527 29.5622 57.9601C29.0883 57.583 28.5603 57.2591 28.0156 56.9873C27.4261 56.7123 26.7679 56.4749 26.0877 56.2541C25.3993 56.0541 24.6755 55.902 23.9599 55.7771C23.234 55.6812 22.5102 55.625 21.8217 55.6094C21.1249 55.6219 20.4636 55.6719 19.8658 55.7625C17.5369 56.1603 15.1498 56.8113 13.1313 57.9299C11.1098 59.0214 9.48501 60.6482 8.60181 62.6521C8.95384 62.7312 9.30274 62.7927 9.65061 62.8458C9.8235 62.8708 9.99743 62.8948 10.1714 62.9197L10.6921 63.0197C11.0379 63.0864 11.3816 63.1478 11.7222 63.226C12.0628 63.3207 12.3992 63.4238 12.7293 63.5436C12.8991 63.6071 13.0678 63.6634 13.2355 63.7342L13.7333 63.956C14.0625 64.1071 14.3884 64.2435 14.7103 64.3997C15.3498 64.732 15.982 65.0174 16.6048 65.3402C16.7631 65.4173 16.9214 65.4912 17.0797 65.5631L17.3182 65.6683L17.5536 65.7849C17.8671 65.938 18.1827 66.0807 18.4993 66.214C18.8149 66.3494 19.1232 66.5078 19.4387 66.6411L19.9105 66.841L20.3751 67.0587C20.8146 67.2649 21.2655 67.442 21.704 67.6461C22.1477 67.8388 22.6081 67.9929 23.0653 68.1554C23.3548 68.2502 23.6569 68.3273 23.9714 68.3658C24.2766 68.42 24.5963 68.4335 24.9317 68.3835C25.3691 68.3179 25.8451 68.1252 26.244 67.8367C26.4575 67.6784 26.6543 67.4868 26.8158 67.2587Z" fill="#255259"/>
<path d="M9.74125 61.7272C10.0683 61.6314 10.3995 61.5699 10.7328 61.5054L11.741 61.3169L12.7627 61.1971L13.2782 61.1408C13.4511 61.121 13.6219 61.121 13.7948 61.1117L14.8363 61.0731C15.0113 61.0638 15.1842 61.07 15.3581 61.0763L15.881 61.0929L16.4059 61.1127C16.5819 61.119 16.7569 61.1263 16.9308 61.1481L17.9786 61.2606C18.3306 61.2929 18.6764 61.3575 19.0242 61.421C19.3711 61.4845 19.72 61.5481 20.0678 61.6178L21.0979 61.8824L21.6134 62.0199C21.7843 62.0688 21.9509 62.1292 22.1196 62.1844L23.1299 62.5313C23.4653 62.651 23.7892 62.8 24.1183 62.9374L24.6088 63.1499L24.8536 63.2582L25.0921 63.3801L26.0409 63.8748C26.1326 63.9238 26.1617 64.0446 26.1055 64.1456C26.0492 64.2466 25.9305 64.2893 25.8399 64.2414L25.8368 64.2404L24.914 63.7373L24.6817 63.6134L24.4432 63.503L23.9641 63.2853C23.6434 63.1447 23.3267 62.9916 22.9987 62.8677L22.0103 62.5083C21.8447 62.4511 21.6811 62.3886 21.5135 62.3365L21.0073 62.1917L19.996 61.9126C19.6544 61.8355 19.3107 61.7689 18.969 61.6991C18.6264 61.6314 18.2869 61.5585 17.939 61.521L16.9037 61.3908C16.8173 61.3814 16.7319 61.3689 16.6454 61.3616L16.3851 61.346L15.8653 61.3169C15.5196 61.3033 15.1759 61.2721 14.8301 61.2773L13.7979 61.2971C13.6261 61.3033 13.4553 61.3012 13.2845 61.3158L12.7721 61.3616L11.7555 61.4616C11.4181 61.5137 11.0838 61.5731 10.7505 61.6303C10.4182 61.6887 10.087 61.7418 9.76104 61.8314C9.73709 61.8376 9.71313 61.8189 9.70792 61.7907C9.70168 61.7616 9.7173 61.7335 9.74125 61.7272Z" fill="#7CADB0"/>
<path d="M25.2941 63.7165C25.2358 63.68 25.1774 63.6613 25.1389 63.6832C25.0962 63.7082 25.0608 63.7654 25.0275 63.7998C24.8202 64.0071 24.5983 64.2008 24.364 64.381C24.1297 64.5612 23.8787 64.7393 23.6204 64.8965C23.1059 65.2131 22.5559 65.4746 21.9914 65.6693C21.6467 65.8006 21.2968 65.911 20.9447 65.9953C20.8447 66.0193 20.8812 66.0974 20.9843 66.0766C21.3218 66.0109 21.655 65.938 21.9873 65.8558C22.3164 65.7808 22.6518 65.6808 23.0069 65.5329C23.361 65.3871 23.7401 65.1829 24.1463 64.9247C24.5525 64.6695 24.9952 64.3435 25.4951 63.9227C25.5118 63.9071 25.4045 63.7842 25.2941 63.7165Z" fill="#7CADB0"/>
<path d="M23.8956 63.0335C22.8999 63.6636 21.849 64.3187 20.7294 64.7343C20.4075 64.8644 20.0795 64.98 19.7483 65.0707C19.6472 65.0988 19.7243 65.1831 19.8264 65.155C20.1295 65.0696 20.444 64.9821 20.7658 64.8926C21.0908 64.8061 21.4345 64.7009 21.8 64.5624C22.5374 64.2729 23.3394 63.9115 24.2882 63.2886C24.3778 63.2313 23.983 62.9772 23.8956 63.0335Z" fill="#7CADB0"/>
<path d="M22.3541 62.4254C21.8292 62.7368 21.2845 63.0003 20.7127 63.2628C20.4284 63.3888 20.1419 63.5054 19.8524 63.6096C19.7076 63.6617 19.5629 63.7116 19.417 63.7585C19.2702 63.8095 19.1213 63.8627 18.9734 63.9106C18.6359 64.0199 18.2974 64.1147 17.9589 64.1939C17.8558 64.2178 17.9308 64.2991 18.035 64.2751C18.3443 64.2053 18.6911 64.1262 19.0567 64.0428C19.1504 64.0199 19.2452 63.997 19.341 63.9741C19.4368 63.9533 19.5337 63.9324 19.6306 63.9116C19.8264 63.8679 20.0274 63.8168 20.2326 63.7596C20.4377 63.7012 20.6471 63.6356 20.8585 63.5606C20.9647 63.5231 21.071 63.4825 21.1772 63.4398C21.2824 63.4013 21.3876 63.3607 21.4938 63.3169C21.9177 63.1409 22.3458 62.917 22.7634 62.6285C22.852 62.567 22.4447 62.3712 22.3541 62.4254Z" fill="#7CADB0"/>
<path d="M20.5866 61.8794C20.2721 62.0002 19.9783 62.1096 19.6836 62.246C19.3909 62.3783 19.1056 62.5074 18.8191 62.6283C18.5327 62.7491 18.2463 62.8574 17.9495 62.9553C17.6495 63.0646 17.3402 63.1584 17.0121 63.2302C16.6434 63.3146 16.3216 63.4271 15.9435 63.474C15.8331 63.4854 15.8102 63.5646 15.9206 63.5531C16.2622 63.5094 16.6007 63.4771 16.9423 63.4104C17.2829 63.3459 17.6266 63.2563 17.9672 63.1573C18.64 62.9907 19.3149 62.7428 19.945 62.5054C20.3075 62.3741 20.7532 62.2418 21.1261 62.1054C21.2323 62.0669 20.6907 61.8409 20.5866 61.8794Z" fill="#7CADB0"/>
<path d="M15.9634 61.1276L15.9363 61.1245C15.7822 61.1068 15.5989 61.2557 15.4624 61.3234C15.2843 61.413 15.1052 61.489 14.925 61.5671C14.5553 61.7359 14.1835 61.8754 13.8148 61.9994C13.5575 62.0879 13.3023 62.1566 13.0482 62.2525C12.942 62.2899 12.9118 62.4066 13.017 62.3691L13.2732 62.2795L13.5304 62.2056C13.7033 62.1556 13.8773 62.1066 14.0491 62.0566C14.397 61.9587 14.749 61.8379 15.101 61.7296C15.2989 61.6692 15.4979 61.6025 15.6968 61.5265C15.7926 61.4901 15.8884 61.4505 15.9832 61.4088C16.0717 61.3703 16.1728 61.3536 16.203 61.238C16.2061 61.2266 16.2082 61.213 16.204 61.2026C16.1998 61.1932 16.1915 61.187 16.1842 61.1818C16.1498 61.1609 16.1103 61.1526 16.0707 61.1453C16.0353 61.137 15.9999 61.1318 15.9634 61.1276Z" fill="#7CADB0"/>
<path d="M13.0491 61.2193C13.0252 61.2047 12.995 61.2068 12.9689 61.2182C12.794 61.2943 12.6336 61.438 12.4669 61.5307C12.2868 61.6307 12.1014 61.714 11.9118 61.7744C11.8045 61.8077 11.8306 61.8744 11.9358 61.8411C12.142 61.7754 12.3472 61.6952 12.5503 61.6005C12.6482 61.5546 12.7461 61.5046 12.844 61.4515C12.9242 61.4067 13.0471 61.3724 13.0637 61.2547C13.0637 61.2474 13.0648 61.2391 13.0491 61.2193Z" fill="#7CADB0"/>
<path d="M18.3453 61.3473C18.0475 61.5265 17.76 61.7139 17.4642 61.8847C17.1799 62.0493 16.8758 62.1795 16.5664 62.292C15.9238 62.5503 15.4468 62.7919 14.8146 63.0117C14.7125 63.0492 14.6094 63.1898 14.7115 63.1471C15.0364 63.0304 15.3624 62.9138 15.6843 62.7992C15.8499 62.7377 16.0134 62.6763 16.1759 62.6159C16.3404 62.5513 16.5039 62.4867 16.6664 62.4295C16.9632 62.3191 17.5652 62.166 17.8444 62.0097C17.9995 61.9233 18.1589 61.8358 18.3162 61.7546C18.4734 61.6764 18.6297 61.5962 18.7848 61.5098C18.8786 61.4588 18.4391 61.2911 18.3453 61.3473Z" fill="#7CADB0"/>
<path d="M25.4776 63.8352C25.4141 63.8102 25.3662 63.7706 25.3672 63.7133C25.3683 63.6498 25.4058 63.5654 25.4203 63.5009C25.5984 62.7343 25.6797 61.9271 25.6286 61.1491C25.5787 60.3732 25.4089 59.5983 25.1193 58.8474C25.0756 58.7349 25.0298 58.6235 24.9808 58.5131C24.9308 58.4058 24.8777 58.2996 24.8215 58.1944C24.71 57.9829 24.5882 57.7757 24.4559 57.5715C24.3809 57.4559 24.4913 57.407 24.5684 57.5247C25.0506 58.2475 25.4651 58.9911 25.7203 59.9576C25.9786 60.9117 26.0452 62.1531 25.7776 63.8498C25.7724 63.8779 25.5974 63.8821 25.4776 63.8352Z" fill="#7CADB0"/>
<path d="M24.1807 63.1452C24.1693 62.387 24.087 61.6194 23.9193 60.8664C23.7464 60.128 23.4944 59.3958 23.1621 58.6813C22.9768 58.2689 22.7424 57.9022 22.4789 57.5367C22.3977 57.4263 22.5435 57.3929 22.6258 57.5044C23.1069 58.1408 23.5746 58.8875 23.9422 59.7947C24.0329 60.0238 24.1193 60.2602 24.1922 60.5164C24.2641 60.7768 24.3276 61.0507 24.3786 61.3403C24.4817 61.9194 24.539 62.5599 24.5328 63.2754C24.5328 63.4087 24.1828 63.2785 24.1807 63.1452Z" fill="#7CADB0"/>
<path d="M22.5635 62.4866C22.5083 62.1116 22.4312 61.7388 22.3333 61.368C22.2844 61.1826 22.2302 60.9993 22.1698 60.816C22.1094 60.6337 22.0417 60.4608 21.9688 60.2848C21.6772 59.5901 21.3043 58.8986 20.8398 58.2757C20.5742 57.9279 20.2816 57.5915 19.967 57.2696C19.8702 57.1707 20.0035 57.1238 20.1003 57.2228C20.3836 57.5123 20.6992 57.8258 21.0158 58.1726C21.3293 58.533 21.6407 58.935 21.924 59.3724C22.0657 59.5912 22.2 59.8203 22.324 60.0598C22.4458 60.3036 22.5531 60.5671 22.6479 60.8368C22.8364 61.3784 22.9645 61.9648 23.0072 62.6011C23.0166 62.7344 22.5822 62.6178 22.5635 62.4866Z" fill="#7CADB0"/>
<path d="M20.9407 61.9528C20.622 61.2435 20.3263 60.5322 19.9471 59.8979C19.5691 59.2584 19.1285 58.6179 18.5036 58.1055C18.1547 57.8097 17.861 57.4743 17.4496 57.2504C17.3288 57.191 17.3371 57.0785 17.46 57.1379C17.8339 57.341 18.1901 57.5784 18.5244 57.842C18.6921 57.9732 18.8536 58.1117 19.0098 58.2544C19.166 58.395 19.3129 58.5606 19.4556 58.7179C20.0242 59.3657 20.5023 60.0468 20.8626 60.778C21.0751 61.1925 21.3355 61.6622 21.5167 62.0767C21.5667 62.1934 20.9928 62.0705 20.9407 61.9528Z" fill="#7CADB0"/>
<path d="M16.8705 61.2189C16.558 60.6638 16.1706 60.2201 15.7352 59.8003C15.2999 59.3723 14.8052 59.04 14.274 58.6984C14.1636 58.6286 14.1532 58.4641 14.2636 58.5349C14.5312 58.7047 14.8239 58.8901 15.1249 59.0807C15.4217 59.2713 15.7175 59.5046 16.0008 59.7306C16.2831 59.9607 16.5518 60.2013 16.7871 60.4523C17.0215 60.7127 17.2225 60.9908 17.3766 61.272C17.4381 61.3845 16.934 61.3324 16.8705 61.2189Z" fill="#7CADB0"/>
<path d="M14.2573 61.0919C13.8938 60.5659 13.498 60.0223 12.9429 59.7327C12.8325 59.6733 12.8669 59.5848 12.9762 59.6452C13.5449 59.9389 14.0313 60.4212 14.4031 60.9565C14.4771 61.0617 14.3302 61.1971 14.2573 61.0919Z" fill="#7CADB0"/>
<path d="M18.8513 61.4678C18.8128 61.373 18.7597 61.2147 18.6712 60.996C18.5837 60.7741 18.4566 60.5044 18.266 60.1846C17.8827 59.5452 17.2589 58.6599 16.1049 57.6954C16.0028 57.6079 15.932 57.3913 16.0351 57.4798C16.1965 57.6131 16.4652 57.8339 16.7902 58.1006C16.9495 58.236 17.1224 58.3755 17.2953 58.5422C17.4682 58.7099 17.6463 58.888 17.8202 59.0733C18.1671 59.4472 18.5035 59.8399 18.768 60.2628C19.0315 60.6898 19.2284 61.122 19.3179 61.5334C19.344 61.6615 18.9013 61.5896 18.8513 61.4678Z" fill="#7CADB0"/>
<path d="M40.4617 72.0926C39.5951 73.6517 38.7942 75.2359 37.9954 76.8106L37.5256 76.569C38.3224 74.9963 39.1233 73.4111 39.9951 71.8426C40.2086 71.4489 40.4429 71.0625 40.6658 70.6709C40.8949 70.2824 41.1386 69.8992 41.374 69.5128C41.6281 69.1357 41.8708 68.7514 42.1343 68.3786L42.5343 67.8224L42.7353 67.5443L42.9477 67.2746C44.0674 65.8248 45.3463 64.4906 46.7149 63.2887C47.0523 62.9815 47.4085 62.7023 47.7543 62.4076C48.1022 62.1149 48.4646 61.8472 48.8177 61.566C49.1708 61.2817 49.5395 61.0286 49.8988 60.7568C50.2477 60.4902 50.6487 60.2194 51.0476 59.959L51.3413 60.3985C51.1924 60.487 51.0538 60.5901 50.9101 60.6849C50.7695 60.7828 50.6185 60.8766 50.4883 60.9776L49.6822 61.5733C49.4114 61.7681 49.1489 61.9774 48.8854 62.1837C48.624 62.393 48.3532 62.5898 48.098 62.8086C47.0555 63.6543 46.0608 64.5687 45.1287 65.5436C44.1986 66.5195 43.3383 67.5651 42.5738 68.6723C41.8042 69.7784 41.1136 70.9282 40.4617 72.0926Z" fill="#255259"/>
<path d="M46.3744 60.7125C46.7326 61.252 47.2774 61.3552 47.8835 61.3135C48.1856 61.2895 48.5032 61.2229 48.8188 61.1416C49.1333 61.0646 49.4572 60.9844 49.7614 60.9094C49.6968 60.9261 49.3989 61.2312 49.1052 61.5645C48.8146 61.904 48.5261 62.2623 48.4511 62.3613C48.2126 62.6685 48.0616 63.0309 47.9752 63.384C47.8898 63.7402 47.8731 64.0954 47.9221 64.4287C48.0658 65.3618 48.6751 66.0534 49.4812 66.4544C49.8936 66.6596 50.3613 66.7981 50.8247 66.8627C51.0591 66.896 51.2893 66.9095 51.5257 66.9095C51.7663 66.9106 52.0058 66.895 52.2402 66.8616C52.7786 66.7814 53.3285 66.6283 53.8462 66.4096L54.0389 66.3242L54.1326 66.2805L54.2003 66.2576C54.2899 66.2263 54.3763 66.1909 54.4607 66.1524C54.5429 66.1097 54.6294 66.0784 54.7117 66.0388C54.7939 66.0003 54.8741 65.9555 54.9523 65.9118C55.296 65.7389 55.6511 65.5358 56.0313 65.3327C56.4135 65.1369 56.8166 64.9307 57.2436 64.7286C57.6706 64.5307 58.1216 64.3464 58.5819 64.1631C59.0423 63.9798 59.512 63.8256 59.9692 63.6559C60.8524 63.3497 61.871 63.1528 62.9677 63.082C64.0613 63.0184 65.2341 63.0716 66.437 63.2288C67.6368 63.3892 68.8679 63.6486 70.1073 63.9496C71.3488 64.2495 72.5955 64.5943 73.8609 64.8765C73.4266 63.7923 72.8163 62.7529 72.106 61.7738C71.3946 60.7927 70.5843 59.872 69.7313 58.9795C67.9774 57.1402 65.8298 55.5237 63.2469 54.5343C60.6452 53.5292 57.6362 53.2178 54.7013 53.7094C53.6608 53.8886 52.6266 54.1531 51.6361 54.5301C50.6498 54.9144 49.701 55.3883 48.8396 55.9695C48.5678 56.1466 48.3126 56.3476 48.0585 56.5444L47.871 56.6944C47.8064 56.7465 47.7731 56.784 47.7231 56.8298C47.6315 56.9183 47.5419 57.0079 47.4544 57.0985C47.1055 57.4662 46.7962 57.8359 46.5587 58.2629C46.2483 58.817 46.0786 59.4107 46.1202 59.9397C46.1452 60.2272 46.2265 60.4897 46.3744 60.7125Z" fill="#255259"/>
<path d="M72.0977 63.739C69.1929 60.7686 65.4435 58.8908 61.568 58.3388C59.6308 58.0607 57.6581 58.1305 55.7709 58.545C53.8827 58.9574 52.085 59.724 50.4738 60.7634C50.3624 60.8374 50.2228 60.8228 50.1634 60.7301C50.103 60.6374 50.1457 60.502 50.2582 60.427C50.2592 60.426 50.2613 60.4249 50.2613 60.4249C51.9215 59.3845 53.7671 58.6252 55.698 58.2284C57.6269 57.8295 59.6329 57.7847 61.594 58.0899C65.5174 58.696 69.2773 60.6384 72.1643 63.6609C72.1914 63.689 72.1987 63.7286 72.18 63.7494C72.1602 63.7713 72.1247 63.7661 72.0977 63.739Z" fill="#7CADB0"/>
<path d="M51.2227 60.0817C51.3071 60.0411 51.3768 59.9932 51.3893 59.9453C51.4029 59.8922 51.3789 59.8328 51.3768 59.7828C51.3643 59.4881 51.3831 59.1715 51.4497 58.8559C51.5154 58.5413 51.6216 58.2153 51.7695 57.88C51.9195 57.5519 52.1163 57.227 52.3538 56.8916C52.5964 56.5687 52.8839 56.2438 53.2193 55.9324C53.4213 55.7511 53.639 55.5699 53.8713 55.3918C54.1056 55.22 54.3576 55.0585 54.6222 54.8971C54.7742 54.8054 54.643 54.7773 54.4837 54.8679C54.2233 55.021 53.9702 55.1596 53.7317 55.3231C53.4932 55.4835 53.2641 55.6459 53.0464 55.8115C52.6173 56.1646 52.2288 56.526 51.908 56.9572C51.581 57.3717 51.3268 57.8602 51.1383 58.3851C51.0477 58.6538 50.979 58.9413 50.929 59.2402C50.879 59.5391 50.8509 59.8526 50.854 60.1942C50.8571 60.2213 51.0602 60.1536 51.2227 60.0817Z" fill="#7CADB0"/>
<path d="M53.1589 59.1759C53.6474 57.9688 54.4774 56.7086 55.9824 55.7181C56.1959 55.5827 56.4209 55.4514 56.6594 55.3233C56.8979 55.1963 57.1489 55.09 57.4124 54.9807C57.5728 54.9151 57.3833 54.8734 57.2208 54.9401C56.2772 55.3265 55.3138 55.8201 54.4764 56.5429C53.6411 57.2595 52.9339 58.1885 52.5413 59.3561C52.5059 59.4623 53.1162 59.2832 53.1589 59.1759Z" fill="#7CADB0"/>
<path d="M55.3325 58.4964C55.5366 58.209 55.7793 57.9538 56.0501 57.6851C56.3219 57.4226 56.6281 57.1831 56.9656 56.9446C57.6405 56.4915 58.4456 56.0916 59.3569 55.8187C59.8735 55.6666 60.4244 55.5406 60.9983 55.4677C61.1743 55.4437 61.016 55.3646 60.8379 55.3896C59.8047 55.5323 58.5414 55.7906 57.3999 56.3207C56.2563 56.8425 55.2565 57.632 54.7107 58.6027C54.6545 58.6974 55.2617 58.5943 55.3325 58.4964Z" fill="#7CADB0"/>
<path d="M57.8572 58.1082C58.2144 57.9051 58.5695 57.6905 58.933 57.5156C59.1153 57.426 59.3007 57.3312 59.4882 57.2521C59.6767 57.1729 59.8694 57.0958 60.0672 57.0229C60.8577 56.7449 61.743 56.5376 62.8064 56.5428C63.1053 56.5428 63.3876 56.5438 63.6782 56.548C63.9677 56.5553 64.2583 56.5897 64.5759 56.649C64.7613 56.6855 64.804 56.6178 64.6176 56.5803C63.4699 56.3387 62.3148 56.3189 61.2598 56.4761C60.2026 56.6303 59.2497 56.9521 58.4539 57.3396C58.2227 57.4572 57.9717 57.5781 57.727 57.7093C57.4833 57.8457 57.2468 57.9843 57.0437 58.1155C56.9323 58.1905 57.7395 58.1769 57.8572 58.1082Z" fill="#7CADB0"/>
<path d="M64.3311 58.9333L64.3676 58.9468C64.4707 58.9843 64.5915 58.9854 64.7113 58.9781C64.83 58.9729 64.9487 58.9583 65.0487 58.9572C65.3101 58.9562 65.5799 58.9614 65.8465 58.9958C66.3975 59.052 66.9568 59.1728 67.5129 59.3384C67.7056 59.3978 67.8993 59.4603 68.0941 59.5259C68.2847 59.5967 68.4753 59.6728 68.6669 59.7488C68.8263 59.8134 68.9242 59.7446 68.7638 59.679C67.7369 59.253 66.687 58.9093 65.6403 58.7458C65.3424 58.7062 65.0498 58.6708 64.7592 58.6562C64.6175 58.6521 64.478 58.651 64.3405 58.6542C64.2124 58.6573 64.0718 58.6333 64.0176 58.7344C64.0124 58.7448 64.0072 58.7562 64.0124 58.7687C64.0166 58.7791 64.027 58.7885 64.0374 58.7968C64.0822 58.8302 64.1343 58.8531 64.1874 58.875L64.3311 58.9333Z" fill="#7CADB0"/>
<path d="M68.1764 60.6088C68.1993 60.6401 68.2379 60.663 68.2754 60.6755C68.5222 60.7619 68.7899 60.79 69.045 60.8671C69.32 60.9515 69.5856 61.0733 69.8533 61.2139C70.0032 61.2941 70.0136 61.2212 69.8637 61.141C69.571 60.9869 69.2835 60.8411 68.9794 60.7369C68.8336 60.6838 68.6878 60.6359 68.543 60.5932C68.4243 60.5557 68.2535 60.4849 68.1764 60.5682C68.1712 60.5734 68.166 60.5797 68.1764 60.6088Z" fill="#7CADB0"/>
<path d="M61.0526 58.2339C61.2452 58.1537 61.4358 58.0746 61.6285 57.9944C61.8243 57.9173 62.0233 57.8538 62.2326 57.7902C62.6367 57.6642 63.0825 57.6121 63.5595 57.5799C63.8063 57.5715 64.0375 57.5642 64.2615 57.5559C64.4896 57.5486 64.7062 57.558 64.9301 57.5621C65.154 57.5663 65.38 57.5778 65.6133 57.6038C65.8466 57.6288 66.0956 57.6507 66.3549 57.6996C66.5215 57.7298 66.7163 57.6715 66.5465 57.6403C65.4759 57.4486 64.4042 57.358 63.4053 57.4195C63.1741 57.4392 62.8367 57.4424 62.5055 57.4757C62.1732 57.5122 61.8566 57.5486 61.6629 57.6173C61.4494 57.6903 61.2348 57.7642 61.0213 57.8371C60.812 57.9131 60.6068 58.0037 60.4141 58.0944C60.2985 58.1537 60.9349 58.2745 61.0526 58.2339Z" fill="#7CADB0"/>
<path d="M50.9539 60.2133C51.03 60.1571 51.1081 60.1248 51.1633 60.1529C51.2237 60.1821 51.2737 60.255 51.3226 60.2977C51.909 60.8164 52.5454 61.259 53.1994 61.6881C53.3609 61.7933 53.5223 61.8933 53.6848 61.9922C53.8483 62.0964 54.0118 62.1964 54.1733 62.2932C54.494 62.4807 54.819 62.6765 55.1325 62.8536C55.3189 62.9546 55.5085 63.0702 55.6918 63.1712C55.7813 63.2202 55.872 63.2691 55.9647 63.3191C56.0532 63.3691 56.1438 63.4201 56.2354 63.4722C56.3365 63.5285 56.2917 63.6222 56.1886 63.5649C55.5449 63.2233 54.8669 62.9306 54.0274 62.4901C53.1849 62.0537 52.159 61.4246 50.6988 60.5101C50.6727 60.4956 50.8092 60.3175 50.9539 60.2133Z" fill="#7CADB0"/>
<path d="M52.7744 59.3481C54.1107 60.2073 55.448 61.0603 56.6312 61.929C56.7936 62.0466 56.9603 62.1675 57.1311 62.2914C57.2904 62.4039 57.455 62.5195 57.6227 62.6372C57.7216 62.707 57.6206 62.7872 57.5206 62.7163C56.9353 62.3216 56.251 61.9383 55.4147 61.4467C54.5763 60.9572 53.5858 60.3729 52.312 59.5783C52.2527 59.5418 52.337 59.4637 52.4516 59.4023C52.5682 59.3429 52.7161 59.3106 52.7744 59.3481Z" fill="#7CADB0"/>
<path d="M55.0451 58.5794C55.3534 58.8117 55.6783 59.0564 56.0199 59.3137C56.1772 59.4314 56.3376 59.5511 56.5021 59.673C56.6584 59.7917 56.8177 59.9136 56.9802 60.0386C57.2947 60.2687 57.6082 60.5281 57.9123 60.752C58.2186 61.002 58.5164 61.2217 58.8101 61.4644C58.9768 61.5977 59.1413 61.7227 59.3028 61.8602C59.4642 61.9966 59.6256 62.1132 59.7829 62.2518C59.8787 62.333 59.7662 62.3945 59.6704 62.3122C59.1028 61.8529 58.3237 61.3665 57.4239 60.8124C56.5251 60.2531 55.496 59.6344 54.4514 58.7846C54.3972 58.7408 54.5149 58.6648 54.6628 58.6096C54.8097 58.5565 54.9888 58.5377 55.0451 58.5794Z" fill="#7CADB0"/>
<path d="M57.3634 58.1764C58.1268 58.6669 58.7465 59.2325 59.3391 59.7688C59.9317 60.3136 60.4952 60.8541 61.1316 61.3696C61.4898 61.6623 61.7554 62.0018 62.121 62.2539C62.2272 62.3299 62.2022 62.4351 62.097 62.3591C61.4419 61.8998 60.7889 61.3676 60.1036 60.8187C59.4214 60.2729 58.7069 59.7001 57.9883 59.1866C57.5737 58.8867 57.0311 58.5742 56.5676 58.3128C56.4343 58.2357 57.2353 58.0816 57.3634 58.1764Z" fill="#7CADB0"/>
<path d="M63.097 58.5498C63.9333 59.7704 64.8404 60.8067 65.683 61.943C65.7674 62.0638 65.7101 62.2096 65.6278 62.0909C65.2102 61.5181 64.6467 60.8765 64.0551 60.2474C63.4667 59.6142 62.8449 59.0101 62.395 58.4008C62.3044 58.2748 63.0105 58.4269 63.097 58.5498Z" fill="#7CADB0"/>
<path d="M66.5944 59.8384C66.8819 60.5446 67.1214 61.258 67.5526 61.9048C67.637 62.036 67.5547 62.0808 67.4724 61.9506C67.3641 61.7819 67.2548 61.6205 67.1548 61.4476C67.0548 61.2747 66.9579 61.1018 66.8632 60.931C66.7694 60.7581 66.6809 60.581 66.5986 60.4008C66.5132 60.2259 66.433 60.0488 66.3591 59.8686C66.3007 59.727 66.5361 59.6968 66.5944 59.8384Z" fill="#7CADB0"/>
<path d="M60.3316 58.1394C60.4795 58.3186 60.768 58.7269 61.2992 59.3695C61.821 60.0215 62.5959 60.8953 63.503 62.1201C63.5832 62.2305 63.5947 62.4492 63.5176 62.3399C63.3979 62.1597 63.176 61.9014 62.8938 61.5681C62.7459 61.4067 62.5855 61.2307 62.4178 61.0484C62.2387 60.863 62.0533 60.6714 61.8658 60.4776C61.671 60.2881 61.47 60.0881 61.269 59.885C61.0659 59.6913 60.8639 59.4892 60.6691 59.2882C60.4733 59.0956 60.2869 58.8987 60.1192 58.7008C59.9504 58.505 59.7994 58.3196 59.6797 58.128C59.6036 58.0093 60.2369 58.0165 60.3316 58.1394Z" fill="#7CADB0"/>
<path d="M33.4116 52.8555C36.5393 59.2483 37.8964 66.4139 37.9922 73.5305" stroke="#538087" stroke-width="5.3025" stroke-miterlimit="10"/>
<path d="M30.809 59.8449C29.7914 59.9616 28.9895 59.696 28.3937 59.2971C27.7698 58.9013 27.3605 58.3577 27.0585 57.8681C26.9502 57.6828 26.8596 57.4922 26.7835 57.2964C26.695 57.1047 26.619 56.9079 26.5513 56.7079C26.4242 56.3048 26.2888 55.9007 26.1461 55.4977C25.0661 52.5231 24.1673 49.6735 23.3799 47.1489C22.5935 44.6482 21.9197 42.5142 21.7051 41.281C21.6937 41.2123 21.7093 41.1425 21.7718 41.1009C22.5842 40.5624 23.7861 40.2166 25.1432 40.1562C25.8264 40.1197 26.5586 40.1385 27.2908 40.2281C28.0365 40.3051 28.7864 40.4478 29.5206 40.6322C30.9996 40.9905 32.3931 41.5383 33.4982 42.0507C34.5928 42.5694 35.4073 43.0391 35.7176 43.2287C36.8727 43.9317 38.1058 44.9763 39.139 46.224C40.1961 47.4572 41.0533 48.8862 41.6188 50.2172C42.1333 51.4691 42.3791 52.871 42.1021 54.1791C41.9802 54.7405 41.7646 55.2769 41.4668 55.7487C41.1585 56.2246 40.7637 56.6392 40.3055 56.962C39.4129 57.5911 38.3068 57.8067 37.2497 57.6015C36.4904 57.4505 35.7707 57.0964 35.3219 56.5652C35.2542 56.4767 35.0115 56.1549 34.7823 55.8507C34.5459 55.5456 34.3335 55.2519 34.3449 55.1935C34.2376 55.7591 34.2116 56.2996 34.0929 56.835C33.9845 57.3672 33.8179 57.8827 33.419 58.3816C32.8326 59.1305 31.8838 59.7231 30.809 59.8449Z" fill="#538087"/>
<path d="M22.7133 41.0784C25.3556 42.3897 27.7896 44.2842 29.8216 46.5828C31.8567 48.8814 33.4658 51.6081 34.4875 54.5473C34.5219 54.6556 34.4459 54.7774 34.3188 54.8212C34.1907 54.8649 34.0605 54.8139 34.0262 54.7077L34.0251 54.7045C33.5502 53.2558 32.9315 51.8518 32.19 50.5177C31.4463 49.1845 30.5569 47.9378 29.5841 46.7765C27.6209 44.4665 25.2473 42.5407 22.6487 41.1836C22.6247 41.1711 22.6195 41.1378 22.6372 41.1086C22.6549 41.0795 22.6883 41.067 22.7133 41.0784Z" fill="#9FC4C6"/>
<path d="M33.9583 53.8944C33.9395 53.8225 33.902 53.7652 33.8364 53.7621C33.7635 53.7579 33.6615 53.7923 33.5865 53.8038C32.6804 53.9423 31.7784 53.9954 30.891 53.9892C30.0068 53.9829 29.1819 53.8985 28.3779 53.7736C27.8998 53.6965 27.4447 53.5986 27.0187 53.4778C26.8979 53.4434 26.8406 53.5434 26.9593 53.5819C27.7467 53.8423 28.5122 54.0944 29.5444 54.236C30.5973 54.3714 31.9273 54.3912 33.9291 54.2225C33.9625 54.2193 33.9947 54.0308 33.9583 53.8944Z" fill="#9FC4C6"/>
<path d="M33.3335 52.3188C32.4638 52.3167 31.5817 52.3167 30.7287 52.2865C29.8798 52.2532 29.0581 52.1907 28.2634 52.0824C27.8135 52.021 27.3969 51.9324 26.9803 51.8345C26.8542 51.8043 26.8282 51.9366 26.9563 51.9668C28.4155 52.3532 30.1225 52.8302 33.4314 52.8271C33.5855 52.8271 33.4866 52.3188 33.3335 52.3188Z" fill="#9FC4C6"/>
<path d="M32.5157 50.7107C31.644 50.693 30.7795 50.6409 29.9672 50.5409C29.1485 50.444 28.3445 50.3222 27.6092 50.1493C27.177 50.0597 26.7624 49.9566 26.3656 49.84C26.2448 49.8045 26.2198 49.9368 26.3417 49.9722C27.7935 50.3722 29.7214 51.2689 32.6761 51.1845C32.8313 51.1804 32.6668 50.7138 32.5157 50.7107Z" fill="#9FC4C6"/>
<path d="M31.444 49.0062C30.5691 48.8573 29.7515 48.7739 28.9423 48.6792C28.5423 48.6292 28.1528 48.5709 27.7747 48.4907C27.3883 48.4178 27.0082 48.3251 26.6416 48.199C26.2333 48.0532 25.7959 48.0022 25.4376 47.8043C25.3334 47.746 25.2241 47.821 25.3282 47.8793C26.6145 48.5917 28.3923 48.9635 30.1129 49.2676C30.6066 49.3551 31.2003 49.4874 31.6991 49.5926C31.847 49.6165 31.595 49.0281 31.444 49.0062Z" fill="#9FC4C6"/>
<path d="M28.2049 45.0744C26.7749 45.0869 25.5907 44.815 24.3868 44.5151C24.2639 44.4838 24.1128 44.5994 24.2347 44.6296C25.4491 44.9213 27.053 45.517 28.4945 45.543C28.6413 45.5451 28.3508 45.0733 28.2049 45.0744Z" fill="#9FC4C6"/>
<path d="M26.046 43.1805C25.3325 43.2409 24.5983 43.343 23.9775 43.1784C23.8536 43.1461 23.8025 43.242 23.9254 43.2742C24.5628 43.4388 25.2846 43.468 26.0157 43.4055C26.1616 43.3919 26.1907 43.167 26.046 43.1805Z" fill="#9FC4C6"/>
<path d="M29.9642 46.9845C29.4976 46.9886 29.0247 46.9938 28.5665 46.998C28.1238 46.998 27.7187 46.9386 27.3031 46.8782C26.4512 46.7533 25.8013 46.6949 24.9931 46.5679C24.865 46.546 24.6285 46.6356 24.7566 46.6554C25.5763 46.7772 26.372 46.9657 27.2417 47.0907C27.6322 47.1522 28.3342 47.373 28.7623 47.3834C29.2435 47.3907 29.7028 47.4334 30.185 47.4448C30.3329 47.449 30.111 46.9876 29.9642 46.9845Z" fill="#9FC4C6"/>
<path d="M34.0408 54.1135C34.0064 54.0469 33.9971 53.9802 34.0429 53.9334C34.0939 53.8813 34.1929 53.8375 34.2564 53.7948C35.0167 53.2835 35.7208 52.67 36.2988 51.9774C36.8727 51.29 37.3528 50.5099 37.6965 49.6673C37.8944 49.1674 38.0465 48.6435 38.1517 48.103C38.1808 47.9488 38.3121 47.9894 38.2818 48.1457C38.0985 49.1184 37.8892 50.036 37.3247 51.0411C36.78 52.0336 35.8562 53.122 34.2835 54.3406C34.2564 54.3614 34.1054 54.2385 34.0408 54.1135Z" fill="#9FC4C6"/>
<path d="M33.4982 52.6101C34.699 51.3196 35.6239 49.799 36.178 48.1118C36.3321 47.6358 36.4477 47.1421 36.5196 46.636C36.5415 46.4818 36.6873 46.561 36.6654 46.7172C36.4186 48.5149 36.0145 50.5718 33.6888 52.9736C33.5815 53.084 33.393 52.7236 33.4982 52.6101Z" fill="#9FC4C6"/>
<path d="M32.6671 50.8994C33.6794 49.4757 34.3397 47.8301 34.5522 46.0887C34.6199 45.5898 34.6262 45.1003 34.6178 44.5952C34.6137 44.441 34.7626 44.4973 34.7668 44.6514C34.8272 46.449 34.8699 49.0372 32.941 51.3192C32.842 51.4368 32.5785 51.0234 32.6671 50.8994Z" fill="#9FC4C6"/>
<path d="M31.7422 49.2852C32.3223 47.6313 32.9389 46.0596 32.741 44.2526C32.6795 43.7496 32.715 43.2361 32.5285 42.7601C32.4754 42.6206 32.5723 42.5289 32.6254 42.6706C33.2649 44.439 33.1295 46.4971 32.5994 48.2354C32.4598 48.7342 32.2973 49.3237 32.1088 49.8091C32.0557 49.9455 31.6912 49.4227 31.7422 49.2852Z" fill="#9FC4C6"/>
<path d="M28.9386 45.7584C29.1042 45.0679 29.1562 44.3889 29.1198 43.7171C29.0688 43.0578 28.9573 42.3819 28.775 41.7101C28.7376 41.5716 28.8563 41.4226 28.8948 41.5611C29.0813 42.2454 29.2802 43.0505 29.3937 43.8473C29.4885 44.6596 29.5166 45.4502 29.3166 46.1636C29.2771 46.3052 28.9084 45.8959 28.9386 45.7584Z" fill="#9FC4C6"/>
<path d="M26.896 43.7714C27.0043 43.0601 27.0877 42.3164 26.8773 41.6478C26.8325 41.5165 26.9294 41.4645 26.9731 41.5957C27.1866 42.2862 27.2387 43.0257 27.121 43.762C27.096 43.9068 26.8741 43.9141 26.896 43.7714Z" fill="#9FC4C6"/>
<path d="M30.381 47.3848C30.4591 47.1692 30.7174 46.689 30.9059 45.8673C31.0017 45.4538 31.0882 44.9487 31.1361 44.331C31.1736 43.7218 31.1621 43.0073 31.0757 42.1616C31.0569 42.0147 31.1653 41.7773 31.184 41.9262C31.235 42.4042 31.4204 43.451 31.4121 44.5893C31.4163 45.7246 31.2215 46.9421 30.7174 47.7701C30.6403 47.8993 30.3268 47.5233 30.381 47.3848Z" fill="#9FC4C6"/>
<path d="M52.1963 99.986C52.0796 101.394 51.5505 102.717 51.0079 103.995C49.6133 107.292 48.0719 110.514 46.3899 113.642H30.3089C28.63 110.513 27.0896 107.292 25.6898 103.995C25.1472 102.716 24.6181 101.394 24.5056 99.986C24.2473 96.8177 26.4334 93.6453 29.2362 93.112C28.0009 91.506 26.9636 89.4199 27.3812 87.3577C27.9666 84.4737 30.9192 83.1947 33.4637 82.3772L32.3013 69.7676H44.4006L43.2341 82.3772C45.7774 83.1947 48.7353 84.4727 49.3165 87.3577C49.7341 89.4199 48.701 91.506 47.4616 93.112C50.2643 93.6453 52.4504 96.8188 52.1963 99.986Z" fill="#F9B9AD"/>
<path d="M161.015 63.5326C157.69 64.6982 154.409 65.9931 151.229 67.5033C149.644 68.2654 148.075 69.0652 146.552 69.9426C145.031 70.8259 143.538 71.7563 142.101 72.7701C140.67 73.7887 139.274 74.859 137.949 76.0139C136.632 77.1748 135.364 78.3933 134.184 79.6941C133.014 81.002 131.915 82.3734 130.918 83.8177C129.937 85.2714 129.054 86.7898 128.281 88.3635L127.719 88.093C128.506 86.4899 129.406 84.9445 130.404 83.4649C131.418 81.997 132.534 80.6033 133.722 79.2754C134.919 77.9558 136.205 76.7196 137.54 75.5435C138.882 74.3732 140.294 73.29 141.742 72.2597C143.196 71.2352 144.705 70.2943 146.241 69.4016C147.781 68.5148 149.363 67.708 150.962 66.9399C154.167 65.418 157.469 64.1148 160.809 62.9434L161.015 63.5326Z" fill="#889E85"/>
<path d="M146.837 55.0488C146.837 55.0488 146.669 55.2535 146.408 55.5699C146.149 55.8898 145.8 56.3108 145.441 56.7731C145.082 57.2353 144.714 57.7187 144.407 58.1315C144.102 58.5443 143.858 58.9043 143.744 59.0889C143.341 59.7511 142.964 60.425 142.613 61.1378C142.262 61.8435 141.936 62.5515 141.648 63.2937C141.061 64.7556 140.597 66.2799 140.236 67.8136C140.057 68.6016 139.897 69.3802 139.767 70.1694C139.642 70.9645 139.539 71.7549 139.455 72.5394C139.432 72.7781 139.425 73.024 139.422 73.2709C139.422 73.4109 139.422 73.5497 139.422 73.6885C139.422 73.8014 139.448 73.9296 139.595 74.0002C139.66 74.0319 139.716 74.0096 139.758 73.979C139.947 73.8437 139.996 73.532 140.079 73.2909C140.168 73.0381 140.257 72.7817 140.339 72.5194C141.188 69.7778 142.529 67.1326 143.803 64.3357C145.082 61.533 146.264 58.5738 146.837 55.0488Z" fill="#889E85"/>
<path d="M147.83 68.5216C148.55 65.4836 149.839 62.6997 151.53 60.3239C153.219 57.9457 155.302 55.978 157.593 54.5137C156.634 57.4882 154.896 59.5864 153.159 61.5106C151.419 63.4289 149.781 65.8906 148.771 68.4217L147.83 68.5216Z" fill="#889E85"/>
<path d="M158.238 64.1563C158.294 64.0352 158.456 63.9023 158.492 63.8705C158.687 63.6894 158.887 63.5165 159.089 63.3483C159.494 63.0119 159.909 62.6885 160.336 62.3874C160.763 62.0886 161.199 61.8064 161.644 61.5417C162.09 61.2806 162.545 61.0383 163.006 60.8125C164.855 59.9175 166.822 59.3317 168.85 59.0565C170.473 58.8354 172.136 58.8142 173.823 58.9813C171.718 60.9478 169.281 62.2345 166.661 62.8096C164.635 63.2554 162.494 63.2836 160.462 63.7647C160.088 63.8552 159.717 63.9599 159.353 64.0834C159.049 64.1845 158.7 64.4598 158.341 64.3527C158.211 64.3151 158.2 64.2386 158.238 64.1563Z" fill="#889E85"/>
<path d="M160.408 68.2163C163.259 68.5844 166.053 68.8608 168.732 68.4809C168.297 68.5432 167.279 67.7305 166.789 67.5106C166.141 67.2177 165.485 66.9484 164.836 66.7167C163.497 66.2344 162.154 65.8804 160.819 65.6628C159.501 65.4476 158.189 65.3629 156.902 65.4194C155.88 65.4582 154.716 65.3453 153.859 65.9122C154.422 66.1827 154.989 66.4979 155.549 66.7872C156.108 67.0754 156.66 67.3459 157.204 67.5411C157.724 67.727 158.231 67.854 158.735 67.9575C159.241 68.0622 159.738 68.1339 160.23 68.1963L160.408 68.2163Z" fill="#889E85"/>
<path d="M152.652 66.331C154.357 64.8032 155.35 62.1357 156.58 59.7081C157.797 57.2841 159.416 54.9612 161.725 54.5801C161.304 55.5657 160.885 56.5678 160.443 57.5134C160 58.4708 159.53 59.3764 159.001 60.2044C157.345 62.7896 155.15 64.4598 153.071 66.1922L152.652 66.331Z" fill="#889E85"/>
<path d="M151.688 66.9528C152.117 67.8549 152.727 68.5464 153.388 69.0969C154.052 69.6497 154.774 70.0707 155.436 70.4059C159.019 72.229 162.385 73.3334 165.727 74.5095C161.447 71.194 156.937 68.5664 152.131 66.9492L151.688 66.9528Z" fill="#889E85"/>
<path d="M148.351 68.87C149.14 70.0062 150.054 70.9635 150.989 71.7445C151.93 72.5313 152.903 73.15 153.818 73.5781C155.671 74.4579 157.358 74.6649 159.002 74.7366C155.771 72.8101 152.388 70.6671 148.769 68.4219L148.351 68.87Z" fill="#889E85"/>
<path d="M153.814 75.4449C155.476 77.1139 157.084 79.2121 158.688 80.1919C157.58 79.8625 156.394 79.0639 155.171 78.1171C153.939 77.1597 152.671 76.0542 151.383 75.0674C150.256 74.2017 149.118 73.4396 147.925 72.7151C147.749 72.6069 147.018 72.2305 146.33 71.8318C145.645 71.4331 145.007 71.012 145.082 70.7826C145.151 70.5768 145.769 70.6921 146.41 70.8873C147.049 71.0755 147.725 71.3695 147.929 71.446C148.412 71.6318 148.892 71.8494 149.367 72.0964C149.847 72.3481 150.323 72.6327 150.793 72.9444C151.315 73.2914 151.827 73.6713 152.329 74.0876C152.837 74.5087 153.333 74.9615 153.814 75.4449Z" fill="#889E85"/>
<path d="M140.586 73.5089C141.07 73.303 141.588 73.169 142.134 73.1113C142.687 73.0631 143.262 73.0843 143.848 73.169C144.431 73.2501 145.043 73.4195 145.642 73.6288C146.245 73.8417 146.845 74.1063 147.443 74.4321C148.637 75.0755 149.788 75.8835 150.916 76.8221C152.041 77.7536 153.117 78.7863 154.181 79.8671C153.529 79.7142 152.885 79.5178 152.201 79.2626C151.514 79.0027 150.819 78.7145 150.093 78.3687C149.731 78.197 149.36 78.01 148.989 77.8183C148.619 77.6277 148.244 77.4254 147.864 77.2126C147.106 76.788 146.318 76.3081 145.535 75.8082C144.64 75.2343 143.675 74.5874 142.735 74.1381C141.806 73.7006 140.892 73.4536 140.123 73.6665C140.273 73.6112 140.432 73.5618 140.586 73.5089Z" fill="#889E85"/>
<path d="M134.87 78.2821C138.934 78.9643 142.643 79.8487 146.04 80.7544C149.436 81.66 152.518 82.5821 155.354 83.3737C152.661 81.5247 149.793 79.8699 146.725 78.4468C146.213 78.2104 145.681 77.9692 145.169 77.7916C144.656 77.614 144.148 77.4847 143.663 77.4494C143.102 77.4023 142.612 77.5035 142.109 77.6035C141.859 77.654 141.608 77.707 141.35 77.7493C141.097 77.7975 140.836 77.8328 140.559 77.8446C140.135 77.8622 139.674 77.8222 139.197 77.7669C138.729 77.7199 138.246 77.6576 137.767 77.6188C136.805 77.5329 135.898 77.5811 135.218 78.0163C135.102 78.1045 134.982 78.1892 134.87 78.2821Z" fill="#889E85"/>
<path d="M140.507 54.8672C140.459 55.2165 140.08 56.3832 139.732 57.5088C139.556 58.0687 139.388 58.6332 139.258 59.0919C139.128 59.5494 139.032 59.8988 139 60.0411C138.743 61.1514 138.49 62.264 138.223 63.3261C138.085 63.8612 137.849 64.7904 137.583 65.8736C137.448 66.4111 137.314 67.0062 137.182 67.619C137.052 68.233 136.914 68.8516 136.798 69.4844C136.68 70.1172 136.57 70.7417 136.468 71.3368C136.365 71.9296 136.287 72.5153 136.211 73.0352C136.054 74.0749 135.957 74.9347 135.872 75.4157C135.838 75.6251 135.783 76.2602 135.698 76.8295C135.611 77.3975 135.469 77.8762 135.177 77.768C134.915 77.6704 134.74 77.0694 134.638 76.4272C134.535 75.7862 134.503 75.0993 134.49 74.8876C134.449 74.3596 134.447 73.4657 134.505 72.3695C134.542 71.832 134.593 71.2439 134.658 70.6276C134.691 70.3195 134.728 70.0043 134.769 69.6855C134.816 69.3715 134.863 69.0551 134.91 68.7375C135.011 68.1024 135.122 67.4579 135.244 66.8439C135.369 66.237 135.502 65.649 135.631 65.1079C135.698 64.8374 135.763 64.5775 135.824 64.334C135.891 64.0953 135.953 63.8706 136.012 63.6625C136.132 63.2484 136.24 62.905 136.326 62.658C136.424 62.3781 136.536 62.0699 136.661 61.7453C136.788 61.4254 136.93 61.0867 137.081 60.735C137.385 60.0317 137.734 59.2766 138.117 58.5568C138.499 57.8311 138.904 57.1078 139.317 56.4832C139.522 56.1668 139.728 55.8693 139.928 55.5952C140.129 55.3188 140.324 55.073 140.507 54.8672Z" fill="#889E85"/>
<path d="M144.916 66.6356C145.072 66.1157 145.241 65.5982 145.425 65.0843C145.61 64.5726 145.811 64.0786 146.025 63.5835C146.45 62.5885 146.946 61.6581 147.497 60.7595C148.604 58.9941 149.961 57.4393 151.556 56.3066C150.157 58.5025 149.217 60.6408 148.09 62.9684C147.518 64.1469 146.673 65.5183 146.203 66.7297C145.975 67.326 145.758 67.9211 145.551 68.5139C145.435 68.8174 144.736 70.6604 144.736 70.6604C144.472 70.6369 144.464 69.7395 144.559 68.7844C144.606 68.3069 144.679 67.8165 144.749 67.4201C144.819 67.0261 144.887 66.7309 144.916 66.6356Z" fill="#889E85"/>
<path d="M128.961 70.0311C129.02 70.5369 129.169 71.4907 129.392 72.6234C129.621 73.769 129.939 75.1051 130.28 76.3671C130.638 77.6514 131.027 78.8664 131.343 79.8108C131.675 80.7706 131.927 81.4586 131.979 81.6997C131.944 81.5351 132.111 81.3034 132.144 81.1564C132.157 81.0999 132.143 80.8694 132.116 80.5424C132.093 80.2143 132.064 79.7967 132.034 79.3733C131.972 78.5124 131.917 77.5879 131.885 77.3268C131.846 77.0622 131.749 76.3788 131.662 75.6743C131.569 74.9663 131.506 74.2618 131.469 73.9677C131.401 73.4326 131.439 72.9162 131.352 72.3646C131.331 72.2282 131.33 72.0306 131.351 71.7883C131.373 71.5472 131.415 71.2567 131.471 70.9203C131.585 70.2523 131.749 69.3843 131.963 68.421C132.067 67.9258 132.177 67.4036 132.291 66.8649C132.405 66.3192 132.528 65.7582 132.644 65.1654C132.873 63.9728 133.107 62.7331 133.271 61.4276C133.395 60.4267 133.414 59.4011 133.451 58.3496C133.101 58.7601 132.754 59.167 132.41 59.5705C132.072 59.988 131.744 60.4055 131.432 60.8325C131.276 61.0465 131.124 61.2594 130.977 61.4805C130.831 61.7052 130.691 61.9345 130.557 62.1662C130.289 62.6308 130.043 63.1118 129.832 63.6152C129.633 64.1104 129.461 64.6173 129.321 65.1336C129.181 65.6512 129.067 66.1675 128.996 66.7156C128.924 67.2578 128.882 67.8059 128.874 68.3563C128.867 68.9067 128.893 69.4631 128.961 70.0311Z" fill="#889E85"/>
<path d="M137.394 82.7895C138.808 83.4423 140.192 84.001 141.456 84.4385C142.744 84.8889 143.871 85.1936 144.851 85.33C146.764 85.5817 148.426 86.0392 150.389 86.926C149.738 86.4991 149.073 86.0816 148.396 85.6793C148.057 85.4782 147.715 85.2818 147.37 85.0912C147.03 84.9031 146.689 84.7219 146.346 84.5455C145.659 84.195 144.958 83.868 144.256 83.5787C143.563 83.2964 142.863 83.0483 142.159 82.8424C141.645 82.6907 141.145 82.5731 140.627 82.4379C140.11 82.3026 139.578 82.1509 139.021 81.9439C138.763 81.8474 138.203 81.6451 137.512 81.4264C136.819 81.2064 135.991 80.97 135.22 80.7948C133.706 80.4596 132.422 80.3702 133.095 80.8724C133.321 81.0418 134.268 81.4334 135.213 81.838C136.16 82.2391 137.103 82.6543 137.394 82.7895Z" fill="#889E85"/>
<path d="M102.4 32.3203C106.061 35.6147 109.589 39.0702 112.847 42.7739C113.262 43.2291 113.649 43.7102 114.051 44.1771L114.65 44.8828C114.846 45.1204 115.037 45.3627 115.231 45.6026C115.614 46.0848 116.008 46.56 116.383 47.0493L117.499 48.5253C117.873 49.0158 118.217 49.5298 118.577 50.0296L119.111 50.7859L119.62 51.5586C119.955 52.0761 120.306 52.5842 120.629 53.11L121.592 54.6907C121.915 55.2165 122.203 55.7634 122.51 56.2985L122.964 57.1054L123.388 57.9287C123.666 58.4803 123.964 59.0213 124.225 59.58L125.008 61.2583C126.003 63.5177 126.892 65.8265 127.604 68.1929C128.298 70.564 128.852 72.9775 129.213 75.4239C129.547 77.8738 129.698 80.3473 129.66 82.8207L129.036 82.8054C129.075 80.3673 128.925 77.9291 128.596 75.5121C128.239 73.0987 127.693 70.7158 127.007 68.3717C126.304 66.0323 125.424 63.7494 124.44 61.5124L123.665 59.8505C123.406 59.2965 123.111 58.7602 122.836 58.2145L122.416 57.3994L121.966 56.5996C121.662 56.0692 121.377 55.5281 121.057 55.0059L120.102 53.4393C119.782 52.9183 119.434 52.4149 119.101 51.9009L118.596 51.1352L118.066 50.386C117.709 49.8897 117.37 49.3804 116.998 48.8935L115.892 47.4292C115.52 46.9434 115.128 46.4729 114.747 45.9931C114.554 45.7555 114.366 45.5144 114.17 45.2791L113.576 44.5782C113.176 44.1148 112.791 43.6372 112.378 43.1844C109.142 39.5042 105.633 36.0652 101.984 32.7825L102.4 32.3203Z" fill="#889E85"/>
<path d="M102.008 50.3711C102.008 50.3711 103.017 50.8145 104.127 51.3026C104.681 51.5555 105.26 51.8189 105.751 52.0424C106.248 52.2659 106.642 52.4576 106.858 52.5411C107.234 52.6905 107.615 52.8363 108.002 52.9798C108.385 53.1233 108.768 53.2656 109.148 53.4079C109.937 53.689 110.718 53.9678 111.493 54.2442C113.082 54.7993 114.694 55.3674 116.344 55.9625C117.169 56.2718 118.023 56.5776 118.868 56.9023C119.722 57.2422 120.571 57.5809 121.418 57.9185C121.672 58.0255 121.932 58.1219 122.197 58.216C122.347 58.269 122.497 58.3207 122.646 58.3736C122.767 58.416 122.91 58.436 122.993 58.2807C123.031 58.2101 123.01 58.1313 122.979 58.0667C122.839 57.7761 122.511 57.5915 122.248 57.4057C121.965 57.2104 121.681 57.0199 121.39 56.8376C118.398 54.9487 115.388 53.0962 112.189 51.846C111.385 51.5367 110.597 51.2544 109.758 51.0262C109.344 50.9109 108.93 50.8051 108.514 50.711C108.305 50.664 108.098 50.6193 107.889 50.5781C107.676 50.5393 107.463 50.5028 107.25 50.4699C106.395 50.3382 105.544 50.2535 104.67 50.2335C103.791 50.2182 102.905 50.2605 102.008 50.3711Z" fill="#889E85"/>
<path d="M115.478 46.9045C108.282 45.2967 101.864 43.1455 96.1758 39.6888C99.5713 39.4101 102.708 40.4851 105.591 41.8588C108.478 43.2267 111.796 44.6169 114.988 45.7389L115.478 46.9045Z" fill="#889E85"/>
<path d="M105.05 35.2539C104.89 35.2303 104.644 35.088 104.588 35.0598C104.274 34.8963 103.959 34.7317 103.644 34.567C103.016 34.2353 102.406 33.8848 101.798 33.5285C101.187 33.1744 100.59 32.8051 100.003 32.4217C99.4125 32.0418 98.8291 31.6513 98.2599 31.2444C95.9734 29.626 93.8328 27.8077 91.8745 25.7847C90.3091 24.1663 88.8565 22.4185 87.5569 20.5449C91.1559 21.794 94.4491 23.7582 97.1825 26.361C99.2972 28.3757 101.053 30.7386 103.047 32.8545C103.414 33.2485 103.789 33.632 104.179 34.0013C104.506 34.3059 105.027 34.6176 105.173 35.0692C105.226 35.2315 105.157 35.2692 105.05 35.2539Z" fill="#889E85"/>
<path d="M107.533 31.3186C105.672 27.7584 103.481 24.3393 100.75 21.4824C101.196 21.9494 101.315 23.456 101.526 24.1146C101.805 24.985 102.111 25.8318 102.429 26.6822C103.089 28.417 103.831 30.1013 104.643 31.7326C105.444 33.3427 106.316 34.8964 107.246 36.4007C107.991 37.5898 108.592 38.9988 109.7 39.8763C109.649 39.1376 109.614 38.3861 109.556 37.6322C109.525 37.2558 109.487 36.8794 109.436 36.5078C109.38 36.1396 109.31 35.7762 109.219 35.4198C109.044 34.7388 108.815 34.0708 108.543 33.4298C108.27 32.7899 107.963 32.1631 107.647 31.5409L107.533 31.3186Z" fill="#889E85"/>
<path d="M110.833 41.24C110.185 40.8049 109.5 40.4438 108.772 40.1568C108.042 39.8722 107.283 39.6487 106.513 39.4629C104.953 39.1077 103.347 38.9054 101.772 38.6913C98.6269 38.2503 95.4266 37.6069 93.3977 35.4016C94.6221 35.3805 95.8382 35.3758 97.0602 35.4287C98.267 35.4898 99.4749 35.6098 100.639 35.8639C104.294 36.6507 107.45 38.6384 110.45 40.7672L110.833 41.24Z" fill="#889E85"/>
<path d="M112.015 42.2979C112.752 41.6239 113.165 40.7583 113.372 39.8209C113.577 38.8882 113.564 37.8979 113.486 36.9711C113.052 31.963 111.275 27.202 109.386 22.582C109.68 25.8611 110.052 29.132 110.471 32.3264C110.888 35.5268 111.33 38.6859 111.777 41.7568L112.015 42.2979Z" fill="#889E85"/>
<path d="M115.654 46.2419C116.584 45.2092 117.246 44.0013 117.653 42.7087C118.052 41.4255 118.186 40.0706 118.098 38.7463C117.895 36.1329 116.857 33.6406 115.575 31.3906C116.097 36.214 115.928 41.0833 114.988 45.7385L115.654 46.2419Z" fill="#889E85"/>
<path d="M120.262 38.7116C121.138 36.2699 122.403 33.8165 122.165 31.2207C122.751 33.0085 122.772 34.8585 122.513 36.731C122.269 38.5834 121.74 40.4547 121.286 42.2424C121.097 43.0116 120.904 43.7973 120.708 44.5947C120.528 45.3592 120.346 46.1355 120.161 46.9188C120.109 47.1481 119.93 48.1161 119.687 48.9747C119.445 49.8357 119.135 50.5919 118.857 50.4708C118.606 50.3626 118.574 49.5922 118.599 48.7677C118.605 48.5619 118.615 48.3525 118.627 48.1502C118.637 47.9491 118.646 47.7574 118.654 47.5833C118.673 47.2293 118.688 46.9494 118.697 46.8141C118.72 46.1837 118.768 45.5451 118.844 44.9005C118.912 44.263 119.001 43.6256 119.119 42.981C119.248 42.2671 119.413 41.5473 119.605 40.8322C119.79 40.123 120.009 39.415 120.262 38.7116Z" fill="#889E85"/>
<path d="M122.486 56.8507C122.242 56.1756 122.082 55.4687 121.978 54.7419C121.859 54.0232 121.809 53.2799 121.814 52.5178C121.819 52.1343 121.828 51.7544 121.846 51.371C121.868 50.9876 121.901 50.5995 121.945 50.2102C122.036 49.4292 122.177 48.6365 122.333 47.8614C122.658 46.303 123.138 44.7269 123.658 43.1756C124.187 41.616 124.796 40.0388 125.401 38.498C125.677 39.5131 125.856 40.5951 125.962 41.6513C126.075 42.704 126.071 43.7848 126.001 44.8387C125.963 45.3668 125.91 45.8866 125.829 46.4088C125.744 46.9334 125.64 47.4533 125.515 47.9649C125.263 48.9917 124.952 49.9773 124.527 50.9523C124.052 52.0579 123.477 53.1776 123.08 54.2726C122.663 55.3817 122.436 56.4555 122.666 57.4894C122.614 57.2718 122.546 57.0636 122.486 56.8507Z" fill="#889E85"/>
<path d="M126.522 66.3432C128.686 62.1855 130.007 57.435 130.426 52.4752C130.851 47.5118 130.385 42.3403 129.075 37.2734C128.841 41.704 128.269 46.0405 127.388 50.1805C127.238 50.8768 127.094 51.559 126.972 52.2541C126.85 52.948 126.772 53.6361 126.791 54.3147C126.823 55.0874 126.937 55.8602 127.071 56.6152C127.137 56.994 127.203 57.3715 127.253 57.7491C127.293 58.1325 127.317 58.5171 127.309 58.9017C127.297 59.4933 127.211 60.0849 127.097 60.6694C126.966 61.2634 126.807 61.8491 126.669 62.4231C126.406 63.5675 126.154 64.6872 126.376 65.761C126.423 65.9551 126.481 66.1468 126.522 66.3432Z" fill="#889E85"/>
<path d="M103.311 56.4984C103.678 56.4702 104.796 56.5843 105.934 56.7407C106.219 56.7819 106.502 56.8231 106.773 56.8619C107.039 56.9077 107.291 56.9501 107.517 56.9889C107.971 57.0677 108.323 57.1312 108.466 57.1512C109.604 57.2994 110.683 57.5346 111.775 57.8193C112.341 57.9604 113.237 58.2521 114.349 58.639C114.625 58.7367 114.921 58.8378 115.213 58.9507C115.504 59.066 115.806 59.1859 116.111 59.3071C116.722 59.5576 117.379 59.8199 118.005 60.1092C118.631 60.3986 119.261 60.7008 119.871 61.0031C120.181 61.1525 120.47 61.3089 120.751 61.463C121.034 61.6194 121.308 61.7723 121.571 61.9182C122.093 62.2181 122.588 62.4968 122.98 62.7567C123.376 63.0155 123.705 63.2425 123.94 63.4201C124.041 63.4965 124.254 63.6342 124.513 63.8106C124.77 63.987 125.079 64.1975 125.342 64.4269C125.877 64.8821 126.317 65.3772 126.112 65.6383C125.928 65.8735 125.265 65.6665 124.6 65.3949C123.934 65.1208 123.271 64.7809 123.039 64.6927C122.49 64.468 121.593 64.0282 120.54 63.5201C120.006 63.2766 119.423 63.012 118.815 62.7356C118.519 62.6027 118.215 62.4662 117.91 62.3298C117.598 62.2004 117.284 62.0687 116.969 61.9381C116.342 61.6806 115.733 61.4265 115.137 61.1948C114.541 60.9725 113.967 60.7585 113.439 60.5609C113.182 60.4656 112.933 60.3739 112.701 60.288C112.464 60.2057 112.241 60.128 112.035 60.0563C111.627 59.914 111.294 59.794 111.056 59.7023C110.015 59.2953 108.538 58.7178 107.044 58.1333C106.32 57.8498 105.628 57.5582 104.974 57.2923C104.652 57.1571 104.35 57.0218 104.073 56.8901C103.935 56.8242 103.803 56.7584 103.679 56.6925C103.55 56.6266 103.425 56.562 103.311 56.4984Z" fill="#889E85"/>
<path d="M114.361 50.4832C113.76 50.3139 113.168 50.141 112.584 49.9634C111.998 49.7881 111.4 49.6164 110.823 49.4329C109.678 49.0613 108.519 48.6931 107.433 48.2697C105.217 47.4464 103.17 46.4678 101.29 45.2129C101.988 45.3905 102.673 45.5493 103.355 45.6998C104.036 45.8539 104.699 46.0033 105.361 46.1526C106.039 46.2985 106.696 46.4608 107.38 46.6302C108.061 46.8007 108.763 46.9806 109.466 47.2006C110.912 47.6287 112.648 48.4567 114.099 48.9601C114.809 49.2153 115.519 49.4694 116.227 49.7246C116.422 49.7916 117.055 50.0822 117.655 50.3574C118.253 50.6385 118.806 50.8984 118.806 50.8984C118.847 51.2266 117.83 51.1278 116.765 50.956C116.233 50.8702 115.689 50.7643 115.252 50.6738C114.809 50.5855 114.471 50.515 114.361 50.4832Z" fill="#889E85"/>
<path d="M116.469 68.0313C116.944 68.1559 117.858 68.3688 118.998 68.6711C120.117 68.9745 121.431 69.378 122.751 69.8319C124.028 70.2906 125.291 70.8058 126.3 71.2598C127.277 71.7197 128.002 72.1125 128.234 72.2866C128.075 72.1678 127.979 71.7879 127.876 71.6209C127.838 71.5574 127.637 71.3621 127.352 71.1045C127.061 70.8481 126.665 70.5365 126.27 70.2283C125.872 69.9202 125.465 69.6179 125.127 69.378C124.793 69.1357 124.496 68.9628 124.368 68.8922C124.105 68.7558 123.427 68.41 122.752 68.0877C122.086 67.7607 121.376 67.4691 121.088 67.3597C120.557 67.1609 120.092 66.8845 119.55 66.7316C119.414 66.694 119.241 66.6093 119.018 66.4917C118.792 66.3752 118.526 66.2235 118.224 66.0471C117.615 65.6954 116.891 65.2391 115.994 64.7874C115.553 64.5593 115.085 64.3276 114.598 64.1017C114.103 63.8783 113.566 63.6666 113.025 63.4666C111.955 63.0632 110.751 62.7433 109.547 62.5398C109.091 62.461 108.601 62.4234 108.109 62.4046C107.617 62.3857 107.122 62.3869 106.633 62.3916C106.976 62.6868 107.319 62.9797 107.657 63.2702C107.982 63.5678 108.31 63.863 108.655 64.1488C108.826 64.2923 109.003 64.4334 109.182 64.5734C109.352 64.7145 109.527 64.8533 109.708 64.9897C110.072 65.2614 110.46 65.5225 110.883 65.7683C111.272 66.0071 111.681 66.2341 112.115 66.4458C112.544 66.6599 113.016 66.8563 113.467 67.048C113.927 67.2385 114.411 67.415 114.914 67.5784C115.166 67.6596 115.423 67.7384 115.687 67.8137C115.948 67.8878 116.202 67.9619 116.469 68.0313Z" fill="#889E85"/>
<path d="M131.945 67.1338C133.119 65.973 134.157 64.5863 134.929 63.0832C135.303 62.3387 135.616 61.5624 135.859 60.772C135.978 60.3792 136.092 59.9734 136.164 59.5818C136.239 59.1878 136.295 58.7926 136.333 58.3986C136.372 58.001 136.409 57.6129 136.446 57.2318C136.484 56.8484 136.526 56.465 136.554 56.098C136.618 55.357 136.687 54.6255 136.767 53.8892C136.849 53.1459 136.932 52.412 137.013 51.6722C137.101 50.9229 137.206 50.149 137.321 49.3398C136.982 50.2866 136.629 51.2229 136.279 52.145C136.104 52.6013 135.93 53.06 135.753 53.5211C135.573 53.9774 135.392 54.4373 135.21 54.9007C134.85 55.8169 134.503 56.7202 134.169 57.6211C133.818 58.5326 133.487 59.4371 133.184 60.3369C132.973 60.9837 132.747 61.6471 132.492 62.2857C132.238 62.9244 131.953 63.5419 131.592 64.1158C131.432 64.3758 131.051 64.965 130.585 65.6695C130.138 66.3517 129.605 67.1632 129.101 67.9313C128.1 69.4332 127.352 70.6388 128.152 70.3812C128.42 70.2942 129.25 69.6355 130.069 68.9063C130.887 68.1783 131.693 67.3808 131.945 67.1338Z" fill="#889E85"/>
<path d="M164.98 30.9425C162.814 32.4738 160.729 34.1181 158.737 35.8705C156.758 37.6359 154.868 39.5013 153.07 41.4526L151.739 42.9322L150.454 44.4506C150.019 44.9516 149.62 45.4821 149.204 45.9984L148.585 46.777L147.987 47.5721C147.595 48.106 147.184 48.6283 146.805 49.1728L145.661 50.8006C144.926 51.905 144.181 53.0024 143.491 54.1362C137.883 63.1526 133.807 73.0816 131.121 83.3435L130.518 83.1859C133.217 72.8676 137.316 62.882 142.962 53.8057C143.656 52.6648 144.406 51.5592 145.146 50.4478L146.298 48.8094C146.68 48.2613 147.094 47.7356 147.489 47.1981L148.091 46.3971L148.714 45.6126C149.134 45.0927 149.535 44.5588 149.974 44.0542L151.269 42.524L152.61 41.0327C154.422 39.0673 156.328 37.1867 158.325 35.406C160.333 33.6382 162.436 31.9798 164.623 30.4355L164.98 30.9425Z" fill="#004129"/>
<path d="M154.887 22.6035C154.887 22.6035 154.805 22.6823 154.668 22.8317C154.531 22.9799 154.333 23.1928 154.093 23.4527C153.854 23.7115 153.574 24.0173 153.269 24.3501C153.117 24.5159 152.959 24.69 152.797 24.8676C152.64 25.0499 152.481 25.2369 152.318 25.4263C151.997 25.805 151.669 26.1931 151.35 26.5707C151.193 26.76 151.037 26.9459 150.886 27.127C150.741 27.3128 150.6 27.494 150.465 27.6668C149.927 28.3608 149.497 28.9347 149.294 29.237C147.897 31.4082 146.707 33.6688 145.773 36.014C144.812 38.3404 144.106 40.748 143.548 43.1356C143.416 43.7484 143.291 44.36 143.174 44.9692L143.003 45.8807L142.861 46.8005C142.77 47.4121 142.686 48.0213 142.607 48.627C142.531 49.2351 142.479 49.8491 142.421 50.4548C142.304 51.5874 142.461 53.2035 142.442 54.6372C142.653 53.8656 142.903 53.0941 143.152 52.3249C143.419 51.5674 143.684 50.8123 143.905 50.0608C144.591 47.8637 145.439 45.6561 146.408 43.4755C146.875 42.3711 147.395 41.2914 147.896 40.1858C148.417 39.0767 148.936 37.9723 149.448 36.8785C151.541 32.4397 153.564 27.8774 154.887 22.6035Z" fill="#004129"/>
<path d="M146.601 49.3157C146.835 45.6837 147.806 42.1071 149.462 38.8444C151.115 35.5818 153.455 32.6343 156.312 30.2832C155.458 33.8246 153.615 36.6838 151.798 39.4501C149.986 42.1976 148.138 44.9639 147.398 48.1936L146.991 48.75L146.601 49.3157Z" fill="#004129"/>
<path d="M161.917 32.7641C161.952 32.616 162.108 32.4066 162.14 32.3584C162.326 32.0926 162.521 31.8338 162.718 31.5751C163.115 31.0623 163.52 30.5459 163.958 30.0649C164.4 29.5885 164.857 29.124 165.329 28.6711C165.562 28.4406 165.81 28.2301 166.059 28.0207C166.308 27.8114 166.561 27.6044 166.817 27.4021C168.871 25.7919 171.195 24.5087 173.681 23.6937C173.928 23.609 174.176 23.5278 174.424 23.449C174.672 23.369 174.928 23.3102 175.181 23.2444C175.688 23.1174 176.198 23.0021 176.708 22.9009C177.215 22.7904 177.739 22.7351 178.256 22.6716C178.774 22.6128 179.292 22.5669 179.808 22.5352C177.215 24.8828 174.464 26.7446 171.456 28.1513C169.141 29.2475 166.644 30.0743 164.387 31.4033C163.976 31.6562 163.573 31.9208 163.181 32.2031C162.855 32.4384 162.507 32.8559 162.079 32.9159C161.921 32.937 161.892 32.8641 161.917 32.7641Z" fill="#004129"/>
<path d="M165.309 35.9088C168.597 35.076 171.767 34.3668 174.672 33.2695C174.553 33.313 174.385 33.3106 174.19 33.2824C173.998 33.2601 173.778 33.2118 173.555 33.1554C173.108 33.0425 172.64 32.8978 172.344 32.8614C171.954 32.8131 171.559 32.7708 171.165 32.7426C170.775 32.7214 170.385 32.7085 169.993 32.7049C169.19 32.6967 168.375 32.7143 167.583 32.8061C167.185 32.8472 166.786 32.8966 166.387 32.9555C166.188 32.986 165.988 33.0178 165.789 33.0495C165.593 33.0907 165.398 33.1307 165.203 33.1719C164.435 33.3459 163.656 33.5341 162.906 33.7858C162.16 34.041 161.414 34.3221 160.689 34.6432C160.121 34.909 159.502 35.1466 158.917 35.4418C158.772 35.5159 158.628 35.5924 158.487 35.6735C158.351 35.7582 158.218 35.8488 158.089 35.9452C157.834 36.1381 157.599 36.3533 157.397 36.6027C158.098 36.6027 158.803 36.6356 159.502 36.6603C160.208 36.6921 160.898 36.7074 161.551 36.6486C161.864 36.6203 162.168 36.578 162.471 36.5298C162.776 36.4874 163.078 36.4345 163.373 36.3745C163.966 36.2569 164.536 36.1064 165.103 35.9593L165.309 35.9088Z" fill="#004129"/>
<path d="M156.158 37.6203C156.251 37.4685 156.339 37.3133 156.423 37.1557C156.51 37.0004 156.593 36.8452 156.673 36.6852C156.833 36.3653 156.977 36.0348 157.11 35.6937C157.243 35.3526 157.363 35.0022 157.474 34.6423C157.591 34.2871 157.702 33.9295 157.806 33.5614C158.017 32.8298 158.195 32.0606 158.389 31.2996C158.588 30.5422 158.787 29.7742 159.007 29.0097C159.063 28.8191 159.121 28.6286 159.177 28.4357C159.24 28.2475 159.304 28.0605 159.371 27.8723C159.506 27.4971 159.65 27.1231 159.805 26.7526C159.961 26.3821 160.128 26.0164 160.308 25.6588C160.489 25.3024 160.693 24.9661 160.906 24.6344C161.12 24.3039 161.35 23.9851 161.594 23.6805C161.839 23.3771 162.097 23.083 162.382 22.8266C162.949 22.3056 163.582 21.8587 164.285 21.5176C163.903 22.7208 163.541 23.9028 163.166 25.0578C162.983 25.6435 162.795 26.2175 162.593 26.7773C162.394 27.3407 162.17 27.8735 161.95 28.4204C161.599 29.2684 161.194 30.0553 160.77 30.8209C160.355 31.5984 159.9 32.3335 159.429 33.0486C158.973 33.7801 158.492 34.4846 158.005 35.175C157.534 35.8843 157.054 36.5782 156.58 37.2639L156.158 37.6203Z" fill="#004129"/>
<path d="M155.253 38.7363C155.965 39.4361 156.825 39.8324 157.704 40.0618C158.585 40.2923 159.476 40.3429 160.31 40.3735C164.76 40.4723 168.761 40.1088 172.592 40.17C171.928 39.9395 171.255 39.7242 170.573 39.5243C169.895 39.3302 169.217 39.1691 168.526 39.0127C167.135 38.6916 165.751 38.4952 164.326 38.3411C161.506 38.0753 158.602 38.1094 155.744 38.5116L155.253 38.7363Z" fill="#004129"/>
<path d="M152.112 42.4111C153.277 43.1673 154.532 43.6754 155.768 43.9871C156.077 44.0647 156.384 44.1294 156.69 44.1835C156.999 44.2412 157.306 44.287 157.608 44.3211C158.214 44.3905 158.805 44.4152 159.368 44.3976C159.65 44.3893 159.925 44.3705 160.197 44.3447C160.472 44.3235 160.742 44.2941 161.008 44.2576C161.537 44.1835 162.047 44.0788 162.539 43.9518C163.029 43.8224 163.523 43.6954 163.993 43.5378C164.467 43.3873 164.915 43.2061 165.372 43.0438C161.33 42.584 156.997 42.1605 152.449 41.7324L152.112 42.4111Z" fill="#004129"/>
<path d="M159.856 46.3061C160.999 46.7319 162.149 47.2705 163.264 47.7234C164.379 48.1762 165.478 48.569 166.488 48.6678C165.837 48.7748 165.125 48.7654 164.383 48.6984C163.647 48.6384 162.868 48.5055 162.062 48.3361C161.66 48.2515 161.25 48.1574 160.836 48.0586C160.418 47.9609 160.005 47.8645 159.596 47.7681C158.763 47.5705 157.919 47.3693 157.08 47.2C155.615 46.9059 154.162 46.7354 152.677 46.6119C152.452 46.5896 151.559 46.586 150.715 46.5343C149.872 46.479 149.077 46.3708 149.097 46.0932C149.114 45.8427 149.808 45.6416 150.549 45.5051C151.296 45.3722 152.104 45.317 152.345 45.2899C152.919 45.2276 153.5 45.197 154.085 45.1993C154.673 45.2052 155.274 45.2511 155.871 45.324C157.201 45.4899 158.527 45.8074 159.856 46.3061Z" fill="#004129"/>
<path d="M144.993 51.2692C145.439 50.7976 145.974 50.4059 146.542 50.0683C147.116 49.7331 147.719 49.4473 148.383 49.2427C149.698 48.824 151.122 48.6323 152.593 48.6734C153.324 48.6899 154.058 48.7534 154.791 48.8557C155.53 48.9616 156.277 49.1133 157.016 49.2921C158.498 49.6508 159.961 50.1213 161.42 50.6752C160.657 50.8611 159.883 51.0375 159.054 51.1516C158.642 51.2116 158.215 51.2563 157.787 51.2963C157.361 51.3398 156.927 51.3727 156.484 51.3939C154.7 51.4703 152.823 51.4139 150.854 51.168C149.729 51.0246 148.551 50.8564 147.436 50.8599C146.881 50.8634 146.344 50.9128 145.85 51.0363C145.363 51.1645 144.922 51.3703 144.544 51.675L144.993 51.2692Z" fill="#004129"/>
<path d="M140.025 59.1791C144.398 58.2006 148.585 57.235 152.529 56.3129C156.475 55.3908 160.182 54.518 163.616 53.6936C160.101 53.3078 156.484 53.2137 152.776 53.3666C152.159 53.396 151.535 53.4325 150.929 53.516C150.324 53.5995 149.732 53.7253 149.211 53.9523C148.606 54.2087 148.084 54.5721 147.562 54.9426C147.045 55.3167 146.545 55.7095 145.953 56.0118C145.038 56.4728 143.966 56.7657 142.937 57.1291C141.902 57.4878 140.962 57.9489 140.339 58.7322L140.025 59.1791Z" fill="#004129"/>
<path d="M139.81 32.0957C139.846 32.4791 139.799 33.8341 139.756 35.1408C139.701 36.4463 139.704 37.7389 139.717 38.0576C139.746 38.688 139.767 39.3114 139.784 39.9277C139.805 40.5475 139.828 41.1674 139.839 41.7766C139.857 42.4023 139.84 43.4385 139.878 44.6946C139.893 45.3145 139.911 45.9872 139.928 46.687C139.947 47.3798 139.992 48.1067 140.026 48.8182C140.162 51.6739 140.447 54.4461 140.485 55.5705C140.495 55.814 140.574 56.5326 140.604 57.2007C140.628 57.8664 140.573 58.4662 140.248 58.4721C139.955 58.4768 139.656 57.8816 139.417 57.2195C139.179 56.5597 138.995 55.8269 138.935 55.6023C138.776 55.0471 138.576 54.0827 138.377 52.8936C138.182 51.7069 138.021 50.3108 137.88 48.8817C137.823 48.1749 137.774 47.4633 137.734 46.7729C137.695 46.0825 137.661 45.4121 137.656 44.8028C137.637 43.5796 137.649 42.554 137.685 41.9718C137.79 40.6616 137.989 38.7986 138.375 36.9708C138.466 36.5121 138.565 36.0534 138.67 35.603C138.782 35.1572 138.903 34.722 139.025 34.3045C139.276 33.4718 139.526 32.7002 139.81 32.0957Z" fill="#004129"/>
<path d="M118.722 15.7871C128.85 36.6285 133.27 60.2445 131.123 83.337L130.502 83.2782C132.64 60.3044 128.241 36.7979 118.163 16.0588L118.722 15.7871Z" fill="#4D6A4A"/>
<path d="M108.553 23.9336C108.553 23.9336 108.611 24.01 108.708 24.15C108.8 24.2911 108.935 24.4946 109.097 24.7416C109.426 25.2368 109.872 25.9072 110.34 26.6105C110.578 26.9634 110.82 27.3233 111.056 27.6738C111.294 28.0242 111.531 28.363 111.724 28.6864C112.124 29.3251 112.462 29.8496 112.65 30.106C112.983 30.56 113.324 31.0117 113.674 31.461L114.206 32.1325C114.385 32.356 114.571 32.5771 114.736 32.8065C115.422 33.7133 116.141 34.613 116.886 35.5093C117.266 35.9586 117.645 36.4055 118.024 36.8524C118.387 37.3064 118.757 37.7604 119.132 38.2144C119.883 39.1212 120.657 40.0292 121.451 40.9396C122.237 41.884 123.018 42.8238 123.798 43.7612C124.586 44.7103 125.43 45.6571 126.184 46.6357C126.911 47.5472 128.126 48.681 129.11 49.8666C128.341 48.3176 127.708 46.6898 126.947 45.2443C126.346 44.1869 125.765 43.1202 125.194 42.0522C124.91 41.5206 124.626 40.9866 124.34 40.4515C124.033 39.9269 123.725 39.4023 123.418 38.8766C122.803 37.8298 122.185 36.7913 121.556 35.7727C120.882 34.7671 120.187 33.7827 119.474 32.8276C119.116 32.3501 118.754 31.8809 118.385 31.4198C118.01 30.9611 117.597 30.5236 117.193 30.0896C116.378 29.2251 115.533 28.4041 114.647 27.6385C114.214 27.2515 113.729 26.8963 113.245 26.5529C112.759 26.2094 112.264 25.8813 111.756 25.5708C110.739 24.9498 109.69 24.3923 108.553 23.9336Z" fill="#4D6A4A"/>
<path d="M128.156 42.6079C122.877 36.9094 118.859 30.8252 116.16 24.2246C116.935 24.668 117.662 25.1761 118.316 25.7477C118.951 26.3276 119.534 26.9603 120.077 27.6307C120.621 28.3 121.124 29.0068 121.599 29.7325L121.776 30.0054L121.937 30.2853L122.252 30.8487C122.459 31.2262 122.661 31.6061 122.859 31.9872C123.254 32.7494 123.638 33.5221 124.027 34.296L124.32 34.8758L124.59 35.4627C124.773 35.8544 124.957 36.2437 125.149 36.6318C125.531 37.4081 125.937 38.1761 126.383 38.9277C126.495 39.1159 126.609 39.3029 126.725 39.4887C126.844 39.6745 126.961 39.8592 127.072 40.0462C127.3 40.4179 127.54 40.786 127.797 41.1483L128.156 42.6079Z" fill="#4D6A4A"/>
<path d="M120.047 19.4253C119.909 19.3442 119.746 19.1219 119.702 19.076C119.467 18.8149 119.236 18.5526 119.011 18.288C118.558 17.7587 118.121 17.22 117.702 16.6743C117.282 16.1274 116.879 15.5722 116.492 15.0089C116.304 14.7242 116.097 14.449 115.9 14.1703C115.701 13.8915 115.507 13.6093 115.318 13.3258C114.938 12.7589 114.574 12.1826 114.227 11.5969C114.053 11.304 113.884 11.01 113.719 10.7124C113.552 10.416 113.399 10.1126 113.223 9.82087C112.541 8.64354 111.924 7.43093 111.372 6.17832C110.948 5.16448 110.476 4.18239 110.082 3.15326C109.68 2.12766 109.319 1.07735 108.998 0C110.489 1.10323 111.868 2.37465 113.102 3.77545C114.274 5.2127 115.288 6.78757 116.131 8.44242C117.324 11.0699 118.136 13.8292 119.112 16.5108C119.301 17.0024 119.503 17.4894 119.725 17.9669C119.905 18.3656 120.291 18.829 120.235 19.3018C120.217 19.47 120.139 19.4794 120.047 19.4253Z" fill="#4D6A4A"/>
<path d="M123.845 16.7481C123.745 15.7672 123.628 14.7804 123.489 13.7936C123.42 13.2996 123.345 12.8056 123.262 12.3117C123.177 11.82 123.102 11.319 122.979 10.8391C122.751 9.87115 122.492 8.9067 122.197 7.95167C122.049 7.47415 121.892 6.99899 121.725 6.52617C121.557 6.05454 121.389 5.58055 121.176 5.12891C121.242 5.27828 121.27 5.4794 121.268 5.7111C121.261 5.94633 121.229 6.20861 121.187 6.47442C121.103 7.00487 120.983 7.54355 120.962 7.88933C120.908 8.80438 120.877 9.71002 120.871 10.6062C120.887 12.4316 120.873 14.2829 121.011 16.0671C121.071 16.9516 121.176 17.8184 121.271 18.6888C121.355 19.565 121.464 20.4318 121.602 21.2869C121.812 22.6512 121.882 24.1308 122.516 25.3564C122.637 25.0094 122.766 24.6601 122.897 24.3084C123.027 23.9567 123.161 23.6015 123.268 23.251C123.493 22.5477 123.689 21.8361 123.796 21.121C123.998 19.7508 123.97 18.363 123.871 16.9916L123.845 16.7481Z" fill="#4D6A4A"/>
<path d="M123.03 27.017C122.604 26.3819 122.106 25.8032 121.558 25.2693C121.282 25.0035 121.003 24.7447 120.698 24.5024C120.389 24.2613 120.07 24.0296 119.746 23.8061C118.445 22.9099 117.041 22.1348 115.708 21.355C115.38 21.1574 115.034 20.9646 114.693 20.7681C114.353 20.5705 114.018 20.3682 113.691 20.1589C113.037 19.7414 112.416 19.3003 111.854 18.8216C111.573 18.5828 111.307 18.3347 111.059 18.0759C110.811 17.8172 110.585 17.5455 110.354 17.2738C109.907 16.7245 109.544 16.1247 109.289 15.459C110.409 15.8448 111.553 16.2411 112.65 16.7104C113.721 17.1926 114.767 17.736 115.742 18.3829C116.504 18.8898 117.224 19.4508 117.892 20.0613C118.534 20.6823 119.139 21.3456 119.716 22.0372C120.294 22.7288 120.844 23.4462 121.381 24.179C121.895 24.9199 122.372 25.6844 122.86 26.4442L123.03 27.017Z" fill="#4D6A4A"/>
<path d="M123.731 28.4055C125.604 27.7116 126.544 25.838 127.114 24.0949C127.924 21.7309 128.299 19.3351 128.576 16.8593C128.643 16.2418 128.701 15.6196 128.75 14.9951C128.78 14.3787 128.802 13.7601 128.817 13.1379C128.849 11.8935 128.859 10.6386 128.861 9.37305C128.373 10.9691 127.908 12.5475 127.468 14.1059C127.36 14.4928 127.252 14.881 127.144 15.2714C127.091 15.4643 127.037 15.6584 126.984 15.8525C126.926 16.0477 126.869 16.2429 126.81 16.4382C126.579 17.218 126.356 17.9931 126.139 18.7634C125.923 19.5338 125.712 20.2983 125.509 21.0593C125.409 21.4368 125.309 21.8156 125.209 22.1955C125.111 22.573 125.017 22.9482 124.906 23.3304C124.477 24.85 124.078 26.3496 123.708 27.828L123.731 28.4055Z" fill="#4D6A4A"/>
<path d="M125.629 33.3105C128.107 32.065 129.834 29.802 130.689 27.3451C130.912 26.7288 131.041 26.1172 131.15 25.4926C131.254 24.8693 131.318 24.2377 131.35 23.6037C131.381 22.9686 131.381 22.3311 131.359 21.6925C131.332 21.055 131.304 20.4105 131.212 19.7871C131.126 20.0717 131.047 20.3528 130.95 20.6386C130.851 20.9233 130.753 21.2079 130.656 21.4902C130.456 22.0559 130.248 22.6158 130.031 23.1709C129.599 24.2812 129.137 25.3715 128.644 26.4382C128.395 26.9734 128.15 27.498 127.876 28.0249C127.599 28.553 127.314 29.0752 127.023 29.5915C126.439 30.6242 125.828 31.6333 125.188 32.6177L125.629 33.3105Z" fill="#4D6A4A"/>
<path d="M132.685 28.0623C133.551 27.1155 134.516 26.1981 135.37 25.216C136.2 24.2421 136.915 23.2024 137.3 22.0039C137.23 22.9025 137.025 23.767 136.725 24.602C136.407 25.443 135.981 26.2604 135.509 27.0508C134.559 28.6339 133.392 30.1229 132.32 31.5813C131.865 32.2117 131.4 32.8551 130.93 33.5078C130.468 34.1536 130.015 34.8004 129.568 35.4438C129.435 35.6367 128.939 36.4576 128.418 37.168C127.897 37.8796 127.351 38.4818 127.131 38.2818C126.932 38.1007 127.161 37.3762 127.465 36.6282C127.769 35.8813 128.147 35.1086 128.254 34.8651C128.502 34.297 128.796 33.7266 129.086 33.1715C129.375 32.6163 129.691 32.0671 130.034 31.5249C130.795 30.3216 131.683 29.1561 132.685 28.0623Z" fill="#4D6A4A"/>
<path d="M128.575 45.3244C128.509 43.9178 128.743 42.5005 129.24 41.0926C129.485 40.3893 129.791 39.6895 130.145 39.0003C130.479 38.3158 130.858 37.6418 131.278 36.9843C132.116 35.6694 133.103 34.4098 134.17 33.1807C134.704 32.5667 135.258 31.9598 135.824 31.3576C136.375 30.7602 136.938 30.1686 137.504 29.5781C137.439 30.0792 137.366 30.5731 137.255 31.0683C137.14 31.5658 137.006 32.0575 136.855 32.5444C136.554 33.5171 136.185 34.4674 135.75 35.3836C135.312 36.301 134.819 37.1831 134.247 38.0299C133.658 38.8803 133.009 39.6907 132.305 40.4528C131.503 41.3208 130.602 42.1853 129.885 43.0898C129.163 43.9954 128.661 44.9316 128.547 45.9796L128.575 45.3244Z" fill="#4D6A4A"/>
<path d="M130.111 55.3399C131.559 53.5498 132.916 51.6503 134.176 49.6532C135.365 47.669 136.454 45.586 137.439 43.4172C138.369 41.2602 139.157 39.0267 139.853 36.7167C140.487 34.4232 140.973 32.0685 141.361 29.6562C139.408 33.4611 137.47 37.0719 135.256 40.5639C134.529 41.7294 133.797 42.8915 133.433 44.1394C132.974 45.5802 133.039 47.0727 132.619 48.4888C132.456 49.0322 132.227 49.5603 131.967 50.0813C131.691 50.6047 131.391 51.1198 131.113 51.6315C130.557 52.6571 130.09 53.6721 130.083 54.7494L130.111 55.3399Z" fill="#4D6A4A"/>
<path d="M110.435 38.4668C110.606 38.5221 110.963 38.6867 111.395 38.9149C111.818 39.1454 112.328 39.4383 112.832 39.7359C113.843 40.331 114.84 40.9532 115.101 41.0978C116.116 41.6659 117.139 42.2693 118.05 42.935C118.523 43.2726 119.307 43.8642 120.248 44.6075C120.718 44.9791 121.228 45.3884 121.757 45.8201C122.019 46.0365 122.297 46.2564 122.556 46.4846C122.814 46.714 123.075 46.9468 123.338 47.1786C125.418 49.0451 127.532 51.0528 128.23 51.969C128.545 52.3489 130.359 54.1543 129.852 54.5812C129.623 54.7706 129.018 54.4401 128.422 54.0332C127.827 53.6262 127.241 53.144 127.046 53.0017C126.571 52.6535 125.81 52.0102 124.913 51.2351C124.001 50.48 122.922 49.585 121.838 48.6864C119.757 46.9092 117.57 45.2579 116.779 44.5616C116.324 44.1653 115.791 43.6866 115.23 43.1667C114.956 42.9056 114.645 42.641 114.342 42.3693C114.038 42.0976 113.733 41.8212 113.432 41.5448C112.831 40.9908 112.251 40.4345 111.741 39.9088C111.486 39.6465 111.247 39.3913 111.033 39.1478C110.823 38.9043 110.605 38.6809 110.435 38.4668Z" fill="#4D6A4A"/>
<path d="M100.725 52.2891C114.202 61.0267 125.225 73.5645 131.968 88.1629L131.403 88.424C124.711 73.9373 113.766 61.4854 100.386 52.8125L100.725 52.2891Z" fill="#4D6A4A"/>
<path d="M100.846 68.7208C100.846 68.7208 101.073 68.7608 101.424 68.8232C101.6 68.8538 101.808 68.8914 102.035 68.9314C102.262 68.9725 102.513 69.0114 102.756 69.069C103.742 69.2831 104.846 69.5242 105.24 69.5783C105.953 69.6665 106.659 69.7547 107.36 69.8417C108.071 69.9288 108.8 70.0029 109.546 70.0675C111.093 70.1957 112.616 70.3228 114.119 70.4474C114.911 70.5109 115.73 70.5603 116.536 70.6321C117.351 70.7097 118.161 70.7885 118.97 70.8661C119.216 70.8897 119.471 70.9014 119.726 70.9085C119.872 70.912 120.016 70.9155 120.161 70.9203C120.279 70.9238 120.413 70.9014 120.474 70.7474C120.502 70.678 120.474 70.6168 120.437 70.5709C120.277 70.3628 119.948 70.2981 119.689 70.2075C119.414 70.1111 119.137 70.0193 118.855 69.9358C117.417 69.4865 115.92 69.0866 114.475 68.6891C113.044 68.2786 111.534 67.9928 110.061 67.7811C108.598 67.5576 107.055 67.5259 105.53 67.6506C104.763 67.7176 104.001 67.8199 103.221 67.9963C102.433 68.1775 101.641 68.4174 100.846 68.7208Z" fill="#4D6A4A"/>
<path d="M112.853 62.6494C111.192 62.7094 109.598 62.6988 108.075 62.6165C106.515 62.5753 105.027 62.4612 103.615 62.266C102.169 62.1119 100.788 61.8884 99.4853 61.5685C98.1433 61.3051 96.8825 60.9405 95.6758 60.5006C97.0989 59.9548 98.4903 59.7631 99.8699 59.7502C100.212 59.749 100.56 59.7525 100.896 59.7808C101.228 59.8125 101.56 59.8537 101.891 59.9031C102.55 60.0019 103.205 60.1324 103.854 60.2783C104.178 60.3512 104.51 60.4218 104.849 60.4888C105.184 60.5641 105.52 60.6394 105.859 60.7146C106.543 60.8605 107.253 60.9946 107.977 61.1145C108.715 61.2298 109.447 61.3439 110.165 61.4544C110.893 61.5638 111.629 61.6556 112.363 61.7261L112.853 62.6494Z" fill="#4D6A4A"/>
<path d="M103.174 54.3926C103.031 54.4079 102.808 54.335 102.757 54.3208C102.473 54.2444 102.19 54.1644 101.911 54.0809C101.35 53.9162 100.807 53.7245 100.263 53.5375C99.1595 53.1847 98.0998 52.7719 97.0789 52.2943L96.6978 52.1132L96.3109 51.9427C96.0533 51.8274 95.7993 51.7074 95.5476 51.5839C95.043 51.3369 94.5478 51.0735 94.0621 50.7924C93.8186 50.6524 93.5787 50.5078 93.3399 50.3596C93.0976 50.2184 92.853 50.0808 92.6131 49.935C92.132 49.6456 91.658 49.3398 91.1934 49.0164C90.8218 48.7576 90.4548 48.4883 90.0914 48.2084C89.7233 47.9402 89.354 47.6744 88.9929 47.3898C88.2684 46.8252 87.5615 46.2148 86.8711 45.5609C87.6603 45.5562 88.4483 45.6032 89.2293 45.6973C89.6198 45.7443 90.0091 45.8043 90.3949 45.8761C90.5877 45.9114 90.7806 45.9502 90.9723 45.9925C91.1629 46.0372 91.3475 46.0937 91.5345 46.1478C92.279 46.3701 93.0106 46.6394 93.7222 46.9534C94.0774 47.1099 94.4279 47.278 94.7725 47.4556C95.11 47.6474 95.4394 47.8544 95.7628 48.0696C96.2639 48.4024 96.7484 48.76 97.2224 49.1281C97.46 49.3128 97.694 49.4998 97.9269 49.688C98.1633 49.8715 98.3797 50.0855 98.6056 50.2843C99.4983 51.0958 100.39 51.8897 101.319 52.6272C101.655 52.9106 102 53.1812 102.356 53.4364C102.652 53.6481 103.127 53.8139 103.276 54.1915C103.33 54.3314 103.27 54.382 103.174 54.3926Z" fill="#4D6A4A"/>
<path d="M105.184 50.2328C104.722 49.5142 104.252 48.7838 103.743 48.0922C103.225 47.4136 102.686 46.7443 102.122 46.0939C101.012 44.766 99.7229 43.6416 98.3503 42.6113C98.8032 42.9454 99.0772 44.3367 99.3301 44.8931C99.4994 45.2624 99.6712 45.627 99.8464 45.9857C99.9346 46.1633 100.022 46.3421 100.11 46.522C100.196 46.7032 100.282 46.8843 100.369 47.0666C100.725 47.8064 101.095 48.5215 101.479 49.2142C101.671 49.56 101.866 49.8999 102.065 50.234C102.165 50.3998 102.265 50.5668 102.365 50.7327C102.462 50.9008 102.56 51.0702 102.657 51.2396C103.047 51.9018 103.451 52.5392 103.87 53.1544C104.288 53.7707 104.731 54.3493 105.156 54.9539C105.842 55.8995 106.434 57.0309 107.448 57.5849C107.309 56.2759 107.236 54.8751 106.867 53.6366C106.687 53.0473 106.465 52.4745 106.193 51.9453C105.918 51.4195 105.613 50.9126 105.297 50.4127L105.184 50.2328Z" fill="#4D6A4A"/>
<path d="M108.488 58.5883C107.901 58.3296 107.286 58.1402 106.63 58.0379C105.969 57.9426 105.287 57.9085 104.597 57.9144C103.906 57.9191 103.209 57.9638 102.516 58.0238L101.998 58.0708L101.471 58.1367L100.43 58.2684C99.7429 58.3543 99.0584 58.426 98.3927 58.4637C98.0598 58.4825 97.7317 58.4919 97.4106 58.4895C97.0919 58.4837 96.7637 58.4919 96.452 58.4707C95.8263 58.4354 95.2359 58.3402 94.6925 58.1602C94.4208 58.0697 94.1609 57.9579 93.9151 57.8227C93.7916 57.7545 93.6716 57.6804 93.5552 57.5992C93.4376 57.5192 93.3199 57.4416 93.207 57.3534C93.7198 57.1664 94.2209 57.0123 94.7313 56.8594C95.2406 56.7077 95.7546 56.5654 96.2697 56.4383C96.7849 56.3125 97.3024 56.2031 97.8199 56.1161C98.3362 56.0314 98.8596 55.9596 99.3583 55.9502C100.147 55.9244 100.921 55.9726 101.684 56.0773C102.442 56.1855 103.205 56.3254 103.918 56.5607C104.639 56.7841 105.351 57.0429 106.056 57.3216C106.409 57.4616 106.761 57.6051 107.113 57.7521C107.454 57.9144 107.794 58.0767 108.134 58.239L108.488 58.5883Z" fill="#4D6A4A"/>
<path d="M109.58 59.2855C110.868 57.7577 110.939 55.81 110.738 54.1445C110.705 53.8646 110.667 53.5835 110.625 53.3059C110.578 53.0343 110.526 52.7626 110.471 52.492C110.359 51.9522 110.232 51.4147 110.091 50.8795C109.949 50.3456 109.794 49.8128 109.626 49.2835C109.543 49.0189 109.456 48.7542 109.366 48.4908L109.23 48.0956L109.08 47.7122C108.677 46.6913 108.231 45.6774 107.758 44.6648C107.52 44.1614 107.283 43.645 107.026 43.1522L106.232 41.6797C106.374 42.423 106.517 43.171 106.661 43.9238C106.793 44.6671 106.926 45.4163 107.06 46.1691C107.323 47.6016 107.59 49.0518 107.861 50.5196C108.108 51.9675 108.359 53.3789 108.618 54.7538C108.682 55.0996 108.751 55.4348 108.811 55.7817C108.87 56.1264 108.929 56.4721 108.987 56.8191C109.107 57.493 109.227 58.1705 109.348 58.8515L109.58 59.2855Z" fill="#4D6A4A"/>
<path d="M112.986 62.0234C114.6 59.7805 115.191 57.1377 114.949 54.7759C114.807 53.6245 114.478 52.5412 114.036 51.5098C113.813 50.9946 113.564 50.4924 113.293 50.0008C113.01 49.5256 112.706 49.0634 112.392 48.6094C112.758 50.7464 112.888 52.98 112.895 55.1582C112.895 55.7039 112.885 56.2485 112.866 56.7919C112.852 57.3305 112.804 57.8951 112.759 58.442C112.664 59.5441 112.532 60.6391 112.363 61.7258L112.986 62.0234Z" fill="#4D6A4A"/>
<path d="M116.894 54.2902C117.072 53.695 117.272 53.0905 117.469 52.4836C117.564 52.1801 117.66 51.8767 117.757 51.5709C117.846 51.2698 117.931 50.9687 118.009 50.6688C118.317 49.4668 118.499 48.2683 118.337 47.1133C118.942 48.6176 119.046 50.2748 118.861 52.0261C118.691 53.7632 118.29 55.5322 117.949 57.2176C117.804 57.9445 117.657 58.6831 117.508 59.4323C117.371 60.1533 117.232 60.8825 117.092 61.6176C117.052 61.8328 116.943 62.7161 116.767 63.5229C116.591 64.331 116.35 65.0661 116.089 65.0272C115.854 64.992 115.781 64.3263 115.759 63.6017C115.737 62.8772 115.766 62.0939 115.766 61.8528C115.764 61.2871 115.787 60.7096 115.833 60.1203C115.87 59.5405 115.926 58.9548 116.008 58.3573C116.187 57.0341 116.482 55.6674 116.894 54.2902Z" fill="#4D6A4A"/>
<path d="M119.862 69.6658C119.585 69.1447 119.38 68.5766 119.231 67.9756C119.065 67.3887 118.96 66.7618 118.907 66.1079C118.854 65.4528 118.852 64.7683 118.894 64.0649C118.935 63.3616 119.026 62.6347 119.127 61.922C119.342 60.4871 119.695 59.011 120.123 57.5114C120.55 56.0118 121.057 54.4816 121.539 52.9785C121.837 53.8195 122.022 54.731 122.151 55.6413C122.278 56.554 122.334 57.4808 122.319 58.4135C122.31 58.8816 122.29 59.3427 122.239 59.8178C122.186 60.2942 122.117 60.7705 122.029 61.2457C121.853 62.196 121.609 63.1428 121.294 64.0779C120.935 65.1435 120.491 66.2479 120.207 67.2923C119.909 68.3508 119.778 69.3411 120.083 70.168L119.862 69.6658Z" fill="#4D6A4A"/>
<path d="M124.789 76.4822C125.119 75.4613 125.415 74.4252 125.677 73.376C125.924 72.3375 126.119 71.2978 126.291 70.2392C126.458 69.1842 126.599 68.1104 126.69 67.0389C126.764 65.9816 126.803 64.9136 126.809 63.8398C126.842 59.528 126.136 55.2504 124.826 51.0703C124.768 53.0662 124.667 55.0257 124.523 56.9464C124.492 57.4227 124.442 57.9108 124.392 58.3954L124.233 59.8409C124.122 60.7994 124.001 61.7474 123.871 62.686C123.779 63.3176 123.7 63.9351 123.633 64.5619C123.57 65.1853 123.548 65.7934 123.615 66.3685C123.693 67.0295 123.886 67.6317 124.082 68.2304C124.18 68.5303 124.281 68.8255 124.362 69.1313C124.438 69.4418 124.499 69.757 124.53 70.0816C124.63 71.0802 124.46 72.1669 124.359 73.1972C124.272 74.2193 124.195 75.2261 124.562 76.0494L124.789 76.4822Z" fill="#4D6A4A"/>
<path d="M102.174 73.8769C102.503 73.7628 103.534 73.6334 104.579 73.5323C105.621 73.43 106.672 73.3618 106.94 73.3312C108.003 73.1994 109.012 73.1677 110.035 73.17C110.555 73.1724 111.429 73.2018 112.497 73.2677C113.037 73.2947 113.6 73.3523 114.191 73.4182C114.782 73.4829 115.4 73.5582 116.02 73.6405C116.641 73.7228 117.264 73.8134 117.867 73.9087C118.47 74.0039 119.025 74.1251 119.551 74.2333C120.595 74.4544 121.464 74.6708 121.956 74.8284C122.062 74.8625 122.28 74.9143 122.546 74.9848C122.679 75.0201 122.824 75.0589 122.972 75.1025C123.118 75.1472 123.262 75.2001 123.405 75.253C123.969 75.4706 124.45 75.747 124.3 76.0257C124.163 76.2774 123.519 76.3092 122.859 76.2821C122.196 76.2563 121.53 76.1633 121.301 76.1563C120.756 76.1281 119.849 76.0234 118.783 75.8928C118.257 75.8281 117.683 75.7576 117.085 75.6835C116.792 75.6482 116.494 75.6106 116.191 75.5741C115.886 75.5447 115.576 75.5141 115.267 75.4835C114.064 75.3765 112.857 75.2683 111.826 75.1766C111.576 75.1554 111.337 75.1342 111.113 75.1142C110.885 75.0989 110.671 75.0848 110.472 75.0719C110.078 75.046 109.756 75.0213 109.524 74.9978C108.999 74.9449 108.381 74.8719 107.728 74.7884C107.406 74.7449 107.07 74.699 106.728 74.652C106.394 74.6002 106.034 74.5685 105.692 74.5226C105.002 74.4356 104.33 74.3391 103.729 74.2309C103.429 74.1768 103.146 74.1192 102.886 74.058C102.756 74.0275 102.633 73.9957 102.515 73.9628C102.396 73.9369 102.281 73.9087 102.174 73.8769Z" fill="#4D6A4A"/>
<path d="M111.976 66.0845C111.426 66.0645 110.88 66.0409 110.344 66.0092C109.805 65.9809 109.253 65.9668 108.723 65.9327C107.656 65.8704 106.626 65.7751 105.641 65.6293C104.639 65.5058 103.668 65.3505 102.757 65.1188C102.3 65.0059 101.862 64.8683 101.427 64.726C100.985 64.5931 100.557 64.4402 100.143 64.2661C100.758 64.2626 101.365 64.2449 101.967 64.2226C102.567 64.2144 103.153 64.2061 103.737 64.1979C104.331 64.1885 104.931 64.1791 105.547 64.1779C106.164 64.1767 106.799 64.1803 107.433 64.2297C108.081 64.2732 108.804 64.3802 109.537 64.4919C109.907 64.546 110.277 64.6001 110.633 64.6519C110.994 64.7013 111.353 64.7389 111.679 64.7777C112.332 64.8483 112.984 64.9189 113.636 64.9895C113.813 65.0094 114.415 65.1082 114.979 65.2094C115.543 65.3129 116.066 65.4082 116.066 65.4082C116.122 65.6857 115.185 65.8422 114.198 65.9421C113.212 66.0456 112.177 66.0915 111.976 66.0845Z" fill="#4D6A4A"/>
<path d="M115.685 80.9153C116.618 80.8588 119.287 80.6271 121.926 80.5495C124.503 80.4942 127.05 80.5848 127.564 80.6965C127.388 80.6589 127.21 80.3931 127.076 80.2978C126.973 80.2249 126.146 79.9626 125.287 79.7262C124.427 79.4875 123.539 79.2722 123.255 79.2511C122.984 79.2228 122.283 79.1546 121.584 79.0982C120.884 79.0417 120.187 78.9982 119.899 78.9923C119.372 78.9805 118.891 78.8806 118.358 78.9064C118.225 78.9135 118.044 78.8923 117.82 78.8523C117.591 78.8171 117.316 78.7629 117.003 78.6983C116.377 78.5677 115.599 78.3913 114.714 78.2254C114.272 78.1419 113.805 78.062 113.316 77.9902C112.826 77.9196 112.292 77.8773 111.757 77.8408C110.68 77.7715 109.545 77.7679 108.396 77.8726C108.175 77.8938 107.955 77.9208 107.728 77.9585C107.498 77.9985 107.268 78.0431 107.036 78.0937C106.574 78.1937 106.108 78.3125 105.647 78.4313C106.001 78.6124 106.353 78.7924 106.701 78.9711C107.037 79.1628 107.379 79.351 107.73 79.5286C108.432 79.8838 109.185 80.1943 110.05 80.4166C110.852 80.6495 111.729 80.8083 112.674 80.8906C113.146 80.9318 113.636 80.9529 114.141 80.9565C114.394 80.9576 114.651 80.9541 114.911 80.9459C115.165 80.94 115.422 80.9306 115.685 80.9153Z" fill="#4D6A4A"/>
<path d="M129.976 75.3516C130.871 74.0355 131.591 72.617 132.085 71.1845C132.332 70.4682 132.521 69.7508 132.648 69.0451C132.71 68.6934 132.761 68.3406 132.787 67.9995C132.809 67.6607 132.814 67.3279 132.802 67.0021C132.754 65.6966 132.73 64.4722 132.749 63.2231C132.762 62.5915 132.775 61.967 132.788 61.3354C132.807 60.6956 132.837 60.0334 132.881 59.3359C132.643 60.2086 132.397 61.0743 132.154 61.9317C132.033 62.3575 131.912 62.7844 131.789 63.2125C131.665 63.6395 131.538 64.0688 131.411 64.5004C130.916 66.2094 130.463 67.8854 130.128 69.5226C130.012 70.1107 129.883 70.7164 129.735 71.3092C129.584 71.9031 129.404 72.4912 129.149 73.071C128.918 73.6038 128.106 75.4198 127.479 76.9253C126.821 78.459 126.37 79.6928 127.058 79.2129C127.288 79.0518 127.93 78.2379 128.554 77.3816C129.181 76.5289 129.785 75.6303 129.976 75.3516Z" fill="#4D6A4A"/>
<path d="M139.492 112.832C136.025 114.854 121.165 114.071 119.394 112.832C116.836 111.044 115.265 107.115 115.371 103.25C115.475 99.3864 117.162 95.7263 119.582 93.6245C120.7 92.6553 122.025 91.9073 122.687 90.3606C123.5 88.46 123.018 86.0783 122.516 83.9941H136.368C135.867 86.0783 135.385 88.46 136.197 90.3606C136.859 91.9073 138.184 92.6553 139.302 93.6245C141.723 95.7251 143.409 99.3853 143.513 103.25C143.622 107.115 142.137 111.289 139.492 112.832Z" fill="#DF7A4C"/>
</svg>
