<svg width="120" height="121" viewBox="0 0 120 121" fill="none" xmlns="http://www.w3.org/2000/svg">
<g clip-path="url(#clip0_2406_51005)">
<circle cx="60" cy="60.413" r="59" fill="white"/>
<path d="M91.4004 71.1788C90.8647 68.7133 89.9587 66.6546 89.0865 65.072C89.0698 65.0417 89.0523 65.0124 89.0332 64.9827C87.1505 62.0413 84.5246 58.5565 80.8696 54.9237C76.8454 50.9235 72.6952 47.8587 69.1387 45.5858C68.6364 45.2646 68.3467 44.7908 68.3467 44.2912V43.1858C68.3467 42.8749 68.4592 42.5703 68.6718 42.3048C70.7922 39.6574 72.913 37.01 75.0334 34.3627C76.028 33.1207 74.6368 31.5648 72.7556 31.8161C71.149 32.0308 69.5424 32.2451 67.9363 32.4598C67.217 32.5558 66.4819 32.3762 65.9701 31.9793L62.0229 28.9184C61.1531 28.2441 59.7265 28.2441 58.8571 28.9184L54.9095 31.979C54.3977 32.3759 53.6626 32.5555 52.9433 32.4595C51.3368 32.2448 49.7302 32.0305 48.124 31.8158C46.2428 31.5645 44.8516 33.1204 45.8462 34.3623C47.9666 37.0097 50.0874 39.6571 52.2078 42.3045C52.4204 42.5697 52.5329 42.8746 52.5329 43.1855V44.2909C52.5329 44.7905 52.2432 45.2646 51.7409 45.5855C48.1844 47.8584 44.0342 50.9232 40.01 54.9234C36.355 58.5565 33.7291 62.041 31.8464 64.9824C31.8273 65.0121 31.8098 65.0414 31.7931 65.0717C30.9209 66.6543 30.0149 68.713 29.4792 71.1785C28.7476 74.5455 28.9757 77.4323 29.3584 79.4869C29.3648 79.5202 29.3719 79.5529 29.3806 79.5859C29.8547 81.3625 31.2193 85.1876 35.4931 88.6585C36.9562 89.8469 38.4738 90.7609 39.8789 91.4612C41.9329 92.4849 44.3346 93.0286 46.7892 93.0286H60.4398H74.0904C76.545 93.0286 78.9467 92.4849 81.0007 91.4612C82.4058 90.7609 83.9234 89.8469 85.3865 88.6585C89.6599 85.1876 91.0245 81.3625 91.499 79.5859C91.5077 79.5529 91.5152 79.5202 91.5212 79.4869C91.9039 77.4326 92.132 74.5458 91.4004 71.1788Z" fill="#E97623"/>
<path opacity="0.12" d="M89.0866 65.072C89.9589 66.6545 90.8649 68.7133 91.4005 71.1788C92.1321 74.5458 91.904 77.4327 91.5213 79.4869C91.5154 79.5202 91.5078 79.5529 91.4991 79.5859C91.0246 81.3625 89.66 85.1876 85.3867 88.6585C83.9236 89.8469 82.406 90.7609 81.0009 91.4612C78.9468 92.4849 76.5451 93.0286 74.0905 93.0286H60.4399V28.4127C61.014 28.4126 61.5881 28.5812 62.0231 28.9184L65.9702 31.9793C66.482 32.3762 67.2172 32.5558 67.9364 32.4598C69.5426 32.2451 71.1492 32.0308 72.7558 31.8161C74.6369 31.5648 76.0281 33.1207 75.0335 34.3627C72.9131 37.01 70.7923 39.6574 68.6719 42.3048C68.4593 42.5703 68.3469 42.8749 68.3469 43.1858V44.2912C68.3469 44.7908 68.6366 45.2646 69.1389 45.5858C72.6954 47.8587 76.8455 50.9235 80.8697 54.9237C84.5248 58.5565 87.1506 62.0413 89.0334 64.9827C89.0525 65.0124 89.0699 65.0417 89.0866 65.072Z" fill="black"/>
<path opacity="0.12" d="M48.8218 31.9092C51.0578 35.9481 53.2938 39.987 55.5298 44.0258C50.8436 49.9957 48.6938 53.0785 49.0789 53.275C49.4906 53.4848 52.7947 50.4014 58.9906 44.0258C58.1024 39.6439 57.2143 35.2623 56.3262 30.8804C56.0146 31.1293 55.7357 31.3455 55.5012 31.5241C54.6874 32.1442 54.4065 32.3155 53.9976 32.4079C53.7111 32.4727 53.4349 32.4824 53.4011 32.4833C53.1893 32.4896 53.0292 32.4733 52.5472 32.4097C52.2217 32.3667 52.0592 32.3452 51.8069 32.308C51.6566 32.2859 51.303 32.2377 50.5957 32.1408C50.1748 32.0833 49.5752 32.0034 48.8218 31.9092Z" fill="black"/>
<path d="M68.329 45.1708H52.5501C51.7195 45.1708 51.0464 44.6579 51.0464 44.0251C51.0464 43.3923 51.7195 42.8795 52.5501 42.8795H68.3286C69.1591 42.8795 69.8322 43.3923 69.8322 44.0251C69.8322 44.6579 69.1591 45.1708 68.329 45.1708Z" fill="#FFFBED"/>
<path d="M68.2826 43.704H52.5037C51.6732 43.704 51 43.1911 51 42.5583C51 41.9255 51.6732 41.4127 52.5037 41.4127H68.2822C69.1127 41.4127 69.7859 41.9255 69.7859 42.5583C69.7859 43.1911 69.1127 43.704 68.2826 43.704Z" fill="#FFFBED"/>
<path d="M59.3292 80.3846V77.7811C57.6543 77.7279 55.9731 77.2353 55 76.6206L55.7288 74.0947C56.7815 74.7135 58.2756 75.2606 59.8933 75.2606C61.5875 75.2606 62.7365 74.4365 62.7365 73.1737C62.7365 71.9493 61.8004 71.2006 59.8173 70.4724C57.0216 69.4594 55.1874 68.1611 55.1874 65.6987C55.1874 63.4017 56.803 61.6302 59.4842 61.1455V58.5429H61.6811V61.0086C63.3678 61.0637 64.5247 61.4749 65.3612 61.9081L64.6324 64.362C64.0057 64.0502 62.8231 63.438 61.0059 63.438C59.1376 63.438 58.4766 64.4126 58.4766 65.3097C58.4766 66.4039 59.4303 67.0363 61.7217 67.9353C64.7066 69.0555 66.0306 70.4815 66.0306 72.8809C66.0306 75.145 64.4535 77.1338 61.5264 77.6292V80.3846H59.3292V80.3846Z" fill="#F2F2F2"/>
<path d="M30.1174 9.60619C29.8215 9.1031 29.9892 8.45441 30.4974 8.16741C42.5114 1.383 56.5084 -1.05871 70.1288 1.27408C84.0968 3.66641 96.7672 10.9256 105.895 21.7656C115.023 32.6057 120.02 46.3268 120 60.4982C119.98 74.6696 114.944 88.3765 105.785 99.1905C96.6265 110.005 83.9355 117.228 69.9608 119.58C55.986 121.933 41.6296 119.263 29.4348 112.044C17.24 104.825 7.99418 93.5222 3.33519 80.1386C-1.20787 67.0879 -1.10352 52.88 3.61068 39.9131C3.81011 39.3645 4.42234 39.0923 4.96729 39.3014V39.3014C5.51223 39.5104 5.7835 40.1215 5.58443 40.6702C1.04881 53.1709 0.952399 66.8645 5.33134 79.4437C9.8262 92.3559 18.7464 103.26 30.5115 110.225C42.2767 117.19 56.1274 119.766 69.6099 117.496C83.0923 115.226 95.3362 108.258 104.172 97.8245C113.009 87.3914 117.867 74.1674 117.886 60.4952C117.906 46.823 113.085 33.5853 104.279 23.1271C95.472 12.6689 83.248 5.66544 69.772 3.35739C56.6436 1.10887 43.1527 3.45809 31.5691 9.98959C31.0607 10.2763 30.4133 10.1093 30.1174 9.60619V9.60619Z" fill="#D495AA"/>
</g>
<path d="M7.98633 21.7372H0.740234V18.4657L7.98633 9.85242H11.4531V18.6512H13.25V21.7372H11.4531V24.413H7.98633V21.7372ZM7.98633 18.6512V14.1493L4.1582 18.6512H7.98633Z" fill="#C51550"/>
<defs>
<clipPath id="clip0_2406_51005">
<rect width="120" height="120" fill="white" transform="translate(0 0.412964)"/>
</clipPath>
</defs>
</svg>
