<svg width="120" height="121" viewBox="0 0 120 121" fill="none" xmlns="http://www.w3.org/2000/svg">
<g clip-path="url(#clip0_2406_50978)">
<circle cx="60" cy="60.413" r="59" fill="white"/>
<rect x="23" y="67.413" width="49" height="6" fill="#DDCFC6"/>
<rect x="48" y="53.413" width="49" height="6" fill="#DDCFC6"/>
<rect x="23" y="39.413" width="74" height="6" fill="#DDCFC6"/>
<rect x="77" y="67.413" width="20" height="6" fill="#DDCFC6"/>
<rect x="23" y="53.413" width="20" height="6" fill="#DDCFC6"/>
<rect x="23" y="81.413" width="20" height="6" fill="#DDCFC6"/>
<path d="M38.7537 64.3886L25 95.9732L56.5753 82.2257L38.7537 64.3886Z" fill="#FFFAED"/>
<path d="M56.5753 82.2256L25 95.9731L42.275 67.913L56.5753 82.2256Z" fill="#FEEAE1"/>
<path d="M56.5753 82.2256L25 95.9731L52.9999 78.6472L56.5753 82.2256Z" fill="#FFC0AD"/>
<path d="M30.3796 83.6176L25 95.973L37.3554 90.5934L30.3796 83.6176Z" fill="#3A556A"/>
<path d="M94.6622 39.3087L81.6633 26.3098C80.33 24.9765 77.9913 25.1498 76.4415 26.6965L67.5137 35.6243L85.3446 53.4552L94.2724 44.5305C95.8222 42.9807 95.9955 40.642 94.6622 39.3087Z" fill="#E56353"/>
<path d="M94.2727 44.5305L85.3449 53.4552L72.5 40.6103L84.5 29.1462L94.6625 39.3087C95.9958 40.642 95.8225 42.9806 94.2727 44.5305Z" fill="#D2402E"/>
<path d="M94.2724 44.5307L85.3446 53.4554L81.0776 49.1885L92.8407 37.4874L94.6622 39.3089C95.9955 40.6422 95.8223 42.9808 94.2724 44.5307Z" fill="#B21A1A"/>
<path d="M81.6169 57.1795L56.575 82.2214C54.5426 80.3158 51.4584 80.0528 48.7423 81.3181L48.733 81.3057L48.7578 81.281C50.0323 78.4999 49.7013 75.3322 47.6627 73.2936C45.6333 71.2642 42.4873 70.927 39.7186 72.1799L39.6938 72.2046C39.6938 72.217 39.6846 72.2356 39.6722 72.248L39.6412 72.217C39.666 72.2047 39.6846 72.1954 39.7 72.1892C40.9467 69.4793 40.6621 66.4074 38.7534 64.3874L63.7891 39.3517L81.6169 57.1795Z" fill="#27A2DB"/>
<path d="M81.6172 57.1792L56.5754 82.2211C54.543 80.3155 51.4588 80.0525 48.7427 81.3178L48.7334 81.3054L48.7581 81.2807C50.0326 78.4996 49.7016 75.3319 47.663 73.2933C45.6442 71.2744 42.5201 70.9303 39.7619 72.1603L39.6725 72.2477C39.6849 72.2353 39.6942 72.2167 39.6942 72.2043L39.7189 72.1796C39.7332 72.1731 39.7476 72.1667 39.7619 72.1603L68.5 44.0621L81.6172 57.1792Z" fill="#1B8BC9"/>
<path d="M56.5755 82.2214L81.6173 57.1795L77.0001 52.5624L48.7427 81.3181C51.4588 80.0528 54.543 80.3158 56.5755 82.2214Z" fill="#195EAF"/>
<path d="M85.3454 53.4562L67.5137 35.6245L63.7863 39.3518L81.6181 57.1836L85.3454 53.4562Z" fill="white"/>
<path d="M30.1174 9.60619C29.8215 9.1031 29.9892 8.45441 30.4974 8.16741C42.5114 1.383 56.5084 -1.05871 70.1288 1.27408C84.0968 3.66641 96.7672 10.9256 105.895 21.7656C115.023 32.6057 120.02 46.3268 120 60.4982C119.98 74.6696 114.944 88.3765 105.785 99.1905C96.6265 110.005 83.9355 117.228 69.9608 119.58C55.986 121.933 41.6296 119.263 29.4348 112.044C17.24 104.825 7.99418 93.5222 3.33519 80.1386C-1.20787 67.0879 -1.10352 52.88 3.61068 39.9131C3.81011 39.3645 4.42234 39.0923 4.96729 39.3014V39.3014C5.51223 39.5104 5.7835 40.1215 5.58443 40.6702C1.04881 53.1709 0.952399 66.8645 5.33134 79.4437C9.8262 92.3559 18.7464 103.26 30.5115 110.225C42.2767 117.19 56.1274 119.766 69.6099 117.496C83.0923 115.226 95.3362 108.258 104.172 97.8245C113.009 87.3914 117.867 74.1674 117.886 60.4952C117.906 46.823 113.085 33.5853 104.279 23.1271C95.472 12.6689 83.248 5.66544 69.772 3.35739C56.6436 1.10887 43.1527 3.45809 31.5691 9.98959C31.0607 10.2763 30.4133 10.1093 30.1174 9.60619V9.60619Z" fill="#D495AA"/>
</g>
<path d="M12.791 24.413H0.857422C0.994141 23.2346 1.40755 22.1278 2.09766 21.0927C2.79427 20.051 4.09635 18.8238 6.00391 17.411C7.16927 16.5451 7.91471 15.8876 8.24023 15.4384C8.56576 14.9891 8.72852 14.5627 8.72852 14.1591C8.72852 13.7229 8.56576 13.3518 8.24023 13.0458C7.92122 12.7333 7.51758 12.577 7.0293 12.577C6.52148 12.577 6.10482 12.7365 5.7793 13.0555C5.46029 13.3746 5.24544 13.9377 5.13477 14.745L1.15039 14.4227C1.30664 13.3029 1.5931 12.4305 2.00977 11.8055C2.42643 11.174 3.01237 10.6923 3.76758 10.3602C4.5293 10.0217 5.58073 9.85242 6.92188 9.85242C8.32161 9.85242 9.40885 10.0119 10.1836 10.3309C10.9648 10.6499 11.5768 11.1415 12.0195 11.8055C12.4688 12.4631 12.6934 13.202 12.6934 14.0223C12.6934 14.8947 12.4362 15.7281 11.9219 16.5223C11.4141 17.3166 10.4863 18.189 9.13867 19.1395C8.33789 19.6929 7.80078 20.0803 7.52734 20.3016C7.26042 20.523 6.94466 20.8127 6.58008 21.1708H12.791V24.413Z" fill="#C51550"/>
<defs>
<clipPath id="clip0_2406_50978">
<rect width="120" height="120" fill="white" transform="translate(0 0.412964)"/>
</clipPath>
</defs>
</svg>
