<svg width="73" height="72" viewBox="0 0 73 72" fill="none" xmlns="http://www.w3.org/2000/svg">
<g clip-path="url(#clip0_1757_51732)">
<circle cx="36.5001" cy="36" r="35.4" fill="white"/>
<path d="M54.7703 20.9474C51.8647 20.7793 45.0773 19.6181 36.6662 13.0773C28.2545 19.6188 21.467 20.7793 18.5614 20.9474H17.0317V43.4905C17.0317 54.3341 36.6656 61.3252 36.6656 61.3252C36.6656 61.3252 56.3 54.3341 56.3 43.4905V20.9474H54.7703Z" fill="#4ACFAD"/>
<path d="M36.6661 13.0773C45.0773 19.6181 51.8647 20.7793 54.7703 20.9474H56.3V43.4905C56.3 54.3341 36.6655 61.3252 36.6655 61.3252L36.6661 13.0773Z" fill="#21C69C"/>
<path d="M36.6652 56.2449C29.6773 51.5718 21.3179 48.709 21.3179 43.4899V24.9449C24.9606 24.3504 30.359 22.708 36.6652 18.3854C42.9714 22.708 48.3692 24.3504 52.0119 24.9449V43.4899C52.0126 48.709 43.6537 51.5718 36.6652 56.2449Z" fill="#39A186"/>
<path d="M52.0122 24.9449C48.3695 24.3504 42.9717 22.708 36.6655 18.3854V56.2449C43.654 51.5718 52.0129 48.709 52.0122 43.4899V24.9449Z" fill="#20876C"/>
<g clip-path="url(#clip1_1757_51732)">
<path d="M32.2999 41.0499C32.2999 40.8874 32.2405 40.7468 32.1218 40.6281C32.003 40.5093 31.8624 40.4499 31.6999 40.4499C31.5374 40.4499 31.3968 40.5093 31.278 40.6281C31.1593 40.7468 31.0999 40.8874 31.0999 41.0499C31.0999 41.2124 31.1593 41.3531 31.278 41.4718C31.3968 41.5906 31.5374 41.6499 31.6999 41.6499C31.8624 41.6499 32.003 41.5906 32.1218 41.4718C32.2405 41.3531 32.2999 41.2124 32.2999 41.0499ZM43.0999 35.6499C43.0999 35.3312 42.978 35.0515 42.7343 34.8109C42.4905 34.5703 42.2124 34.4499 41.8999 34.4499H38.5999C38.5999 34.0874 38.7499 33.589 39.0499 32.9546C39.3499 32.3203 39.4999 31.8187 39.4999 31.4499C39.4999 30.8374 39.3999 30.3843 39.1999 30.0906C38.9999 29.7968 38.5999 29.65 37.9999 29.65C37.8374 29.8125 37.7186 30.0781 37.6436 30.4468C37.5686 30.8156 37.4733 31.2078 37.3577 31.6234C37.2421 32.039 37.0561 32.3812 36.7999 32.6499C36.6624 32.7937 36.4218 33.0781 36.078 33.5031C36.053 33.5343 35.9811 33.6281 35.8624 33.7843C35.7436 33.9406 35.6452 34.0687 35.5671 34.1687C35.489 34.2687 35.3811 34.4015 35.2436 34.5671C35.1061 34.7328 34.9811 34.8703 34.8686 34.9796C34.7561 35.089 34.6358 35.1999 34.5077 35.3124C34.3796 35.4249 34.2546 35.5093 34.1327 35.5656C34.0108 35.6218 33.8999 35.6499 33.7999 35.6499H33.4999V41.6499H33.7999C33.8811 41.6499 33.9796 41.6593 34.0952 41.6781C34.2108 41.6968 34.314 41.7171 34.4046 41.739C34.4952 41.7609 34.614 41.7953 34.7608 41.8421C34.9077 41.889 35.0171 41.9249 35.089 41.9499C35.1608 41.9749 35.2718 42.014 35.4218 42.0671C35.5718 42.1203 35.6624 42.1531 35.6936 42.1656C37.0124 42.6218 38.0811 42.8499 38.8999 42.8499H40.0343C41.2343 42.8499 41.8343 42.3281 41.8343 41.2843C41.8343 41.1218 41.8186 40.9468 41.7874 40.7593C41.9749 40.6593 42.1233 40.4953 42.2327 40.2671C42.3421 40.039 42.3968 39.8093 42.3968 39.5781C42.3968 39.3468 42.3405 39.1312 42.228 38.9312C42.5593 38.6187 42.7249 38.2468 42.7249 37.8156C42.7249 37.6593 42.6936 37.4859 42.6311 37.2953C42.5686 37.1046 42.4905 36.9562 42.3968 36.8499C42.5968 36.8437 42.764 36.6968 42.8983 36.4093C43.0327 36.1218 43.0999 35.8687 43.0999 35.6499ZM44.2999 35.6406C44.2999 36.1968 44.1468 36.7062 43.8405 37.1687C43.8968 37.3749 43.9249 37.5906 43.9249 37.8156C43.9249 38.2968 43.8061 38.7468 43.5686 39.1656C43.5874 39.2968 43.5968 39.4312 43.5968 39.5687C43.5968 40.1999 43.4093 40.7562 43.0343 41.2374C43.0405 42.1062 42.7749 42.7921 42.2374 43.2953C41.6999 43.7984 40.9905 44.0499 40.1093 44.0499H38.8999C38.2999 44.0499 37.7077 43.9796 37.1233 43.839C36.539 43.6984 35.8624 43.4937 35.0936 43.2249C34.3686 42.9749 33.9374 42.8499 33.7999 42.8499H31.0999C30.7687 42.8499 30.4858 42.7328 30.2515 42.4984C30.0171 42.264 29.8999 41.9812 29.8999 41.6499V35.6499C29.8999 35.3187 30.0171 35.0359 30.2515 34.8015C30.4858 34.5671 30.7687 34.4499 31.0999 34.4499H33.6686C33.8936 34.2999 34.3218 33.8156 34.953 32.9968C35.3155 32.5281 35.6499 32.1281 35.9561 31.7968C36.1061 31.6406 36.2171 31.3734 36.289 30.9953C36.3608 30.6171 36.4561 30.2218 36.5749 29.8093C36.6936 29.3968 36.8874 29.0593 37.1561 28.7968C37.3999 28.5656 37.6811 28.45 37.9999 28.45C38.5249 28.45 38.9968 28.5515 39.4155 28.7546C39.8343 28.9578 40.153 29.275 40.3718 29.7062C40.5905 30.1375 40.6999 30.7187 40.6999 31.4499C40.6999 32.0312 40.5499 32.6312 40.2499 33.2499H41.8999C42.5499 33.2499 43.1124 33.4874 43.5874 33.9624C44.0624 34.4374 44.2999 34.9968 44.2999 35.6406Z" fill="white"/>
</g>
<path d="M72.5 36C72.5 55.8822 56.3822 72 36.5 72C16.6177 72 0.5 55.8822 0.5 36C0.5 16.1177 16.6177 0 36.5 0C56.3822 0 72.5 16.1177 72.5 36ZM1.76818 36C1.76818 55.1818 17.3181 70.7318 36.5 70.7318C55.6818 70.7318 71.2318 55.1818 71.2318 36C71.2318 16.8181 55.6818 1.26818 36.5 1.26818C17.3181 1.26818 1.76818 16.8181 1.76818 36Z" fill="#D8BE96"/>
</g>
<defs>
<clipPath id="clip0_1757_51732">
<rect width="72" height="72" fill="white" transform="translate(0.5)"/>
</clipPath>
<clipPath id="clip1_1757_51732">
<rect width="14.4" height="15.6" fill="white" transform="translate(29.8999 28.45)"/>
</clipPath>
</defs>
</svg>
