<svg width="120" height="121" viewBox="0 0 120 121" fill="none" xmlns="http://www.w3.org/2000/svg">
<g clip-path="url(#clip0_2406_35595)">
<circle cx="60" cy="60.413" r="59" fill="white"/>
<path d="M27.6779 11.1222C27.3578 10.6341 27.4938 9.978 27.9874 9.66659C39.9706 2.1069 54.2549 -0.974211 68.3094 0.991132C82.7131 3.00531 95.895 10.1827 105.403 21.1883C114.911 32.1939 120.098 46.2784 119.999 60.822C119.899 75.3656 114.521 89.378 104.864 100.253C95.2068 111.128 81.9283 118.125 67.4984 119.943C53.0686 121.76 38.4697 118.275 26.4173 110.134C14.365 101.994 5.6797 89.7529 1.97701 75.6882C-1.6359 61.9645 -0.264897 47.4162 5.82528 34.6234C6.07617 34.0964 6.7116 33.8839 7.2341 34.144V34.144C7.7566 34.4041 7.96827 35.0384 7.71773 35.5655C1.85568 47.8996 0.538531 61.9219 4.021 75.1501C7.59326 88.7193 15.9726 100.529 27.6004 108.383C39.2282 116.236 53.3127 119.599 67.2343 117.845C81.1558 116.092 93.9666 109.341 103.284 98.8495C112.6 88.3577 117.789 74.8388 117.885 60.8076C117.981 46.7764 112.977 33.188 103.804 22.5701C94.6305 11.9522 81.913 5.02763 68.0167 3.0844C54.4696 1.19002 40.7012 4.15547 29.1466 11.4344C28.6528 11.7455 27.998 11.6103 27.6779 11.1222V11.1222Z" fill="#DC7D09"/>
<path d="M99.0001 92.758H21.0122V40.3016C21.0122 38.1534 22.7662 36.413 24.9311 36.413H95.0812C97.2461 36.413 99.0001 38.1534 99.0001 40.3016V92.758Z" fill="#EDEDED"/>
<path d="M98 46.4127H22V91.4127H98V46.4127Z" fill="white"/>
<path d="M98 46.4127H60V91.4127H98V46.4127Z" fill="#E0F8EF"/>
<path d="M99 45.413V39.4102C99 37.7542 98.0156 36.413 96.8026 36.413H23.1954C21.9824 36.413 21 37.7542 21 39.4102V45.4102H99V45.413Z" fill="#373941"/>
<path d="M99 39.4102V45.4102H60L59.999 36.413H96.8026C98.0156 36.413 99 37.7542 99 39.4102Z" fill="black" fill-opacity="0.27"/>
<path d="M28.8261 40.579C28.8261 42.2589 27.465 43.62 25.7851 43.62C24.1052 43.62 22.7441 42.2589 22.7441 40.579C22.7441 38.8991 24.1052 37.538 25.7851 37.538C27.465 37.538 28.8261 38.8991 28.8261 40.579Z" fill="#F75757"/>
<path d="M37.8666 40.6007C37.8666 42.2806 36.5056 43.6417 34.8256 43.6417C33.1457 43.6417 31.7847 42.2806 31.7847 40.6007C31.7847 38.9208 33.1457 37.5598 34.8256 37.5598C36.5056 37.5598 37.8666 38.9208 37.8666 40.6007Z" fill="#EFD225"/>
<path d="M47 40.4131C47 42.0704 45.6573 43.4131 44 43.4131C42.3427 43.4131 41 42.0704 41 40.4131C41 38.7558 42.3427 37.4131 44 37.4131C45.6573 37.4131 47 38.7558 47 40.4131Z" fill="#62D845"/>
<path d="M70.1993 62.9717L68.4101 64.9325C68.8709 66.0746 69.1111 67.305 69.1111 68.5697C69.1111 71.1628 68.1013 73.5991 66.268 75.4324C64.4346 77.2657 61.9984 78.2755 59.4053 78.2755C56.8122 78.2755 54.3759 77.2657 52.5426 75.4324C50.7093 73.5991 49.6995 71.1628 49.6995 68.5697C49.6995 65.9766 50.7093 63.5403 52.5426 61.707C54.3759 59.8737 56.8122 58.8639 59.4053 58.8639C61.9151 58.8639 64.2778 59.81 66.0915 61.5306L67.7875 59.7659C65.6062 57.6875 62.6552 56.413 59.4053 56.413C52.6897 56.413 47.2485 61.8541 47.2485 68.5697C47.2485 75.2853 52.6897 80.7264 59.4053 80.7264C66.1209 80.7264 71.562 75.2853 71.562 68.5697C71.562 66.5501 71.0669 64.6482 70.1993 62.9717Z" fill="#62D845"/>
<path d="M72.7138 57.4448C72.2334 56.9644 71.454 56.9644 70.9736 57.4448L58.9149 69.5035L53.91 65.3124C53.4297 64.832 52.6502 64.832 52.1699 65.3124C51.6895 65.7928 51.6895 66.5722 52.1699 67.0526L58.0326 73.729C58.0375 73.7339 58.0424 73.7388 58.0424 73.7437C58.2825 73.9839 58.5963 74.1015 58.91 74.1015C59.2237 74.1015 59.5423 73.9839 59.7776 73.7437C59.7825 73.7388 59.7874 73.7339 59.7874 73.729L72.6991 59.185C73.1942 58.7046 73.1942 57.9203 72.7138 57.4448Z" fill="#62D845"/>
</g>
<path d="M5.00781 14.2372L1.24805 13.5634C1.56055 12.3654 2.15951 11.4475 3.04492 10.8094C3.93685 10.1714 5.19661 9.85242 6.82422 9.85242C8.69271 9.85242 10.0436 10.2007 10.877 10.8973C11.7103 11.594 12.127 12.4696 12.127 13.5243C12.127 14.1428 11.9577 14.7027 11.6191 15.204C11.2806 15.7053 10.7695 16.1447 10.0859 16.5223C10.6393 16.6591 11.0625 16.8186 11.3555 17.0009C11.8307 17.2938 12.1986 17.6812 12.459 18.163C12.7259 18.6382 12.8594 19.2079 12.8594 19.8719C12.8594 20.7053 12.6413 21.5061 12.2051 22.2743C11.7689 23.036 11.1406 23.6252 10.3203 24.0419C9.5 24.452 8.42253 24.6571 7.08789 24.6571C5.78581 24.6571 4.75716 24.5041 4.00195 24.1981C3.25326 23.8921 2.63477 23.4462 2.14648 22.8602C1.66471 22.2678 1.29362 21.5256 1.0332 20.6337L5.00781 20.1063C5.16406 20.9071 5.40495 21.4637 5.73047 21.7762C6.0625 22.0822 6.48242 22.2352 6.99023 22.2352C7.52409 22.2352 7.9668 22.0399 8.31836 21.6493C8.67643 21.2587 8.85547 20.7378 8.85547 20.0868C8.85547 19.4227 8.68294 18.9084 8.33789 18.5438C7.99935 18.1792 7.53711 17.9969 6.95117 17.9969C6.63867 17.9969 6.20898 18.0751 5.66211 18.2313L5.86719 15.3895C6.08854 15.4221 6.26107 15.4384 6.38477 15.4384C6.9056 15.4384 7.33854 15.2723 7.68359 14.9403C8.03516 14.6083 8.21094 14.2144 8.21094 13.7587C8.21094 13.3225 8.08073 12.9742 7.82031 12.7137C7.5599 12.4533 7.20182 12.3231 6.74609 12.3231C6.27734 12.3231 5.89648 12.4663 5.60352 12.7528C5.31055 13.0328 5.11198 13.5275 5.00781 14.2372Z" fill="#06974F"/>
<defs>
<clipPath id="clip0_2406_35595">
<rect width="120" height="120" fill="white" transform="translate(0 0.412964)"/>
</clipPath>
</defs>
</svg>
