<svg width="120" height="121" viewBox="0 0 120 121" fill="none" xmlns="http://www.w3.org/2000/svg">
<circle cx="60" cy="60.413" r="59" fill="white"/>
<mask id="mask0_2406_50938" style="mask-type:alpha" maskUnits="userSpaceOnUse" x="0" y="0" width="120" height="121">
<circle cx="60" cy="60.413" r="60" fill="#FAFAFA"/>
<circle cx="60" cy="60.413" r="59.5" stroke="#4A2E19" stroke-opacity="0.15"/>
</mask>
<g mask="url(#mask0_2406_50938)">
<path d="M30.1174 9.60619C29.8215 9.1031 29.9892 8.45441 30.4974 8.16741C42.5114 1.383 56.5084 -1.05871 70.1288 1.27408C84.0968 3.66641 96.7672 10.9256 105.895 21.7656C115.023 32.6057 120.02 46.3268 120 60.4982C119.98 74.6696 114.944 88.3765 105.785 99.1905C96.6265 110.005 83.9355 117.228 69.9608 119.58C55.986 121.933 41.6296 119.263 29.4348 112.044C17.24 104.825 7.99418 93.5222 3.33519 80.1386C-1.20787 67.0879 -1.10352 52.88 3.61068 39.9131C3.81011 39.3645 4.42234 39.0923 4.96729 39.3014V39.3014C5.51223 39.5104 5.7835 40.1215 5.58443 40.6702C1.04881 53.1709 0.952399 66.8645 5.33134 79.4437C9.8262 92.3559 18.7464 103.26 30.5115 110.225C42.2767 117.19 56.1274 119.766 69.6099 117.496C83.0923 115.226 95.3362 108.258 104.172 97.8245C113.009 87.3914 117.867 74.1674 117.886 60.4952C117.906 46.823 113.085 33.5853 104.279 23.1271C95.472 12.6689 83.248 5.66544 69.772 3.35739C56.6436 1.10887 43.1527 3.45809 31.5691 9.98959C31.0607 10.2763 30.4133 10.1093 30.1174 9.60619V9.60619Z" fill="#82B9BA"/>
<path fill-rule="evenodd" clip-rule="evenodd" d="M71.7514 93.4763C71.7428 94.0839 72.2282 94.5791 72.8358 94.585L75.8763 94.6C75.8764 94.5994 75.8764 94.5988 75.8764 94.5982L76.6342 94.6037L77.838 94.6097C77.8379 94.6106 77.8379 94.6116 77.8378 94.6125L79.4397 94.6242C80.0473 94.6301 80.5422 94.14 80.5508 93.5324L80.7596 75.9138C80.7682 75.3061 80.2827 74.811 79.6751 74.8051L76.2906 74.7801L73.0713 74.7659C72.4637 74.76 71.9688 75.25 71.9601 75.8577L71.7514 93.4763ZM76.2302 72.5775L76.0781 72.5763C76.0781 72.5765 76.0781 72.5766 76.0781 72.5768L72.9745 72.5632C72.4371 72.5596 72.0049 72.0643 72.0111 71.4542L72.0439 68.7018C72.0525 68.0942 72.4942 67.6042 73.0316 67.6078L76.0343 67.6207L79.8799 67.6489C80.4173 67.6525 80.8495 68.1478 80.8433 68.7579L80.8106 71.5103C80.8019 72.1179 80.3603 72.6079 79.8229 72.6043L78.0374 72.5909C78.0373 72.5891 78.0373 72.5872 78.0372 72.5854L76.2302 72.5775ZM75.9341 65.143L75.6541 65.1408C75.6541 65.1411 75.6541 65.1415 75.6541 65.1419L73.0589 65.1313C72.5215 65.1277 72.0893 64.6324 72.0955 64.0224L72.1282 61.2699C72.1369 60.6623 72.5785 60.1723 73.1159 60.176L75.1906 60.1836C75.1906 60.1838 75.1906 60.1839 75.1906 60.1841L79.9667 60.2195C80.5041 60.2231 80.9363 60.7184 80.9301 61.3284L80.8973 64.0809C80.8887 64.6885 80.447 65.1785 79.9096 65.1748L77.6137 65.1565C77.6135 65.1542 77.6134 65.152 77.6132 65.1498L75.9341 65.143ZM76.8585 57.7539L80.0278 57.7768C80.5652 57.7804 81.0069 57.2905 81.0155 56.6828L81.0483 53.9304C81.0545 53.3203 80.6223 52.8251 80.0849 52.8214L74.4871 52.7812L73.2341 52.7779C72.6967 52.7743 72.255 53.2643 72.2464 53.8719L72.2136 56.6243C72.2074 57.2344 72.6397 57.7297 73.1771 57.7333L76.8575 57.7464C76.8578 57.7489 76.8581 57.7514 76.8585 57.7539ZM74.7865 46.1419L81.1043 46.1887C81.7119 46.1947 82.2068 45.7046 82.2154 45.0969L82.3853 30.7827C82.3939 30.1751 81.9084 29.6799 81.3009 29.674L66.6 29.564C66.5974 29.5596 66.5948 29.5552 66.5923 29.5508L39.5436 29.3695C38.936 29.3636 38.4411 29.8537 38.4325 30.4613L38.2626 44.7755C38.254 45.3831 38.7394 45.8783 39.347 45.8842L74.7846 46.1339C74.7852 46.1366 74.7859 46.1392 74.7865 46.1419ZM65.5831 24.0494C65.5783 24.0441 65.5736 24.0388 65.5688 24.0336L36.1936 23.8311C34.3732 23.8157 32.8812 25.2836 32.8578 27.1089L32.0203 97.5857C31.9969 99.411 33.4557 100.899 35.2761 100.914L75.4842 101.2C75.4842 101.201 75.4841 101.202 75.4841 101.203L83.7556 101.264C85.576 101.28 87.068 99.8117 87.0914 97.9864L87.9337 27.5096C87.9401 25.6965 86.4813 24.2086 84.661 24.1932L65.5831 24.0494ZM46.5955 94.3917C47.1329 94.3954 47.5768 93.9611 47.5829 93.4188L47.6659 86.568C47.6696 86.0281 47.2372 85.5861 46.6998 85.5824L39.8662 85.5323C39.3288 85.5287 38.8848 85.963 38.8788 86.5052L38.7957 93.3561C38.7921 93.896 39.2244 94.338 39.7618 94.3416L46.5955 94.3917ZM46.729 83.3795C47.2664 83.3831 47.7103 82.9488 47.7164 82.4066L47.797 75.5533C47.8006 75.0135 47.3683 74.5714 46.8309 74.5678L39.9973 74.5177C39.4599 74.514 39.0159 74.9483 39.0099 75.4906L38.9268 82.3415C38.9232 82.8813 39.3555 83.3233 39.8929 83.327L46.729 83.3795ZM46.86 72.3697C47.3974 72.3733 47.8414 71.939 47.8474 71.3968L47.9305 64.5459C47.9341 64.0061 47.5018 63.564 46.9644 63.5604L40.1308 63.5103C39.5934 63.5066 39.1494 63.9409 39.1434 64.4832L39.0603 71.3341C39.0567 71.8739 39.489 72.3159 40.0264 72.3196L46.86 72.3697ZM46.9911 61.355C47.5285 61.3587 47.9725 60.9244 47.9785 60.3821L48.0616 53.5313C48.0652 52.9914 47.6329 52.5494 47.0955 52.5457L40.2618 52.4956C39.7245 52.492 39.2805 52.9263 39.2744 53.4685L39.1914 60.3194C39.1878 60.8593 39.6201 61.3013 40.1575 61.3049L46.9911 61.355ZM57.5806 94.4738C58.118 94.4774 58.5619 94.0431 58.568 93.5008L58.6511 86.65C58.6547 86.1101 58.2224 85.6681 57.685 85.6645L50.8513 85.6143C50.3139 85.6107 49.87 86.045 49.8639 86.5873L49.7809 93.4381C49.7772 93.978 50.2096 94.42 50.747 94.4236L57.5806 94.4738ZM57.7141 83.4615C58.2515 83.4652 58.6954 83.0309 58.7015 82.4886L58.7846 75.6377C58.7882 75.0979 58.3559 74.6559 57.8185 74.6522L50.9848 74.6021C50.4474 74.5985 50.0035 75.0328 49.9974 75.575L49.9144 82.4259C49.9107 82.9657 50.3431 83.4078 50.8805 83.4114L57.7141 83.4615ZM57.8427 72.4493C58.3801 72.4529 58.8241 72.0186 58.8301 71.4764L58.9132 64.6255C58.9168 64.0857 58.4845 63.6436 57.9471 63.64L51.1135 63.5899C50.5761 63.5862 50.1321 64.0205 50.1261 64.5628L50.043 71.4137C50.0394 71.9535 50.4717 72.3955 51.0091 72.3992L57.8427 72.4493ZM57.9762 61.4371C58.5136 61.4407 58.9576 61.0064 58.9636 60.4641L59.0467 53.6133C59.0503 53.0734 58.618 52.6314 58.0806 52.6278L51.247 52.5776C50.7096 52.574 50.2656 53.0083 50.2596 53.5506L50.1765 60.4014C50.1729 60.9413 50.6052 61.3833 51.1426 61.3869L57.9762 61.4371ZM68.5657 94.5558C69.1031 94.5594 69.5471 94.1251 69.5531 93.5828L69.6362 86.732C69.6398 86.1921 69.2075 85.7501 68.6701 85.7465L61.8365 85.6963C61.2991 85.6927 60.8551 86.127 60.849 86.6693L60.766 93.5201C60.7624 94.06 61.1947 94.502 61.7321 94.5056L68.5657 94.5558ZM68.6968 83.546C69.2342 83.5496 69.6781 83.1153 69.6842 82.573L69.7673 75.7222C69.7709 75.1823 69.3386 74.7403 68.8012 74.7367L61.9675 74.6865C61.4301 74.6829 60.9862 75.1172 60.9801 75.6595L60.8971 82.5103C60.8934 83.0502 61.3258 83.4922 61.8632 83.4958L68.6968 83.546ZM68.8279 72.5313C69.3653 72.5349 69.8092 72.1006 69.8153 71.5584L69.8983 64.7075C69.902 64.1677 69.4696 63.7256 68.9322 63.722L62.0986 63.6719C61.5612 63.6682 61.1172 64.1025 61.1112 64.6448L61.0281 71.4957C61.0245 72.0355 61.4568 72.4775 61.9942 72.4812L68.8279 72.5313ZM68.9589 61.5215C69.4963 61.5251 69.9403 61.0908 69.9463 60.5486L70.0294 53.6977C70.033 53.1579 69.6007 52.7158 69.0633 52.7122L62.2297 52.6621C61.6923 52.6584 61.2483 53.0927 61.2423 53.635L61.1592 60.4859C61.1556 61.0257 61.5879 61.4677 62.1253 61.4714L68.9589 61.5215Z" fill="#E8EBF0"/>
<path d="M38.4496 30.4543L38.2797 44.7685C38.2711 45.3761 38.759 45.8737 39.3642 45.8772L72.8279 46.1269C72.6169 45.2317 72.3961 44.3608 72.1704 43.5188L39.6048 43.2792L39.7383 32.267L68.1573 32.4795C67.6488 31.4325 67.1305 30.4629 66.6048 29.5636L39.5608 29.3625C38.9556 29.359 38.4583 29.8467 38.4496 30.4543Z" fill="#F5F8FB"/>
<path d="M80.4785 32.5737L80.3474 43.5835L72.1703 43.5243C72.3984 44.3638 72.6143 45.2348 72.8278 46.1324L81.1041 46.1938C81.7117 46.1997 82.2066 45.7096 82.2152 45.102L82.3852 30.7878C82.3938 30.1802 81.9059 29.6826 81.3007 29.6791L66.5998 29.5691C67.1231 30.4708 67.6438 31.438 68.1523 32.485L80.4785 32.5737Z" fill="#F5F8FB"/>
<path d="M47.0955 52.5462L40.2618 52.4961C39.7244 52.4925 39.2805 52.9268 39.2744 53.469L39.1914 60.3199C39.1853 60.8622 39.6152 61.3018 40.1575 61.3054L46.9911 61.3555C47.5285 61.3592 47.9725 60.9249 47.9785 60.3826L48.0616 53.5317C48.0676 52.9895 47.6353 52.5474 47.0955 52.5462Z" fill="#A5A79E"/>
<path d="M58.0808 52.6283L51.2472 52.5781C50.7098 52.5745 50.2658 53.0088 50.2598 53.5511L50.1767 60.4019C50.1707 60.9442 50.6006 61.3838 51.1428 61.3874L57.9765 61.4376C58.5138 61.4412 58.9578 61.0069 58.9639 60.4646L59.0469 53.6138C59.0505 53.0739 58.6182 52.6319 58.0808 52.6283Z" fill="#A5A79E"/>
<path d="M69.0662 52.7103L62.2325 52.6602C61.6951 52.6565 61.2512 53.0908 61.2451 53.6331L61.1621 60.484C61.156 61.0262 61.5859 61.4658 62.1282 61.4695L68.9618 61.5196C69.4992 61.5232 69.9432 61.0889 69.9492 60.5467L70.0323 53.6958C70.0359 53.156 69.6036 52.7139 69.0662 52.7103Z" fill="#A5A79E"/>
<path d="M46.9646 63.5562L40.131 63.5061C39.5936 63.5025 39.1496 63.9368 39.1436 64.479L39.0605 71.3299C39.0545 71.8722 39.4844 72.3118 40.0266 72.3154L46.8602 72.3655C47.3976 72.3692 47.8416 71.9349 47.8477 71.3926L47.9307 64.5417C47.9368 64.0043 47.5044 63.5623 46.9646 63.5562Z" fill="#A5A79E"/>
<path d="M57.9475 63.641L51.1139 63.5909C50.5765 63.5873 50.1325 64.0216 50.1265 64.5638L50.0434 71.4147C50.0374 71.9569 50.4673 72.3966 51.0095 72.4002L57.8431 72.4503C58.3805 72.454 58.8245 72.0197 58.8306 71.4774L58.9136 64.6265C58.9197 64.0843 58.4898 63.6446 57.9475 63.641Z" fill="#A5A79E"/>
<path d="M68.9324 63.7223L62.0988 63.6722C61.5614 63.6685 61.1174 64.1028 61.1113 64.6451L61.0283 71.496C61.0222 72.0382 61.4521 72.4779 61.9944 72.4815L68.828 72.5316C69.3654 72.5353 69.8094 72.101 69.8154 71.5587L69.8985 64.7078C69.9045 64.1656 69.4722 63.7235 68.9324 63.7223Z" fill="#A5A79E"/>
<path d="M46.8338 74.571L40.0001 74.5209C39.4627 74.5172 39.0188 74.9515 39.0127 75.4938L38.9296 82.3447C38.9236 82.8869 39.3535 83.3266 39.8957 83.3302L46.7294 83.3803C47.2668 83.3839 47.7107 82.9496 47.7168 82.4074L47.7999 75.5565C47.8059 75.0142 47.3736 74.5722 46.8338 74.571Z" fill="#A5A79E"/>
<path d="M57.8186 74.653L50.985 74.6029C50.4476 74.5993 50.0036 75.0336 49.9976 75.5758L49.9145 82.4267C49.9085 82.969 50.3384 83.4086 50.8806 83.4122L57.7142 83.4623C58.2516 83.466 58.6956 83.0317 58.7017 82.4894L58.7847 75.6385C58.7883 75.0987 58.356 74.6567 57.8186 74.653Z" fill="#A5A79E"/>
<path d="M68.8015 74.7323L61.9679 74.6822C61.4305 74.6786 60.9865 75.1129 60.9805 75.6551L60.8974 82.506C60.8914 83.0483 61.3213 83.4879 61.8635 83.4915L68.6972 83.5416C69.2346 83.5453 69.6785 83.111 69.6846 82.5687L69.7676 75.7178C69.7737 75.1804 69.3413 74.7384 68.8015 74.7323Z" fill="#A5A79E"/>
<path d="M46.7024 85.581L39.8688 85.5309C39.3314 85.5273 38.8874 85.9616 38.8814 86.5038L38.7983 93.3547C38.7923 93.8969 39.2222 94.3366 39.7644 94.3402L46.598 94.3903C47.1354 94.394 47.5794 93.9597 47.5854 93.4174L47.6685 86.5665C47.6721 86.0267 47.2422 85.5871 46.7024 85.581Z" fill="#A5A79E"/>
<path d="M57.6853 85.6655L50.8517 85.6154C50.3143 85.6117 49.8703 86.046 49.8643 86.5883L49.7837 93.4367C49.7776 93.979 50.2075 94.4186 50.7498 94.4222L57.5834 94.4724C58.1208 94.476 58.5648 94.0417 58.5708 93.4994L58.6539 86.6486C58.6575 86.1087 58.2252 85.6667 57.6853 85.6655Z" fill="#A5A79E"/>
<path d="M68.6702 85.7471L61.8365 85.697C61.2992 85.6934 60.8552 86.1277 60.8491 86.67L60.7637 93.5184C60.7576 94.0607 61.1875 94.5003 61.7298 94.5039L68.5634 94.554C69.1008 94.5577 69.5447 94.1234 69.5508 93.5811L69.6339 86.7302C69.6423 86.1904 69.21 85.7484 68.6702 85.7471Z" fill="#A5A79E"/>
<path d="M75.8643 94.6105L79.4276 94.6364C80.0352 94.6423 80.5301 94.1522 80.5387 93.5446L80.7475 75.926C80.7561 75.3184 80.2682 74.8208 79.663 74.8173L76.1385 74.7913C76.2971 80.7483 76.2219 87.3353 75.8643 94.6105Z" fill="#E64847"/>
<path d="M71.9603 75.8581L71.7516 93.4767C71.743 94.0843 72.2308 94.5819 72.836 94.5854L75.8643 94.6101C76.2218 87.335 76.2971 80.748 76.1385 74.7909L73.0739 74.7687C72.4663 74.7628 71.9689 75.2505 71.9603 75.8581Z" fill="#E64847"/>
<path d="M72.2588 53.8701L72.226 56.6225C72.2174 57.2301 72.6496 57.7254 73.1894 57.7315L74.896 57.7446C74.6747 56.0143 74.4291 54.3663 74.1663 52.7837L73.2513 52.7761C72.7091 52.7725 72.265 53.26 72.2588 53.8701Z" fill="#CE5C32"/>
<path d="M80.0231 57.7819C80.5605 57.7856 81.007 57.2956 81.0107 56.688L81.0435 53.9355C81.0521 53.3279 80.6199 52.8326 80.0801 52.8265L74.1615 52.7841C74.4291 54.3666 74.6723 56.017 74.8912 57.7449L80.0231 57.7819Z" fill="#CE5C32"/>
<path d="M72.1359 61.2685L72.1031 64.021C72.0945 64.6286 72.5267 65.1239 73.0665 65.1299L75.647 65.1484C75.5152 63.4348 75.3616 61.7818 75.186 60.1893L73.1284 60.1745C72.5862 60.1709 72.1445 60.6609 72.1359 61.2685Z" fill="#A5A79E"/>
<path d="M79.9002 65.1799C80.4376 65.1835 80.8841 64.6935 80.8878 64.0859L80.9206 61.3334C80.9292 60.7258 80.497 60.2305 79.9572 60.2245L75.1812 60.1891C75.3543 61.7792 75.5104 63.4346 75.6422 65.1482L79.9002 65.1799Z" fill="#A5A79E"/>
<path d="M72.0465 68.7001L72.0138 71.4526C72.0051 72.0602 72.4373 72.5555 72.9772 72.5616L76.066 72.5837C76.002 70.8797 75.921 69.2265 75.8204 67.6266L73.039 67.6062C72.4968 67.6025 72.0551 68.0925 72.0465 68.7001Z" fill="#A5A79E"/>
<path d="M79.8134 72.6136C80.3508 72.6172 80.7973 72.1273 80.8011 71.5196L80.8338 68.7672C80.8425 68.1596 80.4103 67.6643 79.8704 67.6582L75.8182 67.6285C75.9187 69.2284 76.0022 70.8792 76.0637 72.5856L79.8134 72.6136Z" fill="#A5A79E"/>
<path d="M80.4789 32.5735L68.1552 32.4824C69.6154 35.4954 70.9895 39.1355 72.1732 43.5265L80.3503 43.5858L80.4789 32.5735Z" fill="#97AB90"/>
<path d="M39.736 32.2696L39.6049 43.2795L72.1705 43.5239C70.9869 39.1329 69.6152 35.4952 68.1525 32.4798L39.736 32.2696Z" fill="#97AB90"/>
</g>
<path d="M10.1641 9.85242V24.413H6.14062V14.8719C5.48958 15.3667 4.85807 15.7671 4.24609 16.0731C3.64062 16.3791 2.87891 16.6721 1.96094 16.952V13.6903C3.3151 13.2541 4.36654 12.73 5.11523 12.118C5.86393 11.5061 6.44987 10.7509 6.87305 9.85242H10.1641Z" fill="#348D8F"/>
</svg>
