<svg width="73" height="72" viewBox="0 0 73 72" fill="none" xmlns="http://www.w3.org/2000/svg">
<g clip-path="url(#clip0_1757_51701)">
<circle cx="36.5001" cy="36" r="35.4" fill="white"/>
<path d="M55.3401 42.4595C55.0187 40.9803 54.4751 39.745 53.9518 38.7955C53.9418 38.7773 53.9313 38.7597 53.9199 38.7419C52.7902 36.9771 51.2147 34.8862 49.0217 32.7065C46.6071 30.3064 44.117 28.4675 41.9831 27.1038C41.6818 26.911 41.508 26.6267 41.508 26.327V25.6638C41.508 25.4772 41.5754 25.2944 41.703 25.1351C42.9752 23.5467 44.2477 21.9583 45.5199 20.3699C46.1167 19.6247 45.282 18.6912 44.1533 18.8419C43.1893 18.9707 42.2254 19.0993 41.2617 19.2281C40.8301 19.2857 40.389 19.178 40.0819 18.9398L37.7137 17.1033C37.1918 16.6987 36.3358 16.6987 35.8141 17.1033L33.4456 18.9397C33.1385 19.1778 32.6975 19.2855 32.2659 19.228C31.302 19.0992 30.338 18.9705 29.3743 18.8418C28.2456 18.691 27.4109 19.6245 28.0076 20.3697C29.2799 21.9581 30.5524 23.5465 31.8246 25.1349C31.9521 25.2941 32.0196 25.477 32.0196 25.6636V26.3268C32.0196 26.6265 31.8458 26.911 31.5444 27.1036C29.4105 28.4673 26.9204 30.3062 24.5059 32.7063C22.3129 34.8862 20.7374 36.9769 19.6077 38.7417C19.5963 38.7595 19.5858 38.7771 19.5758 38.7953C19.0524 39.7448 18.5088 40.9801 18.1874 42.4593C17.7485 44.4796 17.8853 46.2117 18.1149 47.4444C18.1188 47.4644 18.123 47.484 18.1283 47.5038C18.4127 48.5698 19.2315 50.8649 21.7957 52.9474C22.6736 53.6604 23.5842 54.2088 24.4272 54.629C25.6596 55.2432 27.1007 55.5695 28.5734 55.5695H36.7638H44.9541C46.4269 55.5695 47.8679 55.2432 49.1003 54.629C49.9434 54.2088 50.854 53.6604 51.7318 52.9474C54.2958 50.8649 55.1146 48.5698 55.3993 47.5038C55.4045 47.484 55.409 47.4644 55.4126 47.4444C55.6422 46.2119 55.7791 44.4797 55.3401 42.4595Z" fill="#E97623"/>
<path opacity="0.12" d="M53.9522 38.7955C54.4755 39.7451 55.0191 40.9803 55.3405 42.4596C55.7795 44.4798 55.6426 46.2119 55.413 47.4445C55.4094 47.4645 55.4049 47.4841 55.3997 47.5039C55.115 48.5698 54.2962 50.8649 51.7322 52.9475C50.8543 53.6605 49.9438 54.2089 49.1007 54.6291C47.8683 55.2432 46.4273 55.5695 44.9545 55.5695H36.7642V16.7999C37.1086 16.7999 37.4531 16.9011 37.714 17.1033L40.0823 18.9399C40.3894 19.1781 40.8305 19.2858 41.262 19.2282L44.1536 18.842C45.2824 18.6912 46.1171 19.6248 45.5203 20.3699L41.7034 25.1352C41.5758 25.2945 41.5083 25.4772 41.5083 25.6638V26.327C41.5083 26.6268 41.6821 26.9111 41.9835 27.1038C44.1174 28.4675 46.6075 30.3065 49.022 32.7065C51.2151 34.8862 52.7906 36.9771 53.9202 38.7419C53.9317 38.7597 53.9422 38.7774 53.9522 38.7955Z" fill="black"/>
<path opacity="0.12" d="M29.793 18.8979C31.1346 21.3212 32.4762 23.7446 33.8178 26.1679C31.0061 29.7498 29.7162 31.5995 29.9472 31.7174C30.1942 31.8433 32.1767 29.9932 35.8942 26.1679C35.3614 23.5387 34.8285 20.9098 34.2956 18.2806C34.1087 18.43 33.9413 18.5597 33.8006 18.6668C33.3124 19.0389 33.1438 19.1417 32.8984 19.1971C32.7265 19.236 32.5608 19.2418 32.5406 19.2423C32.4135 19.2462 32.3174 19.2363 32.0282 19.1982C31.8329 19.1724 31.7354 19.1595 31.584 19.1372C31.4939 19.1239 31.2817 19.095 30.8573 19.0369C30.6048 19.0024 30.245 18.9544 29.793 18.8979Z" fill="black"/>
<path d="M41.4975 26.8548H32.0301C31.5318 26.8548 31.1279 26.547 31.1279 26.1674C31.1279 25.7877 31.5318 25.48 32.0301 25.48H41.4972C41.9956 25.48 42.3994 25.7877 42.3994 26.1674C42.3994 26.547 41.9956 26.8548 41.4975 26.8548Z" fill="#FFFBED"/>
<path d="M41.4697 25.9748H32.0023C31.504 25.9748 31.1001 25.667 31.1001 25.2874C31.1001 24.9077 31.504 24.6 32.0023 24.6H41.4694C41.9677 24.6 42.3716 24.9077 42.3716 25.2874C42.3716 25.667 41.9677 25.9748 41.4697 25.9748Z" fill="#FFFBED"/>
<path d="M36.0975 47.9831V46.421C35.0926 46.389 34.0839 46.0935 33.5 45.7247L33.9373 44.2091C34.5689 44.5804 35.4654 44.9087 36.436 44.9087C37.4525 44.9087 38.1419 44.4142 38.1419 43.6565C38.1419 42.9219 37.5802 42.4726 36.3904 42.0358C34.7129 41.4279 33.6124 40.649 33.6124 39.1715C33.6124 37.7933 34.5818 36.7304 36.1905 36.4396V34.8781H37.5087V36.3575C38.5207 36.3905 39.2148 36.6372 39.7167 36.8972L39.2795 38.3695C38.9034 38.1824 38.1939 37.8151 37.1036 37.8151C35.9825 37.8151 35.586 38.3999 35.586 38.9381C35.586 39.5946 36.1582 39.9741 37.533 40.5135C39.324 41.1856 40.1184 42.0412 40.1184 43.4808C40.1184 44.8393 39.1721 46.0326 37.4158 46.3298V47.9831H36.0975Z" fill="#F2F2F2"/>
<path d="M72.5 36C72.5 55.8823 56.3823 72 36.5 72C16.6177 72 0.5 55.8823 0.5 36C0.5 16.1177 16.6177 0 36.5 0C56.3823 0 72.5 16.1177 72.5 36ZM1.76818 36C1.76818 55.1819 17.3181 70.7318 36.5 70.7318C55.6819 70.7318 71.2318 55.1819 71.2318 36C71.2318 16.8181 55.6819 1.26818 36.5 1.26818C17.3181 1.26818 1.76818 16.8181 1.76818 36Z" fill="#93BAD1"/>
</g>
<defs>
<clipPath id="clip0_1757_51701">
<rect width="72" height="72" fill="white" transform="translate(0.5)"/>
</clipPath>
</defs>
</svg>
