<svg width="120" height="121" viewBox="0 0 120 121" fill="none" xmlns="http://www.w3.org/2000/svg">
<g clip-path="url(#clip0_2406_25585)">
<circle cx="60" cy="60.413" r="59" fill="white"/>
<path d="M90.4504 35.3254C85.6077 35.0452 74.2954 33.11 60.2768 22.2086C46.2573 33.1111 34.9449 35.0452 30.1022 35.3254H27.5527V72.8973C27.5527 90.9699 60.2758 102.622 60.2758 102.622C60.2758 102.622 92.9999 90.9699 92.9999 72.8973V35.3254H90.4504Z" fill="#4ACFAD"/>
<path d="M60.2769 22.2086C74.2955 33.11 85.6078 35.0452 90.4505 35.3254H93V72.8973C93 90.9699 60.2759 102.622 60.2759 102.622L60.2769 22.2086Z" fill="#21C69C"/>
<path d="M60.2757 94.1544C48.6292 86.3658 34.6968 81.5945 34.6968 72.896V41.9878C40.768 40.9968 49.7654 38.2595 60.2757 31.0552C70.7859 38.2595 79.7823 40.9968 85.8535 41.9878V72.896C85.8546 81.5945 71.9232 86.3658 60.2757 94.1544Z" fill="#39A186"/>
<path d="M85.8537 41.9878C79.7825 40.9968 70.7861 38.2595 60.2759 31.0552V94.1544C71.9234 86.3658 85.8548 81.5945 85.8537 72.896V41.9878Z" fill="#20876C"/>
<g clip-path="url(#clip1_2406_25585)">
<path d="M53 68.8296C53 68.5588 52.901 68.3244 52.7031 68.1265C52.5052 67.9286 52.2708 67.8296 52 67.8296C51.7292 67.8296 51.4948 67.9286 51.2969 68.1265C51.099 68.3244 51 68.5588 51 68.8296C51 69.1005 51.099 69.3348 51.2969 69.5328C51.4948 69.7307 51.7292 69.8296 52 69.8296C52.2708 69.8296 52.5052 69.7307 52.7031 69.5328C52.901 69.3348 53 69.1005 53 68.8296ZM71 59.8296C71 59.2984 70.7969 58.8322 70.3906 58.4312C69.9844 58.0302 69.5208 57.8296 69 57.8296H63.5C63.5 57.2255 63.75 56.3947 64.25 55.3375C64.75 54.2802 65 53.4442 65 52.8296C65 51.8088 64.8333 51.0536 64.5 50.564C64.1667 50.0744 63.5 49.8296 62.5 49.8296C62.2292 50.1005 62.0312 50.5432 61.9062 51.1578C61.7812 51.7724 61.6224 52.426 61.4297 53.1187C61.237 53.8114 60.9271 54.3817 60.5 54.8296C60.2708 55.0692 59.8698 55.5432 59.2969 56.2515C59.2552 56.3036 59.1354 56.4599 58.9375 56.7203C58.7396 56.9807 58.5755 57.1942 58.4453 57.3609C58.3151 57.5276 58.1354 57.7489 57.9062 58.025C57.6771 58.301 57.4687 58.5302 57.2812 58.7125C57.0937 58.8947 56.8932 59.0796 56.6797 59.2671C56.4661 59.4546 56.2578 59.5953 56.0547 59.689C55.8516 59.7828 55.6667 59.8296 55.5 59.8296H55V69.8296H55.5C55.6354 69.8296 55.7995 69.8453 55.9922 69.8765C56.1849 69.9078 56.3568 69.9416 56.5078 69.9781C56.6589 70.0145 56.8568 70.0718 57.1016 70.15C57.3463 70.2281 57.5286 70.288 57.6484 70.3296C57.7682 70.3713 57.9531 70.4364 58.2031 70.5249C58.4531 70.6135 58.6042 70.6682 58.6562 70.689C60.8542 71.4494 62.6354 71.8296 64 71.8296H65.8906C67.8906 71.8296 68.8906 70.9598 68.8906 69.2203C68.8906 68.9494 68.8646 68.6578 68.8125 68.3453C69.125 68.1786 69.3724 67.9052 69.5547 67.525C69.737 67.1447 69.8281 66.7619 69.8281 66.3765C69.8281 65.9911 69.7344 65.6317 69.5469 65.2984C70.0989 64.7776 70.375 64.1578 70.375 63.439C70.375 63.1786 70.3229 62.8895 70.2187 62.5718C70.1146 62.2541 69.9844 62.0067 69.8281 61.8296C70.1614 61.8192 70.4401 61.5744 70.6641 61.0953C70.888 60.6161 71 60.1942 71 59.8296ZM73 59.814C73 60.7411 72.7448 61.5901 72.2344 62.3609C72.3281 62.7046 72.375 63.064 72.375 63.439C72.375 64.2411 72.1771 64.9911 71.7812 65.689C71.8125 65.9078 71.8281 66.1317 71.8281 66.3609C71.8281 67.413 71.5156 68.3401 70.8906 69.1421C70.901 70.5901 70.4583 71.7333 69.5625 72.5718C68.6667 73.4104 67.4844 73.8296 66.0156 73.8296H64C63 73.8296 62.013 73.7124 61.0391 73.4781C60.0651 73.2437 58.9375 72.9026 57.6562 72.4546C56.4479 72.038 55.7292 71.8296 55.5 71.8296H51C50.4479 71.8296 49.9766 71.6343 49.5859 71.2437C49.1953 70.8531 49 70.3817 49 69.8296V59.8296C49 59.2776 49.1953 58.8062 49.5859 58.4156C49.9766 58.025 50.4479 57.8296 51 57.8296H55.2812C55.6562 57.5796 56.3698 56.7724 57.4219 55.4078C58.026 54.6265 58.5833 53.9599 59.0937 53.4078C59.3437 53.1474 59.5286 52.702 59.6484 52.0718C59.7682 51.4416 59.9271 50.7828 60.125 50.0953C60.3229 49.4078 60.6458 48.8453 61.0937 48.4078C61.5 48.0224 61.9687 47.8297 62.5 47.8297C63.375 47.8297 64.1615 47.9989 64.8594 48.3375C65.5573 48.676 66.0885 49.2047 66.4531 49.9234C66.8177 50.6421 67 51.6109 67 52.8296C67 53.7984 66.75 54.7984 66.25 55.8296H69C70.0833 55.8296 71.0208 56.2255 71.8125 57.0171C72.6042 57.8088 73 58.7411 73 59.814Z" fill="white"/>
</g>
<path d="M30.1174 9.60619C29.8215 9.1031 29.9892 8.45441 30.4974 8.16741C42.5114 1.383 56.5084 -1.05871 70.1288 1.27408C84.0968 3.66641 96.7672 10.9256 105.895 21.7656C115.023 32.6057 120.02 46.3268 120 60.4982C119.98 74.6696 114.944 88.3765 105.785 99.1905C96.6265 110.005 83.9355 117.228 69.9608 119.58C55.986 121.933 41.6296 119.263 29.4348 112.044C17.24 104.825 7.99418 93.5222 3.33519 80.1386C-1.20787 67.0879 -1.10352 52.88 3.61068 39.9131C3.81011 39.3645 4.42234 39.0923 4.96729 39.3014V39.3014C5.51223 39.5104 5.7835 40.1215 5.58443 40.6702C1.04881 53.1709 0.952399 66.8645 5.33134 79.4437C9.8262 92.3559 18.7464 103.26 30.5115 110.225C42.2767 117.19 56.1274 119.766 69.6099 117.496C83.0923 115.226 95.3362 108.258 104.172 97.8245C113.009 87.3914 117.867 74.1674 117.886 60.4952C117.906 46.823 113.085 33.5853 104.279 23.1271C95.472 12.6689 83.248 5.66544 69.772 3.35739C56.6436 1.10887 43.1527 3.45809 31.5691 9.98959C31.0607 10.2763 30.4133 10.1093 30.1174 9.60619V9.60619Z" fill="#D495AA"/>
</g>
<path d="M2.76172 10.0966H12.2051V13.2704H5.80859L5.4668 15.4188C5.90951 15.2105 6.3457 15.0542 6.77539 14.9501C7.21159 14.8459 7.64128 14.7938 8.06445 14.7938C9.49674 14.7938 10.6589 15.2268 11.5508 16.0927C12.4427 16.9585 12.8887 18.049 12.8887 19.3641C12.8887 20.2886 12.6576 21.1773 12.1953 22.0302C11.7396 22.883 11.0885 23.5341 10.2422 23.9833C9.40234 24.4325 8.32487 24.6571 7.00977 24.6571C6.06576 24.6571 5.25521 24.5692 4.57812 24.3934C3.90755 24.2111 3.33464 23.9442 2.85938 23.5927C2.39062 23.2346 2.00977 22.8309 1.7168 22.3817C1.42383 21.9325 1.17969 21.3726 0.984375 20.702L5.00781 20.2626C5.10547 20.9071 5.33333 21.3986 5.69141 21.7372C6.04948 22.0692 6.47591 22.2352 6.9707 22.2352C7.52409 22.2352 7.97982 22.0269 8.33789 21.6102C8.70247 21.1871 8.88477 20.5588 8.88477 19.7255C8.88477 18.8726 8.70247 18.2476 8.33789 17.8505C7.97331 17.4533 7.48828 17.2548 6.88281 17.2548C6.4987 17.2548 6.1276 17.3492 5.76953 17.538C5.5026 17.6747 5.20964 17.9221 4.89062 18.2802L1.50195 17.7919L2.76172 10.0966Z" fill="#9a0036"/>
<defs>
<clipPath id="clip0_2406_25585">
<rect width="120" height="120" fill="white" transform="translate(0 0.412964)"/>
</clipPath>
<clipPath id="clip1_2406_25585">
<rect width="24" height="26" fill="white" transform="translate(49 47.8297)"/>
</clipPath>
</defs>
</svg>
