<svg width="73" height="72" viewBox="0 0 73 72" fill="none" xmlns="http://www.w3.org/2000/svg">
<g clip-path="url(#clip0_1757_51765)">
<circle cx="36.5001" cy="36" r="35.4" fill="white"/>
<path d="M72.5 36C72.5 55.8823 56.3823 72 36.5 72C16.6177 72 0.5 55.8823 0.5 36C0.5 16.1177 16.6177 0 36.5 0C56.3823 0 72.5 16.1177 72.5 36ZM1.76818 36C1.76818 55.1819 17.3181 70.7318 36.5 70.7318C55.6819 70.7318 71.2318 55.1819 71.2318 36C71.2318 16.8181 55.6819 1.26818 36.5 1.26818C17.3181 1.26818 1.76818 16.8181 1.76818 36Z" fill="#D495AA"/>
<path d="M59.9002 55.407H13.1074V23.9332C13.1074 22.6442 14.1598 21.6 15.4588 21.6H57.5488C58.8478 21.6 59.9002 22.6442 59.9002 23.9332V55.407Z" fill="#EDEDED"/>
<path d="M59.3002 27.5998H13.7002V54.5998H59.3002V27.5998Z" fill="white"/>
<path d="M59.3 27.5999H36.5V54.5999H59.3V27.5999Z" fill="#E0F8EF"/>
<path d="M59.9001 27V23.3983C59.9001 22.4047 59.3094 21.6 58.5817 21.6H14.4173C13.6895 21.6 13.1001 22.4047 13.1001 23.3983V26.9983H59.9001V27Z" fill="#373941"/>
<path d="M59.9001 23.3983V26.9983H36.5001L36.4995 21.6H58.5817C59.3095 21.6 59.9001 22.4047 59.9001 23.3983Z" fill="black" fill-opacity="0.27"/>
<path d="M17.7957 24.0997C17.7957 25.1076 16.979 25.9243 15.9711 25.9243C14.9631 25.9243 14.1465 25.1076 14.1465 24.0997C14.1465 23.0917 14.9631 22.2751 15.9711 22.2751C16.979 22.2751 17.7957 23.0917 17.7957 24.0997Z" fill="#F75757"/>
<path d="M23.22 24.1126C23.22 25.1206 22.4033 25.9372 21.3954 25.9372C20.3874 25.9372 19.5708 25.1206 19.5708 24.1126C19.5708 23.1047 20.3874 22.288 21.3954 22.288C22.4033 22.288 23.22 23.1047 23.22 24.1126Z" fill="#EFD225"/>
<path d="M28.7001 24.0001C28.7001 24.9944 27.8945 25.8001 26.9001 25.8001C25.9057 25.8001 25.1001 24.9944 25.1001 24.0001C25.1001 23.0057 25.9057 22.2001 26.9001 22.2001C27.8945 22.2001 28.7001 23.0057 28.7001 24.0001Z" fill="#62D845"/>
<path d="M42.6196 37.5352L41.5461 38.7117C41.8225 39.397 41.9666 40.1352 41.9666 40.894C41.9666 42.4499 41.3608 43.9116 40.2608 45.0116C39.1608 46.1116 37.699 46.7175 36.1432 46.7175C34.5873 46.7175 33.1256 46.1116 32.0256 45.0116C30.9256 43.9116 30.3197 42.4499 30.3197 40.894C30.3197 39.3382 30.9256 37.8764 32.0256 36.7764C33.1256 35.6764 34.5873 35.0705 36.1432 35.0705C37.649 35.0705 39.0667 35.6382 40.1549 36.6705L41.1725 35.6117C39.8637 34.3647 38.0931 33.6 36.1432 33.6C32.1138 33.6 28.8491 36.8646 28.8491 40.894C28.8491 44.9234 32.1138 48.1881 36.1432 48.1881C40.1725 48.1881 43.4372 44.9234 43.4372 40.894C43.4372 39.6823 43.1402 38.5411 42.6196 37.5352Z" fill="#62D845"/>
<path d="M44.1285 34.2192C43.8402 33.9309 43.3726 33.9309 43.0844 34.2192L35.8491 41.4544L32.8462 38.9397C32.558 38.6515 32.0903 38.6515 31.8021 38.9397C31.5139 39.2279 31.5139 39.6956 31.8021 39.9838L35.3197 43.9897C35.3227 43.9926 35.3256 43.9955 35.3256 43.9985C35.4697 44.1426 35.658 44.2132 35.8462 44.2132C36.0344 44.2132 36.2256 44.1426 36.3668 43.9985C36.3697 43.9955 36.3727 43.9926 36.3727 43.9897L44.1196 35.2633C44.4167 34.975 44.4167 34.5045 44.1285 34.2192Z" fill="#62D845"/>
</g>
<defs>
<clipPath id="clip0_1757_51765">
<rect width="72" height="72" fill="white" transform="translate(0.5)"/>
</clipPath>
</defs>
</svg>
