<svg width="73" height="72" viewBox="0 0 73 72" fill="none" xmlns="http://www.w3.org/2000/svg">
<circle cx="36.5001" cy="36" r="35.4" fill="white"/>
<mask id="mask0_1757_51746" style="mask-type:alpha" maskUnits="userSpaceOnUse" x="0" y="0" width="73" height="72">
<circle cx="36.5" cy="36" r="36" fill="#FAFAFA"/>
<circle cx="36.5" cy="36" r="35.7" stroke="#4A2E19" stroke-opacity="0.15" stroke-width="0.6"/>
</mask>
<g mask="url(#mask0_1757_51746)">
<path d="M72.5 36C72.5 55.8823 56.3823 72 36.5 72C16.6177 72 0.5 55.8823 0.5 36C0.5 16.1177 16.6177 0 36.5 0C56.3823 0 72.5 16.1177 72.5 36ZM1.76818 36C1.76818 55.1819 17.3181 70.7318 36.5 70.7318C55.6819 70.7318 71.2318 55.1819 71.2318 36C71.2318 16.8181 55.6819 1.26818 36.5 1.26818C17.3181 1.26818 1.76818 16.8181 1.76818 36Z" fill="#82B9BA"/>
<path fill-rule="evenodd" clip-rule="evenodd" d="M43.5511 55.8381C43.546 56.2027 43.8372 56.4998 44.2018 56.5033L46.0263 56.5123C46.0263 56.512 46.0263 56.5116 46.0263 56.5113L46.4811 56.5146L47.2031 56.5181C47.2031 56.5187 47.203 56.5193 47.203 56.5198L48.1643 56.5268C48.5289 56.5304 48.8258 56.2363 48.831 55.8717L48.9562 45.3006C48.9614 44.936 48.6701 44.6389 48.3056 44.6354L46.2742 44.6204L44.3431 44.6118C43.9785 44.6083 43.6816 44.9023 43.6764 45.2669L43.5511 55.8381ZM46.2386 43.2988L46.1473 43.2981C46.1473 43.2982 46.1473 43.2983 46.1473 43.2984L44.285 43.2902C43.9626 43.2881 43.7032 42.9909 43.707 42.6249L43.7266 40.9734C43.7318 40.6088 43.9968 40.3148 44.3192 40.317L46.1215 40.3248L48.4284 40.3417C48.7509 40.3438 49.0102 40.641 49.0065 41.007L48.9868 42.6585C48.9817 43.0231 48.7167 43.3171 48.3942 43.3149L47.3227 43.3069C47.3227 43.3058 47.3226 43.3047 47.3226 43.3035L46.2386 43.2988ZM46.0607 38.8381L45.8929 38.8368C45.8929 38.837 45.893 38.8372 45.893 38.8374L44.3356 38.8311C44.0132 38.8289 43.7539 38.5318 43.7576 38.1657L43.7772 36.5143C43.7824 36.1497 44.0474 35.8557 44.3698 35.8579L45.6148 35.8625C45.6149 35.8626 45.6149 35.8627 45.6149 35.8628L48.4805 35.884C48.8029 35.8862 49.0623 36.1834 49.0585 36.5494L49.0389 38.2009C49.0337 38.5654 48.7687 38.8594 48.4463 38.8572L47.0685 38.8462C47.0684 38.8449 47.0683 38.8435 47.0682 38.8422L46.0607 38.8381ZM46.6154 34.4047L48.5172 34.4184C48.8396 34.4206 49.1046 34.1266 49.1098 33.762L49.1294 32.1106C49.1332 31.7445 48.8738 31.4474 48.5514 31.4452L45.1924 31.4211L44.4408 31.4191C44.1183 31.4169 43.8533 31.7109 43.8481 32.0755L43.8285 33.7269C43.8248 34.0929 44.0841 34.3901 44.4065 34.3923L46.6148 34.4002C46.615 34.4017 46.6152 34.4032 46.6154 34.4047ZM45.3722 27.4374L49.163 27.4656C49.5276 27.4691 49.8246 27.1751 49.8297 26.8105L49.9317 18.222C49.9368 17.8574 49.6456 17.5603 49.281 17.5567L40.4605 17.4907C40.4589 17.4881 40.4574 17.4854 40.4559 17.4828L24.2265 17.374C23.8619 17.3705 23.565 17.6645 23.5598 18.0291L23.4578 26.6176C23.4527 26.9822 23.744 27.2793 24.1085 27.2828L45.3711 27.4327C45.3714 27.4343 45.3718 27.4359 45.3722 27.4374ZM39.8501 14.1819C39.8473 14.1788 39.8444 14.1756 39.8416 14.1725L22.2164 14.051C21.1242 14.0418 20.229 14.9225 20.2149 16.0177L19.7125 58.3038C19.6984 59.3989 20.5737 60.2917 21.6659 60.3009L45.791 60.4726C45.791 60.473 45.791 60.4735 45.7909 60.474L50.7538 60.5109C51.8461 60.5201 52.7413 59.6394 52.7553 58.5442L53.2607 16.2581C53.2646 15.1702 52.3893 14.2774 51.2971 14.2683L39.8501 14.1819ZM28.4576 56.3874C28.78 56.3896 29.0464 56.129 29.05 55.8036L29.0999 51.6931C29.102 51.3692 28.8426 51.104 28.5202 51.1018L24.42 51.0717C24.0976 51.0695 23.8312 51.3301 23.8276 51.6555L23.7777 55.766C23.7756 56.0899 24.035 56.3551 24.3574 56.3573L28.4576 56.3874ZM28.5377 49.78C28.8601 49.7822 29.1265 49.5216 29.1301 49.1963L29.1785 45.0843C29.1807 44.7604 28.9213 44.4952 28.5988 44.493L24.4987 44.4629C24.1762 44.4607 23.9098 44.7213 23.9062 45.0467L23.8564 49.1572C23.8542 49.4811 24.1136 49.7463 24.436 49.7485L28.5377 49.78ZM28.6163 43.1741C28.9387 43.1763 29.2051 42.9157 29.2088 42.5904L29.2586 38.4799C29.2608 38.156 29.0014 37.8907 28.6789 37.8886L24.5788 37.8585C24.2563 37.8563 23.9899 38.1169 23.9863 38.4422L23.9365 42.5528C23.9343 42.8767 24.1937 43.1419 24.5161 43.1441L28.6163 43.1741ZM28.695 36.5653C29.0174 36.5675 29.2838 36.307 29.2874 35.9816L29.3372 31.8711C29.3394 31.5472 29.08 31.282 28.7576 31.2798L24.6574 31.2497C24.335 31.2475 24.0686 31.5081 24.065 31.8334L24.0151 35.944C24.0129 36.2679 24.2723 36.5331 24.5948 36.5353L28.695 36.5653ZM35.0486 56.4366C35.3711 56.4388 35.6375 56.1782 35.6411 55.8528L35.6909 51.7423C35.6931 51.4184 35.4337 51.1532 35.1113 51.151L31.0111 51.1209C30.6887 51.1187 30.4223 51.3793 30.4186 51.7047L30.3688 55.8152C30.3666 56.1391 30.626 56.4043 30.9485 56.4065L35.0486 56.4366ZM35.1287 49.8292C35.4512 49.8314 35.7176 49.5708 35.7212 49.2455L35.771 45.135C35.7732 44.8111 35.5138 44.5458 35.1914 44.5436L31.0912 44.5136C30.7688 44.5114 30.5024 44.772 30.4987 45.0973L30.4489 49.2079C30.4467 49.5318 30.7061 49.797 31.0286 49.7992L35.1287 49.8292ZM35.2059 43.2219C35.5284 43.2241 35.7948 42.9635 35.7984 42.6381L35.8482 38.5276C35.8504 38.2037 35.591 37.9385 35.2686 37.9363L31.1684 37.9062C30.8459 37.9041 30.5796 38.1646 30.5759 38.49L30.5261 42.6005C30.5239 42.9244 30.7833 43.1896 31.1058 43.1918L35.2059 43.2219ZM35.286 36.6146C35.6085 36.6167 35.8748 36.3562 35.8785 36.0308L35.9283 31.9203C35.9305 31.5964 35.6711 31.3312 35.3487 31.329L31.2485 31.2989C30.926 31.2967 30.6597 31.5573 30.656 31.8827L30.6062 35.9932C30.604 36.3171 30.8634 36.5823 31.1859 36.5845L35.286 36.6146ZM41.6397 56.4858C41.9622 56.488 42.2285 56.2274 42.2322 55.902L42.282 51.7915C42.2842 51.4676 42.0248 51.2024 41.7024 51.2002L37.6022 51.1701C37.2797 51.1679 37.0134 51.4285 37.0097 51.7539L36.9599 55.8644C36.9577 56.1883 37.2171 56.4535 37.5395 56.4557L41.6397 56.4858ZM41.7184 49.8799C42.0408 49.8821 42.3072 49.6215 42.3108 49.2961L42.3606 45.1856C42.3628 44.8617 42.1034 44.5965 41.781 44.5943L37.6808 44.5642C37.3584 44.5621 37.092 44.8226 37.0884 45.148L37.0385 49.2585C37.0364 49.5824 37.2957 49.8476 37.6182 49.8498L41.7184 49.8799ZM41.797 43.2711C42.1195 43.2733 42.3858 43.0127 42.3895 42.6873L42.4393 38.5768C42.4415 38.2529 42.1821 37.9877 41.8596 37.9855L37.7595 37.9554C37.437 37.9533 37.1706 38.2138 37.167 38.5392L37.1172 42.6497C37.115 42.9736 37.3744 43.2388 37.6968 43.241L41.797 43.2711ZM41.8757 36.6652C42.1981 36.6674 42.4645 36.4068 42.4681 36.0815L42.5179 31.9709C42.5201 31.647 42.2607 31.3818 41.9383 31.3796L37.8381 31.3496C37.5157 31.3474 37.2493 31.608 37.2457 31.9333L37.1958 36.0438C37.1936 36.3677 37.453 36.633 37.7755 36.6351L41.8757 36.6652Z" fill="#E8EBF0"/>
<path d="M23.5701 18.0249L23.4681 26.6134C23.463 26.978 23.7557 27.2765 24.1188 27.2786L44.197 27.4285C44.0704 26.8913 43.938 26.3688 43.8026 25.8636L24.2632 25.7198L24.3433 19.1125L41.3947 19.24C41.0896 18.6118 40.7786 18.0301 40.4632 17.4905L24.2368 17.3698C23.8736 17.3677 23.5752 17.6603 23.5701 18.0249Z" fill="#F5F8FB"/>
<path d="M48.7877 19.2965L48.709 25.9024L43.8028 25.8669C43.9396 26.3706 44.0692 26.8932 44.1972 27.4317L49.1631 27.4686C49.5276 27.4721 49.8246 27.1781 49.8297 26.8135L49.9317 18.225C49.9369 17.8604 49.6441 17.5619 49.281 17.5598L40.4605 17.4937C40.7745 18.0348 41.0869 18.6151 41.392 19.2433L48.7877 19.2965Z" fill="#F5F8FB"/>
<path d="M28.7578 31.2801L24.6576 31.25C24.3352 31.2478 24.0688 31.5084 24.0651 31.8337L24.0153 35.9443C24.0117 36.2696 24.2696 36.5334 24.595 36.5356L28.6951 36.5656C29.0176 36.5678 29.284 36.3073 29.2876 35.9819L29.3374 31.8714C29.3411 31.546 29.0817 31.2808 28.7578 31.2801Z" fill="#A5A79E"/>
<path d="M35.3491 31.3293L31.2489 31.2992C30.9265 31.2971 30.6601 31.5576 30.6565 31.883L30.6066 35.9935C30.603 36.3189 30.8609 36.5826 31.1863 36.5848L35.2865 36.6149C35.6089 36.6171 35.8753 36.3565 35.8789 36.0312L35.9287 31.9206C35.9309 31.5967 35.6715 31.3315 35.3491 31.3293Z" fill="#A5A79E"/>
<path d="M41.9404 31.3785L37.8402 31.3484C37.5178 31.3463 37.2514 31.6068 37.2478 31.9322L37.1979 36.0427C37.1943 36.3681 37.4522 36.6318 37.7776 36.634L41.8778 36.6641C42.2002 36.6663 42.4666 36.4057 42.4702 36.0803L42.52 31.9698C42.5222 31.6459 42.2628 31.3807 41.9404 31.3785Z" fill="#A5A79E"/>
<path d="M28.6792 37.886L24.579 37.856C24.2565 37.8538 23.9902 38.1143 23.9865 38.4397L23.9367 42.5502C23.9331 42.8756 24.191 43.1394 24.5164 43.1415L28.6165 43.1716C28.939 43.1738 29.2054 42.9132 29.209 42.5879L29.2588 38.4773C29.2624 38.1549 29.003 37.8897 28.6792 37.886Z" fill="#A5A79E"/>
<path d="M35.269 37.9369L31.1688 37.9069C30.8464 37.9047 30.58 38.1653 30.5764 38.4906L30.5265 42.6011C30.5229 42.9265 30.7809 43.1903 31.1062 43.1924L35.2064 43.2225C35.5288 43.2247 35.7952 42.9641 35.7988 42.6388L35.8487 38.5282C35.8523 38.2029 35.5943 37.9391 35.269 37.9369Z" fill="#A5A79E"/>
<path d="M41.8598 37.9857L37.7596 37.9556C37.4372 37.9534 37.1708 38.214 37.1672 38.5394L37.1174 42.6499C37.1137 42.9753 37.3717 43.239 37.697 43.2412L41.7972 43.2713C42.1196 43.2735 42.386 43.0129 42.3896 42.6875L42.4395 38.577C42.4431 38.2516 42.1837 37.9864 41.8598 37.9857Z" fill="#A5A79E"/>
<path d="M28.6005 44.495L24.5004 44.4649C24.1779 44.4627 23.9116 44.7233 23.9079 45.0486L23.8581 49.1592C23.8545 49.4845 24.1124 49.7483 24.4377 49.7505L28.5379 49.7805C28.8604 49.7827 29.1267 49.5222 29.1304 49.1968L29.1802 45.0863C29.1838 44.7609 28.9244 44.4957 28.6005 44.495Z" fill="#A5A79E"/>
<path d="M35.1919 44.5442L31.0917 44.5141C30.7692 44.5119 30.5029 44.7725 30.4992 45.0978L30.4494 49.2084C30.4458 49.5337 30.7037 49.7975 31.0291 49.7997L35.1292 49.8297C35.4517 49.8319 35.718 49.5714 35.7217 49.246L35.7715 45.1355C35.7737 44.8116 35.5143 44.5464 35.1919 44.5442Z" fill="#A5A79E"/>
<path d="M41.7812 44.5917L37.681 44.5616C37.3586 44.5595 37.0922 44.82 37.0886 45.1454L37.0387 49.2559C37.0351 49.5813 37.2931 49.845 37.6184 49.8472L41.7186 49.8773C42.041 49.8795 42.3074 49.6189 42.311 49.2935L42.3609 45.183C42.3645 44.8606 42.1051 44.5953 41.7812 44.5917Z" fill="#A5A79E"/>
<path d="M28.5219 51.1009L24.4218 51.0708C24.0993 51.0686 23.8329 51.3292 23.8293 51.6545L23.7795 55.7651C23.7758 56.0904 24.0338 56.3542 24.3591 56.3564L28.4593 56.3864C28.7817 56.3886 29.0481 56.1281 29.0518 55.8027L29.1016 51.6922C29.1038 51.3683 28.8458 51.1045 28.5219 51.1009Z" fill="#A5A79E"/>
<path d="M35.1118 51.1516L31.0116 51.1215C30.6892 51.1193 30.4228 51.3799 30.4192 51.7053L30.3708 55.8143C30.3672 56.1397 30.6251 56.4035 30.9504 56.4056L35.0506 56.4357C35.3731 56.4379 35.6394 56.1773 35.6431 55.852L35.6929 51.7414C35.6951 51.4175 35.4357 51.1523 35.1118 51.1516Z" fill="#A5A79E"/>
<path d="M41.7026 51.2006L37.6024 51.1705C37.28 51.1683 37.0136 51.4289 37.01 51.7543L36.9587 55.8634C36.9551 56.1887 37.213 56.4525 37.5383 56.4547L41.6385 56.4847C41.961 56.4869 42.2273 56.2263 42.231 55.901L42.2808 51.7905C42.2859 51.4665 42.0265 51.2013 41.7026 51.2006Z" fill="#A5A79E"/>
<path d="M46.0193 56.5186L48.1572 56.5342C48.5218 56.5377 48.8187 56.2437 48.8239 55.8791L48.9492 45.3079C48.9543 44.9433 48.6616 44.6448 48.2985 44.6427L46.1838 44.6271C46.2789 48.2013 46.2338 52.1535 46.0193 56.5186Z" fill="#E64847"/>
<path d="M43.6769 45.2672L43.5516 55.8383C43.5465 56.2029 43.8392 56.5014 44.2023 56.5035L46.0193 56.5184C46.2338 52.1533 46.2789 48.2011 46.1838 44.6268L44.345 44.6135C43.9804 44.61 43.682 44.9026 43.6769 45.2672Z" fill="#E64847"/>
<path d="M43.8556 32.0744L43.8359 33.7259C43.8307 34.0905 44.0901 34.3876 44.414 34.3913L45.4379 34.3992C45.3051 33.361 45.1577 32.3722 45.0001 31.4226L44.4511 31.418C44.1257 31.4159 43.8593 31.7084 43.8556 32.0744Z" fill="#CE5C32"/>
<path d="M48.5143 34.4215C48.8368 34.4237 49.1047 34.1297 49.1069 33.7651L49.1266 32.1136C49.1318 31.7491 48.8724 31.4519 48.5486 31.4483L44.9974 31.4228C45.1579 32.3723 45.3039 33.3626 45.4352 34.3993L48.5143 34.4215Z" fill="#CE5C32"/>
<path d="M43.7818 36.5134L43.7622 38.1648C43.757 38.5294 44.0163 38.8266 44.3402 38.8302L45.8885 38.8413C45.8094 37.8131 45.7172 36.8213 45.6119 35.8658L44.3773 35.857C44.052 35.8548 43.787 36.1488 43.7818 36.5134Z" fill="#A5A79E"/>
<path d="M48.4406 38.8602C48.763 38.8624 49.0309 38.5684 49.0332 38.2038L49.0529 36.5524C49.058 36.1878 48.7987 35.8906 48.4748 35.887L45.6092 35.8658C45.7131 36.8198 45.8067 37.8131 45.8858 38.8412L48.4406 38.8602Z" fill="#A5A79E"/>
<path d="M43.7286 40.9725L43.7089 42.6239C43.7038 42.9885 43.9631 43.2857 44.287 43.2893L46.1403 43.3026C46.1019 42.2802 46.0533 41.2883 45.9929 40.3283L44.3241 40.3161C43.9988 40.3139 43.7338 40.6079 43.7286 40.9725Z" fill="#A5A79E"/>
<path d="M48.3887 43.3205C48.7112 43.3227 48.9791 43.0287 48.9813 42.6641L49.001 41.0126C49.0062 40.6481 48.7468 40.3509 48.4229 40.3473L45.9916 40.3294C46.0519 41.2894 46.102 42.2798 46.1389 43.3037L48.3887 43.3205Z" fill="#A5A79E"/>
<path d="M48.7877 19.2964L41.3935 19.2417C42.2696 21.0495 43.0941 23.2336 43.8043 25.8682L48.7106 25.9037L48.7877 19.2964Z" fill="#97AB90"/>
<path d="M24.3423 19.1142L24.2636 25.72L43.803 25.8667C43.0928 23.2321 42.2698 21.0495 41.3922 19.2403L24.3423 19.1142Z" fill="#97AB90"/>
</g>
</svg>
