<svg width="73" height="72" viewBox="0 0 73 72" fill="none" xmlns="http://www.w3.org/2000/svg">
<g clip-path="url(#clip0_1757_51715)">
<circle cx="36.5001" cy="36" r="35.4" fill="white"/>
<rect x="14.3003" y="40.2" width="29.4" height="3.6" fill="#DDCFC6"/>
<rect x="29.3003" y="31.8" width="29.4" height="3.6" fill="#DDCFC6"/>
<rect x="14.3003" y="23.4" width="44.4" height="3.6" fill="#DDCFC6"/>
<rect x="46.7002" y="40.2" width="12" height="3.6" fill="#DDCFC6"/>
<rect x="14.3003" y="31.8" width="12" height="3.6" fill="#DDCFC6"/>
<rect x="14.3003" y="48.6" width="12" height="3.6" fill="#DDCFC6"/>
<path d="M23.7527 38.3854L15.5005 57.3362L34.4457 49.0877L23.7527 38.3854Z" fill="#FFFAED"/>
<path d="M34.4457 49.0876L15.5005 57.3361L25.8655 40.5L34.4457 49.0876Z" fill="#FEEAE1"/>
<path d="M34.4457 49.0876L15.5005 57.3361L32.3005 46.9406L34.4457 49.0876Z" fill="#FFC0AD"/>
<path d="M18.7282 49.9227L15.5005 57.336L22.9137 54.1082L18.7282 49.9227Z" fill="#3A556A"/>
<path d="M57.2979 23.3374L49.4986 15.5381C48.6986 14.7381 47.2954 14.8421 46.3655 15.7701L41.0088 21.1268L51.7073 31.8254L57.064 26.4705C57.9939 25.5406 58.0979 24.1374 57.2979 23.3374Z" fill="#E56353"/>
<path d="M57.0641 26.4706L51.7074 31.8254L44.0005 24.1185L51.2005 17.24L57.298 23.3375C58.098 24.1375 57.994 25.5407 57.0641 26.4706Z" fill="#D2402E"/>
<path d="M57.0638 26.4706L51.7071 31.8255L49.147 29.2653L56.2048 22.2446L57.2977 23.3375C58.0977 24.1375 57.9937 25.5407 57.0638 26.4706Z" fill="#B21A1A"/>
<path d="M49.4705 34.0599L34.4454 49.085C33.226 47.9416 31.3754 47.7839 29.7458 48.543L29.7402 48.5356L29.7551 48.5208C30.5198 46.8521 30.3212 44.9515 29.098 43.7283C27.8804 42.5107 25.9927 42.3084 24.3315 43.0601L24.3167 43.075C24.3167 43.0824 24.3111 43.0935 24.3037 43.101L24.2851 43.0824C24.3 43.075 24.3111 43.0694 24.3204 43.0657C25.0684 41.4397 24.8977 39.5966 23.7524 38.3846L38.7738 23.3632L49.4705 34.0599Z" fill="#27A2DB"/>
<path d="M49.471 34.0598L34.4459 49.0849C33.2265 47.9415 31.3759 47.7837 29.7463 48.5429L29.7407 48.5355L29.7556 48.5206C30.5203 46.852 30.3217 44.9513 29.0985 43.7282C27.8872 42.5169 26.0127 42.3104 24.3578 43.0484L24.3042 43.1008C24.3116 43.0934 24.3172 43.0822 24.3172 43.0748L24.332 43.06C24.3406 43.0561 24.3492 43.0522 24.3578 43.0484L41.6007 26.1895L49.471 34.0598Z" fill="#1B8BC9"/>
<path d="M34.4456 49.0851L49.4707 34.06L46.7004 31.2897L29.7459 48.5431C31.3756 47.7839 33.2261 47.9417 34.4456 49.0851Z" fill="#195EAF"/>
<path d="M51.7078 31.8259L41.0088 21.1268L38.7724 23.3632L49.4714 34.0623L51.7078 31.8259Z" fill="white"/>
<path d="M72.5 36C72.5 55.8823 56.3823 72 36.5 72C16.6177 72 0.5 55.8823 0.5 36C0.5 16.1177 16.6177 0 36.5 0C56.3823 0 72.5 16.1177 72.5 36ZM1.76818 36C1.76818 55.1819 17.3181 70.7318 36.5 70.7318C55.6819 70.7318 71.2318 55.1819 71.2318 36C71.2318 16.8181 55.6819 1.26818 36.5 1.26818C17.3181 1.26818 1.76818 16.8181 1.76818 36Z" fill="#93BAD1"/>
</g>
<defs>
<clipPath id="clip0_1757_51715">
<rect width="72" height="72" fill="white" transform="translate(0.5)"/>
</clipPath>
</defs>
</svg>
