<svg width="523" height="443" viewBox="0 0 523 443" fill="none" xmlns="http://www.w3.org/2000/svg">
<g clip-path="url(#clip0_1784_57226)">
<path d="M144.375 239.404C144.375 239.404 121.253 300.727 115.221 317.317C115.221 317.317 65.4533 406.296 50.8816 479.184C50.8816 479.184 -0.394268 689.301 141.358 734.545C141.358 734.545 353.493 746.61 410.801 732.537C410.801 732.537 510.327 715.449 515.361 569.671C515.361 569.671 521.393 438.975 442.971 319.334" fill="#8FB795"/>
<path d="M172.764 181.383C165.886 192.225 157.285 208.193 147.391 231.538C147.391 231.538 117.534 314.698 105.826 331.797C105.826 331.797 105.745 331.878 105.602 332.011C95.687 353.644 83.2451 374.044 71.6999 394.873C71.9037 395.718 71.9852 396.585 71.9138 397.461C70.5484 413.164 66.1973 428.54 60.6132 443.234C57.7906 450.642 54.703 458.071 50.9939 465.143C50.5761 470.472 50.2907 475.954 50.1888 481.599C50.1888 481.599 48.0286 494.306 45.3079 519.802C38.501 583.672 32.2749 702.212 135.255 734.545C135.255 734.545 350.864 746.61 409.1 732.537C409.1 732.537 510.255 715.449 515.371 569.671C515.371 569.671 521.505 438.975 441.799 319.335C441.799 319.335 414.368 225.719 383.258 182.28" fill="#8CBD92"/>
<path d="M165.672 182.564C154.871 197.594 147.605 213.583 140.757 229.907C133.563 247.057 127.877 263.911 122.375 280.204C119.104 289.895 115.721 299.902 112.022 310.031C110.188 315.054 104.063 326.64 100.018 334.303C98.5506 337.085 97.2768 339.5 96.4107 341.202C91.652 350.536 63.8741 410.626 57.6277 433.288C56.9653 435.693 58.3716 438.19 60.7866 438.852C61.184 438.964 61.5916 439.015 61.989 439.015C63.976 439.015 65.7899 437.701 66.3401 435.693C72.3216 414.029 99.9568 354.173 104.471 345.308C105.327 343.637 106.58 341.263 108.017 338.532C112.429 330.176 118.472 318.743 120.52 313.138C124.26 302.908 127.663 292.84 130.955 283.098C136.651 266.203 142.041 250.246 149.103 233.402C157.194 214.112 165.662 195.74 180.366 178.723C174.323 179.507 169.554 180.75 165.672 182.564Z" fill="#4B2E1A"/>
<path d="M392.276 182.748C403.414 198.013 410.812 214.286 417.782 230.916C424.976 248.066 430.662 264.92 436.164 281.214C439.435 290.904 442.818 300.911 446.517 311.04C448.352 316.063 454.476 327.649 458.531 335.312C459.999 338.094 461.272 340.509 462.139 342.211C466.877 351.524 494.655 411.584 500.922 434.298C501.584 436.702 500.178 439.199 497.763 439.861C497.365 439.973 496.958 440.024 496.56 440.024C494.573 440.024 492.759 438.71 492.199 436.702C486.207 414.988 458.582 355.172 454.078 346.317C453.222 344.646 451.969 342.272 450.522 339.541C446.11 331.185 440.067 319.752 438.019 314.148C434.279 303.917 430.876 293.849 427.595 284.108C421.888 267.213 416.508 251.255 409.446 234.411C401.213 214.765 392.368 195.975 377.154 178.713C382.942 179.589 388.322 180.659 392.276 182.748Z" fill="#4B2E1A"/>
<path d="M206.126 744.185C169.972 744.185 135.622 740.547 112.327 725.568C55.3757 688.965 44.9921 646.83 38.6641 603.278C32.0814 558.024 43.4942 474.599 57.699 433.024C58.504 430.66 61.0718 429.386 63.4461 430.212C65.8102 431.017 67.0737 433.595 66.2687 435.959C52.3798 476.566 41.2116 557.943 47.6109 601.984C55.0088 652.944 68.2965 686.52 117.208 717.966C144.171 735.299 188.793 736.206 232.977 734.596H325.776C370.133 736.206 414.755 735.299 441.718 717.976C490.64 686.53 503.917 652.954 511.315 601.994C517.715 557.953 506.546 476.576 492.658 435.959C491.853 433.595 493.116 431.027 495.48 430.212C497.844 429.396 500.412 430.67 501.227 433.024C515.432 474.599 526.845 558.024 520.272 603.288C513.944 646.84 503.551 688.976 446.609 725.578C417.557 744.256 371.285 745.306 325.613 743.635H233.14C224.121 743.961 215.063 744.185 206.126 744.185Z" fill="#4B2E1A"/>
<path d="M346.941 251.489C334.336 251.489 324.075 240.219 324.075 226.361C324.075 212.503 334.326 201.232 346.941 201.232C359.526 201.232 378.102 216.905 378.102 230.977C378.113 245.131 359.893 251.489 346.941 251.489ZM346.941 207.265C337.658 207.265 330.108 215.835 330.108 226.361C330.108 236.887 337.658 245.457 346.941 245.457C357.478 245.457 372.07 240.423 372.07 230.977C372.08 220.512 356.5 207.265 346.941 207.265Z" fill="#A6D4AD"/>
<path d="M211.221 251.489C198.687 251.489 180.559 243.582 180.559 229.306C180.559 215.376 198.402 201.232 211.221 201.232C223.826 201.232 234.087 212.503 234.087 226.361C234.087 240.219 223.826 251.489 211.221 251.489ZM211.221 207.265C201.499 207.265 186.591 219.085 186.591 229.306C186.591 239.17 201.183 245.457 211.221 245.457C220.504 245.457 228.054 236.887 228.054 226.361C228.054 215.835 220.504 207.265 211.221 207.265Z" fill="#A6D4AD"/>
<path d="M281.756 391.203C279.26 391.203 277.232 389.175 277.232 386.679V361.958C277.232 359.461 279.26 357.434 281.756 357.434C284.253 357.434 286.281 359.461 286.281 361.958V386.679C286.281 389.175 284.263 391.203 281.756 391.203Z" fill="#FBC93F"/>
<path d="M301.097 417.341H263.862C262.232 417.341 260.734 416.465 259.929 415.059C259.124 413.642 259.134 411.91 259.97 410.514L277.792 380.413C278.587 379.068 280.034 378.222 281.593 378.191C283.244 378.212 284.63 378.945 285.486 380.26L304.897 410.361C305.794 411.747 305.865 413.52 305.071 414.977C304.286 416.434 302.757 417.341 301.097 417.341ZM271.8 408.293H292.802L281.858 391.316L271.8 408.293Z" fill="#FBC93F"/>
<path d="M302.686 431.993H263.067C260.571 431.993 258.543 429.965 258.543 427.469C258.543 424.972 260.571 422.944 263.067 422.944H302.686C305.183 422.944 307.21 424.972 307.21 427.469C307.21 429.965 305.183 431.993 302.686 431.993Z" fill="#FBC93F"/>
<path d="M304.53 447.33H295.553C294.137 447.33 292.995 446.189 292.995 444.773C292.995 443.356 294.137 442.215 295.553 442.215H304.53C305.947 442.215 307.088 443.356 307.088 444.773C307.098 446.179 305.947 447.33 304.53 447.33Z" fill="#4B2E1A"/>
<path d="M280.105 447.33H271.535C270.119 447.33 268.967 446.189 268.967 444.773C268.967 443.356 270.119 442.215 271.535 442.215H280.105C281.521 442.215 282.673 443.356 282.673 444.773C282.663 446.179 281.511 447.33 280.105 447.33Z" fill="#4B2E1A"/>
<path d="M300.047 484.697C298.631 484.697 297.49 483.556 297.49 482.139V444.905C297.49 443.489 298.631 442.348 300.047 442.348C301.464 442.348 302.605 443.489 302.605 444.905V482.139C302.605 483.556 301.464 484.697 300.047 484.697Z" fill="#4B2E1A"/>
<path d="M276.009 484.697C274.592 484.697 273.441 483.556 273.441 482.139V444.905C273.441 443.489 274.592 442.348 276.009 442.348C277.425 442.348 278.577 443.489 278.577 444.905V482.139C278.577 483.556 277.425 484.697 276.009 484.697Z" fill="#4B2E1A"/>
<path d="M260.174 486.419C258.757 486.419 257.606 485.278 257.606 483.862V444.508C257.606 443.091 258.757 441.95 260.174 441.95C261.59 441.95 262.742 443.091 262.742 444.508V483.862C262.731 485.268 261.58 486.419 260.174 486.419Z" fill="#4B2E1A"/>
<path d="M294.891 484.962H284.466C283.05 484.962 281.898 483.821 281.898 482.394V445.027C281.898 443.611 283.05 442.47 284.466 442.47C285.883 442.47 287.034 443.611 287.034 445.027V479.826H294.901C296.317 479.826 297.459 480.967 297.459 482.384C297.459 483.821 296.307 484.962 294.891 484.962Z" fill="#4B2E1A"/>
<path d="M261.223 466.65C259.806 466.65 258.655 465.509 258.655 464.093C258.655 462.676 259.806 461.535 261.223 461.535C264.616 461.535 267.377 458.294 267.377 454.31C267.377 450.326 264.616 447.075 261.223 447.075C259.806 447.075 258.655 445.934 258.655 444.518C258.655 443.101 259.806 441.96 261.223 441.96C267.438 441.96 272.503 447.503 272.503 454.32C272.503 461.137 267.438 466.65 261.223 466.65Z" fill="#4B2E1A"/>
<path d="M127.633 445.099C103.941 432.219 58.9929 452.915 53.9387 502.306C53.4904 503.61 53.0726 504.894 52.6752 506.158C52.7669 506.698 52.828 507.258 52.8382 507.859C53.2254 525.651 52.1351 543.208 60.5316 559.512C64.7299 567.664 70.2936 574.491 76.8967 580.31C77.1515 580.371 77.2941 580.412 77.2941 580.412C128.855 606.957 156.297 564.465 161.708 554.794C159.517 552.909 163.532 540.467 163.868 536.31C166.609 502.693 159.741 462.565 127.633 445.099Z" fill="#F6FBF7"/>
<path d="M373.415 253.385C366.119 253.385 359.414 255.841 354.186 259.937C345.688 264.339 339.91 273.011 339.91 282.987C339.91 295.153 348.511 305.384 360.137 308.288C364.152 310.153 368.646 311.203 373.415 311.203C390.167 311.203 403.75 298.261 403.75 282.294C403.75 266.326 390.167 253.385 373.415 253.385Z" fill="#A6D4AD"/>
<path d="M179.877 253.385C172.581 253.385 165.886 255.841 160.648 259.937C152.15 264.339 146.372 273.011 146.372 282.987C146.372 295.153 154.972 305.384 166.599 308.288C170.614 310.153 175.118 311.203 179.877 311.203C196.629 311.203 210.212 298.261 210.212 282.294C210.212 266.326 196.629 253.385 179.877 253.385Z" fill="#A6D4AD"/>
<path d="M280.084 234.278C261.579 234.278 244.603 237.824 231.336 243.735C209.794 250.083 195.141 262.596 195.141 277.005C195.141 294.572 216.937 309.338 246.427 313.526C256.597 316.216 268.019 317.734 280.095 317.734C322.566 317.734 357.008 299.046 357.008 276.006C356.998 252.967 322.556 234.278 280.084 234.278Z" fill="#F6FBF7"/>
<path d="M324.829 258.786C324.829 268.15 304.235 275.752 278.831 275.752C253.428 275.752 232.834 268.16 232.834 258.786C232.834 249.421 253.428 241.819 278.831 241.819C304.235 241.819 324.829 249.421 324.829 258.786Z" fill="#4B2E1A"/>
<path d="M106.214 322.92C99.5391 338.011 92.6304 352.99 85.8031 368.01C80.0559 380.666 74.3801 393.373 69.2648 406.304C64.4857 418.389 60.2568 430.699 56.833 443.243C52.8691 457.784 49.914 472.631 47.9168 487.569C45.5629 505.106 45.0228 523.163 49.2924 540.465C52.8691 554.955 59.9613 568.977 70.7627 579.432C81.6354 589.958 96.2987 596.347 111.523 596.316C119.145 596.296 126.716 594.594 133.523 591.15C140.431 587.655 146.189 582.264 150.886 576.181C160.709 563.464 166.263 547.557 169.452 531.967C172.836 515.418 173.681 498.462 173.956 481.618C174.018 477.573 174.058 473.537 174.089 469.492C174.109 467.148 172.01 464.896 169.605 465.008C167.16 465.12 165.132 466.985 165.122 469.492C164.999 485.684 164.806 501.906 162.758 517.986C162.758 517.996 162.656 518.75 162.717 518.312C162.778 517.874 162.676 518.628 162.676 518.638C162.605 519.178 162.523 519.708 162.442 520.248C162.299 521.237 162.146 522.235 161.983 523.224C161.657 525.201 161.301 527.167 160.903 529.134C160.118 533.047 159.181 536.939 158.07 540.771C156.96 544.602 155.665 548.393 154.178 552.102C154.004 552.53 153.831 552.958 153.658 553.386C153.903 552.805 153.607 553.518 153.566 553.59C153.475 553.804 153.383 554.018 153.291 554.232C152.894 555.139 152.486 556.035 152.068 556.932C151.294 558.562 150.489 560.172 149.623 561.762C147.891 564.941 145.934 567.978 143.764 570.882C144.192 570.311 143.58 571.106 143.448 571.28C143.142 571.657 142.836 572.034 142.52 572.4C141.94 573.083 141.349 573.756 140.737 574.418C139.525 575.722 138.241 576.976 136.896 578.148C136.529 578.463 136.162 578.769 135.795 579.075C135.642 579.197 134.847 579.819 135.122 579.615C135.398 579.411 134.572 580.012 134.419 580.124C134.032 580.41 133.635 580.675 133.237 580.95C131.77 581.928 130.252 582.815 128.672 583.589C128.254 583.793 127.837 583.997 127.409 584.18C127.225 584.262 127.042 584.343 126.869 584.425C126.93 584.394 127.511 584.17 127.021 584.353C126.216 584.659 125.422 584.975 124.606 585.25C122.976 585.79 121.315 586.238 119.644 586.585C118.798 586.758 117.952 586.891 117.107 587.033C116.577 587.125 117.249 587.013 117.321 587.003C117.127 587.023 116.923 587.054 116.73 587.074C116.271 587.125 115.813 587.166 115.344 587.206C113.622 587.349 111.889 587.39 110.167 587.349C108.435 587.308 106.703 587.166 104.981 586.941C105.877 587.054 104.675 586.891 104.39 586.84C103.992 586.778 103.595 586.707 103.197 586.626C102.341 586.463 101.485 586.279 100.64 586.075C98.9379 585.668 97.2566 585.179 95.6058 584.608C94.7804 584.323 93.955 584.017 93.1399 583.691C92.9564 583.62 92.7628 583.538 92.5794 583.467C92.6507 583.497 93.1908 583.742 92.7221 583.528C92.2941 583.334 91.8559 583.151 91.4279 582.947C88.2589 581.48 85.2426 579.696 82.4302 577.628C82.2162 577.465 81.992 577.302 81.778 577.139C81.8392 577.19 82.2875 577.536 81.8799 577.22C81.5641 576.966 81.2482 576.721 80.9323 576.456C80.2496 575.906 79.5872 575.335 78.935 574.744C77.6307 573.572 76.3774 572.349 75.1749 571.076C73.9725 569.802 72.8211 568.477 71.7307 567.112C71.5575 566.898 71.3945 566.694 71.2314 566.48C71.2824 566.541 71.6187 567 71.313 566.592C71.0684 566.266 70.8238 565.94 70.5895 565.614C70.0698 564.901 69.5705 564.187 69.0712 563.464C67.0536 560.488 65.2703 557.36 63.701 554.12C63.3444 553.386 62.9979 552.642 62.6617 551.898C62.4986 551.521 62.3356 551.144 62.1624 550.777C61.9484 550.309 62.1827 550.838 62.2133 550.91C62.0808 550.594 61.9484 550.278 61.8261 549.962C61.1637 548.311 60.5524 546.65 59.9919 544.969C58.871 541.606 57.9539 538.172 57.2304 534.708C56.3337 530.367 55.8955 527.147 55.5389 522.857C54.8256 514.195 55.0702 505.473 55.8752 496.832C56.6394 488.68 57.8113 481.231 59.3499 472.926C60.6135 466.119 62.0605 459.343 63.7316 452.617C66.7988 440.247 70.6404 428.09 75.1036 416.158C77.325 410.217 79.6891 404.337 82.1449 398.488C82.2162 398.315 82.2875 398.142 82.3589 397.969C82.3385 398.02 82.0634 398.651 82.2672 398.183C82.4098 397.836 82.5627 397.49 82.7053 397.143C83.0518 396.338 83.3982 395.523 83.7447 394.718C84.3969 393.2 85.049 391.692 85.7114 390.173C87.0666 387.065 88.4423 383.968 89.8281 380.88C96.0644 366.971 102.494 353.133 108.741 339.234C110.504 335.321 112.256 331.398 113.989 327.464C114.936 325.324 114.681 322.543 112.379 321.32C110.412 320.28 107.233 320.627 106.214 322.92Z" fill="#4B2E1A"/>
<path d="M432.649 449.094C456.341 436.214 501.289 456.91 506.343 506.301C506.791 507.605 507.209 508.889 507.606 510.153C507.515 510.693 507.453 511.253 507.443 511.854C507.056 529.646 508.146 547.203 499.75 563.507C495.552 571.659 489.988 578.487 483.385 584.305C483.13 584.376 482.987 584.407 482.987 584.407C431.426 610.952 403.985 568.46 398.574 558.789C400.765 556.904 396.75 544.462 396.413 540.305C393.672 506.688 400.53 466.56 432.649 449.094Z" fill="#F6FBF7"/>
<path d="M446.313 331.449C452.815 346.164 459.55 360.766 466.204 375.409C469.068 381.696 471.911 388.004 474.672 394.332C475.334 395.84 475.987 397.358 476.639 398.876C476.965 399.63 477.281 400.374 477.597 401.128C477.739 401.475 477.892 401.821 478.035 402.168C478.239 402.647 477.963 402.005 477.943 401.954C478.035 402.178 478.137 402.412 478.228 402.636C479.461 405.581 480.684 408.536 481.866 411.502C486.543 423.22 490.711 435.132 494.125 447.289C497.946 460.913 500.86 474.792 502.959 488.782C503.316 491.146 503.479 492.359 503.754 494.57C504.019 496.731 504.254 498.901 504.457 501.072C504.855 505.402 505.109 509.753 505.181 514.104C505.242 518.527 505.12 522.949 504.732 527.351C504.651 528.35 504.549 529.338 504.437 530.337C504.386 530.836 504.325 531.325 504.264 531.825C504.203 532.355 504.243 531.978 504.264 531.876C504.213 532.294 504.152 532.701 504.09 533.109C503.795 535.116 503.438 537.113 503.01 539.1C502.277 542.565 501.339 545.989 500.208 549.352C499.637 551.033 499.016 552.694 498.354 554.334C498.272 554.528 498.201 554.711 498.119 554.905C498.15 554.834 498.384 554.304 498.17 554.773C498.007 555.15 497.844 555.527 497.671 555.894C497.284 556.76 496.876 557.626 496.458 558.482C494.899 561.641 493.136 564.708 491.149 567.622C490.691 568.295 490.222 568.957 489.743 569.609C489.509 569.935 489.254 570.261 489.02 570.587C488.714 570.995 489.06 570.547 489.101 570.475C488.897 570.74 488.683 571.005 488.469 571.27C487.369 572.636 486.217 573.95 485.015 575.224C483.812 576.498 482.549 577.71 481.245 578.872C480.643 579.412 480.022 579.932 479.4 580.451C479.084 580.706 478.768 580.961 478.453 581.216C478.055 581.531 478.493 581.175 478.554 581.134C478.279 581.338 478.014 581.542 477.739 581.735C474.917 583.794 471.89 585.557 468.721 587.024C468.354 587.197 467.987 587.35 467.61 587.523C467.142 587.737 467.682 587.493 467.753 587.462C467.57 587.533 467.376 587.615 467.193 587.686C466.316 588.033 465.43 588.359 464.543 588.664C462.882 589.225 461.201 589.714 459.499 590.111C458.715 590.295 457.93 590.458 457.135 590.611C456.738 590.682 456.34 590.753 455.943 590.825C455.678 590.865 455.413 590.906 455.148 590.947C454.445 591.069 455.851 590.876 455.148 590.947C453.426 591.141 451.694 591.293 449.961 591.334C448.239 591.375 446.507 591.324 444.785 591.171C444.387 591.141 443.99 591.1 443.603 591.059C443.409 591.039 443.205 591.008 443.012 590.988C443.073 590.998 443.746 591.1 443.226 591.018C442.309 590.865 441.402 590.723 440.495 590.529C438.814 590.173 437.163 589.724 435.532 589.174C434.778 588.919 434.045 588.624 433.301 588.349C432.822 588.165 433.393 588.389 433.454 588.42C433.209 588.308 432.965 588.206 432.73 588.094C432.312 587.9 431.884 587.696 431.477 587.493C429.897 586.708 428.379 585.811 426.912 584.823C426.565 584.588 426.229 584.354 425.893 584.12C425.74 584.008 424.914 583.406 425.19 583.61C425.567 583.896 425.027 583.478 424.996 583.457C424.782 583.284 424.568 583.111 424.354 582.938C423.987 582.632 423.62 582.316 423.253 582C421.908 580.818 420.635 579.565 419.422 578.25C418.862 577.639 418.311 577.017 417.781 576.386C417.466 576.019 417.16 575.642 416.854 575.265C416.722 575.102 416.599 574.939 416.467 574.775C416.019 574.225 416.824 575.275 416.406 574.694C414.286 571.749 412.309 568.753 410.567 565.564C409.701 563.974 408.896 562.364 408.132 560.734C407.744 559.898 407.357 559.063 406.99 558.217C406.919 558.054 406.379 556.77 406.623 557.371C406.42 556.872 406.216 556.372 406.012 555.873C403.057 548.455 400.887 540.731 399.327 532.895C398.93 530.928 398.584 528.961 398.258 526.985C398.105 526.067 397.962 525.15 397.83 524.233C397.748 523.693 397.677 523.163 397.595 522.623C397.595 522.613 397.493 521.859 397.554 522.297C397.605 522.674 397.493 521.818 397.483 521.747C396.974 517.742 396.576 513.717 396.27 509.692C395.659 501.601 395.404 493.49 395.272 485.369C395.211 481.405 395.18 477.441 395.15 473.477C395.129 471.133 393.101 468.881 390.666 468.993C388.251 469.106 386.162 470.97 386.182 473.477C386.305 490.382 386.559 507.308 388.822 524.091C391.002 540.272 395.231 556.474 403.22 570.822C410.699 584.262 422.265 595.706 437.693 599.089C452.366 602.309 468.364 598.916 480.766 590.519C493.513 581.888 502.419 568.886 507.81 554.62C513.812 538.744 514.953 521.37 513.72 504.567C512.548 488.507 509.624 472.478 505.874 456.827C502.807 444.028 498.924 431.443 494.359 419.093C489.661 406.397 484.302 393.944 478.779 381.594C472.4 367.328 465.807 353.154 459.397 338.898C457.604 334.904 455.821 330.909 454.048 326.905C453.09 324.755 449.788 324.082 447.903 325.295C445.692 326.742 445.294 329.146 446.313 331.449Z" fill="#4B2E1A"/>
<path d="M77.5953 42.7381C77.5953 42.7381 59.9779 58.2333 90.4182 65.0045C120.858 71.7757 146.262 72.6008 147.878 92.3015C149.274 109.344 123.573 114.969 124.735 138.507C125.617 156.26 156.696 163.53 156.696 163.53C156.696 163.53 117.776 161.539 106.728 142.8C93.6886 120.692 124.079 103.623 113.616 93.0437C103.153 82.4642 66.1218 83.9825 65.7961 58.8532C65.6496 47.315 77.5953 42.7381 77.5953 42.7381Z" fill="#E2DFE8"/>
<path d="M480.053 91.2862C480.053 91.2862 484.015 104.392 467.059 104.491C450.104 104.591 437.414 101.405 430.689 114.528C424.866 125.875 435.764 133.488 428.098 149.268C422.312 161.18 404.899 161.52 404.899 161.52C404.899 161.52 424.565 165.905 435.621 154.839C448.666 141.769 438.93 125.723 447.245 120.088C455.561 114.452 473.236 120.945 480.969 103.955C484.52 96.1542 480.053 91.2862 480.053 91.2862Z" fill="#E2DFE8"/>
<path d="M278.801 194.1C341.28 194.1 391.93 189.464 391.93 183.747C391.93 178.029 341.28 173.394 278.801 173.394C216.321 173.394 165.672 178.029 165.672 183.747C165.672 189.464 216.321 194.1 278.801 194.1Z" fill="#4B2E1A"/>
<path d="M386.631 95.3105L367.066 78.4257C367.066 78.4257 311.113 9.06267 242.912 48.2736L194.886 75.165C194.886 75.165 188.558 78.7926 177.675 95.5856C172.489 96.7779 169.625 98.072 169.625 99.4273C169.625 105.144 220.28 109.78 282.754 109.78C345.229 109.78 395.883 105.144 395.883 99.4273C395.893 97.9599 392.582 96.5741 386.631 95.3105Z" fill="#8CBD92"/>
<path d="M175.821 105.704C182.751 95.7891 191.3 85.7215 202.234 76.9683C204.18 75.4092 204.506 72.5662 202.937 70.6098C201.378 68.6635 198.525 68.3476 196.578 69.9066C184.778 79.3426 175.73 89.4612 168.362 100.028C170.023 102.188 172.734 104.002 175.821 105.704Z" fill="#4B2E1A"/>
<path d="M397.392 100.028C390.147 89.8178 381.302 80.0558 369.879 70.9154C367.933 69.3564 365.08 69.6723 363.521 71.6185C361.961 73.575 362.277 76.418 364.224 77.9771C374.791 86.4347 383.309 95.9827 390.106 105.531C392.052 104.634 395.507 102.229 397.392 100.028Z" fill="#4B2E1A"/>
<path d="M237.552 57.0672C235.993 57.0672 234.475 56.2622 233.629 54.8152C232.375 52.6549 233.119 49.8833 235.28 48.6299C250.779 39.6525 270.201 36.942 284.905 36.2389C301.127 35.4746 320.987 41.9147 334.255 47.081C336.588 47.9879 337.74 50.6067 336.833 52.9402C335.926 55.2635 333.297 56.415 330.974 55.5183C318.246 50.566 299.833 44.5947 285.333 45.2774C272.127 45.9092 254.009 48.2325 239.814 56.4558C239.101 56.8736 238.316 57.0672 237.552 57.0672Z" fill="#4B2E1A"/>
<path d="M194.632 83.9892C185.074 74.1151 174.048 48.9256 184.045 35.8926C194.601 22.1361 213.972 34.5679 223.164 42.8931C228.829 48.0288 233.588 53.3276 237.623 59.8594" fill="#F6FBF7"/>
<path d="M194.632 88.5141C193.45 88.5141 192.268 88.0555 191.381 87.1384C181.191 76.6122 168.454 48.7834 180.458 33.1418C184.004 28.5156 188.824 25.8051 194.398 25.3058C207.991 24.0422 222.165 35.8931 226.201 39.5411C232.671 45.4004 237.522 51.0965 241.465 57.4755C242.78 59.6052 242.127 62.387 239.998 63.7015C237.868 65.0262 235.086 64.3639 233.772 62.2342C230.236 56.5176 226.027 51.5857 220.127 46.2461C213.565 40.2952 203.09 33.5902 195.213 34.3137C192.135 34.5888 189.659 36.0052 187.632 38.6444C179.378 49.405 189.72 72.4038 197.883 80.841C199.625 82.6345 199.574 85.4979 197.781 87.2403C196.904 88.0963 195.773 88.5141 194.632 88.5141Z" fill="#4B2E1A"/>
<path d="M376.849 84.9978C386.407 75.1237 397.433 49.9341 387.436 36.9012C376.879 23.1447 357.508 35.5867 348.317 43.9017C342.651 49.0374 337.893 54.3464 333.857 60.868" fill="#F6FBF7"/>
<path d="M376.849 89.5223C375.718 89.5223 374.577 89.1045 373.7 88.2485C371.907 86.5061 371.856 83.6427 373.598 81.8493C381.761 73.412 392.103 50.4132 383.849 39.6526C381.822 37.0134 379.346 35.597 376.278 35.3219C368.432 34.6086 357.936 41.3034 351.364 47.2543C345.454 52.6041 341.245 57.5462 337.72 63.2526C336.415 65.3721 333.623 66.0344 331.493 64.7199C329.364 63.4054 328.712 60.6236 330.026 58.4939C333.97 52.1149 338.82 46.4188 345.291 40.5493C349.326 36.9013 363.531 25.0912 377.094 26.314C382.667 26.8235 387.487 29.534 391.033 34.15C403.027 49.7916 390.29 77.6204 380.11 88.1466C379.213 89.0637 378.041 89.5223 376.849 89.5223Z" fill="#4B2E1A"/>
<path d="M390.106 100.028C390.106 105.602 342.05 110.116 282.765 110.116C223.48 110.116 175.424 105.602 175.424 100.028" stroke="#4B2E1A" stroke-width="8.15197" stroke-miterlimit="10" stroke-linecap="round"/>
<path d="M251.073 145.463C252.238 147.366 253.664 149.171 255.594 150.343C257.511 151.509 259.976 151.965 262.11 151.158C262.553 150.989 262.855 150.568 262.721 150.076C262.602 149.648 262.089 149.297 261.64 149.465C257.743 150.94 254.443 147.612 252.582 144.578C252 143.617 250.476 144.494 251.073 145.463Z" fill="#4B486D"/>
<path d="M284.818 139.931C282.986 138.73 280.865 138.183 278.71 137.923C277.572 137.789 276.428 137.747 275.283 137.712C274.7 137.698 274.118 137.684 273.542 137.67C273.212 137.663 272.875 137.649 272.545 137.635C272.376 137.628 272.215 137.621 272.046 137.607C271.737 137.551 271.786 137.67 272.187 137.951C271.815 136.891 270.122 137.347 270.495 138.414C270.916 139.629 272.496 139.39 273.542 139.425C274.785 139.461 276.034 139.475 277.277 139.552C279.615 139.699 281.953 140.142 283.941 141.448C284.881 142.065 285.759 140.549 284.818 139.931Z" fill="#4B486D"/>
<path d="M284.797 143.133C283.133 142.403 281.398 142.627 279.657 142.943C278.794 143.098 278.091 143.385 277.361 143.856C276.666 144.312 275.936 144.411 275.121 144.474C274.651 144.509 274.244 144.853 274.244 145.351C274.244 145.801 274.644 146.264 275.121 146.229C275.957 146.166 276.792 146.082 277.572 145.745C278.239 145.45 278.751 144.951 279.475 144.769C280.191 144.586 280.949 144.474 281.679 144.411C282.424 144.347 283.217 144.347 283.912 144.649C284.347 144.839 284.853 144.776 285.113 144.333C285.33 143.961 285.232 143.322 284.797 143.133Z" fill="#954034"/>
<path d="M253.067 142.697C254.724 143.294 256.718 142.824 257.933 141.56C258.572 140.893 258.895 139.98 259.604 139.376C260.208 138.864 260.98 138.639 261.76 138.66C262.89 138.702 262.89 136.947 261.76 136.905C260.84 136.87 259.906 137.108 259.113 137.579C258.277 138.077 257.722 138.794 257.21 139.608C256.817 140.24 256.353 140.745 255.637 141.012C254.942 141.272 254.226 141.258 253.531 141.005C253.088 140.844 252.569 141.188 252.449 141.616C252.316 142.101 252.618 142.529 253.067 142.697Z" fill="#954034"/>
<path d="M260.165 143.224C258.656 143.814 257.041 143.814 255.468 143.491C254.668 143.322 253.888 143.09 253.123 142.817C252.294 142.522 251.396 142.522 251.045 143.477C250.883 143.919 251.227 144.439 251.655 144.558C252.147 144.691 252.568 144.389 252.737 143.947C252.744 143.919 252.758 143.891 252.765 143.87C252.688 143.996 252.617 144.13 252.54 144.256C252.336 144.495 252.006 144.298 252.372 144.417C252.561 144.474 252.751 144.558 252.94 144.621C253.277 144.733 253.621 144.846 253.958 144.937C254.696 145.141 255.447 145.295 256.205 145.386C257.687 145.576 259.224 145.471 260.629 144.923C261.071 144.747 261.38 144.333 261.24 143.842C261.127 143.42 260.608 143.055 260.165 143.224Z" fill="#DD8721"/>
<path d="M286.11 138.821C285.653 136.911 284.27 135.345 282.578 134.397C280.612 133.295 278.316 133.021 276.097 133C274.967 132.986 274.967 134.741 276.097 134.755C279.306 134.791 283.54 135.626 284.418 139.291C284.678 140.387 286.377 139.923 286.11 138.821Z" fill="#DD8721"/>
<path d="M249.492 185.169C249.654 180.352 249.036 175.472 246.796 171.147C244.458 166.633 240.28 163.501 235.653 161.633C233.771 160.875 231.798 160.383 229.924 159.611C230.345 159.787 230.759 159.962 231.181 160.145C230.514 159.864 229.868 159.548 229.243 159.183C228.92 158.993 228.611 158.776 228.295 158.565C227.614 158.109 229.179 159.295 228.709 158.888C228.555 158.754 228.4 158.628 228.253 158.495C227.937 158.214 227.642 157.919 227.354 157.603C227.235 157.47 227.122 157.336 227.003 157.203C226.343 156.466 227.572 158.01 227.228 157.512C226.701 156.753 226.188 156.002 225.809 155.16C225.985 155.581 226.16 155.995 226.343 156.416C226.006 155.616 225.781 154.787 225.648 153.931C225.711 154.394 225.774 154.865 225.837 155.328C225.718 154.408 225.718 153.502 225.823 152.583C225.76 153.046 225.697 153.517 225.634 153.98C225.76 153.102 225.985 152.267 226.322 151.445C226.146 151.866 225.971 152.281 225.788 152.702C225.957 152.323 226.132 151.951 226.343 151.593C226.434 151.431 226.532 151.27 226.638 151.115C227.178 150.294 226.399 151.206 226.399 151.375C226.399 151.164 227.101 150.582 227.228 150.448C227.522 150.153 227.831 149.886 228.147 149.613C228.737 149.107 227.733 149.9 227.74 149.929C227.74 149.879 228.14 149.648 228.196 149.613C228.541 149.381 228.899 149.156 229.257 148.953C230.029 148.51 230.83 148.131 231.644 147.787C231.223 147.963 230.808 148.138 230.387 148.321C232.571 147.422 234.874 146.664 237.219 146.334C236.756 146.397 236.285 146.46 235.822 146.523C238.279 146.2 240.765 146.341 243.215 146.664C242.752 146.6 242.281 146.537 241.818 146.474C244.184 146.804 246.515 147.317 248.832 147.913C251.494 148.602 254.674 147.043 255.313 144.234C255.938 141.489 254.492 138.491 251.634 137.753C247.133 136.595 242.359 135.612 237.682 135.823C234.888 135.949 232.22 136.518 229.587 137.416C227.101 138.266 224.573 139.284 222.432 140.836C219.518 142.949 217.362 145.505 216.071 148.896C213.887 154.633 215.965 160.833 220.002 165.144C222.074 167.363 224.644 168.767 227.424 169.876C229.299 170.628 231.272 171.112 233.14 171.892C232.718 171.716 232.304 171.54 231.883 171.358C232.746 171.73 233.575 172.179 234.368 172.692C234.607 172.846 234.839 173.015 235.077 173.176C235.801 173.668 234.066 172.334 234.769 172.931C235.12 173.226 235.471 173.528 235.801 173.851C236.124 174.159 236.426 174.489 236.72 174.827C237.001 175.149 237.395 175.831 236.447 174.44C236.566 174.616 236.706 174.791 236.826 174.967C237.352 175.739 237.795 176.561 238.167 177.417C237.991 176.996 237.816 176.582 237.633 176.161C238.3 177.747 238.708 179.411 238.946 181.118C238.883 180.654 238.82 180.184 238.757 179.72C238.988 181.525 239.031 183.336 238.967 185.155C238.876 187.914 241.453 190.547 244.233 190.421C247.161 190.309 249.394 188.125 249.492 185.169Z" fill="#B9C6C1"/>
<path d="M286.285 147.914C288.623 148.736 291.081 149.178 293.531 149.522C296.67 149.964 299.822 150.287 302.996 150.35C309.091 150.47 314.933 149.157 320.732 147.394C323.751 146.475 326.778 145.562 329.909 145.127C329.446 145.19 328.975 145.253 328.512 145.316C330.689 145.035 332.872 145.007 335.049 145.281C334.585 145.218 334.115 145.155 333.652 145.091C335.884 145.393 337.949 146.018 340.02 146.889C339.599 146.713 339.184 146.538 338.763 146.355C342.583 147.977 346.276 149.985 349.738 152.267C350.503 152.773 351.226 153.342 351.985 153.854C351.823 153.749 350.798 152.92 351.486 153.475C351.619 153.58 351.746 153.686 351.879 153.798C352.174 154.051 352.462 154.311 352.736 154.584C353.129 154.978 353.508 155.385 353.873 155.813C354.147 156.136 354.575 156.852 353.62 155.455C353.747 155.638 353.88 155.813 354.007 155.989C354.554 156.782 355.018 157.618 355.397 158.502C355.221 158.081 355.046 157.667 354.863 157.246C355.235 158.151 355.502 159.078 355.643 160.047C355.579 159.584 355.516 159.113 355.453 158.65C355.551 159.415 355.558 160.173 355.467 160.939C355.53 160.475 355.594 160.005 355.657 159.542C355.565 160.202 355.397 160.84 355.144 161.458C355.32 161.037 355.495 160.623 355.678 160.202C355.516 160.567 355.327 160.904 355.123 161.248C354.61 162.111 356.008 160.237 355.509 160.777C355.376 160.925 355.249 161.072 355.109 161.213C354.969 161.353 354.814 161.479 354.667 161.613C354.126 162.118 356.008 160.714 355.123 161.241C354.758 161.458 354.407 161.662 354.021 161.83C354.442 161.655 354.856 161.479 355.278 161.297C354.596 161.585 353.887 161.767 353.157 161.88C353.62 161.816 354.091 161.753 354.554 161.69C353.508 161.83 352.469 161.802 351.43 161.669C351.893 161.732 352.364 161.795 352.827 161.859C351.31 161.641 349.857 161.192 348.439 160.616C348.86 160.791 349.274 160.967 349.696 161.149C347.793 160.342 346.009 159.296 344.092 158.502C342.709 157.934 341.277 157.484 339.809 157.168C335.842 156.319 331.938 156.206 327.936 156.824C324.313 157.386 320.69 159.022 318.099 161.655C315.136 164.681 313.781 168.669 313.514 172.826C313.297 176.316 313.985 179.967 315.094 183.274C315.972 185.879 318.759 187.859 321.575 186.953C324.166 186.111 326.188 183.274 325.254 180.472C324.685 178.773 324.257 177.032 324.018 175.255C324.081 175.719 324.145 176.189 324.208 176.653C323.997 175.003 323.955 173.346 324.166 171.696C324.102 172.159 324.039 172.629 323.976 173.093C324.138 171.969 324.418 170.881 324.861 169.835C324.685 170.256 324.51 170.67 324.327 171.092C324.573 170.537 324.854 169.996 325.191 169.491C325.219 169.449 325.408 169.112 325.458 169.112C325.472 169.112 324.58 170.172 325.071 169.624C325.31 169.357 325.549 169.091 325.816 168.838C326.012 168.655 326.932 167.911 326.104 168.55C325.296 169.175 326.139 168.55 326.356 168.417C326.883 168.087 327.431 167.806 327.999 167.56C327.578 167.735 327.164 167.911 326.743 168.094C328.175 167.49 329.677 167.118 331.215 166.907C330.752 166.97 330.281 167.033 329.818 167.097C331.945 166.83 334.094 166.865 336.221 167.132C335.758 167.068 335.288 167.005 334.824 166.942C337.043 167.244 339.227 167.785 341.298 168.648C340.877 168.473 340.462 168.297 340.041 168.115C341.733 168.838 343.313 169.779 345.012 170.495C346.641 171.183 348.277 171.745 350.033 172.005C353.522 172.524 357.145 172.335 360.249 170.439C362.91 168.817 364.96 166.149 365.683 163.094C366.512 159.605 365.866 156.22 364.419 153.005C361.843 147.282 356.239 143.652 350.966 140.682C348.067 139.046 345.068 137.6 341.972 136.371C338.812 135.114 335.372 134.531 331.973 134.531C323.569 134.531 315.944 138.54 307.722 139.685C308.185 139.622 308.655 139.559 309.119 139.495C304.513 140.099 299.78 139.804 295.188 139.193C295.652 139.257 296.122 139.32 296.586 139.383C294.051 139.039 291.502 138.59 289.08 137.74C286.475 136.827 283.203 138.772 282.599 141.419C281.939 144.382 283.498 146.938 286.285 147.914Z" fill="#B9C6C1"/>
<path d="M249.47 184.72C249.47 185.548 247.127 186.22 244.237 186.22C241.347 186.22 239.004 185.548 239.004 184.72C237.709 188.658 241.194 191.615 244.084 191.615C246.973 191.615 249.769 187.481 249.47 184.72Z" fill="#4B2E1A"/>
<path d="M325.16 179.383C325.16 180.283 322.614 181.013 319.473 181.013C316.332 181.013 313.786 180.283 313.786 179.383C312.378 183.663 316.332 187.85 319.473 187.85C328.17 187.85 325.485 182.384 325.16 179.383Z" fill="#4B2E1A"/>
<path d="M340.107 242.79C335.152 239.561 332.657 234.158 334.424 228.281C335.818 223.642 339.334 220.05 343.958 218.608C352.909 215.816 361.434 223.611 359.769 232.77C359.358 235.027 358.303 238.729 354.676 240.168C350.091 241.987 346.167 238.477 345.338 236.166C344.177 232.932 345.806 229.14 349.242 228.281" stroke="#4B2E1A" stroke-width="5" stroke-linecap="round"/>
<path d="M214.363 230.133C214.363 234.657 210.925 236.026 208.351 236.026C203.655 236.026 202.572 231.651 202.572 229.173C202.572 222.323 209.373 217.147 216.655 218.159C223.937 219.17 230.121 227.267 226.954 234.657C225.999 236.885 223.281 239.454 221.329 240.848C219.884 241.88 215.867 243.075 214.363 243.075" stroke="#4B2E1A" stroke-width="5" stroke-linecap="round"/>
</g>
<defs>
<clipPath id="clip0_1784_57226">
<rect width="521.553" height="744.183" fill="white" transform="translate(0.635254)"/>
</clipPath>
</defs>
</svg>
