<svg width="40" height="40" viewBox="0 0 40 40" fill="none" xmlns="http://www.w3.org/2000/svg">
<circle cx="20" cy="20" r="20" fill="#FFBB38"/>
<path d="M18.7578 10.1645C17.842 10.2327 16.9604 10.541 16.2018 11.0583C16.4356 11.0527 16.6661 11.1146 16.8655 11.2368C17.1991 11.4449 17.4002 11.8086 17.4664 12.2512C17.8807 11.5241 18.4329 10.8848 19.0919 10.3689L19.4199 10.1116L18.7578 10.1645Z" fill="white"/>
<path d="M16.2019 11.0587C15.4645 11.0653 14.5968 11.6334 14.0177 12.5661C13.2508 13.8026 13.2819 15.2119 14.0874 15.7145C14.8929 16.217 16.1682 15.6215 16.9354 14.3855C17.3845 13.6612 17.5601 12.8779 17.4665 12.2516C17.4004 11.809 17.1993 11.4453 16.8657 11.2371C16.6662 11.115 16.4358 11.053 16.2019 11.0587Z" fill="white"/>
<path d="M26.2017 9.01824C25.1798 9.17587 24.2149 9.56333 23.442 10.2469C23.8418 10.2544 24.2021 10.376 24.4815 10.6236C24.7202 10.8406 24.8842 11.1275 24.9498 11.4433C25.3246 10.5921 25.8736 9.82899 26.5614 9.20301L26.8796 8.9136L26.2017 9.01824Z" fill="white"/>
<path d="M24.9497 11.4429C24.884 11.1271 24.7201 10.8402 24.4813 10.6232C24.202 10.3756 23.8417 10.254 23.4418 10.2465C22.5909 10.2306 21.5621 10.7311 20.7569 11.6393C19.573 12.9748 19.3215 14.6852 20.1945 15.4591C21.0675 16.2329 22.7353 15.7781 23.9192 14.4426C24.7787 13.4731 25.1467 12.306 24.9497 11.4429Z" fill="white"/>
<path d="M30.44 12.069L30.1909 12.4196C29.6519 13.1775 28.9601 13.814 28.16 14.2882C28.4814 14.3155 28.7859 14.4439 29.0299 14.6548C29.3093 14.9025 29.4732 15.2456 29.5286 15.6417C30.1145 14.7924 30.3835 13.788 30.4174 12.7546L30.44 12.069Z" fill="white"/>
<path d="M28.1603 14.2888C27.2798 14.1967 26.1652 14.702 25.3058 15.6715C24.1219 17.007 23.87 18.7171 24.7433 19.4913C25.6167 20.2655 27.2842 19.8104 28.4681 18.4748C29.2732 17.5666 29.6467 16.4852 29.5289 15.6423C29.4735 15.2462 29.3095 14.9031 29.0302 14.6555C28.7862 14.4445 28.4817 14.3161 28.1603 14.2888Z" fill="white"/>
<path d="M30.1465 19.6197L29.9303 19.9762C29.4972 20.6923 28.9286 21.3172 28.2565 21.8157C28.7038 21.8284 29.0891 21.9844 29.3357 22.2906C29.4809 22.474 29.57 22.6954 29.5924 22.9282C30.0151 22.1129 30.2154 21.2007 30.1733 20.2834L30.1465 19.6197Z" fill="white"/>
<path d="M26.1993 22.599C25.0642 23.5089 24.6259 24.8463 25.2214 25.5858C25.817 26.3252 27.2198 26.1871 28.3554 25.2775C29.2119 24.5907 29.6718 23.6612 29.59 22.9282C29.5676 22.6954 29.4785 22.474 29.3333 22.2907C29.0866 21.9844 28.7014 21.8284 28.2541 21.8158C27.6211 21.798 26.8645 22.0663 26.1993 22.599Z" fill="white"/>
<path d="M14.4727 18.7837C13.5743 18.4068 12.5789 18.3277 11.6324 18.5579C10.6858 18.788 9.83784 19.3154 9.21285 20.0626C7.67115 21.909 7.85498 24.6623 9.60564 26.3128C10.4766 27.1373 11.6357 27.588 12.8348 27.5685C13.0243 27.5649 13.2083 27.6327 13.3501 27.7584C13.492 27.8842 13.5813 28.0587 13.6005 28.2472C13.7249 29.4401 14.3114 30.5367 15.2343 31.3025C17.0828 32.8426 19.8383 32.695 21.4865 30.943C22.1534 30.2329 22.5753 29.3278 22.6903 28.3605C22.8053 27.3931 22.6073 26.4144 22.1255 25.5678C22.0446 25.4273 22.01 25.2649 22.0266 25.1037C22.0431 24.9425 22.11 24.7905 22.2177 24.6694L22.2265 24.6595C23.8958 22.7763 23.7122 19.8877 21.8168 18.2075C19.9214 16.5273 17.0317 16.6914 15.3623 18.5745L15.3535 18.5845C15.2461 18.7059 15.1033 18.7905 14.9452 18.8262C14.7871 18.862 14.6218 18.8471 14.4727 18.7837Z" fill="white"/>
<path d="M15.7819 13.3661C16.231 12.6418 16.4066 11.8586 16.313 11.2322C16.3042 11.1734 16.293 11.116 16.2793 11.0602C16.4854 11.0679 16.6861 11.1288 16.8618 11.2369C17.1953 11.445 17.3964 11.8087 17.4626 12.2513C17.5562 12.8777 17.3806 13.6609 16.9315 14.3852C16.1643 15.6213 14.889 16.2168 14.0835 15.7142C13.7943 15.5338 13.6055 15.2361 13.517 14.8718C14.2709 14.9077 15.1817 14.3329 15.7819 13.3661Z" fill="white"/>
<path d="M20.1947 15.4589C19.993 15.2771 19.845 15.0436 19.7666 14.7837C20.6674 14.954 21.8608 14.4484 22.7697 13.4232C23.6292 12.4537 23.9972 11.2866 23.8001 10.4234C23.7888 10.374 23.775 10.3259 23.76 10.2784C24.0274 10.3252 24.2768 10.4443 24.4813 10.6228C24.7201 10.8397 24.884 11.1266 24.9497 11.4424C25.1467 12.3055 24.7787 13.4726 23.9192 14.4421C22.7355 15.7779 21.068 16.2331 20.1947 15.4589Z" fill="white"/>
<path d="M24.7412 19.4904C24.5396 19.3086 24.3916 19.0752 24.3131 18.8153C25.2136 18.9853 26.4075 18.4801 27.3163 17.4548C28.1214 16.5466 28.495 15.4652 28.3771 14.6223C28.3625 14.5166 28.339 14.4122 28.3069 14.3104C28.5742 14.3573 28.8237 14.4764 29.0282 14.6547C29.3076 14.9024 29.4715 15.2455 29.5269 15.6416C29.6448 16.4845 29.2712 17.5659 28.4661 18.4741C27.2821 19.8095 25.6142 20.2643 24.7412 19.4904Z" fill="white"/>
<path d="M25.2214 25.5857C25.0928 25.4241 25.0083 25.2319 24.976 25.0279C25.6405 25.1068 26.4779 24.8413 27.2057 24.2583C28.0622 23.5715 28.5222 22.642 28.4403 21.909C28.4373 21.8819 28.4335 21.855 28.4289 21.8286C28.8012 21.8727 29.1194 22.0251 29.3333 22.2906C29.4785 22.474 29.5676 22.6954 29.59 22.9282C29.6719 23.6611 29.2119 24.5907 28.3554 25.2774C27.2198 26.187 25.8169 26.3251 25.2214 25.5857Z" fill="white"/>
<path d="M20.3388 29.9238C21.0057 29.2137 21.4276 28.3087 21.5426 27.3413C21.6576 26.374 21.4596 25.3953 20.9778 24.5486C20.8969 24.4081 20.8623 24.2458 20.8789 24.0846C20.8954 23.9233 20.9623 23.7714 21.07 23.6503L21.0788 23.6403C22.5756 21.9518 22.5824 19.4551 21.2015 17.7458C21.4197 17.8823 21.6262 18.0368 21.8188 18.2075C23.7142 19.8877 23.8978 22.7763 22.2284 24.6595L22.2196 24.6694C22.1119 24.7905 22.0451 24.9425 22.0285 25.1037C22.012 25.2649 22.0466 25.4273 22.1275 25.5678C22.6093 26.4144 22.8072 27.3931 22.6922 28.3605C22.5772 29.3278 22.1554 30.2329 21.4885 30.943C19.8403 32.695 17.0848 32.8426 15.2363 31.3025C15.0007 31.1063 14.7851 30.8873 14.5926 30.6488C16.41 31.7845 18.8351 31.5223 20.3388 29.9238Z" fill="white"/>
<path d="M20.8552 26.4032C20.9096 26.4515 20.9794 26.4789 21.0522 26.4806C21.1249 26.4822 21.1959 26.458 21.2524 26.4122C21.309 26.3665 21.3475 26.3021 21.361 26.2306C21.3746 26.1591 21.3623 26.0851 21.3264 26.0218C21.1509 25.7138 21.0764 25.3584 21.1134 25.0058C21.1503 24.6532 21.2969 24.3211 21.5324 24.0561L21.5394 24.0482C21.9975 23.5264 22.2972 22.8849 22.4035 22.1988C22.5098 21.5127 22.4182 20.8105 22.1394 20.1746C22.1068 20.1 22.0458 20.0413 21.9699 20.0116C21.894 19.9819 21.8094 19.9836 21.7348 20.0163C21.6601 20.0489 21.6015 20.1099 21.5718 20.1858C21.5421 20.2617 21.5437 20.3463 21.5764 20.4209C21.8084 20.9492 21.8849 21.5326 21.7969 22.1028C21.709 22.673 21.4603 23.2063 21.0799 23.6401L21.0736 23.6472C20.7526 24.008 20.5528 24.4603 20.5022 24.9406C20.4516 25.4208 20.5528 25.9049 20.7916 26.3246C20.8083 26.3541 20.8298 26.3807 20.8552 26.4032ZM21.0921 19.648C21.1507 19.7 21.2269 19.7275 21.3052 19.7252C21.3835 19.7228 21.4579 19.6906 21.5132 19.6352C21.5685 19.5798 21.6007 19.5054 21.603 19.4271C21.6053 19.3489 21.5777 19.2727 21.5257 19.2141C21.4264 19.1021 21.3205 18.9962 21.2086 18.8969C21.1476 18.8428 21.0676 18.8152 20.9863 18.8201C20.9049 18.825 20.8289 18.862 20.7748 18.923C20.7207 18.984 20.6931 19.0639 20.698 19.1453C20.7029 19.2266 20.7399 19.3027 20.8009 19.3568C20.8944 19.4397 20.9828 19.5281 21.0657 19.6216C21.074 19.631 21.0828 19.6398 21.0921 19.648Z" fill="white"/>
</svg>
