<svg width="531" height="265" viewBox="0 0 531 265" fill="none" xmlns="http://www.w3.org/2000/svg">
<path d="M449.701 166.164L454.771 165.651" stroke="#4B2E1A" stroke-width="2.20818" stroke-miterlimit="10" stroke-linecap="round" stroke-linejoin="round"/>
<path d="M452.885 170.505L458.251 169.966" stroke="#4B2E1A" stroke-width="2.20818" stroke-miterlimit="10" stroke-linecap="round" stroke-linejoin="round"/>
<path d="M452.204 170.765H447.536L446.653 169.798C444.97 167.957 440.74 166.711 437.206 167.02L432.861 167.4V163.995H422.986V171.688L423.021 172.695C422.915 173.239 423.114 175.027 423.679 175.641L428.537 180.958C430.22 182.8 434.451 184.045 437.984 183.736L448.168 182.844C450.928 182.601 452.438 181.484 452.165 180.124H452.204V170.765Z" fill="#A17F68" stroke="#4B2E1A" stroke-width="2.20818" stroke-miterlimit="10" stroke-linecap="round" stroke-linejoin="round"/>
<path d="M448.168 172.846L437.984 173.822C434.451 174.162 430.224 172.797 428.537 170.775L423.679 164.945C421.997 162.922 423.49 161.01 427.023 160.674L437.207 159.698C440.74 159.358 444.966 160.723 446.653 162.746L451.511 168.575C453.198 170.594 451.701 172.51 448.168 172.846Z" fill="#CAB5B4" stroke="#4B2E1A" stroke-width="2.20818" stroke-miterlimit="10" stroke-linecap="round" stroke-linejoin="round"/>
<path d="M234.301 195.65C239.609 192.139 245.841 190.575 252.09 189.789C258.772 188.95 265.555 188.694 272.281 188.57C286.595 188.31 300.935 189.202 315.102 191.277C328.996 193.313 342.581 196.696 356.135 200.304C369.454 203.851 382.801 207.485 396.46 209.473C408.999 211.297 421.51 211.482 434.022 209.393C439.255 208.519 444.493 207.53 449.647 206.262C453.529 205.304 457.79 204.142 460.908 201.523C462.269 200.38 463.284 198.741 462.993 196.908C462.706 195.111 461.416 193.706 459.875 192.841C456.077 190.699 451.126 190.535 446.886 190.279C436.164 189.635 425.37 189.365 414.775 187.404C409.316 186.393 403.982 184.843 398.735 183.041C397.229 182.524 395.719 182.012 394.235 181.429C393.179 181.014 391.987 180.515 391.179 179.693C389.045 177.516 393.007 175.657 394.694 175.043C398.231 173.758 401.822 174.252 405.412 174.999C409.692 175.886 413.954 176.73 418.348 176.527C421.219 176.394 424.058 175.886 426.827 175.118C428.196 174.738 427.613 172.609 426.24 172.989C421.095 174.411 415.879 174.698 410.624 173.793C406.923 173.157 403.235 172.004 399.45 172C397.512 172 395.564 172.336 393.758 173.042C391.611 173.881 388.962 175.162 388.436 177.64C387.932 180.016 389.805 181.729 391.722 182.714C394.341 184.057 397.278 184.896 400.064 185.819C405.28 187.541 410.584 188.959 416.003 189.855C421.311 190.734 426.677 191.193 432.034 191.644C437.409 192.094 442.797 192.196 448.176 192.576C450.548 192.744 452.932 192.973 455.251 193.512C456.854 193.883 458.74 194.382 459.928 195.61C463.223 199.01 456.673 201.722 454.279 202.597C449.982 204.164 445.411 205.021 440.938 205.904C435.598 206.955 430.219 207.94 424.791 208.408C418.101 208.987 411.366 208.872 404.684 208.258C376.998 205.719 350.795 195.261 323.529 190.421C309.529 187.934 295.326 186.565 281.11 186.349C273.902 186.238 266.69 186.424 259.5 186.91C253.375 187.32 247.157 187.917 241.301 189.86C238.443 190.809 235.701 192.081 233.188 193.742C232.004 194.523 233.113 196.436 234.301 195.65Z" fill="#4B2E1A"/>
<path d="M522.83 170.604L490.795 153.633C487.332 151.796 484.553 146.659 484.587 142.157L484.689 129.515C484.727 125.012 487.565 122.849 491.028 124.686L523.063 141.657C526.525 143.494 529.304 148.631 529.27 153.133L529.168 165.775C529.13 170.278 526.292 172.441 522.83 170.604Z" fill="white" stroke="#4B2E1A" stroke-width="2.20818" stroke-miterlimit="10" stroke-linejoin="round"/>
<path d="M500.326 141.121C499.895 144.101 499.976 147.076 500.574 150.03C500.691 150.614 501.419 150.927 501.954 150.767C502.572 150.579 502.808 149.976 502.691 149.387C502.18 146.856 502.107 144.211 502.474 141.653C502.56 141.063 502.288 140.469 501.666 140.313C501.128 140.186 500.408 140.531 500.326 141.121Z" fill="#4B2E1A"/>
<path d="M505.921 143.433C505.687 146.31 505.761 149.202 506.149 152.064C506.23 152.654 506.637 153.156 507.281 153.139C507.829 153.125 508.438 152.601 508.356 152.007C507.969 149.145 507.89 146.253 508.129 143.376C508.18 142.782 507.548 142.286 506.997 142.3C506.348 142.317 505.972 142.835 505.921 143.433Z" fill="#4B2E1A"/>
<path d="M433.611 151.973C431.566 148.754 429.526 145.539 427.481 142.319C426.722 141.122 424.809 142.231 425.573 143.432C427.618 146.652 429.659 149.867 431.703 153.086C432.463 154.283 434.375 153.179 433.611 151.973Z" fill="#F5BF24"/>
<path d="M443.358 150.579C444.245 146.71 445.129 142.841 446.016 138.973C446.334 137.59 444.206 136.998 443.888 138.385C443 142.254 442.117 146.123 441.229 149.991C440.911 151.374 443.04 151.965 443.358 150.579Z" fill="#F5BF24"/>
<path d="M451.052 153.586C451.228 153.294 451.414 153.012 451.608 152.734C451.71 152.588 451.816 152.446 451.922 152.305C451.829 152.429 451.904 152.327 451.957 152.261C452.006 152.199 452.059 152.137 452.112 152.071C452.544 151.55 453.013 151.055 453.512 150.596C453.75 150.38 453.993 150.168 454.245 149.964C454.262 149.951 454.514 149.757 454.329 149.898C454.395 149.85 454.457 149.801 454.523 149.753C454.651 149.655 454.783 149.563 454.916 149.474C455.49 149.081 456.091 148.732 456.713 148.423C457.23 148.167 457.416 147.39 457.111 146.913C456.766 146.383 456.157 146.242 455.6 146.515C452.942 147.831 450.69 149.934 449.148 152.469C448.848 152.963 449.025 153.705 449.546 153.979C450.08 154.266 450.734 154.111 451.052 153.586Z" fill="#F5BF24"/>
<path d="M456.272 157.733C456.665 157.503 457.062 157.282 457.473 157.088C457.663 156.995 457.857 156.907 458.051 156.823C458.166 156.774 458.162 156.774 458.038 156.827C458.096 156.805 458.149 156.783 458.206 156.761C458.303 156.721 458.405 156.681 458.502 156.646C459.341 156.333 460.202 156.09 461.081 155.922C461.651 155.811 462.026 155.1 461.854 154.562C461.66 153.957 461.103 153.674 460.494 153.789C458.617 154.151 456.802 154.849 455.154 155.825C454.66 156.121 454.434 156.832 454.757 157.335C455.084 157.839 455.742 158.046 456.272 157.733Z" fill="#F5BF24"/>
<path d="M234.301 195.65C239.609 192.139 245.841 190.575 252.09 189.789C258.772 188.95 265.555 188.694 272.281 188.57C286.595 188.31 300.935 189.202 315.102 191.277C328.996 193.313 342.581 196.696 356.135 200.304C369.454 203.851 382.801 207.485 396.46 209.473C408.999 211.297 421.51 211.482 434.022 209.393C439.255 208.519 444.493 207.53 449.647 206.262C453.529 205.304 457.79 204.142 460.908 201.523C462.269 200.38 463.284 198.741 462.993 196.908C462.706 195.111 461.416 193.706 459.875 192.841C456.077 190.699 451.126 190.535 446.886 190.279C436.164 189.635 425.37 189.365 414.775 187.404C409.316 186.393 403.982 184.843 398.735 183.041C397.229 182.524 395.719 182.012 394.235 181.429C393.179 181.014 391.987 180.515 391.179 179.693C389.045 177.516 393.007 175.657 394.694 175.043C398.231 173.758 401.822 174.252 405.412 174.999C409.692 175.886 413.954 176.73 418.348 176.527C421.219 176.394 424.058 175.886 426.827 175.118C428.196 174.738 427.613 172.609 426.24 172.989C421.095 174.411 415.879 174.698 410.624 173.793C406.923 173.157 403.235 172.004 399.45 172C397.512 172 395.564 172.336 393.758 173.042C391.611 173.881 388.962 175.162 388.436 177.64C387.932 180.016 389.805 181.729 391.722 182.714C394.341 184.057 397.278 184.896 400.064 185.819C405.28 187.541 410.584 188.959 416.003 189.855C421.311 190.734 426.677 191.193 432.034 191.644C437.409 192.094 442.797 192.196 448.176 192.576C450.548 192.744 452.932 192.973 455.251 193.512C456.854 193.883 458.74 194.382 459.928 195.61C463.223 199.01 456.673 201.722 454.279 202.597C449.982 204.164 445.411 205.021 440.938 205.904C435.598 206.955 430.219 207.94 424.791 208.408C418.101 208.987 411.366 208.872 404.684 208.258C376.998 205.719 350.795 195.261 323.529 190.421C309.529 187.934 295.326 186.565 281.11 186.349C273.902 186.238 266.69 186.424 259.5 186.91C253.375 187.32 247.157 187.917 241.301 189.86C238.443 190.809 235.701 192.081 233.188 193.742C232.004 194.523 233.113 196.436 234.301 195.65Z" fill="#4B2E1A"/>
<mask id="mask0_1784_56710" style="mask-type:alpha" maskUnits="userSpaceOnUse" x="0" y="0" width="289" height="220">
<path fill-rule="evenodd" clip-rule="evenodd" d="M281.85 172.112V0H15.1466V166.995C5.71145 171.848 0.411621 177.308 0.411621 183.082C0.411621 203.224 64.8981 219.552 144.446 219.552C223.994 219.552 288.481 203.224 288.481 183.082C288.481 179.26 286.158 175.574 281.85 172.112Z" fill="white"/>
</mask>
<g mask="url(#mask0_1784_56710)">
<path d="M286.271 183.082C286.271 186.868 283.192 191.092 276.027 195.381C269.002 199.587 258.689 203.452 245.752 206.727C219.91 213.27 184.092 217.341 144.446 217.341C104.8 217.341 68.9824 213.27 43.1409 206.727C30.2033 203.452 19.8908 199.587 12.8658 195.381C5.7007 191.092 2.62187 186.868 2.62187 183.082C2.62187 179.297 5.7007 175.073 12.8658 170.783C19.8908 166.578 30.2033 162.713 43.1409 159.437C68.9824 152.895 104.8 148.824 144.446 148.824C184.092 148.824 219.91 152.895 245.752 159.437C258.689 162.713 269.002 166.578 276.027 170.783C283.192 175.073 286.271 179.297 286.271 183.082Z" fill="#4B2E1A" stroke="#492D18" stroke-width="4.4205"/>
<path d="M281.121 185.612C273.893 185.501 266.661 185.687 259.451 186.175C253.322 186.586 247.021 187.185 241.069 189.16L241.068 189.161C238.158 190.128 235.356 191.426 232.782 193.127C231.785 193.785 231.795 194.927 232.218 195.654C232.432 196.021 232.779 196.349 233.234 196.495C233.713 196.648 234.236 196.576 234.707 196.264C239.88 192.843 245.984 191.3 252.182 190.52C258.824 189.686 265.576 189.43 272.295 189.307C286.569 189.047 300.868 189.937 314.996 192.006C328.845 194.036 342.396 197.409 355.945 201.016C356.547 201.177 357.148 201.337 357.75 201.497C370.465 204.886 383.264 208.297 396.354 210.202C408.955 212.035 421.544 212.223 434.143 210.12L434.022 209.393L434.143 210.12C439.386 209.244 444.644 208.251 449.823 206.978L449.823 206.977C453.686 206.024 458.115 204.832 461.382 202.087L461.383 202.087C462.843 200.859 464.069 198.985 463.72 196.793L463.72 196.792C463.387 194.703 461.903 193.135 460.236 192.199C456.516 190.101 451.772 189.826 447.759 189.593C447.479 189.576 447.203 189.56 446.931 189.544L446.931 189.544C444.966 189.426 443.003 189.32 441.042 189.215C432.262 188.743 423.522 188.274 414.909 186.68C409.498 185.677 404.2 184.139 398.974 182.344L398.974 182.344L398.664 182.238C397.258 181.756 395.869 181.28 394.504 180.743C393.43 180.321 392.387 179.87 391.705 179.178C391.299 178.764 391.274 178.476 391.313 178.279C391.364 178.023 391.57 177.701 391.987 177.337C392.816 176.616 394.122 176.035 394.946 175.735C398.274 174.526 401.684 174.976 405.262 175.72L405.263 175.72C409.534 176.606 413.882 177.471 418.382 177.263C421.317 177.127 424.211 176.609 427.024 175.828C427.568 175.677 427.963 175.332 428.173 174.886C428.374 174.458 428.386 173.985 428.273 173.573C428.16 173.162 427.908 172.761 427.515 172.497C427.104 172.221 426.588 172.129 426.044 172.279C421.001 173.673 415.895 173.953 410.749 173.067L410.748 173.067C409.62 172.873 408.514 172.635 407.39 172.393C406.675 172.239 405.953 172.084 405.212 171.937C403.338 171.566 401.415 171.266 399.451 171.263H399.45C397.428 171.263 395.388 171.613 393.489 172.356C392.403 172.781 391.129 173.339 390.052 174.134C388.969 174.932 388.028 176.011 387.715 177.487L387.715 177.487C387.411 178.923 387.836 180.159 388.585 181.144C389.319 182.111 390.37 182.848 391.385 183.369L391.386 183.37C393.593 184.502 396.027 185.286 398.348 186.035C398.849 186.197 399.345 186.357 399.833 186.518L399.833 186.518C405.075 188.249 410.417 189.678 415.883 190.582C421.225 191.467 426.619 191.928 431.973 192.378L431.973 192.378C434.674 192.605 437.377 192.743 440.068 192.872C440.372 192.887 440.676 192.901 440.979 192.916C443.368 193.03 445.747 193.143 448.124 193.311C450.488 193.478 452.825 193.705 455.084 194.23L455.085 194.23C456.719 194.608 458.384 195.074 459.398 196.122L459.399 196.123C460.09 196.836 460.169 197.392 460.057 197.833C459.928 198.345 459.495 198.904 458.778 199.474C457.356 200.605 455.222 201.468 454.027 201.905C450.027 203.364 445.781 204.2 441.536 205.035C441.289 205.084 441.042 205.133 440.795 205.182C435.459 206.232 430.113 207.21 424.728 207.674L424.728 207.674C418.087 208.249 411.397 208.135 404.751 207.525L404.684 208.258L404.751 207.525C390.973 206.261 377.552 203.026 364.137 199.49C361.865 198.891 359.592 198.283 357.318 197.675C346.183 194.698 335.011 191.711 323.658 189.695C309.619 187.202 295.377 185.829 281.121 185.612ZM281.121 185.612L281.11 186.349M281.121 185.612L281.11 186.349M281.11 186.349C295.326 186.565 309.529 187.934 323.529 190.421L241.301 189.86C247.157 187.917 253.375 187.32 259.5 186.91C266.69 186.424 273.902 186.238 281.11 186.349Z" fill="#4B2E1A" stroke="#FAFAFA" stroke-width="1.4735"/>
<path d="M90.1559 219.382C95.9281 216.22 101.095 213.534 104.955 207.939C114.093 194.681 115.947 182.037 107.283 173.496C99.311 165.639 86.1988 171.804 78.9737 174.759C73.8551 176.848 62.4698 178.963 57.3159 180.898C52.3475 182.757 48.5317 186.272 44.7734 189.973C44.7734 189.973 29.8196 212.594 57.8679 223.533C57.8679 223.533 74.0627 228.206 90.1559 219.382Z" fill="white"/>
<path d="M98.7945 92.2824C97.5005 98.6508 106.594 104.277 120.13 106.852C133.679 109.422 147.176 105.562 148.465 99.1896C149.75 92.8212 139.186 87.9764 125.646 85.4017C112.105 82.827 100.084 85.9052 98.7945 92.2824Z" fill="#8CBD92"/>
<path d="M156.176 48.95C149.732 48.3671 143.293 48.95 137.194 51.326C133.189 47.4705 128.362 37.8385 121.614 42.9217C118.61 45.1829 117.798 48.7292 117.86 52.3374C117.917 55.8969 118.05 59.7083 119.419 63.0249C112.918 69.4287 107.971 77.3825 105.021 86.0872C99.1475 91.3338 97.911 98.6649 96.4536 106.129C93.5079 117.925 89.0562 129.129 83.1736 139.781C79.9629 145.606 76.814 151.295 74.2702 157.442C66.5504 176.079 64.3201 195.772 64.8104 215.8C53.6458 226.775 45.9614 241.15 48.037 257.155C49.9096 271.596 57.9164 285.234 69.8494 293.824C75.8248 298.121 82.573 301.521 89.8732 302.926C96.6965 304.238 103.82 304.578 110.754 304.679C119.308 304.803 127.854 304.467 136.404 304.414C145.462 304.361 154.537 304.661 163.573 303.964C181.349 304.065 199.527 305.417 217.064 301.619C225.641 299.759 234.156 296.398 240.603 290.295C245.086 286.051 248.677 280.831 251.569 275.31C261.833 271.04 272.083 262.357 273.589 250.835C274.605 243.062 268.431 235.431 259.982 233.819C259.872 226.973 259.894 217.457 259.011 210.766C257.726 200.993 256.235 191.041 253.117 181.665C250.441 173.609 247.801 166.691 243.831 159.183C243.751 159.029 243.637 158.945 243.539 158.826C239.264 149.308 234.214 139.442 229.541 130.092C223.99 118.998 220.619 106.884 215.457 95.6177C210.179 84.0865 203.192 70.0602 192.496 61.7663C192.982 59.9335 193.287 58.0654 193.481 56.4402C193.984 52.3285 193.702 47.6869 190.235 44.9002C184.321 40.1615 177.441 47.0201 173.201 52.7481C168.396 51.1317 163.406 49.8465 158.38 49.1973" fill="#8CBD92"/>
<path d="M118.8 81.9442C117.912 85.5038 115.214 88.3744 112.776 88.3524C110.334 88.3303 109.075 85.4287 109.967 81.8647C110.855 78.3052 113.553 75.4434 115.996 75.461C118.434 75.4875 119.692 78.3891 118.8 81.9442Z" fill="#4B2E1A"/>
<path d="M111.897 91.568C111.805 91.5724 111.716 91.5724 111.624 91.5724C110.109 91.5591 108.757 90.879 107.808 89.6601C106.368 87.7964 105.975 84.8021 106.761 81.6532C108.024 76.5833 111.774 72.6439 115.475 72.4849C115.567 72.4805 115.656 72.4805 115.749 72.4805C117.263 72.4937 118.619 73.1738 119.564 74.3972C121.004 76.2609 121.397 79.2507 120.607 82.404C119.343 87.474 115.598 91.4134 111.897 91.568ZM115.59 75.1479C113.412 75.2407 110.387 78.1334 109.349 82.298C108.766 84.6299 108.983 86.8248 109.919 88.0305C110.365 88.609 110.948 88.9049 111.65 88.9093H111.791C113.964 88.8166 116.994 85.9239 118.032 81.7592C118.615 79.4318 118.398 77.2369 117.467 76.0312C117.02 75.4527 116.438 75.1568 115.735 75.1524L115.59 75.1479Z" fill="#A6D4AD"/>
<path d="M134.611 260.021C142.962 257.751 150.404 255.9 157.028 250.093C172.729 236.318 178.894 221.241 170.33 208.239C162.452 196.275 143.779 200.17 133.622 201.764C126.427 202.895 111.182 202.272 103.992 203.195C97.0586 204.083 91.1098 207.342 85.1786 210.844C85.1786 210.844 59.2105 234.525 91.9357 255.984C91.9313 255.984 111.315 266.345 134.611 260.021Z" fill="#F6FBF7"/>
<path d="M135.154 51.7273C131.656 49.1393 128.635 40.5937 122.881 42.2057C117.616 43.5659 118.681 51.7362 119.083 55.5916C119.158 57.4156 119.237 59.2351 120.284 61.0149" fill="#F6FBF7"/>
<path d="M133.657 53.353C130.857 51.0609 127.8 43.4383 123.561 44.3083C119.149 45.2181 120.823 57.0937 122.139 59.8186C123.371 62.3536 119.657 64.7693 118.42 62.2078C116.702 58.6527 116.574 54.435 116.503 50.5266C116.442 46.8566 117.259 43.244 120.284 40.9431C127.46 35.4889 132.486 46.6843 136.646 50.0938C138.859 51.9089 135.856 55.1549 133.657 53.353Z" fill="#4B2E1A"/>
<path d="M167.99 146.658C170.193 160.605 159.638 175.033 150.112 183.963C143.492 190.168 135.503 194.902 126.904 197.773C117.003 201.09 106.377 200.692 96.3299 203.479C84.4411 206.782 75.1358 214.03 73.493 226.7C72.1636 236.84 76.686 246.357 83.8935 253.366C96.8776 266.001 116.257 266.355 132.906 262.61C150.717 258.604 166.294 248.504 178.589 235.202C198.494 213.672 211.124 183.848 215.461 154.996C215.819 152.585 216.093 150.147 216.185 147.714C216.287 145.077 212.197 144.998 212.1 147.634C211.663 158.777 208.474 169.99 204.963 180.501C199.708 196.249 192.174 211.318 182.166 224.585C171.033 239.349 156.061 251.202 138.347 256.899C120.788 262.552 98.8605 263.36 85.2537 248.923C78.5408 241.795 75.7497 232.437 78.3642 222.973C82.7187 207.224 103.855 205.753 117.016 204.194C133.405 202.247 148.452 192.981 159.011 180.545C166.894 171.257 173.952 158.295 171.96 145.7C171.549 143.09 167.575 144.066 167.99 146.658Z" fill="#4B2E1A"/>
<path d="M181.102 54.3552C198.259 59.8139 208.05 79.3695 214.971 94.6147C220.182 106.084 224.351 117.995 229.951 129.288C235.162 139.807 240.369 150.142 245.042 160.931C246.181 163.55 241.95 164.875 240.833 162.287C236.315 151.851 231.369 141.812 226.232 131.681C221.154 121.665 217.254 111.101 212.869 100.776C209.23 92.1946 205.012 83.8565 199.836 76.0925C195.009 68.8674 188.658 61.3905 180.108 58.6656C177.414 57.8088 178.381 53.4896 181.102 54.3552Z" fill="#4B2E1A"/>
<path d="M243.968 158.237C247.978 165.882 251.476 173.853 254.179 182.054C257.328 191.598 258.966 201.884 260.265 211.829C261.616 222.155 262.517 232.944 261.612 243.336C260.799 252.712 258.273 261.831 254.709 270.51C251.397 278.609 246.773 286.669 240.404 292.755C233.904 298.96 225.314 302.382 216.667 304.268C198.983 308.128 180.642 306.741 162.712 306.635C159.868 306.613 159.669 302.197 162.526 302.215C178.898 302.316 195.141 303.129 211.42 300.762C220.372 299.463 229.328 296.416 236.31 290.516C243.037 284.827 247.413 276.423 250.801 268.447C258.352 250.685 258.211 232.136 255.999 213.282C253.83 194.743 248.91 177.188 240.241 160.626C238.938 158.113 242.652 155.706 243.968 158.237Z" fill="#4B2E1A"/>
<path d="M162.721 306.635C153.605 307.342 144.45 307.033 135.317 307.086C126.692 307.134 118.071 307.474 109.442 307.342C102.446 307.236 95.2566 306.887 88.3759 305.549C81.0094 304.118 74.2038 300.651 68.1711 296.274C56.1321 287.526 48.0546 273.649 46.1555 258.947C44.0224 242.364 52.0779 227.503 63.6487 216.272C65.6935 214.289 68.9616 217.27 66.908 219.262C55.6286 230.21 48.6419 243.746 50.7044 259.769C52.5592 274.166 62.0102 287.252 74.0625 294.98C85.704 302.453 99.6199 302.912 113.041 302.948C120.801 302.965 128.56 302.696 136.315 302.652C145.055 302.599 153.804 302.886 162.531 302.206C165.375 301.994 165.547 306.414 162.721 306.635Z" fill="#4B2E1A"/>
<path d="M179.574 58.4667C166.267 52.7651 150.832 48.3709 136.753 53.9355C122.832 59.4338 112.162 72.5328 107.644 86.5414C106.779 89.2354 102.46 88.2682 103.334 85.5478C108.382 69.9006 119.679 56.5367 134.836 49.9519C149.953 43.3936 167.318 48.4195 181.645 54.5582C184.264 55.6799 182.179 59.584 179.574 58.4667Z" fill="#4B2E1A"/>
<path d="M85.2136 143.526C85.4653 149.545 85.7082 155.565 86.3398 161.553C86.5076 163.104 84.9663 163.965 83.6325 163.797C80.5102 163.408 77.3657 163.068 74.3449 162.154C71.6289 161.341 72.6049 157.018 75.343 157.848C78.3726 158.758 81.5083 159.093 84.635 159.487C83.7297 160.237 82.8288 160.984 81.9278 161.739C81.2919 155.75 81.0578 149.726 80.8016 143.711C80.678 140.858 85.0943 140.673 85.2136 143.526Z" fill="#FBC93F"/>
<path d="M82.6213 170.298C79.2251 169.684 75.8201 169.19 72.4062 168.695C69.5886 168.293 70.5999 163.983 73.4043 164.385C76.8138 164.875 80.2232 165.374 83.615 165.988C86.4193 166.496 85.4168 170.802 82.6213 170.298Z" fill="#FBC93F"/>
<path d="M82.0207 175.341C80.7444 174.997 79.4328 174.9 78.1211 174.767C77.5205 174.71 77.1716 173.972 77.2908 173.438C77.441 172.793 78.0151 172.55 78.6157 172.608C79.9274 172.74 81.2435 172.842 82.5198 173.186C83.8889 173.553 83.3986 175.717 82.0207 175.341Z" fill="#4B2E1A"/>
<path d="M80.9565 174.798C80.3559 180.173 79.8038 185.543 79.2385 190.918C79.0928 192.331 76.9376 191.819 77.0834 190.423C77.6442 185.049 78.2007 179.674 78.8057 174.304C78.9647 172.886 81.1155 173.394 80.9565 174.798Z" fill="#4B2E1A"/>
<path d="M80.1747 192.945C77.4366 192.367 74.725 191.647 71.9824 191.077C70.5912 190.781 71.0815 188.626 72.477 188.918C75.224 189.492 77.9312 190.212 80.6738 190.79C82.0649 191.077 81.5703 193.237 80.1747 192.945Z" fill="#4B2E1A"/>
<path d="M71.1523 189.748C72.2299 184.002 73.0116 178.203 74.1157 172.467C74.3939 172.913 74.6633 173.354 74.9415 173.796C73.5018 173.518 72.2564 172.983 70.9271 172.374C69.6242 171.786 70.6709 169.83 71.9605 170.417C73.0955 170.938 74.204 171.398 75.4317 171.641C76.0412 171.755 76.3768 172.387 76.262 172.966C75.1579 178.707 74.3762 184.501 73.2986 190.247C73.0425 191.647 70.8917 191.148 71.1523 189.748Z" fill="#4B2E1A"/>
<path d="M186.393 65.7543C189.515 63.3474 192.841 49.9481 189.126 45.6466C183.566 39.1855 174.544 50.9948 171.439 56.2635" fill="#F6FBF7"/>
<path d="M184.763 64.2569C188.349 61.0727 190.014 51.4407 187.633 47.3158C184.184 41.3581 174.905 54.7794 173.395 57.2968C171.929 59.7258 168.012 57.681 169.482 55.2255C172.724 49.842 181.914 36.8402 189.51 42.9833C193.008 45.8187 193.291 50.5442 192.792 54.7309C192.302 58.7939 191.264 64.3718 188.022 67.2424C185.907 69.1238 182.63 66.1471 184.763 64.2569Z" fill="#4B2E1A"/>
<path d="M106.686 87.9068C101.21 92.3584 100.499 99.7823 99.2534 106.261C98.7146 109.057 94.4042 108.067 94.9386 105.267C96.4667 97.3533 97.6944 89.5496 104.297 84.1838C106.505 82.3819 108.868 86.1314 106.686 87.9068Z" fill="#4B2E1A"/>
<path d="M99.249 106.261C96.4623 117.553 92.3728 128.387 87.0069 138.703C83.7697 144.926 80.2013 150.875 77.4234 157.336C69.1781 176.525 66.8948 196.906 67.491 217.676C67.5705 220.529 63.1542 220.715 63.0703 217.862C62.474 197.14 64.669 176.755 72.5787 157.482C75.1402 151.224 78.3155 145.438 81.5483 139.511C87.4795 128.674 91.9665 117.271 94.9298 105.267C95.6232 102.502 99.938 103.487 99.249 106.261Z" fill="#4B2E1A"/>
<path d="M167.711 85.2786C167.884 89.3638 165.004 92.7997 161.286 92.9587C157.567 93.1132 154.409 89.9335 154.237 85.8483C154.065 81.7632 156.944 78.3273 160.663 78.1727C164.381 78.0137 167.539 81.1935 167.711 85.2786Z" fill="#4B2E1A"/>
<path d="M162.125 95.7366C156.56 95.9706 151.826 91.2496 151.574 85.2168C151.322 79.1841 155.642 74.0832 161.206 73.8491C166.872 73.6106 175.021 81.379 175.268 87.2572C175.511 93.0912 168.639 95.4628 162.125 95.7366ZM161.317 76.5122C157.218 76.6844 154.043 80.5399 154.233 85.1064C154.423 89.6729 157.912 93.2502 162.01 93.0779C163.114 93.0293 172.817 92.4773 172.6 87.372C172.415 82.9291 165.561 76.3311 161.317 76.5122Z" fill="#A6D4AD"/>
<path d="M173.766 90.3494C170.547 90.4863 167.636 91.6964 165.402 93.5954C161.736 95.6932 159.342 99.6282 159.528 104.031C159.753 109.402 163.737 113.756 168.926 114.82C170.732 115.567 172.737 115.947 174.839 115.858C182.232 115.549 187.987 109.583 187.691 102.539C187.391 95.4989 181.155 90.0403 173.766 90.3494Z" fill="#A6D4AD"/>
<path d="M99.3506 100.841C99.5891 109.882 108.802 116.714 130.097 117.416C146.999 117.977 161.851 112.333 161.608 103.292C161.361 94.2521 147.467 88.7758 130.671 86.8326C113.88 84.885 99.1121 91.7966 99.3506 100.841Z" fill="#F6FBF7"/>
<path d="M106.328 95.8474C105.07 100.237 113.094 102.445 121.706 102.781C130.327 103.112 139.063 98.7313 137.451 94.5358C136.263 91.4399 130.239 90.0355 121.605 90.274C112.745 90.5169 107.203 92.7825 106.328 95.8474Z" fill="#4B2E1A"/>
<path d="M67.8664 172.789C57.5366 174.873 47.348 180.575 42.1941 190.079C39.668 194.729 38.3033 200.179 38.8377 205.478C39.3632 210.677 41.5449 215.49 45.2944 219.165C49.2515 223.042 54.7763 225.515 60.3807 225.109C61.5289 225.025 62.6419 224.155 62.5844 222.905C62.5359 221.784 61.6129 220.609 60.3807 220.702C59.8551 220.741 59.3296 220.755 58.7996 220.741C58.5391 220.733 58.2785 220.719 58.0135 220.702C57.8589 220.688 57.7 220.675 57.5454 220.657C57.4924 220.653 57.4438 220.644 57.3908 220.64C57.1435 220.609 57.1832 220.613 57.5101 220.657C57.3069 220.693 56.9403 220.565 56.7416 220.525C56.4855 220.476 56.2293 220.419 55.9776 220.353C55.4211 220.216 54.8691 220.048 54.3303 219.854C54.0962 219.77 53.8092 219.704 53.5972 219.571C53.6457 219.602 54.0565 219.774 53.6899 219.611C53.5707 219.558 53.4514 219.505 53.3322 219.447C52.8331 219.213 52.3429 218.957 51.866 218.683C51.4111 218.418 50.965 218.136 50.5322 217.835C50.4086 217.752 50.0464 217.381 49.8918 217.367C49.9581 217.416 50.0199 217.469 50.0862 217.517C50.0022 217.451 49.9183 217.385 49.8388 217.319C49.7152 217.217 49.5915 217.116 49.4723 217.014C48.6199 216.29 47.8294 215.499 47.114 214.647C47.0124 214.528 46.4824 213.892 46.8578 214.347C46.7032 214.165 46.5707 213.962 46.4338 213.768C46.1114 213.313 45.8067 212.845 45.5241 212.364C45.2547 211.904 45.0029 211.436 44.7733 210.959C44.6717 210.747 44.5922 210.42 44.4421 210.235C44.473 210.314 44.5083 210.389 44.5392 210.469C44.4995 210.372 44.4597 210.275 44.42 210.173C44.3626 210.023 44.3052 209.877 44.2522 209.727C43.8458 208.605 43.5544 207.444 43.3556 206.269C43.338 206.154 43.3203 206.039 43.3026 205.929C43.2099 205.346 43.3468 206.415 43.2894 205.827C43.2629 205.571 43.232 205.311 43.2143 205.054C43.1657 204.449 43.1436 203.844 43.1436 203.239C43.1436 202.661 43.1657 202.082 43.2099 201.508C43.232 201.221 43.2585 200.93 43.2938 200.643C43.3071 200.537 43.3424 199.958 43.3026 200.541C43.3115 200.369 43.3556 200.192 43.3821 200.024C43.5809 198.819 43.8679 197.626 44.2389 196.46C44.4067 195.93 44.5922 195.409 44.7909 194.888C44.8439 194.751 44.9014 194.614 44.9544 194.482C45.1619 193.952 44.8219 194.764 44.972 194.442C45.1045 194.151 45.2326 193.855 45.3739 193.563C45.9039 192.455 46.5089 191.377 47.1846 190.352C47.507 189.862 47.8471 189.39 48.196 188.917C48.4389 188.59 48.218 188.886 48.1695 188.948C48.2799 188.811 48.3859 188.674 48.4963 188.537C48.7171 188.264 48.9467 187.999 49.1808 187.734C49.9581 186.85 50.7928 186.016 51.6716 185.234C52.1089 184.841 52.5593 184.461 53.0186 184.094C53.0805 184.041 53.553 183.684 53.129 184.006C53.2218 183.935 53.3145 183.865 53.4117 183.794C53.6943 183.582 53.9814 183.375 54.2685 183.176C55.3814 182.399 56.5385 181.688 57.7265 181.043C58.3492 180.703 58.9851 180.385 59.6255 180.08C59.9214 179.943 60.2173 179.806 60.5132 179.674C60.6501 179.612 60.787 179.554 60.9195 179.497C60.4293 179.713 60.9813 179.471 61.0476 179.444C63.6311 178.389 66.3163 177.602 69.0456 177.055C70.1762 176.825 70.9358 175.421 70.5869 174.343C70.1894 173.129 69.0809 172.546 67.8664 172.789Z" fill="#4B2E1A"/>
<path d="M0.411621 183.082C0.411621 203.223 64.8981 219.551 144.446 219.551C207.511 219.551 261.11 209.289 280.614 195" stroke="#492D18" stroke-width="6.63075"/>
</g>
<path d="M204.963 180.5C208.474 169.989 211.663 158.776 212.1 147.634L171.96 145.699C173.952 158.295 166.894 171.257 159.011 180.544C148.452 192.981 133.405 202.246 117.016 204.194C103.855 205.753 82.7185 207.223 78.3639 222.972C75.7494 232.436 78.5406 241.795 85.2534 248.923C98.8602 263.36 120.787 262.552 138.347 256.899C156.061 251.202 171.032 239.348 182.166 224.584C192.173 211.317 199.708 196.249 204.963 180.5Z" fill="#8CBD92"/>
<path d="M134.611 260.021C142.962 257.751 150.404 255.9 157.028 250.093C172.728 236.318 178.893 221.241 170.33 208.239C162.451 196.275 143.779 200.17 133.621 201.764C126.427 202.895 111.182 202.272 103.992 203.195C97.0584 204.083 91.1096 207.342 85.1784 210.844C85.1784 210.844 59.2102 234.525 91.9354 255.984C91.931 255.984 111.314 266.345 134.611 260.021Z" fill="#F6FBF7"/>
<path d="M167.989 146.657C170.193 160.604 159.638 175.032 150.112 183.962C143.492 190.167 135.503 194.901 126.904 197.772C117.003 201.089 106.377 200.691 96.3297 203.478C84.4409 206.781 75.1356 214.029 73.4927 226.699C72.1634 236.839 76.6857 246.356 83.8932 253.365C96.8773 266 116.256 266.354 132.906 262.609C150.717 258.603 166.294 248.503 178.589 235.201C198.493 213.671 211.124 183.847 215.461 154.995C215.819 152.584 216.092 150.146 216.185 147.713C216.287 145.076 212.197 144.997 212.1 147.633C211.663 158.776 208.474 169.989 204.963 180.5C199.708 196.248 192.173 211.317 182.166 224.584C171.032 239.348 156.061 251.201 138.347 256.898C120.787 262.551 98.8603 263.359 85.2535 248.922C78.5406 241.794 75.7495 232.436 78.3639 222.972C82.7185 207.223 103.855 205.752 117.016 204.193C133.405 202.246 148.452 192.98 159.011 180.544C166.894 171.256 173.952 158.294 171.96 145.699C171.549 143.089 167.574 144.065 167.989 146.657Z" fill="#4B2E1A"/>
</svg>
