<svg width="1486" height="983" viewBox="0 0 1486 983" fill="none" xmlns="http://www.w3.org/2000/svg">
<path fill-rule="evenodd" clip-rule="evenodd" d="M1273 586C1273 561.975 1292.48 542.5 1316.5 542.5C1327.11 542.5 1336.83 546.297 1344.38 552.606C1352.38 521.77 1380.4 499 1413.74 499C1453.3 499 1485.38 531.077 1485.38 570.647C1485.38 575.917 1484.81 581.054 1483.73 586L1273 586Z" fill="#D1E6E4"/>
<path fill-rule="evenodd" clip-rule="evenodd" d="M0.000244141 983C0.000244141 958.975 19.4758 939.5 43.5001 939.5C54.1082 939.5 63.8294 943.297 71.3787 949.606C79.3769 918.77 107.397 896 140.735 896C180.304 896 212.382 928.077 212.382 967.647C212.382 972.917 211.813 978.054 210.733 983L0.000244141 983Z" fill="#D1E6E4"/>
<path fill-rule="evenodd" clip-rule="evenodd" d="M181.001 205.675C181.001 190.301 193.465 177.837 208.839 177.837C215.627 177.837 221.848 180.267 226.679 184.305C231.798 164.571 249.729 150 271.063 150C296.385 150 316.913 170.528 316.913 195.85C316.913 199.222 316.549 202.51 315.858 205.675L181.001 205.675Z" fill="#D1E6E4"/>
<path opacity="0.4" fill-rule="evenodd" clip-rule="evenodd" d="M253.412 233H146.835C146.289 230.499 146.001 227.901 146.001 225.235C146.001 205.223 162.224 189 182.236 189C199.097 189 213.268 200.516 217.313 216.111C221.131 212.92 226.048 211 231.413 211C243.563 211 253.412 220.85 253.412 233C253.412 233 253.412 233 253.412 233Z" fill="#D1E6E4"/>
</svg>
