<svg width="16" height="16" viewBox="0 0 16 16" fill="none" xmlns="http://www.w3.org/2000/svg">
<path d="M2.66675 7.35473C2.66932 7.35097 2.67207 7.34725 2.67467 7.34349C2.67418 7.34725 2.67363 7.35097 2.67316 7.35473H2.66675ZM13.3334 7.71389C13.3334 6.69412 13.1538 5.75771 12.6664 4.87904C11.7171 3.17943 10.0361 2.25587 8.06707 2.25587C4.82633 2.24946 3.01189 4.69256 2.67467 7.34352C3.65731 5.92356 5.38603 4.5325 7.77846 4.44936C7.77846 4.44936 10.3183 4.44936 10.081 6.88012H6.00828C6.15578 6.01427 6.43798 5.51403 6.80355 5.05223C5.06548 5.86033 3.98156 7.27777 4.00722 9.41352C4.02645 11.0682 5.16807 12.7679 6.80358 13.3964C8.73409 14.134 11.2682 13.5632 12.3649 12.9026V10.4846C10.4922 11.793 6.09168 11.8956 6.05962 8.91966H13.3334V7.71389H13.3334Z" fill="white"/>
</svg>
