<svg width="16" height="16" viewBox="0 0 16 16" fill="none" xmlns="http://www.w3.org/2000/svg">
<path d="M7.5379 8.01935C7.5379 7.79919 7.69758 7.59113 7.93226 7.59113C8.14758 7.59113 8.35323 7.74597 8.35323 7.98064C8.35323 8.20081 8.19839 8.40887 7.96371 8.40887C7.74597 8.40887 7.5379 8.24677 7.5379 8.01935ZM14 8C14 11.3145 11.3145 14 8 14C4.68548 14 2 11.3145 2 8C2 4.68548 4.68548 2 8 2C11.3145 2 14 4.68548 14 8ZM13.3565 8C13.3565 5.04113 10.9589 2.64355 8 2.64355C5.04113 2.64355 2.64355 5.04113 2.64355 8C2.64355 10.9589 5.04113 13.3565 8 13.3565C10.9589 13.3565 13.3565 10.9589 13.3565 8ZM11.6024 10.3371C11.6024 10.4242 11.9169 10.5839 11.9968 10.6323C11.3339 11.6363 10.3081 12.3597 9.14435 12.6476L9.0379 12.2C9.03064 12.1395 8.99194 12.1323 8.93629 12.1323C8.89032 12.1323 8.86371 12.2 8.86855 12.2339L8.975 12.6887C8.65323 12.7565 8.32661 12.7903 7.99758 12.7903C7.11935 12.7903 6.25564 12.5435 5.50564 12.0863C5.54677 12.0185 5.80081 11.6508 5.80081 11.5976C5.80081 11.5516 5.75968 11.5105 5.71371 11.5105C5.61935 11.5105 5.41855 11.9121 5.35806 11.9919C4.34677 11.3218 3.61613 10.2839 3.33548 9.09839L3.79758 8.99677C3.85081 8.98226 3.86532 8.94355 3.86532 8.89516C3.86532 8.84919 3.79758 8.82258 3.75887 8.82742L3.30645 8.93145C3.24597 8.62419 3.2121 8.31452 3.2121 8C3.2121 7.10242 3.46613 6.21935 3.94274 5.4621C4.01048 5.50323 4.33226 5.72339 4.38548 5.72339C4.43145 5.72339 4.47258 5.68952 4.47258 5.64355C4.47258 5.54919 4.11694 5.37016 4.0371 5.31452C4.71935 4.31774 5.75726 3.59919 6.93548 3.33306L7.0371 3.78065C7.05161 3.83387 7.09032 3.84839 7.13871 3.84839C7.1871 3.84839 7.21129 3.78065 7.20645 3.74194L7.10484 3.29919C7.4 3.24597 7.7 3.2121 8.00242 3.2121C8.9 3.2121 9.77581 3.46613 10.5403 3.94274C10.4944 4.01048 10.279 4.325 10.279 4.37823C10.279 4.42419 10.3129 4.46532 10.3589 4.46532C10.4532 4.46532 10.6323 4.11694 10.6806 4.0371C11.6726 4.70726 12.3815 5.73064 12.6573 6.89677L12.2823 6.97661C12.2218 6.99113 12.2145 7.02984 12.2145 7.08306C12.2145 7.12903 12.2823 7.15564 12.3161 7.15081L12.6984 7.06371C12.7589 7.37097 12.7927 7.68548 12.7927 8C12.7927 8.87823 12.5508 9.74194 12.096 10.4847C12.0282 10.4508 11.7476 10.25 11.6944 10.25C11.6435 10.25 11.6024 10.2911 11.6024 10.3371ZM10.7992 4.47742C10.4847 4.77258 7.55242 7.47016 7.47016 7.61048L5.13306 11.4935C5.44032 11.2056 8.37984 8.49355 8.45484 8.36532L10.7992 4.47742Z" fill="white"/>
</svg>
